<svg width="34" height="31" viewBox="0 0 34 31" fill="none" xmlns="http://www.w3.org/2000/svg">
<path d="M11.5558 18.8108C10.6886 17.0212 10.3719 16.554 10.1863 16.2224C9.37956 14.7853 8.58892 13.3273 7.62885 11.9903C6.8725 10.9391 6.11211 9.87328 5.265 8.88046C3.76036 7.12006 2.5986 8.13792 1.29969 9.02229C0.505014 9.5625 -0.104103 10.5074 0.014897 11.4835C0.192388 12.979 0.995131 14.0949 1.79182 15.2775C2.88702 16.9065 11.5357 30.1115 11.6264 30.4974C15.2347 21.6141 16.9007 18.8463 20.1742 13.4128C23.4457 7.9794 27.5462 2.39371 33.363 0.203645C28.835 -0.555576 24.3856 2.01409 20.9326 5.1365C17.0802 8.62182 13.7785 14.0448 11.5558 18.8108Z" fill="white"/>
</svg>
