<svg width="11" height="11" viewBox="0 0 11 11" fill="none" xmlns="http://www.w3.org/2000/svg">
<path d="M5.66788 10.4867L6.14231 10.036C6.26091 9.9174 6.26091 9.72763 6.14231 9.63275L2.46549 5.95593L10.5545 5.95593C10.7205 5.95593 10.8391 5.8136 10.8391 5.67127L10.8391 5.00707C10.8391 4.84102 10.7205 4.72242 10.5545 4.72242L2.46549 4.72242L6.14231 1.02188C6.26091 0.926997 6.26091 0.737226 6.14231 0.618619L5.66788 0.167912C5.57299 0.0493055 5.38322 0.0493055 5.26461 0.167912L0.306846 5.12568C0.188239 5.24429 0.188239 5.41034 0.306846 5.52895L5.26462 10.4867C5.38322 10.6053 5.57299 10.6053 5.66788 10.4867Z" fill="#333333"/>
</svg>
