<svg width="19" height="19" viewBox="0 0 19 19" fill="none" xmlns="http://www.w3.org/2000/svg">
<path d="M9.66788 14.4867L10.1423 14.036C10.2609 13.9174 10.2609 13.7276 10.1423 13.6327L6.46549 9.95593L14.5545 9.95593C14.7205 9.95593 14.8391 9.8136 14.8391 9.67127L14.8391 9.00707C14.8391 8.84102 14.7205 8.72242 14.5545 8.72242L6.46549 8.72242L10.1423 5.02188C10.2609 4.927 10.2609 4.73723 10.1423 4.61862L9.66788 4.16791C9.57299 4.04931 9.38322 4.04931 9.26461 4.16791L4.30685 9.12568C4.18824 9.24429 4.18824 9.41034 4.30685 9.52895L9.26462 14.4867C9.38322 14.6053 9.57299 14.6053 9.66788 14.4867Z" fill="#333333"/>
</svg>
