<svg width="1095" height="27" viewBox="0 0 1095 27" fill="none" xmlns="http://www.w3.org/2000/svg" preserveAspectRatio="none">
<path d="M2 0.108398V24.9039" stroke="black" stroke-width="2.97545"/>
<path d="M51.5909 13.498V25.3999" stroke="black" stroke-width="0.991818"/>
<path d="M150.773 13.498V25.3999" stroke="black" stroke-width="0.991818"/>
<path d="M249.955 14.4897V26.3916" stroke="black" stroke-width="0.991818"/>
<path d="M349.136 14.4897V26.3916" stroke="black" stroke-width="0.991818"/>
<path d="M448.318 14.4897V26.3916" stroke="black" stroke-width="0.991818"/>
<path d="M547.5 14.4897V26.3916" stroke="black" stroke-width="0.991818"/>
<path d="M646.682 14.4897V26.3916" stroke="black" stroke-width="0.991818"/>
<path d="M745.864 14.4897V26.3916" stroke="black" stroke-width="0.991818"/>
<path d="M845.045 13.498V25.3999" stroke="black" stroke-width="0.991818"/>
<path d="M944.227 13.498V25.3999" stroke="black" stroke-width="0.991818"/>
<path d="M1043.41 14.4897V26.3916" stroke="black" stroke-width="0.991818"/>
<path d="M101.182 0.604492V25.3999" stroke="black" stroke-width="2.97545"/>
<path d="M200.364 1.1001V25.8956" stroke="black" stroke-width="2.97545"/>
<path d="M299.546 1.59619V26.3916" stroke="black" stroke-width="2.97545"/>
<path d="M398.727 1.59619V26.3916" stroke="black" stroke-width="2.97545"/>
<path d="M497.909 1.59619V26.3916" stroke="black" stroke-width="2.97545"/>
<path d="M597.091 1.59619V26.3916" stroke="black" stroke-width="2.97545"/>
<path d="M696.273 1.59619V26.3916" stroke="black" stroke-width="2.97545"/>
<path d="M795.455 1.59619V26.3916" stroke="black" stroke-width="2.97545"/>
<path d="M894.636 1.59619V26.3916" stroke="black" stroke-width="2.97545"/>
<path d="M993.818 1.59619V26.3916" stroke="black" stroke-width="2.97545"/>
<path d="M1093 1.59619V26.3916" stroke="black" stroke-width="2.97545"/>
</svg>
