<svg width="1088" height="27" viewBox="0 0 1088 27" fill="none" xmlns="http://www.w3.org/2000/svg" preserveAspectRatio="none">
<path d="M2 0.192627V24.829" stroke="white" stroke-width="2.95636"/>
<path d="M51.2727 13.4963V25.3218" stroke="white" stroke-width="0.985455"/>
<path d="M149.818 13.4963V25.3218" stroke="white" stroke-width="0.985455"/>
<path d="M248.364 14.4819V26.3074" stroke="white" stroke-width="0.985455"/>
<path d="M346.909 14.4819V26.3074" stroke="white" stroke-width="0.985455"/>
<path d="M445.455 14.4819V26.3074" stroke="white" stroke-width="0.985455"/>
<path d="M544 14.4819V26.3074" stroke="white" stroke-width="0.985455"/>
<path d="M642.545 14.4819V26.3074" stroke="white" stroke-width="0.985455"/>
<path d="M741.091 14.4819V26.3074" stroke="white" stroke-width="0.985455"/>
<path d="M839.636 13.4963V25.3218" stroke="white" stroke-width="0.985455"/>
<path d="M938.182 13.4963V25.3218" stroke="white" stroke-width="0.985455"/>
<path d="M1036.73 14.4819V26.3074" stroke="white" stroke-width="0.985455"/>
<path d="M100.546 0.685547V25.3219" stroke="white" stroke-width="2.95636"/>
<path d="M199.091 1.17822V25.8146" stroke="white" stroke-width="2.95636"/>
<path d="M297.636 1.6709V26.3073" stroke="white" stroke-width="2.95636"/>
<path d="M396.182 1.6709V26.3073" stroke="white" stroke-width="2.95636"/>
<path d="M494.727 1.6709V26.3073" stroke="white" stroke-width="2.95636"/>
<path d="M593.273 1.6709V26.3073" stroke="white" stroke-width="2.95636"/>
<path d="M691.818 1.6709V26.3073" stroke="white" stroke-width="2.95636"/>
<path d="M790.364 1.6709V26.3073" stroke="white" stroke-width="2.95636"/>
<path d="M888.909 1.6709V26.3073" stroke="white" stroke-width="2.95636"/>
<path d="M987.455 1.6709V26.3073" stroke="white" stroke-width="2.95636"/>
<path d="M1086 1.6709V26.3073" stroke="white" stroke-width="2.95636"/>
</svg>
