<svg width="286" height="284" viewBox="0 0 286 284" fill="none" xmlns="http://www.w3.org/2000/svg">
<path d="M205.136 39.807L206.884 40.9516L216.464 26.3194L214.335 25.7575L216.836 21.9376L220.438 22.7234L222.769 24.2495L210.348 43.2195L211.999 44.3005L209.582 47.9909L202.719 43.4974L205.136 39.807Z" fill="black"/>
<path d="M212.395 50.7233C211.905 50.349 211.593 49.8684 211.46 49.2814C211.346 48.7101 211.516 48.1283 211.968 47.5362C212.405 46.9645 212.914 46.658 213.495 46.6168C214.096 46.5912 214.642 46.7656 215.132 47.1398C215.622 47.5141 215.924 47.9869 216.037 48.5583C216.17 49.1453 216.019 49.7246 215.582 50.2963C215.13 50.8885 214.613 51.2051 214.032 51.2463C213.451 51.2875 212.906 51.1131 212.395 50.7233Z" fill="black"/>
<path d="M217.977 55.2988C217.072 54.5018 216.404 53.726 215.974 52.9714L218.899 49.6475C219.192 50.2472 219.618 50.7929 220.176 51.2846C220.697 51.7425 221.26 51.8793 221.867 51.6951C222.51 51.5085 223.382 50.789 224.484 49.5365C225.688 48.1684 226.341 47.1356 226.442 46.4381C226.56 45.7213 226.329 45.1085 225.751 44.5998C225.289 44.1928 224.825 43.9042 224.359 43.7338L234.11 33.236L239.544 38.0178L236.695 41.2551L233.979 38.8641L229.692 43.5026L229.807 43.6043C230.792 44.5054 231.131 45.675 230.822 47.1133C230.531 48.5322 229.554 50.1859 227.893 52.0743C226.4 53.77 225.068 54.9735 223.895 55.6849C222.741 56.4133 221.688 56.7351 220.737 56.6503C219.803 56.5463 218.883 56.0957 217.977 55.2988Z" fill="black"/>
<path d="M241.548 74.6879L242.663 76.4454L257.374 67.1168L255.673 65.7308L259.514 63.2955L262.457 65.4904L263.943 67.8337L244.871 79.9278L245.924 81.5877L242.214 83.9404L237.838 77.0407L241.548 74.6879Z" fill="black"/>
<path d="M245.251 89.889C244.441 88.2884 244.377 86.8277 245.059 85.5069C245.741 84.186 247.145 82.988 249.271 81.9128C252.175 80.4445 254.74 79.9517 256.965 80.4345C257.373 79.4815 257.914 78.677 258.587 78.0208C259.26 77.3646 260.168 76.7475 261.312 76.1694C263.301 75.1636 265.007 74.7606 266.428 74.9605C267.885 75.1717 268.989 76.0204 269.74 77.5067C270.492 78.993 270.521 80.3851 269.828 81.6831C269.134 82.9811 267.782 84.1387 265.769 85.1562C263.506 86.3007 261.256 86.7062 259.02 86.3724C258.612 87.4399 258.009 88.3765 257.21 89.1822C256.446 89.9993 255.344 90.7719 253.904 91.5003C251.937 92.4946 250.203 92.8691 248.7 92.6237C247.21 92.4012 246.06 91.4897 245.251 89.889ZM251.624 85.3743C250.504 85.9408 249.756 86.4197 249.379 86.811C249.003 87.2023 248.907 87.5809 249.092 87.9467C249.277 88.3126 249.616 88.4715 250.108 88.4234C250.601 88.3754 251.362 88.0912 252.391 87.571C253.328 87.0969 254.048 86.5895 254.549 86.0487C255.074 85.4963 255.489 84.8413 255.795 84.0836C255.154 84.1209 254.507 84.2327 253.855 84.4189C253.237 84.6165 252.493 84.9349 251.624 85.3743ZM262.875 79.8579C262.029 80.2857 261.372 80.747 260.905 81.2418C260.472 81.748 260.136 82.3625 259.899 83.0855C260.987 82.9087 262.045 82.5602 263.074 82.04C264.332 81.4041 265.154 80.9019 265.542 80.5335C265.953 80.1535 266.072 79.792 265.899 79.449C265.737 79.1289 265.427 78.9985 264.969 79.0579C264.533 79.1057 263.836 79.3723 262.875 79.8579Z" fill="black"/>
<path d="M260.512 121.443L260.806 123.503L278.05 121.043L277.07 119.08L281.572 118.438L283.353 121.648L283.745 124.395L261.388 127.585L261.666 129.531L257.316 130.152L256.162 122.063L260.512 121.443Z" fill="black"/>
<path d="M257.479 136.741C257.412 135.407 257.731 134.336 258.437 133.529C259.168 132.721 260.473 132.077 262.353 131.596C264.234 131.142 266.906 130.828 270.37 130.654C275.271 130.409 278.902 130.741 281.263 131.652C283.651 132.587 284.904 134.247 285.024 136.634C285.077 137.686 284.958 138.644 284.667 139.507L280.279 139.727C280.561 139.198 280.679 138.485 280.634 137.587C280.6 136.894 280.366 136.34 279.934 135.924C279.527 135.507 278.83 135.195 277.842 134.987C276.881 134.804 275.512 134.705 273.737 134.692C274.363 135.38 274.696 136.135 274.738 136.957C274.806 138.316 274.318 139.357 273.274 140.078C272.229 140.799 270.27 141.232 267.396 141.376C264.933 141.5 262.986 141.404 261.555 141.09C260.125 140.776 259.096 140.262 258.468 139.547C257.868 138.857 257.538 137.922 257.479 136.741ZM269.345 134.835C267.112 134.946 265.434 135.069 264.309 135.203C263.21 135.361 262.473 135.526 262.095 135.7C261.745 135.897 261.578 136.163 261.595 136.496C261.609 136.779 261.748 136.977 262.011 137.093C262.301 137.233 262.806 137.31 263.527 137.326C264.275 137.365 265.381 137.348 266.843 137.275C268.434 137.195 269.495 137.065 270.026 136.884C270.558 136.703 270.814 136.42 270.794 136.035C270.776 135.676 270.537 135.264 270.076 134.798L269.345 134.835Z" fill="black"/>
<path d="M257.438 176.016L256.793 177.993L273.341 183.393L273.327 181.201L277.647 182.61L277.829 186.275L276.969 188.911L255.514 181.91L254.905 183.777L250.731 182.415L253.264 174.654L257.438 176.016Z" fill="black"/>
<path d="M251.023 190.14L253.314 184.917L255.996 186.093L273.036 198.957L271.256 203.015L253.328 195.149L252.832 196.278L249.056 194.622L249.552 193.492L246.552 192.176L248.023 188.824L251.023 190.14ZM254.799 191.796L264.61 196.101L255.712 189.714L254.799 191.796Z" fill="black"/>
<path d="M223.636 230.379L222.055 231.731L233.377 244.97L234.508 243.09L237.464 246.546L235.709 249.771L233.6 251.575L218.921 234.412L217.427 235.689L214.571 232.35L220.78 227.04L223.636 230.379Z" fill="black"/>
<path d="M210.838 234.841C211.774 234.163 212.705 233.695 213.629 233.439L216.182 236.966C215.47 237.165 214.822 237.475 214.239 237.897C213.698 238.289 213.451 238.801 213.497 239.434C213.522 240.082 213.926 240.947 214.709 242.029C215.553 243.195 216.263 243.87 216.841 244.054C217.398 244.254 217.999 244.12 218.644 243.653L219.206 243.246L221.805 246.836L221.336 247.175C220.754 247.597 220.463 248.093 220.463 248.664C220.458 249.27 220.87 250.145 221.698 251.29C222.497 252.393 223.159 253.024 223.686 253.182C224.213 253.339 224.715 253.245 225.194 252.899C225.777 252.477 226.235 251.971 226.569 251.38L229.122 254.908C228.522 255.787 227.836 256.505 227.066 257.062C225.63 258.102 224.263 258.426 222.964 258.034C221.645 257.657 220.231 256.428 218.725 254.346C217.866 253.16 217.263 252.042 216.916 250.993C216.569 249.944 216.502 249.041 216.715 248.284C215.907 248.394 215.037 248.135 214.108 247.508C213.172 246.916 212.192 245.913 211.168 244.498C209.525 242.229 208.692 240.311 208.667 238.743C208.657 237.196 209.381 235.895 210.838 234.841Z" fill="black"/>
<path d="M173.235 258.067L171.216 258.525L175.048 275.421L176.914 274.291L177.915 278.702L174.876 280.727L172.184 281.338L167.216 259.432L165.31 259.864L164.343 255.603L172.268 253.805L173.235 258.067Z" fill="black"/>
<path d="M163.111 258.526C163.376 260.383 163.414 262.013 163.225 263.415C163.039 264.843 162.706 266.513 162.226 268.424C161.819 269.935 161.535 271.221 161.375 272.282C161.219 273.369 161.228 274.522 161.402 275.743C161.576 276.964 161.836 277.783 162.181 278.201C162.526 278.619 162.953 278.792 163.462 278.719C164.225 278.61 164.926 278.251 165.566 277.64L166.208 282.142C165.31 282.763 164.277 283.158 163.107 283.324C161.555 283.546 160.303 283.14 159.352 282.108C158.378 281.105 157.713 279.358 157.358 276.865C157.097 275.034 157.051 273.444 157.222 272.096C157.393 270.748 157.715 269.184 158.188 267.404C158.548 265.925 158.806 264.733 158.962 263.829C159.093 262.928 159.119 261.925 159.039 260.82L155.186 261.37L154.565 257.021L162.73 255.856L163.111 258.526Z" fill="black"/>
<path d="M116.127 259.209L114.109 258.689L109.754 275.586L111.946 275.433L110.809 279.844L107.154 280.258L104.463 279.564L110.109 257.658L108.202 257.167L109.3 252.905L117.225 254.948L116.127 259.209Z" fill="black"/>
<path d="M106.54 256.546L104.577 255.855L98.7965 272.288L100.99 272.324L99.4808 276.614L95.8105 276.711L93.1929 275.791L100.687 254.487L98.8327 253.835L100.291 249.69L107.998 252.401L106.54 256.546Z" fill="black"/>
<path d="M65.669 227.972C66.4074 228.649 66.9951 229.415 67.432 230.269L64.4622 233.507C64.273 232.915 63.8565 232.323 63.2128 231.733C62.7016 231.264 62.1548 231.024 61.5724 231.013C60.9727 231.02 60.2482 231.297 59.3989 231.843C58.5496 232.389 57.5061 233.279 56.2683 234.515C57.1222 234.496 57.8804 234.791 58.5431 235.398C59.2247 236.024 59.6356 236.697 59.7758 237.418C59.916 238.14 59.7263 239.011 59.2067 240.034C58.6871 241.056 57.7674 242.287 56.4475 243.726C54.7802 245.544 53.327 246.843 52.0878 247.624C50.8486 248.405 49.7634 248.751 48.8323 248.664C47.8838 248.596 46.9835 248.171 46.1315 247.39C45.1281 246.469 44.6029 245.465 44.5559 244.375C44.4915 243.305 44.9694 241.948 45.9895 240.304C46.9907 238.643 48.6636 236.534 51.0082 233.978C54.3253 230.362 57.1622 228.048 59.5189 227.037C61.8582 226.045 63.9083 226.357 65.669 227.972ZM53.1742 241.194C54.2336 240.039 54.8976 239.202 55.1661 238.681C55.4172 238.179 55.4007 237.798 55.1167 237.537C54.8327 237.277 54.3459 237.161 53.6562 237.191L53.2133 237.674C51.7024 239.321 50.6114 240.587 49.9403 241.47C49.2329 242.355 48.824 242.991 48.7133 243.378C48.5854 243.783 48.6444 244.099 48.8906 244.325C49.0988 244.516 49.3553 244.559 49.6599 244.455C49.9283 244.353 50.3427 244.053 50.9031 243.556C51.4273 243.061 52.1843 242.273 53.1742 241.194Z" fill="black"/>
<path d="M34.8103 183.036C35.4463 184.718 35.354 186.181 34.5334 187.425C33.7128 188.669 32.185 189.714 29.95 190.559C26.898 191.713 24.2884 191.93 22.1214 191.211C21.6127 192.118 20.9877 192.862 20.2465 193.445C19.5053 194.027 18.534 194.545 17.3324 195C15.2416 195.79 13.4981 196.01 12.1019 195.659C10.6725 195.293 9.66259 194.329 9.07202 192.767C8.48145 191.205 8.601 189.813 9.43067 188.593C10.2603 187.373 11.7326 186.363 13.8474 185.564C16.2266 184.664 18.513 184.5 20.7067 185.072C21.2271 184.051 21.9285 183.182 22.8106 182.464C23.6596 181.731 24.8411 181.078 26.3552 180.506C28.4219 179.724 30.1911 179.536 31.6626 179.941C33.125 180.322 34.1743 181.354 34.8103 183.036ZM27.9735 186.857C29.151 186.411 29.9483 186.014 30.3654 185.664C30.7824 185.314 30.9183 184.947 30.7729 184.562C30.6275 184.178 30.3067 183.983 29.8106 183.978C29.3144 183.974 28.5256 184.176 27.4441 184.585C26.4588 184.957 25.6872 185.386 25.1292 185.872C24.5471 186.367 24.0631 186.975 23.6772 187.698C24.3208 187.729 24.9777 187.687 25.6479 187.571C26.2851 187.44 27.0603 187.202 27.9735 186.857ZM16.1673 191.155C17.0565 190.819 17.7606 190.429 18.2796 189.986C18.7656 189.528 19.1654 188.951 19.4793 188.255C18.3759 188.315 17.2835 188.55 16.202 188.959C14.8803 189.458 14.0063 189.871 13.5802 190.197C13.13 190.532 12.9731 190.88 13.1094 191.24C13.2366 191.577 13.5317 191.74 13.9948 191.729C14.4338 191.728 15.158 191.537 16.1673 191.155Z" fill="black"/>
<path d="M4.67854 130.649L4.35482 134.695L0 134.347L0.665941 126.022L4.44269 126.325L27.3868 131.379L27.0477 135.618L4.67854 130.649Z" fill="black"/>
<path d="M40.916 87.4956C40.2881 88.6712 39.4651 89.4231 38.4472 89.7512C37.4067 90.0672 35.9593 89.948 34.1051 89.3936C32.263 88.8165 29.8158 87.7129 26.7636 86.0827C22.4452 83.7764 19.5102 81.6276 17.9584 79.6365C16.396 77.6106 16.1764 75.5464 17.2994 73.4438C17.7944 72.5168 18.3882 71.7587 19.0806 71.1696L22.9468 73.2345C22.4339 73.5418 21.9662 74.0911 21.5436 74.8824C21.2175 75.4928 21.1328 76.0868 21.2892 76.6644C21.4231 77.2299 21.8592 77.8551 22.5976 78.54C23.3255 79.1903 24.4452 79.9773 25.957 80.9009C25.7751 79.9901 25.8773 79.173 26.2637 78.4495C26.9037 77.2512 27.8555 76.6117 29.119 76.5311C30.3826 76.4504 32.2805 77.0863 34.8127 78.4387C36.9831 79.5979 38.5996 80.6792 39.6619 81.6825C40.7243 82.6857 41.3404 83.6541 41.5102 84.5875C41.6695 85.4862 41.4714 86.4555 40.916 87.4956ZM29.7869 83.0336C31.7539 84.0842 33.2529 84.8412 34.2839 85.3047C35.3044 85.7335 36.0205 85.9706 36.432 86.0161C36.8331 86.0269 37.1121 85.8853 37.2691 85.5914C37.4019 85.3427 37.3855 85.1014 37.2198 84.8676C37.0435 84.5992 36.6509 84.2733 36.042 83.8899C35.4226 83.4719 34.4685 82.9188 33.1798 82.2305C31.778 81.4818 30.8035 81.0485 30.2563 80.9306C29.7091 80.8126 29.3449 80.9233 29.1637 81.2624C28.9947 81.5789 28.9876 82.0546 29.1425 82.6895L29.7869 83.0336Z" fill="black"/>
<path d="M74.0784 49.4047C73.142 50.0869 72.211 50.5579 71.2856 50.8179L68.7162 47.2905C69.4297 47.0894 70.0778 46.7766 70.6605 46.3521C71.2016 45.958 71.4482 45.4439 71.4004 44.8098C71.3735 44.1606 70.9658 43.2949 70.1776 42.2127C69.3287 41.0473 68.6146 40.3731 68.0353 40.1899C67.4767 39.9915 66.8749 40.1273 66.2298 40.5972L65.6679 41.0065L63.053 37.4167L63.5213 37.0756C64.104 36.6512 64.3942 36.1531 64.3919 35.5815C64.3952 34.9738 63.98 34.0977 63.1463 32.9532C62.3429 31.8502 61.6771 31.2203 61.1489 31.0636C60.6206 30.9069 60.1172 31.0029 59.6386 31.3515C59.0559 31.7759 58.5982 32.2845 58.2654 32.8772L55.6961 29.3498C56.2955 28.4673 56.9802 27.7456 57.7502 27.1848C59.1861 26.1388 60.5554 25.8104 61.858 26.1993C63.1814 26.5732 64.601 27.8006 66.1168 29.8817C66.9809 31.0679 67.5884 32.1861 67.9393 33.2364C68.2903 34.2867 68.36 35.1915 68.1486 35.9507C68.9586 35.8384 69.8305 36.0952 70.7642 36.721C71.7035 37.3109 72.6885 38.3134 73.7193 39.7286C75.3715 41.9969 76.2124 43.9166 76.242 45.4877C76.2564 47.038 75.5352 48.3437 74.0784 49.4047Z" fill="black"/>
<path d="M96.6646 7.61914L104.319 5.23807L105.658 9.54353L101.905 10.7112L108.578 32.1649L104.678 33.3783L96.6646 7.61914Z" fill="black"/>
<path d="M108.623 3.87743L113.457 2.7922L123.093 28.3985L118.939 29.3312L117.384 24.5231L114.362 25.2014L114.973 30.2214L110.819 31.154L108.623 3.87743ZM116.036 20.462L112.397 9.37761L113.845 20.9537L116.036 20.462Z" fill="black"/>
<path d="M128.637 16.4507L126.226 16.7407L127.584 28.0281L123.528 28.5161L120.306 1.73242L124.362 1.24449L125.702 12.3788L128.112 12.0888L126.773 0.95449L130.828 0.466556L134.051 27.2502L129.995 27.7381L128.637 16.4507Z" fill="black"/>
<path d="M137.196 4.52578L134.152 4.59963L134.046 0.246094L144.179 0.000228581L144.285 4.35377L141.279 4.42669L141.828 27.042L137.744 27.1411L137.196 4.52578Z" fill="black"/>
<path d="M147.154 0.103516L154.963 0.564759L154.711 4.83506L150.98 4.61466L150.577 11.4241L153.924 11.6217L153.677 15.8151L150.33 15.6174L149.893 23.0039L153.779 23.2334L153.527 27.5037L145.563 27.0333L147.154 0.103516Z" fill="black"/>
<path d="M155.177 27.8298C154.593 27.7384 154.093 27.6082 153.678 27.4391L154.417 22.7179C154.561 22.7925 154.76 22.8496 155.014 22.8894C155.547 22.9729 156.012 22.5776 156.409 21.7036C156.81 20.8041 157.31 18.8541 157.91 15.8534C158.514 12.8273 159.372 7.92968 160.484 1.16042L170.383 2.71061L166.21 29.3626L162.136 28.7246L165.636 6.37503L163.808 6.08885C162.728 12.655 161.806 17.4646 161.042 20.5176C160.278 23.5706 159.463 25.6145 158.599 26.6494C157.739 27.659 156.598 28.0524 155.177 27.8298Z" fill="black"/>
<path d="M174.417 3.62012L178.363 4.67741L176.099 13.1275L177.327 13.4567C178.99 13.9022 180.039 14.9014 180.474 16.4543C180.909 18.0072 180.714 20.3222 179.89 23.3995C179.005 26.7001 177.987 28.9141 176.833 30.0414C175.705 31.1754 174.297 31.5163 172.609 31.0641L167.435 29.6777L174.417 3.62012ZM173.27 26.8124C173.617 26.9055 173.92 26.867 174.179 26.6968C174.444 26.5019 174.703 26.0793 174.957 25.4292C175.243 24.761 175.572 23.732 175.944 22.3422C176.276 21.1014 176.479 20.1451 176.553 19.4732C176.627 18.8014 176.594 18.3272 176.455 18.0507C176.342 17.7808 176.123 17.6026 175.801 17.5161L174.982 17.2967L172.488 26.603L173.27 26.8124Z" fill="black"/>
<path d="M142.463 244.924C199.043 244.924 244.909 199.057 244.909 142.477C244.909 85.898 199.043 40.0312 142.463 40.0312C85.8838 40.0312 40.0171 85.898 40.0171 142.477C40.0171 199.057 85.8838 244.924 142.463 244.924Z" stroke="black" stroke-width="4.49604" stroke-miterlimit="10"/>
</svg>
