<svg width="56" height="31" viewBox="0 0 56 31" fill="none" xmlns="http://www.w3.org/2000/svg">
<g clip-path="url(#clip0_159_604)">
<path d="M33.9567 24.576C33.9567 28.0186 31.2027 30.8023 27.803 30.8023C24.4033 30.8023 21.6493 28.0158 21.6493 24.576V16.2771C21.6493 12.8373 24.4119 10.0508 27.803 10.0508C31.1941 10.0508 33.9567 12.8373 33.9567 16.2771V24.576Z" fill="#353635"/>
<path fill-rule="evenodd" clip-rule="evenodd" d="M6.1537 12.646C9.53909 12.646 12.3074 9.84209 12.3074 6.41964C12.3074 2.99719 9.53909 0.19043 6.1537 0.19043C2.76831 0.19043 0 2.98562 0 6.41675C0 9.84787 2.76259 12.6431 6.1537 12.6431V12.646Z" fill="#353635"/>
<path fill-rule="evenodd" clip-rule="evenodd" d="M4.61658 7.19657C5.88788 7.19657 6.92493 6.14729 6.92493 4.86098C6.92493 3.57467 5.88788 2.52539 4.61658 2.52539C3.34527 2.52539 2.30823 3.57467 2.30823 4.86098C2.30823 6.14729 3.34527 7.19657 4.61658 7.19657Z" fill="white"/>
<path fill-rule="evenodd" clip-rule="evenodd" d="M49.2382 12.646C52.6236 12.646 55.3919 9.84209 55.3919 6.41964C55.3919 2.99719 52.6236 0.19043 49.2382 0.19043C45.8528 0.19043 43.0845 2.98562 43.0845 6.41675C43.0845 9.84787 45.8471 12.6431 49.2382 12.6431V12.646Z" fill="#353635"/>
<path fill-rule="evenodd" clip-rule="evenodd" d="M47.6984 7.19657C48.9697 7.19657 50.0067 6.14729 50.0067 4.86098C50.0067 3.57467 48.9697 2.52539 47.6984 2.52539C46.4271 2.52539 45.39 3.57467 45.39 4.86098C45.39 6.14729 46.4271 7.19657 47.6984 7.19657Z" fill="white"/>
<path fill-rule="evenodd" clip-rule="evenodd" d="M49.2382 21.9851C50.9295 21.9851 52.3151 20.5832 52.3151 18.8719C52.3151 17.1607 50.9295 15.7588 49.2382 15.7588C47.547 15.7588 46.1614 17.152 46.1614 18.8719C46.1614 20.5918 47.5384 21.9851 49.2382 21.9851Z" fill="#FE96CB"/>
<path fill-rule="evenodd" clip-rule="evenodd" d="M6.15375 21.9851C7.84502 21.9851 9.2306 20.5832 9.2306 18.8719C9.2306 17.1607 7.84502 15.7588 6.15375 15.7588C4.46249 15.7588 3.0769 17.152 3.0769 18.8719C3.0769 20.5918 4.45392 21.9851 6.15375 21.9851Z" fill="#FE96CB"/>
</g>
<defs>
<clipPath id="clip0_159_604">
<rect width="55.3918" height="30.6113" fill="white" transform="translate(0 0.19043)"/>
</clipPath>
</defs>
</svg>
