<svg width="60" height="33" viewBox="0 0 60 33" fill="none" xmlns="http://www.w3.org/2000/svg">
<path d="M21.2186 13.8476C21.2186 14.6616 20.5603 15.3172 19.7462 15.3172C18.9322 15.3172 18.2738 14.6589 18.2738 13.8476C18.2738 11.8179 17.4543 9.97666 16.1212 8.64356C14.7881 7.31866 12.9469 6.49093 10.9172 6.49093C8.88749 6.49093 7.04628 7.31866 5.71319 8.64356C4.38009 9.97666 3.56056 11.8179 3.56056 13.8476C3.56056 14.6616 2.9022 15.3172 2.08814 15.3172C1.27407 15.3172 0.615723 14.6589 0.615723 13.8476C0.615723 11.0065 1.76852 8.42775 3.62885 6.56742C5.49464 4.70163 8.07342 3.54883 10.9144 3.54883C13.7555 3.54883 16.3343 4.70163 18.1946 6.56742C20.0604 8.42502 21.2159 11.0038 21.2159 13.8476H21.2186Z" fill="#353635"/>
<path d="M59.4713 13.8476C59.4713 14.6616 58.813 15.3172 57.9989 15.3172C57.1848 15.3172 56.5265 14.6589 56.5265 13.8476C56.5265 11.8179 55.707 9.97666 54.3739 8.64356C53.0435 7.31866 51.1996 6.49093 49.1699 6.49093C47.1402 6.49093 45.299 7.31866 43.9659 8.64356C42.6355 9.97666 41.8132 11.8179 41.8132 13.8476C41.8132 14.6616 41.1549 15.3172 40.3408 15.3172C39.5268 15.3172 38.8684 14.6589 38.8684 13.8476C38.8684 11.0065 40.0212 8.42775 41.8815 6.56742C43.7473 4.70163 46.3261 3.54883 49.1671 3.54883C52.0082 3.54883 54.5869 4.70163 56.4473 6.56742C58.3131 8.42502 59.4686 11.0038 59.4686 13.8476H59.4713Z" fill="#353635"/>
<path fill-rule="evenodd" clip-rule="evenodd" d="M51.3033 24.1459C52.9287 24.1459 54.2454 22.821 54.2454 21.2038C54.2454 19.5866 52.9287 18.2617 51.3033 18.2617C49.6779 18.2617 48.3612 19.5866 48.3612 21.2038C48.3612 22.821 49.6861 24.1459 51.3033 24.1459Z" fill="#FE96CB"/>
<path fill-rule="evenodd" clip-rule="evenodd" d="M10.1058 24.1459C11.7312 24.1459 13.0479 22.821 13.0479 21.2038C13.0479 19.5866 11.7312 18.2617 10.1058 18.2617C8.4804 18.2617 7.1637 19.5866 7.1637 21.2038C7.1637 22.821 8.4886 24.1459 10.1058 24.1459Z" fill="#FE96CB"/>
<path fill-rule="evenodd" clip-rule="evenodd" d="M38.8739 22.6515C38.8739 27.5304 34.9184 31.4778 30.0476 31.4778C25.1769 31.4778 21.2213 27.5277 21.2213 22.6515V19.7559C21.4071 19.8187 21.5928 19.8706 21.795 19.917C27.253 21.078 32.8449 21.078 38.303 19.917C38.497 19.8706 38.6909 19.816 38.8767 19.7559V22.6515H38.8739Z" fill="#353635"/>
<path d="M40.3463 22.6519C40.3463 25.5011 39.1935 28.0717 37.325 29.9375C35.4674 31.8033 32.8886 32.9506 30.0448 32.9506C27.2011 32.9506 24.625 31.8033 22.7592 29.9375C20.9016 28.0717 19.7461 25.5011 19.7461 22.6519V19.7562C19.7461 18.9421 20.4044 18.2838 21.2185 18.2838C21.4043 18.2838 21.59 18.322 21.7594 18.3849L21.8987 18.4313C21.9616 18.4477 22.0216 18.4613 22.0927 18.4777C24.7179 19.035 27.3732 19.3137 30.0448 19.3137C32.7165 19.3137 35.3718 19.035 37.997 18.4777C38.068 18.4613 38.1281 18.4477 38.1909 18.4313C38.2292 18.4231 38.292 18.4012 38.3767 18.3685C39.1443 18.098 39.9802 18.4914 40.2589 19.259C40.3135 19.4229 40.3436 19.5923 40.3436 19.7535V22.6491L40.3463 22.6519ZM35.2516 27.8559C36.5846 26.5228 37.4042 24.6898 37.4042 22.6519V21.5919C34.9565 22.0345 32.5034 22.2585 30.0476 22.2585C27.5917 22.2585 25.1304 22.0345 22.6909 21.5919V22.6519C22.6909 24.6898 23.5105 26.5228 24.8436 27.8559C26.1767 29.189 28.0097 30.0085 30.0476 30.0085C32.0854 30.0085 33.9185 29.189 35.2516 27.8559Z" fill="#353635"/>
<path fill-rule="evenodd" clip-rule="evenodd" d="M36.7377 25.7164C35.1205 23.8424 32.7193 22.6514 30.0476 22.6514C27.376 22.6514 24.9747 23.8451 23.3575 25.7164C23.7209 26.5223 24.2317 27.2407 24.8436 27.8526C26.1767 29.1857 28.0097 30.0053 30.0476 30.0053C32.0855 30.0053 33.9185 29.1857 35.2516 27.8526C35.8635 27.2407 36.3662 26.5195 36.7377 25.7164Z" fill="#FD0068"/>
<path d="M8.15522 4.59209C8.72889 5.17396 8.72889 6.10276 8.15522 6.67643C7.58156 7.2501 6.64457 7.2501 6.0709 6.67643L1.91316 2.51869C1.33949 1.93683 1.33949 1.00803 1.91316 0.437088C2.48683 -0.136581 3.41562 -0.136581 3.98929 0.437088L8.15522 4.59483V4.59209Z" fill="#353635"/>
<path d="M6.38236 3.56152C7.18822 3.56152 7.84658 4.21168 7.84658 5.02575C7.84658 5.83981 7.18822 6.48997 6.38236 6.48997H1.99242C1.18655 6.48997 0.528198 5.83162 0.528198 5.02575C0.528198 4.21988 1.18655 3.56152 1.99242 3.56152H6.38236Z" fill="#353635"/>
<path d="M54.0133 6.67623C53.4397 7.2499 52.5109 7.2499 51.9372 6.67623C51.3635 6.10256 51.3635 5.17376 51.9372 4.5919L56.0949 0.434158C56.6686 -0.139511 57.6056 -0.139511 58.1765 0.434158C58.7502 1.00783 58.7502 1.93662 58.1765 2.51576L54.0106 6.67349L54.0133 6.67623Z" fill="#353635"/>
<path d="M53.7101 6.48997C52.9042 6.48997 52.2458 5.83162 52.2458 5.02575C52.2458 4.21988 52.9042 3.56152 53.7101 3.56152H58.0918C58.9059 3.56152 59.5642 4.21168 59.5642 5.02575C59.5642 5.83981 58.9059 6.48997 58.0918 6.48997H53.7101Z" fill="#353635"/>
</svg>
