<svg width="66" height="35" viewBox="0 0 66 35" fill="none" xmlns="http://www.w3.org/2000/svg">
<path fill-rule="evenodd" clip-rule="evenodd" d="M43.0913 23.4589C43.0913 28.8512 38.7121 33.2304 33.3199 33.2304C27.9276 33.2304 23.5454 28.8512 23.5454 23.4589V20.2441C23.7511 20.3228 23.9567 20.3802 24.1805 20.4256C30.223 21.7109 36.4137 21.7109 42.4562 20.4256C42.6709 20.3833 42.8856 20.3228 43.0913 20.2441V23.4589Z" fill="#353635"/>
<path d="M44.7212 23.459C44.7212 26.6043 43.445 29.4592 41.3764 31.5157C39.3199 33.5813 36.4649 34.8606 33.3167 34.8606C30.1684 34.8606 27.3165 33.5843 25.2509 31.5157C23.1944 29.4592 21.9152 26.6043 21.9152 23.459V20.2442C21.9152 19.343 22.644 18.6172 23.5452 18.6172C23.7509 18.6172 23.9565 18.6595 24.1441 18.7291L24.2983 18.7805C24.3678 18.8077 24.4344 18.8228 24.513 18.841C27.4193 19.4579 30.3589 19.7573 33.3167 19.7573C36.2744 19.7573 39.214 19.4579 42.1203 18.841C42.1899 18.8228 42.2655 18.8077 42.3351 18.7805C42.3774 18.7714 42.447 18.7472 42.5407 18.7109C43.3905 18.4115 44.316 18.8561 44.6244 19.6969C44.6849 19.8844 44.7182 20.0658 44.7182 20.2442V23.459H44.7212ZM39.0809 29.2203C40.5477 27.7444 41.4641 25.7061 41.4641 23.459V22.2766C38.7543 22.7725 36.0385 23.0145 33.3197 23.0145C30.6009 23.0145 27.876 22.7756 25.1753 22.2766V23.459C25.1753 25.7061 26.0826 27.7444 27.5585 29.2203C29.0343 30.6871 31.0636 31.6034 33.3197 31.6034C35.5758 31.6034 37.6051 30.6871 39.0809 29.2203Z" fill="#353635"/>
<path fill-rule="evenodd" clip-rule="evenodd" d="M40.7263 26.8551C38.9269 24.7714 36.2776 23.4619 33.3199 23.4619C30.3622 23.4619 27.7038 24.7744 25.9135 26.8551C26.3157 27.7382 26.8812 28.5366 27.5587 29.2201C29.0345 30.6869 31.0638 31.6033 33.3199 31.6033C35.576 31.6033 37.6053 30.6869 39.0811 29.2201C39.7586 28.5336 40.315 27.7382 40.7263 26.8551Z" fill="#FD0068"/>
<path d="M9.08332 5.08938C9.71842 5.72448 9.71842 6.75273 9.08332 7.3969C8.44822 8.032 7.4109 8.032 6.77882 7.3969L2.17286 2.78186C1.53776 2.14676 1.53776 1.11851 2.17286 0.483412C2.80795 -0.157734 3.83621 -0.157734 4.4713 0.486436L9.08332 5.08938Z" fill="#353635"/>
<path d="M8.74155 3.93945C9.64279 3.93945 10.3716 4.6683 10.3716 5.56651C10.3716 6.46472 9.64279 7.18752 8.74155 7.18752H2.26054C1.36838 7.18752 0.639526 6.45867 0.639526 5.56651C0.639526 4.67435 1.36838 3.93945 2.26054 3.93945H8.74155Z" fill="#353635"/>
<path fill-rule="evenodd" clip-rule="evenodd" d="M10.5138 15.3412C14.0976 15.3412 17.0281 12.4106 17.0281 8.82688C17.0281 5.24311 14.0976 2.30957 10.5138 2.30957C6.93003 2.30957 3.99951 5.23404 3.99951 8.82688C3.99951 12.4197 6.92398 15.3412 10.5138 15.3412Z" fill="#353635"/>
<path fill-rule="evenodd" clip-rule="evenodd" d="M8.0732 8.01017C8.96536 8.01017 9.70328 7.27224 9.70328 6.38008C9.70328 5.48792 8.96536 4.75 8.0732 4.75C7.18104 4.75 6.44312 5.47885 6.44312 6.38008C6.44312 7.28132 7.17196 8.01017 8.0732 8.01017Z" fill="white"/>
<path d="M59.8517 7.39359C59.2166 8.02869 58.1883 8.02869 57.5532 7.39359C56.9181 6.74942 56.9181 5.72117 57.5532 5.08607L62.1562 0.483128C62.7913 -0.161043 63.8286 -0.161043 64.4607 0.483128C65.0958 1.11822 65.0958 2.14648 64.4607 2.78157L59.8486 7.39359H59.8517Z" fill="#353635"/>
<path d="M57.889 7.18752C56.9968 7.18752 56.2679 6.45867 56.2679 5.56651C56.2679 4.67435 56.9968 3.93945 57.889 3.93945H64.37C65.2712 3.93945 66.0001 4.6683 66.0001 5.56651C66.0001 6.46472 65.2712 7.18752 64.37 7.18752H57.889Z" fill="#353635"/>
<path fill-rule="evenodd" clip-rule="evenodd" d="M56.1228 15.342C59.7066 15.342 62.6371 12.4115 62.6371 8.82776C62.6371 5.244 59.7066 2.31348 56.1228 2.31348C52.539 2.31348 49.6085 5.23795 49.6085 8.82776C49.6085 12.4176 52.533 15.342 56.1228 15.342Z" fill="#353635"/>
<path fill-rule="evenodd" clip-rule="evenodd" d="M53.6792 8.01017C54.5713 8.01017 55.3092 7.27224 55.3092 6.38008C55.3092 5.48792 54.5713 4.75 53.6792 4.75C52.787 4.75 52.0491 5.47885 52.0491 6.38008C52.0491 7.28132 52.7779 8.01017 53.6792 8.01017Z" fill="white"/>
<path fill-rule="evenodd" clip-rule="evenodd" d="M56.1229 25.1129C57.9132 25.1129 59.38 23.6461 59.38 21.8558C59.38 20.0654 57.9132 18.5986 56.1229 18.5986C54.3325 18.5986 52.8657 20.0563 52.8657 21.8558C52.8657 23.6552 54.3234 25.1129 56.1229 25.1129Z" fill="#FE96CB"/>
<path fill-rule="evenodd" clip-rule="evenodd" d="M10.5137 25.1129C12.3041 25.1129 13.7709 23.6461 13.7709 21.8558C13.7709 20.0654 12.3041 18.5986 10.5137 18.5986C8.72336 18.5986 7.25659 20.0563 7.25659 21.8558C7.25659 23.6552 8.71429 25.1129 10.5137 25.1129Z" fill="#FE96CB"/>
<path fill-rule="evenodd" clip-rule="evenodd" d="M10.5137 9.64073C10.9583 9.64073 11.3273 9.27177 11.3273 8.8272C11.3273 8.38263 10.9583 8.01367 10.5137 8.01367C10.0692 8.01367 9.7002 8.37356 9.7002 8.8272C9.7002 9.28084 10.0601 9.64073 10.5137 9.64073Z" fill="white"/>
<path fill-rule="evenodd" clip-rule="evenodd" d="M56.1229 9.64073C56.5674 9.64073 56.9364 9.27177 56.9364 8.8272C56.9364 8.38263 56.5674 8.01367 56.1229 8.01367C55.6783 8.01367 55.3093 8.37356 55.3093 8.8272C55.3093 9.28084 55.6692 9.64073 56.1229 9.64073Z" fill="white"/>
</svg>
