<svg width="1023" height="883" viewBox="0 0 1023 883" fill="none" xmlns="http://www.w3.org/2000/svg">
<path d="M548.117 814.42C548.117 819.92 549.117 877.92 548.117 900.42H976.617V889.421C967.617 880.754 949.617 859.121 949.617 841.921C949.617 820.421 923.5 837.5 919 821C914.5 804.5 945.117 730.921 949.617 717.421C954.117 703.921 960.617 653 976.617 616C974.117 597 1008.12 575 1008.12 567.921C1008.12 555 1032.5 550.5 1019 533.5C1005.5 516.5 1021.62 414.5 1008.12 404.5C994.617 394.5 997.5 347.5 960 337.5C922.5 327.5 939.117 320.421 895.117 319.421C851.117 318.421 871 332 842.5 314C814 296 813 309.421 779 284.421C745 259.421 750.5 236 741.5 207C732.5 178 750.617 174.421 749.117 157.421C747.617 140.421 715.617 96.4209 718.617 80.9209C721.617 65.4209 726.617 52.4207 725.617 29.9209C724.617 7.42109 698.617 9.42071 681.617 2.92071C664.617 -3.57929 590.117 8.42071 573.117 9.42071C556.117 10.4207 513 34 491.5 40.5C470 47 447.117 90 432.617 107C418.117 124 431 132.421 452.5 157.421C474 182.421 469 171 481 212C493 253 510.5 252.5 508 273C505.5 293.5 523 303.421 523 319.421C523 335.421 535.5 386.5 532.5 396C529.5 405.5 498.5 438.5 491.5 446.5C484.5 454.5 450 477 437.5 467C425 457 396.617 479.921 390.617 477.921C384.617 475.921 343 497.921 336 496.921C329 495.921 297.117 479.921 288.117 479.921C280.917 479.921 227.333 468.667 210 471C195.167 474.333 198.5 464.021 188.5 450.421C176 433.421 128.617 443.921 112.617 437.921C96.6167 431.921 64.1166 445.921 54.1167 450.421C44.1168 454.921 14.1166 476.421 4.11662 496.921C-5.88338 517.421 11.1166 545.421 14.1166 567.921C17.1166 590.421 51.6166 641.421 64.1166 650.921C76.6166 660.421 119 671 139.5 664C160 657 203.5 653.5 210 635.5C216.5 617.5 250 598.42 257 608.92C264 619.42 284.617 676.92 297.117 693.42C309.617 709.92 372.617 783.92 385.117 794.42C395.117 802.82 420.95 824.92 432.617 834.92H495.117L542.617 766.92C544.45 780.92 548.117 810.02 548.117 814.42Z" stroke="black" stroke-dasharray="9 9"/>
</svg>
