<svg width="1124" height="883" viewBox="0 0 1124 883" fill="none" xmlns="http://www.w3.org/2000/svg">
<path d="M548.117 807.185C548.117 812.636 549.117 859.218 548.117 881.518H976.617C967.617 872.929 949.617 851.488 949.617 834.441C949.617 813.132 949.617 807.185 945.117 790.832C940.617 774.479 945.117 724.428 949.617 711.048C954.117 697.668 956.117 687.261 972.117 650.591C988.117 613.92 983.617 645.139 1008.12 645.139C1032.62 645.139 1035.62 635.724 1076.12 611.442C1116.62 587.16 1105.62 593.107 1114.62 562.878C1123.62 532.649 1123.62 492.509 1121.12 473.678C1118.62 454.848 1119.12 454.352 1105.62 400.832C1092.12 347.313 1089.62 376.055 1076.12 359.206C1062.62 342.357 1041.12 342.357 1027.62 332.446C1014.12 322.535 1014.12 326.5 976.617 316.589C939.117 306.677 939.117 317.58 895.117 316.589C851.117 315.597 863.617 299.74 835.117 281.9C806.617 264.06 810.617 268.52 776.617 243.742C742.617 218.964 758.117 219.956 749.117 191.214C740.117 162.472 750.617 172.878 749.117 156.03C747.617 139.181 715.617 95.5721 718.617 80.21C721.617 64.8479 726.617 51.9633 725.617 29.6636C724.617 7.36397 698.617 9.3458 681.617 2.90362C664.617 -3.53856 590.117 8.3547 573.117 9.3458C556.117 10.3369 495.117 45.5211 473.617 51.9633C452.117 58.4055 432.617 85.6609 418.117 102.51C403.617 119.358 419.117 155.038 440.617 179.816C462.117 204.593 469.117 203.107 481.117 243.742C493.117 284.377 483.617 279.422 481.117 299.74C478.617 320.057 495.117 334.428 495.117 350.286C495.117 366.144 511.617 391.417 508.617 400.832C505.617 410.248 470.117 446.423 463.117 454.352C456.117 462.281 445.117 492.509 432.617 482.598C420.117 472.687 396.617 475.661 390.617 473.678C384.617 471.696 340.117 510.349 333.117 509.358C326.117 508.367 297.117 475.661 288.117 475.661C280.917 475.661 244.45 480.286 227.117 482.598C212.283 485.902 180.117 489.14 170.117 475.661C157.617 458.812 128.617 439.981 112.617 434.034C96.6167 428.087 64.1166 441.963 54.1167 446.423C44.1168 450.883 14.1166 472.192 4.11662 492.509C-5.88338 512.827 11.1166 540.578 14.1166 562.878C17.1166 585.178 51.6166 635.724 64.1166 645.139C76.6166 654.555 125.117 642.662 145.617 635.724C166.117 628.786 197.617 621.353 204.117 603.513C210.617 585.673 225.617 593.106 232.617 603.513C239.617 613.92 284.617 670.908 297.117 687.261C309.617 703.615 372.617 776.956 385.117 787.363C395.117 795.688 420.95 817.592 432.617 827.503H495.117L542.617 760.107C544.45 773.983 548.117 802.824 548.117 807.185Z" stroke="black" stroke-dasharray="9 9"/>
</svg>
