<svg width="61" height="49" viewBox="0 0 61 49" fill="none" xmlns="http://www.w3.org/2000/svg">
<path d="M0.333333 3.5C0.333333 4.97276 1.52724 6.16667 3 6.16667C4.47276 6.16667 5.66667 4.97276 5.66667 3.5C5.66667 2.02724 4.47276 0.833333 3 0.833333C1.52724 0.833333 0.333333 2.02724 0.333333 3.5ZM18.5 3.5L18.9965 3.44089L18.944 3H18.5V3.5ZM23.5 45.5L23.0035 45.5591L23.056 46H23.5V45.5ZM54.8333 45.5C54.8333 46.9728 56.0272 48.1667 57.5 48.1667C58.9728 48.1667 60.1667 46.9728 60.1667 45.5C60.1667 44.0272 58.9728 42.8333 57.5 42.8333C56.0272 42.8333 54.8333 44.0272 54.8333 45.5ZM3 4H18.5V3H3V4ZM18.0035 3.55911L23.0035 45.5591L23.9965 45.4409L18.9965 3.44089L18.0035 3.55911ZM23.5 46H57.5V45H23.5V46Z" fill="black"/>
</svg>
