<svg width="190" height="151" viewBox="0 0 190 151" fill="none" xmlns="http://www.w3.org/2000/svg">
<path d="M189.833 145.5C189.833 148.446 187.446 150.833 184.5 150.833C181.554 150.833 179.167 148.446 179.167 145.5C179.167 142.554 181.554 140.167 184.5 140.167C187.446 140.167 189.833 142.554 189.833 145.5ZM51 5.5V4.5H51.4282L51.7237 4.80989L51 5.5ZM11.3333 5.5C11.3333 8.44552 8.94553 10.8333 6 10.8333C3.05447 10.8333 0.666672 8.44552 0.666672 5.5C0.666672 2.55448 3.05447 0.166667 6 0.166667C8.94553 0.166667 11.3333 2.55448 11.3333 5.5ZM183.776 146.19L50.2763 6.19011L51.7237 4.80989L185.224 144.81L183.776 146.19ZM51 6.5H6V4.5H51V6.5Z" fill="black"/>
</svg>
