<svg width="55" height="43" viewBox="0 0 55 43" fill="none" xmlns="http://www.w3.org/2000/svg">
<path d="M0.333333 40C0.333333 41.4728 1.52724 42.6667 3 42.6667C4.47276 42.6667 5.66667 41.4728 5.66667 40C5.66667 38.5272 4.47276 37.3333 3 37.3333C1.52724 37.3333 0.333333 38.5272 0.333333 40ZM49.3333 3.5C49.3333 4.97276 50.5272 6.16667 52 6.16667C53.4728 6.16667 54.6667 4.97276 54.6667 3.5C54.6667 2.02724 53.4728 0.833333 52 0.833333C50.5272 0.833333 49.3333 2.02724 49.3333 3.5ZM3.29869 40.401L7.38202 37.3593L6.78464 36.5574L2.70131 39.599L3.29869 40.401ZM15.5487 31.276L23.7154 25.1926L23.118 24.3907L14.9513 30.474L15.5487 31.276ZM31.882 19.1093L40.0487 13.026L39.4513 12.224L31.2846 18.3074L31.882 19.1093ZM48.2154 6.94265L52.2987 3.90098L51.7013 3.09902L47.618 6.14069L48.2154 6.94265Z" fill="black"/>
</svg>
