<svg width="25" height="25" viewBox="0 0 25 25" fill="none" xmlns="http://www.w3.org/2000/svg">
<path d="M12.667 0.96871C19.2191 0.96871 24.6149 6.36454 24.6149 12.9166C24.6149 19.5169 19.2191 24.8645 12.667 24.8645C6.06673 24.8645 0.719076 19.5169 0.719076 12.9166C0.719076 6.36454 6.06673 0.96871 12.667 0.96871ZM12.667 22.552C17.9665 22.552 22.3024 18.2643 22.3024 12.9166C22.3024 7.61715 17.9665 3.28121 12.667 3.28121C7.31934 3.28121 3.03158 7.61715 3.03158 12.9166C3.03158 18.2643 7.31934 22.552 12.667 22.552ZM17.8219 10.2669C17.8219 13.4948 14.305 13.5429 14.305 14.7474V15.0364C14.305 15.3737 14.0641 15.6145 13.7269 15.6145H11.5589C11.2217 15.6145 10.9808 15.3737 10.9808 15.0364V14.651C10.9808 12.9166 12.2816 12.2421 13.2451 11.664C14.1123 11.1823 14.6423 10.8932 14.6423 10.2669C14.6423 9.3997 13.5824 8.86975 12.7152 8.86975C11.6071 8.86975 11.0771 9.3997 10.3545 10.3151C10.1618 10.5559 9.77637 10.6041 9.53548 10.4114L8.18652 9.3997C7.94564 9.20699 7.89746 8.86975 8.09017 8.62887C9.19824 6.94267 10.6436 5.97913 12.9079 5.97913C15.2686 5.97913 17.8219 7.85803 17.8219 10.2669ZM14.6904 18.3125C14.6904 19.4687 13.7751 20.3359 12.667 20.3359C11.5107 20.3359 10.6436 19.4687 10.6436 18.3125C10.6436 17.2044 11.5107 16.289 12.667 16.289C13.7751 16.289 14.6904 17.2044 14.6904 18.3125Z" fill="#333333"/>
</svg>
