<svg width="294" height="295" viewBox="0 0 294 295" fill="none" xmlns="http://www.w3.org/2000/svg">
<path d="M211.326 47.5759L213.018 48.7451L222.805 34.5872L220.724 33.9818L223.279 30.2857L226.803 31.1478L229.058 32.7069L216.369 51.062L217.967 52.1664L215.498 55.7372L208.858 51.1467L211.326 47.5759Z" fill="black"/>
<path d="M218.991 58.8787C218.231 58.2446 217.615 57.5163 217.144 56.6938L219.924 53.36C220.139 53.9354 220.577 54.4994 221.24 55.0522C221.767 55.4912 222.317 55.7027 222.893 55.6866C223.484 55.6511 224.187 55.3442 224.999 54.7659C225.812 54.1876 226.801 53.26 227.965 51.9831C227.123 52.0413 226.361 51.7859 225.678 51.2168C224.976 50.6315 224.539 49.9862 224.367 49.2808C224.195 48.5754 224.342 47.706 224.807 46.6726C225.272 45.6391 226.123 44.3816 227.358 42.8999C228.919 41.0282 230.293 39.6782 231.48 38.8498C232.666 38.0214 233.721 37.6285 234.644 37.6711C235.584 37.6941 236.492 38.0715 237.369 38.8031C238.403 39.6648 238.968 40.632 239.065 41.7046C239.178 42.7578 238.77 44.1195 237.84 45.7899C236.929 47.4764 235.376 49.6357 233.181 52.2677C230.076 55.9915 227.384 58.4071 225.105 59.5147C222.842 60.6027 220.804 60.3907 218.991 58.8787ZM230.707 45.2461C229.715 46.4354 229.099 47.2933 228.858 47.8197C228.634 48.3267 228.668 48.7021 228.96 48.946C229.253 49.1899 229.739 49.2811 230.418 49.2195L230.833 48.7224C232.247 47.0262 233.265 45.7265 233.886 44.8231C234.543 43.9165 234.917 43.2698 235.008 42.8831C235.115 42.4768 235.042 42.168 234.789 41.9567C234.575 41.7778 234.319 41.7468 234.024 41.8637C233.763 41.9774 233.368 42.2926 232.838 42.8092C232.344 43.3225 231.634 44.1349 230.707 45.2461Z" fill="black"/>
<path d="M243.171 77.6848L244.323 79.3884L258.583 69.7504L256.863 68.4306L260.586 65.9144L263.556 67.9973L265.092 70.2688L246.604 82.7641L247.692 84.3731L244.095 86.8039L239.575 80.1156L243.171 77.6848Z" fill="black"/>
<path d="M265.989 79.9039L264.036 76.407L267.799 74.3057L271.816 81.4991L268.552 83.3216L246.961 91.7524L244.915 88.089L265.989 79.9039Z" fill="black"/>
<path d="M262.081 118.257L262.516 120.267L279.338 116.628L278.234 114.764L282.626 113.814L284.607 116.852L285.187 119.532L263.377 124.249L263.788 126.147L259.545 127.065L257.838 119.175L262.081 118.257Z" fill="black"/>
<path d="M259.911 131.514C259.756 130.331 259.765 129.319 259.937 128.477L264.279 127.91C264.106 128.547 264.067 129.231 264.163 129.961C264.251 130.64 264.581 131.109 265.153 131.368C265.753 131.648 266.87 131.681 268.507 131.468C270.294 131.234 271.452 130.891 271.982 130.438C272.537 129.982 272.765 129.376 272.667 128.621C272.588 128.017 272.431 127.5 272.195 127.069L286.291 125.614L287.217 132.713L282.988 133.265L282.525 129.715L276.313 130.372L276.333 130.523C276.478 131.836 275.968 132.926 274.801 133.795C273.66 134.661 271.855 135.255 269.388 135.577C267.173 135.866 265.398 135.893 264.061 135.657C262.728 135.447 261.735 135.001 261.083 134.318C260.456 133.632 260.065 132.697 259.911 131.514Z" fill="black"/>
<path d="M263.788 169.335L263.341 171.352L280.219 175.097L279.994 172.931L284.401 173.909L284.933 177.514L284.336 180.202L262.454 175.347L262.032 177.252L257.775 176.307L259.531 168.391L263.788 169.335Z" fill="black"/>
<path d="M258.759 183.624L260.484 178.29L263.223 179.176L281.154 190.07L279.814 194.214L261.508 188.294L261.135 189.447L257.279 188.2L257.652 187.047L254.589 186.057L255.696 182.633L258.759 183.624ZM262.615 184.871L272.633 188.11L263.303 182.744L262.615 184.871Z" fill="black"/>
<path d="M239.633 221.233L238.295 222.795L251.368 233.99L252.185 231.982L255.598 234.905L254.377 238.321L252.593 240.404L235.645 225.889L234.382 227.364L231.085 224.541L236.335 218.409L239.633 221.233Z" fill="black"/>
<path d="M227.873 227.409C228.686 226.607 229.524 226.011 230.388 225.621L233.411 228.683C232.745 228.984 232.159 229.384 231.654 229.884C231.184 230.347 231.019 230.885 231.159 231.496C231.28 232.125 231.805 232.909 232.732 233.849C233.731 234.86 234.526 235.413 235.118 235.506C235.692 235.618 236.259 235.397 236.819 234.844L237.306 234.363L240.383 237.479L239.977 237.88C239.471 238.379 239.261 238.908 239.347 239.465C239.433 240.058 239.967 240.851 240.948 241.844C241.893 242.802 242.634 243.318 243.173 243.393C243.711 243.469 244.187 243.301 244.603 242.891C245.109 242.391 245.48 241.828 245.718 241.202L248.741 244.264C248.286 245.212 247.724 246.016 247.056 246.676C245.809 247.907 244.523 248.428 243.195 248.24C241.85 248.07 240.286 247.082 238.502 245.275C237.486 244.246 236.729 243.244 236.233 242.272C235.736 241.299 235.535 240.428 235.63 239.656C234.857 239.885 233.969 239.762 232.967 239.289C231.964 238.852 230.857 238.019 229.644 236.791C227.7 234.822 226.598 233.073 226.339 231.546C226.097 230.037 226.608 228.658 227.873 227.409Z" fill="black"/>
<path d="M199.999 253.211L198.129 254.064L205.273 269.723L206.859 268.246L208.724 272.334L206.178 274.918L203.684 276.056L194.422 255.755L192.655 256.561L190.853 252.612L198.198 249.261L199.999 253.211Z" fill="black"/>
<path d="M191.19 257.147L189.256 257.845L195.096 274.036L196.797 272.693L198.322 276.92L195.573 279.288L192.994 280.218L185.423 259.227L183.596 259.886L182.123 255.803L189.717 253.064L191.19 257.147Z" fill="black"/>
<path d="M178.467 256.548C179.053 256.381 179.617 256.419 180.161 256.66C180.68 256.908 181.041 257.386 181.242 258.094C181.437 258.778 181.378 259.362 181.067 259.846C180.732 260.338 180.271 260.667 179.685 260.833C179.099 261 178.547 260.959 178.027 260.711C177.484 260.47 177.115 260.007 176.92 259.323C176.719 258.615 176.774 258.019 177.085 257.535C177.395 257.05 177.856 256.722 178.467 256.548Z" fill="black"/>
<path d="M171.682 258.26C172.849 258.015 173.859 257.945 174.712 258.052L175.612 262.337C174.964 262.214 174.279 262.228 173.559 262.379C172.888 262.52 172.446 262.886 172.232 263.475C171.999 264.095 172.053 265.212 172.392 266.827C172.762 268.591 173.194 269.719 173.687 270.212C174.185 270.73 174.806 270.911 175.551 270.754C176.148 270.629 176.651 270.433 177.062 270.165L179.601 284.106L172.596 285.577L171.719 281.404L175.222 280.668L174.087 274.525L173.938 274.556C172.641 274.803 171.514 274.378 170.557 273.282C169.606 272.211 168.875 270.458 168.363 268.023C167.904 265.837 167.74 264.069 167.871 262.718C167.978 261.373 168.346 260.349 168.977 259.646C169.612 258.967 170.514 258.506 171.682 258.26Z" fill="black"/>
<path d="M135.317 260.325C136.3 260.441 137.214 260.716 138.057 261.147L137.548 265.458C137.054 265.093 136.379 264.86 135.522 264.759C134.841 264.679 134.264 264.802 133.791 265.13C133.315 265.482 132.894 266.123 132.529 267.051C132.163 267.979 131.842 269.296 131.564 271.002C132.237 270.493 133.015 270.291 133.898 270.395C134.805 270.503 135.524 270.805 136.053 271.302C136.582 271.799 136.934 272.607 137.108 273.727C137.283 274.847 137.257 276.365 137.031 278.281C136.745 280.701 136.331 282.582 135.789 283.924C135.247 285.266 134.578 286.171 133.781 286.639C132.982 287.133 132.015 287.312 130.88 287.178C129.544 287.021 128.542 286.519 127.875 285.673C127.205 284.853 126.804 283.489 126.671 281.582C126.514 279.671 126.636 277.015 127.038 273.611C127.606 268.796 128.543 265.302 129.848 263.13C131.149 260.983 132.972 260.048 135.317 260.325ZM132.944 278.143C133.126 276.605 133.174 275.55 133.088 274.978C132.999 274.43 132.766 274.134 132.388 274.09C132.009 274.045 131.553 274.234 131.017 274.656L130.941 275.299C130.682 277.493 130.539 279.137 130.512 280.233C130.456 281.351 130.496 282.097 130.631 282.471C130.763 282.87 130.992 283.089 131.32 283.128C131.597 283.16 131.828 283.047 132.012 282.788C132.168 282.55 132.327 282.071 132.489 281.349C132.623 280.649 132.774 279.58 132.944 278.143Z" fill="black"/>
<path d="M125.445 258.837C126.043 258.953 126.529 259.242 126.905 259.704C127.255 260.16 127.36 260.749 127.219 261.472C127.083 262.17 126.767 262.664 126.27 262.955C125.749 263.241 125.189 263.326 124.591 263.209C123.993 263.092 123.519 262.806 123.168 262.349C122.793 261.888 122.673 261.309 122.809 260.611C122.95 259.889 123.269 259.382 123.765 259.091C124.262 258.8 124.822 258.715 125.445 258.837Z" fill="black"/>
<path d="M118.623 257.289C119.775 257.6 120.707 257.996 121.418 258.478L120.276 262.705C119.754 262.301 119.138 262.003 118.427 261.811C117.766 261.633 117.206 261.758 116.748 262.186C116.26 262.633 115.8 263.652 115.37 265.245C114.9 266.985 114.772 268.187 114.988 268.85C115.197 269.537 115.668 269.98 116.404 270.179C116.992 270.338 117.53 270.391 118.017 270.339L113.956 283.915L107.045 282.048L108.157 277.93L111.612 278.864L113.388 272.875L113.241 272.835C111.973 272.466 111.162 271.577 110.806 270.166C110.444 268.78 110.588 266.886 111.237 264.484C111.819 262.327 112.475 260.677 113.205 259.533C113.91 258.382 114.703 257.637 115.584 257.296C116.458 256.98 117.472 256.978 118.623 257.289Z" fill="black"/>
<path d="M76.6894 236.398C78.0837 237.5 78.7495 238.787 78.687 240.258C78.6244 241.729 77.8613 243.391 76.3976 245.243C74.3987 247.773 72.2986 249.284 70.0972 249.777C70.1271 250.804 69.9762 251.752 69.6444 252.622C69.3127 253.493 68.7533 254.426 67.9664 255.422C66.5971 257.154 65.2317 258.227 63.8704 258.64C62.4733 259.056 61.1275 258.753 59.8328 257.73C58.5382 256.707 57.9321 255.468 58.0145 254.012C58.097 252.557 58.8307 250.953 60.2158 249.2C61.7739 247.228 63.6275 245.927 65.7766 245.295C65.6984 244.166 65.8504 243.073 66.2326 242.016C66.5792 240.963 67.2482 239.809 68.2398 238.554C69.5933 236.841 70.9964 235.782 72.449 235.377C73.8817 234.956 75.2952 235.297 76.6894 236.398ZM72.8404 243.112C73.6116 242.136 74.0849 241.394 74.2602 240.885C74.4356 240.377 74.3639 239.996 74.0452 239.745C73.7266 239.493 73.3559 239.491 72.9331 239.739C72.5104 239.988 71.9449 240.56 71.2366 241.456C70.5913 242.273 70.1558 243.029 69.93 243.724C69.6885 244.439 69.588 245.201 69.6285 246.009C70.1897 245.709 70.7247 245.339 71.2335 244.9C71.7067 244.465 72.2423 243.869 72.8404 243.112ZM65.0244 252.757C65.6068 252.02 66.0051 251.332 66.2193 250.692C66.3979 250.057 66.4433 249.365 66.3555 248.616C65.4513 249.228 64.645 249.982 63.9368 250.879C63.0711 251.974 62.5407 252.768 62.3454 253.261C62.1344 253.774 62.1782 254.148 62.477 254.384C62.7559 254.604 63.0888 254.593 63.4759 254.348C63.8472 254.124 64.3634 253.594 65.0244 252.757Z" fill="black"/>
<path d="M69.9448 230.635C70.3922 231.049 70.6545 231.55 70.7316 232.14C70.79 232.713 70.5694 233.269 70.0697 233.81C69.5873 234.332 69.0584 234.586 68.483 234.573C67.889 234.542 67.3682 234.32 66.9208 233.907C66.4734 233.493 66.2204 233 66.162 232.428C66.0849 231.838 66.2875 231.282 66.77 230.76C67.2697 230.219 67.8072 229.956 68.3826 229.969C68.958 229.982 69.4787 230.204 69.9448 230.635Z" fill="black"/>
<path d="M64.9495 225.729C65.7664 226.599 66.3513 227.425 66.704 228.208L63.5126 231.207C63.2804 230.589 62.9123 230.012 62.4082 229.475C61.9389 228.976 61.3969 228.788 60.7825 228.913C60.1321 229.036 59.2056 229.663 58.003 230.793C56.6894 232.027 55.9503 232.982 55.7855 233.66C55.6022 234.354 55.7713 234.979 56.2927 235.534C56.7099 235.978 57.1397 236.306 57.5821 236.517L46.9977 245.939L42.0959 240.722L45.2041 237.802L47.655 240.41L52.3106 236.245L52.2063 236.134C51.3209 235.155 51.0974 233.972 51.5357 232.584C51.9556 231.215 53.0721 229.678 54.8852 227.975C56.5133 226.445 57.9382 225.385 59.1598 224.794C60.3641 224.185 61.4305 223.967 62.359 224.14C63.269 224.33 64.1325 224.86 64.9495 225.729Z" fill="black"/>
<path d="M21.8407 200.834L23.4083 204.512L19.45 206.199L16.2251 198.633L19.658 197.17L41.9851 191.089L43.6274 194.943L21.8407 200.834Z" fill="black"/>
<path d="M40.2413 185.853C40.4479 186.426 40.4496 186.992 40.2463 187.551C40.0345 188.086 39.5823 188.479 38.8897 188.729C38.221 188.97 37.6344 188.952 37.1298 188.675C36.6166 188.374 36.2567 187.937 36.0501 187.364C35.8435 186.791 35.8461 186.237 36.058 185.702C36.2612 185.143 36.6972 184.743 37.3659 184.502C38.0584 184.252 38.657 184.265 39.1616 184.542C39.6662 184.819 40.0261 185.256 40.2413 185.853Z" fill="black"/>
<path d="M37.9754 179.226C38.302 180.377 38.4419 181.382 38.395 182.242L34.1722 183.441C34.2502 182.784 34.1884 182.1 33.9868 181.39C33.7992 180.73 33.4031 180.313 32.7987 180.141C32.1628 179.951 31.0493 180.082 29.4581 180.534C27.7199 181.027 26.6215 181.537 26.1627 182.064C25.6794 182.598 25.542 183.233 25.7505 183.967C25.9173 184.554 26.149 185.044 26.4455 185.436L12.6811 188.947L10.7212 182.044L14.8339 180.876L15.8139 184.328L21.8777 182.765L21.836 182.618C21.4991 181.338 21.8454 180.182 22.8748 179.149C23.8797 178.123 25.5817 177.269 27.9808 176.588C30.1351 175.976 31.892 175.689 33.2517 175.726C34.6045 175.739 35.6544 176.036 36.4015 176.618C37.1241 177.206 37.6487 178.076 37.9754 179.226Z" fill="black"/>
<path d="M35.0658 128.031C34.8459 129.333 34.3097 130.298 33.4569 130.926C32.5792 131.55 31.1824 131.894 29.2667 131.956C27.3552 131.994 24.7098 131.727 21.3306 131.157C16.5496 130.349 13.1173 129.255 11.0336 127.873C8.92905 126.462 8.07336 124.593 8.46651 122.265C8.63984 121.238 8.95895 120.34 9.42387 119.569L13.7042 120.292C13.3193 120.741 13.0529 121.404 12.9049 122.281C12.7908 122.956 12.898 123.541 13.2266 124.034C13.5302 124.523 14.1365 124.973 15.0454 125.384C15.9335 125.766 17.2327 126.152 18.943 126.544C18.4856 125.746 18.3246 124.946 18.4598 124.145C18.6839 122.819 19.3765 121.919 20.5378 121.446C21.699 120.972 23.6814 120.972 26.4849 121.446C28.8879 121.852 30.746 122.359 32.0593 122.967C33.3726 123.575 34.2559 124.29 34.709 125.113C35.1413 125.907 35.2602 126.88 35.0658 128.031ZM23.2106 127.342C25.3883 127.71 27.0342 127.949 28.1483 128.06C29.2416 128.142 29.9886 128.139 30.3894 128.052C30.7695 127.936 30.987 127.716 31.0419 127.39C31.0884 127.115 30.9971 126.894 30.7679 126.726C30.5179 126.529 30.0467 126.347 29.3543 126.178C28.6411 125.981 27.5711 125.761 26.1443 125.521C24.5923 125.258 23.5409 125.158 22.9898 125.219C22.4388 125.281 22.1316 125.499 22.0682 125.875C22.009 126.225 22.152 126.674 22.4972 127.222L23.2106 127.342Z" fill="black"/>
<path d="M36.826 119.642C36.6785 120.234 36.3646 120.705 35.8845 121.056C35.4105 121.382 34.8164 121.456 34.1022 121.278C33.4125 121.106 32.9352 120.764 32.6703 120.253C32.4115 119.718 32.3559 119.155 32.5035 118.563C32.651 117.972 32.9618 117.513 33.4358 117.187C33.9159 116.836 34.5008 116.746 35.1904 116.919C35.9047 117.097 36.3943 117.441 36.6592 117.952C36.9241 118.463 36.9797 119.027 36.826 119.642Z" fill="black"/>
<path d="M38.6407 112.91C38.2756 114.04 37.8366 114.946 37.3237 115.629L33.1797 114.289C33.6064 113.79 33.9324 113.192 34.1577 112.496C34.3674 111.847 34.2705 111.285 33.867 110.809C33.4473 110.302 32.4566 109.796 30.8951 109.291C29.1895 108.74 28.0021 108.555 27.333 108.736C26.6399 108.91 26.1769 109.358 25.9438 110.078C25.7574 110.655 25.6783 111.186 25.7066 111.673L12.4181 106.978L14.6088 100.203L18.6448 101.509L17.5494 104.896L23.4125 106.951L23.4592 106.807C23.8871 105.565 24.8105 104.803 26.2292 104.518C27.6239 104.226 29.4983 104.461 31.8526 105.222C33.9667 105.906 35.5742 106.638 36.6751 107.419C37.7837 108.175 38.4858 108.999 38.7813 109.891C39.0527 110.775 39.0058 111.781 38.6407 112.91Z" fill="black"/>
<path d="M53.6524 76.5001L50.2729 81.01L47.957 79.2746L34.4552 63.0663L37.0811 59.562L52.5611 71.1619L53.2918 70.1868L56.5524 72.6301L55.8217 73.6052L58.4118 75.5461L56.2426 78.441L53.6524 76.5001ZM50.3919 74.0568L41.9205 67.7088L49.0446 75.8546L50.3919 74.0568Z" fill="black"/>
<path d="M81.4405 50.6666C80.4498 49.1004 79.7558 47.647 79.3584 46.3064C78.9474 44.9443 78.5713 43.3048 78.23 41.3881C77.9849 39.8609 77.7198 38.5869 77.4344 37.5659C77.1355 36.5234 76.6603 35.4872 76.009 34.4574C75.3576 33.4276 74.7918 32.7943 74.3115 32.5574C73.8312 32.3205 73.3766 32.3377 72.9475 32.6091C72.3039 33.0162 71.8174 33.6243 71.4881 34.4334L69.0861 30.636C69.6436 29.7127 70.4157 28.9389 71.4026 28.3147C72.7113 27.4869 74.0036 27.3454 75.2793 27.8901C76.5629 28.3999 77.8697 29.706 79.1996 31.8085C80.1766 33.3532 80.861 34.7677 81.2527 36.0518C81.6445 37.336 81.9878 38.876 82.2827 40.672C82.5571 42.1505 82.8069 43.3291 83.0323 44.2078C83.2792 45.073 83.6622 45.9872 84.1813 46.9504L87.4316 44.8945L89.7521 48.5632L82.8653 52.9193L81.4405 50.6666Z" fill="black"/>
<path d="M111.6 11.1191L115.557 10.3245L119.95 32.2019L121.929 31.8046L117.536 9.92718L121.493 9.13254L125.886 31.0099L127.902 30.6051L123.509 8.72773L127.467 7.93309L132.714 34.0665L116.848 37.2525L111.6 11.1191Z" fill="black"/>
<path d="M134.564 11.6465L131.565 11.8833L131.226 7.59375L141.21 6.80556L141.549 11.0951L138.588 11.3289L140.347 33.6117L136.323 33.9294L134.564 11.6465Z" fill="black"/>
<path d="M145.933 6.7458L150.807 6.78203L154.34 33.4641L150.151 33.4329L149.731 28.4795L146.685 28.4568L146.153 33.4032L141.965 33.3721L145.933 6.7458ZM149.344 24.2878L148.324 12.8563L147.135 24.2714L149.344 24.2878Z" fill="black"/>
<path d="M162.435 23.0937L160.051 22.8269L158.802 33.9904L154.791 33.5414L157.755 7.05176L161.767 7.5007L160.534 18.5128L162.918 18.7797L164.151 7.76752L168.162 8.21647L165.197 34.7061L161.186 34.2572L162.435 23.0937Z" fill="black"/>
<path d="M171.751 8.7666L179.526 10.3317L178.645 14.7049L174.833 13.9374L170.446 35.729L166.484 34.9314L171.751 8.7666Z" fill="black"/>
<path d="M183.808 11.5706L188.491 12.9219L184.686 39.5666L180.662 38.4053L181.595 33.5225L178.669 32.6779L176.82 37.2968L172.796 36.1355L183.808 11.5706ZM182.354 29.3819L184.46 18.1L180.232 28.7696L182.354 29.3819Z" fill="black"/>
<path d="M142.327 248.561C198.167 251.258 245.621 208.178 248.319 152.339C251.016 96.4992 207.936 49.0453 152.097 46.3476C96.2572 43.6498 48.8033 86.7298 46.1055 142.569C43.4078 198.409 86.4878 245.863 142.327 248.561Z" stroke="black" stroke-width="6" stroke-miterlimit="10"/>
</svg>
