<svg width="138" height="155" viewBox="0 0 138 155" fill="none" xmlns="http://www.w3.org/2000/svg">
<path d="M51.219 102.785C50.932 104.753 52.2849 107.582 49.3741 108.279C46.208 109.231 42.8132 109.087 39.7395 107.869C38.6735 107.377 38.7965 106.229 39.1655 105.204C40.8874 100.243 42.6094 95.2824 44.4133 90.3216C44.5582 89.6095 44.9507 88.9717 45.5211 88.5214C46.0915 88.0711 46.8028 87.8374 47.5291 87.8617C49.5791 88.0667 49.9071 89.7476 50.0711 91.3055C50.5221 95.1184 50.85 98.9722 51.219 102.785ZM92.8323 108.648C86.6415 108.648 86.1905 108.238 86.7235 102.047C87.0105 98.3572 87.4205 94.6674 87.9125 91.0185C87.9125 89.6246 88.4044 88.0667 90.2493 87.8617C90.9756 87.7947 91.7013 87.9951 92.2902 88.4255C92.879 88.8558 93.2904 89.4863 93.4472 90.1986C95.2511 95.1184 97.1371 100.079 98.654 105.122C99.638 108.074 98.531 108.648 92.8323 108.648ZM69.0532 152.844C78.9 152.941 88.7401 152.297 98.49 150.917C107.864 149.941 117.079 147.792 125.918 144.521C128.013 143.764 129.894 142.51 131.401 140.868C132.907 139.226 133.994 137.245 134.568 135.092C136.044 129.967 133.913 126.892 128.542 126.892C124.416 126.944 120.302 127.342 116.242 128.081C109.109 128.983 101.975 131.197 94.6362 129.393C92.7861 129.118 91.0776 128.243 89.7737 126.903C88.4699 125.562 87.643 123.829 87.4205 121.972C87.0515 119.43 87.9944 118.118 90.7003 118.364C94.8002 118.733 98.9 119.184 103 119.348C112.183 119.799 114.725 116.929 113.085 107.951C111.118 97.2913 108.986 86.6727 106.977 76.0132C106.59 72.8859 105.169 69.9775 102.941 67.7493C100.713 65.5211 97.8044 64.1008 94.6772 63.7137C91.0177 63.0854 87.4024 62.2227 83.8536 61.1308C82.8134 60.8507 81.8448 60.3523 81.0123 59.6686C80.1797 58.985 79.5024 58.1319 79.0253 57.1661C78.5482 56.2002 78.2823 55.1438 78.2453 54.0672C78.2083 52.9906 78.4011 51.9185 78.8109 50.9222C79.9588 47.3143 84.7966 44.5675 86.3955 32.719C86.7235 31.202 86.9285 29.6441 87.1745 28.0862C87.836 25.1356 87.5595 22.0521 86.3834 19.2663C85.2074 16.4805 83.1906 14.1317 80.6148 12.5478C79.0609 11.6338 77.9055 10.1712 77.3759 8.44797C76.7996 6.64383 75.589 5.1097 73.9683 4.12973C72.3476 3.14977 70.4266 2.7904 68.5613 3.11819C64.9124 3.11819 61.3046 4.30714 60.3616 8.61196C60.127 9.49598 59.7055 10.3194 59.1255 11.0266C58.5456 11.7339 57.8207 12.3085 56.9997 12.7118C54.4616 14.3396 52.4812 16.7038 51.3235 19.488C50.1658 22.2722 49.8862 25.3436 50.522 28.2911C51.7929 43.8295 57.9837 47.4783 59.0497 51.5782C59.3801 52.5706 59.5017 53.6207 59.4067 54.6625C59.3118 55.7042 59.0024 56.715 58.498 57.6314C57.9936 58.5478 57.3051 59.3499 56.4757 59.9874C55.6464 60.6249 54.6942 61.084 53.6789 61.3358C49.5791 62.6067 45.4792 63.3447 41.3794 64.3286C39.0973 64.6971 36.9744 65.7296 35.2755 67.2972C33.5766 68.8648 32.3772 70.8981 31.8268 73.1433C29.0936 85.8527 26.6747 98.6032 24.5701 111.395C23.6272 116.929 26.374 119.594 32.1138 119.594C36.6646 119.594 41.2154 119.061 45.7662 118.774C50.3171 118.487 51.957 120.373 49.8661 124.842C49.3088 126.004 48.4954 127.025 47.487 127.827C46.4787 128.629 45.3017 129.193 44.0443 129.475C40.5833 130.403 36.9666 130.599 33.4257 130.049C26.087 128.983 18.7483 127.999 11.3687 127.179C9.98654 126.768 8.51092 126.795 7.14515 127.258C5.77937 127.721 4.5907 128.595 3.74297 129.762C3.13377 131.143 2.89286 132.658 3.04375 134.16C3.19465 135.661 3.73221 137.098 4.60396 138.331C7.47384 144.152 13.1726 145.546 18.6664 147.063C35.135 151.196 52.0766 153.14 69.0532 152.844Z" stroke="#495876" stroke-width="4.09983" stroke-miterlimit="10"/>
</svg>
