<svg width="112" height="146" viewBox="0 0 112 146" fill="none" xmlns="http://www.w3.org/2000/svg">
<path d="M39.8995 16.0785H71.7551C75.0171 16.0785 78.1456 17.3743 80.4522 19.6809C82.7588 21.9875 84.0546 25.1159 84.0546 28.3779V46.2122C84.0611 46.5716 83.969 46.926 83.7883 47.2368C83.6076 47.5476 83.3452 47.8029 83.0296 47.9751C82.718 48.155 82.3645 48.2498 82.0047 48.2498C81.6448 48.2498 81.2913 48.155 80.9797 47.9751C73.3436 43.3776 64.5859 40.9791 55.6728 41.0442C46.7598 41.1093 38.038 43.6355 30.4699 48.3441C30.1583 48.524 29.8048 48.6187 29.4449 48.6187C29.0851 48.6187 28.7316 48.524 28.42 48.3441C28.0993 48.1638 27.8318 47.902 27.6446 47.5853C27.4575 47.2686 27.3573 46.9081 27.354 46.5402V28.4599C27.3427 26.817 27.6607 25.1884 28.2892 23.6703C28.9178 22.1523 29.8441 20.7755 31.0135 19.6214C32.1829 18.4673 33.5718 17.5591 35.098 16.9506C36.6242 16.3421 38.2568 16.0456 39.8995 16.0785ZM97.2971 56.5028C97.3189 56.1204 97.3189 55.7372 97.2971 55.3548V28.4599C97.2862 21.7038 94.5948 15.228 89.8136 10.4546C85.0324 5.68106 78.5523 2.99999 71.7961 3H39.8995C33.1504 3.01084 26.6808 5.6967 21.9085 10.469C17.1362 15.2413 14.4503 21.7109 14.4395 28.4599V55.3548C14.3972 56.0101 14.3972 56.6674 14.4395 57.3227C6.96694 66.6141 2.92705 78.1981 3.001 90.1214C2.99007 98.6205 5.02286 106.998 8.92797 114.547C12.8331 122.095 18.496 128.595 25.4393 133.496C32.3826 138.398 40.4027 141.558 48.8233 142.711C57.2439 143.863 65.8183 142.974 73.8233 140.118C81.8283 137.263 89.0294 132.524 94.8193 126.302C100.609 120.08 104.818 112.557 107.091 104.368C109.364 96.1784 109.635 87.5624 107.881 79.2463C106.126 70.9303 102.398 63.158 97.0101 56.5848L97.2971 56.5028Z" stroke="#495876" stroke-width="4.09983" stroke-linejoin="round"/>
<path d="M25.7148 90.8997C25.0724 84.0486 26.7748 77.1823 30.5435 71.425C34.3122 65.6676 39.924 61.3602 46.4599 59.208" stroke="#495876" stroke-width="4.09983" stroke-linecap="round" stroke-linejoin="round"/>
<path d="M97.7482 104.593C89.8766 125.707 75.2812 123.821 75.2812 123.821" stroke="#495876" stroke-width="4.09983" stroke-linecap="round" stroke-linejoin="round"/>
</svg>
