<svg xmlns="http://www.w3.org/2000/svg" fill="none" viewBox="0 0 33 33"><path fill="#fff" d="M16.334.687C7.414.687.188 7.914.188 16.833c0 8.92 7.226 16.146 16.146 16.146 8.919 0 16.145-7.227 16.145-16.146 0-8.92-7.226-16.146-16.145-16.146zm0 29.167A12.976 12.976 0 0 1 3.313 16.833c0-7.161 5.794-13.02 13.02-13.02 7.162 0 13.021 5.859 13.021 13.02 0 7.227-5.859 13.02-13.02 13.02zm6.575-17.057c.326-.26.326-.782 0-1.107l-1.432-1.432c-.326-.326-.847-.326-1.107 0l-4.037 4.036-4.101-4.037c-.26-.325-.781-.325-1.107 0L9.693 11.69c-.326.325-.326.846 0 1.107l4.036 4.036-4.036 4.102c-.326.26-.326.78 0 1.106l1.432 1.433c.326.325.847.325 1.107 0l4.102-4.037 4.036 4.037c.26.325.781.325 1.107 0l1.432-1.433c.326-.325.326-.846 0-1.106l-4.036-4.102 4.036-4.036z"/></svg>