<svg xmlns="http://www.w3.org/2000/svg" fill="none" viewBox="0 0 859 864"><path stroke="url(#paint0_linear_68_82)" stroke-width="2" d="M857.805 431.978l-.042 2.538-.127 2.537-.212 2.535-.296 2.533-.38 2.529-.465 2.524-.549 2.519-.633 2.512-.717 2.505-.801 2.497-.885 2.488-.968 2.477-1.051 2.467-1.135 2.456-1.217 2.442-1.299 2.429-1.382 2.414-1.464 2.399-1.545 2.383-1.626 2.366-1.707 2.348-1.788 2.329-1.867 2.31-1.948 2.289-2.026 2.268-2.105 2.245-2.184 2.223-2.261 2.198-2.338 2.174-2.416 2.149-2.491 2.122-2.567 2.096-2.642 2.067-2.717 2.039-2.79 2.009-2.864 1.98-2.936 1.948-3.009 1.917-3.079 1.884-3.15 1.852-3.22 1.817-3.289 1.783-3.357 1.748-3.426 1.711-3.492 1.675-3.558 1.638-3.623 1.6-3.688 1.562-3.752 1.522-3.815 1.482-3.876 1.442-3.938 1.401-3.998 1.359-4.057 1.317-4.116 1.274-4.173 1.231-4.23 1.188-4.286 1.142-4.34 1.098-4.394 1.053-4.447 1.006-4.499.96-4.549.913-4.6.867-4.648.818-4.695.77-4.743.722-4.788.673-4.833.623-4.876.574-4.918.524-4.96.473-5 .423-5.04.372-5.077.32-5.114.269-5.15.217-5.185.165-5.218.113-5.251.06-5.281.008-5.312-.045-5.341-.099-5.368-.151-5.395-.205-5.42-.259-5.444-.312-5.467-.365-5.489-.419-5.51-.474-5.529-.527-5.547-.581-5.564-.634-5.579-.689-5.594-.743-5.608-.796-5.619-.85-5.631-.904-5.64-.957-5.648-1.011-5.655-1.065-5.662-1.118-5.666-1.17-5.67-1.224-5.671-1.277-5.673-1.329-5.673-1.381-5.672-1.434-5.668-1.486-5.665-1.537-5.66-1.589-5.654-1.64-5.646-1.691-5.637-1.741-5.628-1.791-5.616-1.841-5.604-1.891-5.591-1.939-5.576-1.988-5.56-2.037-5.543-2.084-5.525-2.132-5.506-2.178-5.485-2.225-5.463-2.271-5.441-2.317-5.416-2.362-5.392-2.405-5.365-2.45-5.338-2.494-5.309-2.536-5.28-2.578-5.249-2.62-5.218-2.66-5.184-2.702-5.151-2.741-5.115-2.78-5.08-2.818-5.043-2.857-5.004-2.893-4.966-2.93-4.925-2.966-4.884-3-4.842-3.035-4.799-3.068-4.755-3.101-4.71-3.134-4.664-3.164-4.617-3.195-4.57-3.224-4.52-3.253-4.471-3.282-4.421-3.308-4.369-3.335-4.317-3.36-4.264-3.385-4.21-3.409-4.155-3.432-4.1-3.453-4.043-3.475-3.987-3.495-3.928-3.515-3.871-3.533-3.81-3.551-3.751-3.567-3.691-3.583-3.628-3.597-3.567-3.611-3.504-3.625-3.441-3.636-3.377-3.647-3.312-3.657-3.248-3.666-3.181-3.674-3.115-3.68-3.049-3.687-2.981-3.692-2.913-3.696-2.846-3.699-2.776-3.701-2.707-3.703-2.637-3.702-2.568-3.701-2.497-3.699-2.426-3.696-2.354-3.692-2.284-3.687-2.211-3.681-2.139-3.674-2.067-3.665-1.993-3.657-1.921-3.646-1.847-3.635-1.774-3.623-1.7-3.61-1.626-3.596-1.553-3.58-1.477-3.564-1.404-3.546-1.329-3.529-1.254-3.508-1.18-3.489-1.105-3.467-1.03-3.445-.955-3.422-.88-3.397-.806-3.372-.73-3.345-.657-3.318-.581-3.29-.507-3.261-.432-3.23-.358-3.199-.283-3.167-.21-3.134-.135-3.1-.062-3.065.012-3.029.085-2.992.158-2.954.231-2.915.304-2.876.376-2.836.448-2.794.52-2.752.59-2.709.663-2.665.732-2.62.803-2.574.872-2.528.942-2.48 1.011-2.432 1.08-2.384 1.147-2.334 1.215-2.283 1.282-2.232 1.348-2.18 1.415-2.127 1.48-2.073 1.545-2.02 1.609-1.964 1.672-1.909 1.736-1.852 1.799-1.796 1.86-1.737 1.922-1.68 1.982-1.62 2.042-1.561 2.101-1.501 2.16-1.44 2.217-1.379 2.275-1.316 2.331-1.255 2.386-1.191 2.441-1.128 2.496-1.063 2.548-1 2.601-.934 2.653-.869 2.704-.802 2.753-.737 2.803-.67 2.851-.602 2.899-.535 2.945-.467 2.991-.399 3.035-.331 3.08-.261 3.123-.192 3.164-.123 3.206-.053 3.246.017 3.286.088 3.324.157 3.361.229 3.397.299 3.433.371 3.468.441 3.501.513 3.534.584 3.565.656 3.596.728 3.625.799 3.654.871 3.681.942 3.708 1.015 3.733 1.086 3.758 1.158 3.78 1.229 3.804 1.301 3.825 1.373 3.845 1.444 3.864 1.516 3.882 1.587 3.9 1.657 3.915 1.729 3.931 1.799 3.945 1.87 3.957 1.941 3.97 2.01 3.98 2.08 3.99 2.15 3.999 2.219 4.007 2.287 4.013 2.357 4.018 2.425 4.024 2.492 4.026 2.56 4.029 2.628 4.031 2.694 4.03 2.76 4.03 2.827 4.029 2.891 4.025 2.957 4.022 3.021 4.016 3.085 4.011 3.148 4.004 3.212 3.996 3.273 3.987 3.336 3.978 3.396 3.966 3.457 3.954 3.517 3.941 3.577 3.928 3.634 3.912 3.693 3.897 3.75 3.88 3.807 3.862 3.863 3.843 3.917 3.824 3.973 3.803 4.025 3.782 4.079 3.759 4.131 3.736 4.182 3.711 4.232 3.686 4.282 3.66 4.331 3.634 4.379 3.605 4.426 3.577 4.472 3.547 4.518 3.517 4.562 3.486 4.605 3.454 4.648 3.421 4.69 3.387 4.73 3.353 4.771 3.318 4.809 3.282 4.846 3.246 4.884 3.208 4.919 3.17 4.954 3.131 4.988 3.092 5.02 3.051 5.052 3.01 5.083 2.969 5.112 2.927 5.141 2.884 5.169 2.84 5.194 2.797 5.22 2.752 5.244 2.706 5.267 2.661 5.289 2.614 5.309 2.568 5.33 2.52 5.348 2.472 5.365 2.423 5.381 2.375 5.397 2.325 5.41 2.276 5.424 2.225 5.434 2.175 5.446 2.123 5.454 2.072 5.463 2.02 5.469 1.968 5.475 1.915 5.48 1.863 5.483 1.809 5.485 1.755 5.485 1.702 5.486 1.648 5.484 1.594 5.482 1.538 5.477 1.485 5.473 1.429 5.466 1.374 5.458 1.318 5.45 1.264 5.44 1.207 5.429 1.152 5.417 1.096 5.403 1.04 5.388.984 5.372.928 5.356.871 5.336.816 5.318.759 5.297.704 5.274.647 5.252.591 5.228.535 5.202.479 5.175.423 5.148.368 5.119.311 5.089.257 5.058.2 5.025.146 4.992.091 4.957.035 4.922-.019 4.884-.073 4.847-.127 4.808-.181 4.767-.235 4.727-.289 4.684-.341 4.64-.394 4.596-.446 4.551-.499 4.504-.55 4.457-.601 4.408-.652 4.358-.703 4.308-.753 4.256-.803 4.203-.851 4.151-.901 4.095-.948 4.04-.997 3.984-1.044 3.926-1.09 3.869-1.137 3.809-1.182 3.749-1.228 3.688-1.272 3.627-1.316 3.564-1.36 3.501-1.402 3.436-1.445 3.371-1.486 3.306-1.527 3.239-1.568 3.171-1.607 3.104-1.646 3.034-1.684 2.965-1.722 2.895-1.759 2.824-1.795 2.752-1.831 2.68-1.865 2.607-1.899 2.534-1.933 2.459-1.965 2.385-1.997 2.309-2.028 2.234-2.058 2.157-2.087 2.08-2.116 2.003-2.144 1.925-2.171 1.846-2.197 1.768-2.222 1.688-2.247 1.609-2.27 1.528-2.294 1.448-2.315 1.367-2.336 1.286-2.357 1.205-2.376 1.122-2.395 1.041-2.412.958-2.429.875-2.445.792-2.46.71-2.473.626-2.488.542-2.499.459-2.511.375-2.521.291-2.531.206-2.54.123-2.547.039-2.554-.046-2.56-.13-2.565-.214-2.57-.299-2.572-.383-2.575-.467-2.576-.551-2.576-.635-2.576-.72-2.575-.803-2.572-.887-2.569-.97-2.565-1.054-2.56-1.137-2.554-1.22-2.547-1.303-2.539-1.385-2.531-1.467-2.521-1.549-2.511-1.631-2.499-1.713-2.487-1.793-2.474-1.874-2.46-1.954-2.445-2.033-2.429-2.114-2.413-2.192-2.395-2.27-2.377-2.349-2.358-2.426-2.338-2.503-2.316-2.58-2.296-2.656-2.273-2.731-2.249-2.806-2.225-2.88-2.201-2.954-2.175-3.026-2.148-3.1-2.121-3.17-2.093-3.242-2.064-3.313-2.035-3.382-2.005-3.451-1.973-3.519-1.942-3.586-1.909-3.653-1.876-3.719-1.842-3.785-1.808-3.848-1.773-3.912-1.736-3.975-1.701-4.036-1.663-4.097-1.625-4.157-1.587-4.217-1.548-4.274-1.508-4.332-1.468-4.388-1.427-4.444-1.387-4.498-1.344-4.552-1.302-4.604-1.258-4.656-1.216-4.706-1.172-4.756-1.127-4.804-1.082-4.852-1.037-4.898-.991-4.943-.946-4.988-.898-5.031-.852-5.073-.804-5.114-.756-5.154-.708-5.192-.66-5.231-.611-5.267-.562-5.302-.513-5.337-.463-5.369-.413-5.402-.363-5.433-.312-5.462-.262-5.49-.21-5.518-.16-5.544-.109-5.569-.057-5.592-.005-5.615.046-5.637.098-5.656.15-5.675.201-5.693.254-5.709.306-5.724.359-5.739.41-5.751.462-5.762.515-5.773.567-5.782.619-5.789.671-5.796.723-5.802.775-5.805.826-5.809.879-5.809.93-5.811.981-5.809 1.032-5.807 1.084-5.804 1.134-5.799 1.185-5.793 1.235-5.786 1.286-5.778 1.335-5.769 1.385-5.757 1.435-5.746 1.483-5.733 1.532-5.718 1.581-5.702 1.628-5.686 1.676-5.668 1.724-5.648 1.77-5.629 1.817-5.606 1.863-5.584 1.908-5.56 1.954-5.535 1.998-5.509 2.042-5.482 2.087-5.452 2.129-5.424 2.172-5.392 2.214-5.361 2.256-5.328 2.297-5.293 2.338-5.259 2.377-5.222 2.416-5.185 2.456-5.146 2.493-5.107 2.53-5.067 2.568-5.024 2.603-4.983 2.639-4.939 2.674-4.894 2.707-4.849 2.741-4.802 2.774-4.755 2.805-4.706 2.837-4.657 2.866-4.607 2.897-4.555 2.925-4.503 2.954-4.45 2.98-4.397 3.007-4.341 3.033-4.286 3.057-4.229 3.082-4.172 3.104-4.115 3.127-4.055 3.149-3.995 3.169-3.935 3.188-3.874 3.208-3.812 3.225-3.749 3.243-3.686 3.258-3.622 3.274-3.557 3.288-3.492 3.302-3.426 3.314-3.359 3.326-3.292 3.336-3.225 3.346-3.155 3.354-3.087 3.363-3.017 3.369-2.948 3.375-2.876 3.38-2.806 3.384-2.734 3.387-2.662 3.388-2.59 3.39-2.517 3.39-2.443 3.389-2.37 3.386-2.296 3.384-2.222 3.38-2.147 3.375-2.072 3.369-1.996 3.363-1.921 3.354-1.845 3.345-1.77 3.336-1.692 3.325-1.616 3.312-1.54 3.3-1.462 3.286-1.386 3.272-1.308 3.255-1.231 3.239-1.154 3.22-1.076 3.203-.999 3.182-.921 3.161-.844 3.14-.765 3.118-.688 3.093-.611 3.069-.533 3.044-.456 3.017-.378 2.989-.301 2.961-.224 2.932-.146 2.902-.07 2.87.007 2.838.083 2.806.16 2.771.235 2.737.312 2.7.387 2.665.462 2.626.538 2.589.612 2.549.686 2.509.76 2.469.835 2.426.907 2.384.98 2.341 1.053 2.297 1.125 2.251 1.196 2.206 1.267 2.159 1.338 2.112 1.408 2.064 1.478 2.015 1.547 1.965 1.615 1.915 1.683 1.864 1.751 1.813 1.818 1.76 1.883 1.707 1.95 1.653 2.014 1.599 2.079 1.544 2.142 1.488 2.206 1.432 2.267 1.376 2.329 1.317 2.391 1.26 2.45 1.201 2.51 1.142 2.568 1.083 2.626 1.022 2.684.961 2.739.901 2.796.838 2.849.777 2.904.714 2.957.651 3.009.588 3.06.523 3.111.46 3.161.395 3.209.331 3.257.265 3.303.199 3.35.134 3.395.067 3.438.001 3.482-.065 3.524-.133 3.565-.2 3.606-.267 3.645-.334 3.683-.402 3.72-.471 3.756-.538 3.792-.606 3.826-.674 3.86-.743 3.891-.811 3.923-.88 3.953-.948 3.982-1.017 4.009-1.085 4.037-1.154 4.063-1.222 4.088-1.29 4.111-1.359 4.135-1.427 4.156-1.495 4.176-1.564 4.196-1.631 4.214-1.699 4.232-1.766 4.248-1.834 4.263-1.901 4.278-1.968 4.29-2.035 4.302-2.101 4.313-2.168 4.323-2.233 4.332-2.299 4.339-2.364 4.345-2.429 4.351-2.494 4.356-2.557 4.358-2.622 4.361-2.685 4.361-2.748 4.362-2.81 4.361-2.873 4.358-2.934 4.356-2.995 4.351-3.056 4.345-3.115 4.34-3.176 4.331-3.234 4.324-3.292 4.313-3.351 4.304-3.407 4.291-3.465 4.279-3.52 4.265-3.575 4.251-3.63 4.235-3.684 4.218-3.738 4.2-3.789 4.182-3.842 4.162-3.893 4.141-3.943 4.12-3.992 4.097-4.042 4.074-4.089 4.049-4.137 4.024-4.183 3.998-4.229 3.97-4.273 3.942-4.317 3.914-4.361 3.883-4.402 3.852-4.444 3.821-4.484 3.788-4.523 3.755-4.562 3.721-4.599 3.686-4.636 3.649-4.672 3.613-4.706 3.576-4.74 3.538-4.772 3.498-4.805 3.459-4.835 3.419-4.865 3.377-4.893 3.335-4.921 3.293-4.947 3.249-4.973 3.205-4.998 3.161-5.021 3.116-5.043 3.069-5.064 3.023-5.085 2.976-5.103 2.928-5.121 2.88-5.139 2.831-5.154 2.781-5.168 2.732-5.182 2.681-5.194 2.63-5.206 2.578-5.215 2.527-5.225 2.474-5.232 2.421-5.238 2.368-5.244 2.314-5.249 2.26-5.251 2.206-5.253 2.15-5.254 2.096-5.254 2.04-5.252 1.984-5.249 1.928-5.245 1.871-5.24 1.815-5.234 1.757-5.226 1.701-5.218 1.642-5.208 1.586-5.197 1.527-5.184 1.469-5.171 1.412-5.157 1.352-5.14 1.295-5.124 1.235-5.106 1.177-5.087 1.119-5.066 1.059-5.044 1.001-5.022.942-4.998.883-4.973.824-4.946.765-4.92.706-4.89.648-4.861.589-4.831.53-4.798.472-4.766.414-4.731.355-4.696.297-4.66.239-4.622.182-4.584.123-4.545.067-4.503.009-4.462-.047-4.42-.104-4.375-.16-4.33-.217-4.285-.272-4.238-.327-4.19-.383-4.141-.437-4.091-.492-4.04-.545-3.989-.599-3.935-.653-3.882-.705-3.827-.757-3.772-.809-3.715-.861-3.657-.911-3.6-.962-3.54-1.012-3.48-1.061-3.42-1.11-3.357-1.158-3.294-1.206-3.232-1.254-3.167-1.299-3.103-1.346-3.036-1.391-2.97-1.436-2.903-1.48-2.835-1.524-2.766-1.567-2.697-1.608-2.627-1.65-2.556-1.691-2.485-1.731-2.413-1.771-2.34-1.809-2.267-1.847-2.193-1.884-2.119-1.921-2.044-1.957-1.968-1.991-1.892-2.026-1.816-2.059-1.739-2.092-1.66-2.123-1.584-2.155-1.505-2.184-1.426-2.215-1.347-2.242-1.268-2.271-1.187-2.297-1.108-2.323-1.026-2.349-.946-2.373-.864-2.396-.783-2.419-.702-2.44-.619-2.462-.537-2.481-.454-2.5-.372-2.519-.29-2.536-.206-2.552-.123-2.567-.04-2.582.043-2.596.127-2.608.21-2.62.293-2.631.377-2.641.46-2.65.543-2.658.627-2.665.71-2.672.794-2.676.876-2.681.96-2.685 1.042-2.687 1.125-2.689 1.208-2.689 1.29-2.689 1.372-2.688 1.454-2.686 1.536-2.683 1.616-2.679 1.699-2.674 1.779-2.669 1.86-2.661 1.939-2.655 2.02-2.645 2.098-2.636 2.178-2.626 2.256-2.615 2.335-2.603 2.412-2.59 2.49-2.576 2.566-2.561 2.642-2.546 2.719-2.529 2.793-2.512 2.869-2.494 2.942-2.474 3.016-2.455 3.088-2.435 3.161-2.413 3.233-2.39 3.303-2.368 3.374-2.343 3.444-2.319 3.512-2.293 3.581-2.268 3.648-2.24 3.715-2.212 3.781-2.183 3.846-2.155 3.911-2.124 3.974-2.094 4.037-2.062 4.098-2.03 4.16-1.997 4.22-1.963 4.28-1.93 4.337-1.894 4.396-1.859 4.452-1.823 4.507-1.786 4.563-1.748 4.616-1.711 4.669-1.671 4.721-1.633 4.772-1.593 4.821-1.552 4.87-1.512 4.919-1.47 4.965-1.429 5.01-1.386 5.056-1.343 5.098-1.299 5.142-1.256 5.183-1.211 5.223-1.167 5.262-1.121 5.301-1.076 5.337-1.03 5.374-.983 5.408-.937 5.441-.89 5.475-.842 5.505-.794 5.535-.746 5.565-.698 5.592-.65 5.618-.6 5.644-.551 5.668-.502 5.691-.452 5.713-.402 5.733-.353 5.753-.302 5.771-.251 5.787-.202 5.803-.15 5.818-.1 5.831-.049 5.842.002 5.854.053 5.862.104 5.871.155 5.878.207 5.884.257 5.888.309 5.891.359 5.894.411 5.893.461 5.894.513 5.892.563 5.888.614 5.884.665 5.879.715 5.872.766 5.864.815 5.855.866 5.844.915 5.833.965 5.819 1.014 5.806 1.063 5.79 1.112 5.773 1.161 5.755 1.209 5.737 1.257 5.716 1.304 5.695 1.352 5.672 1.398 5.648 1.446 5.624 1.491 5.597 1.537 5.57 1.583 5.541 1.628 5.512 1.672 5.48 1.716 5.449 1.76 5.416 1.804 5.382 1.845 5.346 1.888 5.309 1.93 5.273 1.971 5.233 2.011 5.194 2.052 5.153 2.09 5.112 2.13 5.068 2.168 5.024 2.206 4.98 2.242 4.934 2.28 4.886 2.314 4.839 2.35 4.79 2.385 4.739 2.418 4.689 2.451 4.637 2.484 4.585 2.515 4.53 2.547 4.476 2.576 4.421 2.606 4.364 2.635 4.307 2.663 4.249 2.69 4.19 2.716 4.13 2.742 4.069 2.766 4.009 2.791 3.946 2.814 3.883 2.836 3.819 2.858 3.756 2.879 3.689 2.898 3.625 2.918 3.557 2.935 3.491 2.953 3.422 2.969 3.354 2.984 3.285 2.999 3.215 3.013 3.145 3.026 3.074 3.038 3.002 3.048 2.931 3.059 2.858 3.068 2.784 3.075 2.712 3.084 2.637 3.089 2.563 3.095 2.487 3.1 2.413 3.103 2.337 3.105 2.26 3.107 2.184 3.108 2.108 3.108 2.03 3.106 1.952 3.104 1.875 3.101 1.797 3.096 1.718 3.092 1.64 3.085 1.561 3.079 1.482 3.07 1.403 3.062 1.324 3.051 1.244 3.041 1.164 3.028 1.085 3.016 1.004 3.002.925 2.988.845 2.971.765 2.955.685 2.938.605 2.918.524 2.9.445 2.878.365 2.858.285 2.835.206 2.811.125 2.788.046 2.762-.033 2.737-.112 2.709-.192 2.682-.27 2.653-.349 2.623-.427 2.593-.506 2.561-.583 2.529-.661 2.495-.738 2.462-.815 2.427-.891 2.391-.968 2.354-1.044 2.317-1.119 2.279-1.194 2.239-1.268 2.2-1.343 2.159-1.417 2.118-1.49 2.075-1.562 2.032-1.635 1.989-1.706 1.944-1.778 1.899-1.848 1.853-1.918 1.806-1.988 1.758-2.056 1.711-2.125 1.662-2.192 1.612-2.26 1.562-2.325 1.512-2.391 1.459-2.456 1.408-2.52 1.356-2.584 1.302-2.646 1.248-2.708 1.193-2.77 1.139-2.829 1.083-2.89 1.028-2.949.97-3.006.914-3.064.856-3.12.798-3.175.739-3.23.68-3.285.621-3.336.561-3.389.501-3.441.441-3.49.379-3.54.318-3.587.256-3.636.195-3.681.132-3.728.069-3.771.006-3.816-.056-3.857-.121-3.9-.183-3.94-.248-3.979-.312-4.018-.376-4.055-.44-4.092-.505-4.127-.57-4.161-.635-4.195-.699-4.227-.765-4.258-.83-4.288-.894-4.317-.96-4.345-1.025-4.372-1.091-4.398-1.155-4.422-1.221-4.446-1.286-4.468-1.35-4.49-1.416-4.51-1.48-4.529-1.546-4.547-1.609-4.564-1.675-4.579-1.738-4.595-1.802-4.608-1.867-4.62-1.93-4.632-1.993-4.641-2.057-4.651-2.119-4.659-2.182-4.666-2.245-4.671-2.306-4.676-2.368-4.679-2.429-4.682-2.49-4.683-2.551-4.683-2.611-4.683-2.67-4.68-2.73-4.676-2.788-4.673-2.847-4.667-2.905-4.661-2.962-4.653-3.018-4.645-3.075-4.635-3.131-4.623-3.186-4.613-3.241-4.599-3.295-4.585-3.348-4.57-3.401-4.554-3.453-4.537-3.504-4.519-3.556-4.499-3.605-4.48-3.655-4.458-3.704-4.436-3.752-4.413-3.799-4.388-3.845-4.363-3.892-4.338-3.936-4.31-3.98-4.282-4.024-4.253-4.067-4.223-4.108-4.192-4.149-4.16-4.19-4.128-4.228-4.094-4.267-4.059-4.304-4.025-4.341-3.988-4.377-3.951-4.411-3.913-4.445-3.874-4.478-3.835-4.509-3.795-4.541-3.753-4.57-3.712-4.6-3.669-4.628-3.626-4.654-3.581-4.681-3.536-4.705-3.491-4.73-3.445-4.752-3.398-4.774-3.35-4.795-3.301-4.815-3.253-4.834-3.204-4.851-3.153-4.868-3.102-4.883-3.051-4.898-2.999-4.911-2.946-4.923-2.893-4.934-2.84-4.944-2.786-4.954-2.731-4.96-2.676-4.968-2.621-4.973-2.564-4.977-2.509-4.981-2.451-4.983-2.394-4.983-2.337-4.984-2.278-4.982-2.22-4.98-2.162-4.976-2.103-4.971-2.043-4.966-1.984-4.958-1.923-4.951-1.864-4.94-1.804-4.931-1.742-4.918-1.683-4.906-1.621-4.892-1.56-4.877-1.498-4.86-1.438-4.843-1.375-4.825-1.314-4.805-1.253-4.784-1.19-4.762-1.129-4.738-1.067-4.715-1.004-4.689-.943-4.663-.881-4.635-.819-4.607-.757-4.577-.696-4.545-.633-4.514-.572-4.481-.511-4.446-.449-4.411-.388-4.375-.327-4.337-.266-4.299-.205-4.259-.145-4.219-.084-4.177-.024-4.135.035-4.091.095-4.046.154-4 .213-3.954.272-3.906.33-3.857.388-3.808.445-3.758.503-3.705.559-3.654.616-3.6.672-3.545.727-3.491.783-3.434.837-3.378.891-3.32.945-3.26.998-3.202 1.051-3.141 1.102-3.08 1.155-3.018 1.205-2.956 1.256-2.891 1.305-2.828 1.355-2.762 1.403-2.697 1.452-2.63 1.498-2.563 1.546-2.495 1.591-2.426 1.637-2.358 1.682-2.287 1.726-2.217 1.769-2.145 1.812-2.074 1.853-2.002 1.895-1.929 1.935-1.855 1.975-1.781 2.014-1.707 2.051-1.632 2.09-1.556 2.125-1.48 2.162-1.404 2.197-1.328 2.23-1.25 2.264-1.171 2.297-1.094 2.328-1.016 2.359-.937 2.389-.857 2.418-.779 2.447-.698 2.473-.619 2.501-.538 2.525-.458 2.551-.377 2.574-.296 2.598-.215 2.619-.134 2.641-.052 2.66.03 2.681.11 2.698.193 2.716.275 2.732.357 2.748.438 2.763.52 2.776.603 2.79.685 2.801.766 2.812.848 2.822.93 2.831 1.012 2.839 1.094 2.847 1.175 2.852 1.256 2.858 1.337 2.862 1.419 2.866 1.499 2.867 1.58 2.87 1.66 2.87 1.74 2.87 1.82 2.868 1.898 2.866 1.979 2.863 2.057 2.859 2.136 2.853 2.214 2.848 2.291 2.841 2.369 2.833 2.446 2.825 2.522 2.814 2.598 2.805 2.674 2.792 2.748 2.781 2.824 2.767 2.897 2.753 2.97 2.738 3.044 2.723 3.116 2.705 3.187 2.688 3.259 2.67 3.329 2.65 3.399 2.63 3.468 2.609 3.536 2.588 3.604 2.565 3.672 2.541 3.737 2.517 3.803 2.492 3.869 2.467 3.932 2.439 3.995 2.413 4.058 2.384 4.12 2.356 4.18 2.326 4.24 2.295 4.3 2.265 4.358 2.232 4.415 2.201 4.472 2.167 4.527 2.133 4.582 2.099 4.635 2.064 4.689 2.028 4.74 1.992 4.791 1.954 4.84 1.917 4.89 1.879 4.937 1.84 4.984 1.8 5.03 1.761 5.075 1.72 5.118 1.679 5.161 1.637 5.203 1.596 5.243 1.553 5.282 1.509 5.321 1.467 5.358 1.422 5.393 1.378 5.429 1.333 5.462 1.288 5.495 1.242 5.527 1.197 5.556 1.149 5.586 1.103 5.614 1.056 5.641 1.009 5.666.961 5.691.913 5.714.864 5.736.816 5.756.767 5.777.718 5.794.669 5.812.62 5.828.569 5.842.52 5.856.47 5.868.42 5.879.369 5.889.319 5.897.268 5.905.218 5.91.167 5.916.117 5.918.066 5.922.015 5.922-.036 5.921-.086 5.921-.138 5.917-.188 5.914-.238 5.908-.289 5.902-.339 5.894-.39 5.885-.44 5.874-.491 5.864-.54 5.85-.59 5.837-.639 5.821-.689 5.805-.738 5.787-.787 5.769-.836 5.748-.884 5.727-.933 5.705-.98 5.681-1.028 5.656-1.075 5.63-1.122 5.602-1.169 5.574-1.215 5.545-1.261 5.514-1.306 5.481-1.352 5.449-1.396 5.415-1.44 5.379-1.484 5.343-1.528 5.305-1.57 5.266-1.613 5.227-1.654 5.186-1.696 5.143-1.736 5.101-1.777 5.057-1.817 5.011-1.856 4.965-1.894 4.918-1.932 4.87-1.97 4.821-2.007 4.77-2.042 4.719-2.078 4.667-2.113 4.614-2.148 4.56-2.181 4.504-2.213 4.449-2.246 4.392-2.277 4.334-2.308 4.276-2.338 4.216-2.368 4.156-2.396 4.094-2.423 4.033-2.451 3.969-2.477 3.907-2.502 3.841-2.527 3.777-2.551 3.711-2.575 3.644-2.596 3.576-2.618 3.509-2.638 3.44-2.658 3.37-2.678 3.301-2.695 3.23-2.712 3.158-2.729 3.086-2.745 3.014-2.759 2.941-2.772 2.867-2.786 2.793-2.797 2.718-2.809 2.643-2.819 2.567-2.828 2.491-2.836 2.415-2.844 2.337-2.85 2.26-2.856 2.182-2.861 2.104-2.864 2.025-2.867 1.946-2.869 1.867-2.87 1.788-2.87 1.707-2.869 1.627-2.867 1.547-2.864 1.467-2.861 1.385-2.856 1.304-2.85 1.223-2.843 1.142-2.836 1.06-2.828.979-2.818.897-2.808.815-2.796.733-2.784.651-2.771.569-2.757.487-2.742.405-2.726.323-2.708.242-2.691.159-2.673.078-2.652-.004-2.632-.085-2.611-.167-2.588-.248-2.565-.329-2.54-.41-2.516-.491-2.49-.571-2.462-.651-2.435-.731-2.407-.811-2.376-.89-2.347-.969-2.315-1.047-2.284-1.126-2.25-1.204-2.217-1.281-2.183-1.358-2.147-1.436-2.111-1.511-2.074-1.587-2.036-1.662-1.998-1.738-1.959-1.811-1.919-1.885-1.878-1.959-1.836-2.031-1.795-2.103-1.751-2.175-1.708-2.246-1.664-2.315-1.618-2.386-1.573-2.454-1.527-2.523-1.479-2.591-1.432-2.657-1.384-2.723-1.335-2.789-1.285-2.854-1.235-2.918-1.185-2.981-1.133-3.043-1.082-3.105-1.029-3.166-.976-3.226-.923-3.285-.87-3.343-.815-3.401-.76-3.457-.704-3.514-.65-3.567-.592-3.622-.537-3.675-.479-3.727-.422-3.778-.365-3.828-.306-3.878-.248-3.925-.189-3.973-.13-4.019-.071-4.065-.011-4.108.049-4.152.109-4.195.169-4.235.23-4.276.291-4.314.352-4.353.412-4.39.475-4.425.535-4.461.597-4.494.659-4.527.721-4.558.782-4.589.844-4.619.906-4.646.969-4.674 1.03-4.7 1.091-4.724 1.154-4.749 1.216-4.771 1.277-4.792 1.34-4.813 1.4-4.833 1.463-4.85 1.523-4.867 1.585-4.883 1.646-4.898 1.707-4.911 1.768-4.924 1.828-4.934 1.888-4.945 1.948-4.954 2.008-4.961 2.068-4.968 2.126-4.974 2.186-4.977 2.244-4.981 2.302-4.983 2.36-4.984 2.418-4.984 2.474-4.982 2.532-4.979 2.587-4.976 2.643-4.971 2.699-4.965 2.753-4.957 2.808-4.95 2.862-4.94 2.915-4.93 2.968-4.919 3.02-4.905 3.072-4.892 3.123-4.877 3.173-4.861 3.224-4.845 3.273-4.826 3.321-4.807 3.37-4.786 3.417-4.766 3.463-4.743 3.51-4.72 3.555-4.695 3.599-4.67 3.643-4.644 3.687-4.616 3.729-4.588 3.77-4.559 3.811-4.528 3.851-4.497 3.89-4.464 3.929-4.432 3.966-4.397 4.003-4.362 4.039-4.326 4.074-4.289 4.108-4.251 4.141-4.213 4.173-4.173 4.205-4.133 4.235-4.091 4.265-4.049 4.294-4.007 4.321-3.962 4.348-3.918 4.374-3.873 4.398-3.827 4.422-3.78 4.445-3.732 4.467-3.684 4.488-3.635 4.508-3.585 4.526-3.535 4.544-3.483 4.561-3.432 4.576-3.38 4.591-3.326 4.605-3.273 4.617-3.218 4.628-3.164 4.639-3.108 4.648-3.052 4.657-2.996 4.663-2.939 4.67-2.881 4.674-2.823 4.678-2.765 4.681-2.705 4.683-2.646 4.683-2.587 4.683-2.526 4.681-2.465 4.678-2.404 4.674-2.343 4.67-2.281 4.663-2.219 4.655-2.157 4.648-2.094 4.637-2.031 4.628-1.967 4.615-1.904 4.602-1.841 4.589-1.776 4.573-1.712 4.558-1.648 4.539-1.584 4.522-1.519 4.501-1.454 4.482-1.389 4.459-1.324 4.436-1.26 4.413-1.194 4.387-1.129 4.361-1.063 4.334-.999 4.305-.933 4.276-.869 4.246-.803 4.214-.738 4.181-.673 4.148-.608 4.112-.543 4.077-.479 4.041-.414 4.002-.35 3.963-.286 3.924-.221 3.882-.158 3.841-.095 3.797-.031 3.754.032 3.709.095 3.663.158 3.616.219 3.568.282 3.52.343 3.47.404 3.419.465 3.368.526 3.316.585 3.262.645 3.208.705 3.153.763 3.097.822 3.041.879 2.983.937 2.924.994 2.866 1.05 2.805 1.106 2.745 1.161 2.683 1.216 2.62 1.27 2.558 1.324 2.494 1.377 2.43 1.429 2.364 1.481 2.299 1.532 2.232 1.583 2.165 1.632 2.097 1.682 2.028 1.73 1.96 1.778 1.889 1.825 1.82 1.872 1.748 1.917 1.678 1.962 1.605 2.007 1.533 2.05 1.46 2.093 1.387 2.134 1.312 2.176 1.239 2.216 1.163 2.256 1.089 2.294 1.012 2.332.937 2.37.861 2.405.783 2.441.707 2.476.629 2.509.552 2.542.473 2.574.396 2.606.317 2.635.238 2.665.159 2.693.08 2.72.001 2.747-.078 2.773-.158 2.798-.238 2.821-.318 2.844-.397 2.867-.478 2.887-.557 2.907-.638 2.927-.717 2.944-.797 2.962-.878 2.978-.957 2.994-1.038 3.007-1.117 3.022-1.197 3.033-1.276 3.045-1.356 3.056-1.435 3.065-1.514 3.074-1.593 3.081-1.672 3.089-1.751 3.093-1.828 3.099-1.907 3.102-1.984 3.105-2.061 3.107-2.139 3.107-2.215 3.108-2.292 3.107-2.368 3.104-2.443 3.102-2.518 3.098-2.593 3.093-2.668 3.087-2.741 3.08-2.815 3.073-2.887 3.064-2.96 3.055-3.032 3.044-3.102 3.033-3.174 3.02-3.244 3.008-3.313 2.993-3.382 2.978-3.45 2.963-3.518 2.946-3.585 2.928-3.651 2.91-3.716 2.89-3.782 2.87-3.845 2.849-3.909 2.828-3.972 2.804-4.033 2.781-4.094 2.757-4.155 2.731-4.214 2.706-4.272 2.679-4.331 2.651-4.387 2.624-4.443 2.594-4.499 2.564-4.552 2.534-4.606 2.502-4.659 2.471-4.709 2.438-4.761 2.404-4.809 2.371-4.859 2.336-4.905 2.3-4.953 2.264-4.998 2.228-5.042 2.19-5.086 2.153-5.129 2.114-5.17 2.075-5.21 2.035-5.249 1.995-5.288 1.954-5.325 1.912-5.36 1.871-5.396 1.829-5.429 1.786-5.462 1.742-5.494 1.698-5.524 1.654-5.553 1.61-5.581 1.564-5.608 1.519-5.633 1.472-5.659 1.427-5.681 1.379-5.704 1.333-5.725 1.285-5.744 1.237-5.763 1.189-5.78 1.141-5.796 1.092-5.812 1.044-5.825.994-5.837.945-5.849.895-5.859.845-5.867.795-5.875.745-5.881.694-5.886.645-5.89.593-5.893.543-5.893.491-5.894.441-5.893.39-5.89.339-5.886.288-5.882.236-5.875.186-5.868.134-5.859.083-5.849.033-5.838-.019-5.825-.07-5.812-.12-5.797-.171-5.781-.222-5.764-.272-5.744-.323-5.726-.373-5.704-.422-5.681-.473-5.659-.522-5.634-.571-5.608-.62-5.58-.669-5.553-.718-5.523-.766-5.493-.814-5.461-.861-5.428-.909-5.394-.956-5.359-1.002-5.323-1.049-5.285-1.094-5.246-1.14-5.207-1.185-5.167-1.23-5.124-1.273-5.081-1.318-5.037-1.36-4.992-1.403-4.946-1.446-4.899-1.487-4.851-1.528-4.801-1.569-4.751-1.609-4.7-1.649-4.648-1.688-4.594-1.726-4.541-1.764-4.485-1.801-4.429-1.837-4.372-1.874-4.314-1.908-4.255-1.944-4.196-1.977-4.135-2.01-4.073-2.044-4.012-2.075-3.948-2.106-3.884-2.136-3.82-2.167-3.754-2.195-3.688-2.224-3.62-2.251-3.554-2.278-3.484-2.304-3.415-2.329-3.346-2.353-3.274-2.377-3.204-2.4-3.132-2.422-3.059-2.443-2.986-2.463-2.912-2.482-2.838-2.502-2.763-2.519-2.687-2.536-2.612-2.552-2.535-2.567-2.458-2.582-2.38-2.595-2.303-2.608-2.225-2.619-2.146-2.631-2.066-2.64-1.987-2.649-1.907-2.657-1.827-2.665-1.746-2.671-1.665-2.676-1.584-2.681-1.502-2.684-1.421-2.687-1.339-2.688-1.256-2.69-1.174-2.689-1.092-2.688-1.008-2.686-.926-2.683-.843-2.68-.76-2.675-.675-2.669-.593-2.662-.51-2.655-.426-2.646-.343-2.637-.259-2.627-.176-2.615-.092-2.604-.01-2.59.074-2.576.157-2.561.24-2.546.323-2.529.406-2.511.488-2.492.57-2.474.653-2.453.735-2.431.816-2.41.898-2.387.978-2.363 1.06-2.338 1.14-2.313 1.22-2.287 1.3-2.259 1.379-2.231 1.458-2.202 1.537-2.173 1.616-2.142 1.692-2.111 1.77-2.078 1.848-2.046 1.923-2.012 1.999-1.977 2.074-1.942 2.15-1.906 2.223-1.869 2.296-1.832 2.37-1.794 2.442-1.754 2.514-1.715 2.585-1.674 2.656-1.634 2.725-1.591 2.794-1.549 2.863-1.506 2.93-1.462 2.998-1.418 3.063-1.373 3.13-1.327 3.193-1.281 3.257-1.234 3.32-1.187 3.383-1.138 3.444-1.09 3.505-1.042 3.564-.991 3.623-.941 3.682-.891 3.738-.84 3.794-.788 3.85-.736 3.904-.684 3.957-.63 4.009-.578 4.061-.523 4.112-.47 4.161-.415 4.21-.36 4.257-.305 4.303-.249 4.349-.194 4.393-.137 4.437-.081 4.479-.025 4.521.033 4.56.09 4.6.147 4.638.205 4.674.263 4.711.321 4.745.379 4.779.437 4.812.495 4.843.555 4.873.612 4.903.672 4.93.73 4.958.789 4.983.848 5.008.907 5.031.966 5.053 1.025 5.075 1.083 5.094 1.143 5.114 1.201 5.131 1.259 5.147 1.318 5.163 1.377 5.176 1.435 5.19 1.493 5.201 1.551 5.212 1.609 5.222 1.666 5.229 1.724 5.237 1.78 5.242 1.838 5.247 1.895 5.25 1.95 5.253 2.007 5.254 2.063 5.254 2.118 5.253 2.173 5.25 2.228 5.247 2.282 5.242 2.336 5.236 2.389 5.229 2.443 5.22 2.496 5.212 2.547 5.201 2.6 5.189 2.651 5.177 2.701 5.163 2.752 5.147 2.802 5.132 2.851 5.114 2.899 5.096 2.948 5.076 2.995 5.056 3.042 5.034 3.089 5.012 3.134 4.987 3.179 4.963 3.223 4.937 3.267 4.91 3.31 4.882 3.353 4.852 3.394 4.823 3.435 4.792 3.475 4.759 3.514 4.726 3.553 4.693 3.592 4.657 3.628 4.621 3.664 4.584 3.7 4.546 3.735 4.508 3.769 4.467 3.801 4.427 3.834 4.386 3.865 4.342 3.896 4.3 3.925 4.255 3.953 4.21 3.982 4.165 4.008 4.117 4.035 4.07 4.059 4.022 4.084 3.972 4.106 3.923 4.129 3.872 4.15 3.821 4.17 3.768 4.19 3.716 4.207 3.662 4.225 3.608 4.242 3.553 4.256 3.497 4.271 3.441 4.284 3.385 4.297 3.327 4.307 3.269 4.318 3.21 4.327 3.151 4.335 3.091 4.342 3.032 4.348 2.97 4.353 2.909 4.356 2.847 4.36 2.785 4.361 2.723 4.362 2.659 4.361 2.595 4.36 2.532 4.358 2.467 4.353 2.403 4.349 2.338 4.343 2.272 4.336 2.206 4.328 2.141 4.319 2.074 4.309 2.008 4.298 1.94 4.285 1.874 4.272 1.807 4.257 1.739 4.241 1.671 4.225 1.603 4.207 1.536 4.188 1.467 4.169 1.4 4.147 1.331 4.125 1.262 4.102 1.195 4.078 1.125 4.052 1.058 4.026.988 3.999.921 3.97.851 3.94.784 3.911.715 3.878.646 3.846.579 3.812.51 3.778.443 3.742.374 3.705.307 3.667.24 3.629.172 3.589.105 3.549.039 3.507-.028 3.464-.095 3.421-.16 3.377-.226 3.331-.292 3.285-.357 3.237-.421 3.189-.486 3.141-.55 3.09-.614 3.04-.676 2.987-.74 2.936-.802 2.882-.864 2.827-.925 2.773-.986 2.717-1.047 2.66-1.107 2.603-1.166 2.545-1.225 2.485-1.283 2.426-1.342 2.365-1.398 2.305-1.455 2.242-1.511 2.18-1.567 2.116-1.621 2.053-1.675 1.988-1.729 1.923-1.781 1.857-1.834 1.79-1.885 1.723-1.936 1.656-1.985 1.587-2.035 1.519-2.084 1.449-2.131 1.38-2.178 1.309-2.225 1.239-2.27 1.167-2.314 1.095-2.359 1.023-2.401.951-2.444.878-2.485.804-2.525.73-2.566.656-2.604.582-2.642.507-2.679.432-2.716.356-2.751.281-2.785.204-2.819.129-2.851.052-2.884-.024-2.914-.101-2.944-.178-2.972-.256-3.001-.332-3.028-.41-3.054-.487-3.079-.565-3.103-.642-3.127-.72-3.149-.797-3.17-.875-3.191-.953-3.209-1.03-3.229-1.108-3.245-1.185-3.262-1.262-3.278-1.34-3.291-1.417-3.306-1.494-3.317-1.571-3.33-1.647-3.339-1.724-3.349-1.8-3.358-1.876-3.365-1.952-3.372-2.028-3.377-2.102-3.382-2.178-3.385-2.251-3.388-2.327-3.389-2.4-3.39-2.473-3.389-2.547-3.388-2.619-3.386-2.691-3.382-2.764-3.378-2.834-3.373-2.906-3.367-2.976-3.359-3.045-3.351-3.115-3.342-3.184-3.332-3.252-3.321-3.319-3.309-3.387-3.297-3.452-3.282-3.519-3.268-3.584-3.252-3.648-3.236-3.712-3.218-3.775-3.2-3.837-3.181-3.899-3.16-3.959-3.14-4.02-3.118-4.08-3.095-4.137-3.072-4.196-3.048-4.252-3.022-4.309-2.996-4.364-2.97-4.418-2.942-4.472-2.914-4.525-2.884-4.576-2.855-4.627-2.823-4.677-2.793-4.727-2.76-4.774-2.728-4.821-2.694-4.867-2.659-4.913-2.625-4.957-2.588-5-2.553-5.042-2.515-5.083-2.478-5.123-2.44-5.162-2.4-5.2-2.361-5.237-2.321-5.273-2.281-5.308-2.239-5.341-2.197-5.374-2.154-5.405-2.112-5.436-2.069-5.464-2.024-5.493-1.98-5.52-1.936-5.545-1.89-5.57-1.844-5.593-1.798-5.616-1.751-5.636-1.704-5.657-1.657-5.675-1.609-5.693-1.561-5.709-1.512-5.724-1.463-5.738-1.415-5.751-1.365-5.762-1.315-5.773-1.265-5.781-1.215-5.789-1.164-5.796-1.114-5.801-1.062-5.806-1.012-5.808-.96-5.81-.909-5.81-.858-5.809-.805-5.807-.754-5.804-.702-5.8-.649-5.793-.598-5.787-.546-5.778-.493-5.769-.442-5.758-.389-5.746-.337-5.732-.284-5.719-.233-5.702-.181-5.686-.128-5.668-.077-5.648-.025-5.628.026-5.606.078-5.583.13-5.559.18-5.533.232-5.507.282-5.479.333-5.45.383-5.42.434-5.389.483-5.357.533-5.322.582-5.289.631-5.252.679-5.215.728-5.177.776-5.138.824-5.097.87-5.056.918-5.014.964-4.969 1.01-4.925 1.055-4.88 1.101-4.832 1.145-4.785 1.19-4.735 1.233-4.686 1.277-4.635 1.319-4.583 1.361-4.53 1.403-4.476 1.444-4.421 1.485-4.366 1.524-4.308 1.564-4.251 1.603-4.193 1.64-4.132 1.679-4.073 1.715-4.011 1.751-3.949 1.787-3.887 1.822-3.822 1.856-3.758 1.89-3.692 1.922-3.626 1.955-3.56 1.986-3.49 2.017-3.424 2.047-3.353 2.076-3.284 2.104-3.213 2.133-3.142 2.159-3.07 2.185-2.997 2.211-2.924 2.235-2.85 2.259-2.775 2.283-2.7 2.304-2.625 2.325-2.549 2.346-2.472 2.366-2.395 2.385-2.316 2.402-2.239 2.42-2.16 2.435-2.08 2.452-2.002 2.465-1.922 2.48-1.84 2.492-1.76 2.504-1.68 2.515-1.598 2.525-1.516 2.534-1.434 2.543-1.351 2.55-1.27 2.556-1.186 2.562-1.103 2.567-1.02 2.57-.936 2.574-.853 2.575-.769 2.576-.685 2.577-.601 2.575-.517 2.574-.433 2.571-.348 2.568-.265 2.563-.18 2.558-.095 2.552-.012 2.544.073 2.536.157 2.527.242 2.517.325 2.507.409 2.494.493 2.482.576 2.468.66 2.454.743 2.439.826 2.422.91 2.405.99 2.387 1.075 2.368 1.156 2.349 1.237 2.328 1.32 2.306 1.4 2.284 1.48 2.261 1.562 2.237 1.64 2.212 1.721 2.187 1.8 2.16 1.878 2.132 1.957 2.105 2.034 2.075 2.112 2.046 2.188 2.015 2.265 1.984 2.34 1.952 2.415 1.919 2.49 1.886 2.563 1.851 2.637 1.816 2.71 1.781 2.781 1.744 2.853 1.706 2.924 1.669 2.993 1.631 3.063 1.591 3.131 1.551 3.2 1.51 3.265 1.47 3.333 1.427 3.398 1.385 3.462 1.342 3.527 1.298 3.59 1.254 3.651 1.21 3.713 1.164 3.774 1.118 3.834 1.071 3.892 1.025 3.95.977 4.006.929 4.063.881 4.118.831 4.172.783 4.225.732 4.278.682 4.328.632 4.379.581 4.428.529 4.476.477 4.523.425 4.569.372 4.615.32 4.658.267 4.701.213 4.744.159 4.784.106 4.823.051 4.863-.004 4.899-.058 4.937-.113 4.971-.168 5.006-.223 5.038-.279 5.071-.334 5.101-.39 5.131-.446 5.159-.502 5.187-.558 5.212-.614 5.238-.67 5.261-.726 5.284-.783 5.305-.838 5.326-.895 5.344-.95 5.363-1.007 5.379-1.063 5.394-1.119 5.409-1.174 5.422-1.23 5.433-1.286 5.444-1.341 5.454-1.397 5.462-1.451 5.469-1.507 5.474-1.561 5.48-1.616 5.482-1.669 5.485-1.724 5.486-1.778 5.486-1.831 5.484-1.884 5.482-1.936 5.477-1.989 5.473-2.042 5.467-2.093 5.46-2.144 5.45-2.195 5.441-2.246 5.431-2.296 5.418-2.345 5.405-2.395 5.39-2.443 5.375-2.492 5.359-2.54 5.34-2.586 5.322-2.633 5.301-2.68 5.28-2.725 5.258-2.77 5.234-2.814 5.21-2.859 5.184-2.901 5.157-2.944 5.129-2.986 5.101-3.027 5.07-3.068 5.04-3.108 5.007-3.147 4.974-3.185 4.94-3.224 4.905-3.26 4.868-3.297 4.832-3.332 4.793-3.367 4.754-3.402 4.714-3.434 4.673-3.467 4.631-3.499 4.587-3.529 4.545-3.56 4.499-3.588 4.453-3.617 4.407-3.644 4.36-3.671 4.311-3.697 4.262-3.721 4.212-3.746 4.161-3.768 4.109-3.79 4.058-3.812 4.004-3.832 3.95-3.851 3.895-3.869 3.84-3.887 3.784-3.903 3.727-3.919 3.669-3.933 3.611-3.947 3.552-3.959 3.493-3.971 3.432-3.982 3.372-3.99 3.31-4 3.249-4.007 3.185-4.013 3.123-4.019 3.059-4.023 2.995-4.027 2.93-4.029 2.865-4.03 2.8-4.031 2.733-4.03 2.667-4.028 2.6-4.026 2.533-4.021 2.465-4.017 2.397-4.01 2.329-4.004 2.259-3.995 2.191-3.986 2.121-3.976 2.052-3.965 1.982-3.953 1.911-3.939 1.842-3.925 1.77-3.909 1.7-3.892 1.629-3.876 1.558-3.856 1.486-3.837 1.415-3.816 1.344-3.794 1.272-3.772 1.2-3.748 1.129-3.723 1.057-3.697.985-3.67.913-3.642.842-3.614.77-3.583.698-3.552.627-3.521.555-3.487.484-3.454.413-3.419.341-3.383.27-3.346.2-3.308.129-3.27.059-3.23-.012-3.189-.081-3.148-.151-3.105-.22-3.062-.29-3.017-.358-2.972-.427-2.927-.495-2.879-.562-2.832-.63-2.782-.697-2.734-.764-2.683-.83-2.631-.895-2.58-.961-2.527-1.025-2.474-1.09-2.419-1.154-2.364-1.217-2.308-1.28-2.251-1.342-2.194-1.404-2.136-1.464-2.077-1.526-2.018-1.585-1.957-1.644-1.897-1.704-1.835-1.761-1.773-1.819-1.71-1.875-1.648-1.932-1.582-1.987-1.519-2.041-1.453-2.096-1.388-2.148-1.321-2.202-1.255-2.252-1.188-2.304-1.12-2.354-1.05-2.404-.983-2.452-.914-2.5-.844-2.547-.775-2.593-.703-2.638-.633-2.683-.563-2.726-.49-2.769-.419-2.811-.346-2.853-.274-2.892-.202-2.931-.129-2.97-.055-3.007.018-3.044.092-3.079.166-3.114.24-3.147.313-3.181.388-3.211.463-3.243.537-3.273.611-3.301.687-3.33.761-3.356.836-3.382.911-3.408.986-3.431 1.06-3.454 1.136-3.476 1.21-3.497 1.285-3.517 1.359-3.536 1.434-3.553 1.508-3.571 1.582-3.587 1.656-3.601 1.73-3.615 1.804-3.628 1.878-3.64 1.95-3.651 2.024-3.66 2.096-3.669 2.168-3.677 2.241-3.683 2.312-3.69 2.384-3.693 2.455-3.698 2.526-3.7 2.596-3.702 2.665-3.702 2.736-3.702 2.804-3.7 2.873-3.698 2.941-3.694 3.009-3.69 3.076-3.685 3.142-3.678 3.208-3.671 3.274-3.662 3.339-3.653 3.403-3.643 3.466-3.631 3.53-3.619 3.592-3.606 3.654-3.592 3.715-3.577 3.776-3.56 3.835-3.544 3.894-3.525 3.952-3.507 4.01-3.487 4.067-3.466 4.122-3.445 4.178-3.423 4.232-3.399 4.285-3.375 4.339-3.35 4.39-3.324 4.441-3.298 4.491-3.27 4.541-3.241 4.589-3.213 4.636-3.182 4.683-3.152 4.728-3.12 4.773-3.088 4.817-3.055 4.859-3.021 4.901-2.986 4.942-2.951 4.982-2.915 5.02-2.879 5.058-2.841 5.094-2.803 5.13-2.764 5.165-2.725 5.198-2.685 5.23-2.644 5.262-2.603 5.292-2.561 5.321-2.519 5.349-2.475 5.376-2.432 5.402-2.388 5.427-2.343 5.45-2.299 5.472-2.252 5.494-2.206 5.513-2.16 5.533-2.112 5.55-2.065 5.567-2.017 5.582-1.968 5.596-1.92 5.609-1.87 5.621-1.821 5.632-1.771 5.641-1.721 5.65-1.67 5.656-1.619 5.662-1.567 5.667-1.517 5.669-1.464 5.673-1.413 5.672-1.36 5.673-1.308 5.671-1.255 5.669-1.202 5.664-1.15 5.659-1.096 5.653-1.042 5.645-.989 5.636-.936 5.626-.882 5.615-.828 5.602-.775 5.588-.72 5.574-.667 5.557-.613 5.54-.559 5.521-.505 5.501-.451 5.48-.398 5.458-.343 5.435-.29 5.41-.237 5.384-.183 5.357-.13 5.329-.077 5.3-.023 5.269.029 5.237.081 5.205.134 5.171.187 5.135.238 5.1.29 5.062.341 5.023.393 4.984.443 4.943.494 4.902.545 4.858.594 4.815.643 4.77.693 4.723.741 4.677.79 4.628.838 4.579.886 4.529.932 4.477.979 4.426 1.025 4.372 1.071 4.318 1.117 4.264 1.16 4.207 1.205 4.15 1.249 4.092 1.292 4.033 1.334 3.973 1.376 3.913 1.418 3.852 1.458 3.789 1.499 3.726 1.538 3.662 1.578 3.596 1.615 3.532 1.653 3.465 1.69 3.397 1.727 3.33 1.762 3.261 1.797 3.192 1.831 3.121 1.865 3.051 1.898 2.978 1.929 2.907 1.962 2.834 1.991 2.761 2.022 2.686 2.05 2.612 2.079 2.536 2.107 2.46 2.133 2.384 2.159 2.307 2.184 2.23 2.209 2.152 2.232 2.073 2.254 1.994 2.277 1.915 2.297 1.835 2.318 1.755 2.337 1.674 2.355 1.594 2.373 1.511 2.39 1.431 2.405 1.348 2.421 1.266 2.434 1.183 2.448 1.101 2.46 1.017 2.471.935 2.482.85 2.492.767 2.5.683 2.508.599 2.515.515 2.521.43 2.527.346 2.53.262 2.534.177 2.536.092 2.537.008 2.538-.077 2.538-.161 2.536-.246 2.534-.33 2.531-.415 2.527-.499 2.523-.584 2.516-.667 2.509-.751 2.502-.836 2.493-.918 2.484-1.002 2.474-1.085 2.462-1.168 2.45-1.251 2.437-1.333 2.423-1.415 2.408-1.497 2.393-1.578 2.376-1.66 2.359-1.74 2.34-1.82 2.322-1.9 2.301-1.98 2.28-2.058 2.259-2.137 2.236-2.215 2.213-2.293 2.189-2.37 2.164-2.446 2.138-2.523 2.111-2.597 2.084-2.673 2.056-2.747 2.027-2.82 1.997-2.893 1.967-2.966 1.936-3.037 1.903-3.109 1.871-3.178 1.838-3.248 1.803-3.317 1.769-3.386 1.733-3.452 1.697-3.519 1.66-3.585 1.623-3.65 1.584-3.714 1.545-3.777 1.507-3.84 1.465-3.902 1.426-3.962 1.384-4.022 1.342-4.082 1.3-4.139 1.256-4.197 1.213-4.252 1.169-4.308 1.125-4.363 1.079-4.415 1.034-4.468.988-4.52.941-4.57.894-4.619.847-4.668.799-4.715.75-4.761.702-4.806.653-4.851.603-4.893.553-4.936.504-4.976.452-5.017.402-5.054.351-5.093.3-5.129.248-5.164.196-5.199.143-5.231.092-5.263.039-5.295-.014-5.323-.067-5.352-.12-5.38-.173-5.405-.227-5.43-.28-5.454-.334-5.476-.387-5.497-.442-5.518-.495-5.536-.549-5.554-.603-5.571-.656-5.585-.711-5.6-.764-5.613-.819-5.624-.872-5.634-.925-5.643-.98-5.652-1.033-5.658-1.086-5.663-1.139-5.668-1.192-5.671-1.246-5.672-1.298-5.673-1.35-5.673-1.403-5.67-1.455-5.667-1.507-5.663-1.558-5.658-1.61-5.65-1.66-5.643-1.712-5.634-1.761-5.623-1.812-5.611-1.861-5.599-1.911-5.585-1.959-5.57-2.008-5.553-2.056-5.536-2.104-5.517-2.15-5.498-2.198-5.476-2.244-5.454-2.29-5.431-2.335-5.406-2.379-5.381-2.424-5.355-2.468-5.326-2.51-5.297-2.554-5.268-2.595-5.236-2.637-5.204-2.677-5.171-2.718-5.137-2.756-5.101-2.796-5.065-2.834-5.027-2.872-4.989-2.908-4.949-2.945-4.909-2.98-4.867-3.014-4.825-3.049-4.781-3.082-4.736-3.114-4.692-3.146-4.645-3.177-4.597-3.206-4.55-3.237-4.5-3.265-4.451-3.292-4.4-3.319-4.348-3.346-4.295-3.37-4.242-3.395-4.188-3.418-4.133-3.441-4.077-3.462-4.02-3.484-3.963-3.503-3.905-3.522-3.846-3.54-3.787-3.558-3.726-3.573-3.665-3.589-3.604-3.604-3.541-3.616-3.479-3.629-3.414-3.641-3.351-3.651-3.286-3.661-3.221-3.669-3.154-3.677-3.088-3.684-3.021-3.689-2.954-3.693-2.886-3.698-2.817-3.7-2.748-3.701-2.679-3.703-2.609-3.702-2.538-3.7-2.468-3.698-2.397-3.694-2.326-3.691-2.254-3.684-2.182-3.678-2.11-3.671-2.036-3.662-1.964-3.653-1.891-3.642-1.818-3.63-1.744-3.617-1.67-3.605-1.596-3.589-1.521-3.574-1.448-3.556-1.373-3.54-1.299-3.52-1.224-3.501-1.149-3.48-1.074-3.458-1-3.436-.924-3.411-.85-3.387-.776-3.362-.7-3.334-.626-3.307-.55-3.278-.477-3.248-.402-3.218-.327-3.186-.254-3.154-.179-3.12-.105-3.086-.032-3.05.042-3.014.115-2.977.188-2.938.26-2.9.334-2.859.405-2.819.477-2.777.549-2.735.62-2.691.69-2.646.762-2.602.831-2.555.9-2.509.97-2.461 1.04-2.412 1.107-2.364 1.175-2.313 1.242-2.262 1.31-2.211 1.375-2.158 1.44-2.106 1.507-2.051 1.571-1.997 1.635-1.942 1.699-1.886 1.761-1.829 1.824-1.773 1.885-1.714 1.947-1.655 2.006-1.596 2.067-1.537 2.125-1.476 2.183-1.415 2.241-1.354 2.297-1.291 2.354-1.229 2.409-1.165 2.463-1.102 2.517-1.037 2.571-.973 2.622-.908 2.673-.842 2.724-.775 2.774-.71 2.823-.642 2.87-.575 2.918-.508 2.964-.439 3.009-.371 3.054-.302 3.097-.234 3.14-.164 3.181-.094 3.223-.024 3.262.045 3.301.116 3.339.187 3.376.257 3.413.329 3.447.399 3.481.471 3.515.542 3.546.613 3.578.685 3.608.757 3.637.828 3.665.9 3.692.972 3.718 1.044 3.744 1.115 3.767 1.187 3.79 1.259 3.812 1.33 3.833 1.402 3.853 1.473 3.872 1.545 3.89 1.615 3.906 1.687 3.922 1.758 3.936 1.828 3.95 1.898 3.963 1.969 3.974 2.039 3.985 2.108 3.993 2.178 4.002 2.247 4.01 2.316 4.015 2.384 4.021 2.453 4.024 2.52 4.028 2.588 4.03 2.654 4.031 2.721 4.03 2.788 4.03 2.853 4.027 2.918 4.024 2.983 4.02 3.047 4.014 3.111 4.008 3.174 4.001 3.237 3.993 3.299 3.983 3.36 3.972 3.421 3.962 3.482 3.949 3.541 3.936 3.6 3.921 3.659 3.907 3.716 3.89 3.773 3.872 3.83 3.855 3.885 3.835 3.94 3.816 3.994 3.794 4.047 3.773 4.1 3.749 4.152 3.726 4.203 3.702 4.252 3.675 4.303 3.65 4.35 3.622 4.398 3.594 4.445 3.564 4.491 3.536 4.536 3.504 4.58 3.473 4.623 3.44 4.665 3.408 4.706 3.373 4.747 3.339 4.786 3.304 4.824 3.267 4.862 3.23 4.898 3.193 4.934 3.154 4.968 3.115 5.001 3.075 5.033 3.035 5.065 2.994 5.095 2.952 5.124 2.909 5.152 2.866 5.179 2.823 5.205 2.778 5.23 2.734 5.254 2.687 5.276 2.642 5.297 2.596 5.318 2.548 5.337 2.5 5.355 2.453 5.372 2.404 5.388 2.354 5.402 2.305 5.416 2.255 5.428 2.205 5.439 2.154 5.449 2.102 5.458 2.051 5.466 1.999 5.472 1.947 5.477 1.893 5.481 1.841 5.484 1.787 5.485 1.734 5.486 1.68 5.485 1.626 5.483 1.571 5.48 1.517 5.476 1.461 5.47 1.407 5.463 1.352 5.455 1.296 5.446 1.24 5.436 1.185 5.424 1.129 5.411 1.073 5.397 1.017 5.382.962 5.366.904 5.348.849 5.329.793 5.309.737 5.288.68 5.266.624 5.242.569 5.217.512 5.191.456 5.165.401 5.136.344 5.107.289 5.076.234 5.045.178 5.012.124 4.978.068 4.942.013 4.907-.041 4.869-.095 4.831-.149 4.792-.204 4.75-.256 4.71-.31 4.666-.363 4.623-.415 4.577-.468 4.532-.52 4.485-.571 4.437-.622 4.388-.673 4.338-.723 4.287-.773 4.235-.823 4.182-.871 4.128-.92 4.073-.969 4.017-1.015 3.96-1.063 3.903-1.11 3.845-1.155 3.784-1.201 3.725-1.246 3.663-1.29 3.601-1.334 3.539-1.377 3.474-1.42 3.41-1.461 3.345-1.503 3.278-1.544 3.212-1.584 3.144-1.623 3.075-1.661 3.007-1.7 2.936-1.737 2.866-1.774 2.795-1.81 2.723-1.844 2.65-1.88 2.577-1.912 2.504-1.946 2.429-1.979 2.354-2.009 2.278-2.04 2.203-2.07 2.126-2.1 2.049-2.127 1.971-2.155 1.893-2.181 1.814-2.208 1.735-2.232 1.656-2.257 1.576-2.28 1.496-2.302 1.415-2.324 1.334-2.345 1.253-2.364 1.171-2.384 1.089-2.402 1.007-2.419.924-2.436.842-2.451.758-2.466.676-2.479.592-2.492.508-2.504.425-2.516.34-2.525.257-2.535.173-2.542.088-2.551.004-2.556-.08-2.563-.164-2.567-.249-2.57-.333-2.574-.417-2.575-.501-2.576-.586-2.577-.669-2.575-.754-2.574-.837-2.571-.921-2.568-1.004-2.563-1.088-2.557-1.171-2.551-1.254-2.544-1.336-2.536-1.419-2.527-1.5-2.517-1.583-2.506-1.664-2.494-1.745-2.482-1.826-2.469-1.907-2.453-1.986-2.439-2.067-2.423-2.145-2.406-2.224-2.387-2.303-2.37-2.38-2.349-2.457-2.33-2.535-2.308-2.611-2.286-2.686-2.264-2.762-2.24-2.836-2.215-2.91-2.19-2.984-2.164-3.056-2.137-3.129-2.11-3.2-2.082-3.27-2.052-3.341-2.022-3.41-1.992-3.479-1.961-3.547-1.928-3.613-1.896-3.68-1.863-3.746-1.828-3.811-1.793-3.874-1.759-3.938-1.721-3.999-1.686-4.062-1.647-4.121-1.61-4.182-1.571-4.24-1.532-4.298-1.492-4.355-1.451-4.411-1.411-4.466-1.369-4.52-1.327-4.573-1.285-4.626-1.241-4.676-1.198-4.726-1.153-4.776-1.109-4.824-1.064-4.87-1.018-4.917-.973-4.962-.926-5.005-.88-5.048-.832-5.09-.785-5.13-.737-5.17-.688-5.208-.64-5.246-.591-5.281-.542-5.317-.493-5.35-.442-5.383-.393-5.414-.342-5.445-.292-5.474-.241-5.502-.19-5.528-.139-5.555-.087-5.578-.036-5.602.015-5.624.068-5.644.119-5.664.171-5.683.223-5.7.275-5.715.327-5.73.379-5.744.432-5.756.484-5.767.536-5.776.588-5.785.64-5.793.692-5.798.744-5.803.796-5.807.848-5.809.899-5.81.951-5.81 1.002-5.809 1.054-5.806 1.104-5.802 1.155-5.796 1.205-5.791 1.256-5.783 1.306-5.774 1.356-5.764 1.405-5.753 1.454-5.741 1.503-5.727 1.552-5.712 1.6-5.696 1.648-5.678 1.696-5.66 1.742-5.641 1.79-5.619 1.835-5.598 1.882-5.574 1.926-5.55 1.972-5.524 2.017-5.498 2.06-5.47 2.104-5.441 2.147-5.411 2.189-5.38 2.231-5.347 2.273-5.314 2.314-5.28 2.353-5.243 2.394-5.207 2.432-5.17 2.471-5.13 2.508-5.091 2.546-5.05 2.582-5.007 2.618-4.965 2.653-4.921 2.687-4.876 2.722-4.83 2.754-4.783 2.787-4.735 2.818-4.686 2.849-4.637 2.879-4.585 2.908-4.535 2.937-4.481 2.964-4.429 2.992-4.374 3.017-4.319 3.043-4.263 3.068-4.206 3.091-4.148 3.114-4.091 3.135-4.03 3.157-3.971 3.177-3.911 3.197-3.848 3.215-3.787 3.232-3.723 3.249-3.661 3.265-3.595 3.28-3.531 3.294-3.465 3.307-3.399 3.318-3.332 3.331-3.264 3.34-3.196 3.349-3.128 3.358-3.059 3.366-2.988 3.371-2.919 3.377-2.848 3.382-2.776 3.385-2.705 3.388-2.633 3.389-2.56 3.39-2.487 3.389-2.413 3.389-2.34 3.385-2.266 3.383-2.191 3.378-2.117 3.372-2.041 3.367-1.966 3.359-1.89 3.351-1.814 3.341-1.738 3.332-1.662 3.319-1.585 3.308-1.508 3.295-1.431 3.28-1.354 3.265-1.277 3.248-1.2 3.232-1.122 3.213-1.044 3.194-.967 3.174-.89 3.153-.812 3.131-.734 3.108-.657 3.083-.579 3.059-.501 3.033-.424 3.006-.347 2.978-.27 2.949-.192 2.92-.115 2.889-.039 2.857.038 2.825.115 2.792.19 2.757.267 2.722.342 2.686.418 2.649.493 2.611.568 2.573.643 2.533.716 2.493.79 2.451.865 2.41.937 2.366 1.01 2.323 1.081 2.278 1.154 2.233 1.225 2.187 1.297 2.14 1.366 2.092 1.437 2.044 1.506 1.995 1.574 1.945 1.644 1.895 1.71 1.843 1.778 1.791 1.845 1.739 1.91 1.685 1.977 1.631 2.04 1.577 2.105 1.521 2.168 1.466 2.23 1.408 2.294 1.352 2.354 1.295 2.414 1.235 2.475 1.178 2.534 1.117 2.592 1.058 2.649.998 2.707.936 2.762.876 2.818.813 2.872.751 2.925.689 2.979.625 3.03.562 3.081.497 3.131.434 3.18.369 3.229.304 3.276.238 3.322.173 3.368.106 3.413.041 3.456-.026 3.5-.093 3.541-.16 3.581-.227 3.622-.295 3.66-.362 3.699-.43 3.735-.497 3.771-.566 3.806-.634 3.84-.703 3.872-.77 3.904-.839 3.935-.908 3.965-.976 3.994-1.045 4.021-1.113 4.047-1.181 4.073-1.25 4.098-1.318 4.121-1.387 4.143-1.455 4.164-1.523 4.185-1.591 4.204-1.659 4.221-1.726 4.239-1.794 4.254-1.861 4.269-1.929 4.283-1.995 4.295-2.062 4.307-2.128 4.317-2.194 4.327-2.26 4.334-2.326 4.342-2.39 4.348-2.456 4.353-2.52 4.357-2.583 4.359-2.648 4.361-2.711 4.362-2.773 4.362-2.836 4.36-2.897 4.357-2.959 4.354-3.02 4.349-3.081 4.343-3.14 4.336-3.199 4.329-3.258 4.319-3.316 4.31-3.374 4.298-3.431 4.287-3.487 4.273-3.543 4.259-3.597 4.245-3.652 4.228-3.706 4.211-3.759 4.193-3.811 4.174-3.863 4.153-3.913 4.133-3.963 4.111-4.013 4.088-4.061 4.064-4.109 4.039-4.155 4.013-4.202 3.987-4.247 3.959-4.292 3.93-4.334 3.901-4.378 3.871-4.419 3.84-4.46 3.807-4.5 3.775-4.54 3.741-4.577 3.706-4.614 3.672-4.651 3.635-4.686 3.598-4.72 3.56-4.753 3.522-4.786 3.482-4.817 3.443-4.847 3.401-4.876 3.36-4.905 3.318-4.932 3.276-4.958 3.231-4.983 3.187-5.007 3.143-5.03 3.097-5.052 3.05-5.073 3.004-5.092 2.957-5.111 2.908-5.129 2.86-5.144 2.811-5.16 2.761-5.174 2.711-5.187 2.66-5.199 2.609-5.21 2.558-5.219 2.505-5.228 2.453-5.235 2.399-5.241 2.346-5.246 2.292-5.249 2.238-5.253 2.184-5.253 2.128-5.254 2.073-5.253 2.017-5.251 1.961-5.248 1.905-5.243 1.848-5.238 1.791-5.231 1.735-5.223 1.677-5.214 1.619-5.203 1.562-5.192 1.504-5.179 1.445-5.166 1.388-5.15 1.329-5.134 1.27-5.116 1.212-5.099 1.153-5.078 1.094-5.057 1.036-5.036.977-5.012.918-4.988.859-4.962.8-4.936.741-4.907.682-4.879.624-4.849.565-4.817.507-4.786.448-4.751.389-4.717.332-4.682.273-4.645.216-4.606.158-4.568.1-4.528.044-4.487-.014-4.445-.071-4.401-.127-4.357-.183-4.312-.239-4.266-.295-4.219-.35-4.17-.404-4.12-.46-4.071-.514-4.019-.567-3.967-.621-3.914-.674-3.86-.726-3.804-.778-3.749-.831-3.692-.881-3.634-.932-3.575-.982-3.516-1.032-3.455-1.081-3.394-1.13-3.332-1.178-3.27-1.225-3.205-1.272-3.14-1.319-3.077-1.364-3.01-1.41-2.942-1.454-2.875-1.498-2.807-1.541-2.738-1.584-2.669-1.625-2.598-1.667-2.527-1.707-2.456-1.748-2.383-1.786-2.31-1.825-2.237-1.862-2.163-1.899-2.088-1.936-2.013-1.971-1.938-2.005-1.861-2.04-1.784-2.072-1.708-2.105-1.63-2.136-1.55-2.167-1.474-2.197-1.394-2.226L11 555.271l-1.235-2.281-1.155-2.308-1.075-2.334-.993-2.359-.913-2.382-.831-2.406-.75-2.427-.668-2.45-.585-2.469-.504-2.489-.42-2.508-.34-2.526-.254-2.542-.173-2.559-.09-2.573-.005-2.588.077-2.601.16-2.613.244-2.625.327-2.635.41-2.644.495-2.654.577-2.661.661-2.668.744-2.673.828-2.679.91-2.683.993-2.685 1.076-2.688 1.16-2.689 1.24-2.69 1.324-2.689 1.405-2.687 1.488-2.685 1.568-2.681 1.65-2.677 1.732-2.672 1.811-2.666 1.893-2.658 1.972-2.651 2.052-2.642 2.13-2.632 2.21-2.622 2.289-2.61 2.366-2.597 2.444-2.585 2.52-2.57 2.598-2.555 2.674-2.539 2.749-2.522 2.824-2.505 2.898-2.486 2.973-2.467 3.045-2.447 3.118-2.425 3.19-2.404 3.262-2.381 3.332-2.358 3.403-2.334 3.472-2.308 3.54-2.283 3.608-2.256 3.676-2.229 3.742-2.201 3.807-2.172 3.872-2.142 3.937-2.112 4-2.081 4.062-2.049 4.123-2.016 4.185-1.984 4.244-1.95 4.304-1.915 4.361-1.88 4.418-1.844 4.475-1.808 4.53-1.77 4.585-1.733 4.638-1.695 4.69-1.656 4.742-1.617 4.792-1.576 4.841-1.536 4.89-1.495 4.938-1.453 4.983-1.411 5.029-1.369 5.073-1.325 5.117-1.282 5.158-1.238 5.2-1.193 5.239-1.148 5.278-1.103 5.316-1.057 5.352-1.011 5.388-.965 5.421-.917 5.455-.87 5.487-.823 5.518-.775 5.547-.727 5.576-.678 5.603-.629 5.629-.581 5.654-.531 5.678-.481 5.7-.432 5.721-.382 5.741-.332 5.761-.281 5.777-.231 5.794-.181 5.81-.13 5.823-.079 5.835-.028 5.847.023 5.858.073 5.866.125 5.874.176 5.88.227 5.886.279 5.89.329 5.892.38 5.893.432 5.894.482 5.893.533 5.891.584 5.887.635 5.882.685 5.876.736 5.869.786 5.86.836 5.851.886 5.839.935 5.828.985 5.814 1.034 5.799 1.083 5.783 1.132 5.767 1.18 5.747 1.229 5.729 1.276 5.708 1.324 5.685 1.371 5.663 1.418 5.638 1.464 5.613 1.51 5.586 1.556 5.558 1.601 5.53 1.646 5.499 1.69 5.468 1.734 5.435 1.778 5.402 1.82 5.368 1.863 5.331 1.905 5.295 1.947 5.256 1.987 5.218 2.028 5.177 2.067 5.137 2.107 5.093 2.146 5.051 2.183 5.006 2.221 4.961 2.257 4.915 2.294 4.867 2.329 4.819 2.365 4.769 2.398 4.72 2.432 4.667 2.464 4.616 2.497 4.563 2.528 4.508 2.559 4.454 2.588 4.397 2.618 4.341 2.646 4.284 2.674 4.225 2.701 4.165 2.727 4.106 2.752 4.045 2.776 3.983 2.801 3.92 2.823 3.858 2.845 3.793 2.866 3.729 2.887 3.663 2.906 3.597 2.925 3.53 2.943 3.463 2.959 3.395 2.976 3.326 2.99 3.256 3.005 3.187 3.018 3.116 3.031 3.045 3.042 2.973 3.053 2.901 3.062 2.828 3.072 2.755 3.079 2.681 3.086 2.607 3.091 2.532 3.097 2.457 3.101 2.382 3.105 2.306 3.106 2.229 3.107 2.153 3.108 2.076 3.107 1.999 3.106 1.92 3.102 1.843 3.1 1.765 3.094 1.687 3.089 1.607 3.083 1.529 3.075 1.45 3.067 1.371 3.058 1.291 3.047 1.211 3.036 1.132 3.023 1.052 3.011.973 2.996.892 2.981.812 2.965.733 2.948.652 2.93.572 2.911.492 2.891.413 2.87.332 2.848.252 2.826.173 2.802.094 2.777.013 2.752-.065 2.726-.145 2.698-.223 2.67-.303 2.641-.381 2.611-.459 2.58-.537 2.548-.615 2.515-.692 2.482-.769 2.448-.847 2.412-.922 2.376-.999 2.339-1.074 2.302-1.15 2.263-1.224 2.223-1.299 2.183-1.373 2.143-1.447 2.1-1.519 2.058-1.592 2.015-1.664 1.97-1.736 1.926-1.806 1.88-1.877 1.834-1.947 1.787-2.015 1.739-2.085 1.691-2.152 1.641-2.22 1.592-2.286 1.542-2.352 1.49-2.418 1.439-2.482 1.387-2.546 1.333-2.609 1.281-2.672 1.226-2.733 1.171-2.794 1.116-2.854 1.061-2.914 1.004-2.972.947-3.03.89-3.087.833-3.143.774-3.198.715-3.252.656-3.306.597-3.358.537-3.41.476-3.46.416-3.511.354-3.559.293-3.608.231-3.654.169-3.7.106-3.746.044-3.789-.019-3.833-.083-3.875-.146-3.916-.21-3.956-.273-3.995-.338-4.033-.403-4.07-.466-4.107-.532-4.141-.596-4.175-.661-4.208-.726-4.24-.791-4.27-.856-4.3-.922-4.329-.986-4.356-1.052-4.382-1.117-4.408-1.182-4.432-1.247-4.455-1.312-4.478-1.377-4.498-1.442-4.517-1.507-4.537-1.572-4.554-1.636-4.57-1.7-4.586-1.764-4.6-1.829-4.613-1.892-4.625-1.956-4.636-2.019-4.646-2.083-4.654-2.145-4.662-2.207-4.668-2.27-4.673-2.331-4.678-2.393-4.68-2.454-4.683-2.515-4.683-2.575-4.683-2.635-4.681-2.695-4.679-2.753-4.675-2.813-4.671-2.87-4.665-2.928-4.657-2.985-4.65-3.042-4.641-3.098-4.63-3.154-4.62-3.208-4.607-3.263-4.593-3.316-4.58-3.37-4.563-3.422-4.547-3.474-4.53-3.525-4.511-3.576-4.492-3.626-4.471-3.675-4.449-3.723-4.426-3.772-4.403-3.818-4.379-3.864-4.352-3.91-4.327-3.954-4.298-3.998-4.271-4.042-4.24-4.083-4.211-4.126-4.179-4.165-4.147-4.206-4.114-4.244-4.081-4.282-4.045-4.319-4.01-4.356-3.973-4.39-3.935-4.425-3.898-4.459-3.858-4.491-3.819-4.522-3.778-4.553-3.736-4.583-3.695-4.611-3.651-4.638-3.608-4.666-3.563-4.691-3.518-4.715-3.472-4.739-3.426-4.761-3.378-4.783-3.331-4.803-3.281-4.823-3.233-4.841-3.183-4.858-3.132-4.874-3.082-4.89-3.029-4.903-2.978-4.916-2.925-4.928-2.872-4.938-2.817-4.948-2.764-4.956-2.709-4.964-2.653-4.97-2.598-4.975-2.542-4.979-2.485-4.981-2.428-4.984-2.371-4.983-2.313-4.984-2.255-4.981-2.196-4.978-2.138-4.975-2.078-4.969-2.019-4.963-1.959-4.955-1.9-4.946-1.839-4.937-1.779-4.926-1.718-4.913-1.657-4.901-1.596-4.885-1.536-4.871-1.473-4.853-1.412-4.836-1.351-4.816-1.289-4.797-1.227-4.775-1.165-4.753-1.104-4.729-1.041-4.704-.98-4.679-.917-4.652-.856-4.623-.794-4.595-.732-4.564-.67-4.533-.609-4.5-.547-4.467-.485-4.432-.424-4.397-.363-4.359-.302-4.322-.242-4.283-.18-4.243-.12-4.202-.06-4.16v-4.116l.059-4.073.12-4.028.178-3.981.237-3.935.295-3.886.354-3.838.411-3.787.469-3.736.526-3.685.582-3.632.639-3.578.695-3.523.749-3.468.805-3.411.859-3.354.914-3.296.966-3.237 1.02-3.177 1.072-3.116 1.123-3.055 1.175-2.993 1.226-2.93 1.276-2.865 1.326-2.801 1.375-2.736 1.423-2.67 1.471-2.602 1.517-2.535 1.565-2.468 1.61-2.398 1.655-2.329 1.7-2.259 1.743-2.188 1.787-2.116 1.829-2.044 1.87-1.973 1.911-1.898 1.952-1.826 1.99-1.75 2.03-1.677 2.067-1.601 2.104-1.525 2.141-1.45 2.176-1.372 2.21-1.296 2.245-1.218 2.277-1.14 2.31-1.063 2.34-.983 2.372-.905 2.401-.825 2.429-.746 2.458-.666 2.485-.586 2.51-.505 2.536-.425 2.561-.344 2.584-.263 2.606-.182 2.628-.1 2.649-.02 2.669.063 2.688.144 2.705.226 2.723.308 2.739.39 2.754.472 2.768.554 2.782.636 2.794.718 2.806.8 2.816.881 2.826.964 2.835 1.045 2.842 1.127 2.849 1.208 2.855 1.289 2.859 1.37 2.864 1.452 2.867 1.532 2.868 1.612 2.87 1.693 2.87 1.772 2.869 1.852 2.868 1.932 2.865 2.01 2.861 2.09 2.857 2.167 2.851 2.246 2.845 2.323 2.838 2.4 2.83 2.477 2.82 2.553 2.811 2.63 2.8 2.703 2.787 2.78 2.776 2.853 2.761 2.927 2.747 3 2.732 3.074 2.716 3.145 2.698 3.216 2.681 3.287 2.662 3.358 2.642 3.427 2.622 3.496 2.6 3.564 2.578 3.632 2.556 3.698 2.531 3.765 2.507 3.829 2.482 3.895 2.456 3.958 2.428 4.021 2.401 4.083 2.373 4.144 2.344 4.205 2.313 4.265 2.283 4.323 2.252 4.381 2.22 4.439 2.187 4.494 2.153 4.55 2.12 4.603 2.084 4.658 2.05 4.709 2.013 4.761 1.976 4.811 1.94 4.861 1.901 4.909 1.863 4.957 1.824 5.003 1.784 5.048 1.744 5.093 1.704 5.136 1.662 5.178 1.62 5.219 1.578 5.259 1.536 5.298 1.492 5.336 1.448 5.372 1.405 5.408 1.36 5.443 1.314 5.476 1.27 5.508 1.223 5.539 1.178 5.568 1.13 5.598 1.084 5.625 1.037 5.651.989 5.676.942 5.701.893 5.723.844 5.744.797 5.765.747 5.784.698 5.802.649 5.818.599 5.834.549 5.848.5 5.861.449 5.873.399 5.883.349 5.892.298 5.901.248 5.907.197 5.913.147 5.916.096 5.92.045 5.922-.006 5.922-.056 5.921-.107 5.919-.158 5.917-.208 5.911-.26 5.906-.309 5.898-.36 5.891-.411 5.881-.46 5.87-.511 5.858-.56 5.845-.61 5.831-.66 5.815-.709 5.798-.758 5.779-.807 5.761-.855 5.74-.904 5.718-.952 5.695-1 5.671-1.047 5.645-1.095 5.619-1.141 5.591-1.188 5.562-1.233 5.533-1.28 5.501-1.325 5.468-1.369 5.435-1.414 5.4-1.459 5.365-1.501 5.327-1.545 5.29-1.588 5.25-1.63 5.21-1.671 5.169-1.712 5.126-1.753 5.083-1.794 5.039-1.832 4.992-1.872 4.947-1.91 4.898-1.947 4.85-1.985 4.8-2.021 4.75-2.058 4.698-2.092 4.645-2.127 4.592-2.161 4.537-2.194 4.482-2.227 4.426-2.259 4.369-2.29 4.31-2.32 4.252-2.35 4.191-2.379 4.131-2.408 4.069-2.434 4.007-2.462 3.944-2.487 3.88-2.513 3.816-2.537 3.749-2.56 3.684-2.583 3.617-2.606 3.549-2.626 3.481-2.647 3.411-2.666 3.342-2.684 3.272-2.703 3.201-2.719 3.129-2.735 3.057-2.751 2.984-2.764 2.911-2.778 2.837-2.791 2.762-2.802 2.688-2.813 2.612-2.823 2.536-2.831 2.46-2.84 2.383-2.846 2.306-2.853 2.229-2.858 2.15-2.862 2.072-2.866 1.993-2.868 1.914-2.869 1.834-2.87 1.755-2.87 1.675-2.868 1.594-2.866 1.514-2.863 1.434-2.859 1.352-2.853 1.271-2.848 1.19-2.841 1.109-2.832 1.027-2.824.945-2.814.864-2.803.781-2.792.7-2.779.618-2.765.535-2.751.454-2.735.372-2.719.29-2.702.208-2.683.126-2.665.044-2.644-.037-2.623-.118-2.602-.2-2.579-.281-2.555-.363-2.53-.442-2.505-.524-2.479-.603-2.452-.684-2.423-.764-2.394-.843-2.365-.922-2.334-1.001-2.303-1.079-2.27-1.158-2.237-1.235-2.202-1.313-2.169-1.39-2.132-1.466-2.096-1.542-2.059-1.618-2.021-1.693-1.982-1.768-1.943-1.841-1.902-1.915-1.861-1.988-1.82-2.061-1.777-2.133-1.733-2.203-1.69-2.274-1.646-2.345-1.6-2.413-1.554-2.483-1.507-2.55-1.46-2.618-1.413-2.684-1.364-2.751-1.314-2.815-1.265-2.88-1.215-2.944-1.164-3.006-1.112-3.069-1.06-3.13-1.008-3.19-.955-3.25-.901-3.309-.847-3.367-.793-3.424-.737-3.48-.683-3.535-.626-3.59-.57-3.644-.513-3.696-.456-3.748-.399-3.798-.34-3.849-.283-3.897-.224-3.945-.165-3.992-.106-4.038-.046-4.082.013-4.127.073-4.169.134-4.211.194-4.252.254-4.292.316-4.33.376-4.368.438-4.404.499-4.44.561-4.475.622-4.507.684-4.54.746-4.571.807-4.601.87-4.63.931-4.658.994-4.684 1.055-4.71 1.117-4.735 1.179-4.758 1.241-4.78 1.303-4.801 1.364-4.821 1.426-4.839 1.487-4.858 1.549-4.873 1.609-4.89 1.671-4.903 1.732-4.916 1.792-4.928 1.853-4.939 1.912-4.949 1.973-4.957 2.032-4.964 2.092-4.971 2.151-4.975 2.209-4.979 2.268-4.982 2.326-4.983 2.383-4.984 2.441-4.983 2.498-4.981 2.554-4.978 2.61-4.974 2.666-4.969 2.721-4.962 2.775-4.955 2.83-4.946 2.884-4.936 2.936-4.925 2.99-4.913 3.041-4.901 3.093-4.886 3.143-4.87 3.194-4.855 3.244-4.837 3.293-4.818 3.341-4.799 3.389-4.778 3.436-4.757 3.482-4.733 3.528-4.711 3.574-4.685 3.617-4.659 3.661-4.633 3.704-4.605 3.745-4.576 3.787-4.546 3.828-4.516 3.867-4.483 3.906-4.451 3.944-4.418 3.982-4.383 4.017-4.347 4.053-4.311 4.088-4.274 4.122-4.236 4.154-4.197 4.186-4.156 4.218-4.116 4.247-4.075 4.277-4.031 4.305-3.989 4.332-3.945 4.358-3.899 4.384-3.855 4.409-3.807 4.431-3.761 4.454-3.712 4.476-3.665 4.496-3.614 4.515-3.565 4.534-3.514 4.551-3.463 4.567-3.41 4.582-3.358 4.597-3.305 4.61-3.251 4.622-3.196 4.633-3.141 4.642-3.085 4.652-3.03 4.66-2.972 4.666-2.916 4.671-2.857 4.676-2.799 4.68-2.741 4.682-2.681 4.683-2.622 4.683-2.562 4.682-2.501 4.68-2.441 4.677-2.379 4.672-2.318 4.667-2.256 4.66-2.193 4.652-2.131 4.644-2.069 4.634-2.005 4.622-1.942 4.61-1.878 4.597-1.814 4.583-1.75 4.567-1.687 4.55-1.621 4.532-1.557 4.514-1.493 4.493-1.428 4.473-1.362 4.45-1.298 4.427-1.233 4.402-1.167 4.377-1.103 4.35-1.037 4.322-.972 4.294-.907 4.263-.842 4.233-.776 4.201-.712 4.168-.646 4.133-.582 4.099-.517 4.062-.453 4.024-.388 3.987-.323 3.947-.26 3.907-.195 3.866-.132 3.823-.069 3.78-.005 3.735.057 3.691.121 3.643.183 3.597.244 3.549.307 3.499.368 3.45.429 3.398.49 3.347.55 3.294.61 3.24.669 3.186.729 3.131.787 3.074.845 3.017.903 2.959.96 2.9 1.017 2.842 1.073 2.78 1.128 2.72 1.184 2.658 1.238 2.595 1.292 2.532 1.345 2.468 1.398 2.403 1.451 2.337 1.502 2.272 1.552 2.205 1.604 2.137 1.652 2.069 1.702 2.001 1.75 1.931 1.797 1.861 1.844 1.791 1.89 1.719 1.936 1.648 1.981 1.576 2.024 1.504 2.067 1.43 2.11 1.356 2.152 1.283 2.192 1.208 2.232 1.133 2.272 1.057 2.31.982 2.347.906 2.384.829 2.42.752 2.456.676 2.489.597 2.523.52 2.555.442 2.587.363 2.618.285 2.647.206 2.676.127 2.705.048 2.731-.031 2.758-.111 2.783-.191 2.807-.27 2.831-.35 2.853-.43 2.875-.51 2.896-.59 2.915-.67 2.934-.75 2.952-.83 2.968-.91 2.985-.99 2.999-1.07 3.013-1.15 3.027-1.229 3.038-1.309 3.05-1.388 3.06-1.467 3.068-1.547 3.077-1.625 3.085-1.704 3.09-1.782 3.096-1.86 3.1-1.939 3.103-2.015 3.106-2.093 3.108-2.17 3.107-2.247 3.108-2.322 3.106-2.399 3.103-2.474 3.1-2.549 3.096-2.623 3.091-2.698 3.084-2.771 3.078-2.844 3.069-2.917 3.06-2.989 3.051-3.061 3.04-3.132 3.028-3.202 3.015-3.272 3.002-3.341 2.987-3.41 2.972-3.478 2.956-3.545 2.939-3.612 2.92-3.678 2.902-3.743 2.883-3.807 2.861-3.872 2.841-3.934 2.818-3.997 2.795-4.058 2.771-4.119 2.747-4.179 2.721-4.238 2.695-4.297 2.667-4.353 2.64-4.41 2.612-4.466 2.582-4.521 2.552-4.574 2.521-4.628 2.49-4.679 2.457-4.73 2.424-4.781 2.391-4.83 2.356-4.877 2.322-4.925 2.286-4.971 2.249-5.016 2.213-5.061 2.175-5.103 2.137-5.146 2.098-5.186 2.058-5.226 2.019-5.266 1.979-5.303 1.937-5.339 1.896-5.375 1.853-5.41 1.811-5.442 1.768-5.475 1.725-5.506 1.68-5.536 1.636-5.565 1.591-5.592 1.546-5.619 1.5-5.643 1.454-5.668 1.407-5.691 1.361-5.712 1.313-5.733 1.266-5.752 1.217-5.77 1.17-5.787 1.121-5.803 1.072-5.817 1.024-5.83.974-5.842.924-5.853.875-5.863.825-5.87.775-5.878.724-5.883.674-5.888.623-5.891.573-5.893.522-5.894.471-5.894.42-5.891.369-5.889.318-5.885.267-5.879.216-5.872.165-5.865.113-5.855.063-5.844.011-5.833-.039-5.821-.091-5.806-.141-5.79-.192-5.774-.242-5.756-.293-5.737-.343-5.717-.393-5.695-.443-5.672-.492-5.649-.542-5.623-.592-5.597-.64-5.57-.689-5.541-.737-5.511-.786-5.48-.833-5.447-.881-5.415-.928-5.38-.975-5.344-1.021-5.307-1.067-5.27-1.113-5.23-1.159-5.191-1.203-5.149-1.247-5.107-1.292-5.063-1.335-5.019-1.378-4.974-1.42-4.927-1.463-4.879-1.504-4.831-1.545-4.781-1.585-4.73-1.625-4.679-1.665-4.626-1.703-4.572-1.742-4.518-1.779-4.463-1.816-4.405-1.852-4.349-1.888-4.29-1.923-4.231-1.957-4.171-1.991-4.111-2.024-4.048-2.056-3.986-2.088-3.922-2.118-3.858-2.149-3.793-2.179-3.727-2.207-3.66-2.235-3.594-2.262-3.525-2.288-3.457-2.314-3.386-2.34-3.317-2.363-3.246-2.386-3.174-2.409-3.102-2.43-3.03-2.451-2.956-2.472-2.882-2.49-2.807-2.509-2.733-2.526-2.656-2.543-2.58-2.558-2.505-2.573-2.426-2.588-2.35-2.6-2.27-2.613-2.192-2.624-2.114-2.634-2.034-2.644-1.954-2.653-1.875-2.66-1.794-2.667-1.713-2.673-1.632-2.678-1.55-2.683-1.47-2.685-1.387-2.688-1.306-2.689-1.222-2.689-1.14-2.689-1.058-2.687-.975-2.686-.892-2.681-.81-2.678-.725-2.673-.642-2.666-.559-2.659-.476-2.652-.392-2.643-.308-2.632-.226-2.623-.142-2.61-.058-2.598.024-2.585.108-2.57.191-2.555.274-2.539.357-2.522.439-2.503.522-2.485.604-2.465.686-2.445.767-2.423.85-2.4.93-2.378 1.012-2.353 1.092-2.328 1.173-2.302 1.253-2.275 1.332-2.248 1.412-2.22 1.49-2.19 1.569-2.16 1.647-2.13 1.724-2.097 1.802-2.065 1.878-2.032 1.954-1.998 2.03-1.963 2.105-1.928 2.18-1.891 2.252-1.854 2.327-1.816 2.4-1.778 2.47-1.738 2.544-1.699 2.614-1.658 2.683-1.616 2.754-1.574 2.822-1.532 2.89-1.488 2.958-1.444 3.025-1.4 3.09-1.354 3.155-1.308 3.22-1.262 3.283-1.215 3.346-1.167 3.408-1.119 3.469-1.07 3.529-1.021 3.588-.972 3.647-.92 3.704-.87 3.762-.819 3.817-.767 3.871-.715 3.926-.662 3.979-.609 4.03-.556 4.082-.501 4.132-.447 4.181-.393 4.229-.338 4.276-.282 4.322-.227 4.367-.171 4.412-.114 4.454-.058 4.496-.001 4.537.056 4.576.113 4.616.171 4.653.228 4.689.286 4.725.345 4.759.403 4.793.461 4.824.519 4.856.578 4.885.637 4.914.695 4.942.755 4.968.813 4.993.872 5.017.931 5.041.99 5.062 1.048 5.083 1.108 5.102 1.166 5.121 1.225 5.137 1.283 5.154 1.342 5.169 1.4 5.182 1.459 5.194 1.517 5.206 1.574 5.216 1.632 5.225 1.69 5.232 1.747 5.239 1.804 5.245 1.861 5.248 1.917 5.252 1.974 5.253 2.03 5.254 2.085 5.254 2.14 5.252 2.196 5.249 2.25 5.244 2.304 5.24 2.358 5.233 2.411 5.226 2.464 5.218 2.517 5.207 2.569 5.196 2.621 5.185 2.671 5.171 2.722 5.156 2.773 5.142 2.821 5.124 2.871 5.107 2.919 5.088 2.967 5.068 3.015 5.047 3.061 5.026 3.107 5.001 3.152 4.978 3.197 4.952 3.242 4.926 3.284 4.899 3.328 4.87 3.369 4.841 3.411 4.81 3.451 4.778 3.492 4.746 3.53 4.713 3.569 4.678 3.606 4.643 3.643 4.606 3.679 4.569 3.714 4.53 3.749 4.491 3.782 4.452 3.815 4.41 3.847 4.368 3.877 4.325 3.908 4.282 3.937 4.237 3.965 4.191 3.993 4.146 4.019 4.098 4.044 4.05 4.07 4.002 4.093 3.952 4.115 3.903 4.138 3.851 4.158 3.799 4.178 3.747 4.197 3.694 4.215 3.64 4.232 3.586 4.248 3.53 4.262 3.475 4.277 3.418 4.289 3.361 4.301 3.303 4.312 3.246 4.322 3.186 4.33 3.127 4.338 3.066 4.344 3.007 4.35 2.945 4.355 2.884 4.358 2.822 4.36 2.76 4.362 2.696 4.362 2.634 4.361 2.569 4.359 2.506 4.356 2.441 4.351 2.376 4.347 2.311 4.34 2.246 4.333 2.179 4.325 2.114 4.315 2.047 4.304 1.98 4.293 1.914 4.28 1.846 4.266 1.779 4.251 1.712 4.234 1.643 4.218 1.576 4.2 1.508 4.18 1.44 4.16 1.371 4.138 1.303 4.116 1.235 4.092 1.167 4.067 1.097 4.042 1.03 4.015.96 3.987.893 3.959.824 3.928.755 3.897.687 3.866.619 3.832.551 3.798.483 3.763.414 3.727.348 3.69.279 3.652.212 3.613.145 3.573.078 3.532.012 3.489-.056 3.447-.121 3.403-.187 3.358-.253 3.313-.318 3.265-.384 3.218-.447 3.17-.512 3.12-.576 3.069-.64 3.019-.702 2.967-.765 2.913-.827 2.86-.889 2.806-.95 2.75-1.011 2.694-1.072 2.636-1.131 2.58-1.19 2.52-1.249 2.462-1.307 2.401-1.364 2.341-1.422 2.279-1.478 2.217-1.534 2.154-1.588 2.09-1.644 2.027-1.697 1.961-1.75 1.896-1.803 1.83-1.855 1.763-1.905 1.696-1.956 1.628-2.006 1.559-2.055 1.491-2.103 1.421-2.151 1.351-2.197 1.28-2.243 1.21-2.288 1.138-2.333 1.066-2.376.993-2.418.921-2.461.848-2.502.774-2.542.7-2.581.626-2.62.551-2.657.477-2.694.401-2.73.325-2.765.25-2.799.174-2.833.098-2.864.021-2.896-.056-2.926-.133-2.956-.209-2.984-.287-3.012-.364-3.039-.441-3.064-.519-3.089-.596-3.113-.674-3.136-.751-3.158-.829-3.178-.907-3.199-.984-3.217-1.062-3.236-1.139-3.252-1.217-3.268-1.294-3.284-1.371-3.297-1.449-3.311-1.525-3.322-1.602-3.334-1.678-3.343-1.755-3.353-1.831-3.361-1.907-3.368-1.983-3.374-2.058-3.379-2.133-3.383-2.208-3.387-2.282-3.388-2.356-3.39-2.43-3.39-2.504-3.389-2.576-3.387-2.649-3.384-2.72-3.381-2.793-3.376-2.863-3.37-2.935-3.364-3.004-3.356-3.074-3.348-3.143-3.338-3.211-3.327-3.28-3.317-3.347-3.304-3.413-3.291-3.48-3.276-3.545-3.262-3.61-3.245-3.674-3.229-3.738-3.211-3.8-3.192-3.863-3.173-3.923-3.152-3.985-3.131-4.044-3.109-4.103-3.085-4.161-3.062-4.219-3.038-4.276-3.012-4.331-2.985-4.386-2.959-4.44-2.93-4.494-2.902-4.546-2.873-4.597-2.842-4.647-2.811-4.698-2.779-4.745-2.747-4.794-2.714-4.84-2.68-4.886-2.645-4.931-2.611-4.974-2.574-5.017-2.537-5.059-2.5-5.1-2.463-5.139-2.423-5.178-2.385-5.215-2.345-5.252-2.304-5.287-2.264-5.322-2.222-5.354-2.18-5.387-2.137-5.418-2.094-5.447-2.051-5.476-2.006-5.504-1.962-5.53-1.917-5.556-1.871-5.579-1.826-5.603-1.779-5.624-1.732-5.645-1.685-5.664-1.637-5.683-1.589-5.7-1.542-5.715-1.492-5.73-1.443-5.743-1.395-5.756-1.344-5.766-1.295-5.777-1.245-5.784-1.194-5.792-1.144-5.799-1.093-5.803-1.042-5.806-.99-5.809-.94-5.81-.888-5.81-.836-5.809-.784-5.806-.733-5.802-.681-5.797-.628-5.791-.577-5.784-.524-5.774-.472-5.765-.42-5.753-.368-5.741-.316-5.727-.263-5.712-.212-5.696-.159-5.678-.108-5.66-.056-5.64-.004-5.619.048-5.597.099-5.573.15-5.549.202-5.523.252-5.495.303-5.468.353-5.438.404-5.407.454-5.376.503-5.343.553-5.309.602-5.273.651-5.238.699-5.199.747-5.162.796-5.121.843-5.081.889-5.039.937-4.995.983-4.952 1.028-4.906 1.074-4.861 1.119-4.813 1.164-4.765 1.207-4.715 1.251-4.665 1.294-4.614 1.336-4.562 1.379-4.508 1.419-4.454 1.461-4.398 1.501-4.343 1.54-4.285 1.58-4.227 1.618-4.168 1.656-4.109 1.694-4.047 1.73-3.986 1.766-3.924 1.801-3.86 1.836-3.797 1.87-3.73 1.903-3.666 1.936-3.599 1.967-3.532 1.999-3.463 2.029-3.395 2.059-3.325 2.088-3.255 2.116-3.184 2.143-3.113 2.17-3.04 2.196-2.968 2.221-2.894 2.245-2.82 2.268-2.744 2.292-2.67 2.313-2.594 2.334-2.517 2.354-2.44 2.373-2.364 2.392-2.285 2.41-2.206 2.426-2.128 2.442-2.049 2.457-1.969 2.472-1.888 2.484-1.808 2.497-1.728 2.509-1.646 2.519-1.564 2.529-1.483 2.538-1.4 2.546-1.318 2.552-1.236 2.559-1.152 2.564-1.07 2.568-.985 2.572-.902 2.574-.82 2.576-.734 2.577-.65 2.576-.568 2.575-.482 2.573-.399 2.57-.314 2.566-.23 2.561-.146L466.681 1l2.549.023 2.541.107 2.532.191 2.524.276 2.512.36 2.502.442 2.49.527 2.476.61 2.463.695 2.447.777 2.432.86 2.416.942 2.398 1.025 2.379 1.108 2.361 1.189 2.34 1.27 2.319 1.353 2.298 1.433 2.274 1.514 2.252 1.593 2.227 1.674 2.201 1.753 2.176 1.832 2.149 1.91 2.121 1.988 2.093 2.066 2.063 2.143 2.034 2.22 2.002 2.295 1.971 2.37 1.939 2.446 1.906 2.52 1.871 2.594 1.837 2.666 1.802 2.74 1.766 2.81 1.729 2.882 1.691 2.952 1.653 3.021 1.614 3.091 1.575 3.16 1.535 3.226 1.494 3.293 1.452 3.36 1.41 3.424 1.368 3.488 1.324 3.553 1.281 3.615 1.236 3.677 1.19 3.738 1.146 3.798 1.099 3.857 1.052 3.916 1.006 3.973.957 4.03.91 4.085.86 4.14.812 4.194.762 4.246.712 4.299.662 4.349.611 4.399.559 4.447.508 4.496.456 4.542.404 4.588.351 4.632.298 4.676.245 4.719.191 4.759.138 4.801.083 4.839.029 4.878-.026 4.915-.08 4.951-.135 4.985-.191 5.019-.246 5.052-.301 5.083-.357 5.114-.413 5.142-.469 5.171-.525 5.197-.58 5.223-.637 5.247-.693 5.271-.749 5.293-.805 5.313-.862 5.334-.917 5.352-.974 5.369-1.029 5.385-1.086 5.401-1.141 5.414-1.198 5.427-1.252 5.438-1.309 5.448-1.364 5.457-1.418 5.465-1.474 5.471-1.529 5.477-1.584 5.481-1.637 5.483-1.692 5.486-1.746 5.486-1.799 5.485-1.853 5.483-1.905 5.481-1.958 5.476-2.011 5.47-2.062 5.464-2.114 5.456-2.165 5.447-2.216 5.437-2.266 5.425-2.316 5.413-2.366 5.399-2.414 5.385-2.464 5.368-2.511 5.351-2.559 5.333-2.605 5.313-2.652 5.293-2.698 5.271-2.744 5.249-2.788 5.224-2.832 5.199-2.876 5.174-2.919 5.146-2.961 5.117-3.003 5.089-3.044 5.058-3.084 5.026-3.124 4.994-3.163 4.96-3.201 4.926-3.238 4.89-3.276 4.854-3.311 4.816-3.347 4.777-3.381 4.738-3.415 4.697-3.448 4.656-3.48 4.614-3.511 4.57-3.541 4.526-3.572 4.48-3.6 4.435-3.628 4.388-3.656 4.34-3.681 4.291-3.707 4.241-3.731 4.192-3.755 4.14-3.777 4.089-3.8 4.035-3.819 3.982-3.84 3.928-3.859 3.873-3.877 3.817-3.893 3.761-3.91 3.703-3.925 3.646-3.939 3.587-3.952 3.528-3.964 3.468-3.975 3.408-3.985 3.347-3.995 3.285-4.002 3.223-4.01 3.16-4.016 3.097-4.02 3.033-4.025 2.969-4.028 2.903-4.03 2.839-4.03 2.772-4.031 2.707-4.029 2.639-4.028 2.573-4.023 2.505-4.02 2.438-4.014 2.369-4.008 2.3-4 2.232-3.992 2.163-3.982 2.093-3.972 2.023-3.96 1.953-3.947 1.883-3.933 1.812-3.919 1.742-3.902 1.671-3.886 1.6-3.868 1.529-3.848 1.457-3.829 1.386-3.807 1.315-3.786 1.243-3.762 1.171-3.737 1.099-3.713 1.028-3.686.956-3.659.884-3.631.812-3.601.741-3.571.669-3.539.598-3.508.526-3.473.455-3.44.383-3.404.313-3.368.241-3.331.171-3.293.101-3.253.03-3.214-.04-3.172-.11-3.131-.179-3.087-.249-3.044-.318-2.999-.386-2.954-.454-2.907-.523-2.86-.59-2.812-.657-2.763-.724-2.713-.791-2.662-.857-2.611-.922-2.558-.987-2.505-1.052-2.452-1.116-2.396-1.179-2.342-1.243-2.285-1.305-2.228-1.367-2.17-1.429-2.112-1.489-2.053-1.55-1.994-1.61-1.932-1.668-1.872-1.727-1.81-1.785-1.748-1.842-1.684-1.898-1.621-1.954-1.557-2.01-1.492-2.063-1.426-2.118-1.361-2.17-1.294-2.222-1.228-2.274-1.16-2.324-1.092-2.374-1.023-2.424-.955-2.471-.886-2.519-.815-2.566-.746-2.612-.675-2.656-.604-2.701-.533-2.744-.461-2.787-.39-2.827-.317-2.869-.244-2.908-.172-2.947-.099-2.986-.025-3.022.048-3.058.121-3.093.196-3.128.27-3.161.344-3.193.418-3.225.493-3.255.568-3.284.642-3.313.717-3.341.792-3.367.866-3.392.942-3.417 1.016-3.441 1.09-3.463 1.167-3.485 1.24-3.505 1.315-3.525 1.39-3.543 1.464-3.561 1.538-3.577 1.613-3.593 1.686-3.607 1.76-3.621 1.834-3.632 1.907-3.645 1.981-3.655 2.053-3.664 2.125-3.672 2.198-3.68 2.27-3.686 2.342-3.691 2.412-3.695 2.484-3.699 2.555-3.701 2.624-3.702 2.694-3.702 2.764-3.701 2.832-3.7 2.901-3.696 2.969-3.693 3.036-3.688 3.103-3.682 3.169-3.675 3.235-3.668 3.3-3.659 3.365-3.648 3.429-3.639 3.493-3.626 3.555-3.614 3.617-3.6 3.679-3.586 3.74-3.57 3.8-3.554 3.859-3.536 3.918-3.518 3.976-3.499 4.033-3.479 4.089-3.457 4.145-3.436 4.2-3.413 4.254-3.39 4.307-3.365 4.36-3.339 4.411-3.314 4.462-3.286 4.511-3.259 4.56-3.229 4.609-3.201 4.655-3.17 4.702-3.139 4.746-3.107 4.791-3.074 4.834-3.041 4.877-3.007 4.918-2.972 4.958-2.937 4.997-2.9 5.036-2.863 5.072-2.826 5.11-2.787 5.144-2.749 5.178-2.708 5.212-2.669 5.243-2.627 5.274-2.586 5.304-2.544 5.333-2.501 5.36-2.458 5.387-2.414 5.412-2.37 5.436-2.325 5.459-2.28 5.481-2.233 5.502-2.187 5.522-2.141 5.539-2.093 5.558-2.045 5.573-1.998 5.588-1.948 5.601-1.9 5.615-1.85 5.625-1.801 5.636-1.75 5.645-1.7 5.652-1.649 5.659-1.598 5.664-1.547 5.668-1.496 5.671-1.443 5.672-1.391 5.673-1.339 5.672-1.287 5.671-1.233 5.667-1.181 5.662-1.127 5.657-1.075 5.649-1.021 5.642-.967 5.632-.914 5.622-.86 5.609-.806 5.597-.753 5.583-.698 5.566-.645 5.551-.591 5.532-.537 5.513-.483 5.493-.429 5.471-.376 5.449-.322 5.425-.268 5.399-.215 5.374-.162 5.345-.108 5.318-.055 5.287-.002 5.256.05 5.225.104 5.191.155 5.156.208 5.121.259 5.084.311 5.047.362 5.007.413 4.968.465 4.926.514 4.884.565 4.841.614 4.796.663 4.751.713 4.705.761 4.657.81 4.608.857 4.559.905 4.508.951 4.457.998 4.404 1.044 4.35 1.09 4.296 1.134 4.24 1.179 4.184 1.223 4.127 1.266 4.068 1.309 4.009 1.352 3.949 1.393 3.888 1.434 3.826 1.475 3.763 1.515 3.7 1.554 3.636 1.593 3.57 1.631 3.504 1.668 3.438 1.705 3.37 1.741 3.302 1.777 3.233 1.811 3.163 1.845 3.092 1.878 3.022 1.911 2.949 1.943 2.878 1.973 2.804 2.004 2.73 2.034 2.656 2.062 2.581 2.09 2.505 2.117 2.43 2.144 2.352 2.17 2.276 2.194 2.198 2.218 2.12 2.241 2.041 2.264 1.962 2.285 1.882 2.306 1.803 2.326 1.722 2.344 1.641 2.363 1.56 2.379 1.479 2.397 1.397 2.411 1.315 2.427 1.232 2.44 1.15 2.452 1.066 2.465.984 2.476.9 2.486.817 2.495.732 2.504.649 2.511.565 2.518.48 2.523.396 2.528.312 2.532.227 2.534.143 2.537.057 2.538"/><defs><linearGradient id="paint0_linear_68_82" x1="13" x2="997" y1="174.5" y2="614.5" gradientUnits="userSpaceOnUse"><stop stop-color="#F2E8E4"/><stop offset="1" stop-color="#F2E8E4" stop-opacity="0"/></linearGradient></defs></svg>