<svg xmlns="http://www.w3.org/2000/svg" fill="none" viewBox="0 0 957 959"><path stroke="#47667F" stroke-width="2" d="M955.919 479.136l-.102 3.934-.307 3.937-.511 3.94-.715 3.947-.918 3.956-1.12 3.966-1.322 3.978-1.522 3.993-1.722 4.009-1.919 4.028-2.115 4.048-2.31 4.07-2.502 4.093-2.692 4.12-2.881 4.147-3.066 4.175-3.25 4.206-3.43 4.237-3.608 4.271-3.783 4.306-3.955 4.341-4.123 4.377-4.289 4.416-4.451 4.454-4.608 4.494-4.764 4.533-4.914 4.575-5.061 4.616-5.204 4.658-5.343 4.699-5.478 4.742-5.608 4.784-5.734 4.826-5.855 4.867-5.973 4.91-6.086 4.95-6.193 4.991-6.297 5.03-6.396 5.07-6.49 5.107-6.578 5.145-6.664 5.179-6.743 5.215-6.817 5.247-6.888 5.278-6.952 5.308-7.013 5.335-7.068 5.362-7.119 5.384-7.164 5.407-117.052 87.165-7.245 5.325-7.213 5.289-7.176 5.249-7.138 5.204-7.095 5.157-7.049 5.104-7 5.047-6.948 4.987-6.893 4.922-6.836 4.852-6.776 4.78-6.714 4.701-6.649 4.62-6.581 4.534-6.513 4.443-6.442 4.349-6.369 4.249-6.294 4.147-6.219 4.039-6.141 3.928-6.063 3.813-5.983 3.693-5.902 3.569-5.821 3.442-5.739 3.311-5.656 3.175-5.573 3.037-5.49 2.893-5.406 2.748-5.323 2.598-5.239 2.444-5.155 2.288-5.073 2.128-4.991 1.966-4.908 1.799-4.827 1.631-4.747 1.46-4.668 1.285-4.589 1.109-4.511.929-4.436.749-4.361.564-4.287.38-4.215.192-4.146.004-4.076-.187-4.01-.379-3.944-.572-3.881-.766-3.82-.961-3.761-1.157-3.703-1.353-3.648-1.55-3.594-1.746-3.544-1.944-3.495-2.141-3.448-2.338-3.403-2.533-3.362-2.73-3.322-2.925-3.284-3.118-3.248-3.312-3.216-3.503-3.184-3.694-3.156-3.882-3.13-4.069-3.105-4.254-3.083-4.437-3.063-4.618-3.046-4.796-3.029-4.972-3.016-5.145-3.004-5.315-2.993-5.482-2.986-5.647-2.979-5.807-2.974-5.965-2.972-6.118-2.969-6.269-2.97-6.415-2.97-6.558-2.974-6.696-2.977-6.831-2.982-6.96-2.987-7.087-2.995-7.207-3.002-7.325-3.01-7.436-3.019-7.544-3.028-7.647-3.038-7.744-3.047-7.837-3.058-7.925-3.068-8.008-3.078-8.086-3.087-8.158-3.097-8.226-3.106-8.287-3.114-8.345-3.122-8.397-52.995-145.593-3.008-8.441-2.98-8.398-2.95-8.349-2.918-8.295-2.881-8.238-2.842-8.176-2.8-8.111-2.755-8.042-2.707-7.967-2.654-7.89-2.599-7.81-2.54-7.725-2.479-7.638-2.413-7.546-2.344-7.453-2.27-7.355-2.196-7.255-2.115-7.153-2.032-7.048-1.946-6.94-1.855-6.831-1.76-6.718-1.664-6.605-1.562-6.489-1.458-6.371-1.35-6.252-1.238-6.132-1.123-6.011-1.005-5.888-.883-5.764-.758-5.639-.63-5.515-.5-5.389-.364-5.263-.228-5.137-.087-5.011.056-4.885.201-4.759.35-4.633.502-4.508.654-4.384.81-4.26.968-4.137 1.129-4.015 1.29-3.894 1.454-3.775 1.62-3.656 1.787-3.54 1.956-3.424 2.126-3.311 2.297-3.199 2.47-3.088 2.642-2.981 2.817-2.874 2.99-2.771 3.167-2.668 3.341-2.569 3.517-2.472 3.692-2.376 3.867-2.284 4.042-2.194 4.217-2.106 4.39-2.021 4.563-1.939 4.735-1.858 4.906-1.782 5.075-1.707 5.243-1.635 5.409-1.566 5.574-1.499 5.737-1.435 5.896-1.375 6.055-1.315 6.211-1.26 6.364-1.207 6.515-1.156 6.662-1.108 6.806-1.062 6.948-1.02 7.086-.979 7.221-.941 7.351-.905 7.479-.872 7.603-.84 7.722-.811 7.838-.785 7.949-.759 8.056-.736 8.158-.715 8.256-.696 8.35-.678 8.439-.661 8.523-.647 8.602-.634 8.675-.622 8.745-.611 8.809-.602 8.868-.593 8.922-.585 8.969-.578 145.697-8.474 8.966-.464 8.918-.452 8.864-.437 8.806-.422 8.742-.404 8.674-.385 8.6-.364 8.522-.342 8.44-.317 8.352-.289 8.261-.261 8.164-.23 8.064-.196 7.96-.161 7.851-.122 7.739-.081 7.622-.039 7.503.008 7.379.057 7.252.108 7.123.162 6.989.219 6.853.279 6.714.341 6.573.407 6.429.475 6.282.547 6.133.621 5.983.698 5.83.778 5.675.86 5.52.947 5.362 1.035 5.203 1.127 5.044 1.222 4.882 1.318 4.722 1.418 4.558 1.521 4.396 1.626 4.233 1.734 4.07 1.845 3.907 1.957 3.743 2.073 3.581 2.19 3.418 2.31 3.256 2.431 3.095 2.556 2.936 2.682 2.775 2.81 2.618 2.94 2.461 3.071 2.306 3.204 2.151 3.338 2 3.474 1.849 3.611 1.701 3.749 1.554 3.889 1.41 4.027 1.267 4.169 1.128 4.31.991 4.451.856 4.593.723 4.735.594 4.877.467 5.019.343 5.16.222 5.301.104 5.442-.012 5.582-.123 5.721-.232 5.858-.338 5.995-.44 6.13-.54 6.264-.636 6.397-.729 6.526-.818 6.655-.904 6.781-.988 6.905-1.067 7.026-1.143 7.146-1.216 7.262-1.286 7.375-1.353 7.486-1.415 7.593-1.476 7.697-1.533 7.798-1.587 7.895-1.638 7.988-1.685 8.078-1.73 8.164-1.772 8.246-1.812 8.324-1.847 8.397-1.881 8.466-1.912 8.531-1.941 8.591-1.967 8.647-1.99 8.697-2.012 8.744-35.759 150.752-2.125 8.691-2.124 8.638-2.122 8.579-2.121 8.514-2.119 8.446-2.118 8.371-2.117 8.292-2.117 8.207-2.118 8.117-2.118 8.023-2.121 7.924-2.123 7.82-2.128 7.711-2.132 7.598-2.139 7.479-2.147 7.358-2.156 7.231-2.166 7.1-2.179 6.966-2.193 6.827-2.208 6.684-2.226 6.538-2.245 6.389-2.267 6.235-2.29 6.078-2.316 5.919-2.343 5.757-2.373 5.59-2.406 5.422-2.439 5.252-2.477 5.078-2.515 4.903-2.557 4.725-2.6 4.546-2.647 4.364-2.695 4.181-2.745 3.997-2.8 3.812-2.854 3.624-2.913 3.437-2.974 3.248-3.036 3.059-3.101 2.869-3.169 2.68-3.238 2.49-3.311 2.299-3.384 2.11-3.46 1.921-3.539 1.731-3.619 1.544-3.701 1.356-3.785 1.169-3.87.985-3.959.801-4.047.618-4.138.438-4.23.258-4.323.082-4.418-.094-4.514-.267-4.611-.437-4.709-.606-4.807-.772-4.907-.934-5.006-1.095-5.106-1.253-5.208-1.407-5.308-1.559-5.409-1.707-5.51-1.851-5.611-1.994-5.71-2.132-5.811-2.267-5.91-2.398-6.009-2.525-6.106-2.649-6.203-2.77-6.298-2.885-6.392-2.999-6.485-3.107-6.576-3.211-6.665-3.313-6.753-3.409-6.838-3.502-6.921-3.591-7.003-3.676-7.081-3.756-7.157-3.834-7.23-3.906-7.3-3.975-7.368-4.041-7.433-4.101-7.493-4.159-7.551-4.213-7.606-4.261-7.657-4.308-7.703-4.35-7.747-4.388-7.786-4.424-134.186-77.459-7.733-4.534-7.684-4.519-7.63-4.5-7.571-4.481-7.507-4.46-7.438-4.438-7.364-4.415-7.284-4.39-7.201-4.366-7.111-4.34-7.017-4.313-6.918-4.287-6.815-4.259-6.707-4.232-6.593-4.204-6.476-4.177-6.353-4.149-6.227-4.121-6.096-4.095-5.96-4.067-5.821-4.042-5.677-4.017-5.53-3.991-5.377-3.968-5.223-3.946-5.063-3.923-4.901-3.903-4.735-3.883-4.566-3.866-4.393-3.849-4.218-3.834-4.039-3.82-3.858-3.808-3.675-3.798-3.489-3.79-3.3-3.782-3.11-3.778-2.917-3.776-2.723-3.774-2.526-3.775-2.33-3.779-2.13-3.783-1.931-3.791-1.73-3.801-1.528-3.811-1.326-3.826-1.122-3.841-.92-3.859-.716-3.879-.513-3.901-.31-3.925L1 525.972l.095-3.98.297-4.01.497-4.043.697-4.077.895-4.113 1.093-4.151 1.288-4.191 1.481-4.233 1.674-4.276 1.864-4.321 2.052-4.367 2.237-4.415 2.42-4.464 2.601-4.514 2.78-4.567 2.953-4.619 3.127-4.673 3.295-4.727 3.46-4.784 3.624-4.839 3.782-4.896 3.938-4.954 4.09-5.011 4.237-5.069 4.382-5.128 4.522-5.185 4.658-5.243 4.79-5.301 4.919-5.358 5.042-5.416 5.161-5.471 5.276-5.527 5.387-5.582 5.493-5.635 5.595-5.687 5.692-5.739 5.784-5.789 5.872-5.837 5.955-5.883 6.034-5.929 6.108-5.971 6.178-6.012 6.242-6.051 6.302-6.087 6.358-6.121 6.409-6.152 6.456-6.181 6.497-6.207 106.158-100.149 6.572-6.121 6.543-6.081 6.512-6.036 6.477-5.987 6.439-5.933 6.4-5.874 6.357-5.811 6.312-5.745 6.265-5.672 6.215-5.596 6.163-5.515 6.111-5.43 6.055-5.34 5.998-5.246 5.939-5.146 5.88-5.044 5.819-4.936 5.756-4.824 5.694-4.707 5.629-4.588 5.565-4.462 5.499-4.334 5.433-4.2 5.367-4.063 5.301-3.923 5.235-3.778 5.168-3.63 5.102-3.476 5.036-3.322 4.97-3.162 4.905-3 4.841-2.833 4.777-2.665 4.715-2.493 4.652-2.318 4.592-2.14 4.532-1.96 4.474-1.778 4.417-1.592 4.361-1.405 4.306-1.215 4.254-1.025 4.203-.831 4.154-.637 4.107-.44 4.06-.244 4.017-.044 3.975.154 3.935.355 3.897.556 3.862.758 3.828.959 3.796 1.16 3.767 1.364 3.739 1.564 3.714 1.765 3.691 1.967 3.671 2.166 3.652 2.365 3.635 2.563 3.621 2.76 3.608 2.956 3.599 3.15 3.59 3.342 3.584 3.531 3.58 3.72 3.578 3.907 3.577 4.09 3.579 4.271 3.583 4.45 3.587 4.626 3.594 4.798 3.603 4.968 3.612 5.135 3.623 5.298 3.636 5.457 3.65 5.614 3.665 5.766 3.681 5.914 3.698 6.059 3.717 6.2 3.734 6.336 3.755 6.468 3.774 6.595 3.795 6.719 3.815 6.837 3.837 6.952 3.858 7.061 3.879 7.165 3.9 7.265 3.921 7.36 3.941 7.45 3.962 7.535 3.981 7.615 4 7.69 4.017 7.76 4.035 7.825 4.05 7.884 4.065 7.939 4.079 7.988 69.516 138.466 3.96 8.026 3.927 7.985 3.892 7.939 3.851 7.889 3.808 7.836 3.762 7.778 3.711 7.717 3.658 7.652 3.599 7.584 3.539 7.513 3.473 7.438 3.404 7.36 3.332 7.28 3.255 7.196 3.175 7.111 3.091 7.022 3.002 6.931 2.911 6.838 2.815 6.743 2.715 6.645 2.612 6.547 2.505 6.446 2.393 6.344 2.279 6.24 2.161 6.135 2.039 6.03 1.913 5.923 1.785 5.815 1.651 5.707 1.516 5.599 1.377 5.489 1.234 5.379 1.088 5.271.94 5.161.788 5.051.633 4.943.477 4.834.316 4.725.153 4.619-.011 4.512-.179 4.407-.348 4.301-.52 4.199-.693 4.096-.869 3.995-1.046 3.896-1.225 3.798-1.404 3.702-1.586 3.607-1.768 3.515-1.951 3.423-2.136 3.335-2.32 3.248-2.505 3.163-2.691 3.081-2.876 3-3.062 2.923-3.247 2.846-3.433 2.773-3.617 2.701-3.801 2.634-3.985 2.566-4.166 2.503-4.348 2.442-4.527 2.383-4.705 2.327-4.882 2.272-5.057 2.222-5.23 2.172-5.4 2.126-5.568 2.082-5.734 2.041-5.898 2.001-6.058 1.964-6.216 1.93-6.37 1.898-6.522 1.867-6.67 1.839-6.815 1.814-6.955 1.79-7.093 1.768-7.227 1.748-7.356 1.73-7.481 1.714-7.602 1.699-7.72 1.686-7.832 1.675-7.939 1.664-8.043 1.656-8.142 1.647-8.235 1.642-8.324 1.636-8.409 1.631-8.487 1.627-8.561 1.624-8.63 1.622-8.693 1.62-8.752 1.618-8.804 1.616-152.58 26.923-8.842 1.498-8.794 1.48-8.741 1.458-8.684 1.436-8.622 1.411-8.555 1.383-8.483 1.353-8.408 1.321-8.327 1.287-8.243 1.249-8.154 1.208-8.062 1.167-7.965 1.12-7.864 1.073-7.76 1.021-7.653.967-7.541.909-7.427.85-7.309.786-7.189.719-7.065.65-6.939.578-6.81.501-6.679.423-6.546.34-6.409.255-6.273.166-6.132.075-5.992-.02-5.849-.118-5.704-.219-5.56-.323-5.413-.43-5.266-.54-5.118-.653-4.97-.769-4.82-.887-4.671-1.009-4.522-1.133-4.372-1.259-4.223-1.389-4.075-1.52-3.925-1.654-3.778-1.79-3.63-1.929-3.484-2.069-3.339-2.211-3.194-2.356-3.051-2.501-2.91-2.649-2.77-2.798-2.631-2.949-2.494-3.099-2.36-3.253-2.226-3.406-2.095-3.561-1.967-3.717-1.839-3.872-1.716-4.028-1.593-4.184-1.475-4.341-1.357-4.498-1.243-4.654-1.131-4.809-1.022-4.966-.917-5.12-.813-5.274-.712-5.427-.616-5.58-.52-5.729-.43-5.879-.341-6.027-.255-6.173-.173-6.316-.093-6.458-.017-6.598.056-6.735.126-6.871.194-7.002.258-7.131.32-7.258.377-7.381.434-7.502.485-7.617.536-7.732.583-7.84.627-7.946.668-8.049.708-8.146.744-8.24.778-8.329.81-8.414.839-8.496.866-8.571.891-8.643.914-8.71.934-8.772.954-8.828.971-8.882.986-8.928 16.941-144.956 1.099-8.917 1.103-8.868 1.108-8.813 1.113-8.753 1.12-8.689 1.126-8.618 1.133-8.543 1.143-8.463 1.152-8.378 1.163-8.288 1.176-8.194 1.189-8.093 1.205-7.99 1.222-7.881 1.24-7.768 1.261-7.651 1.283-7.53 1.308-7.404 1.333-7.274 1.362-7.142 1.392-7.004 1.425-6.864 1.46-6.72 1.497-6.572 1.537-6.423 1.578-6.268 1.623-6.113 1.67-5.953 1.72-5.792 1.771-5.629 1.826-5.461 1.883-5.294 1.943-5.123 2.005-4.952 2.07-4.778 2.137-4.602 2.207-4.427 2.28-4.249 2.355-4.07 2.432-3.891 2.512-3.712 2.595-3.53 2.68-3.351 2.767-3.17 2.856-2.989 2.948-2.808 3.042-2.628 3.138-2.449 3.237-2.269 3.336-2.09 3.438-1.914 3.542-1.738 3.647-1.562 3.754-1.389 3.863-1.216 3.973-1.046 4.084-.878 4.197-.71 4.31-.547 4.425-.383 4.54-.224 4.657-.066 4.773.09 4.891.242 5.008.392 5.126.54 5.244.683 5.361.824 5.48.962 5.597 1.098 5.713 1.228 5.83 1.358 5.946 1.482 6.06 1.603 6.174 1.722 6.286 1.836 6.397 1.947 6.507 2.054 6.614 2.158 6.721 2.258 6.825 2.355 6.927 2.446 7.027 2.536 7.124 2.621 7.22 2.702 7.312 2.78 7.401 2.855 7.488 2.924 7.572 2.992 7.653 3.054 7.729 3.114 7.804 3.17 7.874 3.223 7.94 3.271 8.003 3.317 8.062 3.359 8.116 3.398 8.168 3.434 8.214 3.467 8.256 3.495 142.26 61.381 8.197 3.604 8.144 3.593 8.088 3.581 8.026 3.569 7.959 3.555 7.886 3.542 7.808 3.526 7.726 3.512 7.639 3.497 7.546 3.482 7.448 3.466 7.346 3.451 7.239 3.436 7.127 3.422 7.01 3.407 6.89 3.393 6.763 3.381 6.634 3.368 6.499 3.356 6.361 3.346 6.219 3.337 6.072 3.328 5.921 3.322 5.768 3.315 5.609 3.312 5.449 3.308 5.283 3.308 5.116 3.308 4.945 3.31 4.771 3.313 4.595 3.32 4.415 3.327 4.234 3.337 4.049 3.349 3.863 3.362 3.675 3.378 3.485 3.396 3.292 3.415 3.1 3.438 2.904 3.462 2.708 3.489 2.512 3.517 2.313 3.548 2.115 3.582 1.916 3.616 1.716 3.654 1.516 3.694 1.317 3.736 1.117 3.78.918 3.825.719 3.874.521 3.924.323 3.976.127 4.03-.068 4.085-.262 4.144-.455 4.202-.645 4.264-.835 4.327-1.022 4.39-1.207 4.456-1.391 4.523-1.571 4.591-1.749 4.661-1.925 4.73-2.097 4.802-2.268 4.875-2.435 4.947-2.599 5.021-2.76 5.095-2.917 5.169-3.071 5.244-3.222 5.319-3.368 5.394-3.512 5.469-3.651 5.543-3.787 5.618-3.919 5.692-4.046 5.765-4.17 5.837-4.289 5.909-4.405 5.98-4.515 6.049-4.623 6.117-4.725 6.184-4.823 6.249-4.917 6.313-5.007 6.375-5.092 6.434-5.172 6.492-5.249 6.547-5.321 6.6-5.388 6.651-5.451 6.699-5.511 6.745-5.565 6.787-5.615 6.826-5.661 6.862-5.703 6.896-99.571 118.704-5.811 6.834-5.788 6.789-5.76 6.74-5.732 6.685-5.7 6.627-5.667 6.563-5.631 6.494-5.594 6.422-5.555 6.343-5.514 6.261-5.472 6.174-5.429 6.081-5.384 5.985-5.338 5.883-5.292 5.778-5.243 5.667-5.196 5.552-5.147 5.432-5.097 5.309-5.048 5.181-4.997 5.048-4.948 4.911-4.898 4.772-4.848 4.626-4.799 4.478-4.749 4.325-4.701 4.17-4.653 4.01-4.606 3.847-4.559 3.68-4.514 3.511-4.469 3.337-4.426 3.162-4.384 2.983-4.343 2.802-4.304 2.617-4.265 2.431-4.229 2.243-4.195 2.051-4.161 1.859-4.129 1.663-4.1 1.467-4.072 1.27-4.046 1.07-4.023.869-4 .668-3.98.466-3.962.262-3.947.058-3.932-.145-3.921-.35-3.911-.554-3.904-.758-3.899-.961-3.895-1.165-3.894-1.368-3.895-1.569-3.898-1.771-3.903-1.97-3.91-2.168-3.919-2.365-3.929-2.56-3.943-2.754-3.957-2.945-3.974-3.134-3.992-3.321-4.012-3.505-4.033-3.688-4.056-3.866-4.08-4.043-4.106-4.217-4.133-4.386-4.161-4.554-4.191-4.716-4.221-4.877-4.252-5.033-4.284-5.186-4.317-5.335-4.35-5.479-4.385-5.62-4.418-5.756-4.453-5.889-4.487-6.016-4.522-6.14-4.557-6.259-4.591-6.373-4.626-6.484-4.659-6.588-4.692-6.689-4.724-6.784-4.756-6.875-4.786-6.961-4.816-7.041-4.845-7.119-4.871-7.189-4.897-7.255-4.921-7.316-4.943-7.373-4.964-7.424-4.982-7.471-80.204-121.929-4.892-7.539-4.857-7.504-4.819-7.466-4.777-7.424-4.731-7.379-4.68-7.329-4.627-7.277-4.569-7.221-4.507-7.162-4.44-7.101-4.371-7.036-4.296-6.97-4.218-6.899-4.136-6.828-4.049-6.753-3.958-6.676-3.863-6.598-3.765-6.518-3.661-6.435-3.555-6.352-3.443-6.266-3.328-6.179-3.21-6.092-3.085-6.003-2.96-5.914-2.829-5.823-2.694-5.732-2.557-5.64-2.415-5.548-2.27-5.456-2.123-5.364-1.97-5.271-1.815-5.18-1.658-5.088-1.496-4.996-1.332-4.906-1.166-4.815-.996-4.726-.824-4.638-.65-4.55-.472-4.464-.294-4.378-.113-4.295.07-4.212.255-4.131.44-4.051.63-3.974.817-3.898 1.008-3.823 1.199-3.751 1.391-3.68 1.584-3.612 1.777-3.546 1.97-3.481 2.165-3.419 2.358-3.359 2.552-3.301 2.745-3.246 2.938-3.192 3.13-3.141 3.322-3.093 3.513-3.046 3.702-3.003 3.89-2.961 4.075-2.921 4.261-2.884 4.445-2.85 4.625-2.817 4.805-2.787 4.98-2.758 5.156-2.733 5.328-2.71 5.496-2.687 5.662-2.669 5.825-2.65 5.986-2.635 6.141-2.622 6.295-2.609 6.445-2.599 6.59-2.591 6.732-2.584 6.87-2.578 7.005-2.575 7.134-2.572 7.259-2.57 7.38-2.571 7.497-2.571 7.61-2.573 7.716-2.575 7.819-2.579 7.916-2.583 8.01-2.587 8.097-2.592 8.18-2.598 8.258-2.603 8.33-2.608 8.398-2.614 8.46-2.619 8.517-2.624 8.569-2.629 148.43-44.43 8.599-2.509 8.552-2.485 8.501-2.457 8.446-2.427 8.386-2.395 8.321-2.359 8.254-2.32 8.181-2.278 8.104-2.235 8.024-2.186 7.939-2.136 7.852-2.082 7.76-2.025 7.665-1.964 7.567-1.9 7.466-1.834 7.361-1.763 7.254-1.689 7.143-1.611 7.032-1.531 6.916-1.447 6.798-1.36 6.679-1.267 6.558-1.174L645.936 82l6.308-.975 6.182-.87 6.054-.761 5.924-.65 5.794-.537 5.662-.418 5.53-.297 5.397-.174 5.263-.046 5.129.084 4.995.216 4.861.353 4.727.49 4.593.633 4.459.775 4.326.922 4.193 1.07 4.062 1.221 3.93 1.374 3.801 1.53 3.672 1.685 3.545 1.844 3.418 2.005 3.293 2.167 3.17 2.33 3.049 2.494 2.929 2.66 2.811 2.827 2.695 2.994 2.582 3.163 2.469 3.331 2.361 3.501 2.253 3.67 2.148 3.839 2.046 4.01 1.946 4.178 1.849 4.347 1.753 4.516 1.662 4.683 1.572 4.851 1.486 5.016 1.401 5.181 1.32 5.344 1.242 5.506 1.165 5.666 1.093 5.825 1.023 5.981.955 6.135.891 6.288.829 6.437.77 6.584.714 6.728.66 6.87.609 7.008.561 7.143.516 7.275.472 7.404.432 7.528.393 7.65.358 7.766.324 7.881.293 7.989.264 8.095.237 8.195.212 8.292.189 8.383.169 8.471.148 8.553.131 8.631.115 8.704.101 8.772.087 8.834.075 8.893.064 8.944.055 8.993-.021 145.942-.059 8.973-.068 8.924-.08 8.87-.093 8.81-.106 8.744-.121 8.675-.138 8.6-.157 8.52-.176 8.436-.198 8.346-.222 8.253-.248 8.155-.276 8.052-.305 7.946-.338 7.834-.372 7.72-.408 7.601-.448 7.478-.49 7.351-.534 7.222-.58 7.088-.63 6.953-.681 6.812-.737 6.67-.793 6.524-.854 6.377-.917 6.225-.982 6.073-1.051 5.918-1.123 5.76-1.196 5.601-1.273 5.441-1.353 5.278-1.435 5.113-1.521 4.949-1.608 4.783-1.699 4.615-1.792 4.447-1.888 4.279-1.986 4.109-2.087 3.94-2.191 3.771-2.297 3.601-2.404 3.431-2.515 3.263-2.628 3.094-2.742 2.926-2.859 2.759-2.977 2.592-3.098 2.427-3.221 2.264-3.344 2.1-3.469 1.939-3.596 1.78-3.724 1.621-3.854 1.466-3.984 1.311-4.115 1.16-4.247 1.009-4.381.862-4.513.717-4.647.574-4.782.434-4.915.297-5.05.162-5.184.031-5.318-.099-5.451-.224-5.583-.347-5.716-.466-5.847-.583-5.977-.697-6.107-.806-6.233-.913-6.36-1.016-6.485-1.115-6.607-1.213-6.728-1.306-6.847-1.395-6.963-1.481-7.077-1.564-7.189-1.644-7.298-1.72-7.404-1.791-7.507-1.862-7.607-1.927-7.705-1.989-7.797-2.048-7.888-2.105-7.975-2.157-8.057-2.206-8.136-2.253-8.211-2.295-8.281-2.337-8.349-2.373-8.411-2.408-8.469-2.44-8.522-2.469-8.572-2.495-8.615-2.519-139.816-41.841-8.597-2.632-8.548-2.626-8.494-2.622-8.435-2.618-8.371-2.611-8.302-2.606-8.227-2.601-8.147-2.595-8.062-2.59-7.972-2.586-7.877-2.581-7.778-2.577-7.673-2.575-7.564-2.572-7.45-2.57-7.332-2.571-7.209-2.57-7.081-2.573-6.951-2.576-6.814-2.581-6.675-2.586-6.531-2.594-6.384-2.603-6.233-2.615-6.079-2.626-5.92-2.641-5.759-2.658-5.595-2.676-5.428-2.696-5.258-2.719-5.084-2.743-4.91-2.77-4.732-2.799-4.552-2.83-4.37-2.863-4.186-2.899-4-2.937-3.813-2.978-3.625-3.02-3.435-3.065-3.244-3.112-3.052-3.162-2.86-3.214-2.666-3.268-2.473-3.324-2.28-3.383-2.085-3.444-1.891-3.508-1.699-3.572-1.505-3.64-1.313-3.708-1.12-3.781-.93-3.853-.741-3.928-.552-4.006-.365-4.083-.18-4.164.005-4.246.187-4.328.367-4.413.545-4.499.72-4.585.895-4.674 1.066-4.762 1.233-4.853 1.4-4.942 1.562-5.034 1.722-5.125 1.879-5.217 2.032-5.309 2.183-5.401 2.33-5.494 2.473-5.586 2.614-5.677 2.75-5.769 2.882-5.86 3.012-5.95 3.137-6.039 3.258-6.128 3.375-6.215 3.49-6.301 3.598-6.386 3.703-6.469 3.806-6.551 3.902-6.63 3.996-6.708 4.084-6.783 4.17-6.858 4.25-6.928 4.328-6.997 4.399-7.063 4.468-7.126 4.533-7.187 4.593-7.244 4.649-7.299 4.701-7.349 4.75-7.397 4.795-7.442 4.835-7.482 4.872-7.519 85.139-129.449 4.975-7.453 4.955-7.404 4.934-7.35 4.912-7.292 4.886-7.229 4.861-7.161 4.833-7.087 4.804-7.01 4.774-6.926 4.743-6.839 4.712-6.746 4.678-6.648 4.645-6.546 4.612-6.439 4.577-6.328 4.543-6.211 4.508-6.09 4.473-5.965 4.439-5.835 4.404-5.701 4.371-5.563 4.336-5.421 4.304-5.274 4.271-5.124 4.239-4.97 4.209-4.812 4.178-4.651 4.15-4.486 4.122-4.317 4.095-4.146 4.07-3.972 4.047-3.794 4.024-3.614 4.003-3.43 3.985-3.246 3.967-3.057 3.951-2.867 3.937-2.675 3.925-2.481 3.915-2.285 3.907-2.088 3.901-1.888 3.896-1.689 3.894-1.487 3.895-1.286 3.896-1.082 3.9-.879 3.907-.675 3.915-.47 3.925-.267L454.434 1l3.953.142 3.969.345 3.988.548 4.009.75 4.032.951 4.056 1.151 4.084 1.35 4.111 1.548 4.142 1.743 4.175 1.938 4.208 2.129 4.244 2.32 4.281 2.507 4.319 2.693 4.36 2.876 4.4 3.056 4.444 3.233 4.487 3.409 4.533 3.58 4.578 3.748 4.625 3.914 4.672 4.075 4.721 4.234 4.769 4.388 4.819 4.539 4.868 4.686 4.918 4.829 4.969 4.967 5.018 5.103 5.068 5.233 5.117 5.36 5.166 5.482 5.216 5.599 5.263 5.713 5.311 5.821 5.357 5.925 5.402 6.025 5.447 6.119 5.489 6.21 5.531 6.295 5.571 6.376 5.61 6.452 5.646 6.523 5.68 6.589 5.713 6.651 5.744 6.708 5.772 6.761 5.797 6.807 5.821 6.851 93.799 111.808 5.726 6.914 5.686 6.882 5.643 6.849 5.595 6.81 5.544 6.77 5.487 6.726 5.426 6.68 5.361 6.631 5.292 6.579 5.218 6.525 5.14 6.468 5.058 6.41 4.971 6.35 4.879 6.287 4.784 6.223 4.684 6.157 4.579 6.09 4.471 6.021 4.358 5.951 4.241 5.879 4.12 5.809 3.995 5.735 3.865 5.661 3.733 5.588 3.595 5.513 3.453 5.438 3.31 5.364 3.16 5.288 3.009 5.214 2.854 5.139 2.694 5.064 2.533 4.991 2.367 4.918 2.199 4.844 2.027 4.773 1.854 4.702 1.677 4.632 1.498 4.564 1.316 4.495 1.132 4.429.946 4.365.758 4.3.568 4.239.376 4.178.183 4.12-.011 4.063-.207 4.007-.403 3.955-.602 3.903-.8 3.854-.999 3.806-1.198 3.762-1.398 3.718-1.598 3.678-1.797 3.638-1.997 3.602-2.196 3.568-2.394 3.535-2.592 3.506-2.788 3.477-2.984 3.452-3.179 3.429-3.371 3.407-3.562 3.388-3.752 3.371-3.939 3.357-4.125 3.343-4.307 3.333-4.489 3.324-4.667 3.317-4.842 3.312-5.015 3.309-5.185 3.307-5.351 3.308-5.515 3.31-5.674 3.313-5.83 3.317-5.984 3.325-6.132 3.331-6.277 3.341-6.418 3.35-6.554 3.361-6.687 3.373-6.816 3.386-6.939 3.398-7.059 3.413-7.173 3.428-7.283 3.442-7.388 3.457-7.489 3.473-7.584 3.487-7.675 3.503-7.76 3.519-7.841 3.532-7.916 3.548-7.986 3.56-8.052 3.574-8.112 3.587-8.166 3.597-8.216 3.608-142.276 61.337-8.24 3.484-8.195 3.454-8.147 3.419-8.095 3.383-8.039 3.342-7.977 3.299-7.914 3.252-7.845 3.202-7.774 3.147-7.699 3.09-7.62 3.03-7.538 2.964-7.453 2.897-7.366 2.824-7.274 2.749-7.182 2.67-7.085 2.586-6.986 2.5-6.886 2.41-6.782 2.315-6.678 2.218-6.571 2.116-6.462 2.011-6.352 1.903-6.241 1.789-6.127 1.674-6.014 1.555-5.898 1.432-5.783 1.305-5.666 1.175-5.549 1.043-5.432.907-5.314.767-5.196.625-5.078.479-4.96.332-4.842.18-4.726.027-4.609-.13-4.493-.288-4.378-.45-4.264-.613-4.151-.778-4.039-.946-3.927-1.116-3.819-1.286-3.71-1.459-3.605-1.634-3.499-1.809-3.396-1.985-3.296-2.164-3.196-2.342-3.098-2.521-3.004-2.702-2.91-2.882-2.82-3.062-2.731-3.244-2.645-3.424-2.561-3.604-2.479-3.785-2.401-3.964-2.324-4.144-2.25-4.321-2.178-4.498-2.109-4.674-2.044-4.849-1.979-5.022-1.918-5.193-1.859-5.362-1.804-5.53-1.75-5.695-1.699-5.858-1.65-6.019-1.605-6.176-1.561-6.332-1.52-6.484-1.482-6.633-1.445-6.779-1.412-6.921-1.379-7.061-1.35-7.196-1.323-7.328-1.297-7.455-1.274-7.58-1.252-7.699-1.233-7.815-1.214-7.926-1.199-8.032-1.184-8.135-1.17-8.233-1.159-8.325-1.148-8.413-1.139-8.496-1.13-8.575-1.123-8.647-1.117-8.716-1.111-8.778-1.106-8.836-1.101-8.888-17.995-153.889-.981-8.91-.964-8.86-.946-8.807-.926-8.747-.905-8.683-.881-8.614-.855-8.541-.828-8.463-.797-8.381-.764-8.293-.73-8.202-.692-8.107-.652-8.007-.609-7.904-.564-7.796-.516-7.685-.464-7.571-.411-7.453-.355-7.331-.295-7.207-.232-7.079-.167-6.949-.098-6.816-.026-6.679.047-6.542.126-6.4.206-6.258.29-6.114.376-5.966.466-5.819.559-5.668.655-5.518.753-5.365.855-5.211.959-5.057 1.067-4.902 1.176-4.747 1.289-4.59 1.405-4.434 1.522-4.277 1.643-4.121 1.766-3.964 1.891-3.809 2.019-3.653 2.148-3.498 2.28-3.343 2.414-3.191 2.55-3.038 2.688-2.887 2.826-2.737 2.967-2.588 3.11-2.442 3.253-2.297 3.398-2.153 3.543-2.011 3.69-1.872 3.838-1.735 3.986-1.599 4.135-1.466 4.284-1.336 4.433-1.208 4.582-1.082 4.732-.958 4.882-.839 5.03-.722 5.178-.606 5.326-.495 5.473-.386 5.619-.28 5.764-.178 5.907-.078 6.049.019 6.19.113 6.328.203 6.465.29 6.6.374 6.733.455 6.863.533 6.991.607 7.116.679 7.238.747 7.357.812 7.474.874 7.587.933 7.697.99 7.803 1.042 7.906 1.092 8.004 1.14 8.1 1.184 8.191 1.226 8.278 1.264 8.361 1.301 8.439 1.335 8.513 1.365 8.583 1.395 8.647 1.421 8.708 1.445 8.764 1.468 8.814 1.487 8.859 1.505 143.725 25.351 8.833 1.615 8.784 1.617 8.729 1.619 8.668 1.62 8.602 1.623 8.532 1.626 8.455 1.628 8.375 1.633 8.289 1.638 8.197 1.644 8.102 1.651 8.002 1.659 7.896 1.668 7.786 1.679 7.673 1.691 7.553 1.705 7.431 1.72 7.304 1.738 7.172 1.756 7.038 1.776 6.898 1.8 6.756 1.824 6.611 1.85 6.46 1.88 6.308 1.91 6.152 1.944 5.993 1.979 5.831 2.017 5.668 2.057 5.5 2.099 5.33 2.145 5.16 2.192 4.985 2.242 4.811 2.295 4.633 2.349 4.454 2.406 4.274 2.467 4.092 2.529 3.91 2.593 3.727 2.661 3.542 2.73 3.357 2.803 3.172 2.877 2.986 2.953 2.801 3.033 2.615 3.114 2.43 3.198 2.244 3.283 2.061 3.37 1.876 3.461 1.694 3.552 1.512 3.646 1.331 3.74 1.151 3.838.974 3.936.797 4.036.623 4.138.449 4.24.279 4.345.111 4.449-.056 4.555-.221 4.663-.381 4.77-.541 4.878-.697 4.987-.85 5.096-1 5.205-1.149 5.315-1.292 5.424-1.434 5.534-1.571 5.642-1.706 5.752-1.838 5.859-1.964 5.966-2.089 6.073-2.21 6.178-2.326 6.283-2.44 6.386-2.548 6.487-2.655 6.587-2.756 6.685-2.854 6.782-2.949 6.876-3.039 6.969-3.125 7.058-3.208 7.146-3.287 7.231-3.362 7.313-3.433 7.392-3.5 7.469-3.564 7.542-3.624 7.612-3.679 7.679-3.732 7.742-3.782 7.802-3.826 7.858-3.868 7.91-3.906 7.958-3.941 8.003-3.973 8.042-69.557 138.445-4.073 7.969-4.06 7.917-4.043 7.86-4.028 7.799-4.011 7.732-3.992 7.66-3.973 7.583-3.954 7.501-3.933 7.414-3.912 7.322-3.892 7.225-3.87 7.124-3.849 7.016-3.829 6.906-3.807 6.789-3.786 6.67-3.766 6.544-3.746 6.414-3.727 6.281-3.709 6.143-3.691 6.001-3.674 5.854-3.659 5.704-3.644 5.551-3.631 5.393-3.619 5.232-3.608 5.067-3.599 4.899-3.591 4.729-3.585 4.554-3.581 4.377-3.578 4.198-3.578 4.016-3.578 3.83-3.582 3.644-3.586 3.455-3.593 3.263-3.602 3.071-3.614 2.876-3.626 2.681-3.642 2.482-3.659 2.285-3.679 2.085-3.7 1.884-3.724 1.684-3.75 1.482-3.779 1.281-3.809 1.078-3.841.877-3.876.676-3.912.474-3.951.273-3.992.073-4.034-.125-4.079-.324-4.126-.521-4.174-.716-4.223-.91-4.276-1.103-4.328-1.293-4.384-1.481-4.439-1.668-4.498-1.852-4.556-2.034-4.616-2.213-4.678-2.39-4.74-2.563-4.803-2.734-4.867-2.902-4.932-3.066-4.997-3.227-5.063-3.385-5.128-3.54-5.195-3.69-5.262-3.837-5.328-3.981-5.394-4.12-5.46-4.255-5.526-4.386-5.591-4.514-5.656-4.637-5.719-4.755-5.782-4.87-5.844-4.981-5.904-5.086-5.964-5.188-6.021-5.284-6.078-5.377-6.132-5.465-6.185-5.549-6.235-5.628-6.285-5.702-6.33-5.772-6.375-5.838-6.416-5.898-6.455-5.955-6.492-6.007-6.525-6.055-6.555-6.098-112.708-106.313-6.48-6.197-6.437-6.17-6.389-6.14-6.336-6.107-6.278-6.073-6.217-6.035-6.149-5.995-6.079-5.954-6.002-5.911-5.922-5.864-5.837-5.818-5.747-5.768-5.653-5.719-5.554-5.666-5.45-5.614-5.343-5.559-5.23-5.504-5.113-5.449-4.992-5.392-4.867-5.335-4.737-5.278-4.603-5.219-4.465-5.162-4.324-5.104-4.177-5.045-4.029-4.988-3.874-4.93-3.718-4.873-3.558-4.816-3.394-4.761-3.227-4.705-3.056-4.651-2.883-4.598-2.707-4.545-2.527-4.494-2.347-4.444-2.162-4.395-1.975-4.348-1.787-4.302-1.595-4.258-1.403-4.216-1.209-4.174-1.012-4.136-.815-4.098-.616-4.063-.415-4.029-.215-3.998-.013-3.968.19-3.941.392-3.915.596-3.892.799-3.87 1.002-3.852 1.206-3.834 1.408-3.82 1.61-3.807 1.812-3.796 2.012-3.788 2.212-3.781 2.41-3.777 2.607-3.774 2.802-3.775 2.996-3.776 3.188-3.78 3.377-3.785 3.564-3.793 3.75-3.802 3.933-3.813 4.112-3.825 4.29-3.84 4.464-3.856 4.634-3.872 4.803-3.891 4.968-3.912 5.129-3.932 5.286-3.954 5.44-3.978 5.59-4.001 5.736-4.027 5.878-4.052 6.016-4.079 6.15-4.105 6.279-4.133 6.404-4.16 6.524-4.188 6.64-4.215 6.751-4.243 6.857-4.271 6.96-4.297 7.056-4.325 7.148-4.35 7.235-4.376 7.318-4.401 7.394-4.424 7.467-4.447 7.533-4.469 7.596-4.489 7.653-4.508 7.705-4.525 7.751-4.54 126.391-72.972 7.808-4.442 7.771-4.41 7.729-4.373 7.685-4.333 7.636-4.289 7.584-4.242 7.529-4.191 7.469-4.136 7.406-4.077 7.341-4.015 7.272-3.948 7.201-3.877 7.126-3.803 7.049-3.724 6.97-3.641 6.888-3.556 6.803-3.464 6.718-3.37 6.629-3.272 6.539-3.17 6.447-3.063 6.354-2.953 6.26-2.839 6.163-2.72 6.067-2.6 5.968-2.474 5.87-2.345 5.77-2.212 5.67-2.076 5.57-1.936 5.469-1.793 5.367-1.647 5.268-1.498 5.166-1.344 5.066-1.189 4.965-1.03 4.866-.869 4.767-.704 4.669-.537 4.571-.369 4.475-.196 4.379-.023 4.285.153 4.193.332 4.101.51 4.01.693 3.923.876 3.835 1.06 3.751 1.245 3.667 1.432 3.586 1.62 3.507 1.809 3.429 1.998 3.354 2.187 3.28 2.377 3.21 2.567 3.141 2.757 3.075 2.946 3.01 3.136 2.948 3.326 2.889 3.513 2.832 3.7 2.777 3.888 2.725 4.072 2.675 4.256 2.628 4.438 2.582 4.62 2.539 4.797 2.499 4.974 2.462 5.149 2.425 5.322 2.392 5.491 2.361 5.659 2.332 5.822 2.305 5.985 2.28 6.142 2.258 6.298 2.237 6.45 2.219 6.598 2.201 6.743 2.187 6.884 2.174 7.021 2.162 7.154 2.151 7.283 2.144 7.408 2.136 7.528 2.13 7.645 2.126 7.756 2.122 7.862 2.12 7.965 2.118 8.062 2.117 8.155 2.117 8.242 2.117 8.325 2.119 8.402 2.12 8.474 2.121 8.542 2.123 8.603 2.124 8.66 2.127 8.711 35.714 150.765 2.003 8.725 1.981 8.678 1.957 8.624 1.929 8.568 1.9 8.505 1.868 8.438 1.833 8.368 1.796 8.292 1.755 8.213 1.712 8.13 1.666 8.042 1.618 7.951 1.565 7.856 1.51 7.757 1.452 7.655 1.39 7.55 1.326 7.441 1.258 7.329 1.187 7.215 1.112 7.097 1.035 6.978.954 6.854.87 6.73.782 6.603.691 6.474.597 6.342.5 6.21.399 6.076.295 5.939.189 5.802.078 5.665-.036 5.524-.151 5.385-.271 5.244-.393 5.103-.519 4.961-.646 4.819-.777 4.677-.91 4.536-1.046 4.393-1.185 4.252-1.325 4.111-1.469 3.971-1.613 3.831-1.761 3.693-1.91 3.555-2.062 3.419-2.214 3.284-2.369 3.149-2.524 3.017-2.682 2.887-2.841 2.758-3 2.63-3.161 2.505-3.322 2.382-3.484 2.261-3.647 2.142-3.81 2.025-3.973 1.911-4.136 1.799-4.3 1.69-4.462 1.583-4.625 1.479-4.787 1.377-4.948 1.279-5.109 1.182-5.268 1.089-5.427.999-5.583.912-5.739.826-5.892.745-6.044.666-6.194.591-6.342.517-6.488.447-6.631.379-6.771.316-6.909.254-7.044.196-7.175.139-7.305.087-7.43.037-7.552-.011-7.67-.056-7.785-.099-7.895-.138-8.003-.175-8.106-.21-8.204-.243-8.298-.273-8.388-.301-8.474-.327-8.555-.351-8.631-.373-8.702-.393-8.769-.412-8.83-.428-8.886-.443-8.938-.457-8.985-.47-145.691-8.516-8.951-.581-8.9-.588-8.844-.596-8.784-.605-8.717-.616-8.647-.626-8.57-.64-8.489-.652-8.403-.669-8.312-.684-8.217-.704-8.118-.723-8.012-.746-7.905-.769-7.791-.795-7.673-.823-7.553-.853-7.428-.884-7.299-.92-7.166-.956-7.03-.995-6.891-1.037-6.748-1.081-6.602-1.127-6.453-1.176-6.302-1.228-6.148-1.283-5.991-1.339-5.832-1.399-5.67-1.461-5.507-1.526-5.342-1.594-5.175-1.664-5.006-1.736-4.836-1.813-4.665-1.891-4.493-1.972-4.32-2.055-4.145-2.142-3.971-2.23-3.796-2.322-3.62-2.415-3.446-2.51-3.27-2.61-3.095-2.709-2.92-2.813-2.745-2.917-2.572-3.025-2.4-3.133-2.227-3.244-2.056-3.357-1.887-3.471-1.719-3.587-1.552-3.704-1.387-3.824-1.224-3.943-1.063-4.065-.904-4.187-.746-4.31-.592-4.434-.44-4.559-.288-4.684-.142-4.81.002-4.937.145-5.062.284-5.188.42-5.315.552-5.44.683-5.566.81-5.69.933-5.815 1.053-5.938 1.17-6.06 1.285-6.181 1.394-6.301 1.5-6.419 1.605-6.537 1.703-6.651 1.8-6.764 1.892-6.876 1.981-6.984 2.067-7.091 2.148-7.195 2.226-7.296 2.302-7.396 2.372-7.491 2.44-7.584 2.504-7.673 2.565-7.76 2.622-7.843 2.676-7.922 2.726-7.998 2.774-8.07 2.818-8.138 2.858-8.202 2.897-8.262 2.931-8.318 2.963-8.369 2.991-8.416 3.018-8.458 49.91-137.144 3.126-8.425 3.119-8.376 3.11-8.323 3.103-8.263 3.093-8.199 3.083-8.129 3.074-8.055 3.064-7.974 3.053-7.89 3.044-7.8 3.034-7.705 3.024-7.605 3.015-7.501 3.007-7.392 2.999-7.277 2.992-7.159 2.985-7.035 2.979-6.909 2.976-6.776 2.972-6.64 2.97-6.5 2.969-6.356 2.971-6.208 2.972-6.057 2.976-5.901 2.981-5.742 2.989-5.58 2.998-5.414 3.008-5.247 3.021-5.074 3.036-4.9 3.052-4.725 3.071-4.544 3.092-4.363 3.115-4.179 3.14-3.993 3.167-3.806 3.197-3.616 3.229-3.425 3.263-3.233 3.299-3.04 3.337-2.845 3.379-2.65 3.421-2.454 3.467-2.258 3.515-2.06 3.564-1.864 3.616-1.666 3.67-1.47 3.726-1.273 3.785-1.077 3.844-.881 3.907-.687 3.971-.493 4.036-.3 4.104-.11 4.174.08 4.245.27 4.317.454 4.391.64 4.466.823 4.543 1.002 4.621 1.181 4.7 1.357 4.779 1.53 4.861 1.7 4.941 1.867 5.024 2.032 5.107 2.194 5.189 2.352 5.273 2.507 5.357 2.66 5.44 2.807 5.524 2.952 5.607 3.094 5.69 3.23 5.772 3.365 5.854 3.494 5.936 3.62 6.015 3.743 6.095 3.86 6.173 3.974 6.25 4.084 6.325 4.189 6.399 4.29 6.47 4.388 6.541 4.48 6.61 4.57 6.675 4.653 6.739 4.734 6.801 4.81 6.86 4.881 6.916 4.949 6.97 5.012 7.02 5.071 7.068 5.126 7.113 5.176 7.153 5.223 7.192 5.266 7.226 5.304 124.274 92.53 7.146 5.398 7.099 5.375 7.046 5.351 6.988 5.325 6.927 5.296 6.86 5.266 6.787 5.233 6.711 5.201 6.63 5.165 6.543 5.13 6.452 5.092 6.356 5.054 6.255 5.014 6.151 4.974 6.04 4.934 5.925 4.892 5.807 4.851 5.683 4.809 5.556 4.767 5.423 4.724 5.287 4.683 5.146 4.64 5.002 4.599 4.853 4.558 4.701 4.518 4.545 4.477 4.385 4.439 4.221 4.399 4.056 4.363 3.885 4.326 3.712 4.291 3.536 4.258 3.357 4.224 3.175 4.193 2.991 4.164 2.804 4.135 2.616 4.109 2.423 4.084 2.231 4.061 2.036 4.039 1.838 4.02 1.641 4.003 1.441 3.986 1.24 3.973 1.038 3.962.835 3.951.632 3.945.427 3.938.224 3.936.019 3.934-.186 3.935-.39 3.938-.594 3.943-.797 3.95-1.001 3.96-1.202 3.971-1.404 3.984-1.604 3.999-1.802 4.016-1.999 4.036-2.195 4.057-2.388 4.079-2.58 4.104-2.769 4.131-2.957 4.158-3.141 4.188-3.323 4.218-3.504 4.251-3.679 4.285-3.854 4.32-4.023 4.355-4.192 4.393-4.355 4.431-4.515 4.471-4.672 4.51-4.826 4.55-4.974 4.591-5.12 4.633-5.261 4.675-5.398 4.717-5.531 4.759-5.66 4.801-5.784 4.843-5.904 4.884-6.02 4.926-6.13 4.967-6.236 5.007-6.338 5.047-6.434 5.085-6.527 5.122-6.614 5.159-6.696 5.194-6.774 5.228-6.847 5.26-6.914 5.291-6.978 5.319-7.036 5.346-7.089 5.371-7.138 5.394-7.181 5.414-117.077 87.131-7.232 5.311-7.199 5.273-7.161 5.232-7.12 5.185-7.077 5.135-7.029 5.082-6.979 5.023-6.927 4.961-6.87 4.894-6.812 4.823-6.751 4.748-6.687 4.669-6.622 4.585-6.554 4.498-6.484 4.405-6.412 4.309-6.339 4.208-6.264 4.104-6.187 3.994-6.109 3.881-6.031 3.765-5.95 3.643-5.869 3.518-5.788 3.389-5.705 3.256-5.622 3.119-5.54 2.979-5.455 2.834-5.372 2.687-5.289 2.536-5.205 2.381-5.122 2.224-5.039 2.062-4.957 1.898-4.875 1.731-4.795 1.562-4.714 1.389-4.635 1.213-4.558 1.036-4.48.856-4.405.674-4.331.489-4.258.304-4.186.115-4.117-.074-4.049-.264-3.983-.458-3.919-.651-3.856-.845-3.795-1.041-3.737-1.236-3.68-1.433-3.626-1.63-3.574-1.827-3.523-2.024-3.476-2.221-3.429-2.418-3.387-2.614-3.345-2.809-3.306-3.004-3.269-3.197-3.235-3.39-3.203-3.581-3.172-3.77-3.145-3.959-3.12-4.145-3.095-4.329-3.075-4.511-3.056-4.69-3.039-4.868-3.023-5.043-3.011-5.215-2.999-5.383-2.99-5.55-2.983-5.712-2.977-5.872-2.973-6.028-2.97-6.18-2.97-6.329-2.97-6.474-2.971-6.614-2.975-6.752-2.979-6.884-2.984-7.012-2.99-7.136-2.998-7.256-3.005-7.371-3.013-7.48-3.023-7.587-3.032-7.687-3.042-7.782-3.052-7.874-3.062-7.959-3.071-8.041-3.082-8.115-3.092-8.187-3.1-8.251-3.109-8.312-3.118-8.367-3.124-8.416-49.928-137.137-3.022-8.466-2.997-8.424-2.969-8.378-2.937-8.327-2.903-8.273-2.866-8.213-2.825-8.151-2.782-8.083-2.736-8.011-2.685-7.937-2.633-7.858-2.575-7.775-2.516-7.69-2.452-7.601-2.385-7.508-2.315-7.414-2.24-7.315-2.163-7.214-2.082-7.11-1.998-7.004-1.908-6.896-1.818-6.785-1.721-6.672-1.623-6.558-1.52-6.441-1.414-6.323-1.305-6.204-1.191-6.082-1.076-5.961-.956-5.837-.832-5.714-.707-5.589-.577-5.463-.445-5.338-.309-5.212-.17-5.086-.03-4.959.115-4.834.262-4.707.411-4.583.564-4.457.717-4.333.874-4.21 1.034-4.087 1.194-3.966 1.357-3.845 1.521-3.726 1.688-3.609 1.856-3.492 2.024-3.378 2.196-3.265 2.367-3.154 2.54-3.044 2.713-2.937 2.888-2.832 3.062-2.729 3.238-2.628 3.413-2.528 3.588-2.433 3.763-2.338 3.939-2.247 4.113-2.158 4.287-2.071 4.461-1.988 4.633-1.905 4.805-1.827 4.975-1.751 5.144-1.677 5.311-1.607 5.476-1.538 5.64-1.473 5.802-1.41 5.962-1.35 6.119-1.293 6.273-1.238 6.426-1.186 6.575-1.136 6.721-1.089 6.864-1.045 7.005-1.003 7.141-.963 7.275-.926 7.404-.891 7.53-.859 7.651-.828 7.77-.8 7.884-.774 7.993-.749 8.098-.728 8.199-.707 8.295-.688 8.387-.671 8.473-.656 8.555-.641 8.633-.629 8.705-.617 8.771-.607 8.834-.598 8.89-.59 8.942-.582 154.676-9.007 8.947-.459 8.897-.446 8.841-.431 8.78-.415 8.715-.396 8.644-.377 8.569-.355 8.489-.332 8.405-.306 8.316-.278 8.221-.249 8.124-.216 8.023-.182 7.915-.145 7.806-.106 7.692-.064 7.574-.02 7.453.028 7.327.077 7.2.129 7.069.185 6.934.243 6.797.304 6.657.368 6.514.434 6.369.504 6.222.577 6.072.652 5.921.73 5.767.811 5.613.895 5.455.983 5.298 1.072 5.138 1.165 4.978 1.261 4.817 1.358 4.655 1.46 4.493 1.564 4.329 1.67 4.167 1.778 4.003 1.89 3.84 2.004 3.677 2.12 3.515 2.239 3.352 2.359 3.191 2.483 3.029 2.607 2.87 2.733 2.712 2.863 2.553 2.993 2.398 3.125 2.243 3.258 2.089 3.394 1.938 3.53 1.789 3.667 1.64 3.805 1.495 3.945 1.352 4.086 1.211 4.225 1.071 4.368.936 4.509.801 4.65.67 4.793.542 4.935.416 5.077.294 5.217.173 5.359.057 5.499-.057 5.639-.168 5.776-.276 5.915-.38 6.05-.482 6.185-.579 6.318-.674 6.45-.766 6.579-.853 6.706-.939 6.832-1.02 6.955-1.098 7.075-1.174 7.193-1.245 7.308-1.313 7.421-1.379 7.53-1.441 7.636-1.499 7.738-1.555 7.838-1.608 7.934-1.658 8.025-1.704 8.114-1.747 8.198-1.789 8.278-1.826 8.354-1.861 8.425-1.895 8.494-1.924 8.556-1.951 8.614-1.977 8.668-1.999 8.717-2.02 8.761-33.673 142.004-2.127 8.72-2.125 8.67-2.123 8.615-2.121 8.553-2.12 8.487-2.119 8.416-2.118 8.34-2.117 8.257-2.117 8.172-2.118 8.079-2.119 7.983-2.122 7.882-2.125 7.776-2.129 7.666-2.135 7.55-2.142 7.43-2.15 7.307-2.16 7.178-2.171 7.046-2.184 6.91-2.199 6.769-2.215 6.625-2.234 6.478-2.254 6.326-2.276 6.172-2.3 6.014-2.327 5.853-2.355 5.689-2.386 5.522-2.419 5.353-2.455 5.182-2.492 5.007-2.531 4.83-2.575 4.653-2.618 4.471-2.666 4.29-2.716 4.107-2.767 3.921-2.822 3.736-2.878 3.548-2.937 3.36-2.999 3.171-3.062 2.982-3.129 2.792-3.196 2.602-3.268 2.412-3.34 2.223-3.415 2.032-3.492 1.844-3.571 1.655-3.652 1.466-3.735 1.281-3.82 1.094-3.906.909-3.994.727-4.084.544-4.176.365-4.268.186-4.362.01-4.457-.165-4.553-.336-4.65-.507-4.749-.673-4.848-.839-4.947-1-5.047-1.16-5.148-1.316-5.248-1.469-5.349-1.619-5.45-1.767-5.551-1.91-5.652-2.05-5.751-2.187-5.852-2.321-5.95-2.45-6.048-2.576-6.146-2.699-6.242-2.817-6.336-2.932-6.43-3.043-6.523-3.151-6.612-3.253-6.701-3.352-6.788-3.447-6.873-3.539-6.954-3.626-7.035-3.709-7.112-3.789-7.187-3.863-7.259-3.935-7.328-4.003-7.395-4.066-7.458-4.125-7.517-4.181-7.574-4.233-7.627-4.281-7.676-4.325-7.722-4.366-7.763-4.403-7.801-4.437-126.399-72.954-7.76-4.543-7.714-4.528-7.663-4.511-7.607-4.493-7.545-4.472-7.48-4.451-7.408-4.429-7.332-4.405-7.251-4.381-7.164-4.355-7.074-4.329-6.977-4.303-6.877-4.275-6.771-4.249-6.661-4.22-6.546-4.193-6.427-4.165-6.302-4.138-6.174-4.11-6.041-4.084-5.904-4.057-5.763-4.031-5.618-4.007-5.468-3.982-5.315-3.958-5.158-3.936-4.997-3.915-4.834-3.895-4.666-3.876-4.496-3.859-4.322-3.842-4.146-3.828-3.966-3.815-3.784-3.804-3.599-3.795-3.412-3.786-3.223-3.781-3.031-3.777-2.838-3.774-2.643-3.775-2.447-3.776-2.249-3.78-2.05-3.787-1.848-3.794-1.648-3.805-1.446-3.817-1.243-3.831-1.04-3.849-.836-3.866-.634-3.888-.43-3.911-.227-3.936-.025-3.963.178-3.992.378-4.023.579-4.056.778-4.092.976-4.128 1.172-4.167 1.367-4.208 1.56-4.25 1.752-4.294 1.94-4.34 2.128-4.386 2.312-4.435 2.494-4.485 2.674-4.535 2.85-4.588 3.025-4.641 3.195-4.695 3.364-4.75 3.527-4.806 3.689-4.863 3.846-4.919 4-4.977 4.15-5.035 4.297-5.093 4.44-5.151 4.577-5.209 4.713-5.266 4.843-5.325 4.969-5.381 5.091-5.439 5.209-5.494 5.322-5.549 5.43-5.604 5.535-5.656 5.635-5.709 5.73-5.759 5.82-5.809 5.907-5.856 5.988-5.902 6.065-5.946 6.137-5.988 6.204-6.028 6.267-6.066 6.326-6.101 6.379-6.134 6.428-6.164 6.473-6.192 112.695-106.329 6.56-6.106 6.531-6.063 6.497-6.016 6.462-5.965 6.424-5.91 6.383-5.849 6.339-5.785 6.293-5.715 6.244-5.642 6.195-5.564 6.142-5.481 6.088-5.393 6.032-5.302 5.974-5.206 5.916-5.106 5.855-5 5.793-4.89 5.731-4.778 5.668-4.659 5.603-4.537 5.538-4.41 5.472-4.28 5.407-4.145 5.34-4.007 5.274-3.864 5.207-3.717 5.141-3.568 5.075-3.414 5.009-3.257 4.944-3.096 4.879-2.933 4.815-2.765 4.751-2.595 4.689-2.422 4.628-2.246 4.567-2.067 4.509-1.886 4.45-1.703 4.394-1.516 4.338-1.328 4.285-1.138 4.234-.946 4.182-.752 4.135-.557 4.087-.36 4.043-.163 3.999.036 3.959.237 3.919.437 3.883.638 3.847.839 3.815 1.041 3.784 1.244 3.755 1.444L580.241 14l3.704 1.847 3.683 2.048 3.662 2.247 3.645 2.447 3.629 2.643 3.616 2.84 3.604 3.035 3.595 3.228 3.587 3.42 3.582 3.608 3.579 3.797 3.578 3.981 3.578 4.164 3.58 4.345 3.584 4.521 3.59 4.697 3.598 4.868 3.606 5.036 3.617 5.201 3.628 5.364 3.642 5.521 3.655 5.676 3.672 5.827 3.688 5.974 3.705 6.117 3.724 6.256 3.742 6.39 3.763 6.52 3.782 6.646 3.803 6.768 3.825 6.885 3.845 6.996 3.866 7.104 3.888 7.207 3.909 7.304 3.929 7.397 3.95 7.486 3.969 7.568 3.989 7.646 4.007 7.719 4.025 7.787 4.041 7.849 4.056 7.907 4.071 7.96 4.083 8.007 65.49 130.423 3.979 8.05 3.947 8.01 3.913 7.967 3.875 7.919 3.835 7.868 3.789 7.812 3.742 7.754 3.69 7.691 3.634 7.625 3.575 7.555 3.513 7.483 3.445 7.407 3.376 7.327 3.301 7.247 3.222 7.161 3.141 7.075 3.056 6.985 2.965 6.894 2.872 6.799 2.775 6.704 2.674 6.605 2.568 6.506 2.46 6.404 2.348 6.302 2.231 6.198 2.112 6.092 1.988 5.987 1.861 5.879 1.731 5.771 1.596 5.663 1.46 5.554 1.319 5.444 1.175 5.335 1.028 5.226.878 5.116.726 5.007.57 4.899.411 4.79.25 4.682.087 4.575-.079 4.469-.248 4.363-.418 4.26-.59 4.157-.765 4.055-.941 3.954-1.118 3.856-1.298 3.759-1.478 3.663-1.66 3.569-1.843 3.477-2.026 3.387-2.21 3.3-2.396 3.213-2.581 3.129-2.766 3.048-2.952 2.968-3.137 2.891-3.323 2.816-3.508 2.744-3.693 2.673-3.875 2.606-4.059 2.541-4.24 2.477-4.421 2.418-4.6 2.359-4.778 2.305-4.953 2.251-5.127 2.201-5.3 2.154-5.469 2.107-5.636 2.065-5.801 2.024-5.963 1.986-6.123 1.95-6.279 1.917-6.433 1.885-6.583 1.856-6.729 1.828-6.872 1.804-7.012 1.781-7.148 1.759-7.28 1.741-7.407 1.723-7.531 1.708-7.651 1.694-7.766 1.681-7.876 1.67-7.982 1.66-8.084 1.653-8.18 1.645-8.272 1.639-8.36 1.633-8.441 1.63-8.517 1.626-8.59 1.623-8.656 1.621-8.718 1.619-8.774 1.617-8.825 1.616-143.718 25.369-8.868 1.508-8.823 1.491-8.773 1.472-8.719 1.449-8.659 1.426-8.595 1.399-8.526 1.372-8.453 1.34-8.376 1.307-8.293 1.272-8.208 1.233-8.117 1.192-8.022 1.148-7.925 1.101-7.822 1.052-7.717.999-7.607.944-7.495.886-7.38.824-7.26.759-7.139.692-7.014.62-6.887.547-6.757.47-6.625.389-6.49.306-6.354.219-6.216.13-6.075.036-5.934-.059-5.79-.159-5.646-.261-5.5-.366-5.353-.475-5.206-.585-5.058-.7-4.908-.817-4.76-.937-4.61-1.058-4.461-1.185-4.312-1.311-4.162-1.442-4.013-1.575-3.866-1.709-3.717-1.846-3.571-1.986-3.424-2.126-3.28-2.27-3.136-2.415-2.994-2.561-2.852-2.71-2.713-2.859-2.575-3.01-2.439-3.162-2.305-3.315-2.173-3.469-2.043-3.624-1.914-3.78-1.789-3.936-1.666-4.091-1.544-4.249-1.426-4.404-1.311-4.562-1.197-4.717-1.086-4.873-.979-5.029-.874-5.183-.772-5.337-.673-5.489-.576-5.641-.483-5.79-.393-5.94-.306-6.086-.221-6.231-.14-6.375-.062-6.515.013-6.654.085-6.791.154-6.924.221-7.055.283-7.184.344-7.308.4-7.431.455-7.549.507-7.664.555-7.776.601-7.884.644-7.989.685-8.088.723-8.185.758-8.277.791-8.364.822-8.448.85-8.527.877-8.601.9-8.671.923-8.736.943-8.795.96-8.851.978-8.901 17.974-153.891 1.101-8.898 1.105-8.846 1.11-8.789 1.116-8.728 1.121-8.66 1.129-8.589 1.137-8.511 1.147-8.429 1.156-8.342 1.169-8.249 1.181-8.154 1.195-8.052 1.212-7.946 1.229-7.835 1.248-7.721 1.27-7.602 1.293-7.479 1.318-7.352 1.344-7.221 1.374-7.086 1.406-6.947 1.439-6.806 1.474-6.66 1.513-6.512 1.554-6.36 1.596-6.205 1.642-6.048 1.69-5.888 1.74-5.726 1.793-5.561 1.849-5.393 1.907-5.225 1.968-5.053 2.031-4.881 2.097-4.707 2.165-4.531 2.237-4.354 2.31-4.176 2.386-3.998 2.464-3.818 2.546-3.638 2.629-3.457 2.715-3.277 2.803-3.096 2.894-2.916 2.986-2.735 3.081-2.554 3.178-2.376 3.276-2.196 3.378-2.019 3.48-1.841 3.585-1.666 3.69-1.492 3.799-1.318 3.907-1.147 4.018-.977 4.13-.81 4.243-.643 4.357-.48 4.472-.318 4.587-.158 4.704-.003 4.821.152 4.938.304 5.057.452 5.174.598 5.291.742 5.41.88 5.528 1.018 5.644 1.151L335 59.781l5.877 1.409 5.993 1.532 6.106 1.652 6.22 1.768 6.331 1.882 6.442 1.991 6.551 2.097 6.658 2.2 6.764 2.297L398.808 79l6.968 2.484 7.067 2.57 7.164 2.655 7.257 2.735 7.349 2.81 7.437 2.884 7.523 2.952 7.605 3.018 7.684 3.079 7.76 3.137 7.833 3.192 7.901 3.242 7.966 3.291 8.028 3.334 8.085 3.376 8.137 3.413 8.187 3.447 8.232 3.479 8.272 3.507 134.006 57.809 8.225 3.609 8.176 3.6 8.122 3.588 8.063 3.576 7.999 3.564 7.93 3.549 7.855 3.536 7.776 3.521 7.691 3.506 7.601 3.49 7.507 3.476 7.407 3.46 7.303 3.445 7.194 3.43 7.08 3.415 6.961 3.402 6.839 3.388 6.711 3.375 6.58 3.363 6.444 3.352 6.303 3.343 6.159 3.333 6.011 3.325 5.859 3.319 5.704 3.314 5.544 3.31 5.382 3.308 5.216 3.307 5.046 3.309 4.875 3.311 4.7 3.316 4.521 3.322 4.342 3.331 4.159 3.342 3.973 3.354 3.787 3.368 3.598 3.385 3.406 3.403 3.214 3.425 3.02 3.447 2.825 3.473 2.628 3.5 2.431 3.53 2.233 3.561 2.034 3.595 1.834 3.632 1.635 3.67 1.435 3.711 1.235 3.753 1.036 3.798.837 3.845.638 3.894.44 3.945.244 3.998.047 4.052-.147 4.109-.341 4.167-.533 4.228-.723 4.289-.911 4.352-1.098 4.417-1.282 4.483-1.464 4.551-1.644 4.619-1.821 4.689-1.996 4.76-2.167 4.831-2.336 4.904-2.502 4.977-2.665 5.051-2.824 5.125-2.98 5.2-3.133 5.275-3.282 5.349-3.428 5.425-3.569 5.499-3.707 5.574-3.841 5.648-3.971 5.721-4.097 5.795-4.219 5.866-4.337 5.938-4.45 6.008-4.56 6.077-4.665 6.145-4.765 6.211-4.862 6.275-4.954 6.338-5.042 6.399-5.125 6.458-5.204 6.515-5.279 6.569-5.349 6.622-5.414 6.671-5.476 6.717-5.533 6.762-5.586 6.803-5.635 6.842-5.678 6.876-5.719 6.909-99.607 118.675-5.802 6.816-5.777 6.77-5.749 6.718-5.719 6.662-5.686 6.601-5.653 6.536-5.616 6.465-5.578 6.391-5.539 6.31-5.497 6.226-5.455 6.136-5.411 6.043-5.365 5.944-5.319 5.841-5.272 5.733-5.225 5.62-5.175 5.504-5.127 5.383-5.077 5.257-5.027 5.127-4.978 4.993-4.927 4.855-4.878 4.713-4.828 4.566-4.778 4.416-4.73 4.263-4.681 4.105-4.634 3.944-4.587 3.779-4.54 3.612-4.496 3.44-4.451 3.267-4.409 3.089-4.367 2.909-4.327 2.727-4.288 2.542-4.25 2.355-4.215 2.165-4.18 1.972-4.149 1.78-4.117 1.584-4.088 1.386-4.062 1.189-4.036.988-4.013.788-3.991.585-3.973.383-3.956.179-3.94-.024-3.928-.229-3.916-.433-3.908-.637-3.902-.841-3.897-1.044-3.894-1.248-3.894-1.45-3.896-1.652-3.9-1.851-3.905-2.051-3.914-2.249-3.923-2.445-3.935-2.639-3.948-2.831-3.964-3.022-3.981-3.211-4-3.397-4.02-3.58-4.042-3.76-4.066-3.939-4.09-4.114-4.117-4.286-4.145-4.455-4.173-4.62-4.203-4.783-4.233-4.941-4.265-5.096-4.298-5.246-4.33-5.394-4.364-5.537-4.398-5.676-4.433-5.811-4.466-5.941-4.502-6.068-4.536-6.188-4.571-6.307-4.605-6.418-4.64-6.527-4.672-6.63-4.705-6.728-4.738-6.822-4.768-6.91-4.799-6.995-4.828-7.073-4.855-7.148-4.882-7.216-4.907-7.281-4.93-7.34-4.952-7.394-4.971-7.444-85.156-129.437-4.878-7.525-4.842-7.489-4.802-7.45-4.759-7.406-4.711-7.358-4.659-7.308-4.603-7.255-4.544-7.198-4.481-7.137-4.412-7.075-4.341-7.01-4.265-6.941-4.185-6.87-4.101-6.798-4.012-6.722-3.92-6.645-3.824-6.565-3.723-6.484-3.618-6.402-3.51-6.317-3.397-6.231-3.28-6.144-3.16-6.056-3.034-5.966-2.907-5.877-2.775-5.786-2.639-5.694-2.5-5.603-2.356-5.511-2.21-5.418-2.06-5.326-1.908-5.234-1.752-5.142-1.592-5.051-1.43-4.959-1.265-4.869-1.096-4.779-.927-4.69-.753-4.602-.578-4.515-.4-4.428-.22-4.345-.039-4.26.145-4.179.33-4.099.518-4.019.705-3.943.896-3.867 1.085-3.793 1.277-3.722 1.47-3.653 1.662-3.584 1.856-3.519 2.05-3.456 2.243-3.394 2.437-3.335 2.63-3.279 2.825-3.223 3.016-3.172 3.209-3.121 3.4-3.073L57.734 275l3.778-2.985 3.966-2.944 4.152-2.906 4.336-2.87 4.518-2.836 4.699-2.805 4.877-2.775 5.052-2.748 5.226-2.723 5.396-2.7 5.564-2.68 5.729-2.66 5.891-2.644 6.05-2.63 6.204-2.616 6.357-2.605 6.504-2.596 6.648-2.587 6.789-2.582 6.926-2.577 7.057-2.573 7.186-2.571 7.309-2.57 7.429-2.571 7.543-2.572 7.653-2.573 7.759-2.577 7.859-2.58 7.955-2.585 8.046-2.589 8.132-2.595 8.212-2.599 8.288-2.605 8.358-2.611 8.424-2.616 8.484-2.621 8.538-2.626 8.588-2.631 139.812-41.86 8.623-2.523 8.58-2.5 8.532-2.473 8.479-2.446 8.422-2.414 8.36-2.38 8.295-2.343 8.224-2.304 8.15-2.261 8.072-2.215 7.99-2.166 7.905-2.115 7.814-2.059 7.722-2 7.626-1.94 7.526-1.873 7.423-1.805 7.318-1.733 7.209-1.658 7.098-1.579 6.985-1.497 6.868-1.411 6.75-1.323 6.63-1.23 6.507-1.134 6.384-1.035 6.257-.932 6.13-.826 6.001-.717 5.871-.604 5.74-.489 5.609-.369 5.475-.247 5.343-.122 5.208.006 5.075.138 4.94.271 4.807.409 4.672.548 4.538.69 4.405.835 4.272.982 4.139 1.131 4.009 1.283 3.877 1.437 3.748 1.593 3.62 1.75 3.493 1.91 3.367 2.07 3.243 2.233 3.121 2.397 2.999 2.562 2.881 2.727 2.764 2.895 2.649 3.063 2.535 3.231 2.425 3.401 2.316 3.569 2.211 3.739 2.106 3.909 2.005 4.078 1.906 4.247 1.809 4.416 1.716 4.585 1.625 4.751 1.537 4.918 1.45 5.084 1.368 5.247 1.288 5.41 1.21 5.572 1.136 5.731 1.064 5.889.995 6.044.929 6.197.865 6.349.805 6.497.747 6.643.691 6.786.639 6.927.59 7.063.542 7.198.497 7.328.456 7.454.415 7.579.379 7.697.344 7.814.311 7.925.281 8.033.253 8.136.226 8.235.203 8.33.18 8.419.16 8.505.142 8.586.124 8.661.109 8.732.095 8.798.082 8.859.07 8.914.061 8.965-.013 154.938-.062 8.954-.073 8.902-.085 8.846-.098 8.784-.112 8.717-.128 8.644-.146 8.568-.164 8.487-.185 8.4-.208 8.309-.232 8.213-.259 8.114-.287 8.009-.319 7.901-.351 7.788-.387 7.672-.424 7.551-.465 7.427-.507 7.299-.552 7.168-.6 7.033-.651 6.896-.703 6.754-.76 6.611-.818 6.465-.879 6.315-.943 6.164-1.01 6.01-1.08 5.853-1.152 5.696-1.227 5.536-1.305 5.374-1.386 5.212-1.47 5.046-1.556 4.881-1.645 4.715-1.736 4.547-1.831 4.378-1.928 4.21-2.027 4.04-2.129 3.872-2.234 3.701-2.34 3.532-2.449 3.363-2.561 3.193-2.674 3.026-2.789 2.858-2.907 2.691-3.027 2.525-3.147 2.36-3.271 2.197-3.395 2.034-3.52 1.874-3.649 1.715-3.776 1.558-3.907 1.403-4.037 1.249-4.169 1.098-4.302.949-4.434.803-4.568.658-4.702.517-4.836.378-4.97.241-5.105.108-5.238-.022-5.372-.15-5.505-.275-5.638-.396-5.769-.514-5.9-.629-6.03-.742-6.159-.85-6.285-.955-6.411-1.057-6.534-1.156-6.657-1.251-6.777-1.342-6.894-1.431-7.01-1.516-7.123-1.597-7.234-1.674-7.341-1.75-7.447-1.82-7.548-1.889-7.647-1.953-7.743-2.013-7.835-2.072-7.923-2.126-8.009-2.177-8.09-2.226-8.167-2.271-8.24-2.313-8.309-2.351-8.375-2.388-8.435-2.422-8.491-2.451-8.543-2.48-8.59-2.505-8.632-2.528-139.802-41.882-8.578-2.629-8.527-2.625-8.471-2.62-8.409-2.615-8.344-2.609-8.271-2.604-8.195-2.599-8.113-2.593-8.026-2.588-7.934-2.584-7.838-2.579-7.736-2.576-7.629-2.574-7.518-2.571-7.402-2.57-7.283-2.571-7.157-2.571-7.029-2.574-6.895-2.578-6.758-2.583-6.617-2.589-6.472-2.597-6.323-2.608-6.17-2.619-6.015-2.632-5.855-2.648-5.692-2.665-5.528-2.684-5.358-2.705-5.188-2.728-5.014-2.754-4.837-2.781-4.659-2.812-4.478-2.843-4.295-2.878-4.11-2.914-3.925-2.953-3.736-2.995-3.548-3.038-3.357-3.084-3.166-3.132-2.974-3.183-2.781-3.235-2.588-3.291-2.394-3.348-2.2-3.408-2.007-3.469-1.813-3.534-1.62-3.599-1.426-3.668-1.234-3.738-1.044-3.809-.852-3.884-.664-3.96-.476-4.037-.289-4.116-.104-4.197.08-4.279.26-4.362.44-4.448.616-4.534.792-4.622.965-4.709 1.134-4.799 1.302-4.889 1.466-4.979 1.627-5.071 1.787-5.163 1.941-5.254 2.095-5.347 2.243-5.439 2.388-5.531 2.531-5.623 2.67-5.715 2.804-5.806 2.936-5.897 3.063-5.986 3.186-6.076 3.307-6.163 3.422-6.251 3.534-6.335 3.642-6.42 3.745-6.503 3.846-6.583 3.94-6.662 4.033-6.739 4.12-6.814 4.203-6.886 4.282-6.957 4.357-7.024 4.428-7.089 4.495-7.151 4.558-7.211 4.616-7.267 4.671-7.319 4.722-7.37 4.768-7.416 4.812-7.458 4.85-7.498 4.886-7.533 80.188-121.939 4.985-7.479 4.968-7.433 4.947-7.382 4.925-7.328 4.901-7.267 4.876-7.202 4.85-7.131 4.821-7.056 4.792-6.977 4.762-6.891 4.73-6.801 4.698-6.707 4.665-6.607 4.632-6.503 4.598-6.394 4.563-6.281 4.528-6.162 4.494-6.04 4.46-5.913 4.424-5.78 4.391-5.646 4.356-5.506 4.323-5.361 4.291-5.214 4.257-5.062 4.227-4.906 4.196-4.746 4.167-4.584 4.138-4.418 4.111-4.248 4.085-4.075 4.06-3.9 4.038-3.721 4.015-3.54 3.996-3.355 3.977-3.169 3.96-2.98 3.945-2.79 3.932-2.595 3.921-2.402L413.052 12l3.905-2.007 3.898-1.807 3.896-1.607 3.894-1.405 3.894-1.203 3.898-1 3.903-.795 3.909-.592 3.919-.387 3.931-.184 3.943.021 3.959.225 3.977.428 3.996.63 4.018.832 4.042 1.033 4.067 1.232 4.095 1.431 4.124 1.627 4.155 1.823 4.188 2.016 4.222 2.207 4.259 2.396 4.296 2.583 4.336 2.768 4.376 2.95 4.418 3.129 4.462 3.305 4.505 3.479 4.551 3.649 4.597 3.816 4.644 3.98 4.692 4.14 4.741 4.297 4.789 4.45 4.839 4.6 4.889 4.744 4.938 4.886 4.989 5.023 5.038 5.156 5.088 5.286 5.138 5.41 5.186 5.53 5.235 5.646 5.283 5.757 5.329 5.864 5.376 5.967 5.42 6.064 5.465 6.156 5.506 6.245 5.548 6.329 5.587 6.407 5.624 6.481 5.66 6.551 5.695 6.615 5.725 6.675 5.756 6.73 5.782 6.78 5.807 6.826 99.589 118.693 5.71 6.901 5.669 6.869 5.624 6.834 5.575 6.794 5.521 6.752 5.463 6.708 5.4 6.66 5.333 6.61 5.263 6.557 5.187 6.503 5.107 6.445 5.022 6.385 4.934 6.325 4.841 6.261 4.744 6.196 4.642 6.13 4.536 6.062 4.425 5.992 4.311 5.922 4.192 5.851 4.07 5.779 3.942 5.705 3.812 5.631 3.677 5.558 3.538 5.482 3.395 5.408 3.249 5.333 3.1 5.258 2.946 5.183 2.789 5.109 2.628 5.034 2.466 4.961 2.299 4.888 2.129 4.815 1.958 4.744 1.782 4.674 1.604 4.603 1.424 4.536 1.241 4.468 1.057 4.403.869 4.338.681 4.275.49 4.214.298 4.154.104 4.097-.09 4.04-.287 3.985-.485 3.934-.682 3.883-.881 3.834-1.08 3.788-1.28 3.744-1.479 3.701-1.679 3.662-1.879 3.623-2.078 3.588-2.276 3.554-2.475 3.523-2.672 3.494-2.868 3.466-3.064 3.443-3.257 3.419-3.449 3.399-3.639 3.381-3.829 3.365-4.015 3.351-4.199 3.339-4.382 3.329-4.562 3.321-4.738 3.315-4.913 3.31-5.085 3.308-5.253 3.308-5.418 3.308-5.58 3.311-5.738 3.314-5.893 3.321-6.045 3.327-6.191 3.335-6.335 3.344-6.474 3.355-6.609 3.365-6.74 3.379-6.867 3.39-6.988 3.405-7.106 3.419-7.218 3.433-7.327 3.448-7.43 3.464-7.528 3.478-7.621 3.495-7.711 3.509-7.793 3.524-7.872 3.539-7.946 3.552-8.014 3.567-8.076 3.579-8.135 3.591-8.187 3.601-142.249 61.399-8.263 3.501-8.223 3.472-8.176 3.44-8.126 3.405-8.073 3.367-8.014 3.325-7.952 3.28-7.886 3.232-7.817 3.179-7.744 3.125-7.667 3.066-7.587 3.003-7.504 2.937-7.418 2.868-7.328 2.794-7.237 2.717-7.142 2.637-7.045 2.551-6.946 2.464-6.844 2.372-6.74 2.276-6.635 2.176-6.526 2.074-6.418 1.967-6.307 1.857-6.194 1.743-6.082 1.626-5.966 1.505-5.852 1.381-5.735 1.253-5.619 1.121-5.501.988-5.384.85-5.266.71-5.147.566-5.03.419-4.913.271-4.794.118-4.679-.037-4.561-.194-4.447-.354-4.331-.516-4.218-.68-4.104-.846-3.994-1.015-3.883-1.185-3.774-1.357-3.667-1.53-3.562-1.704-3.457-1.881-3.355-2.058-3.254-2.236-3.156-2.415-3.06-2.595-2.966-2.775-2.873-2.955-2.783-3.137-2.696-3.317-2.61-3.497-2.528-3.678-2.447-3.858-2.369-4.038-2.293-4.215-2.22-4.394-2.151-4.57-2.082-4.746-2.016-4.919-1.954-5.092-1.894-5.262-1.837-5.431-1.781-5.597-1.729-5.762-1.679-5.924-1.631-6.083-1.587-6.24-1.544-6.394-1.504-6.545-1.467-6.693-1.431-6.837-1.398-6.979-1.368-7.116-1.338-7.25-1.312-7.381-1.288-7.506-1.264-7.629-1.245-7.747-1.225-7.86-1.208-7.97-1.192-8.075-1.178-8.175-1.165-8.271-1.155-8.361-1.144-8.448-1.135-8.529-1.127-8.605-1.121-8.675-1.114-8.742-1.109-8.803-1.104-8.858-1.099-8.908-16.96-144.953-.989-8.936-.974-8.891-.957-8.838-.939-8.783-.918-8.722-.895-8.656-.871-8.585-.844-8.509-.815-8.43-.784-8.346-.751-8.256-.714-8.164-.676-8.067-.635-7.965-.591-7.861-.545-7.751-.495-7.639-.444-7.524-.388-7.403-.33-7.281-.27-7.155-.206-7.027-.139-6.895-.069-6.76.003-6.624.079-6.484.158-6.343.24-6.199.324-6.054.413-5.906.504-5.758.597-5.607.695-5.455.794-5.303.897-5.149 1.003-4.994 1.11-4.839 1.222-4.683 1.336-4.526 1.452-4.37 1.572-4.214 1.692-4.057 1.817-3.901 1.943-3.745 2.071-3.589 2.202-3.435 2.334-3.281 2.47-3.129 2.605-2.976 2.744-2.826 2.884-2.676 3.025-2.529 3.168-2.382 3.311-2.238 3.457-2.095 3.604-1.955 3.75-1.815 3.898-1.68 4.046-1.544 4.196-1.413 4.344-1.283 4.494-1.156 4.644-1.032 4.793-.909 4.942-.791 5.09-.674 5.239-.561 5.386-.45 5.532-.343 5.678-.238 5.823-.136 5.965-.038 6.106.057 6.247.15 6.384.238 6.521.325 6.654.408 6.786.487 6.915.563 7.042.637 7.167.707 7.287.774 7.405.838 7.52.898 7.632.957 7.741 1.011 7.845 1.063 7.947 1.112 8.044 1.158 8.137 1.201 8.227 1.242 8.312 1.28 8.393 1.315 8.47 1.347 8.542 1.378 8.61 1.406 8.672 1.431 8.731 1.454 8.785 1.476 8.833 1.495 152.585 26.903 8.814 1.616 8.762 1.617 8.704 1.62 8.642 1.621 8.574 1.624 8.501 1.627 8.424 1.63 8.34 1.635 8.252 1.64 8.16 1.647 8.061 1.654 7.959 1.662 7.852 1.673 7.741 1.683 7.624 1.697 7.504 1.711 7.38 1.727 7.25 1.745 7.118 1.764 6.982 1.786 6.841 1.809 6.697 1.834 6.549 1.862 6.399 1.892 6.245 1.924 6.087 1.957 5.928 1.995 5.765 2.033 5.599 2.074 5.432 2.118 5.261 2.163 5.089 2.212 4.914 2.263 4.738 2.317 4.561 2.372 4.381 2.431 4.2 2.491 4.018 2.555 3.835 2.621 3.652 2.688 3.467 2.76 3.281 2.832 3.097 2.908 2.91 2.986 2.726 3.066 2.539 3.147 2.354 3.232 2.17 3.319 1.985 3.407 1.802 3.498 1.62 3.59 1.438 3.684 1.257 3.78 1.079 3.877.902 3.977.726 4.077.552 4.18.38 4.282.21 4.387.042 4.493-.123 4.599-.287 4.706-.446 4.814-.605 4.922-.76 5.031-.911 5.141-1.062 5.25-1.207 5.359-1.35 5.469-1.491 5.578-1.626 5.687-1.76 5.795-1.89 5.903-2.016 6.01-2.138 6.116-2.258 6.221-2.372 6.325-2.485 6.427-2.592 6.528-2.696 6.627-2.797 6.725-2.893 6.821-2.986 6.914-3.075 7.005-3.159 7.094-3.241 7.181-3.318 7.265-3.391 7.345-3.461 7.424-3.526 7.499-3.589 7.571-3.647 7.64-3.701 7.705-3.753 7.767-3.8 7.826-3.844 7.879-3.884 7.93-3.921 7.977-3.954 8.019-3.985 8.058-65.51 130.413-4.081 7.997-4.068 7.948-4.053 7.895-4.037 7.836-4.021 7.772-4.003 7.703-3.985 7.63-3.965 7.55-3.945 7.466-3.925 7.377-3.904 7.283-3.883 7.184-3.862 7.081-3.84 6.972-3.82 6.859-3.798 6.741-3.778 6.619-3.758 6.492-3.739 6.36-3.719 6.225-3.702 6.086-3.684 5.941-3.668 5.794-3.652 5.642-3.639 5.487-3.625 5.328-3.615 5.165-3.604 4.999-3.595 4.83-3.589 4.658-3.583 4.483-3.58 4.304-3.577 4.124-3.578 3.941-3.58 3.754-3.583 3.567-3.589 3.377-3.596 3.186-3.607 2.991-3.618 2.797-3.633 2.6-3.648 2.402-3.667 2.203-3.687 2.003-3.71 1.803-3.735 1.602-3.761 1.4-3.791 1.198-3.821.997-3.855.795-3.891.593-3.928.392-3.967.192-4.009-.008-4.053-.206-4.097-.404-4.145-.601-4.194-.795-4.244-.989-4.297-1.18-4.351-1.371-4.406-1.557-4.463-1.744-4.522-1.926-4.58-2.107-4.641-2.285-4.703-2.461-4.766-2.633-4.829-2.803-4.893-2.969-4.958-3.132-5.024-3.292-5.09-3.449-5.156-3.601-5.222-3.751-5.288-3.896-5.355-4.038-5.421-4.175-5.487-4.309-5.553-4.439-5.617-4.564-5.682-4.686-5.745-4.803-5.807-4.915-5.869-5.024-5.928-5.128-5.988-5.228-6.044-5.323-6.1-5.413-6.154-5.5-6.206-5.581-6.256-5.659-6.303-5.731-6.349-5.799-6.392-5.863-6.432-5.922-6.47-5.977-6.506-6.027-6.537-6.073-6.567-6.115-112.675-106.345-6.463-6.186-6.418-6.158-6.367-6.126-6.313-6.094-6.254-6.058-6.19-6.019-6.121-5.979-6.048-5.936-5.971-5.892-5.888-5.846-5.8-5.798-5.71-5.748-5.613-5.697-5.512-5.645-5.407-5.592-5.297-5.537-5.183-5.482-5.064-5.425-4.942-5.369-4.814-5.312-4.683-5.254-4.548-5.196-4.408-5.138-4.264-5.08-4.118-5.022-3.966-4.964-3.811-4.907-3.653-4.85-3.492-4.793-3.326-4.738-3.157-4.683-2.986-4.629-2.812-4.576-2.634-4.524-2.454-4.474-2.272-4.424-2.086-4.376-1.899-4.329-1.709-4.284-1.517-4.241-1.324-4.198-1.129-4.159-.932-4.12-.734-4.083-.534-4.049-.334-4.016-.133-3.986.07-3.956.272-3.93.475-3.906.679-3.883.882-3.862 1.085-3.845 1.288-3.828 1.49-3.814 1.693-3.802 1.894-3.793 2.093-3.784 2.293-3.78 2.49-3.775 2.687-3.775 2.881-3.775 3.075-3.777 3.265-3.782 3.453-3.788 3.64-3.796 3.825-3.807 4.006-3.817 4.185-3.832 4.361-3.846 4.534-3.862 4.704-3.88 4.87-3.899 5.034-3.92 5.193-3.941 5.35-3.963 5.501-3.988 5.65-4.012 5.794-4.037 5.935-4.063 6.071-4.089 6.203-4.116 6.33-4.144 6.454-4.172 6.572-4.199 6.686-4.226 6.795-4.254 6.899-4.282 7-4.309 7.094-4.335 7.184-4.361 7.269-4.386 7.35-4.41 7.424-4.434 7.495-4.456 7.559-4.477 7.62-4.497 7.674-4.515 7.725-4.532 134.175-77.477 7.793-4.429 7.755-4.396 7.711-4.357 7.666-4.316 7.615-4.27 7.562-4.222 7.504-4.169 7.444-4.112 7.38-4.053 7.314-3.987 7.243-3.92 7.171-3.847 7.095-3.771 7.017-3.691 6.937-3.607 6.853-3.52 6.769-3.426 6.682-3.33 6.592-3.231 6.502-3.127 6.41-3.018 6.315-2.907 6.221-2.792 6.124-2.671 6.027-2.549 5.928-2.422 5.829-2.291 5.73-2.157 5.629-2.02 5.529-1.878 5.427-1.734 5.327-1.586 5.226-1.436 5.125-1.281 5.025-1.125 4.925-.964 4.826-.802 4.727-.637 4.628-.469 4.532-.299 4.436-.126 4.341.05 4.247.225 4.155.404 4.064.585 3.975.767 3.887.95 3.8 1.136 3.717 1.321 3.634 1.509 3.553 1.696 3.475 1.886 3.398 2.075 3.324 2.264 3.251 2.454 3.182 2.645 3.113 2.834 3.049 3.024 2.984 3.213 2.924 3.402 2.866 3.59 2.809 3.776 2.756 3.963 2.704 4.147 2.655 4.33 2.609 4.513 2.564 4.692 2.523 4.87 2.483 5.046 2.447 5.219 2.411 5.391 2.379 5.56 2.349 5.726 2.321 5.889 2.294 6.049 2.271 6.206 2.25 6.361 2.229 6.51 2.211 6.658 2.196 6.801 2.181 6.94 2.169 7.075 2.157 7.208 2.148 7.334 2.141 7.457 2.133 7.577 2.129 7.69 2.124 7.8 2.121 7.905 2.119 8.005 2.117 8.1 2.117 8.191 2.117 8.276 2.118 8.357 2.119 8.432 2.121 8.503 2.121 8.567 2.124 8.627 2.125 8.682 2.127 8.73 33.651 142.011 2.016 8.752 1.994 8.706 1.971 8.657 1.946 8.601 1.918 8.543 1.887 8.478 1.854 8.411 1.818 8.337 1.779 8.261 1.739 8.179 1.694 8.095 1.646 8.005 1.597 7.913 1.543 7.816 1.486 7.716 1.428 7.612 1.364 7.506 1.299 7.396 1.229 7.283 1.157 7.167 1.082 7.049 1.002 6.928.92 6.804.834 6.678.746 6.551.653 6.42.558 6.289.459 6.155.357 6.02.252 5.884.144 5.746.032 5.608-.082 5.468-.2 5.327-.32 5.187-.444 5.045-.57 4.903-.699 4.762-.831 4.619-.966 4.477-1.102 4.336-1.242 4.195-1.383 4.054-1.527 3.914-1.674 3.774-1.821 3.637-1.972 3.499-2.123 3.364-2.277 3.228-2.432 3.096-2.589 2.964-2.746 2.834-2.905 2.705-3.066 2.579-3.226 2.455-3.389 2.332-3.55 2.213-3.713 2.094-3.876 1.978-4.04 1.865-4.203 1.755-4.366 1.646-4.528 1.54-4.691 1.437-4.853 1.337-5.014 1.239-5.174 1.144-5.333 1.052-5.49.963-5.647.876-5.801.793-5.955.713-6.105.635-6.255.56-6.402.488-6.546.419-6.688.354-6.828.29-6.964.23-7.098.172-7.229.118-7.356.066-7.479.017-7.601-.03-7.717-.074-7.831-.114-7.94-.154-8.045-.19-8.146-.224-8.243-.255-8.335-.285-8.424-.312-8.508-.336-8.586-.361-8.66-.381-8.73-.401-8.794-.418-8.854-.435-8.908-.449-8.958-.462-145.694-8.455-8.979-.577-8.931-.583-8.878-.592-8.82-.599-8.757-.61-8.689-.62-8.616-.631-8.538-.645-8.454-.659-8.367-.674-8.274-.693-8.177-.711-8.075-.732-7.97-.755-7.858-.779-7.744-.806-7.625-.835-7.502-.866-7.376-.899-7.245-.934-7.111-.971-6.974-1.012-6.833-1.055-6.689-1.099-6.542-1.147-6.392-1.197-6.239-1.25-6.084-1.305-5.927-1.363-5.766-1.424-5.604-1.487-5.44-1.554-5.274-1.622-5.106-1.693-4.938-1.768-4.766-1.844-4.595-1.924-4.423-2.005-4.248-2.09-4.075-2.178-3.9-2.267-3.724-2.359-3.55-2.454-3.373-2.55-3.199-2.65-3.023-2.752-2.849-2.855-2.675-2.96-2.501-3.069-2.33-3.178-2.157-3.29-1.987-3.403-1.818-3.518-1.651-3.635-1.485-3.752-1.32-3.872-1.159-3.993-.997-4.114-.84-4.237-.683-4.361-.53-4.485-.377-4.61-.229-4.736-.083-4.861.061-4.987.202-5.114.34-5.24.474-5.366.606-5.491.735-5.617.86-5.741.983-5.865 1.101-5.988 1.217-6.109 1.33-6.23 1.438-6.35 1.543-6.467 1.645-6.583 1.743-6.698 1.838-6.809 1.928-6.921 2.017-7.028 2.1-7.133 2.18-7.237 2.258-7.337 2.33-7.435 2.4-7.529 2.467-7.621 2.53-7.709 2.588-7.794 2.645-7.876 2.696-7.953 2.747-8.028 2.792-8.098 2.834-8.165 2.875-8.227 2.911-8.285 2.944-8.339 2.975-8.389 3.003-8.434 52.975-145.599 3.123-8.405 3.116-8.355 3.107-8.299 3.099-8.238 3.089-8.171 3.079-8.099 3.07-8.023 3.06-7.941 3.049-7.854 3.04-7.761 3.03-7.665 3.021-7.564 3.011-7.457 3.004-7.345 2.995-7.23 2.989-7.109 2.983-6.984 2.978-6.855 2.974-6.721 2.971-6.584 2.97-6.442 2.969-6.296 2.971-6.147 2.974-5.993 2.978-5.837 2.984-5.677 2.992-5.513 3.002-5.346 3.013-5.177 3.027-5.004 3.042-4.829 3.06-4.65 3.079-4.471 3.101-4.289 3.125-4.103 3.151-3.917 3.179-3.729 3.209-3.538 3.243-3.348 3.277-3.154 3.315-2.96 3.354-2.766 3.395-2.57 3.44-2.375 3.486-2.177 3.534-1.98 3.585-1.784 3.638-1.586 3.693-1.39 3.749-1.192 3.809-.997 3.87-.802 3.932-.608 3.998-.415 4.064-.222 4.132-.032 4.203.157 4.274.345 4.347.53 4.421.715 4.498.896 4.574 1.076 4.653 1.253 4.732 1.427 4.812 1.6 4.894 1.768 4.975 1.935 5.057 2.098 5.141 2.26 5.223 2.415 5.307 2.57 5.391 2.72 5.474 2.866 5.558 3.01 5.641 3.15 5.723 3.286 5.806 3.418 5.887 3.546 5.969 3.67 6.048 3.791 6.126 3.907 6.205 4.02 6.28 4.127 6.355 4.23 6.429 4.331 6.5 4.426 6.569 4.517 6.636 4.604 6.702 4.687 6.764 4.766 6.826 4.839 6.883 4.909 6.938 4.975 6.991 5.037 7.04 5.093 7.086 5.147 7.13 5.196 7.17 5.241 7.206 5.282 7.239 5.319 117.065 87.151 7.172 5.409 7.127 5.389 7.078 5.366 7.024 5.34 6.964 5.314 6.9 5.284 6.831 5.253 6.757 5.22 6.678 5.186 6.595 5.151 6.506 5.115 6.414 5.076 6.316 5.038 6.213 4.998 6.106 4.958 5.994 4.917 5.877 4.875 5.757 4.834 5.632 4.792 5.502 4.749 5.368 4.708 5.23 4.665 5.088 4.624 4.942 4.582 4.791 4.541 4.638 4.501 4.48 4.462 4.319 4.422 4.155 4.385 3.986 4.348 3.815 4.311 3.641 4.278 3.463 4.243 3.283 4.212 3.101 4.181 2.915 4.152 2.728 4.124 2.537 4.099 2.346 4.074 2.151 4.052 1.955 4.031 1.759 4.013 1.559 3.995 1.359 3.981 1.158 3.968.955 3.957.753 3.949.549 3.942.344 3.937.14 3.935"/></svg>