<svg xmlns="http://www.w3.org/2000/svg" fill="none" viewBox="0 0 869 872"><path stroke="url(#paint0_linear_68_73)" stroke-width="2" d="M259.415 436l-.005 3.513-.016 3.514-.027 3.513-.038 3.511-.048 3.511-.058 3.508-.07 3.507-.08 3.504-.091 3.501-.101 3.499-.112 3.494-.122 3.491-.133 3.487-.143 3.482-.154 3.477-.164 3.472-.174 3.467-.184 3.46-.195 3.455-.205 3.448-.215 3.441-.224 3.433-.235 3.426-.245 3.419-.254 3.409-.264 3.402-.274 3.392-.283 3.383-.293 3.374-.302 3.363-.311 3.354-.32 3.342-.33 3.332-.338 3.321-.347 3.309-.356 3.297-.365 3.285-.373 3.273-.382 3.26-.389 3.246-.398 3.234-.406 3.219-.414 3.206-.422 3.191-.429 3.176-.437 3.161-.444 3.147-.451 3.13-.459 3.115-.465 3.099-.472 3.082-.479 3.065-.485 3.049-.491 3.031-.498 3.014-.503 2.996-.51 2.978-.515 2.959-.52 2.94-.526 2.922-.531 2.903-.536 2.883-.54 2.863-.545 2.844-.55 2.823-.554 2.803-.558 2.782-.562 2.761-.565 2.74-.569 2.718-.572 2.697-.575 2.675-.578 2.652-.581 2.631-.583 2.607-.585 2.585-.588 2.562-.589 2.539-.591 2.515-.593 2.492-.593 2.467-.595 2.444-.595 2.42-.596 2.394-.597 2.371-.596 2.345-.597 2.321-.596 2.295-.595 2.27-.595 2.244-.594 2.219-.592 2.193-.592 2.167-.589 2.14-.588 2.114-.585 2.088-.583 2.061-.581 2.035-.577 2.007-.575 1.98-.571 1.953-.568 1.926-.564 1.898-.56 1.871-.556 1.843-.551 1.816-.547 1.787-.541 1.759-.537 1.732-.531 1.703-.525 1.674-.519 1.647-.514 1.617-.507 1.59-.5 1.56-.493 1.532-.486 1.503-.479 1.475-.472 1.445-5.328 16.136-.34 1.036-.329 1.007-.317.978-.306.947-.294.919-.283.889-.269.86-.258.83-.244.802-.232.772-.218.742-.205.714-.192.684-.177.655-.164.626-.149.597-.135.569-.12.539-.105.51-.09.482-.075.452-.059.424-.043.396-.028.367-.011.339.005.31.022.282.038.254.056.226.072.198.09.17.107.143.125.114.143.088.161.06.179.032.197.006.217-.021.234-.049.254-.075.273-.101.292-.128.312-.155.331-.18.351-.207.371-.232.39-.258.411-.284.432-.309.451-.334.473-.36.493-.384.514-.408.535-.434.556-.457.578-.482.599-.506.62-.529.642-.553.664-.577.686-.599.708-.623.729-.645.752-.668.774-.69.797-.713 13.547-12.176 1.141-1.018 1.165-1.036 1.189-1.055 1.211-1.073 1.236-1.09 1.259-1.108 1.282-1.125 1.306-1.143 1.33-1.159 1.354-1.175 1.377-1.191 1.401-1.208 1.424-1.223 1.448-1.239 1.472-1.254 1.495-1.269 1.519-1.284 1.543-1.298 1.566-1.312 1.59-1.326 1.614-1.339 1.636-1.353 1.661-1.366 1.684-1.378 1.707-1.392 1.73-1.403 1.754-1.415 1.777-1.428 1.801-1.438 1.823-1.45 1.846-1.46 1.87-1.471 1.892-1.482 1.915-1.491 1.938-1.501 1.961-1.511 1.983-1.52 2.006-1.529 2.028-1.538 2.051-1.546 2.072-1.554 2.095-1.562 2.117-1.569 2.138-1.577 2.161-1.583 2.182-1.591 2.203-1.597 2.225-1.603 2.246-1.609 2.268-1.615 2.288-1.619 2.309-1.626 2.33-1.63 2.35-1.634 2.371-1.639 2.391-1.642 2.411-1.647 2.431-1.65 2.451-1.653 2.47-1.656 2.49-1.658 2.509-1.662 2.528-1.663 2.547-1.665 2.565-1.667 2.584-1.668 2.603-1.669 2.62-1.67 2.638-1.67 2.656-1.671 2.674-1.671 2.691-1.671 2.708-1.67 2.724-1.67 2.742-1.669 2.757-1.667 2.774-1.667 2.79-1.664 2.806-1.663 2.821-1.66 2.837-1.658 2.851-1.656 2.867-1.652 2.88-1.65 2.895-1.646 2.91-1.643 2.923-1.639 2.936-1.635 2.95-1.63 2.963-1.627 2.975-1.622 2.988-1.616 3.001-1.612 3.012-1.607 3.024-1.601 3.035-1.595 3.047-1.589 3.057-1.584 3.068-1.577 3.078-1.57 3.088-1.564 3.098-1.557 3.107-1.55 3.117-1.542 3.125-1.536 3.134-1.527 3.142-1.52 3.15-1.512 3.157-1.503 3.165-1.496 3.172-1.487 3.179-1.478 3.185-1.469 3.191-1.461 3.197-1.451 3.202-1.442 3.208-1.433 3.212-1.423 3.217-1.414 3.221-1.403 3.225-1.394 3.229-1.383 3.232-1.373 3.235-1.363 3.237-1.353 3.24-1.341 3.241-1.331 3.243-1.32 3.245-1.309 3.245-1.298 3.246-1.287 3.246-1.276 3.246-1.264 3.246-1.252 3.245-1.241 3.244-1.23 3.243-1.217 3.241-1.206 3.239-1.194 3.236-1.181 3.234-1.17 3.231-1.158 3.227-1.145 3.224-1.133 3.219-1.121 3.215-1.108 3.21-1.096 3.206-1.083 3.199-1.071 3.194-1.058 3.188-1.045 3.182-1.033 3.174-1.02 3.168-1.008 3.16-.994 3.152-.982 3.144-.969 3.136-.956 3.127-.943 3.118-.931 3.108-.917 3.099-.905 3.088-.892 3.078-.878 3.067-.867 3.056-.853 3.045-.84 3.033-.828 3.02-.814 3.008-.802 2.996-.789 2.982-.777 2.969-.763 2.956-.751 2.941-.739 2.927-.726 2.912-.713 2.898-.701 2.882-.688 2.866-.676 2.851-.664 2.834-.651 2.818-.639 2.801-.627 2.783-.615 2.767-.603 2.748-.591 2.731-.579 2.712-.568 2.694-.555 2.674-.545 2.656-.532 2.636-.522 2.616-.509 2.596-.499 2.576-.488 2.555-.477 2.534-.465 2.513-.455 2.492-.445 2.47-.434 2.448-.423 2.425-.413 2.404-.403 2.38-.393 2.357-.383 2.335-.373 2.31-.363 2.287-.354 2.263-.345 2.239-.335 2.214-.326 2.189-.318 2.165-.308 2.139-.3 2.114-.291 2.088-.283 2.062-.275 2.036-.267 2.01-.259 1.984-.251 1.956-.244 1.93-.236 1.903-.23 1.875-.222 1.848-.215 1.82-.209 1.793-.202 1.764-.196 1.736-.19 1.707-.183 1.679-.179 1.651-.172 1.621-.167 1.592-.162 1.563-.157 1.533-.152 1.504-.148 16.795-1.59 1.076-.104 1.044-.103 1.013-.101.981-.1.95-.1.918-.098.886-.098.854-.098.822-.098.79-.098.758-.099.726-.099.694-.1.661-.1.629-.103.597-.103.565-.106.532-.107.499-.109.467-.112.435-.114.402-.118.37-.12.337-.123.305-.127.272-.13.24-.135.207-.138.175-.143.142-.147.11-.152.077-.157.045-.162.013-.168-.02-.173-.052-.179-.084-.185-.116-.191-.148-.198-.181-.204-.212-.211-.245-.219-.276-.225-.308-.233-.34-.241-.371-.249-.403-.256-.435-.265-.466-.274-.497-.282-.528-.291-.559-.3-.59-.31-.622-.319-.651-.328-.683-.339-.713-.348-.743-.359-.774-.369-.804-.38-.833-.39-.864-.401-.893-.413-.923-.424-.952-.435-.981-.447-15.339-6.944-1.372-.627-1.399-.64-1.425-.655-1.451-.669-1.477-.683-1.503-.698-1.528-.712-1.553-.728-1.578-.742-1.603-.756-1.628-.773-1.652-.787-1.676-.802-1.699-.818-1.723-.833-1.747-.849-1.77-.865-1.792-.88-1.815-.897-1.838-.912-1.859-.928-1.882-.945-1.903-.96-1.924-.977-1.945-.993-1.966-1.01-1.987-1.026-2.007-1.043-2.026-1.059-2.047-1.076-2.066-1.093-2.085-1.109-2.104-1.127-2.122-1.143-2.141-1.16-2.158-1.177-2.177-1.194-2.194-1.211-2.211-1.228-2.227-1.245-2.245-1.262-2.26-1.279-2.277-1.296-2.292-1.313-2.308-1.331-2.322-1.347-2.338-1.365-2.352-1.382-2.366-1.399-2.38-1.416-2.393-1.433-2.407-1.45-2.419-1.467-2.433-1.484-2.444-1.501-2.457-1.518-2.468-1.535-2.48-1.552-2.49-1.569-2.502-1.586-2.512-1.602-2.522-1.619-2.532-1.635-2.541-1.652-2.551-1.669-2.56-1.685-2.568-1.702-2.576-1.717-2.584-1.734-2.592-1.75-2.599-1.766-2.607-1.783-2.612-1.798-2.62-1.813-2.625-1.83-2.631-1.845-2.637-1.86-2.641-1.876-2.647-1.891-2.65-1.907-2.656-1.921-2.658-1.936-2.663-1.951-2.666-1.966-2.668-1.98-2.671-1.994-2.674-2.009-2.676-2.023-2.677-2.037-2.678-2.05-2.68-2.064-2.681-2.078-2.681-2.091-2.681-2.104-2.681-2.118-2.68-2.13-2.68-2.143-2.679-2.155-2.678-2.168-2.676-2.18-2.674-2.191-2.672-2.204-2.669-2.215-2.666-2.227-2.664-2.238-2.66-2.248-2.657-2.26-2.652-2.27-2.649-2.281-2.644-2.291-2.639-2.3-2.634-2.311-2.629-2.32-2.623-2.33-2.618-2.338-2.611-2.348-2.605-2.356-2.598-2.365-2.592-2.372-2.584-2.381-2.577-2.389-2.57-2.396-2.561-2.403-2.553-2.41-2.545-2.417-2.536-2.424-2.527-2.43-2.518-2.436-2.509-2.441-2.499-2.447-2.489-2.452-2.479-2.458-2.469-2.462-2.458-2.466-2.448-2.471-2.437-2.475-2.425-2.478-2.414-2.481-2.402-2.485-2.391-2.488-2.379-2.49-2.366-2.492-2.354-2.494-2.341-2.496-2.329-2.498-2.315-2.498-2.302-2.5-2.289-2.5-2.276-2.5-2.261-2.5-2.248-2.5-2.234-2.5-2.219-2.498-2.205-2.497-2.19-2.496-2.176-2.494-2.161-2.492-2.145-2.489-2.131-2.487-2.115-2.484-2.099-2.48-2.084-2.477-2.069-2.473-2.052-2.469-2.036-2.465-2.02-2.459-2.004-2.455-1.988-2.449-1.971-2.443-1.954-2.437-1.938-2.431-1.92-2.424-1.904-2.418-1.887-2.41-1.87-2.402-1.852-2.395-1.835-2.387-1.818-2.378-1.8-2.369-1.783-2.36-1.765-2.35-1.747-2.341-1.73-2.331-1.711-2.321-1.694-2.31-1.676-2.299-1.658-2.288-1.64-2.276-1.621-2.264-1.604-2.252-1.585-2.24-1.567-2.227-1.549-2.214-1.531-2.201-1.512-2.186-1.494-2.173-1.476-2.159-1.457-2.144-1.439-2.129-1.42-2.114-1.403-2.099-1.383-2.083-1.366-2.067-1.347-2.05-1.329-2.034-1.31-2.017-1.292-2-1.274-1.982-1.255-1.965-1.237-1.947-1.219-1.928-1.201-1.91-1.182-1.89-1.165-1.872-1.146-1.853-1.129-1.832-1.11-1.813-1.093-1.793-1.074-1.772-1.057-1.75-1.039-1.731-1.022-1.71-1.004-1.687-.986-1.665-.969-1.644-.951-1.621-.934-1.6-.917-1.575-.9-1.553-.883-1.53-.866-1.507-.849-1.482-.833-1.459-.815-1.434-.8-1.41-.782-1.386-.767-1.36-.75-1.336-8.877-15.946-.523-.935-.51-.907-.495-.878-.482-.85-.468-.82-.455-.793-.442-.763-.429-.734-.416-.704-.403-.675-.391-.646-.378-.616-.367-.586-.354-.556-.343-.526-.331-.495-.32-.466-.308-.435-.298-.404-.286-.373-.276-.343-.266-.312-.256-.28-.245-.25-.235-.219-.226-.187-.217-.156-.207-.125-.198-.093-.19-.061-.18-.03-.173.002-.164.033-.156.066-.148.097-.141.13-.133.16-.127.193-.119.226-.112.257-.107.289-.099.321-.094.354-.088.385-.082.418-.077.45-.072.482-.066.514-.062.546-.058.579-.053.61-.049.643-.045.675-.041.706-.038.74-.035.77-.032.803-.029.834-.026.867-.024.898-.022.93-.021.962-.018.993-.017 1.025-.016 1.056-.015 1.088-.199 16.96-.023 1.517-.026 1.548-.028 1.577-.03 1.607-.034 1.636-.036 1.665-.04 1.695-.043 1.723-.046 1.752-.051 1.781-.054 1.81-.059 1.837-.063 1.866-.067 1.893-.073 1.922-.077 1.949-.082 1.976-.088 2.004-.094 2.03-.099 2.058-.104 2.084-.111 2.11-.118 2.137-.123 2.162-.13 2.189-.137 2.214-.144 2.239-.151 2.264-.158 2.29-.166 2.313-.173 2.339-.181 2.362-.188 2.387-.197 2.41-.205 2.433-.213 2.457-.222 2.48-.23 2.503-.239 2.524-.248 2.548-.257 2.569-.266 2.59-.275 2.613-.285 2.633-.295 2.654-.304 2.675-.313 2.695-.324 2.715-.334 2.734-.343 2.755-.354 2.773-.365 2.793-.375 2.81-.385 2.83-.396 2.847-.406 2.865-.418 2.882-.428 2.9-.44 2.916-.45 2.933-.462 2.949-.473 2.965-.484 2.98-.495 2.996-.507 3.011-.519 3.025-.53 3.04-.541 3.054-.554 3.067-.565 3.081-.576 3.094-.589 3.106-.601 3.119-.612 3.131-.624 3.143-.637 3.154-.648 3.165-.66 3.176-.673 3.187-.684 3.196-.697 3.206-.709 3.216-.72 3.225-.733 3.233-.745 3.242-.757 3.25-.77 3.258-.781 3.265-.793 3.272-.806 3.279-.817 3.285-.83 3.292-.842 3.297-.853 3.302-.866 3.307-.877 3.312-.89 3.317-.901 3.32-.913 3.324-.925 3.327-.936 3.33-.948 3.333-.96 3.335-.972 3.337-.982 3.339-.995 3.34-1.005 3.341-1.017 3.341-1.028 3.342-1.039 3.341-1.05 3.341-1.061 3.341-1.072 3.339-1.083 3.338-1.093 3.336-1.104 3.333-1.115 3.332-1.124 3.328-1.135 3.326-1.146 3.322-1.155 3.318-1.165 3.314-1.175 3.31-1.184 3.305-1.194 3.3-1.204 3.294-1.212 3.289-1.222 3.283-1.231 3.276-1.24 3.269-1.248 3.263-1.257 3.255-1.265 3.248-1.274 3.24-1.282 3.231-1.29 3.223-1.297 3.214-1.305 3.205-1.313 3.195-1.319 3.185-1.327 3.176-1.334 3.165-1.341 3.154-1.347 3.144-1.354 3.132-1.359 3.121-1.366 3.109-1.372 3.096-1.377 3.085-1.383 3.071-1.388 3.059-1.393 3.045-1.398 3.032-1.402 3.019-1.407 3.004-1.411 2.99-1.415 2.975-1.419 2.96-1.423 2.946-1.426 2.93-1.429 2.914-1.432 2.899-1.434 2.883-1.438 2.866-1.439 2.85-1.441 2.832-1.443 2.816-1.445 2.799-1.446 2.781-1.447 2.763-1.448 2.746-1.449 2.727-1.449 2.709-1.449 2.691-1.449 2.671-1.449 2.653-1.448 2.633-1.447 2.614-1.446 2.594-1.445 2.575-1.443 2.554-1.441 2.535-1.439 2.514-1.437 2.493-1.434 2.473-1.431 2.452-1.428 2.431-1.424 2.409-1.421 2.388-1.417 2.367-1.413 2.345-1.409 2.323-1.403 2.301-1.399 2.279-1.394 2.256-1.388 2.235-1.382 2.211-1.376 2.189-1.37 2.166-1.363 2.143-1.356 2.12-1.35 2.097-1.342 2.074-1.334 2.05-1.326 2.027-1.318 2.003-1.31 1.979-1.301 1.955-1.292 1.932-1.283 1.908-1.273 1.883-1.264 1.86-1.253 1.835-1.243 1.811-1.232 1.786-1.222 1.762-1.211 1.738-1.199 1.713-1.187 1.688-1.176 1.664-1.163 1.639-1.151 1.615-1.138 1.589-1.125 1.565-1.112 1.54-1.098 1.515-1.085 1.49-1.071 1.466-1.056 1.44-1.042 1.415-1.027 1.391-1.012 1.365-.996 1.341-.982 1.316-.965 1.29-.949 1.266-.933 1.241-.917 1.216-10.298 13.558-.659.872-.64.847-.619.823-.599.8-.578.775-.558.751-.536.728-.515.704-.493.68-.471.657-.45.633-.427.61-.405.587-.383.564-.36.541-.337.518-.313.496-.29.473-.268.45-.243.428-.22.406-.195.384-.172.361-.147.34-.123.319-.098.297-.073.275-.048.255-.023.233.002.213.028.191.053.172.079.151.104.13.13.111.157.09.183.071.21.052.235.032.262.013.29-.006.315-.025.343-.043.37-.062.396-.08.424-.098.45-.115.48-.134.505-.151.534-.168.561-.185.589-.201.617-.219.644-.234.673-.251.7-.267.728-.283.757-.298.784-.313.813-.329.841-.343.869-.358.898-.372.925-.386.954-.401.983-.414 16.734-7.104 1.407-.591 1.436-.601 1.464-.611 1.493-.621 1.52-.629 1.548-.638 1.576-.648 1.604-.655 1.632-.664 1.659-.671 1.688-.679 1.714-.687 1.742-.694 1.77-.701 1.797-.708 1.824-.714 1.851-.72 1.879-.726 1.905-.732 1.932-.737 1.959-.743 1.985-.748 2.012-.752 2.038-.757 2.064-.761 2.09-.765 2.116-.769 2.142-.773 2.168-.775 2.193-.779 2.219-.782 2.244-.784 2.268-.786 2.294-.789 2.319-.79 2.342-.792 2.368-.794 2.391-.795 2.416-.795 2.439-.797 2.463-.796 2.487-.797 2.509-.798 2.533-.796 2.556-.797 2.578-.796 2.601-.795 2.623-.793 2.645-.793 2.667-.791 2.689-.789 2.709-.788 2.731-.785 2.752-.783 2.773-.78 2.793-.778 2.814-.774 2.833-.772 2.853-.768 2.873-.764 2.891-.761 2.911-.757 2.93-.752 2.948-.749 2.966-.743 2.984-.739 3.002-.734 3.019-.729 3.037-.724 3.053-.719 3.07-.712 3.086-.707 3.102-.701 3.118-.695 3.133-.689 3.149-.682 3.164-.676 3.178-.669 3.192-.662 3.206-.655 3.22-.648 3.234-.64 3.246-.633 3.259-.626 3.272-.617 3.284-.61 3.296-.601 3.307-.594 3.319-.585 3.329-.577 3.34-.568 3.351-.56 3.36-.551 3.37-.542 3.379-.533 3.388-.524 3.397-.515 3.405-.505 3.413-.497 3.42-.486 3.428-.477 3.435-.468 3.442-.458 3.448-.447 3.454-.438 3.459-.429 3.465-.418 3.47-.408 3.474-.397 3.479-.388 3.482-.377 3.486-.367 3.49-.356 3.492-.346 3.495-.336 3.497-.325 3.499-.314 3.5-.304 3.501-.293 3.503-.282 3.502-.272 3.503-.261 3.503-.25 3.502-.24 3.501-.229 3.5-.218 3.498-.207 3.496-.196 3.494-.186 3.491-.174 3.488-.164 3.485-.153 3.481-.143 3.477-.131 3.473-.121 3.468-.111 3.462-.099 3.458-.089 3.451-.078 3.446-.068 3.438-.057 3.433-.047 3.424-.036 3.418-.026 3.409-.015 3.402-.005 3.393.005 3.384.015 3.374.026 3.366.035 3.355.046 3.345.055 3.335.066 3.324.075 3.313.084 3.301.095 3.289.103 3.277.113 3.265.123 3.252.131 3.239.141 3.226.15 3.211.159 3.198.167 3.183.176 3.169.185 3.154.193 3.138.202 3.123.209 3.107.218 3.091.226 3.074.233 3.058.241 3.04.249 3.023.256 3.006.263 2.987.271 2.97.277 2.95.284 2.933.291 2.913.298 2.893.304 2.875.31 2.854.316 2.834.321 2.814.328 2.793.333 2.773.338 2.751.344 2.73.348 2.708.354 2.686.358 2.665.362 2.641.367 2.62.371 2.596.375 2.573.379 2.551.382 2.526.385 2.503.389 2.479.391 2.455.394 2.43.397 2.406.399 2.381.401 2.356.404 2.331.405 2.306.406 2.28.408 2.254.408 2.228.41 2.202.41 2.176.411 2.15.411 2.123.411 2.096.411 2.069.411 2.042.409 2.015.409 1.987.408 1.96.407 1.932.405 1.904.403 1.877.401 1.848.399 1.82.397 1.791.394 1.764.391 1.734.387 1.706.385 1.677.381 1.648.377 1.619.373 1.59.369 1.561.364 1.532.359 1.502.355 1.472.349 16.434 3.957 1.054.251 1.023.243.994.234.963.225.932.215.903.205.873.196.842.186.812.175.781.165.752.153.721.143.691.132.661.12.63.109.601.097.57.084.541.073.51.06.481.047.451.034.42.021.391.007.362-.006.332-.02.302-.034.273-.048.243-.062.214-.077.185-.092.155-.107.127-.122.098-.138.068-.153.04-.168.012-.185-.017-.201-.046-.218-.074-.233-.102-.251-.13-.267-.158-.285-.186-.301-.213-.319-.241-.337-.269-.354-.295-.372-.323-.391-.349-.408-.377-.427-.403-.445-.429-.464-.456-.483-.481-.502-.508-.521-.534-.54-.559-.559-.585-.579-.609-.599-.635-.618-.66-.639-.684-.658-.709-.679-.733-.698-.757-.72-.781-.739-12.23-11.526-1.093-1.037-1.113-1.058-1.134-1.08-1.153-1.102-1.174-1.125-1.193-1.146-1.212-1.168-1.232-1.19-1.25-1.212-1.269-1.235-1.287-1.257-1.305-1.279-1.323-1.301-1.341-1.324-1.358-1.346-1.375-1.368-1.392-1.391-1.408-1.413-1.424-1.435-1.441-1.458-1.456-1.48-1.471-1.502-1.487-1.525-1.502-1.546-1.516-1.57-1.53-1.591-1.545-1.614-1.558-1.636-1.572-1.658-1.585-1.681-1.598-1.702-1.611-1.725-1.623-1.746-1.636-1.769-1.647-1.791-1.658-1.812-1.67-1.834-1.681-1.856-1.692-1.877-1.702-1.9-1.712-1.92-1.722-1.943-1.732-1.963-1.741-1.985-1.749-2.006-1.759-2.027-1.767-2.048-1.775-2.069-1.783-2.089-1.791-2.111-1.798-2.131-1.805-2.151-1.811-2.172-1.818-2.192-1.824-2.212-1.831-2.231-1.835-2.252-1.841-2.272-1.846-2.29-1.851-2.311-1.855-2.329-1.86-2.349-1.863-2.367-1.867-2.387-1.871-2.405-1.873-2.423-1.876-2.442-1.879-2.459-1.881-2.478-1.883-2.496-1.885-2.513-1.886-2.53-1.888-2.548-1.888-2.564-1.889-2.582-1.89-2.598-1.889-2.614-1.89-2.631-1.889-2.647-1.888-2.662-1.888-2.678-1.886-2.693-1.885-2.709-1.883-2.724-1.881-2.738-1.879-2.752-1.877-2.767-1.874-2.781-1.871-2.795-1.868-2.808-1.865-2.821-1.861-2.835-1.857-2.847-1.853-2.86-1.848-2.872-1.845-2.884-1.839-2.896-1.834-2.908-1.829-2.919-1.824-2.929-1.818-2.941-1.812-2.951-1.806-2.961-1.8-2.971-1.793-2.981-1.786-2.99-1.78-2.999-1.772-3.007-1.765-3.017-1.758-3.024-1.75-3.033-1.742-3.04-1.733-3.048-1.726-3.054-1.717-3.061-1.708-3.068-1.7-3.074-1.69-3.08-1.682-3.085-1.672-3.091-1.662-3.095-1.653-3.1-1.643-3.105-1.633-3.108-1.623-3.112-1.613-3.116-1.602-3.118-1.592-3.121-1.581-3.124-1.57-3.126-1.559-3.128-1.548-3.129-1.536-3.13-1.526-3.131-1.513-3.131-1.503-3.132-1.49-3.132-1.478-3.131-1.467-3.13-1.454-3.129-1.442-3.128-1.43-3.126-1.418-3.123-1.405-3.122-1.392-3.118-1.38-3.115-1.367-3.112-1.354-3.108-1.342-3.104-1.328-3.1-1.315-3.095-1.303-3.089-1.289-3.084-1.275-3.079-1.263-3.072-1.249-3.066-1.235-3.059-1.223-3.052-1.208-3.044-1.196-3.037-1.181-3.029-1.168-3.02-1.154-3.011-1.141-3.002-1.127-2.993-1.113-2.983-1.1-2.973-1.086-2.963-1.071-2.952-1.059-2.94-1.044-2.93-1.031-2.917-1.017-2.906-1.003-2.893-.989-2.881-.976-2.867-.962-2.854-.948-2.841-.935-2.826-.921-2.812-.907-2.798-.894-2.783-.88-2.767-.866-2.752-.853-2.736-.84-2.72-.826-2.704-.813-2.687-.8-2.669-.787-2.653-.773-2.634-.76-2.617-.747-2.598-.735-2.58-.721-2.561-.709-2.542-.695-2.522-.684-2.503-.67-2.483-.658-2.462-.646-2.442-.634-2.421-.621-2.4-.609-2.379-.598-2.357-.585-2.335-.574-2.313-.562-2.29-.55-2.268-.539-2.245-.528-2.221-.516-2.198-.506-2.175-.494-2.15-.484-2.126-.473-2.102-.463-2.077-.452-2.052-.442-2.027-.432-2.002-.421-1.976-.412-1.95-.403-1.924-.393-1.898-.383-1.872-.374-1.844-.365-1.818-.357-1.79-.347-1.764-.339-1.736-.331-1.708-.322-1.68-.315-1.653-.306-1.624-.299-1.595-.291-1.567-.284-1.538-.277-1.51-3.224-17.999-.192-1.056-.188-1.026-.184-.994-.18-.963-.176-.93-.174-.9-.17-.868-.167-.836-.165-.804-.163-.772-.16-.74-.158-.709-.157-.675-.154-.644-.154-.611-.152-.58-.152-.546-.15-.514-.15-.482-.15-.449-.15-.416-.15-.384-.151-.351-.15-.319-.152-.286-.153-.253-.154-.22-.155-.188-.157-.155-.159-.122-.161-.09-.164-.057-.166-.024-.168.009-.172.04-.175.074-.178.107-.182.139-.185.171-.19.204-.194.237-.198.269-.203.301-.208.333-.213.366-.219.398-.223.43-.23.462-.235.494-.242.526-.248.558-.254.589-.261.62-.268.653-.276.684-.282.715-.29.747-.298.777-.306.808-.314.84-.322.87-.33.9-.34.931-.348.962-.357.991-.366 1.022-5.684 15.945-.514 1.425-.526 1.454-.537 1.48-.55 1.508-.561 1.534-.575 1.561-.586 1.588-.599 1.614-.612 1.64-.625 1.666-.638 1.691-.651 1.717-.664 1.742-.678 1.767-.691 1.792-.705 1.816-.718 1.84-.733 1.865-.746 1.889-.761 1.912-.775 1.935-.788 1.958-.804 1.98-.818 2.004-.832 2.026-.847 2.048-.862 2.07-.877 2.09-.892 2.112-.906 2.133-.922 2.154-.937 2.174-.952 2.194-.967 2.214-.983 2.234-.998 2.253-1.013 2.272-1.03 2.29-1.044 2.309-1.06 2.328-1.076 2.345-1.092 2.362-1.107 2.38-1.123 2.397-1.139 2.413-1.155 2.43-1.17 2.446-1.186 2.461-1.203 2.477-1.218 2.492-1.234 2.507-1.25 2.522-1.266 2.536-1.281 2.549-1.298 2.564-1.313 2.576-1.33 2.59-1.345 2.602-1.361 2.615-1.377 2.627-1.393 2.638-1.409 2.65-1.424 2.661-1.44 2.671-1.456 2.683-1.471 2.692-1.487 2.702-1.503 2.712-1.518 2.72-1.533 2.73-1.549 2.738-1.564 2.747-1.58 2.754-1.594 2.762-1.61 2.769-1.625 2.776-1.639 2.783-1.655 2.789-1.669 2.795-1.684 2.8-1.699 2.806-1.713 2.811-1.728 2.816-1.742 2.82-1.756 2.824-1.77 2.827-1.784 2.832-1.798 2.834-1.812 2.837-1.825 2.839-1.839 2.842-1.852 2.843-1.865 2.845-1.879 2.846-1.891 2.847-1.905 2.848-1.917 2.848-1.929 2.848-1.942 2.847-1.954 2.847-1.966 2.846-1.978 2.844-1.99 2.843-2.001 2.841-2.012 2.839-2.024 2.836-2.035 2.834-2.046 2.83-2.056 2.827-2.067 2.823-2.077 2.82-2.088 2.815-2.097 2.811-2.107 2.805-2.116 2.801-2.126 2.795-2.135 2.79-2.144 2.783-2.153 2.777-2.161 2.771-2.169 2.764-2.177 2.757-2.185 2.749-2.193 2.742-2.2 2.734-2.208 2.726-2.214 2.718-2.221 2.708-2.227 2.7-2.234 2.691-2.239 2.681-2.246 2.671-2.251 2.662-2.256 2.651-2.261 2.642-2.266 2.63-2.27 2.619-2.275 2.609-2.278 2.597-2.282 2.585-2.286 2.573-2.289 2.562-2.292 2.549-2.295 2.537-2.297 2.524-2.299 2.511-2.301 2.498-2.303 2.484-2.304 2.471-2.305 2.458-2.305 2.443-2.307 2.43-2.306 2.415-2.307 2.4-2.306 2.386-2.305 2.371-2.305 2.355-2.303 2.341-2.302 2.325-2.301 2.31-2.298 2.294-2.295 2.278-2.293 2.261-2.291 2.246-2.286 2.229-2.284 2.213-2.279 2.196-2.276 2.179-2.271 2.163-2.266 2.145-2.262 2.128-2.256 2.11-2.25 2.093-2.245 2.076-2.238 2.058-2.232 2.04-2.225 2.022-2.218 2.003-2.211 1.986-2.203 1.968-2.195 1.949-2.187 1.93-2.178 1.912-2.169 1.894-2.16 1.874-2.15 1.856-2.141 1.837-2.131 1.818-2.12 1.799-2.11 1.78-2.098 1.76-2.087 1.742-2.076 1.722-2.064 1.703-2.052 1.683-2.039 1.664-2.026 1.645-2.014 1.625-2 1.605-1.986 1.586-1.972 1.567-1.958 1.546-1.944 1.528-1.929 1.507-1.914 1.488-1.898 1.468-1.883 1.448-1.867 1.429-1.85 1.409-1.834 1.389-1.817 1.37-1.8 1.35-1.783 1.33-1.765 1.311-1.748 1.291-1.729 1.272-1.71 1.252-1.692 1.232-1.673 1.213-1.654 1.194-1.633 1.174-1.615 1.155-1.594 1.135-1.574 1.116-1.553 1.097-1.533 1.078-1.511 1.059-1.49 1.04-1.469 1.021-1.447 1.002-1.424.983-1.403.964-1.38.946-1.357.928-1.334.908-1.31.891-1.288.872-1.263.854-14.17 9.498-.908.612-.883.595-.855.578-.828.563-.801.547-.773.531-.746.515-.718.5-.69.485-.66.469-.634.454-.605.44-.576.425-.547.41-.518.396-.49.382-.46.368-.43.354-.402.34-.371.327-.342.314-.312.3-.282.288-.252.275-.222.262-.192.25-.16.238-.131.226-.1.214-.07.203-.039.191-.008.18.023.169.054.158.085.148.116.138.148.127.178.118.21.107.241.098.273.089.304.08.336.071.367.063.398.053.43.046.462.038.494.03.525.022.556.015.588.008.62.001.652-.006.683-.012.715-.019.746-.024.778-.03.81-.036.841-.042.873-.046.904-.051.936-.056.967-.06.998-.065 1.03-.068 1.061-.073 1.092-.075 17.007-1.208 1.521-.102 1.55-.102 1.581-.103 1.61-.102 1.64-.102 1.67-.101 1.698-.1 1.728-.099 1.756-.098 1.785-.097 1.814-.095 1.843-.092 1.87-.091 1.9-.089 1.927-.086 1.955-.083 1.982-.08 2.01-.077 2.038-.074 2.064-.071 2.092-.066 2.118-.063 2.145-.059 2.171-.054 2.197-.05 2.224-.046 2.249-.04 2.274-.036 2.301-.03 2.325-.025 2.35-.019 2.375-.014 2.399-.007 2.423-.002 2.448.005 2.471.011 2.495.017 2.518.025 2.541.031 2.564.038 2.586.046 2.609.053 2.631.06 2.652.068 2.674.076 2.695.084 2.717.092 2.737.1 2.757.109 2.778.117 2.797.126 2.817.134 2.837.144 2.855.152 2.875.162 2.892.17 2.911.181 2.929.189 2.947.199 2.963.209 2.981.219 2.998.229 3.013.238 3.03.249 3.046.259 3.061.269 3.076.28 3.092.29 3.105.3 3.12.311 3.134.322 3.148.333 3.16.343 3.174.354 3.186.365 3.199.377 3.21.387 3.222.398 3.234.41 3.244.42 3.255.433 3.265.443 3.276.454 3.285.466 3.294.478 3.303.488 3.312.5 3.32.512 3.328.523 3.336.535 3.343.546 3.35.558 3.356.569 3.363.58 3.369.592 3.374.604 3.379.615 3.385.627 3.389.638 3.393.649 3.396.661 3.401.672 3.403.684 3.407.695 3.408.706 3.411.718 3.413.729 3.414.74 3.415.751 3.416.762 3.416.773 3.417.784 3.416.795 3.415.806 3.415.817 3.413.827 3.411.838 3.41.848 3.407.859 3.404.87 3.402.879 3.398.89 3.394.9 3.391.909 3.386.92 3.381.93 3.376.939 3.371.949 3.366.958 3.359.968 3.353.977 3.346.985 3.339.995 3.332 1.004 3.325 1.013 3.316 1.021 3.308 1.029 3.3 1.038 3.29 1.046 3.282 1.054 3.272 1.062 3.262 1.07 3.252 1.077 3.241 1.085 3.231 1.092 3.219 1.099 3.209 1.106 3.196 1.113 3.185 1.119 3.172 1.126 3.16 1.132 3.147 1.138 3.134 1.145 3.121 1.149 3.107 1.156 3.093 1.16 3.078 1.166 3.064 1.171 3.05 1.175 3.034 1.181 3.019 1.184 3.003 1.189 2.988 1.192 2.971 1.197 2.955 1.2 2.939 1.203 2.921 1.207 2.905 1.209 2.886 1.212 2.87 1.215 2.851 1.217 2.834 1.219 2.815 1.22 2.796 1.223 2.778 1.224 2.759 1.224 2.739 1.226 2.72 1.227 2.701 1.227 2.68 1.227 2.66 1.227 2.641 1.227 2.619 1.227 2.599 1.226 2.578 1.224 2.557 1.224 2.535 1.222 2.514 1.221 2.493 1.218 2.47 1.216 2.449 1.214 2.426 1.211 2.404 1.209 2.381 1.205 2.359 1.201 2.336 1.198 2.313 1.194 2.29 1.19 2.266 1.185 2.243 1.181 2.22 1.176 2.195 1.17 2.172 1.165 2.148 1.159 2.124 1.153 2.099 1.147 2.076 1.141 2.05 1.133 2.026 1.127 2.002 1.119 1.976 1.112 1.952 1.104 1.927 1.095 1.901 1.088 1.877 1.079 1.851 1.069 1.826 1.061 1.8 1.052 1.775 1.042 1.75 1.031 1.723 1.022 1.698 1.011 1.673 1.001 1.646.99 1.621.978 1.595.967 1.568.955 1.543.944 1.517.931 1.491.918 1.464.906 1.439.893 1.412.88 1.387.866 1.36.852 1.334.839 1.307.824 1.282.809 14.286 9.097.917.581.891.564.866.545.84.527.815.508.789.489.764.47.738.45.713.431.688.412.663.391.637.371.613.35.588.33.563.31.539.288.514.267.49.246.465.224.442.202.417.18.393.159.369.136.346.113.322.091.299.068.276.045.252.022.229-.002.207-.025.183-.048.161-.073.139-.096.117-.121.094-.144.073-.169.051-.194.029-.218.008-.243-.014-.268-.034-.293-.056-.319-.076-.343-.096-.369-.117-.395-.138-.42-.157-.446-.176-.471-.197-.498-.216-.524-.235-.55-.254-.576-.272-.602-.292-.629-.309-.656-.328-.682-.346-.708-.363-.735-.381-.762-.398-.789-.415-.816-.433-.843-.448-.869-.466-.897-.481-.924-.497-.951-8.506-16.177-.708-1.36-.721-1.387-.732-1.415-.744-1.442-.755-1.469-.767-1.497-.777-1.523-.788-1.551-.799-1.577-.808-1.605-.819-1.631-.828-1.658-.837-1.685-.847-1.712-.855-1.738-.865-1.765-.872-1.792-.881-1.818-.888-1.844-.896-1.871-.904-1.896-.91-1.923-.918-1.948-.923-1.975-.931-2-.936-2.026-.943-2.051-.948-2.077-.953-2.102-.958-2.127-.963-2.152-.968-2.177-.972-2.202-.976-2.226-.98-2.251-.984-2.275-.987-2.299-.99-2.323-.993-2.347-.995-2.371-.998-2.394-1.001-2.418-1.001-2.44-1.004-2.464-1.005-2.486-1.006-2.509-1.008-2.532-1.007-2.553-1.009-2.576-1.008-2.598-1.009-2.619-1.008-2.64-1.008-2.662-1.007-2.683-1.007-2.703-1.005-2.724-1.004-2.745-1.002-2.764-1.001-2.785-.998-2.804-.997-2.824-.994-2.842-.991-2.862-.988-2.88-.986-2.899-.982-2.918-.979-2.935-.975-2.952-.971-2.971-.967-2.987-.963-3.005-.958-3.021-.954-3.037-.949-3.054-.944-3.069-.938-3.085-.934-3.101-.928-3.115-.922-3.131-.916-3.144-.91-3.159-.904-3.173-.897-3.186-.891-3.2-.884-3.212-.877-3.226-.871-3.237-.863-3.25-.855-3.262-.848-3.273-.841-3.284-.832-3.295-.825-3.306-.817-3.316-.808-3.326-.8-3.336-.792-3.344-.783-3.354-.774-3.363-.766-3.371-.756-3.378-.748-3.387-.738-3.394-.729-3.401-.719-3.407-.71-3.414-.701-3.42-.691-3.426-.681-3.43-.671-3.437-.661-3.44-.652-3.445-.641-3.449-.631-3.453-.62-3.456-.611-3.459-.599-3.462-.59-3.464-.579-3.465-.568-3.468-.558-3.469-.547-3.469-.536-3.471-.525-3.47-.515-3.47-.504-3.47-.492-3.469-.482-3.468-.471-3.467-.46-3.464-.449-3.463-.438-3.459-.427-3.457-.416-3.454-.405-3.45-.394-3.446-.382-3.442-.372-3.437-.36-3.432-.35-3.427-.338-3.422-.328-3.415-.316-3.409-.305-3.402-.295-3.395-.283-3.388-.273-3.38-.262-3.372-.251-3.364-.24-3.355-.229-3.345-.219-3.337-.208-3.326-.197-3.317-.187-3.306-.176-3.296-.166-3.284-.156-3.273-.145-3.261-.135-3.249-.125-3.237-.115-3.224-.105-3.211-.095-3.198-.085-3.184-.075-3.17-.066-3.156-.056-3.141-.047-3.126-.038-3.111-.028-3.096-.019-3.08-.01-3.063-.002-3.047.008-3.03.016-3.014.025-2.996.033-2.978.041-2.96.05-2.942.058-2.924.065-2.905.073-2.886.081-2.866.088-2.847.096-2.827.103-2.807.11-2.786.117-2.766.123-2.745.13-2.723.137-2.702.142-2.68.149-2.659.155-2.636.16-2.613.166-2.591.171-2.568.177-2.545.181-2.521.187-2.497.191-2.474.196-2.45.2-2.425.204-2.401.208-2.375.212-2.351.215-2.326.219-2.3.222-2.275.225-2.249.227-2.223.231-2.196.232-2.17.235-2.144.237-2.117.239-2.09.24-2.063.241-2.036.242-2.008.244-1.98.244-1.953.245-1.925.245-1.897.245-1.869.244-1.84.245-1.811.244-1.783.243-1.755.242-1.725.241-1.697.239-1.667.238-1.638.235-1.608.234-1.58.231-1.548.228-1.52 2.8-18.106.162-1.064.156-1.033.149-1.003.143-.971.136-.941.128-.91.122-.878.113-.848.106-.817.098-.785.09-.755.081-.723.072-.693.063-.661.054-.631.045-.6.035-.568.025-.538.015-.507.005-.476-.006-.445-.016-.414-.027-.384-.039-.353-.049-.322-.062-.291-.073-.261-.085-.23-.097-.2-.11-.17-.122-.14-.135-.11-.148-.079-.161-.049-.175-.019-.188.01-.202.04-.216.07-.23.1-.244.13-.259.158-.274.187-.288.217-.304.245-.319.275-.334.303-.35.332-.366.36-.382.388-.398.417-.414.444-.431.473-.447.5-.464.528-.481.555-.498.583-.515.61-.533.636-.55.663-.568.69-.586.715-.603.743-.622.768-.64.794-.658.82-.677.845-10.532 13.21-.947 1.18-.968 1.202-.987 1.224-1.008 1.245-1.028 1.267-1.048 1.289-1.068 1.31-1.089 1.33-1.11 1.35-1.13 1.371-1.151 1.391-1.171 1.411-1.193 1.43-1.213 1.45-1.233 1.47-1.255 1.487-1.276 1.506-1.296 1.524-1.317 1.542-1.339 1.56-1.359 1.577-1.38 1.595-1.402 1.611-1.422 1.628-1.443 1.644-1.465 1.661-1.485 1.676-1.507 1.692-1.527 1.707-1.548 1.721-1.57 1.737-1.59 1.751-1.611 1.765-1.632 1.779-1.653 1.792-1.674 1.806-1.694 1.819-1.716 1.831-1.736 1.844-1.757 1.855-1.777 1.868-1.798 1.879-1.818 1.891-1.839 1.901-1.859 1.912-1.879 1.922-1.9 1.933-1.919 1.942-1.94 1.951-1.959 1.961-1.98 1.97-1.999 1.978-2.019 1.987-2.039 1.995-2.058 2.002-2.077 2.01-2.097 2.017-2.116 2.024-2.134 2.031-2.154 2.036-2.173 2.043-2.191 2.048-2.209 2.054-2.228 2.059-2.246 2.064-2.265 2.068-2.282 2.073-2.3 2.076-2.318 2.08-2.335 2.084-2.353 2.087-2.369 2.089-2.387 2.092-2.404 2.094-2.42 2.097-2.437 2.098-2.453 2.099-2.469 2.1-2.485 2.102-2.501 2.102-2.516 2.102-2.532 2.102-2.547 2.103-2.562 2.101-2.576 2.101-2.591 2.1-2.606 2.098-2.62 2.097-2.633 2.096-2.647 2.093-2.661 2.09-2.674 2.089-2.687 2.085-2.7 2.082-2.712 2.079-2.725 2.075-2.737 2.072-2.748 2.067-2.76 2.063-2.772 2.058-2.783 2.054-2.793 2.048-2.804 2.044-2.815 2.037-2.824 2.032-2.834 2.026-2.844 2.02-2.853 2.013-2.863 2.007-2.87 2-2.88 1.992-2.887 1.986-2.896 1.978-2.903 1.97-2.911 1.962-2.917 1.954-2.925 1.946-2.931 1.937-2.937 1.929-2.943 1.92-2.948 1.91-2.955 1.901-2.959 1.892-2.963 1.882-2.969 1.873-2.972 1.862-2.976 1.852-2.98 1.841-2.983 1.832-2.986 1.82-2.989 1.81-2.991 1.798-2.993 1.788-2.994 1.776-2.996 1.764-2.997 1.753-2.998 1.742-2.998 1.729-2.999 1.717-2.998 1.706-2.997 1.692-2.997 1.681-2.996 1.668-2.994 1.655-2.992 1.642-2.99 1.63-2.988 1.616-2.984 1.604-2.982 1.59-2.978 1.577-2.975 1.563-2.97 1.55-2.967 1.536-2.961 1.523-2.956 1.509-2.951 1.495-2.945 1.481-2.939 1.467-2.933 1.452-2.926 1.439-2.919 1.425-2.911 1.41-2.904 1.396-2.896 1.381-2.887 1.367-2.879 1.353-2.87 1.338-2.861 1.323-2.851 1.309-2.84 1.295-2.831 1.279-2.82 1.265-2.809 1.25-2.798 1.235-2.786 1.221-2.774 1.206-2.762 1.191-2.75 1.176-2.737 1.162-2.723 1.146-2.71 1.132-2.696 1.118-2.682 1.102-2.668 1.088-2.653 1.072-2.638 1.059-2.622 1.043-2.607 1.029-2.59 1.014-2.575 1-2.558.985-2.541.97-2.524.956-2.506.942-2.489.927-2.47.913-2.452.899-2.434.884-2.414.87-2.395.856-2.376.843-2.356.828-2.336.814-2.315.801-2.295.786-2.274.774-2.253.759-2.231.747-2.21.732-2.187.72-2.165.707-2.143.693-2.12.68-2.097.668-2.074.655-2.05.642-2.026.63-2.002.617-1.979.605-1.953.593-1.929.581-1.904.569-1.878.557-1.853.546-1.828.534-1.802.523-1.775.511-1.75.501-1.722.489-1.696.479-1.669.468-1.641.458-1.615.448-1.587.437-1.559.427-1.531.417-1.503.408-1.475.398-17.577 4.675-1.03.277-1 .27-.969.264-.937.258-.906.251-.876.246-.843.24-.812.235-.781.23-.75.224-.716.22-.686.215-.653.211-.622.206-.589.203-.557.199-.525.195-.493.192-.46.189-.428.185-.395.184-.363.18-.33.179-.298.176-.265.174-.232.173-.2.171-.167.171-.134.169-.102.168-.068.168-.036.167-.003.168.03.167.062.168.096.168.128.169.16.17.194.171.226.173.26.174.291.176.324.178.357.18.39.182.421.186.455.188.486.191.52.195.55.198.584.202.615.206.648.21.68.214.71.219.744.223.775.229.806.234.838.239.87.245.9.25.931.257.963.262.994.269 1.024.276 1.055.282 16.446 4.372 1.47.396 1.497.406 1.526.416 1.554.425 1.582.436 1.61.445 1.636.456 1.664.466 1.69.477 1.718.488 1.745.498 1.77.51 1.797.52 1.823.532 1.848.544 1.874.555 1.9.567 1.924.578 1.949.591 1.973.603 1.998.615 2.022.627 2.046.64 2.069.653 2.093.665 2.115.678 2.139.691 2.161.704 2.183.717 2.206.731 2.227.743 2.249.758 2.27.77 2.291.785 2.312.798 2.332.811 2.352.826 2.372.84 2.392.853 2.411.868 2.429.881 2.449.896 2.467.911 2.485.924 2.504.939 2.52.954 2.538.967 2.555.983 2.571.997 2.588 1.011 2.604 1.026 2.619 1.041 2.635 1.055 2.65 1.071 2.665 1.084 2.68 1.1 2.693 1.115 2.708 1.129 2.721 1.144 2.734 1.158 2.747 1.174 2.76 1.188 2.772 1.203 2.784 1.218 2.796 1.233 2.807 1.247 2.818 1.262 2.828 1.277 2.839 1.292 2.849 1.306 2.859 1.321 2.868 1.335 2.877 1.35 2.886 1.364 2.895 1.379 2.902 1.393 2.91 1.408 2.918 1.422 2.925 1.436 2.931 1.45 2.938 1.465 2.944 1.478 2.95 1.492 2.955 1.507 2.96 1.52 2.966 1.533 2.969 1.548 2.974 1.561 2.978 1.574 2.981 1.588 2.984 1.601 2.987 1.614 2.99 1.627 2.992 1.64 2.994 1.653 2.995 1.665 2.996 1.678 2.998 1.691 2.998 1.703 2.998 1.715 2.998 1.727 2.998 1.739 2.997 1.751 2.997 1.762 2.995 1.774 2.993 1.786 2.991 1.796 2.989 1.808 2.987 1.818 2.983 1.829 2.981 1.84 2.977 1.85 2.973 1.861 2.969 1.87 2.965 1.88 2.96 1.89 2.954 1.9 2.95 1.909 2.944 1.918 2.939 1.926 2.932 1.936 2.925 1.944 2.919 1.953 2.912 1.961 2.905 1.969 2.897 1.976 2.889 1.984 2.881 1.991 2.872 1.999 2.864 2.005 2.855 2.013 2.845 2.018 2.837 2.025 2.826 2.031 2.816 2.036 2.806 2.043 2.796 2.047 2.784 2.053 2.774 2.057 2.762 2.063 2.751 2.066 2.739 2.071 2.727 2.074 2.714 2.079 2.703 2.081 2.689 2.085 2.676 2.088 2.664 2.09 2.649 2.093 2.636 2.094 2.623 2.097 2.608 2.098 2.594 2.1 2.579 2.1 2.565 2.102 2.549 2.102 2.535 2.102 2.519 2.103 2.504 2.102 2.488 2.101 2.472 2.101 2.456 2.1 2.44 2.098 2.423 2.096 2.407 2.095 2.39 2.093 2.372 2.09 2.356 2.087 2.339 2.084 2.321 2.081 2.303 2.077 2.286 2.073 2.267 2.069 2.25 2.065 2.231 2.06 2.213 2.054 2.195 2.05 2.176 2.044 2.157 2.038 2.138 2.031 2.12 2.025 2.1 2.019 2.081 2.011 2.061 2.004 2.042 1.996 2.023 1.988 2.003 1.98 1.983 1.971 1.964 1.963 1.943 1.953 1.923 1.944 1.904 1.935 1.883 1.924 1.862 1.914 1.843 1.903 1.822 1.892 1.802 1.882 1.781 1.869 1.76 1.859 1.74 1.846 1.719 1.833 1.699 1.821 1.677 1.808 1.657 1.795 1.636 1.781 1.615 1.768 1.594 1.754 1.574 1.739 1.552 1.725 1.531 1.709 1.51 1.695 1.49 1.679 1.468 1.663 1.447 1.648 1.426 1.631 1.406 1.614 1.384 1.598 1.363 1.58 1.342 1.563 1.321 1.546 1.301 1.527 1.279 1.51 1.259 1.491 1.237 1.472 1.217 1.453 1.196 1.434 1.176 1.415 1.154 1.395 1.134 1.374 1.114 1.355 1.093 1.334 1.072 1.313 1.052 1.293 1.031 1.271 1.012 1.249.991 1.228.971 1.206.951 1.184 10.579 13.268.68.85.662.824.643.799.625.773.607.747.589.721.571.695.554.668.535.641.519.615.501.587.484.56.467.533.451.505.433.478.418.45.4.422.385.393.369.366.353.337.337.308.322.28.306.251.292.222.276.193.262.163.247.135.233.105.218.075.205.046.191.016.177-.013.163-.044.151-.074.137-.103.125-.134.112-.164.099-.195.088-.225.075-.255.063-.286.052-.317.041-.347.029-.377.018-.409.008-.439-.003-.471-.013-.501-.024-.532-.033-.563-.043-.593-.052-.625-.062-.656-.07-.687-.08-.718-.088-.749-.096-.78-.104-.81-.112-.842-.12-.873-.128-.904-.134-.935-.142-.966-.148-.996-.155-1.028-.161-1.058-2.788-18.028-.228-1.514-.23-1.544-.233-1.573-.236-1.603-.237-1.633-.239-1.661-.24-1.691-.242-1.72-.243-1.749-.244-1.778-.244-1.806-.245-1.835-.245-1.864-.245-1.891-.245-1.92-.244-1.948-.243-1.975-.243-2.003-.242-2.031-.24-2.058-.239-2.085-.237-2.111-.235-2.139-.233-2.166-.231-2.191-.228-2.218-.226-2.244-.222-2.27-.219-2.296-.216-2.321-.213-2.346-.209-2.371-.205-2.396-.201-2.421-.196-2.445-.192-2.469-.187-2.493-.183-2.517-.177-2.541-.173-2.563-.167-2.587-.161-2.609-.156-2.632-.15-2.654-.143-2.676-.138-2.699-.131-2.719-.125-2.741-.118-2.762-.111-2.782-.104-2.803-.097-2.824-.09-2.843-.082-2.863-.075-2.882-.067-2.901-.059-2.92-.051-2.939-.043-2.957-.035-2.975-.026-2.993-.018-3.01-.009-3.027v-3.044l.008-3.061.018-3.076.026-3.093.036-3.108.045-3.123.055-3.139.064-3.153.073-3.167.084-3.182.093-3.195.103-3.209.113-3.221.123-3.235.133-3.247.144-3.259.153-3.271.164-3.282.175-3.293.185-3.304.195-3.315.206-3.325.217-3.335.227-3.344.238-3.353.249-3.362.26-3.37.27-3.379.282-3.386.292-3.394.304-3.401.314-3.408.325-3.414.337-3.42.347-3.426.359-3.431.369-3.437.381-3.441.391-3.445.403-3.45.414-3.452.425-3.457.436-3.459.447-3.462.458-3.464.468-3.466.48-3.468.491-3.469.502-3.47.512-3.47.524-3.47.534-3.471.545-3.469.556-3.469.566-3.468.577-3.466.588-3.465.597-3.462.609-3.459.619-3.457.629-3.453.639-3.45.649-3.446.659-3.441.67-3.437.679-3.432.689-3.427.699-3.421.708-3.415.718-3.408.727-3.403.737-3.395.746-3.388.755-3.38.763-3.372.773-3.364.781-3.356.791-3.346.798-3.337.807-3.328.815-3.318.823-3.308.831-3.297.839-3.286.847-3.275.854-3.264.862-3.252.869-3.24.876-3.228.883-3.215.889-3.202.897-3.189.902-3.175.909-3.161.915-3.148.921-3.133.927-3.118.932-3.103.938-3.088.943-3.072.948-3.057.953-3.041.957-3.024.962-3.007.967-2.991.97-2.973.974-2.957.978-2.938.982-2.92.985-2.903.988-2.884.99-2.865.994-2.846.996-2.827.998-2.808 1-2.788 1.002-2.768 1.004-2.749 1.005-2.728 1.006-2.707 1.007-2.687 1.008-2.665 1.008-2.645 1.009-2.623 1.008-2.601 1.009-2.58 1.008-2.558 1.007-2.535 1.006-2.513 1.006-2.491 1.004-2.468 1.002-2.445 1-2.421.999-2.399.996-2.375.993-2.351.991-2.328.987-2.304.985-2.279.98-2.255.977-2.231.973-2.207.969-2.181.964-2.157.959-2.132.954-2.106.949-2.082.943-2.056.938-2.03.931-2.005.926-1.98.918-1.953.912-1.927.905-1.902.897-1.875.89-1.849.882-1.823.875-1.797.865-1.769.857-1.744.849-1.716.839-1.69.829-1.664.821-1.636.81-1.61.801-1.582.789-1.556.78-1.528.768-1.501.758-1.475.746-1.447.734-1.419.723-1.393.711-1.365 8.542-16.248.5-.956.485-.929.468-.901.451-.875.436-.848.418-.821.401-.793.385-.767.366-.741.349-.713.331-.687.313-.66.295-.634.276-.607.258-.581.238-.555.22-.529.2-.502.18-.477.161-.45.141-.425.12-.4.101-.373.08-.349.059-.322.038-.298.018-.273-.004-.247-.025-.223-.047-.199-.069-.173-.09-.149-.112-.125-.135-.101-.157-.077-.18-.053-.202-.029-.225-.006-.248.017-.271.041-.295.064-.318.086-.341.11-.365.132-.389.154-.412.176-.437.198-.461.22-.485.242-.51.263-.534.284-.559.306-.583.326-.608.347-.633.367-.659.388-.683.407-.708.427-.734.447-.759.467-.784.485-.81.505-.835.523-.861.542-.887.56-.912.578-15.5 9.864-1.303.822-1.329.835-1.355.85-1.382.864-1.407.877-1.434.89-1.46.904-1.486.916-1.512.929-1.538.941-1.564.953-1.59.965-1.616.976-1.641.988-1.668.998-1.693 1.01-1.719 1.019-1.745 1.031-1.77 1.04-1.796 1.049-1.821 1.059-1.846 1.069-1.872 1.077-1.897 1.086-1.922 1.094-1.947 1.102-1.972 1.111-1.997 1.117-2.022 1.126-2.046 1.132-2.07 1.139-2.095 1.146-2.119 1.152-2.144 1.158-2.167 1.164-2.192 1.169-2.215 1.175-2.238 1.18-2.262 1.184-2.286 1.189-2.309 1.193-2.331 1.197-2.355 1.201-2.377 1.205-2.4 1.208-2.422 1.21-2.444 1.214-2.467 1.215-2.488 1.219-2.51 1.22-2.532 1.222-2.553 1.223-2.574 1.224-2.595 1.226-2.615 1.226-2.637 1.227-2.656 1.228-2.677 1.227-2.697 1.227-2.716 1.227-2.736 1.226-2.755 1.225-2.774 1.224-2.793 1.222-2.812 1.221-2.83 1.22-2.848 1.217-2.866 1.215-2.884 1.213-2.901 1.21-2.919 1.207-2.935 1.204-2.952 1.2-2.968 1.197-2.985 1.194-3 1.189-3.016 1.185-3.032 1.181-3.046 1.177-3.062 1.171-3.076 1.167-3.09 1.162-3.104 1.156-3.118 1.151-3.132 1.145-3.145 1.139-3.157 1.133-3.17 1.127-3.183 1.121-3.194 1.114-3.206 1.107-3.218 1.101-3.228 1.093-3.24 1.086-3.25 1.079-3.26 1.071-3.27 1.063-3.28 1.056-3.289 1.048-3.298 1.039-3.306 1.031-3.315 1.023-3.323 1.014-3.331 1.005-3.338.997-3.345.988-3.351.978-3.358.969-3.365.96-3.37.951-3.375.941-3.38.931-3.385.922-3.39.912-3.394.901-3.397.892-3.401.881-3.404.871-3.407.861-3.409.851-3.411.839-3.413.83-3.414.818-3.415.808-3.416.797-3.416.786-3.417.776-3.416.764-3.415.753-3.415.742-3.412.731-3.412.719-3.409.709-3.407.697-3.404.686-3.401.674-3.397.663-3.394.652-3.39.64-3.385.629-3.38.617-3.375.606-3.37.594-3.364.583-3.358.571-3.351.56-3.344.548-3.337.537-3.33.525-3.321.514-3.314.502-3.305.491-3.296.479-3.286.468-3.278.457-3.267.445-3.257.434-3.246.423-3.236.412-3.224.4-3.212.389-3.201.379-3.189.367-3.176.356-3.163.346-3.15.334-3.136.324-3.123.313-3.108.302-3.094.292-3.079.282-3.064.271-3.048.261-3.033.25-3.017.241-3.001.23-2.983.221-2.967.211-2.95.201-2.932.191-2.914.182-2.897.173-2.877.163-2.859.154-2.84.145-2.821.136-2.801.127-2.782.119-2.761.11-2.741.102-2.72.093-2.699.086-2.678.077-2.656.07-2.635.062-2.613.054-2.591.047-2.568.039-2.545.033-2.522.026-2.5.018-2.475.013-2.452.006-2.428-.001-2.404-.006-2.379-.013-2.355-.018-2.329-.024-2.305-.029-2.28-.035-2.254-.039-2.228-.045-2.202-.049-2.176-.054-2.15-.057-2.123-.062-2.096-.067-2.07-.069-2.042-.074-2.016-.076-1.987-.08-1.96-.083-1.932-.085-1.905-.088-1.876-.09-1.847-.093-1.82-.094-1.79-.097-1.762-.097-1.733-.099-1.704-.1-1.674-.101-1.645-.102-1.616-.102-1.587-.103-1.556-.102-1.526-.102-18.179-1.289-1.067-.073-1.035-.069-1.004-.065-.973-.061-.942-.057-.91-.052-.878-.047-.848-.042-.815-.037-.784-.032-.752-.025-.72-.02-.69-.013-.657-.007h-.626l-.594.006-.563.014-.53.021-.5.028-.467.036-.436.045-.405.052-.373.061-.341.069-.31.078-.278.087-.247.097-.216.106-.184.115-.153.126-.122.136-.091.145-.06.157-.029.167.002.178.033.189.064.201.095.212.125.223.155.236.186.248.216.26.247.272.276.286.307.298.336.311.366.325.396.337.425.352.455.365.484.379.513.394.542.407.57.422.6.437.628.452.656.466.684.482.713.497.74.512.769.529.795.543.823.56.85.576.878.592.904.608 14.108 9.457 1.26.85 1.282.869 1.307.887 1.33.906 1.352.924 1.376.942 1.398.961 1.42.98 1.443.998 1.465 1.018 1.486 1.036 1.507 1.055 1.53 1.075 1.549 1.093 1.57 1.113 1.59 1.132 1.61 1.151 1.631 1.17 1.65 1.19 1.67 1.21 1.688 1.229 1.707 1.248 1.726 1.268 1.743 1.287 1.762 1.307 1.78 1.327 1.797 1.347 1.814 1.366 1.83 1.385 1.848 1.406 1.864 1.425 1.88 1.444 1.895 1.465 1.911 1.484 1.926 1.504 1.941 1.523 1.956 1.543 1.97 1.563 1.983 1.582 1.998 1.602 2.011 1.622 2.024 1.641 2.037 1.66 2.049 1.68 2.062 1.699 2.073 1.719 2.085 1.738 2.097 1.757 2.107 1.776 2.119 1.795 2.128 1.815 2.139 1.833 2.149 1.853 2.158 1.871 2.168 1.89 2.176 1.908 2.185 1.927 2.194 1.946 2.201 1.964 2.209 1.982 2.217 2.001 2.224 2.018 2.231 2.037 2.237 2.055 2.243 2.072 2.25 2.09 2.255 2.107 2.26 2.125 2.266 2.142 2.27 2.159 2.275 2.176 2.278 2.193 2.283 2.209 2.286 2.227 2.29 2.242 2.293 2.259 2.295 2.275 2.297 2.291 2.3 2.307 2.302 2.322 2.303 2.338 2.304 2.353 2.306 2.368 2.306 2.383 2.306 2.398 2.307 2.412 2.306 2.427 2.306 2.44 2.305 2.455 2.304 2.469 2.303 2.482 2.302 2.495 2.299 2.509 2.298 2.522 2.295 2.534 2.292 2.547 2.29 2.559 2.286 2.572 2.283 2.583 2.28 2.594 2.275 2.607 2.271 2.617 2.267 2.628 2.262 2.639 2.257 2.65 2.252 2.66 2.246 2.669 2.241 2.68 2.234 2.689 2.229 2.698 2.222 2.707 2.216 2.716 2.208 2.724 2.202 2.733 2.194 2.74 2.186 2.748 2.179 2.756 2.171 2.762 2.163 2.77 2.154 2.776 2.145 2.782 2.137 2.789 2.127 2.794 2.119 2.799 2.108 2.805 2.099 2.81 2.089 2.814 2.08 2.819 2.068 2.823 2.059 2.826 2.048 2.83 2.036 2.833 2.026 2.836 2.015 2.838 2.003 2.841 1.992 2.842 1.98 2.844 1.969 2.846 1.956 2.847 1.944 2.847 1.932 2.848 1.919 2.847 1.907 2.848 1.894 2.847 1.881 2.846 1.867 2.846 1.855 2.843 1.841 2.842 1.828 2.84 1.815 2.838 1.8 2.835 1.787 2.831 1.772 2.829 1.759 2.824 1.745 2.821 1.73 2.817 1.716 2.811 1.701 2.807 1.687 2.802 1.672 2.796 1.657 2.79 1.643 2.784 1.627 2.777 1.613 2.771 1.597 2.763 1.582 2.756 1.567 2.748 1.552 2.739 1.536 2.732 1.521 2.722 1.506 2.713 1.489 2.704 1.475 2.694 1.458 2.684 1.443 2.674 1.427 2.663 1.412 2.652 1.396 2.64 1.38 2.629 1.364 2.617 1.348 2.605 1.332 2.592 1.317 2.579 1.3 2.566 1.285 2.552 1.269 2.538 1.253 2.525 1.237 2.509 1.221 2.495 1.205 2.48 1.189 2.464 1.174 2.449 1.157 2.433 1.142 2.417 1.126 2.399 1.11 2.383 1.095 2.366 1.078 2.348 1.064 2.331 1.047 2.312 1.032 2.294 1.016 2.276 1.001 2.256.986 2.237.97 2.218.955 2.198.94 2.178.924 2.157.91 2.137.894 2.116.879 2.095.865 2.074.85 2.051.835 2.03.821 2.008.806 1.985.791 1.962.778 1.94.763 1.916.749 1.893.735 1.869.721 1.845.707 1.82.694 1.797.68 1.771.667 1.747.653 1.722.641 1.696.627 1.671.614 1.644.602 1.619.589 1.593.576 1.566.564 1.539.552 1.513.54 1.485.528 1.458.516 1.431 5.709 16.015.368 1.027.359.997.349.967.341.937.333.906.323.875.316.845.307.815.299.783.292.752.284.721.276.689.269.659.263.626.256.596.249.563.242.532.237.5.23.468.225.436.22.404.214.371.208.34.204.307.2.275.194.242.191.21.186.178.183.145.178.112.176.08.172.047.169.015.167-.018.163-.051.162-.084.159-.116.158-.149.155-.181.155-.215.153-.247.151-.28.152-.312.15-.345.15-.378.15-.411.15-.443.15-.475.15-.508.152-.541.152-.573.153-.605.155-.638.156-.67.158-.702.159-.734.162-.766.165-.799.167-.83.17-.861.172-.894.176-.926.18-.956.183-.989.187-1.019.191-1.051.195-1.082 3.015-16.839.275-1.504.283-1.532.29-1.562.297-1.59.305-1.619.313-1.647.321-1.675.329-1.703.337-1.731.346-1.758.355-1.786.363-1.813.373-1.84.382-1.866.391-1.893.4-1.919.41-1.946.42-1.971.43-1.997.44-2.022.451-2.048.46-2.072.471-2.097.482-2.122.493-2.146.503-2.17.515-2.194.525-2.217.537-2.24.548-2.264.56-2.286.572-2.309.583-2.331.595-2.353.607-2.374.619-2.396.631-2.418.644-2.438.656-2.458.668-2.479.681-2.499.694-2.519.706-2.538.719-2.558.732-2.576.744-2.595.758-2.614.771-2.631.784-2.649.797-2.666.811-2.684.824-2.7.837-2.717.851-2.733.864-2.75.877-2.764.891-2.78.905-2.795.919-2.809.932-2.824.945-2.838.96-2.852.973-2.865.987-2.878 1-2.891 1.015-2.903 1.028-2.916 1.042-2.927 1.055-2.939 1.07-2.949 1.083-2.961 1.097-2.971 1.111-2.981 1.124-2.991 1.138-3.001 1.152-3.009 1.165-3.019 1.18-3.027 1.192-3.035 1.206-3.043 1.22-3.051 1.233-3.058 1.247-3.064 1.26-3.071 1.273-3.078 1.287-3.083 1.299-3.088 1.313-3.094 1.326-3.099 1.339-3.103 1.352-3.108 1.365-3.111 1.377-3.114 1.39-3.118 1.403-3.121 1.415-3.123 1.428-3.126 1.44-3.127 1.452-3.129 1.464-3.13 1.476-3.131 1.488-3.132 1.5-3.131 1.512-3.132 1.523-3.131 1.535-3.13 1.545-3.13 1.557-3.127 1.568-3.127 1.579-3.124 1.59-3.122 1.6-3.119 1.611-3.116 1.621-3.112 1.631-3.11 1.641-3.105 1.651-3.101 1.661-3.096 1.671-3.092 1.679-3.086 1.689-3.081 1.698-3.075 1.707-3.069 1.715-3.062 1.724-3.056 1.733-3.049 1.74-3.041 1.748-3.034 1.756-3.026 1.764-3.018 1.771-3.01 1.778-3 1.786-2.992 1.791-2.982 1.799-2.973 1.805-2.963 1.811-2.953 1.817-2.942 1.822-2.932 1.828-2.921 1.834-2.91 1.838-2.898 1.843-2.886 1.848-2.875 1.852-2.862 1.857-2.849 1.86-2.837 1.864-2.824 1.867-2.811 1.871-2.797 1.874-2.783 1.876-2.77 1.878-2.755 1.881-2.741 1.883-2.726 1.885-2.712 1.886-2.696 1.887-2.681 1.888-2.665 1.889-2.65 1.89-2.633 1.889-2.618 1.89-2.601 1.889-2.585 1.888-2.567 1.888-2.551 1.886-2.534 1.885-2.516 1.884-2.499 1.881-2.481 1.88-2.463 1.876-2.445 1.874-2.427 1.871-2.408 1.868-2.39 1.864-2.371 1.86-2.352 1.856-2.333 1.852-2.314 1.847-2.294 1.842-2.275 1.837-2.256 1.831-2.235 1.825-2.216 1.819-2.196 1.813-2.175 1.807-2.155 1.799-2.135 1.792-2.114 1.784-2.094 1.777-2.072 1.768-2.052 1.76-2.031 1.752-2.01 1.742-1.989 1.734-1.967 1.724-1.946 1.714-1.925 1.703-1.903 1.694-1.882 1.683-1.86 1.672-1.838 1.661-1.816 1.649-1.795 1.638-1.772 1.625-1.751 1.613-1.729 1.6-1.706 1.588-1.685 1.574-1.662 1.561-1.64 1.547-1.618 1.534-1.596 1.519-1.573 1.504-1.551 1.489-1.529 1.475-1.507 1.459-1.484 1.443-1.462 1.428-1.439 1.411-1.417 1.394-1.395 1.379-1.372 1.361-1.35 1.344-1.328 1.326-1.306 1.308-1.283 1.291-1.261 1.272-1.238 1.254-1.217 1.235-1.194 1.216-1.173 1.197-1.15 1.177-1.128 1.157-1.106 1.137-1.084 1.117-1.063 13.38-12.617.786-.744.761-.723.738-.702.713-.683.689-.662.665-.642.639-.622.614-.602.59-.583.564-.563.538-.544.512-.524.487-.505.461-.487.434-.467.408-.449.381-.43.355-.412.327-.394.301-.375.273-.358.246-.34.219-.322.191-.305.163-.287.135-.271.107-.253.079-.237.051-.221.023-.204-.006-.187-.035-.172-.063-.156-.093-.141-.121-.124-.15-.11-.18-.095-.208-.08-.238-.065-.267-.05-.297-.037-.326-.022-.356-.009-.386.005-.415.019-.445.031-.475.045-.506.057-.534.07-.565.083-.595.094-.625.107-.656.118-.685.129-.716.141-.745.152-.776.163-.807.173-.836.184-.867.194-.897.203-.927.214-.958.223-.987.232-1.019.241-1.048.25-17.828 4.288-1.497.354-1.526.358-1.555.364-1.585.368-1.614.372-1.642.376-1.672.38-1.701.384-1.729.387-1.758.391-1.786.393-1.815.396-1.843.399-1.871.401-1.899.402-1.927.405-1.955.406-1.982.408-2.01.409-2.037.409-2.064.411-2.091.41-2.118.412-2.145.411-2.17.41-2.198.411-2.223.41-2.25.409-2.275.408-2.301.406-2.326.405-2.352.404-2.376.402-2.401.399-2.426.397-2.45.395-2.475.392-2.498.389-2.522.386-2.546.383-2.569.379-2.593.376-2.615.371-2.637.368-2.66.363-2.683.359-2.704.354-2.725.35-2.748.344-2.768.34-2.79.334-2.81.328-2.83.323-2.851.317-2.87.312-2.891.304-2.909.299-2.929.292-2.947.286-2.966.278-2.984.272-3.003.265-3.019.257-3.038.25-3.054.243-3.071.235-3.088.227-3.104.219-3.12.211-3.136.203-3.151.195-3.165.186-3.181.178-3.195.169-3.209.16-3.223.152-3.237.142-3.249.134-3.263.124-3.275.115-3.287.105-3.299.096-3.31.087-3.322.076-3.333.067-3.343.058-3.354.047-3.363.037-3.373.028-3.383.017-3.391.007-3.4-.003-3.408-.014-3.416-.024-3.423-.034-3.431-.044-3.438-.056-3.444-.065-3.45-.077-3.456-.087-3.462-.097-3.467-.108-3.472-.119-3.476-.13-3.48-.14-3.485-.152-3.487-.161-3.491-.173-3.493-.184-3.496-.194-3.498-.205-3.499-.216-3.501-.227-3.502-.237-3.503-.249-3.502-.259-3.503-.269-3.503-.281-3.501-.291-3.501-.302-3.499-.312-3.497-.323-3.496-.334-3.492-.344-3.49-.354-3.487-.365-3.483-.376-3.48-.385-3.475-.396-3.47-.406-3.466-.416-3.461-.426-3.455-.437-3.449-.446-3.442-.456-3.437-.465-3.429-.476-3.422-.484-3.414-.495-3.407-.504-3.398-.513-3.39-.522-3.381-.531-3.372-.541-3.362-.549-3.352-.558-3.342-.567-3.331-.575-3.321-.584-3.309-.592-3.298-.6-3.286-.608-3.274-.616-3.262-.624-3.249-.632-3.236-.639-3.222-.646-3.209-.654-3.195-.661-3.181-.667-3.166-.675-3.151-.681-3.136-.687-3.121-.694-3.105-.7-3.09-.706-3.072-.712-3.057-.717-3.039-.723-3.023-.728-3.005-.733-2.987-.738-2.97-.743-2.951-.748-2.933-.751-2.915-.756-2.895-.76-2.876-.764-2.857-.768-2.837-.77-2.817-.774-2.797-.777-2.776-.78-2.756-.783-2.735-.784-2.714-.787-2.692-.789-2.671-.791-2.649-.792-2.628-.794-2.605-.795-2.582-.796-2.56-.796-2.537-.797-2.514-.797-2.491-.797-2.467-.797-2.444-.796-2.42-.796-2.396-.795-2.372-.793-2.347-.793-2.323-.791-2.298-.789-2.274-.787-2.248-.784-2.223-.782-2.198-.78-2.173-.776-2.147-.773-2.121-.77-2.095-.765-2.069-.762-2.043-.758-2.016-.753-1.991-.749-1.963-.743-1.937-.739-1.91-.733-1.884-.727-1.856-.721-1.829-.716-1.802-.708-1.775-.702-1.747-.696-1.72-.688-1.692-.68-1.665-.673-1.637-.666-1.609-.657-1.581-.648-1.553-.64-1.526-.631-1.497-.622-1.469-.613-1.442-.603-1.413-.593-16.807-7.135-.988-.417-.959-.403-.931-.389-.903-.374-.874-.361-.846-.346-.818-.331-.79-.316-.762-.301-.733-.286-.706-.269-.677-.254-.65-.238-.622-.221-.594-.205-.566-.188-.539-.171-.51-.154-.484-.137-.457-.119-.429-.101-.401-.084-.375-.065-.348-.047-.32-.028-.294-.009-.267.009-.24.029-.215.048-.188.067-.161.087-.136.107-.109.127-.084.147-.058.167-.032.188-.007.209.019.229.043.251.069.272.093.293.118.314.143.336.167.358.191.38.215.401.24.424.262.446.286.469.31.491.332.514.356.537.378.56.401.582.423.606.446.629.467.653.49.676.51.699.532.723.554.747.574.771.595.795.616.818.636.843.656.867 10.254 13.499.913 1.212.93 1.236.946 1.261.962 1.286.979 1.311.993 1.336 1.01 1.361 1.024 1.386 1.039 1.411 1.054 1.436 1.068 1.46 1.082 1.486 1.096 1.51 1.109 1.536 1.123 1.56 1.135 1.585 1.149 1.61 1.161 1.634 1.173 1.66 1.185 1.683 1.197 1.709 1.209 1.733 1.219 1.758 1.231 1.781 1.241 1.807 1.251 1.831 1.262 1.854 1.271 1.879 1.281 1.904 1.291 1.927 1.299 1.951 1.308 1.975 1.317 1.998 1.325 2.023 1.333 2.046 1.34 2.069 1.348 2.092 1.355 2.116 1.362 2.139 1.369 2.162 1.375 2.184 1.381 2.208 1.387 2.23 1.392 2.252 1.398 2.275 1.403 2.297 1.407 2.319 1.412 2.341 1.417 2.363 1.42 2.384 1.424 2.405 1.427 2.427 1.431 2.448 1.433 2.469 1.437 2.49 1.438 2.51 1.441 2.531 1.443 2.55 1.444 2.571 1.446 2.591 1.447 2.61 1.448 2.63 1.448 2.649 1.449 2.668 1.449 2.687 1.449 2.705 1.449 2.724 1.448 2.742 1.448 2.761 1.446 2.777 1.445 2.796 1.443 2.813 1.442 2.829 1.44 2.847 1.437 2.863 1.436 2.88 1.432 2.895 1.43 2.912 1.426 2.927 1.423 2.943 1.42 2.958 1.416 2.972 1.412 2.987 1.407 3.002 1.404 3.015 1.398 3.03 1.394 3.043 1.389 3.056 1.384 3.069 1.378 3.082 1.373 3.095 1.367 3.106 1.361 3.119 1.355 3.13 1.348 3.141 1.342 3.153 1.335 3.163 1.328 3.173 1.321 3.184 1.314 3.194 1.307 3.203 1.299 3.212 1.291 3.221 1.283 3.23 1.275 3.238 1.267 3.246 1.259 3.254 1.25 3.262 1.241 3.268 1.232 3.275 1.224 3.281 1.214 3.288 1.206 3.293 1.195 3.299 1.187 3.304 1.176 3.309 1.167 3.314 1.157 3.317 1.147 3.321 1.137 3.325 1.127 3.328 1.116 3.331 1.106 3.334 1.095 3.335 1.085 3.338 1.074 3.339 1.063 3.34 1.052 3.341 1.041 3.341 1.03 3.342 1.019 3.341 1.008 3.341.996 3.34.985 3.339.974 3.338.962 3.335.95 3.333.939 3.331.927 3.328.915 3.324.903 3.322.892 3.317.88 3.312.867 3.309.856 3.303.844 3.298.832 3.292.82 3.287.807 3.28.796 3.273.784 3.267.771 3.259.759 3.251.748 3.244.735 3.235.723 3.226.711 3.217.698 3.208.687 3.199.675 3.188.662 3.178.651 3.167.639 3.156.626 3.145.615 3.134.602 3.121.591 3.109.579 3.096.568 3.083.555 3.07.544 3.056.532 3.043.521 3.028.509 3.013.497 2.999.487 2.983.474 2.968.464 2.952.453 2.936.441 2.919.431 2.903.419 2.885.409 2.869.398 2.85.387 2.833.377 2.814.366 2.796.356 2.777.345 2.758.336 2.738.325 2.719.316 2.699.306 2.678.296 2.658.286 2.637.278 2.616.267 2.595.259 2.573.25 2.551.24 2.529.232 2.507.223 2.484.215 2.461.207 2.438.198 2.415.19 2.39.182 2.367.175 2.343.167 2.319.159 2.293.152 2.269.146 2.244.138 2.219.131 2.193.125 2.167.118 2.142.112 2.115.106 2.089.101 2.062.094 2.036.089 2.009.083 1.981.078 1.954.074 1.927.068 1.899.064 1.871.059 1.842.056 1.815.051 1.786.047 1.758.044 1.728.04 1.7.037 1.671.034 1.641.031 1.613.028 1.582.026 1.553.024 1.523.201 17.034.014 1.093.016 1.063.017 1.03.018 1 .02.967.021.936.024.904.026.873.029.84.031.809.034.776.038.745.04.713.045.68.048.649.052.617.057.584.061.552.066.52.07.488.076.456.081.424.087.391.093.36.099.327.104.295.112.263.118.231.125.199.132.167.139.136.147.103.155.071.162.04.171.007.179-.024.188-.055.197-.087.205-.119.215-.15.224-.182.234-.213.243-.244.254-.275.263-.306.275-.337.284-.368.296-.398.306-.429.318-.46.329-.49.34-.52.353-.551.364-.58.376-.61.389-.641.401-.669.413-.7.427-.728.439-.758.453-.787.465-.815.48-.845.493-.872.506-.902.521-.929.535-.958 8.302-14.919.748-1.331.763-1.356.78-1.381.796-1.405.813-1.43.829-1.454.846-1.479.863-1.502.88-1.525.897-1.549.913-1.572.931-1.595.949-1.617.965-1.639.983-1.662 1.001-1.684 1.018-1.705 1.036-1.726 1.054-1.747 1.071-1.768 1.089-1.789 1.107-1.809 1.125-1.829 1.143-1.849 1.161-1.868 1.18-1.887 1.197-1.907 1.216-1.925 1.233-1.943 1.252-1.961 1.271-1.979 1.288-1.997 1.307-2.014 1.326-2.031 1.343-2.047 1.362-2.064 1.381-2.08 1.398-2.096 1.417-2.111 1.436-2.126 1.454-2.142 1.472-2.156 1.491-2.17 1.509-2.184 1.527-2.198 1.545-2.212 1.564-2.224 1.582-2.238 1.6-2.249 1.619-2.263 1.636-2.274 1.655-2.285 1.672-2.297 1.69-2.308 1.709-2.319 1.726-2.329 1.744-2.339 1.762-2.349 1.779-2.358 1.797-2.368 1.815-2.376 1.832-2.385 1.849-2.393 1.866-2.401 1.884-2.409 1.901-2.416 1.917-2.423 1.935-2.43 1.951-2.436 1.968-2.442 1.984-2.448 2.001-2.454 2.017-2.458 2.033-2.464 2.05-2.468 2.065-2.472 2.081-2.476 2.097-2.48 2.112-2.483 2.128-2.487 2.143-2.489 2.158-2.491 2.173-2.494 2.187-2.495 2.202-2.497 2.217-2.498 2.231-2.5 2.245-2.499 2.259-2.501 2.273-2.5 2.286-2.5 2.3-2.5 2.313-2.498 2.326-2.498 2.339-2.496 2.352-2.495 2.364-2.493 2.376-2.49 2.389-2.488 2.4-2.485 2.412-2.483 2.423-2.478 2.435-2.476 2.445-2.471 2.457-2.467 2.466-2.463 2.478-2.458 2.487-2.454 2.497-2.448 2.507-2.442 2.517-2.437 2.525-2.431 2.535-2.425 2.543-2.418 2.551-2.412 2.56-2.404 2.568-2.398 2.576-2.39 2.583-2.382 2.59-2.374 2.597-2.366 2.604-2.358 2.61-2.349 2.616-2.341 2.623-2.331 2.627-2.322 2.634-2.312 2.638-2.303 2.643-2.292 2.648-2.283 2.652-2.272 2.655-2.262 2.66-2.25 2.663-2.24 2.666-2.229 2.669-2.217 2.671-2.206 2.674-2.194 2.675-2.182 2.678-2.17 2.678-2.158 2.68-2.145 2.681-2.132 2.68-2.12 2.682-2.107 2.681-2.093 2.68-2.081 2.68-2.066 2.679-2.053 2.677-2.04 2.676-2.025 2.674-2.012 2.672-1.997 2.669-1.983 2.666-1.968 2.663-1.954 2.66-1.938 2.656-1.925 2.651-1.909 2.648-1.894 2.642-1.878 2.638-1.864 2.632-1.847 2.626-1.833 2.621-1.816 2.614-1.801 2.607-1.785 2.601-1.77 2.593-1.753 2.586-1.737 2.578-1.72 2.569-1.705 2.561-1.688 2.553-1.672 2.543-1.655 2.534-1.638 2.523-1.622 2.514-1.606 2.504-1.588 2.492-1.572 2.482-1.555 2.471-1.538 2.458-1.522 2.447-1.504 2.435-1.487 2.422-1.471 2.409-1.453 2.396-1.436 2.382-1.419 2.369-1.402 2.354-1.385 2.34-1.368 2.326-1.351 2.31-1.333 2.296-1.317 2.279-1.299 2.264-1.283 2.247-1.265 2.231-1.248 2.214-1.231 2.197-1.214 2.18-1.197 2.162-1.18 2.144-1.164 2.126-1.146 2.107-1.129 2.088-1.113 2.07-1.096 2.05-1.079 2.03-1.062 2.011-1.046 1.99-1.029 1.97-1.013 1.949-.996 1.928-.98 1.907-.964 1.886-.947 1.863-.931 1.842-.916 1.819-.899 1.797-.883 1.774-.868 1.751-.852 1.727-.836 1.704-.82 1.681-.806 1.656-.79 1.632-.775 1.607-.759 1.583-.745 1.558-.73 1.533-.715 1.507-.7 1.482-.686 1.456-.672 1.43-.658 1.403-.643 16.784-7.604.987-.449.957-.437.928-.426.899-.415.869-.403.839-.393.81-.381.779-.371.749-.361.718-.35.688-.341.658-.33.627-.321.596-.311.565-.302.534-.293.503-.283.471-.275.441-.267.408-.258.378-.25.345-.243.314-.234.282-.227.251-.22.218-.212.187-.206.154-.199.122-.192.09-.186.058-.18.026-.174-.007-.169-.039-.163-.071-.158-.104-.153-.137-.148-.168-.144-.201-.139-.234-.135-.266-.131-.299-.128-.331-.124-.364-.12-.396-.118-.429-.115-.461-.112-.493-.11-.526-.108-.559-.105-.591-.104-.623-.103-.655-.101-.688-.1-.72-.099-.752-.099-.784-.098-.816-.098-.849-.097-.88-.098-.912-.099-.943-.099-.976-.1-1.007-.101-1.038-.103-1.07-.104-18.22-1.729-1.528-.151-1.557-.156-1.587-.161-1.616-.166-1.645-.172-1.673-.177-1.702-.183-1.731-.188-1.759-.195-1.787-.201-1.815-.208-1.843-.214-1.87-.221-1.898-.228-1.925-.235-1.952-.242-1.978-.25-2.005-.257-2.031-.266-2.058-.273-2.083-.282-2.11-.289-2.134-.299-2.16-.306-2.185-.316-2.209-.325-2.234-.333-2.259-.343-2.282-.352-2.306-.362-2.33-.371-2.353-.381-2.376-.391-2.4-.401-2.421-.412-2.444-.421-2.466-.432-2.487-.442-2.509-.453-2.531-.464-2.551-.475-2.572-.485-2.592-.497-2.613-.508-2.632-.519-2.652-.531-2.671-.542-2.69-.553-2.709-.566-2.727-.577-2.746-.589-2.763-.6-2.78-.613-2.798-.625-2.815-.637-2.831-.649-2.847-.661-2.864-.674-2.879-.686-2.895-.698-2.909-.711-2.924-.724-2.939-.736-2.953-.749-2.966-.761-2.98-.774-2.994-.787-3.005-.799-3.019-.813-3.03-.825-3.043-.838-3.054-.85-3.065-.864-3.076-.877-3.086-.889-3.097-.902-3.107-.915-3.116-.928-3.125-.941-3.134-.954-3.142-.966-3.151-.98-3.159-.992-3.166-1.005-3.173-1.018-3.181-1.03-3.186-1.043-3.193-1.056-3.199-1.069-3.204-1.081-3.21-1.093-3.214-1.106-3.218-1.118-3.223-1.131-3.227-1.143-3.23-1.155-3.233-1.168-3.236-1.179-3.239-1.192-3.24-1.203-3.243-1.216-3.243-1.227-3.245-1.239-3.246-1.25-3.246-1.262-3.247-1.274-3.246-1.284-3.245-1.296-3.245-1.307-3.243-1.318-3.242-1.329-3.24-1.34-3.238-1.35-3.235-1.361-3.232-1.372-3.23-1.381-3.225-1.392-3.222-1.402-3.218-1.411-3.213-1.421-3.209-1.431-3.203-1.441-3.198-1.449-3.192-1.459-3.187-1.468-3.18-1.477-3.173-1.485-3.166-1.494-3.159-1.502-3.151-1.51-3.144-1.519-3.135-1.526-3.127-1.534-3.118-1.541-3.109-1.548-3.1-1.556-3.09-1.563-3.08-1.569-3.069-1.576-3.06-1.582-3.048-1.588-3.038-1.594-3.026-1.6-3.014-1.606-3.003-1.611-2.99-1.615-2.978-1.621-2.965-1.626-2.952-1.63-2.939-1.634-2.926-1.638-2.911-1.642-2.898-1.646-2.884-1.649-2.869-1.652-2.854-1.655-2.839-1.657-2.824-1.66-2.809-1.663-2.793-1.664-2.777-1.666-2.76-1.667-2.745-1.669-2.728-1.669-2.711-1.67-2.694-1.671-2.677-1.671-2.659-1.671-2.641-1.671-2.624-1.67-2.606-1.669-2.587-1.668-2.569-1.667-2.551-1.666-2.531-1.663-2.513-1.662-2.493-1.659-2.474-1.657-2.454-1.653-2.435-1.651-2.415-1.647-2.394-1.643-2.375-1.64-2.354-1.635-2.334-1.631-2.313-1.626-2.292-1.621-2.271-1.615-2.25-1.61-2.229-1.605-2.208-1.598-2.186-1.591-2.164-1.585-2.143-1.578-2.12-1.571-2.099-1.564-2.077-1.555-2.055-1.547-2.032-1.54-2.01-1.53-1.987-1.522-1.965-1.512-1.942-1.503-1.92-1.494-1.896-1.483-1.874-1.473-1.851-1.462-1.827-1.452-1.805-1.441-1.781-1.429-1.758-1.418-1.735-1.405-1.712-1.394-1.688-1.381-1.665-1.368-1.641-1.355-1.618-1.342-1.594-1.329-1.57-1.314-1.547-1.301-1.524-1.286-1.5-1.272-1.476-1.257-1.452-1.241-1.429-1.226-1.405-1.211-1.382-1.194-1.358-1.179-1.334-1.162-1.31-1.145-1.287-1.129-1.264-1.11-1.239-1.094-1.217-1.076-1.192-1.058-1.169-1.04-1.146-1.022-1.123-1.002-12.484-11.227-.801-.716-.778-.695-.756-.672-.734-.65-.712-.626-.689-.604-.668-.58-.646-.558-.625-.534-.603-.51-.581-.486-.56-.462-.539-.438-.518-.413-.497-.39-.477-.363-.455-.339-.435-.314-.415-.288-.395-.263-.374-.237-.355-.211-.334-.186-.316-.159-.295-.133-.277-.106-.257-.08-.238-.054-.22-.026h-.201l-.182.028-.165.055-.146.082-.128.11-.111.137-.093.165-.075.193-.059.22-.041.25-.025.276-.008.306.008.333.025.362.04.39.056.419.072.447.087.477.103.505.117.533.132.563.146.592.161.62.175.65.189.68.203.707.216.738.229.766.242.796.255.825.267.854.28.884.292.913.304.943.316.972.326 1 .338 1.032 5.306 16.065.47 1.44.477 1.469.485 1.498.492 1.527.499 1.555.506 1.584.512 1.612.518 1.642.525 1.669.529 1.698.536 1.726.541 1.754.545 1.782.551 1.81.555 1.838.559 1.866.563 1.893.567 1.921.571 1.948.574 1.975.577 2.003.58 2.029.583 2.056.585 2.083.587 2.109.589 2.136.591 2.162.592 2.188.594 2.214.594 2.239.596 2.265.596 2.291.596 2.316.597 2.341.596 2.365.596 2.391.596 2.415.595 2.439.593 2.463.593 2.487.591 2.511.59 2.535.588 2.557.586 2.581.583 2.603.581 2.627.579 2.648.576 2.671.572 2.693.57 2.714.566 2.736.562 2.757.559 2.778.555 2.799.55 2.82.546 2.839.542 2.86.536 2.88.532 2.899.527 2.918.521 2.937.516 2.956.511 2.974.504 2.993.499 3.01.493 3.028.486 3.045.48 3.063.473 3.079.467 3.096.459 3.111.453 3.128.445 3.143.439 3.159.43 3.174.423 3.188.415 3.203.408 3.217.399 3.23.392 3.245.383 3.257.374 3.27.367 3.283.357 3.295.349 3.307.34 3.319.331 3.329.322 3.341.313 3.352.304 3.361.294 3.372.285 3.381.276 3.391.266 3.4.256 3.408.246 3.417.237 3.424.226 3.433.217 3.439.207 3.447.196 3.453.187 3.459.176 3.466.166 3.471.155 3.476.145 3.482.135 3.486.124 3.49.114 3.494.103 3.497.093 3.501.082 3.504.071 3.506.061 3.508.05 3.51.04 3.512.029 3.512.018 3.514.007 3.513"/><defs><linearGradient id="paint0_linear_68_73" x1="848.5" x2="130" y1="266.5" y2="718.5" gradientUnits="userSpaceOnUse"><stop stop-color="#fff"/><stop offset="1" stop-color="#fff" stop-opacity="0"/></linearGradient></defs></svg>