<svg width="125" height="125" viewBox="0 0 125 125" fill="none" xmlns="http://www.w3.org/2000/svg">
<path d="M76.2712 95.6616C75.2044 96.6594 74.0224 97.5262 72.7502 98.2437C68.028 100.554 62.8083 101.661 57.555 101.467C53.4706 101.425 49.3974 101.032 45.3801 100.294C44.4643 99.8865 43.7078 99.1895 43.227 98.3101C42.7463 97.4307 42.5681 96.4176 42.7197 95.4269C43.0327 92.078 43.1736 85.8028 43.2362 83.2676C43.2435 82.5181 43.42 81.7799 43.7526 81.1081L43.5178 80.9829L43.7526 81.0924C44.8167 78.9172 46.8824 74.8328 55.4424 74.8328H58.0401C62.6311 74.8659 67.2198 74.615 71.7799 74.0817C76.4746 73.4557 79.3697 72.5168 80.3869 71.2962C82.5934 68.6671 81.2319 65.7095 79.3697 62.4075C78.0239 59.9976 74.8471 54.3639 75.9738 51.0307C76.1302 50.5558 76.3915 50.1221 76.7382 49.7618C77.085 49.4015 77.5083 49.1239 77.9769 48.9494C79.8628 48.2042 81.8812 47.8527 83.9079 47.9166C86.5432 47.9604 89.1662 48.2857 91.7324 48.8868C93.1596 49.2314 94.4645 49.9623 95.5038 50.9994C97.6403 53.6824 98.7501 57.0393 98.6336 60.4671C98.5084 68.7297 92.4835 77.8218 87.4289 83.9406C84.0276 88.1042 80.3076 91.9969 76.3025 95.5834M82.343 103.705L78.1334 96.225C78.775 95.646 79.6983 94.754 80.9033 93.596C82.1385 93.8462 83.3373 94.2511 84.4713 94.801C88.1999 96.562 91.1989 99.5665 92.953 103.298C92.9037 103.375 92.837 103.44 92.7581 103.486C92.6792 103.532 92.5905 103.559 92.4992 103.564C92.2175 103.564 90.2457 103.69 82.343 103.705ZM29.3086 92.9231C30.4167 90.0667 32.0045 87.4205 34.0033 85.0986C34.6397 84.3983 35.4265 83.8514 36.3047 83.4991C37.1829 83.1467 38.1296 82.998 39.0735 83.0642H40.8575C41.1803 83.0918 41.5049 83.0918 41.8278 83.0642C41.8278 85.8654 41.6243 91.9528 41.3113 95.2548C41.1969 96.1736 41.2877 97.1063 41.5773 97.9858C41.8668 98.8653 42.3479 99.6696 42.9858 100.341C43.5655 100.938 44.2638 101.407 45.0358 101.718H45.1453C49.3016 102.486 53.5164 102.894 57.7428 102.938C59.5257 102.938 61.3072 102.839 63.0791 102.641C66.7879 102.309 70.3941 101.246 73.6891 99.5113C74.8615 98.8564 75.9583 98.0744 76.9597 97.1796L80.6842 103.799H75.7704C60.9665 103.799 40.2316 103.69 30.2788 103.627C29.5827 103.317 28.9429 102.894 28.3853 102.375C27.7606 99.2161 28.1098 95.9418 29.3868 92.9857M27.0707 91.3112C30.8421 81.2802 33.08 78.792 38.4789 78.792H39.2613H39.8247C39.8609 78.7909 39.8965 78.7819 39.9289 78.7657C39.9613 78.7495 39.9898 78.7264 40.0125 78.6981C40.0276 78.6691 40.0355 78.6369 40.0355 78.6042C40.0355 78.5715 40.0276 78.5393 40.0125 78.5103V77.947C39.9329 75.6835 40.6594 73.4653 42.0625 71.6874C42.7771 70.973 43.6341 70.4171 44.5778 70.0558C45.5215 69.6945 46.5307 69.536 47.5396 69.5904H48.2751C49.6679 69.5904 51.1546 69.5904 52.7195 69.5904H57.7897C60.224 69.6157 62.658 69.5164 65.0822 69.2931C69.6047 68.8236 72.1712 67.7282 73.1727 65.9285C74.6281 63.2995 72.8754 60.1541 71.2009 57.1182C69.8551 54.7082 68.478 52.22 68.9787 50.3891C69.2553 48.9833 70.0341 47.7262 71.1696 46.8524C73.2651 45.6317 75.6855 45.0853 78.1021 45.2875C81.714 45.3753 85.3113 45.7784 88.853 46.4925C89.4737 46.6189 90.0853 46.7862 90.6839 46.9933L89.119 46.7116C87.4162 46.4376 85.6952 46.2911 83.9705 46.2734C81.7326 46.211 79.5059 46.6105 77.4292 47.4471C76.7657 47.7052 76.1675 48.107 75.6777 48.6239C75.188 49.1407 74.8188 49.7596 74.5968 50.436C73.251 54.4109 76.6624 60.467 78.1178 63.0491C80.0426 66.445 80.7468 68.4793 79.3071 70.2007C77.8674 71.9221 69.1039 73.2053 58.0714 73.2053H55.5206C52.1521 73.012 48.8092 73.8943 45.9747 75.7248C44.4443 76.9198 43.2389 78.4803 42.4694 80.263C42.3167 80.6494 42.1113 81.0127 41.859 81.3428C41.5334 81.4595 41.187 81.5075 40.8419 81.4836H40.0594H39.0422C37.8737 81.4058 36.7028 81.5951 35.6182 82.037C34.5337 82.479 33.564 83.162 32.7827 84.0344C30.6787 86.5009 29.0164 89.3121 27.8688 92.3441C26.9673 94.6287 26.4798 97.0557 26.4292 99.5113C25.5924 96.7726 25.7872 93.8222 26.9768 91.2173M96.5054 49.5128C96.2129 49.1161 95.8939 48.7397 95.5508 48.386L95.4256 48.2608C93.6839 46.5723 91.4765 45.444 89.0877 45.0215C85.4807 44.2822 81.8145 43.8685 78.1334 43.7852C76.2283 43.7287 74.3265 43.977 72.4998 44.5207C71.2476 44.8922 70.1207 45.5987 69.2409 46.564C68.3611 47.5293 67.7618 48.7167 67.5078 49.9979C66.8505 52.4391 68.3841 55.1933 69.8707 57.8224C71.3574 60.4514 72.891 63.2526 71.8425 65.1461C70.4498 67.6969 63.5329 68.0255 57.6645 68.0255C56.0058 68.0255 54.347 68.0255 52.7351 68.0255H48.2595H47.524C46.3048 67.9704 45.0878 68.1734 43.9525 68.621C42.8172 69.0687 41.7892 69.7509 40.9358 70.6232C39.3716 72.4828 38.503 74.8286 38.4789 77.2584C37.1596 77.162 35.8351 77.3511 34.5955 77.8129C33.356 78.2747 32.2305 78.9983 31.296 79.9344C29.4337 81.8279 27.7906 84.9577 25.6154 90.7322C24.16 94.6132 24.0505 97.9464 25.3024 100.654C26.2106 102.636 27.8303 104.206 29.8406 105.051H29.9189H30.091C32.8609 105.051 57.5706 105.208 75.2071 105.208C86.443 105.208 92.2175 105.208 92.8278 105.035C93.4382 104.863 94.6901 104.675 94.6431 103.752C94.6396 103.373 94.5542 103 94.3927 102.657C93.2053 100.176 91.5134 97.971 89.425 96.1818C87.3367 94.3925 84.898 93.0588 82.2648 92.2658C84.6121 89.8715 86.803 87.4303 88.7904 85.0047C91.7924 81.3867 94.4144 77.4694 96.6149 73.3149C98.8348 69.355 100.115 64.9377 100.355 60.4044C100.487 56.4054 99.1262 52.5004 96.5367 49.4501" fill="#495876"/>
<path d="M33.5107 24.3874C33.1435 24.0775 32.7475 23.8652 32.3229 23.7505C31.8983 23.6242 31.4852 23.5611 31.0835 23.5611C30.8196 23.5611 30.5556 23.6013 30.2917 23.6816C30.0277 23.7505 29.7925 23.871 29.5859 24.0431C29.3794 24.2153 29.2072 24.439 29.0695 24.7145C28.9433 24.9899 28.8801 25.3227 28.8801 25.7129V29.1729C28.8801 29.563 28.9433 29.8958 29.0695 30.1713C29.2072 30.4352 29.3794 30.6533 29.5859 30.8254C29.804 30.9975 30.0392 31.1238 30.2917 31.2041C30.5556 31.2844 30.8196 31.3246 31.0835 31.3246C31.4852 31.3246 31.8868 31.2672 32.2885 31.1525C32.7016 31.0377 33.1148 30.8197 33.5279 30.4983L34.6468 32.323C34.2107 32.6902 33.6771 32.9771 33.0459 33.1837C32.4147 33.3903 31.7491 33.4935 31.0491 33.4935C30.4868 33.4935 29.9359 33.4132 29.3966 33.2525C28.8572 33.0919 28.3752 32.8566 27.9506 32.5468C27.526 32.2255 27.1817 31.8295 26.9178 31.359C26.6538 30.877 26.5218 30.3147 26.5218 29.6721V25.2309C26.5218 24.5997 26.6481 24.0489 26.9005 23.5783C27.1645 23.0963 27.503 22.6947 27.9162 22.3734C28.3408 22.052 28.8228 21.811 29.3621 21.6504C29.9015 21.4897 30.4524 21.4094 31.0147 21.4094C31.7032 21.4094 32.3631 21.5012 32.9943 21.6848C33.6369 21.8684 34.1878 22.1611 34.6468 22.5627L33.5107 24.3874ZM45.2256 29.586C45.2256 30.2286 45.1051 30.791 44.8641 31.273C44.6231 31.7549 44.296 32.1623 43.8829 32.4951C43.4697 32.8279 42.982 33.0804 42.4197 33.2525C41.8688 33.4132 41.2836 33.4935 40.6639 33.4935C40.0442 33.4935 39.4532 33.4132 38.8908 33.2525C38.34 33.0804 37.858 32.8279 37.4449 32.4951C37.0317 32.1623 36.7047 31.7549 36.4637 31.273C36.2227 30.791 36.1022 30.2286 36.1022 29.586V25.2309C36.1022 24.5997 36.2284 24.0431 36.4809 23.5611C36.7334 23.0791 37.0719 22.6775 37.4965 22.3562C37.9211 22.0348 38.4088 21.7938 38.9597 21.6332C39.5105 21.4725 40.0786 21.3922 40.6639 21.3922C41.2491 21.3922 41.8172 21.4782 42.368 21.6504C42.9189 21.8225 43.4066 22.075 43.8312 22.4078C44.2558 22.7291 44.5944 23.1365 44.8468 23.63C45.0993 24.112 45.2256 24.6686 45.2256 25.2997V29.586ZM42.85 25.7129C42.85 25.3227 42.7869 24.9956 42.6607 24.7317C42.5344 24.4562 42.368 24.2325 42.1615 24.0603C41.9549 23.8882 41.7197 23.762 41.4557 23.6816C41.2032 23.6013 40.9393 23.5611 40.6639 23.5611C40.3884 23.5611 40.1188 23.6013 39.8548 23.6816C39.5909 23.762 39.3556 23.8882 39.149 24.0603C38.9425 24.2325 38.7761 24.4562 38.6498 24.7317C38.5236 24.9956 38.4605 25.3227 38.4605 25.7129V29.1729C38.4605 29.563 38.5236 29.8958 38.6498 30.1713C38.7761 30.4467 38.9425 30.6705 39.149 30.8426C39.3556 31.0147 39.5909 31.141 39.8548 31.2213C40.1188 31.2902 40.3884 31.3246 40.6639 31.3246C40.9393 31.3246 41.2032 31.2902 41.4557 31.2213C41.7197 31.141 41.9549 31.0147 42.1615 30.8426C42.368 30.6705 42.5344 30.4467 42.6607 30.1713C42.7869 29.8958 42.85 29.563 42.85 29.1729V25.7129ZM56.22 27.0039L55.1183 29.1901L53.7756 31.7377H52.0714L50.746 29.2417L49.5926 27.0039H49.5238V33.373H47.1827V21.5127H49.3516L51.469 25.6956L52.8977 28.622H53.001L54.447 25.6268L56.4782 21.5127H58.6471V33.373H56.2888V27.0039H56.22ZM63.0222 26.7801H65.4321C65.9715 26.7801 66.3789 26.6309 66.6543 26.3326C66.9297 26.0342 67.0674 25.6612 67.0674 25.2137C67.0674 24.7546 66.924 24.3759 66.6371 24.0775C66.3617 23.7792 65.96 23.63 65.4321 23.63H63.0222V26.7801ZM65.9657 21.5127C66.551 21.5127 67.056 21.6274 67.4806 21.8569C67.9052 22.075 68.2552 22.3619 68.5306 22.7176C68.8175 23.0734 69.0241 23.4751 69.1503 23.9226C69.288 24.3587 69.3569 24.789 69.3569 25.2137C69.3569 25.6497 69.2765 26.0858 69.1159 26.5219C68.9667 26.958 68.7429 27.3539 68.4445 27.7097C68.1576 28.0654 67.7962 28.3581 67.3601 28.5876C66.9355 28.8056 66.4477 28.9146 65.8969 28.9146H63.0222V33.373H60.6639V21.5127H65.9657ZM76.4341 30.9287H72.3027L71.5281 33.373H69.0149L73.1807 21.5127H75.5906L79.7219 33.373H77.1571L76.4341 30.9287ZM72.9397 28.9491H75.7972L75.3324 27.4343L74.4028 24.3013H74.334L73.4216 27.3826L72.9397 28.9491ZM87.8589 24.3874C87.4916 24.0775 87.0957 23.8652 86.6711 23.7505C86.2465 23.6242 85.8334 23.5611 85.4317 23.5611C85.1678 23.5611 84.9038 23.6013 84.6399 23.6816C84.3759 23.7505 84.1407 23.871 83.9341 24.0431C83.7275 24.2153 83.5554 24.439 83.4177 24.7145C83.2914 24.9899 83.2283 25.3227 83.2283 25.7129V29.1729C83.2283 29.563 83.2914 29.8958 83.4177 30.1713C83.5554 30.4352 83.7275 30.6533 83.9341 30.8254C84.1521 30.9975 84.3874 31.1238 84.6399 31.2041C84.9038 31.2844 85.1678 31.3246 85.4317 31.3246C85.8334 31.3246 86.235 31.2672 86.6367 31.1525C87.0498 31.0377 87.4629 30.8197 87.8761 30.4983L88.995 32.323C88.5589 32.6902 88.0253 32.9771 87.3941 33.1837C86.7629 33.3903 86.0973 33.4935 85.3973 33.4935C84.835 33.4935 84.2841 33.4132 83.7447 33.2525C83.2054 33.0919 82.7234 32.8566 82.2988 32.5468C81.8742 32.2255 81.5299 31.8295 81.2659 31.359C81.002 30.877 80.87 30.3147 80.87 29.6721V25.2309C80.87 24.5997 80.9963 24.0489 81.2487 23.5783C81.5127 23.0963 81.8512 22.6947 82.2643 22.3734C82.689 22.052 83.1709 21.811 83.7103 21.6504C84.2497 21.4897 84.8005 21.4094 85.3628 21.4094C86.0514 21.4094 86.7113 21.5012 87.3424 21.6848C87.9851 21.8684 88.5359 22.1611 88.995 22.5627L87.8589 24.3874ZM95.2358 23.6472V33.373H92.8775V23.6472H89.7274V21.5127H98.3688V23.6472H95.2358Z" fill="#495876"/>
<path d="M35.2493 48.7248C35.2493 49.2986 35.1345 49.8093 34.905 50.2569C34.6755 50.6929 34.3542 51.0602 33.941 51.3586C33.5394 51.6454 33.0631 51.8635 32.5123 52.0127C31.9614 52.1619 31.3647 52.2365 30.722 52.2365C29.8613 52.2365 29.0523 52.116 28.2949 51.875C27.5375 51.634 26.7973 51.2094 26.0743 50.6011L27.3998 48.8797C27.9162 49.2814 28.4498 49.5913 29.0006 49.8093C29.563 50.0159 30.1195 50.1192 30.6704 50.1192C31.0491 50.1192 31.3704 50.0847 31.6344 50.0159C31.8983 49.9355 32.1106 49.8323 32.2713 49.706C32.4319 49.5683 32.5467 49.4191 32.6156 49.2585C32.6959 49.0863 32.7361 48.9142 32.7361 48.742C32.7361 48.4781 32.6672 48.26 32.5295 48.0879C32.4033 47.9158 32.2139 47.7723 31.9614 47.6576C31.7204 47.5313 31.4278 47.4223 31.0835 47.3305C30.7507 47.2272 30.3778 47.1182 29.9646 47.0034C29.5056 46.8887 29.0638 46.751 28.6392 46.5903C28.226 46.4182 27.8588 46.2059 27.5375 45.9534C27.2161 45.6894 26.9579 45.3739 26.7628 45.0066C26.5792 44.6279 26.4874 44.1746 26.4874 43.6467C26.4874 43.1303 26.585 42.6541 26.7801 42.218C26.9751 41.7819 27.2448 41.4089 27.5891 41.0991C27.9449 40.7777 28.3695 40.531 28.8629 40.3589C29.3679 40.1753 29.9245 40.0834 30.5327 40.0834C31.2557 40.072 31.9786 40.1408 32.7016 40.29C33.4246 40.4392 34.1246 40.7376 34.8017 41.1851L33.7689 43.0787C33.2181 42.7459 32.6959 42.5163 32.2024 42.3901C31.709 42.2639 31.2212 42.2008 30.7392 42.2008C30.5097 42.2008 30.2802 42.2294 30.0507 42.2868C29.8327 42.3442 29.6318 42.4303 29.4482 42.545C29.2761 42.6483 29.1326 42.7918 29.0179 42.9754C28.9146 43.1475 28.8629 43.3541 28.8629 43.5951C28.8629 43.8361 28.9203 44.0426 29.0351 44.2148C29.1613 44.3754 29.3392 44.5189 29.5687 44.6451C29.7982 44.7599 30.0736 44.8632 30.395 44.955C30.7278 45.0468 31.1007 45.1386 31.5139 45.2304C32.7648 45.5058 33.7 45.9247 34.3197 46.487C34.9394 47.0493 35.2493 47.7953 35.2493 48.7248ZM39.5637 40.29V52.1504H37.2054V40.29H39.5637ZM41.4895 50.1192L46.843 42.3901H41.7132V40.29H49.6833V42.2524L44.2609 50.0503H49.6833V52.1504H41.4895V50.1192ZM51.2676 40.29H59.4442V42.4073H53.6259V45.1271H58.6007V47.2444H53.6259V50.0503H59.4442V52.1504H51.2676V40.29Z" fill="#495876"/>
<path d="M62.33 1.95616C50.4049 1.95617 38.7474 5.49139 28.831 12.115C18.9146 18.7386 11.1843 28.1534 6.61719 39.1692C2.05008 50.1851 0.851167 62.3077 3.17195 74.0048C5.49274 85.7019 11.2291 96.4484 19.6559 104.886C28.0828 113.324 38.8219 119.074 50.516 121.41C62.21 123.746 74.3342 122.563 85.3559 118.01C96.3777 113.457 105.802 105.739 112.439 95.8314C119.075 85.9236 122.626 74.2707 122.641 62.3456C122.625 46.3552 116.265 31.0244 104.958 19.7174C93.6512 8.41049 78.3204 2.05098 62.33 2.03441M62.33 124.66C50.0016 124.66 37.9501 121.004 27.6997 114.154C17.4492 107.305 9.46026 97.5692 4.74311 86.179C0.0259634 74.7888 -1.20746 62.2555 1.19883 50.1643C3.60511 38.073 9.54301 26.9669 18.2616 18.2505C26.9801 9.53414 38.0877 3.59902 50.1796 1.19577C62.2715 -1.20747 74.8045 0.0290989 86.1935 4.74911C97.5825 9.46911 107.316 17.4605 114.163 27.7127C121.01 37.9649 124.663 50.0173 124.66 62.3456C124.643 78.87 118.071 94.7127 106.385 106.396C94.6987 118.079 78.8544 124.648 62.33 124.66Z" fill="#495876"/>
</svg>
