<?xml version="1.0" standalone="no"?>
<!DOCTYPE svg PUBLIC "-//W3C//DTD SVG 1.1//EN" "http://www.w3.org/Graphics/SVG/1.1/DTD/svg11.dtd" >
<svg>
<metadata>
Created by FontForge 20120731 at Sun Oct 13 17:37:47 2019
 By www-data
Copyright (c) Nick C. &#38; A.Gophmann (cyr.code page), 2003. All rights reserved.
</metadata>
<defs>
<font id="PosteRetro" horiz-adv-x="36" >
  <font-face 
    font-family="PosteRetro"
    font-weight="400"
    font-stretch="normal"
    units-per-em="1000"
    panose-1="2 0 4 0 0 0 0 0 0 0"
    ascent="800"
    descent="-200"
    x-height="862"
    cap-height="863"
    bbox="-64 -113 1579 1091"
    underline-thickness="20"
    underline-position="-123"
    unicode-range="U+0020-2122"
  />
<missing-glyph horiz-adv-x="500" 
d="M63 0v890h375v-890h-375zM125 63h250v765h-250v-765z" />
    <glyph glyph-name=".notdef" horiz-adv-x="500" 
d="M63 0v890h375v-890h-375zM125 63h250v765h-250v-765z" />
    <glyph glyph-name="space" unicode=" " horiz-adv-x="332" 
 />
    <glyph glyph-name="exclam" unicode="!" horiz-adv-x="246" 
d="M210 141h-174v15h144v697h30v-712zM112 186h-76v675h76v-675zM210 0h-30v110h30v-110zM112 0h-76v110h76v-110z" />
    <glyph glyph-name="quotedbl" unicode="&#x22;" horiz-adv-x="357" 
d="M321 881l-128 -204h-47l76 204h99zM211 881l-128 -204h-47l76 204h99z" />
    <glyph glyph-name="dollar" unicode="$" horiz-adv-x="473" 
d="M437 711l-112 -102l-1 27l82 75q-34 39 -82 59v91h30v-91q46 -19 83 -59zM378 290q0 -95 -61 -167v-125h-30v125q61 72 61 167q0 97 -61 173v126h30v-126q61 -76 61 -173zM323 704l-56 -51q-16 19 -45 27v-243q60 -71 60 -147q0 -86 -60 -140v-152h-76v110q-35 -8 -58 -8
v75q31 0 58 15v217q-69 77 -74 83q-36 51 -36 103t30.5 95.5t79.5 59.5v113h76v-104q59 -8 101 -53zM146 521v142q-35 -27 -35 -70q0 -34 35 -72z" />
    <glyph glyph-name="ampersand" unicode="&#x26;" horiz-adv-x="887" 
d="M442 722h-30v141h30v-141zM621 330h-31l-255 372q0 17 14 17h31q-14 -2 -14 -22zM851 0h-31l-113 161q27 71 27 143h31q0 -73 -28 -143zM736 0h-92l-63 89q-92 -100 -230 -100q-130 0 -222.5 92.5t-92.5 222.5q0 98 52 178t142 115q-38 53 -38 105q0 66 46.5 113.5
t112.5 47.5v-77q-34 0 -59 -25t-25 -59q0 -26 12 -43l299 -431q12 35 12 76h75q0 -81 -37 -149zM537 153l-262 380q-76 -23 -120 -86t-44 -143q0 -99 70.5 -169.5t169.5 -70.5q113 0 186 89zM366 133h-15q-71 0 -121 50.5t-50 121.5q0 93 71 143l11 -16q-52 -45 -52 -127
q0 -66 45 -116.5t111 -55.5z" />
    <glyph glyph-name="quotesingle" unicode="'" horiz-adv-x="247" 
d="M211 881l-128 -204h-47l76 204h99z" />
    <glyph glyph-name="parenleft" unicode="(" horiz-adv-x="439" 
d="M403 -14l-70 -96h-30l70 96q-91 66 -142 165t-51 210q0 112 51 211.5t142 164.5l-71 95h30l71 -95q-91 -65 -142 -164.5t-51 -211.5q0 -111 51 -210t142 -165zM303 -47l-45 -61q-105 88 -163.5 210.5t-58.5 258.5t58.5 259t163.5 210l45 -61q-91 -76 -140.5 -182.5
t-49.5 -225.5q0 -118 50 -225t140 -183z" />
    <glyph glyph-name="parenright" unicode=")" horiz-adv-x="437" 
d="M401 362q0 -267 -181 -472h-31q67 75 112 169q70 148 70 303q0 268 -181 473h31q71 -83 112 -169q68 -144 68 -304zM302 362q0 -136 -58 -259t-163 -209l-45 61q91 76 141 182.5t50 224.5t-50 225t-140 182l45 61q104 -86 162 -209t58 -259z" />
    <glyph glyph-name="asterisk" unicode="*" horiz-adv-x="368" 
d="M332 687l-97 -6l15 -97l-66 71l-65 -71l15 97l-98 6l85 48l-56 81l91 -36l28 92l28 -92l91 36l-56 -81z" />
    <glyph glyph-name="comma" unicode="," horiz-adv-x="292" 
d="M256 -11l-93 -85l-14 15l77 70v121h30v-121zM158 20l-71 -65l-51 56l46 42v57h76v-90z" />
    <glyph glyph-name="hyphen" unicode="-" horiz-adv-x="353" 
d="M317 308h-224v16h201v196h23v-212zM232 391h-196v76h196v-76z" />
    <glyph glyph-name="period" unicode="." horiz-adv-x="246" 
d="M210 0h-30v110h30v-110zM112 0h-76v110h76v-110z" />
    <glyph glyph-name="slash" unicode="/" horiz-adv-x="420" 
d="M384 840l-275 -897l-73 -1l275 897z" />
    <glyph glyph-name="zero" unicode="0" horiz-adv-x="1055" 
d="M1019 430q0 -134 -65 -250q-64 -112 -174 -181h-30q109 69 173 181q65 116 65 250t-65 250q-63 112 -172 182h30q109 -70 173 -182q65 -116 65 -250zM921 430q0 -182 -130.5 -312t-313.5 -130t-312 129.5t-129 312.5t129 313.5t312 130.5t313.5 -130.5t130.5 -313.5z
M844 430q0 152 -107.5 259.5t-259.5 107.5q-151 0 -258.5 -107.5t-107.5 -259.5q0 -151 107.5 -258.5t258.5 -107.5q152 0 259.5 107.5t107.5 258.5zM515 715q-118 -7 -200.5 -94t-82.5 -206q0 -150 122 -241q66 -38 139 -42h-16q-122 0 -209.5 87.5t-87.5 210.5
q0 124 87 212t210 88q6 0 38 -15z" />
    <glyph glyph-name="one" unicode="1" horiz-adv-x="277" 
d="M241 863l-30 -863h-31v863h61zM111 0h-75v863h75v-863z" />
    <glyph glyph-name="two" unicode="2" horiz-adv-x="684" 
d="M648 546q0 -155 -111 -269l-130 -133h-30l129 133q113 117 113 269q0 94 -45 178t-123 139h30q78 -54 122.5 -138t44.5 -179zM405 541q-4 68 -54 115.5t-118 47.5q-52 0 -95 -29l-12 19q66 32 107 32q71 0 121.5 -51t50.5 -122v-12zM549 546q0 -131 -91 -223l-243 -247
h303v-76h-482l368 377q70 72 70 169q0 99 -71 169.5t-170 70.5q-73 0 -132 -39l-43 63q83 53 175 53q130 0 223 -93t93 -224zM610 0h-31v144h31v-144z" />
    <glyph glyph-name="three" unicode="3" horiz-adv-x="659" 
d="M623 302q0 -91 -40 -170.5t-110 -133.5h-30q70 54 110 133.5t40 170.5q0 105 -54 195.5t-146 140.5l179 223h31l-180 -223q92 -50 146 -140.5t54 -195.5zM524 302q0 -130 -92 -222.5t-222 -92.5q-96 0 -174 51l43 63q59 -39 131 -39q98 0 168.5 70.5t70.5 169.5
t-70.5 169t-168.5 70h-79l196 243h-239v77h396l-203 -253q107 -25 175 -111t68 -195z" />
    <glyph glyph-name="four" unicode="4" horiz-adv-x="792" 
d="M686 397h-30v464h30v-464zM756 185h-30v212h30v-212zM665 253h-78v-253h-75v253h-476l477 608h74v-532h78v-76zM686 0h-30v185h30v-185zM512 329v407l-320 -407h320zM443 476l-81 -79h-31l112 142v-63z" />
    <glyph glyph-name="five" unicode="5" horiz-adv-x="658" 
d="M622 302q0 -91 -40 -170.5t-109 -133.5h-30q69 54 109 134t40 170q0 127 -77 229.5t-200 138.5l-1 54h214v137h30v-159h-211l-1 -32q122 -36 199 -138.5t77 -229.5zM524 302q0 -130 -92.5 -222.5t-222.5 -92.5q-96 0 -173 51l42 63q61 -39 131 -39q99 0 169 70.5
t70 169.5t-70.5 169t-168.5 70h-40v320h298v-77h-219v-170q117 -14 196.5 -103.5t79.5 -208.5z" />
    <glyph glyph-name="six" unicode="6" horiz-adv-x="801" 
d="M765 302q0 -90 -40 -170t-109 -134h-31q70 54 110 133.5t40 170.5q0 135 -85.5 240t-216.5 134l149 185h31l-150 -185q132 -29 217 -134t85 -240zM667 302q0 -130 -92.5 -222.5t-222.5 -92.5t-223 92.5t-93 222.5q0 108 72 198l289 361h97l-200 -250q38 6 58 6
q130 0 222.5 -92.5t92.5 -222.5zM592 302q0 99 -70.5 169t-169.5 70q-100 0 -169.5 -70.5t-69.5 -168.5q0 -99 70.5 -169.5t168.5 -70.5q99 0 169.5 70.5t70.5 169.5zM368 131h-16q-71 0 -121.5 50t-50.5 121q0 70 51 120.5t121 50.5h16q-67 -7 -112 -56t-45 -115
q0 -67 45.5 -116.5t111.5 -54.5z" />
    <glyph glyph-name="seven" unicode="7" horiz-adv-x="574" 
d="M538 861l-285 -861h-31l286 861h30zM436 861l-284 -861h-80l259 784h-295v77h400z" />
    <glyph glyph-name="eight" unicode="8" horiz-adv-x="801" 
d="M765 302q0 -91 -40 -170.5t-110 -133.5h-31q70 54 110.5 133.5t40.5 170.5q0 95 -45.5 179.5t-124.5 138.5q14 44 14 80q0 93 -65 161h30q65 -68 65 -161q0 -41 -14 -80q79 -54 124.5 -138t45.5 -180zM667 302q0 -130 -92.5 -222.5t-223.5 -92.5q-130 0 -222.5 92.5
t-92.5 222.5q0 96 54.5 176t143.5 116q-42 44 -42 106q0 67 47 114t112 47q66 0 113 -47t47 -114q0 -60 -41 -106q89 -36 143 -116t54 -176zM435 700q0 35 -24.5 59.5t-59.5 24.5q-34 0 -59 -24.5t-25 -59.5q0 -37 26 -60t59 -23q34 0 58.5 24.5t24.5 58.5zM591 302
q0 99 -70.5 169t-169.5 70q-97 0 -167.5 -70.5t-70.5 -168.5q0 -99 69.5 -169.5t168.5 -70.5t169.5 70.5t70.5 169.5zM366 700q0 -15 -15 -15t-15 15q0 17 15 17t15 -17zM366 131h-15q-70 0 -120.5 50t-50.5 121q0 70 50.5 120.5t120.5 50.5h15q-65 -7 -110 -56t-45 -115
q0 -67 45 -116.5t110 -54.5z" />
    <glyph glyph-name="nine" unicode="9" horiz-adv-x="800" 
d="M764 554q0 -141 -86 -249l-245 -307h-31l245 307q86 108 86 249q0 91 -46 174q-44 79 -120 133h30q77 -54 121 -133q46 -83 46 -174zM666 546q0 -113 -70 -200l-281 -348h-97l192 237q-27 -4 -59 -4q-130 0 -222.5 92.5t-92.5 222.5t92.5 222.5t222.5 92.5t222.5 -92.5
t92.5 -222.5zM591 546q0 99 -70.5 169t-169.5 70t-168.5 -70t-69.5 -169t69.5 -169.5t168.5 -70.5t169.5 70.5t70.5 169.5zM366 375q-8 -1 -17 -1q-69 0 -119 51t-50 121q0 73 50.5 122t124.5 49h10q-66 -4 -110 -54t-44 -117t44.5 -116.5t110.5 -54.5z" />
    <glyph glyph-name="colon" unicode=":" horiz-adv-x="249" 
d="M211 263h-175v22h145v166h30v-188zM113 339h-76v112h76v-112zM213 0h-30v110h30v-110zM115 0h-76v110h76v-110z" />
    <glyph glyph-name="semicolon" unicode=";" horiz-adv-x="292" 
d="M256 263h-175v22h145v166h30v-188zM158 339h-76v112h76v-112zM256 -11l-93 -85l-14 15l77 70v121h30v-121zM158 20l-71 -65l-51 56l46 42v57h76v-90z" />
    <glyph glyph-name="question" unicode="?" horiz-adv-x="535" 
d="M279 682q-18 35 -58 35q-29 0 -49 -22l-19 19q37 33 61 33q27 0 46 -19t19 -46zM499 650q0 -105 -73 -186l-124 -137q-35 -39 -35 -86v-108h-175v23h145v85q0 49 34 86l125 137q73 80 73 186q0 126 -96 211h30q96 -85 96 -211zM400 650q0 -81 -54 -140l-125 -137
q-52 -57 -52 -132v-55h-76v55q0 103 72 183l124 137q36 40 36 89q0 56 -39 95t-95 39q-59 0 -99 -43l-56 51q61 69 155 69q86 0 147.5 -62t61.5 -149zM267 -2h-30v112h30v-112zM169 -2h-76v112h76v-112z" />
    <glyph glyph-name="at" unicode="@" horiz-adv-x="1048" 
d="M1012 417q0 -122 -58 -203q-65 -92 -183 -92q-8 0 -16 1q6 0 18 1q110 15 166 101q50 75 50 192q0 137 -69 256t-188 188h23q119 -69 188 -188t69 -256zM755 337l-8 -3h-4q-22 -2 -27 24l-26 142q-26 139 -131 205q46 -14 50 -17q36 -28 67 -85q28 -53 37 -102l25 -143
q3 -15 17 -21zM921 417q0 -95 -39 -155q-45 -71 -136 -71q-49 0 -108 36q-60 -69 -160 -69q-77 0 -135 46q-63 50 -63 125q0 76 62 126q58 46 136 46q38 0 69 -11q-12 47 -42 76q-33 32 -79 32q-62 0 -105 -57l-60 47q67 87 165 87q62 0 115 -40q66 -50 83 -146l25 -143
q3 -19 12 -33q29 -47 83 -47q101 0 101 151q0 152 -107.5 259.5t-259.5 107.5q-151 0 -259 -108t-108 -259t108 -259t259 -108q92 0 169 42l42 -64q-97 -53 -211 -53q-183 0 -312.5 129.5t-129.5 312.5t129.5 313.5t312.5 130.5t313 -130.5t130 -313.5zM778 -2h-23l-92 138
q12 -4 29 -7zM258 590q-56 -75 -56 -178q0 -24 6 -53q2 -6 4 -17v-13q0 -29 9 -63q-41 68 -41 151q0 104 64 184zM589 288q-10 21 -17 55q-4 28 -9 56q-37 27 -85 27q-45 0 -81 -26q-41 -28 -41 -71t41 -71q36 -25 81 -25q77 0 111 55zM490 302h-12q-14 0 -32 7
q-22 9 -22 20q0 12 22 21q17 7 32 7q8 0 12 -1q-12 -1 -28 -9t-16 -18q0 -19 44 -27z" />
    <glyph glyph-name="A" unicode="A" horiz-adv-x="840" 
d="M804 -1h-30l-324 862h31zM701 0h-80l-32 88h-440l-32 -88h-81l333 905zM227 19l-8 -20h-30l8 20h30zM560 163l-191 521l-192 -521h383zM405 390l-101 -158h-30l95 256z" />
    <glyph glyph-name="B" unicode="B" horiz-adv-x="636" 
d="M600 156q0 -92 -65 -157h-30q65 65 65 157q0 91 -65 158q44 88 44 189q0 111 -54 208q-52 94 -142 151h31q90 -57 142 -151q54 -97 54 -208q0 -99 -45 -189q65 -67 65 -158zM501 156q0 -64 -45.5 -110t-109.5 -46h-310v862h87q148 0 253.5 -105.5t105.5 -253.5
q0 -114 -67 -207q86 -44 86 -140zM405 503q0 117 -82.5 200.5t-199.5 83.5h-11l-2 -566h13q117 0 199.5 83t82.5 199zM426 156q0 29 -18.5 51.5t-47.5 27.5q-103 -90 -237 -90q-8 0 -13 1v-71h236q32 0 56 24t24 57zM236 694l-27 -387q-1 0 -30 -11l2 414q23 -6 55 -16z" />
    <glyph glyph-name="C" unicode="C" horiz-adv-x="851" 
d="M795 772l-61 -91q-12 8 -22 13l62 93zM815 60l-22 -14l-81 122q16 8 22 13zM722 61q-109 -73 -243 -73q-183 0 -313 130t-130 312q0 183 130 313.5t313 130.5q131 0 243 -73l-41 -64q-90 60 -202 60q-152 0 -259.5 -107.5t-107.5 -259.5q0 -151 108 -258.5t259 -107.5
q110 0 202 60zM517 715q-119 -7 -201.5 -93.5t-82.5 -206.5q0 -150 123 -241q64 -38 139 -42h-16q-81 0 -153 42q-67 39 -106.5 107.5t-39.5 148.5q0 124 88 212t211 88q6 0 38 -15z" />
    <glyph glyph-name="D" unicode="D" horiz-adv-x="588" 
d="M552 431q0 -132 -65.5 -248.5t-176.5 -183.5h-30q111 67 176.5 183.5t65.5 248.5q0 131 -64.5 247t-173.5 184h31q108 -68 172.5 -184t64.5 -247zM454 431q0 -162 -107 -288q-110 -129 -271 -141l-40 -3v866l40 -3q161 -12 271 -141q107 -126 107 -290zM378 431
q0 121 -75 222t-192 127v-696q117 26 192 126t75 221zM228 645l-18 -437q-5 -4 -15 -11.5t-15 -11.5v494q19 -12 48 -34z" />
    <glyph glyph-name="E" unicode="E" horiz-adv-x="540" 
d="M475 700h-186l-109 -301v321h265v142h30v-162zM412 0h-376v862h346v-75h-269v-457h271v-75h-271v-180h299v-75zM475 186h-264v-42h-31v62h265v193h30v-213zM504 -1h-31v145h31v-145z" />
    <glyph glyph-name="F" unicode="F" horiz-adv-x="511" 
d="M472 700h-187l-109 -301v321h265v142h31v-162zM383 255h-272v-255h-75v862h344v-75h-269v-457h272v-75zM475 186h-265v-186h-30v206h264v193h31v-213z" />
    <glyph glyph-name="G" unicode="G" horiz-adv-x="874" 
d="M801 781l-67 -100q-3 2 -10 6.5t-11 6.5l66 101zM838 36q-19 -13 -59 -37h-31q25 14 59 37v344h31v-344zM739 72q-131 -84 -261 -84q-182 0 -312 130t-130 312q0 183 130 313.5t312 130.5q132 0 244 -73l-42 -64q-90 60 -202 60q-151 0 -259 -107.5t-108 -259.5
q0 -151 108 -258.5t259 -107.5q99 0 186 49v123h-192v76h267v-240zM516 715q-118 -7 -200.5 -94t-82.5 -206q0 -150 122 -241q66 -38 140 -42h-17q-83 0 -153 42q-66 40 -105.5 108t-39.5 148q0 124 87.5 212t210.5 88q6 0 38 -15z" />
    <glyph glyph-name="H" unicode="H" horiz-adv-x="892" 
d="M856 862l-30 -862h-31v862h61zM241 862l-23 -482h-38v482h61zM727 0h-76v236h-539v-236h-76v862h76v-550h539v550h76v-862zM596 148h-379l-7 -148h-30v168h416v-20z" />
    <glyph glyph-name="I" unicode="I" horiz-adv-x="277" 
d="M241 863l-30 -863h-31v863h61zM111 0h-75v863h75v-863z" />
    <glyph glyph-name="J" unicode="J" horiz-adv-x="400" 
d="M364 862l-30 -664q-6 -124 -91 -199h-30q90 80 90 199v664h61zM235 198q0 -82 -58.5 -140t-140.5 -58v75q51 0 87 36.5t36 86.5v664h76v-664z" />
    <glyph glyph-name="K" unicode="K" horiz-adv-x="776" 
d="M740 862l-364 -488l308 -375h-30l-308 375l363 488h31zM244 862l-31 -313l-31 -40l1 353h61zM624 862l-365 -491l307 -371h-97l-256 309l-101 -134v-175h-76l1 862h78l-1 -559l417 559h93zM231 181l-19 -28v-153h-32l1 153l35 46z" />
    <glyph glyph-name="L" unicode="L" horiz-adv-x="525" 
d="M240 862l-30 -718h-31v718h61zM397 0h-361v862h75v-787h286v-75zM489 -1h-31v145h31v-145z" />
    <glyph glyph-name="M" unicode="M" horiz-adv-x="957" 
d="M921 0h-28v804h28v-804zM830 0h-71v611l-326 -623l-326 623v-611h-71v897l397 -757l397 757v-897zM447 303l-14 -27l-286 528h57zM695 298l-155 -299h-29l184 353v-54zM230 241l-31 -241h-28v352z" />
    <glyph glyph-name="N" unicode="N" horiz-adv-x="842" 
d="M806 -1h-30v842h30v-842zM570 343l-410 498h29l381 -462v-36zM710 -52l-600 738v-686h-74v893l600 -738v686h74v-893zM246 414l-40 -414h-29v499z" />
    <glyph glyph-name="O" unicode="O" horiz-adv-x="1055" 
d="M1019 430q0 -134 -65 -250q-64 -112 -174 -181h-30q109 69 173 181q65 116 65 250t-65 250q-63 112 -172 182h30q109 -70 173 -182q65 -116 65 -250zM921 430q0 -182 -130.5 -312t-313.5 -130t-312 129.5t-129 312.5t129 313.5t312 130.5t313.5 -130.5t130.5 -313.5z
M844 430q0 152 -107.5 259.5t-259.5 107.5q-151 0 -258.5 -107.5t-107.5 -259.5q0 -151 107.5 -258.5t258.5 -107.5q152 0 259.5 107.5t107.5 258.5zM515 715q-118 -7 -200.5 -94t-82.5 -206q0 -150 122 -241q66 -38 139 -42h-16q-122 0 -209.5 87.5t-87.5 210.5
q0 124 87 212t210 88q6 0 38 -15z" />
    <glyph glyph-name="P" unicode="P" horiz-adv-x="617" 
d="M581 503q0 -161 -106.5 -281.5t-263.5 -140.5v-81h-31v81q157 20 263.5 140.5t106.5 281.5q0 112 -53 207t-143 152h31q90 -57 143 -152t53 -207zM483 503q0 -148 -105.5 -253t-253.5 -105q-9 0 -13 1v-146h-75v862h88q148 0 253.5 -105.5t105.5 -253.5zM408 503
q0 117 -83.5 200.5t-200.5 83.5h-11l-1 -566h12q117 0 200.5 83t83.5 199zM248 682l-36 -375q-5 -2 -15.5 -5.5t-15.5 -5.5l1 414q22 -6 66 -28z" />
    <glyph glyph-name="Q" unicode="Q" horiz-adv-x="1056" 
d="M1020 430q0 -218 -159 -369l28 -46l-27 -16h-31l28 16l-29 46q159 151 159 369q0 134 -65 250q-63 113 -172 182h30q109 -70 173 -182q65 -116 65 -250zM922 430q0 -107 -48.5 -200t-131.5 -155l59 -96l-64 -39l-59 96q-93 -48 -200 -48q-182 0 -312 130t-130 312
q0 183 130 313.5t312 130.5q183 0 313.5 -130.5t130.5 -313.5zM846 430q0 152 -108 259.5t-260 107.5q-151 0 -259 -107.5t-108 -259.5q0 -151 108 -258.5t259 -107.5q85 0 159 36l-54 88l64 40l55 -89q67 52 105.5 128.5t38.5 162.5zM517 715q-118 -7 -201 -94t-83 -206
q0 -150 122 -241q66 -38 139 -42h-16q-83 0 -153 42q-66 40 -105.5 108t-39.5 148q0 124 87.5 212t210.5 88q6 0 39 -15z" />
    <glyph glyph-name="R" unicode="R" horiz-adv-x="618" 
d="M582 503q0 -94 -39 -177.5t-108 -142.5l105 -168l-102 -62h-30l101 62l-105 168q69 59 108.5 142.5t39.5 177.5q0 111 -54 208q-53 94 -143 151h31q90 -57 142 -151q54 -97 54 -208zM483 503q0 -93 -45.5 -173.5t-122.5 -129.5l107 -175l-64 -39l-111 181
q-61 -22 -122 -22q-9 0 -14 1v-146h-75v862h89q148 0 253 -105.5t105 -253.5zM219 82h-4q-3 -1 -4 -1v-81h-31v81l36 6zM408 503q0 117 -83.5 200.5t-199.5 83.5h-14v-566h14q116 0 199.5 83t83.5 199zM247 682l-36 -375q-5 -2 -15.5 -5.5t-15.5 -5.5l1 414q22 -6 66 -28z
" />
    <glyph glyph-name="S" unicode="S" horiz-adv-x="535" 
d="M434 718q-16 0 -31 -3v147h31v-144zM499 209q0 -127 -96 -210h-30q96 83 96 210q0 109 -72 188l-124 136q-35 39 -35 86q0 44 29.5 71.5t73.5 27.5h33v-4q-81 -20 -81 -110q0 -36 30 -71l115 -136q61 -72 61 -188zM401 209q0 -86 -61.5 -147.5t-147.5 -61.5
q-93 0 -156 69l57 51q40 -45 99 -45q55 0 94 39.5t39 94.5q0 52 -35 91l-124 137q-72 80 -72 182q0 103 72.5 173t175.5 70v-75q-72 0 -122.5 -48t-50.5 -120q0 -75 52 -132l125 -136q55 -60 55 -142z" />
    <glyph glyph-name="T" unicode="T" horiz-adv-x="736" 
d="M700 718h-31v144h31v-144zM618 718l-159 -79v-639h-31v718h190zM214 687h-178v31h178v-31zM608 787h-248v-787h-75v787h-249v75h572v-75z" />
    <glyph glyph-name="U" unicode="U" horiz-adv-x="862" 
d="M826 345q0 -105 -52 -199q-51 -90 -137 -147h-31q87 56 138.5 148t51.5 198v517h30v-517zM727 345q0 -142 -101.5 -243.5t-243.5 -101.5q-143 0 -244.5 101.5t-101.5 243.5v517h76v-517q0 -111 79 -190.5t191 -79.5q110 0 190 79.5t80 190.5v517h75v-517zM397 144h-15
q-83 0 -143 59t-60 142v517h84l-53 -517q0 -78 54.5 -136t132.5 -65z" />
    <glyph glyph-name="V" unicode="V" horiz-adv-x="853" 
d="M817 862l-322 -862h-31l323 862h30zM390 398l-15 -42l-186 506h83zM715 862l-340 -924l-339 924h81l258 -703l259 703h81z" />
    <glyph glyph-name="W" unicode="W" horiz-adv-x="1393" 
d="M1357 863l-317 -863h-30l317 863h30zM933 408l-16 -44l-173 499h84zM1254 863l-340 -916l-269 763l-270 -763l-339 916h81l257 -699l271 773l270 -773l258 699h81zM387 408l-14 -44l-184 499h83zM660 461l-163 -461h-31l179 505z" />
    <glyph glyph-name="X" unicode="X" horiz-adv-x="919" 
d="M883 0h-31l-322 483l252 379h31l-253 -379zM419 696l-16 -23l-126 189h84zM771 0h-92l-276 414l-276 -414h-91l322 483l-253 379h90l208 -312l207 312h92l-254 -379zM431 253l-192 -253h-31l195 292z" />
    <glyph glyph-name="Y" unicode="Y" horiz-adv-x="990" 
d="M954 862l-475 -863h-30l475 863h30zM518 565l-10 -21l-281 318h83zM845 862l-472 -862h-87l195 355l-445 507h101l383 -436l239 436h86z" />
    <glyph glyph-name="Z" unicode="Z" horiz-adv-x="850" 
d="M814 862l-480 -718h-30l479 718h31zM425 720l-13 -20h-323v20h336zM778 -1h-31v145h31v-145zM701 862l-524 -787h509v-75h-650l524 787h-475v75h616z" />
    <glyph glyph-name="underscore" unicode="_" horiz-adv-x="500" 
d="M499 -80h-499v75h499v-75z" />
    <glyph glyph-name="grave" unicode="`" horiz-adv-x="310" 
d="M274 887h-55l-183 204h114z" />
    <glyph glyph-name="d" unicode="d" horiz-adv-x="480" 
d="M454 431q0 -162 -107 -288q-110 -129 -271 -141l-40 -3v866l40 -3q161 -12 271 -141q107 -126 107 -290zM378 431q0 121 -75 222t-192 127v-696q117 26 192 126t75 221z" />
    <glyph glyph-name="f" unicode="f" horiz-adv-x="390" 
d="M367 255h-272v-255h-75v862h344v-75h-269v-457h272v-75z" />
    <glyph glyph-name="g" unicode="g" horiz-adv-x="749" 
d="M722 72q-131 -84 -261 -84q-182 0 -312 130t-130 312q0 183 130 313.5t312 130.5q132 0 244 -73l-42 -64q-90 60 -202 60q-151 0 -259 -107.5t-108 -259.5q0 -151 108 -258.5t259 -107.5q99 0 186 49v123h-192v76h267v-240z" />
    <glyph glyph-name="j" unicode="j" horiz-adv-x="268" 
d="M235 198q0 -82 -58.5 -140t-140.5 -58v75q51 0 87 36.5t36 86.5v664h76v-664z" />
    <glyph glyph-name="Euro" unicode="&#x20ac;" horiz-adv-x="901" 
d="M865 848l-111 -169q-7 5 -21 13l102 156h30zM576 728q-150 -8 -233 -132h-31q41 61 106.5 97t141.5 36h8q5 -1 8 -1zM855 378h-61v-115h-451q84 -126 233 -132h-16q-77 0 -147 38q-73 40 -107 106h457v115h61v206h31v-218zM865 11h-30l-102 156q14 8 21 13zM764 37
q-94 -50 -204 -50q-156 0 -276.5 97t-155.5 246h-92v76h82q-1 8 -1 23t1 23h-82v76h92q35 149 155.5 246t276.5 97q113 0 204 -50l-41 -63q-76 38 -163 38q-125 0 -223 -75t-131 -193h557v-76h-570v-46h509v-76h-496q33 -117 131.5 -192.5t222.5 -75.5q87 0 163 38z" />
    <glyph glyph-name="quotesinglbase" unicode="&#x201a;" horiz-adv-x="247" 
d="M211 91l-128 -204h-47l76 204h99z" />
    <glyph glyph-name="quotedblbase" unicode="&#x201e;" horiz-adv-x="357" 
d="M321 91l-128 -204h-47l76 204h99zM211 91l-128 -204h-47l76 204h99z" />
    <glyph glyph-name="ellipsis" unicode="&#x2026;" horiz-adv-x="506" 
d="M470 0h-30v110h30v-110zM372 0h-76v110h76v-110zM242 0h-76v110h76v-110zM112 0h-76v110h76v-110z" />
    <glyph glyph-name="dagger" unicode="&#x2020;" horiz-adv-x="72" 
 />
    <glyph glyph-name="daggerdbl" unicode="&#x2021;" horiz-adv-x="72" 
 />
    <glyph glyph-name="perthousand" unicode="&#x2030;" horiz-adv-x="72" 
 />
    <glyph glyph-name="guilsinglleft" unicode="&#x2039;" horiz-adv-x="270" 
d="M234 178h-28l-170 251l170 252h28l-99 -252z" />
    <glyph glyph-name="quoteleft" unicode="&#x2018;" horiz-adv-x="247" 
d="M211 881l-76 -204h-99l128 204h47z" />
    <glyph glyph-name="quoteright" unicode="&#x2019;" horiz-adv-x="247" 
d="M211 881l-128 -204h-47l76 204h99z" />
    <glyph glyph-name="quotedblleft" unicode="&#x201c;" horiz-adv-x="357" 
d="M321 881l-76 -204h-99l128 204h47zM211 881l-76 -204h-99l128 204h47z" />
    <glyph glyph-name="quotedblright" unicode="&#x201d;" horiz-adv-x="357" 
d="M321 881l-128 -204h-47l76 204h99zM211 881l-128 -204h-47l76 204h99z" />
    <glyph glyph-name="bullet" unicode="&#x2022;" horiz-adv-x="442" 
d="M406 418q0 -76 -54 -130t-131 -54t-131 54t-54 130q0 77 54.5 131t130.5 54q77 0 131 -54t54 -131z" />
    <glyph glyph-name="endash" unicode="&#x2013;" horiz-adv-x="553" 
d="M517 308h-424v16h401v196h23v-212zM432 391h-396v76h396v-76z" />
    <glyph glyph-name="emdash" unicode="&#x2014;" horiz-adv-x="1043" 
d="M1007 308h-914v16h891v196h23v-212zM922 391h-886v76h886v-76z" />
    <glyph glyph-name="trademark" unicode="&#x2122;" horiz-adv-x="72" 
 />
    <glyph glyph-name="guilsinglright" unicode="&#x203a;" horiz-adv-x="282" 
d="M36 178h28l170 251l-170 252h-28l99 -252z" />
    <glyph glyph-name="currency" unicode="&#xa4;" horiz-adv-x="901" 
d="M865 848l-111 -169q-7 5 -21 13l102 156h30zM576 728q-150 -8 -233 -132h-31q41 61 106.5 97t141.5 36h8q5 -1 8 -1zM855 378h-61v-115h-451q84 -126 233 -132h-16q-77 0 -147 38q-73 40 -107 106h457v115h61v206h31v-218zM865 11h-30l-102 156q14 8 21 13zM764 37
q-94 -50 -204 -50q-156 0 -276.5 97t-155.5 246h-92v76h82q-1 8 -1 23t1 23h-82v76h92q35 149 155.5 246t276.5 97q113 0 204 -50l-41 -63q-76 38 -163 38q-125 0 -223 -75t-131 -193h557v-76h-570v-46h509v-76h-496q33 -117 131.5 -192.5t222.5 -75.5q87 0 163 38z" />
    <glyph glyph-name="guillemotleft" unicode="&#xab;" horiz-adv-x="400" 
d="M364 178h-28l-170 251l170 252h28l-99 -252zM234 178h-28l-170 251l170 252h28l-99 -252z" />
    <glyph glyph-name="logicalnot" unicode="&#xac;" 
 />
    <glyph glyph-name="minus" unicode="&#xad;" 
 />
    <glyph glyph-name="registered" unicode="&#xae;" 
 />
    <glyph glyph-name="degree" unicode="&#xb0;" 
 />
    <glyph glyph-name="plusminus" unicode="&#xb1;" 
 />
    <glyph glyph-name="mu1" unicode="&#xb5;" 
 />
    <glyph glyph-name="paragraph" unicode="&#xb6;" 
 />
    <glyph glyph-name="periodcentered" unicode="&#xb7;" 
 />
    <glyph glyph-name="guillemotright" unicode="&#xbb;" horiz-adv-x="400" 
d="M36 178h28l170 251l-170 252h-28l99 -252zM166 178h28l170 251l-170 252h-28l99 -252z" />
    <glyph glyph-name="Ecircumflex" unicode="&#xa0;" horiz-adv-x="540" 
d="M409 892h-42l-145 119l-144 -119h-42l159 199h55zM475 700h-186l-109 -301v321h265v142h30v-162zM412 0h-376v862h346v-75h-269v-457h271v-75h-271v-180h299v-75zM475 186h-264v-42h-31v62h265v193h30v-213zM504 -1h-31v145h31v-145z" />
    <glyph glyph-name="afii10017" unicode="&#x410;" horiz-adv-x="772" 
d="M772 -1h-30l-324 862h31zM604 176l65 -176h-80l-32 88h-440l-32 -88h-81l64 174l269 731zM195 19l-8 -20h-30l8 20h30zM528 163l-191 521l-192 -521h383zM373 390l-101 -158h-30l95 256z" />
    <glyph glyph-name="afii10018" unicode="&#x411;" horiz-adv-x="588" 
d="M413 647q34 -28 56.5 -67.5t35.5 -80.5t18 -79t5 -63q0 -111 -54 -208q-52 -94 -142 -151h31q90 57 142 151q54 97 54 208q0 25 -7 66t-22 84.5t-39 84t-58 63.5zM384 357q0 116 -83 199t-199 83h-13l2 -566h11q116 0 199 83q83 85 83 201zM89 714q3 1 13 1
q133 0 237 -90q34 -32 57.5 -67t37.5 -70t20.5 -69t6.5 -62q0 -148 -106 -254q-105 -105 -253 -105h-87v862h343v-75h-269v-71zM215 166l-27 387l-30 11l2 -414q11 3 25 7t30 9zM154 750h265v111h31v-131h-294z" />
    <glyph glyph-name="afii10019" unicode="&#x412;" horiz-adv-x="615" 
d="M577 156q0 -92 -65 -157h-30q65 65 65 157q0 91 -65 158q44 88 44 189q0 111 -54 208q-52 94 -142 151h31q90 -57 142 -151q54 -97 54 -208q0 -99 -45 -189q65 -67 65 -158zM478 156q0 -64 -45.5 -110t-109.5 -46h-310v862h87q148 0 253.5 -105.5t105.5 -253.5
q0 -114 -67 -207q86 -44 86 -140zM382 503q0 117 -82.5 200.5t-199.5 83.5h-11l-2 -566h13q117 0 199.5 83t82.5 199zM403 156q0 29 -18.5 51.5t-47.5 27.5q-103 -90 -237 -90q-8 0 -13 1v-71h236q32 0 56 24t24 57zM213 694l-27 -387q-1 0 -30 -11l2 414q23 -6 55 -16z" />
    <glyph glyph-name="afii10020" unicode="&#x413;" horiz-adv-x="468" 
d="M450 700h-187l-109 -301v321h265v142h31v-162zM89 255v-255h-75v862h344v-75h-269v-532z" />
    <glyph glyph-name="afii10021" unicode="&#x414;" horiz-adv-x="817" 
d="M566 863l71 -1v-799h89l2 -174h-73l2 112h-20v-1h-71v1l-386 -1h-101l-2 -112h-75v176h119q8 40 17.5 94.5t18.5 118.5t16 133t10.5 137.5t2 133.5t-10.5 119h-90v63l481 -1v1zM190 64l376 -1v736l-323 1q17 -152 -1 -337.5t-52 -398.5zM721 130h-28v733h28v-733zM769 63
h29v-102l-29 -2v104zM139 -25v-40h-30v40h30zM262 95q16 45 32.5 106.5t31 128.5t27 135t21 126.5t12 104t1.5 67.5l-68 1q2 -25 0.5 -70.5t-5.5 -103t-11 -123t-15 -131.5t-18.5 -128t-22.5 -113h15z" />
    <glyph glyph-name="afii10022" unicode="&#x415;" horiz-adv-x="510" 
d="M453 700h-186l-109 -301v321h265v142h30v-162zM390 0h-376v862h346v-75h-269v-457h271v-75h-271v-180h299v-75zM453 186h-264v-42h-31v62h265v193h30v-213zM482 -1h-31v145h31v-145z" />
    <glyph glyph-name="afii10024" unicode="&#x416;" horiz-adv-x="1217" 
d="M1212 864l-364 -488l308 -375h-30l-308 375l363 488h31zM716 864l-31 -313l-31 -40l1 353h61zM512 2v175l-101 134l-256 -309h-97l307 371l-365 491h93l417 -559l-1 559h78l-1 -559l417 559h93l-365 -491l307 -371h-97l-256 309l-101 -134v-175h-76h4zM703 183l-19 -28
v-153h-32l1 153l35 46zM234 1l163 203l43 -18l-149 -187zM465 488l-285 381h31l284 -381h-30z" />
    <glyph glyph-name="afii10025" unicode="&#x417;" horiz-adv-x="627" 
d="M425 574q58 -24 96 -67t57.5 -96t21 -112t-14 -114.5t-47.5 -103t-79 -77.5h-30q47 30 80 76.5t50 100.5t17 111.5t-18.5 110.5t-56.5 96.5t-97 68.5zM406 573q28 39 34.5 83.5t-3.5 84t-34.5 70.5t-59.5 45q3 -5 6 -3t6 6t6 6t6 -3q33 -15 57 -46t34 -70.5t4 -83
t-34 -82.5zM301 549q57 -18 94 -45t59.5 -60t31.5 -71.5t9 -79.5q0 -65 -25.5 -120.5t-69 -97t-101 -65t-122.5 -23.5q-96 0 -174 51l43 63q58 -39 131 -39q49 0 92.5 16.5t76.5 45.5t52 70t19 90q0 55 -19 95.5t-50.5 67t-73.5 38.5t-89 10v54q33 10 56 29.5t36.5 43.5
t17 49t-3.5 46q-16 50 -67 69.5t-120 7.5v59q65 9 115.5 -1.5t84.5 -33.5t52 -56t18 -69.5t-18 -74t-55 -69.5zM286 396v-212q31 10 47 41.5t16.5 67t-15 66t-48.5 37.5z" />
    <glyph glyph-name="afii10026" unicode="&#x418;" horiz-adv-x="810" 
d="M778 -1h-30v819h30v-819zM546 461l-381 -462h-29l410 498v-36zM686 -1h-74v663l-600 -715v919h74v-712l600 715v-870zM222 780l-40 -440h-29v525z" />
    <glyph glyph-name="afii10027" unicode="&#x419;" horiz-adv-x="807" 
d="M780 818h-30v-819h30v819zM544 497l-410 -498h29l381 462v36zM684 869l-600 -715v712h-74v-919l600 715v-663h74v870zM220 780l-40 -440h-29v525zM517 1027q0 -25 -9.5 -50t-27.5 -43q-35 -35 -86 -35q-49 0 -86 35q-18 18 -27 43t-9 50h51q0 -31 20 -53.5t51 -22.5
t51 22.5t20 53.5h52zM355 1027l39 -1l6 -50q-7 1 -16 6.5t-16 13t-11 16t-2 15.5zM556 1026q1 -42 -12.5 -71.5t-34.5 -48t-44.5 -26.5t-41.5 -6l5 -23q82 8 119 56.5t31 119.5l-17 -3z" />
    <glyph glyph-name="afii10028" unicode="&#x41a;" horiz-adv-x="749" 
d="M730 862l-364 -488l308 -375h-30l-308 375l363 488h31zM234 862l-31 -313l-31 -40l1 353h61zM614 862l-365 -491l307 -371h-97l-256 309l-101 -134v-175h-76l1 862h78l-1 -559l417 559h93zM221 181l-19 -28v-153h-32l1 153l35 46z" />
    <glyph glyph-name="afii10032" unicode="&#x41e;" horiz-adv-x="1015" 
d="M994 430q0 -134 -65 -250q-64 -112 -174 -181h-30q109 69 173 181q65 116 65 250t-65 250q-63 112 -172 182h30q109 -70 173 -182q65 -116 65 -250zM896 430q0 -182 -130.5 -312t-313.5 -130t-312 129.5t-129 312.5t129 313.5t312 130.5t313.5 -130.5t130.5 -313.5z
M819 430q0 152 -107.5 259.5t-259.5 107.5q-151 0 -258.5 -107.5t-107.5 -259.5q0 -151 107.5 -258.5t258.5 -107.5q152 0 259.5 107.5t107.5 258.5zM490 715q-118 -7 -200.5 -94t-82.5 -206q0 -150 122 -241q66 -38 139 -42h-16q-122 0 -209.5 87.5t-87.5 210.5
q0 124 87 212t210 88q6 0 38 -15z" />
    <glyph glyph-name="afii10029" unicode="&#x41b;" horiz-adv-x="690" 
d="M505 863l71 -1v-862h-71v799l-342 1q6 -69 5 -151q0 -108 -8.5 -222.5t-24 -225.5t-34.5 -201h-72q7 34 17 93t19.5 132t17.5 156t12 165.5t2 159.5q-1 50 -5 94h-79v63l492 -1v1zM190 -2q16 52 33 122t31.5 147t27.5 154.5t21.5 145t12 119.5t1.5 77l-69 1
q2 -29 0.5 -81t-5.5 -117.5t-11 -141t-15.5 -151t-19 -146.5t-22.5 -129h15zM660 1h-28v862h28v-862z" />
    <glyph glyph-name="afii10030" unicode="&#x41c;" horiz-adv-x="957" 
d="M921 0h-28v804h28v-804zM830 0h-71v611l-326 -623l-326 623v-611h-71v897l397 -757l397 757v-897zM447 303l-14 -27l-286 528h57zM695 298l-155 -299h-29l184 353v-54zM230 241l-31 -241h-28v352z" />
    <glyph glyph-name="afii10031" unicode="&#x41d;" horiz-adv-x="892" 
d="M856 862l-30 -862h-31v862h61zM241 862l-23 -482h-38v482h61zM727 0h-76v236h-539v-236h-76v862h76v-550h539v550h76v-862zM596 148h-379l-7 -148h-30v168h416v-20z" />
    <glyph glyph-name="afii10033" unicode="&#x41f;" horiz-adv-x="873" 
d="M856 862l-30 -862h-31v862h61zM727 0h-76l1 787h-539l-1 -787h-76v863h691v-863zM597 699h-379l-8 -699h-30l1 719h416v-20z" />
    <glyph glyph-name="afii10034" unicode="&#x420;" horiz-adv-x="607" 
d="M572 503q0 -161 -106.5 -281.5t-263.5 -140.5v-81h-31v81q157 20 263.5 140.5t106.5 281.5q0 112 -53 207t-143 152h31q90 -57 143 -152t53 -207zM474 503q0 -148 -105.5 -253t-253.5 -105q-9 0 -13 1v-146h-75v862h88q148 0 253.5 -105.5t105.5 -253.5zM399 503
q0 117 -83.5 200.5t-200.5 83.5h-11l-1 -566h12q117 0 200.5 83t83.5 199zM239 682l-36 -375q-5 -2 -15.5 -5.5t-15.5 -5.5l1 414q22 -6 66 -28z" />
    <glyph glyph-name="afii10035" unicode="&#x421;" horiz-adv-x="793" 
d="M777 772l-61 -91q-12 8 -22 13l62 93zM797 60l-22 -14l-81 122q16 8 22 13zM704 61q-109 -73 -243 -73q-183 0 -313 130t-130 312q0 183 130 313.5t313 130.5q131 0 243 -73l-41 -64q-90 60 -202 60q-152 0 -259.5 -107.5t-107.5 -259.5q0 -151 108 -258.5t259 -107.5
q110 0 202 60zM499 715q-119 -7 -201.5 -93.5t-82.5 -206.5q0 -150 123 -241q64 -38 139 -42h-16q-81 0 -153 42q-67 39 -106.5 107.5t-39.5 148.5q0 124 88 212t211 88q6 0 38 -15z" />
    <glyph glyph-name="afii10036" unicode="&#x422;" horiz-adv-x="688" 
d="M672 718h-31v144h31v-144zM590 718l-159 -79v-639h-31v718h190zM186 687h-83h-95v31h90h88v-31zM580 787h-248v-787h-75v787h-161h-88v75h95h477v-75z" />
    <glyph glyph-name="afii10037" unicode="&#x423;" horiz-adv-x="920" 
d="M927 862l-475 -863h-30l475 863h30zM491 565l-10 -21l-281 318h83zM818 862l-472 -862h-87l195 355l-445 507h101l383 -436l239 436h86z" />
    <glyph glyph-name="afii10038" unicode="&#x424;" horiz-adv-x="966" 
d="M550 210q-7 -7 -6 -12t-7 -9v501q3 -2 12 -5.5t19 -8t19 -9.5t13 -9zM395 861h75v-45q86 -5 157 -37.5t121.5 -86t78.5 -124t29 -151.5q1 -78 -30 -144t-83.5 -115.5t-123 -79t-149.5 -33.5v-45h-75v52q-86 5 -157.5 36.5t-123 83.5t-80 121.5t-28.5 150.5t29.5 148
t81.5 116.5t123.5 79.5t154.5 36v37zM775 425q4 57 -20.5 115t-67 104.5t-99.5 76.5t-118 31v-640q61 0 116.5 23.5t97.5 65.5t66.5 99t24.5 125zM573 1q85 22 148.5 66t105.5 102t63 125t20.5 136.5t-22.5 137t-65 125.5t-107.5 102t-150.5 67h66q94 -33 161 -97.5
t104 -146t41.5 -172.5t-26 -176t-98 -156t-174.5 -113h-66zM82 446q0 -62 24 -121.5t66 -106.5t99 -76t124 -28v641q-62 0 -118.5 -25.5t-99.5 -68.5t-69 -98.5t-26 -116.5zM378 688q-48 -3 -87 -27.5t-67 -62t-43.5 -83.5t-15.5 -91t13.5 -87.5t38.5 -76.5t61.5 -56
t83.5 -26h-12q-49 0 -90 23t-70 60.5t-45.5 83.5t-16.5 93q0 46 16.5 94.5t45.5 87.5t70 64t90 25q2 0 9.5 -7t18.5 -14z" />
    <glyph glyph-name="afii10039" unicode="&#x425;" horiz-adv-x="919" 
d="M883 0h-31l-322 483l252 379h31l-253 -379zM419 696l-16 -23l-126 189h84zM771 0h-92l-276 414l-276 -414h-91l322 483l-253 379h90l208 -312l207 312h92l-254 -379zM431 253l-192 -253h-31l195 292z" />
    <glyph glyph-name="afii10040" unicode="&#x426;" horiz-adv-x="893" 
d="M835 861l-30 -721h-31v721h61zM576 143h-416l-1 719h30l8 -699h379v-20zM15 -1v863h76l1 -787h539l-1 787h76v-783h71l2 -187h-73v107h-691zM861 -58h-31v144h31v-144z" />
    <glyph glyph-name="afii10041" unicode="&#x427;" horiz-adv-x="859" 
d="M712 -1h-75v388q-14 -17 -27 -30q-101 -101 -243 -101t-245 101q-101 103 -101 244v263h76v-263q0 -112 79 -191t191 -79q111 0 190 79q76 76 80 180v272h75v-863zM842 862l-30 -863h-31v863h61zM382 400h-15q-82 0 -143 59q-60 58 -60 142v263h84l-51 -263
q0 -39 12.5 -73t39.5 -63q55 -57 133 -65z" />
    <glyph glyph-name="afii10042" unicode="&#x428;" horiz-adv-x="1354" 
d="M516 143h-215h-126l-1 719h30l8 -699h89h215v-20zM1325 862l-30 -862h-31v862h61zM1066 143h-350l-1 719h30l8 -699h313v-20zM30 -1v863h76l1 -787h464v787h76l1 -787h473l-1 787h76l2 -863h-1168z" />
    <glyph glyph-name="afii10043" unicode="&#x429;" horiz-adv-x="1380" 
d="M516 143h-215h-126l-1 719h30l8 -699h89h215v-20zM1066 143h-350l-1 719h30l8 -699h313v-20zM1270 79l1 -187h-73v107h-1168v863h76l1 -787h464v787h76l1 -787h473l-1 787h76l2 -783h72zM1327 861l-30 -721h-31v721h61zM1353 -58h-31v144h31v-144z" />
    <glyph glyph-name="afii10046" unicode="&#x42c;" horiz-adv-x="605" 
d="M574 359q0 -56 -14 -108.5t-39.5 -98.5t-61.5 -85t-81 -67h-31q45 28 81 67t61.5 85t39.5 98.5t14 108.5q0 160 -107 281q-107 122 -263 141v81h31v-81q156 -19 263 -141q107 -121 107 -281zM476 359q0 -148 -106 -254q-105 -105 -253 -105h-88v862h75v-146q3 1 13 1
q148 0 253 -105q106 -105 106 -253zM401 359q0 116 -84 199q-83 83 -200 83h-12l1 -566h11q117 0 200 83q84 84 84 201zM241 180q-42 -21 -66 -28l-1 414q5 -2 15.5 -5.5t15.5 -5.5l36 -375v0z" />
    <glyph glyph-name="afii10045" unicode="&#x42b;" horiz-adv-x="844" 
d="M574 359q0 160 -107 281q-107 122 -263 141v81h-31v-81q156 -19 263 -141q107 -121 107 -281q0 -56 -14 -108.5t-39.5 -98.5t-61.5 -85t-81 -67h31q45 28 81 67t61.5 85t39.5 98.5t14 108.5zM476 359q0 148 -106 253q-105 105 -253 105q-10 0 -13 -1v146h-75v-862h88
q148 0 253 105q106 106 106 254zM401 359q0 -117 -84 -201q-83 -83 -200 -83h-11l-1 566h12q117 0 200 -83q84 -83 84 -199zM241 180l-36 375q-5 2 -15.5 5.5t-15.5 5.5l1 -414q24 7 66 28zM810 863l-30 -863h-31v863h61zM680 0h-75v863h75v-863z" />
    <glyph glyph-name="afii10044" unicode="&#x42a;" horiz-adv-x="749" 
d="M721 359q0 -56 -14 -108.5t-39.5 -98.5t-61.5 -85t-81 -67h-31q45 28 81 67t61.5 85t39.5 98.5t14 108.5q0 160 -107 281q-107 122 -263 141v81h31v-81q156 -19 263 -141q107 -121 107 -281zM176 686v103l-160 -1v74h160h75v-146q3 1 13 1q148 0 253 -105
q106 -105 106 -253t-106 -254q-105 -105 -253 -105h-88v686zM548 359q0 116 -84 199q-83 83 -200 83h-12l1 -566h11q117 0 200 83q84 84 84 201zM388 180q-42 -21 -66 -28l-1 414q5 -2 15.5 -5.5t15.5 -5.5l36 -375v0zM150 702h-133v31h130z" />
    <glyph glyph-name="afii10047" unicode="&#x42d;" horiz-adv-x="810" 
d="M620 478q-15 121 -105 211q-107 108 -259 108q-112 0 -202 -60l-41 64q112 73 243 73q182 0 313 -131q130 -130 130 -313q0 -182 -130 -312t-313 -130q-134 0 -243 73l41 63q91 -60 202 -60q150 0 259 107q98 98 107 232h-336v75h334zM784 430q0 -134 -65 -250
q-64 -112 -174 -181h-30q109 69 173 181q65 116 65 250t-65 250q-63 112 -172 182h30q109 -70 173 -182q65 -116 65 -250zM75 161l12 16q86 -39 163.5 -37t139 32t102 80t53.5 107h21q-15 -72 -62.5 -127.5t-115 -85t-149 -28t-164.5 42.5z" />
    <glyph glyph-name="afii10048" unicode="&#x42e;" horiz-adv-x="1298" 
d="M1174 432q0 -181 -131 -312q-130 -130 -313 -130t-312 129q-119 120 -129 283h-177v-402h-76v862h76v-384l179 -1q13 153 127 268q129 131 312 131q182 0 313 -131t131 -313zM1097 432q0 152 -108 259q-107 108 -259 108q-151 0 -259 -108q-107 -107 -107 -259
q0 -150 107 -259q109 -107 259 -107q152 0 259 107q108 108 108 259zM768 717q-119 -8 -201 -94t-82 -206q0 -149 122 -241q64 -38 135 -42h-12q-122 0 -210 87q-87 88 -87 211t87 212q87 88 210 88q6 0 38 -15zM1272 432q0 -134 -65 -250q-64 -112 -174 -181h-30
q108 68 173 181q65 116 65 250t-65 250q-62 111 -172 182h30q109 -70 173 -182q65 -116 65 -250zM241 862l-23 -316h-38v316h61zM275 315l-58 -1l-7 -314h-30v334l95 1v-20z" />
    <glyph glyph-name="afii10049" unicode="&#x42f;" horiz-adv-x="612" 
d="M297 72l-116 -173l-98 68l-12 27l98 -66l110 164zM17 504q0 148 105 253.5t253 105.5h89v-862h-75v146q-5 -1 -14 -1q-61 0 -122 22l-111 -181l-64 39l107 175q-77 49 -122.5 129.5t-45.5 173.5zM319 88l36 -6v-81h-31v81q-1 0 -4 1h-4zM92 504q0 -116 83.5 -199
t199.5 -83h14v566h-14q-116 0 -199.5 -83.5t-83.5 -200.5zM374 728q-44 -3 -80 -26t-62 -58.5t-40 -78.5t-14 -86q0 -42 12 -82.5t35.5 -73t57 -53.5t76.5 -24h-11q-45 0 -82.5 22t-64.5 57t-42 79t-15 88t15 89.5t42 82.5t64.5 60.5t82.5 23.5q2 0 8.5 -6.5t17.5 -13.5z
M561 1h-28v862h28v-862z" />
    <glyph glyph-name="afii10065" unicode="&#x430;" horiz-adv-x="680" 
d="M604 176l65 -176h-80l-32 88h-440l-32 -88h-81l64 174l269 731zM528 163l-191 521l-192 -521h383z" />
    <glyph glyph-name="afii10066" unicode="&#x431;" horiz-adv-x="483" 
d="M384 357q0 116 -83 199t-199 83h-13l2 -566h11q116 0 199 83q83 85 83 201zM89 714q3 1 13 1q133 0 237 -90q34 -32 57.5 -67t37.5 -70t20.5 -69t6.5 -62q0 -148 -106 -254q-105 -105 -253 -105h-87v862h343v-75h-269v-71z" />
    <glyph glyph-name="afii10067" unicode="&#x432;" horiz-adv-x="498" 
d="M478 156q0 -64 -45.5 -110t-109.5 -46h-310v862h87q148 0 253.5 -105.5t105.5 -253.5q0 -114 -67 -207q86 -44 86 -140zM382 503q0 117 -82.5 200.5t-199.5 83.5h-11l-2 -566h13q117 0 199.5 83t82.5 199zM403 156q0 29 -18.5 51.5t-47.5 27.5q-103 -90 -237 -90
q-8 0 -13 1v-71h236q32 0 56 24t24 57z" />
    <glyph glyph-name="afii10068" unicode="&#x433;" horiz-adv-x="378" 
d="M89 255v-255h-75v862h344v-75h-269v-532z" />
    <glyph glyph-name="afii10069" unicode="&#x434;" horiz-adv-x="744" 
d="M566 863l71 -1v-799h89l2 -174h-73l2 112h-20v-1h-71v1l-386 -1h-101l-2 -112h-75v176h119q8 40 17.5 94.5t18.5 118.5t16 133t10.5 137.5t2 133.5t-10.5 119h-90v63l481 -1v1zM190 64l376 -1v736l-323 1q17 -152 -1 -337.5t-52 -398.5z" />
    <glyph glyph-name="afii10070" unicode="&#x435;" horiz-adv-x="410" 
d="M390 0h-376v862h346v-75h-269v-457h271v-75h-271v-180h299v-75z" />
    <glyph glyph-name="afii10072" unicode="&#x436;" horiz-adv-x="1107" 
d="M512 2v175l-101 134l-256 -309h-97l307 371l-365 491h93l417 -559l-1 559h78l-1 -559l417 559h93l-365 -491l307 -371h-97l-256 309l-101 -134v-175h-76h4z" />
    <glyph glyph-name="afii10073" unicode="&#x437;" horiz-adv-x="515" 
d="M301 549q57 -18 94 -45t59.5 -60t31.5 -71.5t9 -79.5q0 -65 -25.5 -120.5t-69 -97t-101 -65t-122.5 -23.5q-96 0 -174 51l43 63q58 -39 131 -39q49 0 92.5 16.5t76.5 45.5t52 70t19 90q0 55 -19 95.5t-50.5 67t-73.5 38.5t-89 10v54q33 10 56 29.5t36.5 43.5t17 49
t-3.5 46q-16 50 -67 69.5t-120 7.5v59q65 9 115.5 -1.5t84.5 -33.5t52 -56t18 -69.5t-18 -74t-55 -69.5z" />
    <glyph glyph-name="afii10074" unicode="&#x438;" horiz-adv-x="717" 
d="M686 -1h-74v663l-600 -715v917h74v-710l600 715v-870z" />
    <glyph glyph-name="afii10075" unicode="&#x439;" horiz-adv-x="712" 
d="M684 869l-600 -715v712h-74v-919l600 715v-663h74v870zM517 1027q0 -28 -10.5 -56.5t-30.5 -48.5q-38 -40 -94 -40q-54 0 -95 40q-19 20 -29 48.5t-10 56.5h56q0 -35 22 -60.5t56 -25.5t56 25.5t22 60.5h57z" />
    <glyph glyph-name="afii10076" unicode="&#x43a;" horiz-adv-x="617" 
d="M614 862l-365 -491l307 -371h-97l-256 309l-101 -134v-175h-76l1 862h78l-1 -559l417 559h93z" />
    <glyph glyph-name="afii10077" unicode="&#x43b;" horiz-adv-x="607" 
d="M505 863l71 -1v-862h-71v799l-342 1q6 -69 5 -151q0 -108 -8.5 -222.5t-24 -225.5t-34.5 -201h-72q7 34 17 93t19.5 132t17.5 156t12 165.5t2 159.5q-1 50 -5 94h-79v63l492 -1v1z" />
    <glyph glyph-name="afii10078" unicode="&#x43c;" horiz-adv-x="841" 
d="M818 0h-71v611l-326 -623l-326 623v-611h-71v897l397 -757l397 757v-897z" />
    <glyph glyph-name="afii10079" unicode="&#x43d;" horiz-adv-x="739" 
d="M711 0h-76v236h-539v-236h-76v862h76v-550h539v550h76v-862z" />
    <glyph glyph-name="afii10080" unicode="&#x43e;" horiz-adv-x="917" 
d="M896 430q0 -182 -130.5 -312t-313.5 -130t-312 129.5t-129 312.5t129 313.5t312 130.5t313.5 -130.5t130.5 -313.5zM819 430q0 152 -107.5 259.5t-259.5 107.5q-151 0 -258.5 -107.5t-107.5 -259.5q0 -151 107.5 -258.5t258.5 -107.5q152 0 259.5 107.5t107.5 258.5z" />
    <glyph glyph-name="afii10081" unicode="&#x43f;" horiz-adv-x="759" 
d="M719 0h-76l1 787h-539l-1 -787h-76v863h691v-863z" />
    <glyph glyph-name="afii10082" unicode="&#x440;" horiz-adv-x="498" 
d="M473 503q0 -148 -105.5 -253t-253.5 -105q-9 0 -13 1v-146h-75v862h88q148 0 253.5 -105.5t105.5 -253.5zM398 503q0 117 -83.5 200.5t-200.5 83.5h-11l-1 -566h12q117 0 200.5 83t83.5 199z" />
    <glyph glyph-name="afii10083" unicode="&#x441;" horiz-adv-x="734" 
d="M704 61q-109 -73 -243 -73q-183 0 -313 130t-130 312q0 183 130 313.5t313 130.5q131 0 243 -73l-41 -64q-90 60 -202 60q-152 0 -259.5 -107.5t-107.5 -259.5q0 -151 108 -258.5t259 -107.5q110 0 202 60z" />
    <glyph glyph-name="afii10084" unicode="&#x442;" horiz-adv-x="602" 
d="M580 787h-248v-787h-75v787h-249v75h572v-75z" />
    <glyph glyph-name="afii10085" unicode="&#x443;" horiz-adv-x="815" 
d="M818 862l-472 -862h-87l195 355l-445 507h101l383 -436l239 436h86z" />
    <glyph glyph-name="afii10086" unicode="&#x444;" horiz-adv-x="888" 
d="M395 861h75v-45q86 -5 157 -37.5t121.5 -86t78.5 -124t29 -151.5q1 -78 -30 -144t-83.5 -115.5t-123 -79t-149.5 -33.5v-45h-75v52q-86 5 -157.5 36.5t-123 83.5t-80 121.5t-28.5 150.5t29.5 148t81.5 116.5t123.5 79.5t154.5 36v37zM775 425q4 57 -20.5 115t-67 104.5
t-99.5 76.5t-118 31v-640q61 0 116.5 23.5t97.5 65.5t66.5 99t24.5 125zM82 446q0 -62 24 -121.5t66 -106.5t99 -76t124 -28v641q-62 0 -118.5 -25.5t-99.5 -68.5t-69 -98.5t-26 -116.5z" />
    <glyph glyph-name="afii10087" unicode="&#x445;" horiz-adv-x="756" 
d="M746 0h-92l-276 414l-276 -414h-91l322 483l-250 379h90l205 -312l210 312h92l-257 -379z" />
    <glyph glyph-name="afii10088" unicode="&#x446;" horiz-adv-x="805" 
d="M15 -1v863h76l1 -787h539l-1 787h76v-783h71l2 -187h-73v107h-691z" />
    <glyph glyph-name="afii10089" unicode="&#x447;" horiz-adv-x="744" 
d="M712 -1h-75v388q-14 -17 -27 -30q-101 -101 -243 -101t-245 101q-101 103 -101 244v263h76v-263q0 -112 79 -191t191 -79q111 0 190 79q76 76 80 180v272h75v-863z" />
    <glyph glyph-name="afii10090" unicode="&#x448;" horiz-adv-x="1227" 
d="M30 -1v863h76l1 -787h464v787h76l1 -787h473l-1 787h76l2 -863h-1168z" />
    <glyph glyph-name="afii10091" unicode="&#x449;" horiz-adv-x="1298" 
d="M1270 79l1 -187h-73v107h-1168v863h76l1 -787h464v787h76l1 -787h473l-1 787h76l2 -783h72z" />
    <glyph glyph-name="afii10093" unicode="&#x44b;" horiz-adv-x="654" 
d="M476 359q0 148 -106 253q-105 105 -253 105q-10 0 -13 -1v146h-75v-862h88q148 0 253 105q106 106 106 254zM401 359q0 -117 -84 -201q-83 -83 -200 -83h-11l-1 566h12q117 0 200 -83q84 -83 84 -199zM619 0h-75v863h75v-863z" />
    <glyph glyph-name="afii10094" unicode="&#x44c;" horiz-adv-x="505" 
d="M476 359q0 -148 -106 -254q-105 -105 -253 -105h-88v862h75v-146q3 1 13 1q148 0 253 -105q106 -105 106 -253zM401 359q0 116 -84 199q-83 83 -200 83h-12l1 -566h11q117 0 200 83q84 84 84 201z" />
    <glyph glyph-name="afii10095" unicode="&#x44d;" horiz-adv-x="729" 
d="M620 478q-15 121 -105 211q-107 108 -259 108q-112 0 -202 -60l-41 64q112 73 243 73q182 0 313 -131q130 -130 130 -313q0 -182 -130 -312t-313 -130q-134 0 -243 73l41 63q91 -60 202 -60q150 0 259 107q98 98 107 232h-336v75h334z" />
    <glyph glyph-name="afii10096" unicode="&#x44e;" horiz-adv-x="1205" 
d="M1174 432q0 -181 -131 -312q-130 -130 -313 -130t-312 129q-119 120 -129 283h-177v-402h-76v862h76v-384l179 -1q13 153 127 268q129 131 312 131q182 0 313 -131t131 -313zM1097 432q0 152 -108 259q-107 108 -259 108q-151 0 -259 -108q-107 -107 -107 -259
q0 -150 107 -259q109 -107 259 -107q152 0 259 107q108 108 108 259z" />
    <glyph glyph-name="afii10097" unicode="&#x44f;" horiz-adv-x="500" 
d="M17 504q0 148 105 253.5t253 105.5h89v-862h-75v146q-5 -1 -14 -1q-61 0 -122 22l-111 -181l-64 39l107 175q-77 49 -122.5 129.5t-45.5 173.5zM92 504q0 -116 83.5 -199t199.5 -83h14v566h-14q-116 0 -199.5 -83.5t-83.5 -200.5z" />
    <glyph glyph-name="afii10092" unicode="&#x44a;" horiz-adv-x="649" 
d="M176 789l-160 -1v74h235v-146q3 1 13 1q148 0 253 -105q106 -105 106 -253t-106 -254q-105 -105 -253 -105h-88v789zM548 359q0 116 -84 199q-83 83 -200 83h-12l1 -566h11q117 0 200 83q84 84 84 201z" />
    <glyph glyph-name="afii10023" unicode="&#x401;" horiz-adv-x="529" 
d="M384 946q0 -24 -17 -41t-40 -17q-24 0 -41 17t-17 41q0 23 17 40t41 17q23 0 40 -17t17 -40zM225 946q0 -24 -16.5 -41t-40.5 -17t-40.5 17t-16.5 41q0 23 17 40t40 17t40 -17t17 -40zM475 700h-186l-109 -301v321h265v142h30v-162zM412 0h-376v862h346v-75h-269v-457
h271v-75h-271v-180h299v-75zM475 186h-264v-42h-31v62h265v193h30v-213zM504 -1h-31v145h31v-145z" />
    <glyph glyph-name="afii10053" unicode="&#x404;" horiz-adv-x="810" 
d="M493 478v-75h-421l2 75h419zM778 772l-61 -91q-6 4 -11.5 7.5t-10.5 5.5l62 93zM798 60l-22 -14l-81 122q8 4 13.5 7.5t8.5 5.5zM705 61q-109 -73 -243 -73q-183 0 -313 130t-130 312q0 183 130 313q131 131 313 131q131 0 243 -73l-41 -64q-90 60 -202 60
q-152 0 -260 -108q-107 -107 -107 -259q0 -151 108 -259q109 -107 259 -107q110 0 202 60zM217 385q5 -67 35 -118.5t87 -93.5q65 -38 139 -42h-16q-81 0 -153 42q-58 34 -95.5 87t-47.5 121zM169 494q16 82 82 148q88 88 211 88q6 0 38 -15q-120 -8 -202 -94
q-54 -56 -72 -125zM458 515v25l101 -1v-131l-26 1l-2 107z" />
    <glyph glyph-name="afii10056" unicode="&#x407;" horiz-adv-x="277" 
d="M241 863l-30 -863h-31v863h61zM111 0h-75v863h75v-863zM209 946q0 -24 -17 -41t-40 -17q-24 0 -41 17t-17 41q0 23 17 40t41 17q23 0 40 -17t17 -40zM50 946q0 -24 -16.5 -41t-40.5 -17t-40.5 17t-16.5 41q0 23 17 40t40 17t40 -17t17 -40z" />
    <glyph glyph-name="uni0406" unicode="&#x406;" horiz-adv-x="277" 
d="M241 863l-30 -863h-31v863h61zM111 0h-75v863h75v-863z" />
    <glyph glyph-name="afii10062" unicode="&#x40e;" horiz-adv-x="920" 
d="M927 862l-475 -863h-30l475 863h30zM491 565l-10 -21l-281 318h83zM818 862l-472 -862h-87l195 355l-445 507h101l383 -436l239 436h86zM573 1027q0 -25 -9.5 -50t-27.5 -43q-35 -35 -86 -35q-49 0 -86 35q-18 18 -27 43t-9 50h51q0 -31 20 -53.5t51 -22.5t51 22.5
t20 53.5h52zM411 1027l39 -1l6 -50q-7 1 -16 6.5t-16 13t-11 16t-2 15.5zM612 1026q1 -42 -12.5 -71.5t-34.5 -48t-44.5 -26.5t-41.5 -6l5 -23q82 8 119 56.5t31 119.5l-17 -3z" />
    <glyph glyph-name="afii10071" unicode="&#x451;" horiz-adv-x="437" 
d="M384 946q0 -24 -17 -41t-40 -17q-24 0 -41 17t-17 41q0 23 17 40t41 17q23 0 40 -17t17 -40zM225 946q0 -24 -16.5 -41t-40.5 -17t-40.5 17t-16.5 41q0 23 17 40t40 17t40 -17t17 -40zM412 0h-376v862h346v-75h-269v-457h271v-75h-271v-180h299v-75z" />
    <glyph glyph-name="afii10101" unicode="&#x454;" horiz-adv-x="729" 
d="M705 61q-109 -73 -243 -73q-183 0 -313 130t-130 312q0 183 130 313q131 131 313 131q131 0 243 -73l-41 -64q-90 60 -202 60q-152 0 -260 -108q-90 -90 -104 -211h395v-75h-397q8 -134 107 -232q109 -107 259 -107q110 0 202 60z" />
    <glyph glyph-name="afii10110" unicode="&#x45e;" horiz-adv-x="822" 
d="M818 862l-472 -862h-87l195 355l-445 507h101l383 -436l239 436h86zM573 1027q0 -25 -9.5 -50t-27.5 -43q-35 -35 -86 -35q-49 0 -86 35q-18 18 -27 43t-9 50h51q0 -31 20 -53.5t51 -22.5t51 22.5t20 53.5h52z" />
    <glyph glyph-name="afii10103" unicode="&#x456;" horiz-adv-x="151" 
d="M111 0h-75v863h75v-863z" />
    <glyph glyph-name="afii10104" unicode="&#x457;" horiz-adv-x="152" 
d="M111 0h-75v863h75v-863zM209 946q0 -24 -17 -41t-40 -17q-24 0 -41 17t-17 41q0 23 17 40t41 17q23 0 40 -17t17 -40zM50 946q0 -24 -16.5 -41t-40.5 -17t-40.5 17t-16.5 41q0 23 17 40t40 17t40 -17t17 -40z" />
    <glyph glyph-name="afii61352" unicode="&#x2116;" horiz-adv-x="1607" 
d="M806 -1h-30v842h30v-842zM570 343l-410 498h29l381 -462v-36zM710 -52l-600 738v-686h-74v893l600 -738v686h74v-893zM246 414l-40 -414h-29v499zM1363 1h-224v16h201v196h23v-212zM1278 84h-196v76h196v-76zM1409 827q79 -54 124.5 -138t45.5 -180q0 -91 -40 -170.5
t-110 -133.5h-31q70 54 110.5 133.5t40.5 170.5q0 48 -12 93.5t-34 86.5t-53.5 76t-70.5 62h30zM1048 801q76 21 139.5 14.5t111.5 -27.5t80.5 -50t47.5 -53q26 -41 40 -84.5t14 -91.5q0 -130 -93 -223q-92 -92 -223 -92q-129 0 -223 92q-92 94 -92 223q0 96 54 176
q56 80 144 116zM1405 509q0 98 -71 169q-70 70 -169 70q-97 0 -168 -71q-70 -70 -70 -168q0 -100 69 -170q70 -70 169 -70t169 70q71 71 71 170zM1180 338h-15q-69 0 -121 50q-50 50 -50 121q0 70 50 120q51 51 121 51h15q-66 -8 -110 -56q-45 -50 -45 -115q0 -68 45 -117
t110 -54z" />
    <glyph glyph-name="afii10050" unicode="&#x490;" horiz-adv-x="493" 
d="M460 700h-187l-109 -301v321h265v239h31v-259zM368 955v-168h-269v-787h-75v862h264v93h80z" />
    <glyph glyph-name="afii10098" unicode="&#x491;" horiz-adv-x="402" 
d="M368 955v-168h-269v-787h-75v862h266v93h78z" />
    <glyph glyph-name="a" unicode="a" horiz-adv-x="680" 
d="M604 176l65 -176h-80l-32 88h-440l-32 -88h-81l64 174l269 731zM528 163l-191 521l-192 -521h383z" />
    <glyph glyph-name="b" unicode="b" horiz-adv-x="515" 
d="M489 156q0 -64 -45.5 -110t-109.5 -46h-310v862h87q148 0 253.5 -105.5t105.5 -253.5q0 -114 -67 -207q86 -44 86 -140zM393 503q0 117 -82.5 200.5t-199.5 83.5h-11l-2 -566h13q117 0 199.5 83t82.5 199zM414 156q0 29 -18.5 51.5t-47.5 27.5q-103 -90 -237 -90
q-8 0 -13 1v-71h236q32 0 56 24t24 57z" />
    <glyph glyph-name="c" unicode="c" horiz-adv-x="741" 
d="M711 61q-109 -73 -243 -73q-183 0 -313 130t-130 312q0 183 130 313.5t313 130.5q131 0 243 -73l-41 -64q-90 60 -202 60q-152 0 -259.5 -107.5t-107.5 -259.5q0 -151 108 -258.5t259 -107.5q110 0 202 60z" />
    <glyph glyph-name="e" unicode="e" horiz-adv-x="410" 
d="M390 0h-376v862h346v-75h-269v-457h271v-75h-271v-180h299v-75z" />
    <glyph glyph-name="h" unicode="h" horiz-adv-x="739" 
d="M711 0h-76v236h-539v-236h-76v862h76v-550h539v550h76v-862z" />
    <glyph glyph-name="i" unicode="i" horiz-adv-x="151" 
d="M111 0h-75v863h75v-863z" />
    <glyph glyph-name="k" unicode="k" horiz-adv-x="607" 
d="M607 862l-365 -491l307 -371h-97l-256 309l-101 -134v-175h-76l1 862h78l-1 -559l417 559h93z" />
    <glyph glyph-name="l" unicode="l" horiz-adv-x="424" 
d="M389 0h-361v862h75v-787h286v-75z" />
    <glyph glyph-name="m" unicode="m" horiz-adv-x="846" 
d="M816 0h-71v611l-326 -623l-326 623v-611h-71v897l397 -757l397 757v-897z" />
    <glyph glyph-name="n" unicode="n" horiz-adv-x="749" 
d="M710 -52l-600 738v-686h-74v893l600 -738v708h74v-915z" />
    <glyph glyph-name="o" unicode="o" horiz-adv-x="932" 
d="M905 430q0 -182 -130.5 -312t-313.5 -130t-312 129.5t-129 312.5t129 313.5t312 130.5t313.5 -130.5t130.5 -313.5zM828 430q0 152 -107.5 259.5t-259.5 107.5q-151 0 -258.5 -107.5t-107.5 -259.5q0 -151 107.5 -258.5t258.5 -107.5q152 0 259.5 107.5t107.5 258.5z" />
    <glyph glyph-name="p" unicode="p" horiz-adv-x="512" 
d="M483 503q0 -148 -105.5 -253t-253.5 -105q-9 0 -13 1v-146h-75v862h88q148 0 253.5 -105.5t105.5 -253.5zM408 503q0 117 -83.5 200.5t-200.5 83.5h-11l-1 -566h12q117 0 200.5 83t83.5 199z" />
    <glyph glyph-name="q" unicode="q" horiz-adv-x="927" 
d="M903 430q0 -107 -48.5 -200t-131.5 -155l59 -96l-64 -39l-59 96q-93 -48 -200 -48q-182 0 -312 130t-130 312q0 183 130 313.5t312 130.5q183 0 313.5 -130.5t130.5 -313.5zM827 430q0 152 -108 259.5t-260 107.5q-151 0 -259 -107.5t-108 -259.5q0 -151 108 -258.5
t259 -107.5q85 0 159 36l-54 88l64 40l55 -89q67 52 105.5 128.5t38.5 162.5z" />
    <glyph glyph-name="r" unicode="r" horiz-adv-x="495" 
d="M469 503q0 -93 -45.5 -173.5t-122.5 -129.5l107 -175l-64 -39l-111 181q-61 -22 -122 -22q-9 0 -14 1v-146h-75v862h89q148 0 253 -105.5t105 -253.5zM394 503q0 117 -83.5 200.5t-199.5 83.5h-14v-566h14q116 0 199.5 83t83.5 199z" />
    <glyph glyph-name="s" unicode="s" horiz-adv-x="407" 
d="M381 209q0 -86 -61.5 -147.5t-147.5 -61.5q-93 0 -156 69l57 51q40 -45 99 -45q55 0 94 39.5t39 94.5q0 52 -35 91l-124 137q-72 80 -72 182q0 103 72.5 173t175.5 70v-75q-72 0 -122.5 -48t-50.5 -120q0 -75 52 -132l125 -136q55 -60 55 -142z" />
    <glyph glyph-name="t" unicode="t" horiz-adv-x="617" 
d="M593 787h-248v-787h-75v787h-249v75h572v-75z" />
    <glyph glyph-name="u" unicode="u" horiz-adv-x="741" 
d="M715 345q0 -142 -101.5 -243.5t-243.5 -101.5q-143 0 -244.5 101.5t-101.5 243.5v517h76v-517q0 -111 79 -190.5t191 -79.5q110 0 190 79.5t80 190.5v517h75v-517z" />
    <glyph glyph-name="v" unicode="v" horiz-adv-x="695" 
d="M688 862l-340 -924l-339 924h81l258 -703l259 703h81z" />
    <glyph glyph-name="w" unicode="w" horiz-adv-x="1234" 
d="M1226 863l-340 -916l-269 763l-270 -763l-339 916h81l257 -699l271 773l270 -773l258 699h81z" />
    <glyph glyph-name="x" unicode="x" horiz-adv-x="788" 
d="M765 0h-92l-276 414l-276 -414h-91l322 483l-253 379h90l208 -312l207 312h92l-254 -379z" />
    <glyph glyph-name="y" unicode="y" horiz-adv-x="832" 
d="M822 862l-472 -862h-87l195 355l-445 507h101l383 -436l239 436h86z" />
    <glyph glyph-name="z" unicode="z" horiz-adv-x="685" 
d="M677 862l-524 -787h509v-75h-650l524 787h-475v75h616z" />
    </font>
</defs>
</svg>
