<svg xmlns="http://www.w3.org/2000/svg" fill="none" viewBox="0 0 1072 1102"><g filter="url(#filter0_bf_1208_1038)"><path fill="#fff" fill-opacity=".27" d="M43 43h986c-18.16 6.607-62.668 20.728-95.452 24.352-40.979 4.53-96.95 17.557-110.444 26.618-13.493 9.061 23.489 15.291 13.494 54.934-9.995 39.643-34.983 26.051-83.458 70.225-48.476 44.174 93.453 19.822 159.419 57.2 65.967 37.378-42.978 63.995-65.966 63.995-22.989 0-133.933 1.699-184.407 0-50.474-1.699-58.47 41.343-58.47 54.935 0 13.592 108.944 3.964 133.932 48.138 24.987 44.174-55.972 65.694-75.462 85.516-19.49 19.822 0 83.817 0 114.399 0 30.582 17.491 61.73 50.474 131.956 32.984 70.225-32.983 90.046-50.474 114.399-13.993 19.481-20.156 121.003-21.489 169.333H43V43z"/><path stroke="#000" d="M43 43h986c-18.16 6.607-62.668 20.728-95.452 24.352-40.979 4.53-96.95 17.557-110.444 26.618-13.493 9.061 23.489 15.291 13.494 54.934-9.995 39.643-34.983 26.051-83.458 70.225-48.476 44.174 93.453 19.822 159.419 57.2 65.967 37.378-42.978 63.995-65.966 63.995-22.989 0-133.933 1.699-184.407 0-50.474-1.699-58.47 41.343-58.47 54.935 0 13.592 108.944 3.964 133.932 48.138 24.987 44.174-55.972 65.694-75.462 85.516-19.49 19.822 0 83.817 0 114.399 0 30.582 17.491 61.73 50.474 131.956 32.984 70.225-32.983 90.046-50.474 114.399-13.993 19.481-20.156 121.003-21.489 169.333H43V43z"/></g><defs><filter id="filter0_bf_1208_1038" width="1070.67" height="1101" x=".5" y=".5" color-interpolation-filters="sRGB" filterUnits="userSpaceOnUse"><feFlood flood-opacity="0" result="BackgroundImageFix"/><feGaussianBlur in="BackgroundImage" stdDeviation="2"/><feComposite in2="SourceAlpha" operator="in" result="effect1_backgroundBlur_1208_1038"/><feBlend in="SourceGraphic" in2="effect1_backgroundBlur_1208_1038" result="shape"/><feGaussianBlur result="effect2_foregroundBlur_1208_1038" stdDeviation="21"/></filter></defs></svg>