<svg width="168" height="38" viewBox="0 0 168 38" fill="none" xmlns="http://www.w3.org/2000/svg">
<g clip-path="url(#clip0_27_304)">
<path d="M61.9503 7.22559H54.7121L52.1533 26.4447H57.328L57.5883 22.9474H59.3344L59.5884 26.4319H64.817L61.9503 7.22559ZM59.3153 19.4405H57.5883L58.3375 11.4944C58.3375 11.4944 59.382 19.3955 59.3153 19.4405" fill="#181818"/>
<path d="M115.86 22.9247C115.954 23.6032 116.222 24.2449 116.638 24.7858C117.155 25.4381 117.837 25.9359 118.612 26.2259C119.582 26.612 120.618 26.7999 121.66 26.7788C122.585 26.7941 123.504 26.6338 124.371 26.3063C125.094 26.0278 125.729 25.5569 126.209 24.9433C126.685 24.339 126.962 23.1979 127.057 22.6257C127.184 21.7221 127.234 20.809 127.206 19.8967V7.20605H122.19V21.4942C122.227 22.083 122.18 22.674 122.05 23.2493C122.004 23.3697 121.92 23.4712 121.811 23.5381C121.702 23.605 121.574 23.6334 121.447 23.619C121.332 23.6318 121.216 23.6077 121.115 23.55C121.014 23.4923 120.934 23.404 120.885 23.2975C120.77 22.7867 120.726 22.2618 120.755 21.7385V7.21248H115.739V18.463C115.739 20.5685 115.777 22.2721 115.854 22.9182" fill="#181818"/>
<path d="M165.997 7.20312H160.987V26.4351H165.997V7.20312Z" fill="#181818"/>
<path d="M150.976 18.2348H152.478V26.4316H157.484V7.20605H152.478V14.0528H150.976V7.20605H145.967V26.4316H150.976V18.2348Z" fill="#181818"/>
<path d="M133.063 26.0205C134.194 26.5686 135.439 26.83 136.692 26.7823C137.94 26.8225 139.175 26.5121 140.26 25.8855C141.096 25.4261 141.753 24.6928 142.124 23.8058C142.406 23.0182 142.546 21.1153 142.546 19.2284V18.4762H137.53V21.3692C137.567 22.0108 137.509 22.6543 137.359 23.2786C137.278 23.4033 137.167 23.5056 137.038 23.5765C136.908 23.6473 136.763 23.6844 136.616 23.6844C136.468 23.6844 136.323 23.6473 136.194 23.5765C136.064 23.5056 135.954 23.4033 135.873 23.2786C135.759 23.0118 135.724 22.4332 135.724 21.546V12.5231C135.724 11.5973 135.759 10.6748 135.873 10.3919C135.987 10.109 136.222 9.98689 136.632 9.98689C137.041 9.98689 137.267 10.0962 137.365 10.3083C137.463 10.5205 137.53 11.4366 137.53 12.3527V15.5318H142.537V13.8056C142.537 12.0988 142.381 10.5301 142.083 9.72652C141.717 8.84342 141.047 8.1249 140.197 7.70464C139.097 7.12986 137.868 6.85406 136.632 6.90424C135.617 6.88385 134.607 7.05949 133.657 7.42177C132.885 7.7171 132.204 8.21526 131.686 8.86505C131.244 9.41088 130.953 10.0651 130.841 10.7616C130.724 11.8481 130.674 12.941 130.692 14.0339V19.3506C130.692 21.141 130.854 23.0311 131.165 23.9247C131.504 24.8491 132.188 25.6018 133.07 26.0205" fill="#181818"/>
<path d="M71.7638 26.422L71.7607 13.7699L73.5353 26.4188H76.5575L78.4433 13.8182V26.4188H82.8497L82.8243 7.20605H76.3385L75.1036 16.1615L73.8686 7.20605H67.3828L67.386 26.4188L71.7638 26.422Z" fill="#181818"/>
<path d="M43.131 26.4376H47.7597V19.443L51.4232 7.22168H46.8168L45.5342 14.7724L44.2072 7.22168H39.6104L43.131 19.443V26.4376Z" fill="#181818"/>
<path d="M90.9545 22.9409H92.7006L92.9514 26.4253H98.18L95.3229 7.21582H88.0783L85.5195 26.435H90.6942L90.9545 22.9409ZM91.7006 11.4975C91.7006 11.4975 92.745 19.4018 92.6815 19.4403H90.9545L91.7006 11.4975Z" fill="#181818"/>
<path d="M101.399 24.6856C101.799 25.319 102.353 25.8372 103.009 26.1899C103.735 26.5758 104.544 26.7735 105.365 26.7653C106.072 26.7653 106.822 26.6593 107.301 26.3089C107.871 25.9456 108.328 25.4263 108.619 24.811L109.079 26.4182H112.254V16.2413H106.46V18.7967H107.349V21.4294C107.386 22.0133 107.318 22.5993 107.149 23.1587C107.086 23.3026 106.981 23.4228 106.846 23.5019C106.712 23.581 106.557 23.6151 106.403 23.5991C106.263 23.6143 106.123 23.5849 106.001 23.5152C105.879 23.4454 105.782 23.3387 105.723 23.2102C105.587 22.6786 105.532 22.1289 105.561 21.5804V12.1911C105.561 11.2524 105.622 10.661 105.723 10.4392C105.803 10.3227 105.911 10.2298 106.038 10.1699C106.165 10.11 106.305 10.0854 106.444 10.0985C106.803 10.0985 107.079 10.1724 107.193 10.4392C107.298 10.8377 107.35 11.2484 107.349 11.6607C107.349 11.8728 107.349 12.2039 107.349 12.4643V14.0104H112.257V13.5926C112.257 12.0882 112.098 10.6996 111.8 9.89274C111.501 9.08592 110.869 8.41731 109.895 7.83229C108.775 7.19755 107.508 6.87686 106.225 6.90331C104.922 6.87078 103.641 7.2469 102.558 7.98015C101.606 8.64233 101.037 9.37522 100.841 10.1692C100.597 11.5143 100.491 12.8812 100.523 14.2483V19.8157C100.503 20.8358 100.552 21.8561 100.669 22.8694C100.77 23.5219 101.015 24.1429 101.387 24.6856" fill="#181818"/>
<g clip-path="url(#clip1_27_304)">
<ellipse cx="16.2418" cy="17.0289" rx="15.7428" ry="15.9401" fill="white"/>
<path d="M16.239 0.794922C19.4334 0.794292 22.5562 1.74592 25.2126 3.52947C27.8689 5.31302 29.9394 7.84836 31.1623 10.8149C32.3852 13.7814 32.7055 17.0458 32.0827 20.1953C31.4599 23.3448 29.9219 26.2379 27.6634 28.5087C25.4048 30.7796 22.5271 32.3261 19.3942 32.9528C16.2612 33.5795 13.0137 33.2582 10.0624 32.0295C7.11116 30.8008 4.58862 28.7199 2.81385 26.05C1.03908 23.3801 0.0917969 20.2411 0.0917969 17.03C0.0917968 12.7247 1.79292 8.59575 4.82102 5.55118C7.84912 2.50661 11.9562 0.795767 16.239 0.794922V0.794922ZM24.2159 12.192C24.5729 11.8331 24.7734 11.3465 24.7734 10.839C24.7734 10.3316 24.5729 9.84493 24.2159 9.48612C23.859 9.1273 23.3749 8.92572 22.8701 8.92572C22.3653 8.92572 21.8812 9.1273 21.5242 9.48612L16.5085 14.5281H16.1217L11.106 9.48612C10.7491 9.12688 10.2648 8.92489 9.7597 8.92459C9.2546 8.92429 8.77008 9.12571 8.41271 9.48452C8.05534 9.84334 7.85441 10.3302 7.85411 10.8379C7.85382 11.3457 8.05418 11.8327 8.41113 12.192L14.3716 18.1773V26.7442C14.3918 27.2424 14.6028 27.7135 14.9606 28.0589C15.3185 28.4043 15.7953 28.5971 16.2913 28.5971C16.7874 28.5971 17.2642 28.4043 17.622 28.0589C17.9799 27.7135 18.1909 27.2424 18.2111 26.7442V18.2251L24.2159 12.192Z" fill="#E03638"/>
</g>
</g>
<defs>
<clipPath id="clip0_27_304">
<rect width="167.472" height="36.7185" fill="white" transform="translate(0.0830078 0.841797)"/>
</clipPath>
<clipPath id="clip1_27_304">
<rect width="32.2928" height="32.4623" fill="white" transform="translate(0.0830078 0.841797)"/>
</clipPath>
</defs>
</svg>
