<svg width="125" height="125" viewBox="0 0 125 125" fill="none" xmlns="http://www.w3.org/2000/svg">
<path d="M62.3456 1.95616C50.4205 1.95617 38.7631 5.49139 28.8467 12.115C18.9302 18.7386 11.2 28.1534 6.63285 39.1692C2.06575 50.1851 0.866809 62.3077 3.1876 74.0048C5.50838 85.7019 11.2447 96.4484 19.6716 104.886C28.0984 113.324 38.8375 119.074 50.5316 121.41C62.2257 123.746 74.3498 122.563 85.3716 118.01C96.3934 113.457 105.818 105.739 112.455 95.8314C119.091 85.9236 122.641 74.2707 122.657 62.3456C122.64 46.3552 116.281 31.0244 104.974 19.7174C93.6669 8.41049 78.3361 2.05098 62.3456 2.03441M62.3456 124.66C50.0166 124.663 37.9636 121.01 27.7111 114.162C17.4586 107.314 9.46715 97.5798 4.7476 86.1899C0.028055 74.7999 -1.2076 62.2661 1.19692 50.1738C3.60144 38.0816 9.53812 26.974 18.2561 18.2561C26.974 9.53812 38.0816 3.60144 50.1738 1.19692C62.2661 -1.2076 74.7999 0.028055 86.1899 4.7476C97.5798 9.46715 107.314 17.4586 114.162 27.7111C121.01 37.9636 124.663 50.0166 124.66 62.3456C124.639 78.8661 118.067 94.7039 106.386 106.386C94.7039 118.067 78.8661 124.639 62.3456 124.66Z" fill="#62353E"/>
<path d="M70.422 70.4832V64.4897C70.4415 63.0914 70.2246 61.6999 69.7803 60.374C69.3829 59.1803 68.7496 58.0787 67.9181 57.1346C67.0691 56.2095 66.0347 55.4736 64.8822 54.9751C63.5892 54.4357 62.1986 54.1694 60.7978 54.1926C59.7317 54.2179 58.676 54.408 57.668 54.756C56.4853 55.147 55.3512 55.6721 54.2878 56.3209V48.7624H69.17V42.315H47.1989V61.5164L53.6462 64.0358C53.8966 63.8481 54.2722 63.6133 54.7573 63.316C55.2424 63.0186 55.7745 62.7213 56.3222 62.4396C56.8978 62.1593 57.4943 61.9239 58.1062 61.7354C58.6655 61.5701 59.2445 61.4806 59.8276 61.4694C60.292 61.443 60.7569 61.5128 61.1931 61.6744C61.6293 61.836 62.0275 62.0858 62.3627 62.4083C63.0412 63.2195 63.3729 64.2652 63.286 65.319V69.6382C63.3118 70.4202 63.1223 71.1943 62.7383 71.876C62.3796 72.4471 61.9116 72.9417 61.3612 73.3314C60.8229 73.7023 60.2247 73.9776 59.5929 74.1451C59.0106 74.3007 58.4115 74.3848 57.8089 74.3955C56.5301 74.391 55.2609 74.1742 54.0531 73.7539C52.7054 73.2436 51.4717 72.4726 50.4225 71.4848L46.6198 77.1967C48.0673 78.5173 49.7722 79.5242 51.6275 80.1543C53.6957 80.8394 55.8653 81.1675 58.0436 81.1245C59.6319 81.132 61.2131 80.9106 62.7383 80.4673C64.175 80.0537 65.519 79.3684 66.6975 78.4486C67.8335 77.5455 68.7622 76.4087 69.4204 75.1153C70.1401 73.6578 70.4895 72.0453 70.4376 70.4206M40.5637 70.4206V64.4271C40.5757 63.0294 40.3589 61.6391 39.9221 60.3114C39.5142 59.1191 38.8762 58.0185 38.0442 57.072C37.1982 56.1504 36.1696 55.4149 35.0239 54.9125C32.7349 53.9479 30.1688 53.8698 27.8254 54.6934C26.6427 55.0845 25.5086 55.6095 24.4452 56.2583V48.6998H39.2648V42.2524H17.3562V61.4537L23.7879 63.9732C24.054 63.7854 24.4139 63.5507 24.899 63.2534C25.3842 62.9561 25.9162 62.6587 26.4639 62.3771C27.0438 62.094 27.6456 61.8585 28.2636 61.6729C28.8171 61.5058 29.3912 61.4163 29.9693 61.4068C30.4359 61.382 30.9027 61.4525 31.3413 61.6139C31.7798 61.7753 32.1809 62.0243 32.5201 62.3457C33.1926 63.1601 33.5235 64.2033 33.4434 65.2565V69.5756C33.472 70.3599 33.2765 71.1361 32.88 71.8134C32.5262 72.3882 32.0573 72.8837 31.5029 73.2687C30.9702 73.6395 30.3772 73.9148 29.7502 74.0825C29.1624 74.2371 28.5583 74.3212 27.9506 74.3329C26.6718 74.3284 25.4026 74.1116 24.1948 73.6913C22.8472 73.1811 21.6134 72.41 20.5643 71.4222L16.7615 77.134C18.209 78.4547 19.9139 79.4616 21.7692 80.0917C23.831 80.7842 25.995 81.1228 28.1697 81.0932C29.7578 81.0981 31.3386 80.8768 32.8644 80.436C34.295 80.0192 35.6332 79.3341 36.8079 78.4173C37.9439 77.5142 38.8726 76.3774 39.5308 75.084C40.256 73.6279 40.6107 72.0154 40.5637 70.3893" fill="#62353E"/>
<path d="M90.1084 50.2174C90.0905 50.0091 90.1145 49.7993 90.179 49.6004C90.2435 49.4015 90.3472 49.2175 90.484 49.0594C90.6005 48.9421 90.7397 48.8497 90.8931 48.7879C91.0464 48.726 91.2107 48.6959 91.376 48.6995C91.7681 48.7187 92.1542 48.8033 92.5184 48.9499C92.9317 49.1102 93.3213 49.326 93.6764 49.5915V53.0343C93.3002 53.2886 92.8958 53.4986 92.4714 53.6602C92.1234 53.8037 91.7523 53.8832 91.376 53.895C91.0425 53.9061 90.7174 53.7884 90.4684 53.5663C90.3343 53.4069 90.2335 53.2224 90.1717 53.0236C90.1099 52.8247 90.0884 52.6155 90.1084 52.4083V50.2174ZM96.2272 46.446H93.8798L93.6764 47.2598C93.1895 46.9506 92.6631 46.7084 92.1115 46.5399C91.7114 46.4105 91.2954 46.3368 90.8752 46.3208C90.4247 46.292 89.9732 46.361 89.5518 46.5231C89.1304 46.6851 88.7491 46.9365 88.434 47.2598C87.801 48.014 87.4867 48.985 87.5576 49.967V52.7369C87.5071 53.6676 87.7839 54.5867 88.3401 55.3347C88.6462 55.6716 89.0253 55.9342 89.4484 56.1024C89.8715 56.2705 90.3274 56.3398 90.7813 56.3049C91.2099 56.2941 91.6356 56.231 92.0489 56.1171C92.6048 55.9676 93.1332 55.7298 93.6138 55.4129V56.3831C93.6318 56.6351 93.5886 56.8877 93.4877 57.1194C93.3869 57.351 93.2315 57.5548 93.0348 57.7133C92.8436 57.8553 92.6252 57.9566 92.3932 58.0106C92.1424 58.0735 91.8849 58.105 91.6264 58.1045C91.4496 58.125 91.2711 58.125 91.0943 58.1045L90.4684 57.9637C90.2438 57.8964 90.0283 57.8018 89.8267 57.682C89.6205 57.5618 89.4355 57.4085 89.279 57.2282L87.7141 58.9026C87.9835 59.2056 88.2943 59.4691 88.6374 59.6851C88.9568 59.8893 89.298 60.0572 89.6546 60.1858C89.9912 60.2984 90.3367 60.3822 90.6874 60.4362C91.0157 60.4586 91.3451 60.4586 91.6733 60.4362C92.2015 60.4359 92.7275 60.3675 93.2382 60.2328C93.7628 60.1001 94.2604 59.8777 94.7092 59.5755C95.1443 59.2864 95.5124 58.9076 95.789 58.4645C96.0768 57.9933 96.2284 57.4517 96.2272 56.8996V46.446ZM79.9522 56.3205V51.7354H80.7503C81.1554 51.7091 81.5576 51.8192 81.8927 52.0484C82.2008 52.328 82.4186 52.693 82.5187 53.0968L83.5202 56.3205H86.384L85.1477 52.5961C85.0695 52.3926 85.0068 52.1735 84.9286 51.9701C84.8518 51.7692 84.7576 51.5755 84.6469 51.3911C84.5199 51.1988 84.3612 51.0295 84.1774 50.8903C83.9683 50.7222 83.7294 50.5948 83.4732 50.5148C83.8356 50.401 84.1567 50.1833 84.3965 49.8888C84.6388 49.5915 84.8438 49.2657 85.0068 48.9186L86.1962 46.4304H83.3167L82.3935 48.2769C82.246 48.6121 82.0207 48.9071 81.7362 49.1376C81.4533 49.3219 81.1185 49.4097 80.7816 49.388H79.9522V42.0017H77.4014V56.3205H79.9522Z" fill="#62353E"/>
<path fill-rule="evenodd" clip-rule="evenodd" d="M74.1941 25.9618C62.5669 21.8617 51.6595 22.1904 42.4109 26.1339C43.5377 23.8641 45.2041 21.9053 47.264 20.4293C49.3238 18.9532 51.7143 18.005 54.2259 17.6678C55.071 17.6678 52.2385 19.6239 52.2385 21.1419C53.9747 19.3655 55.9819 17.876 58.1851 16.7289C67.9344 14.8823 79.8277 20.5159 85.0701 28.7473C78.6071 32.4248 72.3631 31.6267 67.8562 32.6126C65.5235 31.7442 63.4276 30.3398 61.7374 28.5126C62.0035 29.9053 62.6294 30.9225 64.6482 33.2073C61.2315 33.8652 57.7471 34.1017 54.2729 33.9115C52.1046 32.9501 50.254 31.3926 48.9366 29.4202C48.3888 30.5626 49.3904 32.2527 49.6877 33.1134C47.0643 32.4155 44.7065 30.9561 42.9117 28.9194C41.0121 29.5954 39.216 30.5329 37.5754 31.7049C37.5754 31.7049 34.4456 32.0023 34.3361 31.4546C47.7472 24.3656 61.3462 22.2373 74.1784 25.9148" fill="#62353E"/>
<path d="M108.123 46.5245C107.706 47.0372 107.421 47.6444 107.293 48.2928C108.014 50.1655 108.385 52.1546 108.389 54.1612C108.389 54.7246 108.31 55.3036 108.248 55.8669C107.813 59.0311 106.598 62.0374 104.711 64.6147C102.613 67.4953 99.81 69.7891 96.5714 71.2769C93.3328 72.7647 89.7667 73.3966 86.2141 73.1121C82.4953 72.8533 78.9723 71.3482 76.2144 68.8399C78.9216 70.9751 82.1759 72.3039 85.6038 72.674C89.2257 72.9967 92.8678 72.3429 96.1512 70.7804C100.554 68.797 104.07 65.2586 106.026 60.8433C106.843 58.9982 107.32 57.0208 107.434 55.0062C105.744 55.6948 105.102 58.2769 102.63 58.2299C102.771 59.2471 104.899 59.075 104.899 59.028C103.937 60.3826 102.72 61.5361 101.315 62.4239C99.4688 63.5349 98.2951 63.4097 95.6661 64.38C96.7459 64.5834 98.3421 66.3987 99.5158 66.3987C99.3749 66.3987 97.7005 66.8682 95.6661 67.1655C93.6317 67.4628 91.5974 66.6804 89.4065 66.2735C90.6115 66.7899 91.1123 69.3094 92.2077 70.0605C89.9073 68.9808 86.5741 66.2892 82.8183 65.8979C83.945 66.743 84.7118 68.6678 84.1954 68.9338C83.7059 68.0866 83.0277 67.3635 82.2135 66.8207C81.3994 66.2779 80.4711 65.93 79.5007 65.804C76.3709 65.7101 74.493 66.4143 74.0079 67.009C73.6636 68.3705 74.6652 69.8102 75.5728 71.0308C76.1443 71.8013 76.9294 72.387 77.8307 72.7152C78.7321 73.0435 79.71 73.0999 80.6431 72.8774C80.3458 73.8163 78.8904 74.2858 77.8263 74.2232C80.4396 76.0541 82.0045 77.2591 87.513 77.2122C89.1522 77.074 90.7476 76.6113 92.2064 75.8511C93.6652 75.0908 94.9582 74.048 96.0104 72.7835C95.9008 74.3484 91.6443 77.1496 92.7398 77.2435C96.5119 77.3309 100.174 75.9701 102.974 73.4407C103.707 72.7323 104.239 71.8414 104.514 70.8595C104.789 69.8777 104.798 68.8404 104.539 67.8541C105.18 68.9459 105.474 70.2063 105.384 71.469C105.947 70.9903 106.47 70.467 106.949 69.9041C110.564 65.538 110.83 60.2643 109.281 58.6211C109.77 58.773 110.199 59.0729 110.51 59.4793C110.821 59.8858 110.999 60.3788 111.018 60.8903C111.394 59.683 111.467 58.4015 111.23 57.1594C110.992 55.9174 110.452 54.7531 109.656 53.77C109.727 51.275 109.263 48.7937 108.295 46.4932" fill="#62353E"/>
<path d="M46.7237 92.9851V84.3594H48.4138V91.4578H52.6829V92.9851H46.7237ZM55.4862 84.3594V92.9851H53.7711V84.3594H55.4862ZM63.3717 91.8459C63.1798 92.0796 62.9669 92.2757 62.7332 92.4343C62.4996 92.5845 62.2575 92.7097 62.0071 92.8098C61.7567 92.9016 61.5022 92.9684 61.2435 93.0101C60.9931 93.0519 60.7552 93.0727 60.5299 93.0727C60.1292 93.0727 59.7286 93.0143 59.328 92.8975C58.9358 92.7806 58.581 92.6095 58.2639 92.3842C57.9551 92.1505 57.7005 91.8626 57.5002 91.5204C57.3083 91.1698 57.2123 90.7609 57.2123 90.2935V87.1011C57.2123 86.642 57.3041 86.2373 57.4877 85.8867C57.6797 85.5278 57.93 85.2316 58.2388 84.9979C58.556 84.7558 58.9149 84.5764 59.3155 84.4595C59.7161 84.3343 60.1292 84.2717 60.5549 84.2717C61.0557 84.2717 61.5439 84.3427 62.0196 84.4846C62.4954 84.6181 62.9002 84.8309 63.234 85.1231L62.3952 86.4501C62.1281 86.2247 61.8319 86.0703 61.5064 85.9869C61.1809 85.8951 60.8721 85.8492 60.5799 85.8492C60.3796 85.8492 60.1793 85.8784 59.979 85.9368C59.7871 85.9869 59.6118 86.0745 59.4532 86.1997C59.303 86.3249 59.1778 86.4876 59.0776 86.688C58.9775 86.8883 58.9274 87.1303 58.9274 87.4141V89.9304C58.9274 90.2142 58.9733 90.4562 59.0651 90.6565C59.1569 90.8485 59.2779 91.0071 59.4282 91.1323C59.5784 91.2575 59.7495 91.3493 59.9415 91.4077C60.1334 91.4661 60.3296 91.4953 60.5299 91.4953C60.6968 91.4953 60.8762 91.4745 61.0682 91.4327C61.2685 91.3826 61.4646 91.2783 61.6566 91.1197V89.68H60.4047V88.2153H63.3717V91.8459ZM69.6995 92.9851V89.3796H66.5196V92.9851H64.8045V84.3594H66.5196V87.8272H69.6995V84.3594H71.4397V92.9851H69.6995ZM76.3282 85.9118V92.9851H74.6131V85.9118H72.3221V84.3594H78.6067V85.9118H76.3282Z" fill="#62353E"/>
<path d="M45.6944 101.373L45.081 103.827L44.2798 107.069H42.3894L40.186 98.4436H42.0138L42.7649 101.849L43.3408 104.515H43.4285L44.092 101.824L44.9433 98.4436H46.5457L47.4471 101.999L48.0731 104.515H48.1482L48.6865 101.974L49.4752 98.4436H51.303L49.0746 107.069H47.2093L46.408 103.814L45.7821 101.373H45.6944ZM52.1819 98.4436H58.1285V99.9835H53.897V101.962H57.5151V103.501H53.897V105.542H58.1285V107.069H52.1819V98.4436ZM61.3729 98.4436V107.069H59.6577V98.4436H61.3729ZM69.2584 105.93C69.0664 106.164 68.8536 106.36 68.6199 106.518C68.3862 106.669 68.1442 106.794 67.8938 106.894C67.6434 106.986 67.3889 107.053 67.1301 107.094C66.8798 107.136 66.6419 107.157 66.4165 107.157C66.0159 107.157 65.6153 107.099 65.2147 106.982C64.8224 106.865 64.4677 106.694 64.1506 106.468C63.8418 106.235 63.5872 105.947 63.3869 105.605C63.1949 105.254 63.099 104.845 63.099 104.378V101.185C63.099 100.726 63.1908 100.321 63.3744 99.971C63.5663 99.6121 63.8167 99.3158 64.1255 99.0821C64.4427 98.84 64.8016 98.6606 65.2022 98.5438C65.6028 98.4186 66.0159 98.356 66.4416 98.356C66.9423 98.356 67.4306 98.4269 67.9063 98.5688C68.3821 98.7023 68.7868 98.9152 69.1207 99.2073L68.2819 100.534C68.0148 100.309 67.7185 100.155 67.393 100.071C67.0675 99.9793 66.7587 99.9334 66.4666 99.9334C66.2663 99.9334 66.066 99.9626 65.8657 100.021C65.6737 100.071 65.4985 100.159 65.3399 100.284C65.1897 100.409 65.0645 100.572 64.9643 100.772C64.8642 100.972 64.8141 101.215 64.8141 101.498V104.015C64.8141 104.298 64.86 104.54 64.9518 104.741C65.0436 104.933 65.1646 105.091 65.3149 105.216C65.4651 105.342 65.6362 105.433 65.8281 105.492C66.0201 105.55 66.2162 105.58 66.4165 105.58C66.5835 105.58 66.7629 105.559 66.9549 105.517C67.1552 105.467 67.3513 105.363 67.5433 105.204V103.764H66.2913V102.3H69.2584V105.93ZM75.5862 107.069V103.464H72.4063V107.069H70.6912V98.4436H72.4063V101.911H75.5862V98.4436H77.3263V107.069H75.5862ZM82.2149 99.996V107.069H80.4998V99.996H78.2087V98.4436H84.4934V99.996H82.2149Z" fill="#62353E"/>
</svg>
