<svg width="125" height="125" viewBox="0 0 125 125" fill="none" xmlns="http://www.w3.org/2000/svg">
<path d="M76.2729 95.6626C75.2062 96.6603 74.0241 97.5272 72.7519 98.2447C68.0297 100.555 62.81 101.662 57.5568 101.468C53.4724 101.426 49.3992 101.033 45.3818 100.295C44.4661 99.8875 43.7095 99.1905 43.2288 98.3111C42.7481 97.4317 42.5698 96.4186 42.7215 95.4279C43.0345 92.079 43.1753 85.8037 43.2379 83.2686C43.2452 82.5191 43.4217 81.7808 43.7543 81.1091L43.5196 80.9839L43.7543 81.0934C44.8185 78.9182 46.8841 74.8338 55.4441 74.8338H58.0419C62.6329 74.8669 67.2216 74.616 71.7817 74.0827C76.4764 73.4567 79.3715 72.5178 80.3886 71.2971C82.5951 68.6681 81.2337 65.7104 79.3715 62.4085C78.0257 59.9985 74.8489 54.3649 75.9756 51.0317C76.132 50.5567 76.3933 50.123 76.74 49.7628C77.0868 49.4025 77.5101 49.1248 77.9787 48.9504C79.8645 48.2052 81.8829 47.8537 83.9097 47.9175C86.5449 47.9614 89.168 48.2867 91.7342 48.8878C93.1614 49.2324 94.4662 49.9633 95.5056 51.0004C97.6421 53.6833 98.7518 57.0403 98.6354 60.468C98.5102 68.7307 92.4853 77.8228 87.4307 83.9415C84.0294 88.1051 80.3094 91.9978 76.3043 95.5844M82.3448 103.706L78.1352 96.226C78.7768 95.647 79.7001 94.755 80.9051 93.597C82.1403 93.8472 83.339 94.2521 84.4731 94.8019C88.2017 96.5629 91.2007 99.5675 92.9548 103.299C92.9055 103.376 92.8387 103.441 92.7598 103.487C92.681 103.533 92.5922 103.56 92.501 103.565C92.2193 103.565 90.2475 103.691 82.3448 103.706ZM29.3103 92.924C30.4185 90.0677 32.0062 87.4215 34.005 85.0995C34.6414 84.3993 35.4283 83.8524 36.3065 83.5C37.1847 83.1477 38.1314 82.999 39.0753 83.0652H40.8593C41.1821 83.0928 41.5067 83.0928 41.8295 83.0652C41.8295 85.8664 41.6261 91.9538 41.3131 95.2557C41.1987 96.1746 41.2895 97.1073 41.5791 97.9868C41.8686 98.8662 42.3497 99.6705 42.9875 100.342C43.5673 100.939 44.2656 101.408 45.0376 101.719H45.1471C49.3034 102.487 53.5181 102.895 57.7445 102.939C59.5274 102.939 61.309 102.84 63.0809 102.642C66.7896 102.31 70.3958 101.247 73.6909 99.5123C74.8633 98.8573 75.9601 98.0754 76.9615 97.1806L80.686 103.8H75.7722C60.9683 103.8 40.2333 103.691 30.2806 103.628C29.5845 103.318 28.9446 102.895 28.3871 102.376C27.7624 99.217 28.1116 95.9428 29.3886 92.9866M27.0725 91.3122C30.8439 81.2812 33.0817 78.793 38.4806 78.793H39.2631H39.8265C39.8627 78.7919 39.8983 78.7829 39.9307 78.7667C39.9631 78.7505 39.9916 78.7274 40.0142 78.6991C40.0293 78.6701 40.0372 78.6379 40.0372 78.6052C40.0372 78.5725 40.0293 78.5403 40.0142 78.5113V77.948C39.9347 75.6845 40.6611 73.4662 42.0643 71.6884C42.7789 70.974 43.6359 70.4181 44.5796 70.0568C45.5232 69.6955 46.5324 69.5369 47.5414 69.5914H48.2769C49.6697 69.5914 51.1563 69.5914 52.7212 69.5914H57.7915C60.2258 69.6167 62.6598 69.5174 65.0839 69.2941C69.6065 68.8246 72.1729 67.7292 73.1745 65.9295C74.6298 63.3005 72.8771 60.1551 71.2027 57.1191C69.8569 54.7092 68.4797 52.221 68.9805 50.3901C69.2571 48.9843 70.0359 47.7272 71.1714 46.8534C73.2669 45.6327 75.6872 45.0863 78.1039 45.2885C81.7158 45.3762 85.3131 45.7794 88.8548 46.4935C89.4754 46.6198 90.0871 46.7871 90.6857 46.9942L89.1208 46.7125C87.4179 46.4385 85.697 46.2921 83.9723 46.2744C81.7344 46.212 79.5076 46.6115 77.431 47.4481C76.7674 47.7061 76.1692 48.108 75.6795 48.6248C75.1897 49.1416 74.8206 49.7605 74.5985 50.437C73.2527 54.4119 76.6642 60.468 78.1196 63.0501C80.0444 66.4459 80.7486 68.4803 79.3089 70.2017C77.8691 71.9231 69.1057 73.2063 58.0732 73.2063H55.5224C52.1538 73.013 48.8109 73.8953 45.9765 75.7258C44.4461 76.9207 43.2407 78.4813 42.4712 80.264C42.3185 80.6503 42.113 81.0137 41.8608 81.3438C41.5351 81.4605 41.1888 81.5085 40.8436 81.4846H40.0612H39.044C37.8755 81.4068 36.7045 81.5961 35.62 82.038C34.5354 82.48 33.5658 83.163 32.7844 84.0354C30.6805 86.5019 29.0182 89.313 27.8706 92.345C26.9691 94.6297 26.4816 97.0567 26.4309 99.5123C25.5942 96.7735 25.789 93.8232 26.9786 91.2183M96.5071 49.5137C96.2146 49.1171 95.8957 48.7407 95.5525 48.387L95.4274 48.2618C93.6857 46.5732 91.4782 45.445 89.0895 45.0225C85.4824 44.2832 81.8163 43.8695 78.1352 43.7862C76.2301 43.7297 74.3282 43.978 72.5015 44.5217C71.2494 44.8931 70.1225 45.5997 69.2427 46.565C68.3629 47.5303 67.7636 48.7177 67.5095 49.9988C66.8523 52.4401 68.3859 55.1943 69.8725 57.8233C71.3592 60.4524 72.8928 63.2535 71.8443 65.1471C70.4515 67.6979 63.5347 68.0265 57.6663 68.0265C56.0075 68.0265 54.3487 68.0265 52.7369 68.0265H48.2613H47.5257C46.3066 67.9714 45.0896 68.1743 43.9543 68.622C42.819 69.0696 41.791 69.7519 40.9375 70.6242C39.3734 72.4838 38.5047 74.8296 38.4806 77.2594C37.1614 77.1629 35.8368 77.3521 34.5973 77.8139C33.3577 78.2757 32.2323 78.9993 31.2977 79.9354C29.4355 81.8289 27.7924 84.9587 25.6172 90.7332C24.1618 94.6141 24.0523 97.9474 25.3042 100.655C26.2124 102.637 27.832 104.207 29.8424 105.052H29.9206H30.0928C32.8627 105.052 57.5724 105.209 75.2088 105.209C86.4448 105.209 92.2193 105.209 92.8296 105.036C93.4399 104.864 94.6918 104.676 94.6449 103.753C94.6414 103.374 94.5559 103.001 94.3945 102.658C93.2071 100.177 91.5151 97.972 89.4268 96.1827C87.3385 94.3935 84.8997 93.0598 82.2665 92.2668C84.6139 89.8725 86.8047 87.4312 88.7921 85.0056C91.7942 81.3876 94.4162 77.4704 96.6166 73.3158C98.8366 69.356 100.116 64.9387 100.357 60.4054C100.489 56.4064 99.128 52.5014 96.5384 49.4511" fill="#62353E"/>
<path d="M33.5116 24.3867C33.1444 24.0768 32.7485 23.8645 32.3238 23.7497C31.8992 23.6235 31.4861 23.5604 31.0844 23.5604C30.8205 23.5604 30.5565 23.6006 30.2926 23.6809C30.0287 23.7497 29.7934 23.8702 29.5868 24.0424C29.3803 24.2145 29.2081 24.4383 29.0704 24.7137C28.9442 24.9891 28.8811 25.3219 28.8811 25.7121V29.1721C28.8811 29.5623 28.9442 29.8951 29.0704 30.1705C29.2081 30.4345 29.3803 30.6525 29.5868 30.8247C29.8049 30.9968 30.0401 31.123 30.2926 31.2034C30.5565 31.2837 30.8205 31.3239 31.0844 31.3239C31.4861 31.3239 31.8878 31.2665 32.2894 31.1517C32.7025 31.037 33.1157 30.8189 33.5288 30.4976L34.6477 32.3223C34.2116 32.6895 33.678 32.9764 33.0468 33.183C32.4157 33.3895 31.75 33.4928 31.05 33.4928C30.4877 33.4928 29.9368 33.4125 29.3975 33.2518C28.8581 33.0912 28.3761 32.8559 27.9515 32.546C27.5269 32.2247 27.1826 31.8288 26.9187 31.3583C26.6547 30.8763 26.5228 30.314 26.5228 29.6713V25.2301C26.5228 24.599 26.649 24.0481 26.9015 23.5776C27.1654 23.0956 27.504 22.694 27.9171 22.3726C28.3417 22.0513 28.8237 21.8103 29.3631 21.6496C29.9024 21.489 30.4533 21.4087 31.0156 21.4087C31.7041 21.4087 32.364 21.5005 32.9952 21.6841C33.6378 21.8677 34.1887 22.1603 34.6477 22.562L33.5116 24.3867ZM45.2265 29.5853C45.2265 30.2279 45.106 30.7902 44.865 31.2722C44.624 31.7542 44.2969 32.1616 43.8838 32.4944C43.4706 32.8272 42.9829 33.0797 42.4206 33.2518C41.8698 33.4125 41.2845 33.4928 40.6648 33.4928C40.0451 33.4928 39.4541 33.4125 38.8918 33.2518C38.3409 33.0797 37.8589 32.8272 37.4458 32.4944C37.0327 32.1616 36.7056 31.7542 36.4646 31.2722C36.2236 30.7902 36.1031 30.2279 36.1031 29.5853V25.2301C36.1031 24.599 36.2293 24.0424 36.4818 23.5604C36.7343 23.0784 37.0728 22.6767 37.4974 22.3554C37.922 22.0341 38.4098 21.7931 38.9606 21.6324C39.5115 21.4718 40.0795 21.3914 40.6648 21.3914C41.2501 21.3914 41.8181 21.4775 42.369 21.6496C42.9198 21.8218 43.4075 22.0743 43.8321 22.4071C44.2568 22.7284 44.5953 23.1358 44.8478 23.6292C45.1002 24.1112 45.2265 24.6678 45.2265 25.299V29.5853ZM42.8509 25.7121C42.8509 25.3219 42.7878 24.9949 42.6616 24.7309C42.5354 24.4555 42.369 24.2317 42.1624 24.0596C41.9558 23.8875 41.7206 23.7612 41.4566 23.6809C41.2042 23.6006 40.9402 23.5604 40.6648 23.5604C40.3894 23.5604 40.1197 23.6006 39.8557 23.6809C39.5918 23.7612 39.3565 23.8875 39.15 24.0596C38.9434 24.2317 38.777 24.4555 38.6508 24.7309C38.5245 24.9949 38.4614 25.3219 38.4614 25.7121V29.1721C38.4614 29.5623 38.5245 29.8951 38.6508 30.1705C38.777 30.446 38.9434 30.6697 39.15 30.8419C39.3565 31.014 39.5918 31.1402 39.8557 31.2206C40.1197 31.2894 40.3894 31.3239 40.6648 31.3239C40.9402 31.3239 41.2042 31.2894 41.4566 31.2206C41.7206 31.1402 41.9558 31.014 42.1624 30.8419C42.369 30.6697 42.5354 30.446 42.6616 30.1705C42.7878 29.8951 42.8509 29.5623 42.8509 29.1721V25.7121ZM56.2209 27.0032L55.1192 29.1893L53.7765 31.737H52.0724L50.7469 29.241L49.5936 27.0032H49.5247V33.3723H47.1836V21.5119H49.3526L51.4699 25.6949L52.8986 28.6213H53.0019L54.4479 25.6261L56.4791 21.5119H58.6481V33.3723H56.2898V27.0032H56.2209ZM63.0231 26.7794H65.433C65.9724 26.7794 66.3798 26.6302 66.6552 26.3318C66.9306 26.0335 67.0683 25.6605 67.0683 25.2129C67.0683 24.7539 66.9249 24.3752 66.638 24.0768C66.3626 23.7784 65.9609 23.6292 65.433 23.6292H63.0231V26.7794ZM65.9667 21.5119C66.5519 21.5119 67.0569 21.6267 67.4815 21.8562C67.9061 22.0743 68.2561 22.3612 68.5315 22.7169C68.8184 23.0727 69.025 23.4743 69.1512 23.9219C69.2889 24.358 69.3578 24.7883 69.3578 25.2129C69.3578 25.649 69.2775 26.0851 69.1168 26.5212C68.9676 26.9573 68.7438 27.3532 68.4455 27.7089C68.1586 28.0647 67.7971 28.3573 67.361 28.5869C66.9364 28.8049 66.4486 28.9139 65.8978 28.9139H63.0231V33.3723H60.6648V21.5119H65.9667ZM76.435 30.9279H72.3037L71.529 33.3723H69.0158L73.1816 21.5119H75.5915L79.7228 33.3723H77.158L76.435 30.9279ZM72.9406 28.9483H75.7981L75.3333 27.4335L74.4038 24.3006H74.3349L73.4226 27.3819L72.9406 28.9483ZM87.8598 24.3867C87.4925 24.0768 87.0966 23.8645 86.672 23.7497C86.2474 23.6235 85.8343 23.5604 85.4326 23.5604C85.1687 23.5604 84.9047 23.6006 84.6408 23.6809C84.3768 23.7497 84.1416 23.8702 83.935 24.0424C83.7284 24.2145 83.5563 24.4383 83.4186 24.7137C83.2924 24.9891 83.2292 25.3219 83.2292 25.7121V29.1721C83.2292 29.5623 83.2924 29.8951 83.4186 30.1705C83.5563 30.4345 83.7284 30.6525 83.935 30.8247C84.1531 30.9968 84.3883 31.123 84.6408 31.2034C84.9047 31.2837 85.1687 31.3239 85.4326 31.3239C85.8343 31.3239 86.2359 31.2665 86.6376 31.1517C87.0507 31.037 87.4639 30.8189 87.877 30.4976L88.9959 32.3223C88.5598 32.6895 88.0262 32.9764 87.395 33.183C86.7638 33.3895 86.0982 33.4928 85.3982 33.4928C84.8359 33.4928 84.285 33.4125 83.7457 33.2518C83.2063 33.0912 82.7243 32.8559 82.2997 32.546C81.8751 32.2247 81.5308 31.8288 81.2669 31.3583C81.0029 30.8763 80.8709 30.314 80.8709 29.6713V25.2301C80.8709 24.599 80.9972 24.0481 81.2496 23.5776C81.5136 23.0956 81.8521 22.694 82.2653 22.3726C82.6899 22.0513 83.1719 21.8103 83.7112 21.6496C84.2506 21.489 84.8014 21.4087 85.3638 21.4087C86.0523 21.4087 86.7122 21.5005 87.3434 21.6841C87.986 21.8677 88.5369 22.1603 88.9959 22.562L87.8598 24.3867ZM95.2367 23.6465V33.3723H92.8784V23.6465H89.7283V21.5119H98.3697V23.6465H95.2367Z" fill="#62353E"/>
<path d="M35.2502 48.7256C35.2502 49.2994 35.1354 49.81 34.9059 50.2576C34.6764 50.6937 34.3551 51.0609 33.9419 51.3593C33.5403 51.6462 33.064 51.8642 32.5132 52.0134C31.9624 52.1626 31.3656 52.2372 30.723 52.2372C29.8623 52.2372 29.0532 52.1167 28.2958 51.8757C27.5384 51.6347 26.7982 51.2101 26.0752 50.6019L27.4007 48.8805C27.9171 49.2821 28.4507 49.592 29.0016 49.81C29.5639 50.0166 30.1205 50.1199 30.6713 50.1199C31.05 50.1199 31.3713 50.0855 31.6353 50.0166C31.8992 49.9363 32.1115 49.833 32.2722 49.7067C32.4329 49.569 32.5476 49.4199 32.6165 49.2592C32.6968 49.087 32.737 48.9149 32.737 48.7428C32.737 48.4788 32.6681 48.2608 32.5304 48.0886C32.4042 47.9165 32.2148 47.7731 31.9624 47.6583C31.7214 47.5321 31.4287 47.423 31.0844 47.3312C30.7516 47.2279 30.3787 47.1189 29.9655 47.0042C29.5065 46.8894 29.0647 46.7517 28.6401 46.591C28.2269 46.4189 27.8597 46.2066 27.5384 45.9541C27.2171 45.6902 26.9588 45.3746 26.7638 45.0074C26.5801 44.6286 26.4883 44.1754 26.4883 43.6475C26.4883 43.131 26.5859 42.6548 26.781 42.2187C26.9761 41.7826 27.2457 41.4097 27.59 41.0998C27.9458 40.7785 28.3704 40.5317 28.8638 40.3596C29.3688 40.176 29.9254 40.0842 30.5336 40.0842C31.2566 40.0727 31.9796 40.1416 32.7025 40.2907C33.4255 40.4399 34.1256 40.7383 34.8026 41.1859L33.7698 43.0794C33.219 42.7466 32.6968 42.5171 32.2033 42.3908C31.7099 42.2646 31.2222 42.2015 30.7402 42.2015C30.5106 42.2015 30.2811 42.2302 30.0516 42.2876C29.8336 42.3449 29.6327 42.431 29.4491 42.5458C29.277 42.6491 29.1335 42.7925 29.0188 42.9761C28.9155 43.1483 28.8638 43.3548 28.8638 43.5958C28.8638 43.8368 28.9212 44.0434 29.036 44.2155C29.1622 44.3762 29.3401 44.5196 29.5696 44.6459C29.7991 44.7606 30.0746 44.8639 30.3959 44.9557C30.7287 45.0475 31.1017 45.1393 31.5148 45.2311C32.7657 45.5066 33.701 45.9254 34.3207 46.4878C34.9404 47.0501 35.2502 47.796 35.2502 48.7256ZM39.5646 40.2907V52.1511H37.2063V40.2907H39.5646ZM41.4904 50.1199L46.8439 42.3908H41.7142V40.2907H49.6842V42.2531L44.2618 50.051H49.6842V52.1511H41.4904V50.1199ZM51.2685 40.2907H59.4451V42.4081H53.6268V45.1279H58.6017V47.2452H53.6268V50.051H59.4451V52.1511H51.2685V40.2907Z" fill="#62353E"/>
<path d="M62.33 1.95616C50.4049 1.95617 38.7474 5.49139 28.831 12.115C18.9146 18.7386 11.1843 28.1534 6.61719 39.1692C2.05008 50.1851 0.851167 62.3077 3.17195 74.0048C5.49274 85.7019 11.2291 96.4484 19.6559 104.886C28.0828 113.324 38.8219 119.074 50.516 121.41C62.21 123.746 74.3342 122.563 85.3559 118.01C96.3777 113.457 105.802 105.739 112.439 95.8314C119.075 85.9236 122.626 74.2707 122.641 62.3456C122.625 46.3552 116.265 31.0244 104.958 19.7174C93.6512 8.41049 78.3204 2.05098 62.33 2.03441M62.33 124.66C50.0016 124.66 37.9501 121.004 27.6997 114.154C17.4492 107.305 9.46026 97.5692 4.74311 86.179C0.0259634 74.7888 -1.20746 62.2555 1.19883 50.1643C3.60511 38.073 9.54301 26.9669 18.2616 18.2505C26.9801 9.53414 38.0877 3.59902 50.1796 1.19577C62.2715 -1.20747 74.8045 0.0290989 86.1935 4.74911C97.5825 9.46911 107.316 17.4605 114.163 27.7127C121.01 37.9649 124.663 50.0173 124.66 62.3456C124.643 78.87 118.071 94.7127 106.385 106.396C94.6987 118.079 78.8544 124.648 62.33 124.66Z" fill="#62353E"/>
</svg>
