<svg width="72" height="72" viewBox="0 0 72 72" fill="none" xmlns="http://www.w3.org/2000/svg">
<path d="M36.009 1.12982C29.1214 1.12983 22.3884 3.17166 16.661 6.99728C10.9335 10.8229 6.46877 16.2605 3.83094 22.623C1.19312 28.9854 0.500644 35.9871 1.84106 42.743C3.18148 49.4989 6.49462 55.7058 11.3617 60.5792C16.2288 65.4526 22.4314 68.7738 29.1856 70.123C35.9397 71.4721 42.9422 70.7887 49.3081 68.1592C55.674 65.5296 61.1174 61.0719 64.9504 55.3494C68.7835 49.6269 70.8341 42.8966 70.843 36.009C70.8334 26.7734 67.1604 17.9188 60.6298 11.3882C54.0992 4.85765 45.2446 1.18459 36.009 1.17502M36.009 71.9999C28.8881 72.0017 21.9266 69.8916 16.0051 65.9366C10.0836 61.9816 5.46795 56.3592 2.74207 49.7807C0.0162037 43.2022 -0.697472 35.9631 0.691306 28.9789C2.08008 21.9948 5.50894 15.5794 10.5442 10.5442C15.5794 5.50894 21.9948 2.08008 28.9789 0.691306C35.9631 -0.697472 43.2022 0.0162037 49.7807 2.74207C56.3592 5.46795 61.9816 10.0836 65.9366 16.0051C69.8916 21.9266 72.0017 28.8881 71.9999 36.009C71.988 45.5507 68.1922 54.6982 61.4452 61.4452C54.6982 68.1922 45.5507 71.988 36.009 71.9999Z" fill="#4F4646"/>
<path d="M40.6736 40.7088V37.2471C40.6849 36.4395 40.5596 35.6359 40.303 34.87C40.0735 34.1806 39.7077 33.5444 39.2275 32.9991C38.7371 32.4647 38.1396 32.0397 37.474 31.7518C36.7272 31.4403 35.9241 31.2864 35.115 31.2999C34.4993 31.3145 33.8895 31.4242 33.3073 31.6252C32.6242 31.8511 31.9692 32.1544 31.355 32.5291V28.1635H39.9505V24.4397H27.2606V35.5298L30.9845 36.985C31.1291 36.8766 31.346 36.741 31.6262 36.5692C31.9064 36.3975 32.2137 36.2258 32.53 36.0631C32.8625 35.9012 33.207 35.7652 33.5604 35.6564C33.8834 35.5608 34.2178 35.5092 34.5546 35.5027C34.8229 35.4875 35.0914 35.5278 35.3433 35.6211C35.5952 35.7144 35.8252 35.8587 36.0188 36.045C36.4107 36.5135 36.6023 37.1175 36.5521 37.7262V40.2208C36.567 40.6724 36.4576 41.1195 36.2358 41.5132C36.0286 41.8431 35.7583 42.1288 35.4404 42.3538C35.1295 42.5681 34.784 42.7271 34.419 42.8238C34.0827 42.9137 33.7367 42.9623 33.3887 42.9684C32.6501 42.9659 31.917 42.8406 31.2194 42.5979C30.4411 42.3032 29.7285 41.8578 29.1225 41.2873L26.9262 44.5863C27.7622 45.3491 28.7469 45.9307 29.8185 46.2946C31.013 46.6902 32.2661 46.8797 33.5242 46.8549C34.4416 46.8593 35.3548 46.7314 36.2358 46.4753C37.0655 46.2365 37.8418 45.8407 38.5225 45.3094C39.1786 44.7878 39.715 44.1312 40.0952 43.3842C40.5108 42.5424 40.7126 41.6111 40.6827 40.6727M23.4284 40.6727V37.211C23.4353 36.4037 23.3101 35.6007 23.0578 34.8339C22.8222 34.1452 22.4537 33.5096 21.9732 32.9629C21.4846 32.4306 20.8905 32.0058 20.2287 31.7156C18.9067 31.1585 17.4246 31.1134 16.0711 31.5891C15.388 31.815 14.733 32.1182 14.1188 32.4929V28.1274H22.6782V24.4036H10.0244V35.4937L13.7392 36.9489C13.8928 36.8404 14.1007 36.7048 14.3809 36.5331C14.6611 36.3614 14.9684 36.1896 15.2848 36.0269C15.6197 35.8635 15.9673 35.7275 16.3242 35.6202C16.6439 35.5237 16.9754 35.472 17.3094 35.4666C17.5789 35.4522 17.8485 35.4929 18.1018 35.5862C18.3551 35.6794 18.5867 35.8232 18.7826 36.0089C19.171 36.4792 19.3622 37.0818 19.3159 37.69V40.1846C19.3324 40.6376 19.2195 41.0859 18.9905 41.4771C18.7861 41.8091 18.5153 42.0953 18.1951 42.3177C17.8874 42.5318 17.5449 42.6908 17.1828 42.7877C16.8433 42.877 16.4944 42.9255 16.1434 42.9323C15.4048 42.9297 14.6717 42.8045 13.9742 42.5617C13.1958 42.267 12.4832 41.8217 11.8773 41.2511L9.68094 44.5502C10.5169 45.3129 11.5017 45.8945 12.5732 46.2584C13.764 46.6584 15.0139 46.8539 16.2699 46.8369C17.1872 46.8397 18.1002 46.7119 18.9815 46.4573C19.8077 46.2165 20.5807 45.8208 21.2591 45.2913C21.9153 44.7697 22.4516 44.1131 22.8318 43.3661C23.2506 42.5251 23.4555 41.5937 23.4284 40.6546" fill="#4F4646"/>
<path d="M52.0439 29.0039C52.0336 28.8836 52.0474 28.7624 52.0847 28.6476C52.1219 28.5327 52.1818 28.4264 52.2608 28.3351C52.3281 28.2674 52.4085 28.214 52.4971 28.1783C52.5857 28.1425 52.6805 28.1252 52.776 28.1272C53.0025 28.1383 53.2255 28.1872 53.4358 28.2718C53.6746 28.3644 53.8996 28.4891 54.1047 28.6424V30.6309C53.8874 30.7778 53.6538 30.8991 53.4087 30.9924C53.2077 31.0753 52.9934 31.1212 52.776 31.128C52.5834 31.1344 52.3957 31.0664 52.2518 30.9382C52.1744 30.8461 52.1161 30.7395 52.0804 30.6247C52.0447 30.5098 52.0323 30.389 52.0439 30.2693V29.0039ZM55.5779 26.8257H54.2222L54.1047 27.2957C53.8234 27.1171 53.5194 26.9773 53.2008 26.8799C52.9697 26.8052 52.7295 26.7626 52.4868 26.7534C52.2266 26.7367 51.9658 26.7766 51.7224 26.8702C51.4791 26.9638 51.2588 27.109 51.0768 27.2957C50.7112 27.7313 50.5297 28.2921 50.5707 28.8593V30.4591C50.5414 30.9967 50.7013 31.5275 51.0226 31.9595C51.1994 32.1541 51.4183 32.3058 51.6627 32.4029C51.9071 32.5 52.1704 32.54 52.4326 32.5199C52.6801 32.5136 52.9259 32.4772 53.1647 32.4114C53.4858 32.3251 53.7909 32.1877 54.0685 32.0047V32.5651C54.0789 32.7106 54.0539 32.8565 53.9957 32.9903C53.9375 33.1241 53.8477 33.2418 53.7341 33.3333C53.6237 33.4154 53.4975 33.4738 53.3635 33.5051C53.2187 33.5414 53.0699 33.5596 52.9206 33.5593C52.8185 33.5711 52.7154 33.5711 52.6133 33.5593L52.2518 33.478C52.1221 33.4391 51.9976 33.3845 51.8812 33.3153C51.7621 33.2458 51.6552 33.1573 51.5649 33.0531L50.661 34.0203C50.8166 34.1953 50.9961 34.3474 51.1943 34.4722C51.3788 34.5901 51.5758 34.6871 51.7818 34.7614C51.9762 34.8264 52.1757 34.8748 52.3783 34.906C52.5679 34.9189 52.7582 34.9189 52.9478 34.906C53.2528 34.9058 53.5566 34.8663 53.8516 34.7885C54.1546 34.7119 54.442 34.5835 54.7012 34.4089C54.9525 34.2419 55.1651 34.0231 55.3248 33.7672C55.4911 33.4951 55.5787 33.1822 55.5779 32.8633V26.8257ZM46.178 32.5289V29.8807H46.6389C46.8729 29.8655 47.1052 29.9291 47.2988 30.0614C47.4767 30.223 47.6025 30.4338 47.6603 30.667L48.2387 32.5289H49.8928L49.1787 30.3778C49.1336 30.2603 49.0974 30.1337 49.0522 30.0162C49.0078 29.9002 48.9534 29.7883 48.8895 29.6818C48.8162 29.5708 48.7245 29.4729 48.6184 29.3926C48.4976 29.2955 48.3596 29.2219 48.2116 29.1757C48.4209 29.11 48.6064 28.9842 48.7449 28.8141C48.8848 28.6424 49.0032 28.4543 49.0974 28.2538L49.7843 26.8167H48.1212L47.588 27.8832C47.5028 28.0767 47.3727 28.2472 47.2084 28.3803C47.045 28.4867 46.8516 28.5374 46.657 28.5249H46.178V24.2588H44.7047V32.5289H46.178Z" fill="#4F4646"/>
<path fill-rule="evenodd" clip-rule="evenodd" d="M42.8523 14.9948C36.1367 12.6267 29.8369 12.8165 24.4953 15.0942C25.146 13.7832 26.1085 12.6518 27.2982 11.7993C28.488 10.9468 29.8686 10.3992 31.3192 10.2044C31.8073 10.2044 30.1714 11.3342 30.1714 12.2109C31.1742 11.1849 32.3335 10.3246 33.606 9.6621C39.2369 8.59557 46.1061 11.8494 49.1339 16.6036C45.4011 18.7276 41.7948 18.2667 39.1917 18.8361C37.8444 18.3345 36.6339 17.5234 35.6577 16.468C35.8113 17.2724 36.1729 17.8599 37.3388 19.1795C35.3655 19.5595 33.353 19.6961 31.3464 19.5863C30.094 19.031 29.0252 18.1314 28.2643 16.9922C27.9479 17.652 28.5264 18.6282 28.6981 19.1253C27.1829 18.7222 25.8211 17.8793 24.7845 16.703C23.6873 17.0934 22.65 17.6349 21.7024 18.3118C21.7024 18.3118 19.8947 18.4836 19.8315 18.1672C27.5774 14.0728 35.4317 12.8436 42.8432 14.9676" fill="#4F4646"/>
<path d="M62.4484 26.8711C62.2076 27.1672 62.0431 27.5179 61.9694 27.8925C62.3857 28.9741 62.6001 30.1229 62.6021 31.2819C62.6021 31.6072 62.5569 31.9417 62.5207 32.267C62.2696 34.0946 61.5676 35.8309 60.4781 37.3195C59.266 38.9832 57.6472 40.3081 55.7767 41.1674C53.9062 42.0267 51.8465 42.3916 49.7947 42.2274C47.6468 42.0779 45.612 41.2085 44.0191 39.7599C45.5827 40.9931 47.4623 41.7606 49.4422 41.9743C51.534 42.1607 53.6377 41.7831 55.5341 40.8806C58.077 39.735 60.1078 37.6914 61.2373 35.1412C61.7092 34.0756 61.9847 32.9335 62.0507 31.7699C61.0746 32.1676 60.704 33.6589 59.2759 33.6318C59.3573 34.2193 60.5865 34.1199 60.5865 34.0928C60.0309 34.8751 59.3278 35.5414 58.5167 36.0541C57.4502 36.6959 56.7723 36.6235 55.2539 37.1839C55.8775 37.3014 56.7994 38.3499 57.4773 38.3499C57.396 38.3499 56.4289 38.621 55.2539 38.7928C54.0789 38.9645 52.9039 38.5126 51.6385 38.2776C52.3345 38.5758 52.6237 40.031 53.2564 40.4649C51.9277 39.8412 50.0026 38.2866 47.8333 38.0606C48.4841 38.5487 48.927 39.6604 48.6287 39.8141C48.346 39.3247 47.9543 38.9071 47.4841 38.5936C47.0138 38.2801 46.4777 38.0792 45.9172 38.0064C44.1095 37.9522 43.0249 38.3589 42.7447 38.7024C42.5459 39.4887 43.1243 40.3202 43.6486 41.0252C43.9786 41.4702 44.4321 41.8085 44.9527 41.9981C45.4733 42.1877 46.0381 42.2203 46.577 42.0918C46.4053 42.6341 45.5647 42.9052 44.9501 42.8691C46.4595 43.9266 47.3633 44.6225 50.5449 44.5954C51.4916 44.5156 52.4131 44.2484 53.2556 43.8093C54.0982 43.3702 54.845 42.7679 55.4527 42.0375C55.3894 42.9414 52.931 44.5593 53.5637 44.6135C55.7424 44.664 57.8577 43.878 59.4748 42.4172C59.8983 42.008 60.2053 41.4934 60.3641 40.9263C60.523 40.3592 60.528 39.7601 60.3786 39.1904C60.7487 39.821 60.9189 40.549 60.8667 41.2783C61.1918 41.0019 61.4941 40.6996 61.7706 40.3745C63.8584 37.8528 64.0121 34.8068 63.1173 33.8578C63.3996 33.9455 63.6477 34.1187 63.8274 34.3535C64.0071 34.5882 64.1095 34.8729 64.1205 35.1684C64.338 34.4711 64.38 33.7309 64.2428 33.0136C64.1057 32.2962 63.7936 31.6237 63.3342 31.0559C63.3752 29.6149 63.107 28.1818 62.5478 26.853" fill="#4F4646"/>
<path d="M26.9862 53.3521V48.3701H27.9624V52.4699H30.428V53.3521H26.9862ZM32.0471 48.3701V53.3521H31.0565V48.3701H32.0471ZM36.6016 52.6941C36.4907 52.829 36.3678 52.9423 36.2328 53.0339C36.0979 53.1207 35.9581 53.193 35.8134 53.2508C35.6688 53.3038 35.5218 53.3424 35.3724 53.3665C35.2278 53.3906 35.0904 53.4027 34.9602 53.4027C34.7288 53.4027 34.4975 53.3689 34.2661 53.3014C34.0395 53.2339 33.8346 53.1351 33.6515 53.005C33.4731 52.87 33.3261 52.7037 33.2104 52.5061C33.0995 52.3036 33.0441 52.0674 33.0441 51.7974V49.9536C33.0441 49.6885 33.0971 49.4547 33.2032 49.2522C33.314 49.045 33.4586 48.8738 33.637 48.7389C33.8202 48.5991 34.0275 48.4954 34.2588 48.4279C34.4902 48.3556 34.7288 48.3195 34.9747 48.3195C35.2639 48.3195 35.5459 48.3604 35.8207 48.4424C36.0954 48.5195 36.3292 48.6424 36.5221 48.8112L36.0376 49.5776C35.8833 49.4475 35.7122 49.3583 35.5242 49.3101C35.3362 49.2571 35.1579 49.2305 34.9891 49.2305C34.8735 49.2305 34.7578 49.2474 34.6421 49.2812C34.5312 49.3101 34.43 49.3607 34.3384 49.433C34.2516 49.5053 34.1793 49.5993 34.1215 49.715C34.0636 49.8307 34.0347 49.9705 34.0347 50.1344V51.5878C34.0347 51.7517 34.0612 51.8914 34.1142 52.0071C34.1673 52.118 34.2371 52.2096 34.3239 52.2819C34.4107 52.3542 34.5095 52.4072 34.6204 52.441C34.7312 52.4747 34.8445 52.4916 34.9602 52.4916C35.0566 52.4916 35.1603 52.4795 35.2711 52.4554C35.3868 52.4265 35.5001 52.3663 35.611 52.2747V51.4431H34.8879V50.5971H36.6016V52.6941ZM40.2563 53.3521V51.2696H38.4197V53.3521H37.4291V48.3701H38.4197V50.373H40.2563V48.3701H41.2614V53.3521H40.2563ZM44.0849 49.2667V53.3521H43.0943V49.2667H41.771V48.3701H45.4009V49.2667H44.0849Z" fill="#4F4646"/>
<path d="M26.3917 58.1968L26.0374 59.6141L25.5746 61.4868H24.4828L23.2102 56.5049H24.2659L24.6997 58.4716L25.0323 60.0117H25.0829L25.4662 58.4571L25.9579 56.5049H26.8834L27.404 58.5584L27.7655 60.0117H27.8089L28.1198 58.5439L28.5754 56.5049H29.6311L28.344 61.4868H27.2666L26.8039 59.6068L26.4423 58.1968H26.3917ZM30.1387 56.5049H33.5733V57.3942H31.1293V58.5367H33.219V59.4261H31.1293V60.6047H33.5733V61.4868H30.1387V56.5049ZM35.4471 56.5049V61.4868H34.4565V56.5049H35.4471ZM40.0016 60.8288C39.8907 60.9638 39.7678 61.0771 39.6328 61.1687C39.4978 61.2554 39.358 61.3277 39.2134 61.3856C39.0688 61.4386 38.9218 61.4772 38.7723 61.5013C38.6277 61.5254 38.4903 61.5374 38.3602 61.5374C38.1288 61.5374 37.8974 61.5037 37.666 61.4362C37.4395 61.3687 37.2346 61.2699 37.0514 61.1397C36.8731 61.0048 36.726 60.8385 36.6103 60.6408C36.4995 60.4384 36.444 60.2022 36.444 59.9322V58.0884C36.444 57.8233 36.4971 57.5895 36.6031 57.387C36.714 57.1797 36.8586 57.0086 37.037 56.8736C37.2201 56.7338 37.4274 56.6302 37.6588 56.5627C37.8902 56.4904 38.1288 56.4542 38.3746 56.4542C38.6639 56.4542 38.9459 56.4952 39.2206 56.5772C39.4954 56.6543 39.7292 56.7772 39.922 56.9459L39.4376 57.7124C39.2833 57.5822 39.1122 57.493 38.9242 57.4448C38.7362 57.3918 38.5578 57.3653 38.3891 57.3653C38.2734 57.3653 38.1577 57.3822 38.042 57.4159C37.9312 57.4448 37.8299 57.4955 37.7383 57.5678C37.6516 57.6401 37.5793 57.7341 37.5214 57.8498C37.4636 57.9655 37.4346 58.1053 37.4346 58.2691V59.7225C37.4346 59.8864 37.4612 60.0262 37.5142 60.1419C37.5672 60.2528 37.6371 60.3444 37.7239 60.4167C37.8106 60.489 37.9095 60.542 38.0203 60.5757C38.1312 60.6095 38.2445 60.6264 38.3602 60.6264C38.4566 60.6264 38.5602 60.6143 38.6711 60.5902C38.7868 60.5613 38.9001 60.501 39.0109 60.4094V59.5779H38.2879V58.7319H40.0016V60.8288ZM43.6563 61.4868V59.4044H41.8197V61.4868H40.8291V56.5049H41.8197V58.5078H43.6563V56.5049H44.6614V61.4868H43.6563ZM47.4848 57.4015V61.4868H46.4942V57.4015H45.171V56.5049H48.8008V57.4015H47.4848Z" fill="#4F4646"/>
</svg>
