<svg width="125" height="125" viewBox="0 0 125 125" fill="none" xmlns="http://www.w3.org/2000/svg">
<path d="M40.838 26.3132C40.838 27.3418 40.6413 28.31 40.248 29.2176C39.8849 30.095 39.4009 30.927 38.7958 31.7136C38.2209 32.5003 37.5704 33.2264 36.8443 33.892C36.1485 34.5576 35.4526 35.1627 34.7568 35.7073C34.1214 36.2216 33.3953 36.7662 32.5784 37.341C31.7918 37.8856 31.0203 38.4907 30.2639 39.1563C29.5076 39.8219 28.842 40.548 28.2671 41.3346C27.6923 42.1213 27.3443 42.9835 27.2233 43.9214H40.7926V49.095H21.2329V44.6475C21.2329 43.3768 21.4144 42.212 21.7775 41.1531C22.1708 40.0639 22.6851 39.0655 23.3205 38.1579C23.9558 37.2502 24.6819 36.4182 25.4988 35.6619C26.3459 34.9055 27.2082 34.2096 28.0856 33.5743C28.9327 32.9692 29.7647 32.3792 30.5816 31.8044C31.3985 31.2296 32.1246 30.6547 32.7599 30.0799C33.3953 29.4748 33.9096 28.8697 34.3029 28.2646C34.6962 27.6595 34.8929 27.0241 34.8929 26.3585C34.8929 25.8442 34.7719 25.3904 34.5298 24.9971C34.2878 24.5735 33.955 24.2256 33.5314 23.9533C33.1381 23.6507 32.6692 23.4238 32.1246 23.2726C31.6103 23.1213 31.0657 23.0457 30.4908 23.0457C29.4319 23.0457 28.373 23.2423 27.3141 23.6356C26.2854 23.9987 25.3475 24.5584 24.5004 25.3148L21.5052 20.7312C22.6549 19.7025 24.0315 18.9159 25.635 18.3713C27.2385 17.7965 28.9478 17.509 30.7631 17.509C31.9733 17.509 33.1835 17.6603 34.3937 17.9629C35.6039 18.2654 36.6779 18.7646 37.6158 19.4605C38.584 20.1261 39.3555 21.0186 39.9303 22.138C40.5354 23.2574 40.838 24.6491 40.838 26.3132ZM46.292 49.095V26.6762H52.0555V49.095H46.292ZM45.9289 20.595C45.9289 19.6874 46.2466 18.9159 46.8819 18.2805C47.5173 17.6452 48.2736 17.3275 49.151 17.3275C50.0284 17.3275 50.7848 17.6452 51.4201 18.2805C52.0555 18.9159 52.3732 19.6874 52.3732 20.595C52.3732 21.5027 52.0555 22.2742 51.4201 22.9095C50.7848 23.5146 50.0284 23.8171 49.151 23.8171C48.2736 23.8171 47.5173 23.5146 46.8819 22.9095C46.2466 22.2742 45.9289 21.5027 45.9289 20.595ZM71.4134 49.095V35.2534C71.4134 33.9827 71.126 33.1053 70.5512 32.6213C69.9763 32.1069 69.2805 31.8498 68.4636 31.8498C67.7677 31.8498 66.9962 32.0162 66.1491 32.349C65.302 32.6515 64.3187 33.1507 63.1993 33.8466V49.095H57.4357V26.6762H62.7454L63.1993 28.6276C64.8633 27.599 66.255 26.9636 67.3744 26.7216C68.5241 26.4796 69.4771 26.3585 70.2335 26.3585C72.7144 26.3585 74.4994 27.0998 75.5886 28.5823C76.708 30.0345 77.2677 31.9859 77.2677 34.4366V49.095H71.4134ZM89.9882 49.095V25.3148L86.8568 27.9469L83.6347 23.8171L90.4874 17.8267H95.7517V49.095H89.9882Z" fill="#62353E"/>
<path d="M62.33 1.95616C50.4049 1.95617 38.7474 5.49139 28.831 12.115C18.9146 18.7386 11.1843 28.1534 6.61719 39.1692C2.05008 50.1851 0.851167 62.3077 3.17195 74.0048C5.49274 85.7019 11.2291 96.4484 19.6559 104.886C28.0828 113.324 38.8219 119.074 50.516 121.41C62.21 123.746 74.3342 122.563 85.356 118.01C96.3778 113.457 105.802 105.739 112.439 95.8314C119.075 85.9236 122.626 74.2707 122.641 62.3456C122.625 46.3552 116.265 31.0244 104.958 19.7174C93.6513 8.41049 78.3205 2.05098 62.33 2.03441M62.33 124.66C50.0017 124.66 37.9501 121.004 27.6997 114.154C17.4492 107.305 9.46026 97.5692 4.74311 86.179C0.0259634 74.7888 -1.20746 62.2555 1.19883 50.1643C3.60511 38.073 9.54306 26.9669 18.2616 18.2505C26.9802 9.53414 38.0878 3.59902 50.1796 1.19577C62.2715 -1.20747 74.8044 0.0290989 86.1935 4.74911C97.5825 9.46911 107.316 17.4605 114.163 27.7127C121.01 37.9649 124.663 50.0173 124.66 62.3456C124.639 78.8688 118.065 94.709 106.38 106.391C94.695 118.073 78.8532 124.643 62.33 124.66Z" fill="#62353E"/>
<path d="M93.6133 91.2337C93.5628 92.8657 92.9312 94.4261 91.8324 95.6339C90.7336 96.8418 89.2398 97.6176 87.6198 97.8219L86.9156 97.9001V103.737H84.5526L82.3148 97.8688H44.632L42.4098 103.737H39.9843V97.9001L39.2644 97.8219C37.6301 97.6457 36.1173 96.8761 35.0126 95.659C33.9079 94.4418 33.2882 92.8616 33.2708 91.218V79.9664C33.2791 79.442 33.4942 78.9422 33.8695 78.5757C34.2447 78.2093 34.7495 78.0061 35.2739 78.0102H37.7151L42.0343 85.0992H41.956C41.1358 85.9535 40.6688 87.0861 40.6485 88.2702C40.6282 89.4542 41.0561 90.6022 41.8465 91.484L42.0812 91.7344H84.9908L85.2411 91.484C86.0246 90.606 86.4498 89.4657 86.4324 88.289C86.415 87.1123 85.9563 85.9851 85.1472 85.1305L89.4507 78.1354H91.5633C91.8235 78.1313 92.082 78.1787 92.3239 78.275C92.5657 78.3712 92.7861 78.5144 92.9723 78.6963C93.1585 78.8781 93.3069 79.095 93.4089 79.3345C93.5109 79.574 93.5644 79.8313 93.5664 80.0916L93.6133 91.2337ZM42.9732 86.3512C43.0984 86.3512 56.713 84.2855 63.4108 86.9928C69.6704 84.4263 82.08 86.0225 84.0518 86.3042C84.4858 86.8254 84.7388 87.4734 84.7726 88.1508C84.8065 88.8281 84.6195 89.4981 84.2396 90.06H42.8167C42.4363 89.503 42.246 88.8379 42.2742 88.1639C42.3024 87.49 42.5475 86.8432 42.9732 86.3199M41.6274 68.3079H85.2411C85.5804 68.2951 85.9187 68.3515 86.2355 68.4736C86.5523 68.5956 86.841 68.7809 87.084 69.018C87.327 69.2551 87.5192 69.5392 87.6489 69.8529C87.7787 70.1667 87.8434 70.5035 87.8389 70.843V77.6034L83.5197 84.6298C80.1239 84.1916 69.733 83.0649 63.4577 85.287C57.1981 83.0962 46.8385 84.2386 43.6617 84.6454L39.0453 77.0557V70.7961C39.0409 70.4579 39.105 70.1224 39.2338 69.8098C39.3627 69.4971 39.5535 69.2138 39.7948 68.9769C40.036 68.74 40.3228 68.5544 40.6378 68.4314C40.9528 68.3083 41.2894 68.2503 41.6274 68.2609M91.6103 76.4297H89.4507V70.8743C89.4509 70.3258 89.3414 69.7829 89.1287 69.2773C88.9161 68.7718 88.6045 68.3138 88.2123 67.9304C87.8201 67.547 87.3552 67.2458 86.845 67.0446C86.3348 66.8433 85.7895 66.7461 85.2411 66.7586H41.6274C41.079 66.7461 40.5337 66.8433 40.0235 67.0446C39.5133 67.2458 39.0485 67.547 38.6563 67.9304C38.2641 68.3138 37.9525 68.7718 37.7398 69.2773C37.5271 69.7829 37.4177 70.3258 37.4178 70.8743V76.4297H35.2582C34.3105 76.4213 33.398 76.7888 32.7205 77.4516C32.043 78.1144 31.6557 79.0187 31.6433 79.9664V91.218C31.6646 93.1262 32.342 94.9689 33.5617 96.4365C34.7813 97.9041 36.469 98.9072 38.3411 99.2773V105.318H43.5209L45.7587 99.4494H81.188L83.4258 105.318H88.5274V99.2616C90.3945 98.8905 92.0786 97.8918 93.2998 96.4315C94.521 94.9712 95.206 93.137 95.2409 91.2337V79.9664C95.2347 79.4958 95.136 79.031 94.9502 78.5985C94.7644 78.1661 94.4952 77.7745 94.1581 77.446C93.821 77.1176 93.4225 76.8588 92.9853 76.6844C92.5481 76.5101 92.0809 76.4235 91.6103 76.4297Z" fill="#62353E"/>
</svg>
