<svg width="72" height="72" viewBox="0 0 72 72" fill="none" xmlns="http://www.w3.org/2000/svg">
<path d="M44.053 55.2517C43.4368 55.828 42.7541 56.3287 42.0193 56.7431C39.2919 58.0772 36.2772 58.7168 33.2431 58.605C30.884 58.5803 28.5315 58.3535 26.2112 57.9271C25.6823 57.6919 25.2453 57.2894 24.9677 56.7814C24.69 56.2735 24.587 55.6884 24.6746 55.1162C24.8554 53.182 24.9368 49.5576 24.9729 48.0933C24.9771 47.6604 25.0791 47.234 25.2712 46.846L25.1356 46.7737L25.2712 46.837C25.8858 45.5807 27.0789 43.2216 32.0229 43.2216H33.5232C36.1749 43.2407 38.8252 43.0958 41.459 42.7878C44.1705 42.4263 45.8426 41.884 46.4301 41.179C47.7045 39.6605 46.9182 37.9523 45.8426 36.0451C45.0653 34.6532 43.2305 31.3994 43.8812 29.4742C43.9716 29.1999 44.1225 28.9494 44.3227 28.7413C44.523 28.5333 44.7675 28.3729 45.0382 28.2721C46.1274 27.8418 47.2931 27.6387 48.4637 27.6756C49.9858 27.7009 51.5008 27.8888 52.9829 28.236C53.8073 28.435 54.5609 28.8572 55.1612 29.4562C56.3952 31.0058 57.0361 32.9446 56.9689 34.9244C56.8965 39.6967 53.4168 44.948 50.4974 48.482C48.5329 50.8868 46.3843 53.1351 44.0711 55.2066M47.5599 59.8975L45.1285 55.5771C45.4991 55.2427 46.0324 54.7275 46.7284 54.0587C47.4418 54.2032 48.1341 54.4371 48.7891 54.7546C50.9427 55.7717 52.6748 57.5071 53.6879 59.6625C53.6595 59.707 53.6209 59.7441 53.5753 59.7708C53.5298 59.7975 53.4785 59.813 53.4258 59.8161C53.2631 59.8161 52.1243 59.8884 47.5599 59.8975ZM16.9288 53.67C17.5688 52.0203 18.4858 50.4919 19.6403 49.1508C20.0078 48.7464 20.4623 48.4305 20.9695 48.227C21.4768 48.0235 22.0235 47.9376 22.5687 47.9758H23.5991C23.7855 47.9918 23.973 47.9918 24.1595 47.9758C24.1595 49.5937 24.042 53.1097 23.8612 55.0168C23.7951 55.5474 23.8476 56.0862 24.0148 56.5941C24.182 57.1021 24.4599 57.5666 24.8283 57.9542C25.1632 58.2991 25.5665 58.57 26.0123 58.7496H26.0756C28.4762 59.1932 30.9105 59.4291 33.3515 59.4546C34.3813 59.4545 35.4102 59.3972 36.4336 59.2829C38.5757 59.0913 40.6585 58.4769 42.5616 57.4752C43.2388 57.0969 43.8723 56.6453 44.4507 56.1285L46.6018 59.9517H43.7638C35.2134 59.9517 23.2376 59.8885 17.4891 59.8523C17.0871 59.6734 16.7175 59.4291 16.3955 59.1292C16.0347 57.3047 16.2364 55.4136 16.9739 53.7062M15.6362 52.7391C17.8145 46.9455 19.107 45.5084 22.2252 45.5084H22.6772H23.0026C23.0235 45.5077 23.044 45.5025 23.0628 45.4932C23.0815 45.4838 23.0979 45.4705 23.111 45.4541C23.1197 45.4374 23.1243 45.4188 23.1243 45.3999C23.1243 45.381 23.1197 45.3624 23.111 45.3457V45.0203C23.065 43.713 23.4846 42.4318 24.295 41.4049C24.7078 40.9923 25.2028 40.6713 25.7478 40.4626C26.2929 40.2539 26.8757 40.1623 27.4585 40.1938H27.8833C28.6877 40.1938 29.5464 40.1938 30.4502 40.1938H33.3786C34.7846 40.2084 36.1904 40.1511 37.5905 40.0221C40.2026 39.7509 41.6849 39.1182 42.2634 38.0788C43.104 36.5603 42.0917 34.7436 41.1245 32.9902C40.3472 31.5983 39.5519 30.1612 39.8411 29.1037C40.0008 28.2917 40.4506 27.5656 41.1065 27.061C42.3168 26.3559 43.7147 26.0404 45.1105 26.1572C47.1966 26.2078 49.2743 26.4407 51.3199 26.8531C51.6783 26.9261 52.0316 27.0227 52.3774 27.1423L51.4735 26.9796C50.49 26.8214 49.496 26.7368 48.4999 26.7266C47.2073 26.6905 45.9212 26.9213 44.7218 27.4044C44.3386 27.5535 43.9931 27.7856 43.7102 28.0841C43.4273 28.3826 43.2141 28.7401 43.0859 29.1308C42.3086 31.4265 44.279 34.9244 45.1195 36.4157C46.2313 38.3771 46.638 39.5521 45.8064 40.5463C44.9749 41.5405 39.9134 42.2817 33.5413 42.2817H32.0681C30.1225 42.17 28.1917 42.6796 26.5546 43.7368C25.6707 44.427 24.9745 45.3283 24.5301 46.358C24.4419 46.5811 24.3232 46.791 24.1775 46.9816C23.9894 47.049 23.7894 47.0767 23.5901 47.063H23.1381H22.5506C21.8757 47.018 21.1994 47.1273 20.573 47.3826C19.9466 47.6378 19.3866 48.0324 18.9353 48.5362C17.7201 49.9608 16.76 51.5844 16.0972 53.3356C15.5765 54.6552 15.2949 56.0569 15.2657 57.4752C14.7824 55.8934 14.8949 54.1894 15.582 52.6848M55.7396 28.5975C55.5707 28.3684 55.3865 28.151 55.1883 27.9468L55.116 27.8744C54.1101 26.8992 52.8351 26.2475 51.4554 26.0035C49.3721 25.5765 47.2546 25.3375 45.1285 25.2895C44.0282 25.2568 42.9298 25.4002 41.8747 25.7143C41.1515 25.9288 40.5007 26.3369 39.9925 26.8944C39.4844 27.452 39.1382 28.1377 38.9915 28.8777C38.6119 30.2877 39.4976 31.8785 40.3563 33.3969C41.2149 34.9154 42.1007 36.5332 41.4951 37.6269C40.6907 39.1001 36.6957 39.2899 33.3063 39.2899C32.3483 39.2899 31.3902 39.2899 30.4592 39.2899H27.8742H27.4494C26.7453 39.2581 26.0424 39.3753 25.3867 39.6339C24.731 39.8924 24.1372 40.2865 23.6443 40.7903C22.7409 41.8643 22.2392 43.2192 22.2252 44.6226C21.4633 44.5669 20.6983 44.6761 19.9823 44.9428C19.2664 45.2096 18.6164 45.6275 18.0766 46.1682C17.0011 47.2618 16.052 49.0695 14.7957 52.4047C13.9551 54.6462 13.8919 56.5714 14.6149 58.135C15.1395 59.2802 16.0749 60.1866 17.2361 60.6748H17.2812H17.3807C18.9805 60.6748 33.2521 60.7652 43.4384 60.7652C49.9279 60.7652 53.2631 60.7652 53.6156 60.6658C53.9681 60.5663 54.6912 60.4579 54.6641 59.9246C54.662 59.7058 54.6127 59.4899 54.5195 59.2919C53.8336 57.8593 52.8564 56.5856 51.6502 55.5522C50.4441 54.5187 49.0355 53.7484 47.5147 53.2904C48.8705 51.9075 50.1358 50.4976 51.2837 49.0966C53.0176 47.0069 54.532 44.7445 55.8029 42.3449C57.0851 40.0578 57.8242 37.5065 57.9631 34.8882C58.0395 32.5785 57.2534 30.3231 55.7577 28.5614" fill="#4F4646"/>
<path d="M19.3552 13.4212C19.1431 13.2423 18.9145 13.1197 18.6692 13.0534C18.424 12.9805 18.1854 12.944 17.9534 12.944C17.8009 12.944 17.6485 12.9672 17.4961 13.0136C17.3436 13.0534 17.2077 13.123 17.0884 13.2224C16.9691 13.3218 16.8697 13.4511 16.7902 13.6101C16.7172 13.7692 16.6808 13.9614 16.6808 14.1868V16.1852C16.6808 16.4105 16.7172 16.6028 16.7902 16.7618C16.8697 16.9143 16.9691 17.0402 17.0884 17.1396C17.2144 17.2391 17.3502 17.312 17.4961 17.3584C17.6485 17.4048 17.8009 17.428 17.9534 17.428C18.1854 17.428 18.4174 17.3948 18.6493 17.3285C18.888 17.2623 19.1266 17.1363 19.3652 16.9507L20.0114 18.0046C19.7596 18.2167 19.4514 18.3824 19.0868 18.5017C18.7223 18.621 18.3378 18.6807 17.9335 18.6807C17.6087 18.6807 17.2906 18.6343 16.9791 18.5415C16.6675 18.4487 16.3891 18.3128 16.1439 18.1339C15.8987 17.9483 15.6998 17.7196 15.5474 17.4478C15.3949 17.1695 15.3187 16.8447 15.3187 16.4735V13.9084C15.3187 13.5439 15.3916 13.2257 15.5374 12.954C15.6899 12.6756 15.8854 12.4436 16.124 12.258C16.3693 12.0724 16.6476 11.9332 16.9592 11.8404C17.2707 11.7476 17.5888 11.7012 17.9136 11.7012C18.3113 11.7012 18.6924 11.7543 19.057 11.8603C19.4282 11.9664 19.7463 12.1354 20.0114 12.3674L19.3552 13.4212ZM26.1214 16.4238C26.1214 16.795 26.0518 17.1197 25.9126 17.3981C25.7734 17.6765 25.5845 17.9118 25.3459 18.104C25.1073 18.2962 24.8256 18.4421 24.5008 18.5415C24.1827 18.6343 23.8446 18.6807 23.4867 18.6807C23.1288 18.6807 22.7874 18.6343 22.4627 18.5415C22.1445 18.4421 21.8661 18.2962 21.6275 18.104C21.3889 17.9118 21.2 17.6765 21.0608 17.3981C20.9216 17.1197 20.852 16.795 20.852 16.4238V13.9084C20.852 13.5439 20.9249 13.2224 21.0708 12.944C21.2166 12.6656 21.4121 12.4336 21.6573 12.2481C21.9026 12.0625 22.1843 11.9233 22.5024 11.8305C22.8206 11.7377 23.1487 11.6913 23.4867 11.6913C23.8248 11.6913 24.1528 11.741 24.471 11.8404C24.7891 11.9398 25.0708 12.0857 25.3161 12.2779C25.5613 12.4635 25.7569 12.6988 25.9027 12.9838C26.0485 13.2622 26.1214 13.5836 26.1214 13.9482V16.4238ZM24.7494 14.1868C24.7494 13.9614 24.7129 13.7725 24.64 13.6201C24.5671 13.461 24.471 13.3318 24.3517 13.2323C24.2324 13.1329 24.0965 13.06 23.9441 13.0136C23.7982 12.9672 23.6458 12.944 23.4867 12.944C23.3276 12.944 23.1719 12.9672 23.0194 13.0136C22.867 13.06 22.7311 13.1329 22.6118 13.2323C22.4925 13.3318 22.3964 13.461 22.3235 13.6201C22.2506 13.7725 22.2141 13.9614 22.2141 14.1868V16.1852C22.2141 16.4105 22.2506 16.6028 22.3235 16.7618C22.3964 16.9209 22.4925 17.0502 22.6118 17.1496C22.7311 17.249 22.867 17.3219 23.0194 17.3683C23.1719 17.4081 23.3276 17.428 23.4867 17.428C23.6458 17.428 23.7982 17.4081 23.9441 17.3683C24.0965 17.3219 24.2324 17.249 24.3517 17.1496C24.471 17.0502 24.5671 16.9209 24.64 16.7618C24.7129 16.6028 24.7494 16.4105 24.7494 16.1852V14.1868ZM32.4715 14.9325L31.8352 16.1951L31.0597 17.6666H30.0754L29.3098 16.2249L28.6437 14.9325H28.6039V18.6111H27.2518V11.7609H28.5045L29.7274 14.1768L30.5526 15.867H30.6123L31.4474 14.1371L32.6206 11.7609H33.8733V18.6111H32.5112V14.9325H32.4715ZM36.4002 14.8032H37.7921C38.1036 14.8032 38.3389 14.717 38.498 14.5447C38.6571 14.3724 38.7366 14.157 38.7366 13.8985C38.7366 13.6333 38.6538 13.4146 38.4881 13.2423C38.329 13.0699 38.097 12.9838 37.7921 12.9838H36.4002V14.8032ZM38.1003 11.7609C38.4384 11.7609 38.73 11.8272 38.9752 11.9597C39.2205 12.0857 39.4226 12.2514 39.5817 12.4568C39.7474 12.6623 39.8667 12.8943 39.9396 13.1528C40.0192 13.4047 40.0589 13.6532 40.0589 13.8985C40.0589 14.1503 40.0126 14.4022 39.9198 14.6541C39.8336 14.9059 39.7043 15.1346 39.532 15.3401C39.3663 15.5456 39.1575 15.7146 38.9057 15.8471C38.6604 15.9731 38.3787 16.036 38.0606 16.036H36.4002V18.6111H35.0381V11.7609H38.1003ZM44.1465 17.1993H41.7604L41.313 18.6111H39.8614L42.2674 11.7609H43.6594L46.0455 18.6111H44.5641L44.1465 17.1993ZM42.1283 16.0559H43.7787L43.5102 15.181L42.9733 13.3715H42.9336L42.4066 15.1512L42.1283 16.0559ZM50.7451 13.4212C50.533 13.2423 50.3044 13.1197 50.0591 13.0534C49.8139 12.9805 49.5753 12.944 49.3433 12.944C49.1908 12.944 49.0384 12.9672 48.8859 13.0136C48.7335 13.0534 48.5976 13.123 48.4783 13.2224C48.359 13.3218 48.2596 13.4511 48.18 13.6101C48.1071 13.7692 48.0707 13.9614 48.0707 14.1868V16.1852C48.0707 16.4105 48.1071 16.6028 48.18 16.7618C48.2596 16.9143 48.359 17.0402 48.4783 17.1396C48.6042 17.2391 48.7401 17.312 48.8859 17.3584C49.0384 17.4048 49.1908 17.428 49.3433 17.428C49.5753 17.428 49.8073 17.3948 50.0392 17.3285C50.2779 17.2623 50.5165 17.1363 50.7551 16.9507L51.4013 18.0046C51.1495 18.2167 50.8413 18.3824 50.4767 18.5017C50.1122 18.621 49.7277 18.6807 49.3234 18.6807C48.9986 18.6807 48.6805 18.6343 48.369 18.5415C48.0574 18.4487 47.779 18.3128 47.5338 18.1339C47.2886 17.9483 47.0897 17.7196 46.9373 17.4478C46.7848 17.1695 46.7086 16.8447 46.7086 16.4735V13.9084C46.7086 13.5439 46.7815 13.2257 46.9273 12.954C47.0798 12.6756 47.2753 12.4436 47.5139 12.258C47.7592 12.0724 48.0375 11.9332 48.3491 11.8404C48.6606 11.7476 48.9787 11.7012 49.3035 11.7012C49.7012 11.7012 50.0823 11.7543 50.4469 11.8603C50.8181 11.9664 51.1362 12.1354 51.4013 12.3674L50.7451 13.4212ZM55.0059 12.9937V18.6111H53.6438V12.9937H51.8243V11.7609H56.8154V12.9937H55.0059Z" fill="#4F4646"/>
<path d="M20.3594 27.4785C20.3594 27.8099 20.2931 28.1049 20.1606 28.3634C20.028 28.6153 19.8424 28.8274 19.6038 28.9997C19.3718 29.1654 19.0968 29.2913 18.7786 29.3775C18.4604 29.4637 18.1158 29.5067 17.7446 29.5067C17.2475 29.5067 16.7802 29.4371 16.3428 29.298C15.9053 29.1588 15.4778 28.9135 15.0602 28.5622L15.8258 27.568C16.124 27.8 16.4322 27.979 16.7504 28.1049C17.0752 28.2242 17.3966 28.2838 17.7148 28.2838C17.9335 28.2838 18.1191 28.264 18.2715 28.2242C18.424 28.1778 18.5466 28.1181 18.6394 28.0452C18.7322 27.9657 18.7985 27.8795 18.8383 27.7867C18.8846 27.6873 18.9078 27.5879 18.9078 27.4885C18.9078 27.336 18.8681 27.2101 18.7885 27.1107C18.7156 27.0112 18.6063 26.9284 18.4604 26.8621C18.3213 26.7892 18.1522 26.7262 17.9534 26.6732C17.7612 26.6136 17.5458 26.5506 17.3071 26.4843C17.042 26.418 16.7868 26.3385 16.5416 26.2457C16.303 26.1463 16.0909 26.0236 15.9053 25.8778C15.7197 25.7254 15.5706 25.5431 15.4579 25.331C15.3518 25.1123 15.2988 24.8505 15.2988 24.5456C15.2988 24.2473 15.3552 23.9722 15.4678 23.7204C15.5805 23.4685 15.7363 23.2531 15.9351 23.0741C16.1406 22.8885 16.3858 22.746 16.6708 22.6466C16.9625 22.5405 17.2839 22.4875 17.6352 22.4875C18.0528 22.4809 18.4704 22.5207 18.888 22.6068C19.3055 22.693 19.7099 22.8653 20.1009 23.1238L19.5044 24.2175C19.1862 24.0253 18.8846 23.8927 18.5996 23.8198C18.3146 23.7469 18.0329 23.7104 17.7545 23.7104C17.622 23.7104 17.4894 23.727 17.3569 23.7601C17.2309 23.7933 17.1149 23.843 17.0089 23.9093C16.9095 23.9689 16.8266 24.0518 16.7603 24.1578C16.7007 24.2572 16.6708 24.3765 16.6708 24.5157C16.6708 24.6549 16.704 24.7742 16.7703 24.8737C16.8432 24.9665 16.9459 25.0493 17.0785 25.1222C17.211 25.1885 17.3701 25.2482 17.5557 25.3012C17.7479 25.3542 17.9633 25.4072 18.2019 25.4603C18.9244 25.6193 19.4646 25.8613 19.8225 26.186C20.1805 26.5108 20.3594 26.9416 20.3594 27.4785ZM22.8513 22.6068V29.457H21.4892V22.6068H22.8513ZM23.9636 28.2838L27.0556 23.8198H24.0928V22.6068H28.6961V23.7402L25.5643 28.2441H28.6961V29.457H23.9636V28.2838ZM29.6111 22.6068H34.3337V23.8297H30.9732V25.4006H33.8465V26.6235H30.9732V28.2441H34.3337V29.457H29.6111V22.6068Z" fill="#4F4646"/>
<path d="M35.9999 1.12982C29.1123 1.12983 22.3793 3.17166 16.6518 6.99728C10.9244 10.8229 6.45963 16.2605 3.8218 22.623C1.18398 28.9854 0.491517 35.9871 1.83194 42.743C3.17235 49.4989 6.4855 55.7058 11.3526 60.5792C16.2197 65.4526 22.4223 68.7738 29.1764 70.123C35.9306 71.4721 42.9331 70.7887 49.299 68.1592C55.6648 65.5296 61.1083 61.0719 64.9413 55.3494C68.7744 49.6269 70.8249 42.8966 70.8339 36.009C70.8243 26.7734 67.1512 17.9188 60.6206 11.3882C54.0901 4.85765 45.2355 1.18459 35.9999 1.17501M35.9999 71.9999C28.8794 71.9999 21.9188 69.8883 15.9984 65.9322C10.0781 61.9761 5.46387 56.3531 2.73939 49.7745C0.0149041 43.1958 -0.697482 35.957 0.692316 28.9734C2.08211 21.9899 5.51167 15.5753 10.5473 10.541C15.5828 5.50664 21.9983 2.07869 28.9822 0.690644C35.9661 -0.697401 43.2048 0.0168067 49.7827 2.74294C56.3607 5.46908 61.9825 10.0847 65.9371 16.006C69.8918 21.9274 72.0016 28.8885 71.9998 36.009C71.9902 45.553 68.194 54.7032 61.4445 61.451C54.6951 68.1988 45.5439 71.9927 35.9999 71.9999Z" fill="#4F4646"/>
</svg>
