<svg width="72" height="72" viewBox="0 0 72 72" fill="none" xmlns="http://www.w3.org/2000/svg">
<path d="M23.5866 15.2499C23.5866 15.844 23.4731 16.4032 23.2459 16.9274C23.0362 17.4341 22.7566 17.9147 22.4071 18.369C22.0751 18.8233 21.6994 19.2427 21.28 19.6272C20.8781 20.0116 20.4762 20.3611 20.0743 20.6756C19.7074 20.9727 19.288 21.2872 18.8162 21.6192C18.3618 21.9338 17.9163 22.2832 17.4794 22.6677C17.0425 23.0521 16.6581 23.4715 16.3261 23.9258C15.9941 24.3801 15.7931 24.8782 15.7232 25.4199H23.5604V28.408H12.2633V25.8392C12.2633 25.1053 12.3682 24.4326 12.5779 23.821C12.805 23.1919 13.1021 22.6152 13.4691 22.091C13.836 21.5668 14.2554 21.0863 14.7272 20.6494C15.2165 20.2125 15.7145 19.8106 16.2213 19.4437C16.7105 19.0942 17.1911 18.7534 17.6629 18.4214C18.1347 18.0894 18.5541 17.7574 18.921 17.4254C19.288 17.0759 19.585 16.7264 19.8122 16.3769C20.0394 16.0275 20.153 15.6605 20.153 15.2761C20.153 14.979 20.0831 14.7169 19.9433 14.4897C19.8035 14.2451 19.6113 14.0441 19.3666 13.8869C19.1395 13.7121 18.8686 13.5811 18.5541 13.4937C18.257 13.4063 17.9425 13.3626 17.6105 13.3626C16.9989 13.3626 16.3873 13.4762 15.7757 13.7034C15.1815 13.9131 14.6398 14.2364 14.1506 14.6732L12.4206 12.0259C13.0846 11.4317 13.8797 10.9774 14.8058 10.6629C15.732 10.3309 16.7193 10.1649 17.7677 10.1649C18.4667 10.1649 19.1657 10.2522 19.8646 10.427C20.5636 10.6017 21.1839 10.89 21.7256 11.2919C22.2848 11.6764 22.7304 12.1919 23.0624 12.8384C23.4119 13.485 23.5866 14.2888 23.5866 15.2499ZM26.7367 28.408V15.4595H30.0656V28.408H26.7367ZM26.527 11.9472C26.527 11.423 26.7105 10.9774 27.0775 10.6104C27.4444 10.2435 27.8813 10.06 28.388 10.06C28.8948 10.06 29.3316 10.2435 29.6986 10.6104C30.0656 10.9774 30.249 11.423 30.249 11.9472C30.249 12.4715 30.0656 12.917 29.6986 13.284C29.3316 13.6335 28.8948 13.8082 28.388 13.8082C27.8813 13.8082 27.4444 13.6335 27.0775 13.284C26.7105 12.917 26.527 12.4715 26.527 11.9472ZM41.2461 28.408V20.4135C41.2461 19.6796 41.0801 19.1728 40.7481 18.8932C40.4161 18.5962 40.0142 18.4476 39.5424 18.4476C39.1405 18.4476 38.6949 18.5438 38.2056 18.736C37.7163 18.9107 37.1484 19.199 36.5019 19.6009V28.408H33.173V15.4595H36.2398L36.5019 16.5866C37.463 15.9925 38.2668 15.6256 38.9133 15.4858C39.5773 15.346 40.1278 15.2761 40.5646 15.2761C41.9975 15.2761 43.0285 15.7042 43.6576 16.5604C44.3041 17.3992 44.6274 18.5263 44.6274 19.9417V28.408H41.2461ZM51.9744 28.408V14.6732L50.1658 16.1935L48.3048 13.8082L52.2627 10.3483H55.3032V28.408H51.9744Z" fill="#4F4646"/>
<path d="M35.9998 1.12982C29.1122 1.12983 22.3792 3.17166 16.6518 6.99728C10.9243 10.8229 6.45953 16.2605 3.82171 22.623C1.18388 28.9854 0.491426 35.9871 1.83184 42.743C3.17226 49.4989 6.4854 55.7058 11.3525 60.5792C16.2196 65.4526 22.4222 68.7738 29.1763 70.123C35.9305 71.4721 42.9331 70.7887 49.2989 68.1592C55.6648 65.5296 61.1082 61.0719 64.9412 55.3494C68.7743 49.6269 70.8249 42.8966 70.8338 36.009C70.8242 26.7734 67.1511 17.9188 60.6206 11.3882C54.09 4.85765 45.2354 1.18459 35.9998 1.17501M35.9998 71.9999C28.8793 71.9999 21.9187 69.8883 15.9983 65.9322C10.078 61.9761 5.46378 56.3531 2.7393 49.7745C0.0148126 43.1958 -0.697574 35.957 0.692225 28.9734C2.08202 21.9899 5.5116 15.5753 10.5472 10.541C15.5828 5.50664 21.9982 2.07869 28.9821 0.690644C35.966 -0.697401 43.2046 0.0168067 49.7826 2.74294C56.3606 5.46908 61.9824 10.0847 65.937 16.006C69.8917 21.9274 72.0015 28.8885 71.9997 36.009C71.9878 45.5523 68.1908 54.7011 61.4418 61.4484C54.6929 68.1957 45.5431 71.9903 35.9998 71.9999Z" fill="#4F4646"/>
<path d="M54.0681 52.6936C54.0389 53.6362 53.6742 54.5374 53.0396 55.235C52.4049 55.9326 51.5421 56.3807 50.6065 56.4987L50.1997 56.5439V59.9152H48.8349L47.5424 56.5258H25.778L24.4945 59.9152H23.0936V56.5439L22.6778 56.4987C21.7339 56.397 20.8601 55.9525 20.2221 55.2495C19.5841 54.5465 19.2261 53.6338 19.2161 52.6845V46.1859C19.2209 45.883 19.3451 45.5943 19.5619 45.3827C19.7786 45.1711 20.0701 45.0537 20.373 45.0561H21.783L24.2776 49.1505H24.2324C23.7587 49.6439 23.489 50.2981 23.4772 50.9819C23.4655 51.6658 23.7127 52.3288 24.1692 52.8382L24.3047 52.9828H49.088L49.2326 52.8382C49.6851 52.331 49.9307 51.6724 49.9206 50.9928C49.9106 50.3132 49.6457 49.6621 49.1784 49.1686L51.6639 45.1284H52.8841C53.0344 45.126 53.1837 45.1534 53.3234 45.209C53.4631 45.2646 53.5904 45.3473 53.6979 45.4523C53.8055 45.5574 53.8912 45.6826 53.9501 45.821C54.009 45.9593 54.0399 46.1079 54.041 46.2582L54.0681 52.6936ZM24.8199 49.8736C24.8922 49.8736 32.7556 48.6805 36.6241 50.2441C40.2394 48.7618 47.4069 49.6838 48.5457 49.8465C48.7964 50.1475 48.9425 50.5217 48.962 50.913C48.9816 51.3042 48.8736 51.6912 48.6542 52.0157H24.7295C24.5098 51.694 24.3999 51.3098 24.4162 50.9206C24.4324 50.5313 24.5741 50.1577 24.8199 49.8555M24.0426 39.4523H49.2326C49.4286 39.4449 49.624 39.4775 49.8069 39.548C49.9899 39.6185 50.1566 39.7255 50.297 39.8625C50.4373 39.9994 50.5483 40.1635 50.6233 40.3447C50.6982 40.5259 50.7356 40.7204 50.733 40.9165V44.8211L48.2384 48.8794C46.2771 48.6263 40.2756 47.9755 36.6512 49.259C33.0358 47.9936 27.0524 48.6534 25.2176 48.8884L22.5513 44.5048V40.8894C22.5487 40.6941 22.5858 40.5003 22.6602 40.3198C22.7346 40.1392 22.8448 39.9755 22.9841 39.8387C23.1235 39.7019 23.2891 39.5947 23.4711 39.5236C23.653 39.4525 23.8474 39.4191 24.0426 39.4252M52.9113 44.1432H51.6639V40.9346C51.664 40.6178 51.6008 40.3042 51.478 40.0122C51.3551 39.7202 51.1752 39.4557 50.9487 39.2343C50.7222 39.0128 50.4537 38.8389 50.159 38.7226C49.8643 38.6064 49.5493 38.5503 49.2326 38.5575H24.0426C23.7259 38.5503 23.4109 38.6064 23.1163 38.7226C22.8216 38.8389 22.5531 39.0128 22.3266 39.2343C22.1001 39.4557 21.9201 39.7202 21.7973 40.0122C21.6744 40.3042 21.6112 40.6178 21.6113 40.9346V44.1432H20.364C19.8166 44.1384 19.2896 44.3506 18.8983 44.7334C18.507 45.1163 18.2833 45.6385 18.2761 46.1859V52.6845C18.2884 53.7866 18.6796 54.8509 19.3841 55.6985C20.0885 56.5462 21.0633 57.1256 22.1445 57.3393V60.8281H25.1362L26.4288 57.4387H46.8917L48.1842 60.8281H51.1307V57.3302C52.2091 57.1159 53.1817 56.5391 53.8871 55.6957C54.5924 54.8522 54.988 53.7929 55.0082 52.6936V46.1859C55.0046 45.9141 54.9476 45.6456 54.8403 45.3959C54.733 45.1461 54.5775 44.9199 54.3828 44.7302C54.1881 44.5406 53.9579 44.3911 53.7054 44.2904C53.4529 44.1896 53.1831 44.1396 52.9113 44.1432Z" fill="#4F4646"/>
</svg>
