<svg width="141" height="141" viewBox="0 0 141 141" fill="none" xmlns="http://www.w3.org/2000/svg">
<path d="M70.1142 140.228C108.837 140.228 140.228 108.837 140.228 70.1142C140.228 31.3912 108.837 0 70.1142 0C31.3912 0 0 31.3912 0 70.1142C0 108.837 31.3912 140.228 70.1142 140.228Z" fill="#665E5B"/>
<path d="M110.999 65.8412L110.999 66.0173C110.989 66.2031 111.043 66.3867 111.152 66.5375C111.261 66.6882 111.418 66.7968 111.598 66.845C113.008 67.1162 114.286 67.8545 115.226 68.9407C115.921 70.0739 116.224 71.4044 116.089 72.727C116.093 72.9451 116.182 73.153 116.336 73.3073C116.49 73.4615 116.698 73.5502 116.916 73.5547C117.022 73.5553 117.127 73.5337 117.224 73.4912C117.321 73.4487 117.409 73.3864 117.48 73.3081C117.559 73.2333 117.621 73.1431 117.664 73.0432C117.706 72.9432 117.727 72.8356 117.727 72.727C117.863 71.0581 117.455 69.3898 116.564 67.9721C115.404 66.5875 113.809 65.6375 112.038 65.2777C111.841 65.1983 111.62 65.1983 111.422 65.2777C111.312 65.3315 111.216 65.4107 111.143 65.5086C111.069 65.6066 111.02 65.7206 110.999 65.8412Z" fill="white"/>
<path d="M119.399 40.7466C118.895 41.9796 118.27 43.1594 117.532 44.2688C117.445 44.3859 117.395 44.5274 117.392 44.6738L117.392 44.8675C117.42 45.0249 117.495 45.1702 117.606 45.2851C117.718 45.4 117.86 45.4794 118.017 45.5133C118.173 45.5472 118.336 45.5341 118.485 45.4756C118.634 45.4171 118.762 45.3158 118.853 45.1845C119.66 44.0159 120.339 42.7643 120.878 41.4511C121.479 40.0408 121.951 38.579 122.287 37.0836C122.312 36.8857 122.262 36.6857 122.148 36.5221C122.034 36.3584 121.863 36.2426 121.669 36.1968C121.475 36.151 121.271 36.1785 121.096 36.2738C120.921 36.3692 120.787 36.5259 120.72 36.7138C120.401 38.0947 119.959 39.4444 119.399 40.7466Z" fill="white"/>
<path d="M125.985 33.9837C124.224 42.5249 121.177 48.7062 116.546 52.8271C111.895 56.7146 106.084 58.945 100.027 59.1669L98.7059 59.1669C96.2581 59.1669 93.9159 58.9908 91.7498 58.7795C89.3742 58.5729 87.0188 58.1784 84.7055 57.5995C82.7806 57.1687 80.9758 56.3145 79.4224 55.0988C78.6299 54.412 78.4714 53.9894 78.4714 53.7604C78.4714 53.5315 78.5947 53.3906 78.8236 53.2145C80.467 52.292 82.2525 51.6492 84.1068 51.3126C88.6793 50.1534 92.9651 48.0675 96.6984 45.1841C99.8064 42.8448 102.034 39.5252 103.021 35.7624C103.057 35.6224 103.065 35.4764 103.044 35.3333C103.022 35.1902 102.973 35.0528 102.897 34.9294C102.821 34.8061 102.721 34.6993 102.603 34.6155C102.486 34.5316 102.352 34.4725 102.21 34.4416C102.071 34.4047 101.926 34.3966 101.784 34.4178C101.642 34.439 101.505 34.489 101.383 34.5649C101.256 34.6398 101.146 34.7391 101.059 34.857C100.971 34.9749 100.907 35.1091 100.872 35.2517C99.9634 38.5211 97.9856 41.3918 95.2543 43.4054C91.7496 46.1103 87.7188 48.0537 83.42 49.1112C81.3 49.5183 79.2676 50.2931 77.4147 51.4006C77.2113 51.5529 77.0227 51.7239 76.8512 51.9113L76.8512 52.017C76.5616 52.3266 76.3503 52.701 76.2348 53.1088C76.179 53.2437 76.1434 53.3862 76.1292 53.5315C76.1119 53.6895 76.1119 53.849 76.1292 54.007L76.1292 54.3592L76.1292 55.68C76.2525 59.0436 76.3933 62.5129 78.9997 64.908C79.3519 65.2249 79.7217 65.5243 80.0739 65.8061L80.0739 66.1935C80.2088 67.5399 80.6945 68.8272 81.4828 69.927C82.6275 71.3887 88.0339 72.7623 98.4946 74.2592C96.5479 74.6507 94.6343 75.1924 92.7712 75.8794C90.5334 76.7363 88.41 77.866 86.449 79.243C81.7822 82.1664 78.9645 84.8608 77.8022 87.4671C76.6399 90.0735 77.3443 92.9793 80.1796 95.3567C80.2605 95.4276 80.3549 95.4812 80.4572 95.5144C80.5595 95.5476 80.6676 95.5596 80.7747 95.5497C80.8817 95.5398 80.9857 95.5083 81.0802 95.4569C81.1747 95.4056 81.2577 95.3355 81.3243 95.251C81.3929 95.1691 81.4446 95.0744 81.4764 94.9724C81.5082 94.8704 81.5195 94.7631 81.5097 94.6567C81.4999 94.5503 81.4691 94.4469 81.4191 94.3524C81.3692 94.258 81.301 94.1743 81.2186 94.1063C78.9821 92.222 78.3657 90.2672 79.3167 88.1187C79.6214 87.4486 80.0121 86.8211 80.479 86.252C80.18 86.9954 80.042 87.7936 80.0739 88.5942C80.158 89.4615 80.4438 90.297 80.9086 91.034C81.3735 91.771 82.0043 92.3889 82.7507 92.8384C86.0263 95.1806 91.8907 95.5328 96.5927 95.8322C98.0896 95.8322 99.4984 96.0083 100.59 96.1492C100.806 96.1742 101.024 96.1365 101.218 96.0408C101.412 95.9451 101.575 95.7953 101.687 95.6095C101.798 95.4236 101.854 95.2096 101.847 94.9929C101.84 94.7763 101.77 94.5663 101.647 94.3881C101.558 94.2717 101.447 94.1743 101.32 94.1017C101.193 94.0291 101.053 93.9827 100.907 93.9655C99.833 93.807 98.4418 93.7189 96.8569 93.6309L96.7336 93.6309C92.3133 93.3667 86.8012 93.0321 84.054 91.0597C83.5871 90.7985 83.1859 90.4344 82.8807 89.995C82.5756 89.5556 82.3746 89.0525 82.2929 88.5238C82.3476 87.384 82.7536 86.289 83.4552 85.3891C84.2254 84.2197 85.1629 83.1696 86.2377 82.272C86.2151 82.7541 86.2992 83.2351 86.4842 83.6809C86.8146 84.4507 87.3433 85.1191 88.0164 85.618C90.671 87.3125 93.6135 88.5062 96.6984 89.1401C96.751 89.1466 96.8042 89.1466 96.8569 89.1401C100.766 90.1968 105.187 91.0597 109.184 91.8346L111.861 92.3629C113.685 92.6378 115.358 93.5335 116.598 94.8988C117.245 95.7108 117.632 96.6989 117.708 97.7341C117.767 98.7658 117.529 99.7928 117.021 100.693C116.169 102.114 114.868 103.211 113.323 103.81C113.522 103.398 113.626 102.946 113.626 102.489C113.626 102.031 113.522 101.58 113.323 101.168C113.084 100.646 112.757 100.169 112.354 99.7593C111.845 99.2608 111.248 98.8607 110.593 98.5794L110.311 98.4209L109.783 98.2448C105.915 97.214 101.934 96.6698 97.9311 96.6247L97.7374 96.6247C96.1348 96.5366 94.726 96.4486 93.9159 96.3253C93.7646 96.2885 93.6073 96.2834 93.4539 96.3104C93.3006 96.3374 93.1545 96.3959 93.0249 96.4822C92.8952 96.5685 92.7849 96.6807 92.7008 96.8118C92.6167 96.9428 92.5607 97.0899 92.5363 97.2437C92.5119 97.3975 92.5196 97.5547 92.559 97.7054C92.5983 97.856 92.6685 97.9969 92.765 98.1191C92.8615 98.2413 92.9824 98.3421 93.1198 98.4153C93.2573 98.4885 93.4084 98.5324 93.5637 98.5442C94.3562 98.6675 95.5537 98.7555 96.9625 98.826C94.8533 99.4221 92.8248 100.274 90.9221 101.362C89.2966 102.194 87.991 103.538 87.2077 105.188C86.4244 106.837 86.2072 108.699 86.5898 110.484C87.2731 113.24 88.815 115.707 90.9925 117.528C93.1363 119.483 95.8813 120.651 98.7764 120.839C102.633 120.945 105.821 118.673 107.582 114.411C107.696 114.138 107.697 113.831 107.585 113.557C107.473 113.282 107.256 113.064 106.983 112.95C106.71 112.835 106.402 112.834 106.128 112.946C105.854 113.059 105.636 113.275 105.521 113.548C103.76 117.828 100.925 118.656 98.8821 118.603C96.558 118.419 94.3599 117.472 92.6303 115.908C90.8113 114.427 89.5252 112.393 88.9673 110.114C88.6736 108.786 88.8373 107.396 89.4318 106.172C90.0264 104.948 91.0169 103.96 92.2429 103.37C95.1438 101.77 98.3029 100.691 101.576 100.182C104.225 99.6612 106.962 99.8126 109.536 100.622C110.003 100.798 110.429 101.068 110.787 101.415C111 101.622 111.174 101.866 111.298 102.137C111.372 102.318 111.393 102.517 111.359 102.711C111.324 102.904 111.236 103.084 111.104 103.229C110.572 103.819 109.932 104.303 109.219 104.655C107.767 105.383 106.237 105.944 104.658 106.328C101.788 106.98 99.0758 107.526 97.2795 107.86C96.1943 108.026 95.1762 108.489 94.3386 109.199C93.8539 109.63 93.5464 110.226 93.4756 110.872C93.4186 111.492 93.5738 112.113 93.9159 112.633C94.5049 113.471 95.3248 114.119 96.2757 114.499C96.4125 114.556 96.5591 114.585 96.7072 114.585C96.8552 114.585 97.0019 114.556 97.1386 114.499C97.3432 114.413 97.5178 114.269 97.6407 114.084C97.7635 113.899 97.829 113.682 97.829 113.46C97.829 113.238 97.7635 113.022 97.6407 112.837C97.5178 112.652 97.3432 112.507 97.1386 112.421C96.5868 112.212 96.1047 111.852 95.7474 111.382C95.7091 111.339 95.68 111.289 95.6619 111.235C95.6437 111.18 95.6369 111.123 95.6417 111.065C95.6622 110.948 95.7248 110.841 95.8178 110.766C96.3283 110.367 96.9363 110.111 97.5789 110.026C100.643 109.428 103.25 108.882 105.557 108.353C108.246 107.774 110.898 107.033 113.499 106.134C115.725 105.395 117.604 103.866 118.782 101.837C119.513 100.554 119.85 99.0842 119.751 97.6109C119.646 96.1258 119.093 94.7073 118.166 93.5428C116.611 91.672 114.436 90.422 112.037 90.0207C111.438 89.8974 110.417 89.7037 109.36 89.4924C106.419 88.9112 103.109 88.2596 99.9739 87.52C102.104 86.7713 104.305 86.2403 106.543 85.935C108.547 85.6374 110.526 85.184 112.46 84.579C112.849 84.4462 113.231 84.2934 113.605 84.1211L113.728 84.1211C115.85 83.1127 117.663 81.5527 118.977 79.6041C120.29 77.6555 121.056 75.3899 121.195 73.0441C121.372 70.7225 120.778 68.4073 119.504 66.4583C118.23 64.5094 116.348 63.0357 114.15 62.2664C111.183 61.3657 108.122 60.8102 105.028 60.611L107.001 60.1707C111.084 59.1671 114.862 57.1846 118.007 54.3944C123.009 49.9389 126.337 43.3702 128.169 34.3183C128.198 34.1757 128.197 34.0285 128.167 33.8861C128.137 33.7436 128.077 33.609 127.992 33.4906C127.912 33.369 127.808 33.2643 127.688 33.1827C127.567 33.1012 127.431 33.0442 127.288 33.0151C127.138 32.9902 126.985 32.9957 126.838 33.0313C126.691 33.0669 126.552 33.1319 126.43 33.2223C126.309 33.3127 126.207 33.4268 126.13 33.5576C126.053 33.6884 126.004 33.8334 125.985 33.9837ZM114.626 80.4757C114.223 81.1997 113.609 81.7834 112.865 82.1487C112.55 82.2975 112.227 82.4269 111.896 82.5362C110.066 83.1107 108.194 83.5405 106.296 83.8217C102.971 84.1621 99.7493 85.1683 96.8217 86.7803C94.1731 86.2389 91.6437 85.2248 89.3547 83.7865C88.9916 83.5374 88.7001 83.1973 88.5094 82.8003C88.43 82.5542 88.43 82.2892 88.5094 82.0431C88.6087 81.6875 88.7828 81.3572 89.0201 81.0745C90.2524 79.7481 91.787 78.7391 93.4932 78.1335L93.7574 78.0279C98.8804 76.1789 104.331 75.4114 109.765 75.7737L109.994 75.7737C111.372 76.0067 112.658 76.6162 113.71 77.5348C114.204 77.946 114.581 78.4807 114.802 79.0845C114.917 79.5541 114.855 80.0497 114.626 80.4757ZM84.4766 60.2235C89.692 61.3855 94.9922 62.1275 100.326 62.4425C104.764 62.6232 109.169 63.2845 113.464 64.4149C115.244 65.018 116.777 66.1869 117.831 67.7433C118.819 69.3205 119.281 71.1701 119.152 73.0264C119.056 74.9531 118.448 76.8194 117.391 78.4329L117.074 78.8732L116.951 78.4329C116.598 77.4418 115.991 76.5611 115.19 75.8794C113.655 74.5732 111.767 73.7519 109.765 73.5195L108.568 73.3786C100.872 72.4277 84.864 70.4729 83.4376 68.659C83.1816 68.3188 82.9851 67.9378 82.8564 67.5319C83.8645 68.0122 84.9136 68.4012 85.9911 68.6942C89.2559 69.5407 92.6051 70.0192 95.9763 70.1207C96.2741 70.1304 96.564 70.0236 96.7843 69.823C97.0046 69.6224 97.138 69.3438 97.1562 69.0464C97.1657 68.8993 97.1458 68.7517 97.0976 68.6123C97.0494 68.4729 96.9739 68.3446 96.8756 68.2347C96.7772 68.1248 96.6579 68.0357 96.5247 67.9725C96.3914 67.9093 96.2469 67.8733 96.0996 67.8665C92.8964 67.7791 89.7128 67.3361 86.6075 66.5457C84.3582 65.9353 82.2912 64.787 80.5847 63.1997C79.1928 61.6526 78.4543 59.6266 78.5242 57.5467L78.8588 57.758C80.5957 58.8716 82.4976 59.7037 84.4942 60.2235L84.4766 60.2235Z" fill="white"/>
<path d="M25.2532 72.7451C25.1266 71.4175 25.429 70.0843 26.1161 68.9412C27.0655 67.8613 28.3486 67.1299 29.7615 66.8632C29.9673 66.8017 30.1412 66.6626 30.2464 66.4753C30.3515 66.288 30.3798 66.0671 30.3251 65.8594C30.258 65.6545 30.1208 65.4799 29.9376 65.3663C29.8376 65.3226 29.7297 65.3001 29.6206 65.3001C29.5115 65.3001 29.4036 65.3226 29.3036 65.3663C27.5502 65.7002 25.9647 66.6266 24.8129 67.9903C23.9134 69.4049 23.4992 71.0741 23.633 72.7451C23.6514 72.9445 23.7386 73.1313 23.8796 73.2734C23.9544 73.3522 24.0446 73.4147 24.1445 73.4571C24.2445 73.4995 24.3521 73.5209 24.4607 73.52C24.5667 73.5206 24.6716 73.499 24.7687 73.4565C24.8657 73.414 24.9528 73.3517 25.0243 73.2734C25.1613 73.1304 25.2426 72.9429 25.2532 72.7451Z" fill="white"/>
<path d="M50.294 117.616C52.4896 115.811 54.0356 113.337 54.6966 110.572C55.0746 108.789 54.8573 106.931 54.0779 105.283C53.2986 103.635 52.0002 102.289 50.382 101.45C48.471 100.383 46.4444 99.5381 44.3416 98.9315C45.7328 98.8435 46.9303 98.773 47.7404 98.6497C48.0345 98.5982 48.2962 98.4319 48.4679 98.1876C48.6396 97.9433 48.7073 97.6408 48.6562 97.3466C48.6386 97.2017 48.5902 97.0624 48.5143 96.9378C48.4383 96.8133 48.3366 96.7065 48.2159 96.6245C47.9707 96.4504 47.6689 96.375 47.3706 96.4132C46.5605 96.5541 45.1693 96.6245 43.5491 96.7126L43.3554 96.7126C39.3578 96.7477 35.381 97.2922 31.521 98.3327C31.3449 98.3327 31.1512 98.4384 30.9751 98.5089C30.8913 98.5341 30.8134 98.5761 30.7462 98.6321C30.0601 98.9195 29.4331 99.3315 28.8971 99.8473C28.4946 100.257 28.1669 100.734 27.9285 101.256C27.729 101.668 27.6254 102.119 27.6254 102.577C27.6254 103.034 27.729 103.486 27.9285 103.898C26.3834 103.299 25.082 102.202 24.2303 100.781C23.7228 99.881 23.4901 98.8524 23.561 97.822C23.6311 96.7885 24.0117 95.8003 24.6529 94.9867C25.8873 93.5525 27.5913 92.6038 29.4606 92.3099C30.5525 92.0986 31.3273 91.9401 32.1374 91.7816L32.2255 91.7816C36.1174 91.0243 40.5201 90.1438 44.412 89.1224C44.4647 89.1276 44.5178 89.1276 44.5705 89.1224C47.6616 88.4909 50.6104 87.2971 53.2702 85.6003C53.948 85.1064 54.4779 84.4365 54.8023 83.6631C54.9927 83.2186 55.0829 82.7376 55.0664 82.2543C56.1361 83.1451 57.0679 84.1896 57.8313 85.3537C58.5346 86.2609 58.946 87.3601 59.0112 88.506C58.9295 89.0347 58.7285 89.5378 58.4233 89.9772C58.1182 90.4166 57.717 90.7808 57.2502 91.042C54.5029 92.9967 49.0084 93.3489 44.5705 93.6131L44.4649 93.6131C42.8623 93.7012 41.471 93.7892 40.4144 93.9301C40.1182 93.9837 39.8502 94.1395 39.6571 94.3704C39.483 94.6156 39.4076 94.9174 39.4458 95.2157C39.4894 95.5092 39.647 95.7736 39.8844 95.9517C40.1218 96.1297 40.4198 96.207 40.7138 96.1666C41.8056 96.0258 43.2145 95.9377 44.7114 95.832C49.431 95.5503 55.2778 95.1981 58.5533 92.8558C59.3016 92.4085 59.934 91.7911 60.399 91.0537C60.8641 90.3163 61.1488 89.4797 61.2301 88.6117C61.2708 87.8048 61.1325 86.999 60.8251 86.2519C61.2939 86.8294 61.6902 87.4622 62.005 88.1362C62.956 90.2847 62.322 92.2395 60.0855 94.1238C59.923 94.2638 59.8212 94.4613 59.8015 94.6748C59.7818 94.8883 59.8457 95.1012 59.9798 95.2685C60.048 95.3535 60.1326 95.4239 60.2286 95.4754C60.3246 95.527 60.4299 95.5586 60.5385 95.5685C60.647 95.5784 60.7564 95.5663 60.8601 95.5329C60.9638 95.4995 61.0597 95.4455 61.1421 95.3742C63.9774 92.9967 64.7699 90.3375 63.5019 87.467C62.3572 84.8782 59.5219 82.1838 54.8727 79.2605C52.8437 77.8698 50.6412 76.7508 48.3216 75.9321C46.4644 75.2451 44.5567 74.7034 42.6157 74.3119C53.0588 72.815 58.4653 71.4413 59.6276 69.9797C60.4059 68.8746 60.8907 67.59 61.0364 66.2462L61.0364 65.8588C61.4063 65.577 61.7584 65.2776 62.1107 64.9606C64.717 62.5656 64.8579 59.0963 64.9988 55.7327L64.9988 55.6094L64.9988 54.4295L64.9988 54.1125C65.101 53.8279 65.101 53.5166 64.9988 53.232C64.8936 52.8006 64.6747 52.4053 64.3648 52.0873L64.3648 51.9816C64.1895 51.7981 64.0012 51.6274 63.8013 51.4709C61.947 50.3664 59.9151 49.5917 57.7961 49.1815C53.5253 48.1203 49.524 46.1767 46.0498 43.4757C43.3864 41.3972 41.4905 38.4914 40.661 35.2163C40.5903 34.9328 40.4138 34.6871 40.1679 34.5295C39.9827 34.4072 39.7647 34.3442 39.5428 34.3489C39.321 34.3537 39.1059 34.4258 38.9261 34.5559C38.7463 34.686 38.6104 34.8677 38.5365 35.0769C38.4626 35.2861 38.4542 35.5129 38.5125 35.727C39.5139 39.4782 41.7389 42.7878 44.8347 45.1311C48.564 48.0315 52.8592 50.1191 57.4439 51.2596C59.2963 51.6124 61.0801 52.2606 62.727 53.1791C62.818 53.2374 62.8951 53.3149 62.9529 53.4062C63.0107 53.4975 63.0478 53.6003 63.0616 53.7075C63.0616 53.954 62.9032 54.3767 62.1283 55.0635C60.5691 56.2698 58.7665 57.123 56.8451 57.5642C54.5329 58.1441 52.1768 58.5329 49.8009 58.7265C47.6171 58.9554 45.2925 59.0435 42.7566 59.1315L41.4887 59.1315C35.4201 58.929 29.5933 56.7037 24.9347 52.8093C20.3207 48.6708 17.2212 42.5071 15.4954 33.9484C15.436 33.6617 15.2657 33.4101 15.0215 33.2485C14.7774 33.0868 14.4793 33.0282 14.1922 33.0854C14.049 33.1136 13.9128 33.1702 13.7918 33.2518C13.6708 33.3335 13.5675 33.4386 13.4878 33.5609C13.3502 33.7554 13.2876 33.9931 13.3117 34.2301L13.3117 34.3886C15.0727 43.4405 18.454 49.9916 23.4554 54.4471C26.5815 57.2092 30.3265 59.1783 34.374 60.1882L36.3287 60.6108C33.2357 60.8205 30.1759 61.3758 27.2064 62.2662C24.9925 63.02 23.0911 64.4871 21.8004 66.4375C20.5097 68.3879 19.9026 70.7114 20.0741 73.0439C20.2129 75.3965 20.9828 77.6684 22.3029 79.6206C23.623 81.5729 25.4446 83.1336 27.5763 84.1386C27.9547 84.3182 28.3427 84.477 28.7386 84.6141C30.6837 85.2229 32.6741 85.6764 34.691 85.9701C36.9165 86.2777 39.1054 86.8087 41.2245 87.5551C38.0722 88.2947 34.6381 88.9639 31.8556 89.5274C30.7814 89.7388 29.76 89.9325 29.1612 90.0558C26.7595 90.4495 24.582 91.7009 23.0327 93.5779C22.1095 94.7355 21.5567 96.1446 21.4468 97.6212C21.3368 99.0978 21.6747 100.573 22.4164 101.855C23.6009 103.882 25.4767 105.414 27.6995 106.169C30.3052 107.051 32.9565 107.792 35.6419 108.388C37.9489 108.917 40.5553 109.463 43.6195 110.044C44.2653 110.129 44.8749 110.391 45.3806 110.801C45.4691 110.873 45.531 110.972 45.5567 111.083C45.5567 111.188 45.5567 111.294 45.451 111.417C45.1338 111.888 44.6959 112.265 44.1831 112.509C44.0456 112.569 43.9217 112.656 43.8188 112.765C43.7159 112.874 43.6361 113.003 43.5843 113.143C43.5276 113.28 43.4985 113.427 43.4985 113.575C43.4985 113.723 43.5276 113.869 43.5843 114.006C43.7048 114.274 43.9264 114.483 44.2007 114.587C44.3375 114.644 44.4841 114.673 44.6322 114.673C44.7802 114.673 44.9268 114.644 45.0636 114.587C46.0168 114.202 46.8369 113.547 47.4234 112.703C47.7655 112.183 47.9207 111.562 47.8637 110.942C47.7871 110.304 47.4803 109.715 47.0008 109.287C46.1694 108.567 45.1483 108.103 44.0598 107.948C41.2597 107.402 38.7766 106.909 36.6986 106.416C35.1182 106.038 33.5875 105.476 32.1374 104.743C31.4116 104.396 30.7644 103.905 30.2355 103.299C30.103 103.158 30.0142 102.981 29.9798 102.79C29.9454 102.6 29.967 102.403 30.0418 102.225C30.161 101.952 30.3348 101.706 30.5525 101.503C30.9107 101.156 31.3362 100.886 31.8028 100.71C34.3777 99.9027 37.1124 99.7454 39.7628 100.252C43.0837 100.75 46.2909 101.829 49.2373 103.44C50.4617 104.038 51.4509 105.029 52.0476 106.254C52.6443 107.48 52.8143 108.869 52.5305 110.202C51.9539 112.473 50.6713 114.502 48.8675 115.996C47.1367 117.566 44.9288 118.508 42.5981 118.673C40.5729 118.673 37.7552 117.898 35.9765 113.636C35.8507 113.378 35.631 113.178 35.3624 113.076C35.0938 112.975 34.7965 112.979 34.5312 113.089C34.266 113.2 34.0528 113.407 33.9352 113.669C33.8176 113.931 33.8045 114.228 33.8985 114.499C35.6595 118.743 38.7942 121.033 42.7038 120.927C45.5327 120.703 48.205 119.537 50.294 117.616ZM23.9837 78.3799C22.9179 76.764 22.3094 74.8897 22.2226 72.9559C22.094 71.1273 22.5571 69.3058 23.5434 67.7607C24.5944 66.2053 26.1203 65.0315 27.8933 64.4147C32.197 63.3006 36.6066 62.6454 41.0484 62.4599C46.3825 62.1459 51.6827 61.4039 56.8979 60.241C58.8604 59.7539 60.737 58.97 62.4629 57.9164L62.7799 57.6875C62.8482 59.7692 62.1173 61.7982 60.737 63.3581C59.0189 64.8718 56.9672 65.958 54.7494 66.528C51.6527 67.3345 48.4738 67.7836 45.2749 67.8664C45.1245 67.8701 44.9764 67.9049 44.8401 67.9685C44.7037 68.0321 44.5819 68.1233 44.4825 68.2362C44.3841 68.3458 44.3085 68.4738 44.2601 68.6129C44.2117 68.752 44.1915 68.8993 44.2007 69.0463C44.2189 69.3422 44.3529 69.619 44.5737 69.8168C44.7946 70.0146 45.0845 70.1174 45.3806 70.1029C48.7519 70.0162 52.1021 69.5435 55.3658 68.6941C56.4443 68.404 57.4936 68.0149 58.5005 67.5318C58.3791 67.9352 58.1819 68.3118 57.9193 68.6413C56.4929 70.4023 40.4848 72.4275 32.789 73.3785L31.6091 73.5194C29.6039 73.7464 27.7107 74.5613 26.1674 75.8616C25.3663 76.5433 24.7589 77.424 24.4064 78.4151L24.3007 78.873L23.9837 78.3799ZM34.9903 83.8216C33.0941 83.55 31.2218 83.132 29.3902 82.5713C29.0727 82.4647 28.7611 82.3413 28.4568 82.2014C27.7029 81.8092 27.088 81.1943 26.6958 80.4404C26.4797 80.009 26.4356 79.5117 26.5725 79.0491C26.7972 78.4423 27.173 77.9029 27.6643 77.4818C28.7212 76.5701 30.0053 75.9615 31.3802 75.7207C31.4563 75.7287 31.533 75.7287 31.6091 75.7207C37.0785 75.3481 42.5647 76.1404 47.7052 78.0453L47.987 78.151C49.6726 78.7572 51.1842 79.7669 52.3896 81.092C52.627 81.3747 52.8011 81.705 52.9003 82.0605C52.9798 82.3067 52.9798 82.5716 52.9003 82.8178C52.7003 83.2086 52.4106 83.5466 52.055 83.804C49.7623 85.2348 47.2343 86.2484 44.5881 86.7978C41.6207 85.1724 38.3568 84.1602 34.9903 83.8216Z" fill="white"/>
<path d="M19.0003 36.8901L19.0003 37.031C19.3476 38.5178 19.8188 39.9728 20.4091 41.3808C20.956 42.6963 21.6345 43.953 22.4343 45.1319C22.4942 45.2204 22.5713 45.2959 22.661 45.3538C22.7508 45.4117 22.8513 45.4509 22.9566 45.469C23.0619 45.4871 23.1697 45.4837 23.2736 45.4591C23.3776 45.4344 23.4755 45.389 23.5614 45.3256C23.6489 45.2676 23.7236 45.1924 23.7811 45.1046C23.8387 45.0168 23.8777 44.9183 23.896 44.8149C23.9161 44.7119 23.9156 44.6059 23.8945 44.5032C23.8733 44.4004 23.8319 44.3028 23.7728 44.2161C23.0297 43.1073 22.3985 41.9275 21.8884 40.694C21.3359 39.3666 20.8999 37.9937 20.5852 36.5907C20.5473 36.3851 20.4312 36.2021 20.2614 36.08C20.0915 35.958 19.8811 35.9063 19.674 35.9359C19.467 35.9655 19.2794 36.074 19.1506 36.2387C19.0217 36.4034 18.9615 36.6116 18.9827 36.8197L19.0003 36.8901Z" fill="white"/>
</svg>
