<svg width="141" height="141" viewBox="0 0 141 141" fill="none" xmlns="http://www.w3.org/2000/svg">
<path d="M70.1142 140.228C108.837 140.228 140.228 108.837 140.228 70.1142C140.228 31.3912 108.837 0 70.1142 0C31.3912 0 0 31.3912 0 70.1142C0 108.837 31.3912 140.228 70.1142 140.228Z" fill="#665E5B"/>
<path d="M98.8295 101.975C98.7973 102.101 98.7908 102.233 98.8104 102.361C98.83 102.49 98.8753 102.613 98.9436 102.724C99.012 102.835 99.1019 102.931 99.2081 103.006C99.3143 103.082 99.4346 103.135 99.5617 103.163C99.8159 103.217 100.081 103.171 100.302 103.035C100.523 102.898 100.684 102.682 100.749 102.43C101.303 99.4438 102.361 96.5732 103.876 93.9406C105 92.2985 106.668 91.1068 108.586 90.5764C110.254 90.1416 111.955 89.8438 113.672 89.6859C119.47 88.9734 126.377 88.1225 126.792 81.9284V81.7305C126.792 81.1566 126.614 80.5827 126.535 80.0088C126.08 77.2185 125.684 74.7052 127.267 72.093C128.153 70.7079 128.595 69.0854 128.534 67.4425C128.237 65.9385 126.812 65.2656 125.545 63.4846C123.983 61.247 123.166 58.5742 123.21 55.8458C123.138 54.1012 122.913 52.3662 122.537 50.661C121.873 47.7638 120.722 45.0003 119.134 42.4879C116.083 37.6745 111.536 33.9964 106.191 32.0193C100.966 30.0651 95.2805 29.6935 89.8451 30.9506C86.9007 31.643 84.0919 32.82 81.5335 34.4336C77.1119 37.4331 73.589 41.5785 71.3419 46.426C68.8875 51.5672 66.9005 56.9187 65.405 62.4159C63.7507 68.5699 60.0255 73.9655 54.8572 77.6934C51.9654 79.703 48.6594 81.0378 45.183 81.5996C41.7066 82.1613 38.1484 81.9355 34.7709 80.9389C29.3283 79.2756 24.6294 75.7793 21.4723 71.0441C18.6375 67.0008 17.2436 62.1222 17.5144 57.1915C17.7887 53.4766 19.023 49.8966 21.0963 46.802C22.9558 43.8143 25.733 41.5092 29.0121 40.2319C32.3312 39.041 35.9528 38.9922 39.3027 40.0934C41.8691 40.8504 44.0758 42.5089 45.5166 44.7637C46.1106 45.5878 46.523 46.5286 46.7266 47.5239C46.9302 48.5192 46.9204 49.5463 46.6979 50.5375C46.4753 51.5287 46.0451 52.4615 45.4355 53.2742C44.8259 54.0869 44.0509 54.761 43.1616 55.2521C42.9437 55.3907 42.7885 55.6091 42.7293 55.8605C42.6702 56.1119 42.7117 56.3766 42.845 56.5978C42.9121 56.7101 43.0008 56.8079 43.1059 56.8856C43.2111 56.9634 43.3306 57.0195 43.4576 57.0508C43.5846 57.0821 43.7165 57.0879 43.8457 57.0679C43.9749 57.0479 44.0989 57.0025 44.2105 56.9342C45.3219 56.3089 46.2898 55.4575 47.0519 54.435C47.8139 53.4125 48.3531 52.2416 48.6347 50.9978C48.9163 49.754 48.9339 48.465 48.6866 47.214C48.4393 45.963 47.9324 44.7777 47.1987 43.7346C45.5105 41.061 42.9083 39.0918 39.8766 38.1936C36.1115 36.9665 32.0449 37.0292 28.3195 38.3717C24.6574 39.8117 21.5512 42.3841 19.4538 45.7136C17.2474 49.1739 15.9852 53.1515 15.7927 57.2509C15.481 62.5784 16.9729 67.8557 20.0277 72.2315C23.4523 77.3163 28.5272 81.063 34.3949 82.8387C38.0279 83.9107 41.854 84.1609 45.5957 83.5709C49.3907 82.9557 53.0008 81.5022 56.1633 79.3162C61.7108 75.334 65.7157 69.5609 67.5027 62.97C68.9445 57.595 70.872 52.3623 73.2615 47.3363C75.3596 42.8089 78.6414 38.9322 82.7604 36.1157C85.097 34.6263 87.6652 33.5362 90.3596 32.89C95.4193 31.7167 100.713 32.0609 105.578 33.8795C109.934 35.4882 113.733 38.3191 116.521 42.0327C115.12 48.8411 111.667 55.0568 106.627 59.8433C101.503 64.3678 95.0695 67.1407 88.2619 67.7591C88.0009 67.7937 87.7638 67.929 87.6011 68.136C87.4384 68.3431 87.3631 68.6055 87.3912 68.8673C87.421 69.1267 87.5522 69.3638 87.7561 69.5269C87.9599 69.69 88.22 69.7659 88.4796 69.738C90.1408 69.5369 91.7869 69.2261 93.4072 68.8079C92.6456 71.4724 91.5693 74.0367 90.2013 76.4467C84.4527 85.8581 75.8784 93.2135 65.7019 97.4632C53.8282 102.688 38.1549 104.944 26.3999 98.2943C26.173 98.1824 25.9118 98.1617 25.67 98.2364C25.4283 98.3112 25.2243 98.4757 25.1002 98.6962C24.976 98.9167 24.941 99.1763 25.0024 99.4218C25.0638 99.6673 25.2169 99.8799 25.4302 100.016C37.7591 106.982 54.0657 104.765 66.5133 99.2838C77.0568 94.8725 85.9461 87.2571 91.923 77.5153C93.5602 74.6261 94.8047 71.5315 95.6236 68.3132C100.224 66.9326 104.457 64.5388 108.012 61.3077C112.852 56.7154 116.284 50.8396 117.907 44.3679C119.129 46.4313 120.036 48.6658 120.598 50.9974C120.965 52.6027 121.177 54.2395 121.231 55.8854C121.232 58.9679 122.201 61.9723 124.002 64.474C125.367 66.453 127.148 66.829 126.555 68.9267C126.338 69.6572 126.039 70.3609 125.664 71.0244C123.685 74.2501 124.18 77.0997 124.675 80.2859C124.675 80.7806 124.833 81.2951 124.912 81.8492C124.536 86.3216 118.56 87.0736 113.533 87.7861C111.694 87.951 109.874 88.2755 108.091 88.7558C105.712 89.3659 103.632 90.8132 102.233 92.8324C100.583 95.6625 99.432 98.7551 98.8295 101.975ZM50.9587 72.0336C51.0666 71.962 51.1591 71.8695 51.2307 71.7616C51.3023 71.6536 51.3515 71.5325 51.3755 71.4052C51.3995 71.2779 51.3977 71.1471 51.3703 71.0205C51.3429 70.8939 51.2904 70.7741 51.216 70.6682C51.1425 70.5596 51.0482 70.4667 50.9385 70.3949C50.8289 70.3231 50.706 70.2738 50.5771 70.2498C50.4482 70.2259 50.3159 70.2278 50.1878 70.2554C50.0596 70.2831 49.9382 70.3359 49.8307 70.4109C47.9441 71.7367 45.7906 72.6343 43.5209 73.0411C41.2512 73.4479 38.9201 73.3539 36.6905 72.7658C32.2722 71.4281 28.476 68.5581 25.9843 64.6719C25.5167 64.0041 25.0873 63.3104 24.698 62.594C24.5694 62.3631 24.3544 62.1927 24.1002 62.1203C23.8459 62.048 23.5734 62.0796 23.3424 62.2081C23.1115 62.3367 22.9411 62.5518 22.8687 62.806C22.7964 63.0602 22.828 63.3328 22.9565 63.5637C23.3919 64.3355 23.8669 65.0875 24.3418 65.7801C27.0979 70.0777 31.3151 73.2336 36.2155 74.6656C38.7243 75.3364 41.3502 75.4447 43.9056 74.9829C46.4611 74.5211 48.883 73.5005 50.9983 71.994L50.9587 72.0336ZM44.8437 109.911C44.7147 109.908 44.5865 109.931 44.4666 109.979C44.3466 110.026 44.2374 110.097 44.1452 110.188C44.0531 110.278 43.9799 110.386 43.9299 110.505C43.88 110.624 43.8542 110.751 43.8543 110.88C43.8516 111.01 43.8746 111.14 43.922 111.261C43.9693 111.382 44.04 111.492 44.13 111.586C44.2201 111.68 44.3277 111.755 44.4468 111.807C44.5658 111.859 44.694 111.887 44.824 111.89C55.5771 112.161 66.222 109.689 75.755 104.706C84.3757 99.9371 91.2937 92.5971 95.5445 83.7094C95.6599 83.4733 95.6768 83.2009 95.5915 82.9522C95.5061 82.7036 95.3255 82.499 95.0893 82.3835C94.8531 82.2681 94.5807 82.2512 94.3321 82.3365C94.0834 82.4219 93.8789 82.6025 93.7634 82.8387C89.6958 91.3592 83.0675 98.3957 74.8051 102.965C65.5735 107.796 55.2597 110.188 44.8437 109.911ZM103.619 57.7852C103.721 57.7027 103.806 57.6007 103.868 57.4851C103.931 57.3694 103.97 57.2425 103.983 57.1117C103.995 56.9809 103.982 56.8489 103.943 56.7232C103.905 56.5976 103.841 56.481 103.757 56.3801C103.591 56.1792 103.352 56.052 103.093 56.026C102.834 56.0001 102.574 56.0776 102.372 56.2416C95.6309 61.3129 87.3512 63.9121 78.9213 63.6033C78.7913 63.598 78.6616 63.6184 78.5395 63.6633C78.4174 63.7081 78.3054 63.7767 78.2098 63.8649C78.1142 63.9531 78.037 64.0593 77.9825 64.1774C77.928 64.2955 77.8973 64.4232 77.8922 64.5532C77.8869 64.6832 77.9073 64.8129 77.9522 64.935C77.9971 65.0571 78.0656 65.1691 78.1538 65.2647C78.242 65.3603 78.3482 65.4375 78.4663 65.492C78.5845 65.5465 78.7122 65.5772 78.8421 65.5823C87.7516 65.908 96.5013 63.1544 103.619 57.7852ZM117.649 63.722C117.813 63.5194 117.891 63.2603 117.865 63.0009C117.839 62.7415 117.712 62.5029 117.511 62.3368C117.41 62.2525 117.293 62.1891 117.168 62.1504C117.042 62.1117 116.91 62.0984 116.779 62.1113C116.648 62.1242 116.522 62.1631 116.406 62.2256C116.29 62.288 116.188 62.3729 116.106 62.4753C115.336 63.214 114.352 63.6917 113.296 63.8408C112.201 64.0866 111.058 64.004 110.011 63.6033C109.784 63.5173 109.534 63.5173 109.308 63.6033C109.081 63.6893 108.894 63.8553 108.782 64.0699C108.67 64.2845 108.641 64.5328 108.699 64.7677C108.758 65.0027 108.9 65.208 109.1 65.3448C110.532 65.9707 112.127 66.1232 113.652 65.7801C115.154 65.5782 116.547 64.882 117.61 63.8012L117.649 63.722ZM13.1805 73.8938C13.095 73.6483 12.9163 73.4463 12.683 73.3314C12.4497 73.2166 12.1805 73.1983 11.9338 73.2804C11.6877 73.3662 11.4843 73.5439 11.3663 73.7763C11.2482 74.0087 11.2247 74.2777 11.3005 74.5271C13.584 80.8185 18.022 86.0978 23.8273 89.4286C28.8426 92.4137 34.4304 94.3089 40.2268 94.9909C46.0232 95.6728 51.8983 95.1261 57.4695 93.3865C63.5277 91.4688 68.7095 87.4649 72.0939 82.0867C72.1621 81.9751 72.2076 81.8511 72.2276 81.7219C72.2476 81.5927 72.2418 81.4608 72.2105 81.3338C72.1792 81.2068 72.1231 81.0873 72.0453 80.9822C71.9675 80.877 71.8697 80.7883 71.7575 80.7212C71.6474 80.6535 71.525 80.6084 71.3973 80.5886C71.2696 80.5688 71.1392 80.5748 71.0138 80.6062C70.8885 80.6375 70.7706 80.6936 70.6672 80.7711C70.5638 80.8487 70.477 80.9461 70.4118 81.0576C67.212 86.0161 62.3609 89.6824 56.7174 91.4076C51.425 93.0745 45.8412 93.61 40.3284 92.9793C34.8156 92.3486 29.497 90.5657 24.7178 87.7465C19.3211 84.6472 15.1929 79.7409 13.0618 73.8938H13.1805Z" fill="white" stroke="white" stroke-width="0.494738" stroke-miterlimit="10"/>
</svg>
