<svg width="141" height="141" viewBox="0 0 141 141" fill="none" xmlns="http://www.w3.org/2000/svg">
<path d="M70.1142 140.228C108.837 140.228 140.228 108.837 140.228 70.1142C140.228 31.3912 108.837 0 70.1142 0C31.3912 0 0 31.3912 0 70.1142C0 108.837 31.3912 140.228 70.1142 140.228Z" fill="#665E5B"/>
<path d="M36.1162 100.709C36.1189 100.223 36.172 99.739 36.2746 99.2642C37.3036 94.2574 38.5108 89.3694 39.8366 84.8574L42.4885 73.3003C44.8688 62.9748 49.282 53.2269 55.4704 44.6254L54.2038 41.0039C53.7571 39.7666 53.6828 38.4255 53.9902 37.1464C54.2976 35.8674 54.9732 34.7065 55.9334 33.8073C56.8936 32.9082 58.0963 32.3102 59.3928 32.0874C60.6893 31.8646 62.0226 32.0268 63.2279 32.5538L63.4653 32.6527C63.9064 32.8312 64.3862 32.8922 64.858 32.8298C65.3297 32.7673 65.7772 32.5836 66.1567 32.2965L68.1356 30.8123C69.2833 29.9699 70.6698 29.5156 72.0935 29.5156C73.5172 29.5156 74.9037 29.9699 76.0514 30.8123L78.2085 32.3954C78.5918 32.6674 79.0372 32.8389 79.504 32.8942C79.9707 32.9495 80.4438 32.8869 80.8801 32.7121C82.0817 32.1994 83.4066 32.0476 84.693 32.2753C85.9795 32.503 87.1718 33.1002 88.1245 33.9942C89.0772 34.8881 89.7491 36.04 90.0581 37.3094C90.3671 38.5788 90.2998 39.9106 89.8646 41.1424L88.598 44.7243C94.7895 53.307 99.197 63.0441 101.56 73.3597L104.251 85.0355C105.558 89.4882 106.745 94.3168 107.794 99.3235C107.991 100.353 107.96 101.413 107.702 102.429C107.444 103.444 106.965 104.391 106.301 105.201C105.636 106.011 104.801 106.665 103.855 107.117C102.909 107.568 101.876 107.806 100.828 107.813H43.2602C42.1993 107.812 41.1519 107.576 40.1937 107.12C39.2354 106.665 38.3903 106.003 37.7192 105.181C36.686 103.919 36.1198 102.34 36.1162 100.709ZM58.8346 46.8022C52.8853 55.0088 48.6516 64.3307 46.387 74.2107L43.6956 85.8271C42.3697 90.3985 41.2021 95.148 40.1928 100.036C40.0965 100.485 40.1034 100.95 40.2131 101.395C40.3228 101.841 40.5325 102.256 40.8261 102.609C41.1159 102.976 41.486 103.272 41.9079 103.475C42.3298 103.677 42.7923 103.78 43.2602 103.776H100.828C101.298 103.777 101.763 103.673 102.187 103.471C102.612 103.269 102.986 102.974 103.282 102.609C103.575 102.256 103.785 101.841 103.895 101.395C104.004 100.95 104.011 100.485 103.915 100.036C102.906 95.148 101.718 90.3985 100.432 85.9261L97.7011 74.1711C95.4284 64.2179 91.1528 54.8317 85.1349 46.5845C85.0033 46.4858 84.8895 46.3653 84.7985 46.2283C84.6055 45.9715 84.4746 45.6734 84.4162 45.3575C84.3578 45.0416 84.3735 44.7165 84.462 44.4077L86.1243 39.7176C86.2875 39.2193 86.3038 38.6846 86.1712 38.1773C86.0386 37.67 85.7628 37.2117 85.3768 36.8569C84.9907 36.5022 84.5107 36.266 83.994 36.1767C83.4774 36.0874 82.9459 36.1487 82.4632 36.3533C81.3934 36.8079 80.2241 36.9776 79.0692 36.8458C77.9144 36.714 76.8133 36.2852 75.8734 35.6013L73.6965 34.0182C73.2279 33.6681 72.6586 33.4789 72.0737 33.4789C71.4888 33.4789 70.9197 33.6681 70.4511 34.0182L68.4721 35.5222C67.5334 36.2225 66.4291 36.6672 65.2671 36.8129C64.1051 36.9585 62.9251 36.8002 61.8426 36.3533L61.6051 36.2544C61.1164 36.0506 60.5789 35.9932 60.0582 36.0894C59.5375 36.1855 59.0559 36.4309 58.6722 36.7958C58.2884 37.1607 58.019 37.6293 57.8967 38.1445C57.7745 38.6597 57.8047 39.1994 57.9836 39.6978L59.6658 44.467C59.7734 44.7687 59.8062 45.0919 59.7614 45.409C59.7166 45.7262 59.5955 46.0277 59.4085 46.2877C59.257 46.499 59.0612 46.6746 58.8346 46.8022Z" fill="white" stroke="#665E5B" stroke-width="0.494738" stroke-miterlimit="10"/>
<path d="M36.4137 42.9629C37.758 42.9629 38.8478 41.8732 38.8478 40.5288C38.8478 39.1845 37.758 38.0947 36.4137 38.0947C35.0694 38.0947 33.9795 39.1845 33.9795 40.5288C33.9795 41.8732 35.0694 42.9629 36.4137 42.9629Z" fill="white"/>
<path d="M33.2667 40.5286C33.2627 39.9055 33.444 39.2952 33.7874 38.7751C34.1307 38.2551 34.6208 37.8487 35.1954 37.6075C35.77 37.3664 36.4032 37.3012 37.0149 37.4204C37.6265 37.5395 38.1891 37.8376 38.6311 38.2769C39.0731 38.7162 39.3747 39.2768 39.4977 39.8877C39.6208 40.4986 39.5597 41.1322 39.3221 41.7083C39.0846 42.2845 38.6813 42.777 38.1634 43.1237C37.6456 43.4703 37.0364 43.6554 36.4132 43.6554C35.5822 43.6554 34.7848 43.3266 34.1953 42.7408C33.6057 42.155 33.2719 41.3597 33.2667 40.5286ZM38.1349 40.5286C38.1388 40.1825 38.0395 39.8431 37.8496 39.5537C37.6598 39.2643 37.3881 39.0381 37.0691 38.9038C36.7501 38.7696 36.3983 38.7334 36.0586 38.8C35.719 38.8665 35.4069 39.0328 35.1622 39.2775C34.9174 39.5223 34.7511 39.8344 34.6846 40.174C34.618 40.5137 34.6542 40.8655 34.7884 41.1845C34.9227 41.5035 35.149 41.7752 35.4384 41.9651C35.7278 42.1549 36.0672 42.2542 36.4132 42.2503C36.8699 42.2503 37.3078 42.0689 37.6306 41.746C37.9535 41.4232 38.1349 40.9852 38.1349 40.5286Z" fill="white"/>
<path d="M103.838 42.9629C105.182 42.9629 106.272 41.8732 106.272 40.5288C106.272 39.1845 105.182 38.0947 103.838 38.0947C102.493 38.0947 101.403 39.1845 101.403 40.5288C101.403 41.8732 102.493 42.9629 103.838 42.9629Z" fill="white"/>
<path d="M100.709 40.5286C100.705 39.9046 100.887 39.2935 101.231 38.773C101.575 38.2526 102.066 37.8462 102.642 37.6056C103.218 37.365 103.852 37.301 104.465 37.4218C105.077 37.5426 105.639 37.8427 106.081 38.2839C106.522 38.7251 106.822 39.2876 106.943 39.8998C107.063 40.512 106.999 41.1463 106.759 41.7221C106.518 42.2978 106.112 42.789 105.591 43.1333C105.071 43.4775 104.46 43.6592 103.836 43.6553C103.008 43.6501 102.216 43.319 101.631 42.7338C101.045 42.1485 100.714 41.3562 100.709 40.5286ZM105.557 40.5286C105.557 40.188 105.457 39.8552 105.267 39.572C105.078 39.2889 104.809 39.0682 104.495 38.9379C104.18 38.8076 103.834 38.7735 103.5 38.84C103.166 38.9064 102.859 39.0704 102.618 39.3111C102.378 39.5519 102.214 39.8587 102.147 40.1927C102.081 40.5267 102.115 40.8728 102.245 41.1874C102.376 41.502 102.596 41.7709 102.879 41.9601C103.162 42.1493 103.495 42.2502 103.836 42.2502C104.292 42.2502 104.73 42.0689 105.053 41.746C105.376 41.4231 105.557 40.9852 105.557 40.5286Z" fill="white"/>
<path d="M72.114 91.2493C79.087 91.2493 84.7397 85.189 84.7397 77.7133C84.7397 70.2375 79.087 64.1772 72.114 64.1772C65.141 64.1772 59.4883 70.2375 59.4883 77.7133C59.4883 85.189 65.141 91.2493 72.114 91.2493Z" fill="#939393"/>
<path d="M72.0348 61.1694C75.3891 61.1694 78.6681 62.1641 81.4571 64.0276C84.246 65.8912 86.4198 68.5399 87.7035 71.6389C88.9871 74.7378 89.3229 78.1478 88.6686 81.4377C88.0142 84.7275 86.3989 87.7495 84.027 90.1213C81.6552 92.4931 78.6333 94.1084 75.3435 94.7628C72.0537 95.4172 68.6436 95.0813 65.5446 93.7977C62.4457 92.514 59.7969 90.3403 57.9333 87.5513C56.0698 84.7623 55.0752 81.4833 55.0752 78.129C55.0752 73.6311 56.862 69.3173 60.0425 66.1368C63.223 62.9562 67.5368 61.1694 72.0348 61.1694ZM80.4057 73.0431C80.5912 72.8592 80.7384 72.6403 80.8389 72.3991C80.9393 72.158 80.9911 71.8993 80.9911 71.6381C80.9911 71.3768 80.9393 71.1182 80.8389 70.877C80.7384 70.6359 80.5912 70.417 80.4057 70.233C80.2214 70.0445 80.0013 69.8948 79.7583 69.7925C79.5153 69.6903 79.2545 69.6376 78.9909 69.6376C78.7272 69.6376 78.4662 69.6903 78.2233 69.7925C77.9803 69.8948 77.7602 70.0445 77.5759 70.233L72.3119 75.497H71.9161L66.652 70.233C66.4677 70.0445 66.2477 69.8948 66.0047 69.7925C65.7617 69.6903 65.5007 69.6376 65.2371 69.6376C64.9735 69.6376 64.7125 69.6903 64.4695 69.7925C64.2266 69.8948 64.0064 70.0445 63.8221 70.233C63.6366 70.417 63.4895 70.6359 63.389 70.877C63.2885 71.1182 63.2368 71.3768 63.2368 71.6381C63.2368 71.8993 63.2885 72.158 63.389 72.3991C63.4895 72.6403 63.6366 72.8592 63.8221 73.0431L70.0757 79.2966V88.2415C70.0757 88.7663 70.2841 89.2697 70.6552 89.6408C71.0263 90.0119 71.5298 90.2204 72.0546 90.2204C72.5795 90.2204 73.0828 90.0119 73.4539 89.6408C73.8251 89.2697 74.0336 88.7663 74.0336 88.2415V79.3758L80.4057 73.0431Z" fill="white"/>
<path d="M34.6709 39.8164C60.2983 51.136 98.7295 45.12 105.557 39.8164" stroke="white" stroke-width="2.96843" stroke-miterlimit="10"/>
</svg>
