<svg width="278" height="58" viewBox="0 0 278 58" fill="none" xmlns="http://www.w3.org/2000/svg">
<path d="M276.224 2.70508H267.873V34.2038H276.224V2.70508Z" fill="white"/>
<path fill-rule="evenodd" clip-rule="evenodd" d="M14.954 5.99439C11.1128 6.44759 7.57518 7.4484 5.43172 9.62941C3.28825 11.8104 2.57692 15.1244 2.40621 18.7406C2.32085 20.5439 2.37775 22.4134 2.45363 24.2356C2.4726 24.6133 2.48208 24.9909 2.50105 25.3592C2.56744 26.7754 2.62435 28.1539 2.62435 29.4191C2.62435 34.121 3.99009 38.7191 6.56036 42.6279C6.73107 42.8828 6.90179 43.1566 7.09148 43.4304C8.30548 45.2904 9.78504 47.547 11.4258 49.6147C13.3132 51.994 15.3903 54.0523 17.4863 54.9398C21.7543 56.7431 26.4585 57.2058 30.9921 56.2899C35.5256 55.3741 39.6892 53.1081 42.9613 49.7847C44.6021 48.1135 46.6602 45.7625 48.4148 43.251C50.1789 40.7301 51.6111 38.0865 52.0568 35.811C52.5026 33.5167 52.5121 30.2877 52.1801 27.0681C51.8482 23.8579 51.1843 20.6856 50.3022 18.5234C49.4391 16.4085 47.6181 14.8601 45.4842 13.5005C44.5073 12.8773 43.4735 12.3014 42.4492 11.7255C42.3543 11.6688 42.2595 11.6216 42.1741 11.5744C41.0645 10.9512 39.9643 10.3281 38.9779 9.66718C35.1272 7.06129 30.6032 5.66393 25.9843 5.66393C25.4627 5.66393 24.9316 5.66393 24.3625 5.65449C21.5172 5.63561 18.1597 5.62616 14.954 5.99439ZM24.3815 5.10687C24.941 5.10687 25.4722 5.11632 25.9843 5.11632C30.717 5.11632 35.3359 6.542 39.2719 9.21398C40.2298 9.86545 41.3111 10.4792 42.4207 11.1023C42.5156 11.159 42.6104 11.2062 42.6958 11.2534C43.7201 11.8293 44.7634 12.4053 45.7497 13.0378C47.9027 14.4069 49.847 16.0308 50.7764 18.3157C51.6869 20.5439 52.3603 23.773 52.6923 27.0114C53.0242 30.2499 53.0242 33.5451 52.5595 35.9149C52.0948 38.3036 50.5962 41.0323 48.8227 43.5721C47.0491 46.1119 44.972 48.4912 43.3122 50.1812C39.9643 53.5802 35.7058 55.9028 31.0679 56.8376C26.4301 57.7723 21.6215 57.2907 17.2492 55.4496C15.0204 54.5149 12.8769 52.3528 10.9801 49.964C9.33927 47.8869 7.84074 45.602 6.62675 43.742C6.44654 43.4682 6.26634 43.1944 6.10511 42.9395C3.47794 38.9362 2.07425 34.2343 2.07425 29.4285C2.07425 28.1728 2.01735 26.8132 1.95096 25.3969C1.93199 25.0193 1.9225 24.6416 1.90354 24.2639C1.82766 22.4417 1.77075 20.5534 1.85611 18.7217C2.02683 15.0678 2.74764 11.5744 5.04286 9.24231C7.32859 6.91967 11.0275 5.89997 14.8876 5.44677C18.1313 5.06911 21.5267 5.08799 24.3815 5.10687Z" fill="white"/>
<path d="M26.4007 57.3656C23.2708 57.3656 20.1694 56.7425 17.2388 55.5056C15.2945 54.6937 13.2364 52.8903 10.9411 50.0012C9.28138 47.9146 7.78285 45.6203 6.57833 43.7791C6.39813 43.4959 6.21793 43.2315 6.04721 42.9766C3.40107 38.9545 2.00687 34.2714 2.00687 29.4279C2.00687 28.1721 1.94996 26.822 1.88357 25.3963L1.87409 25.1319C1.86461 24.8392 1.84564 24.556 1.83615 24.2539C1.76028 22.4599 1.70337 20.5527 1.78873 18.7116C1.99739 14.2268 3.01221 11.2055 4.99444 9.18502C6.98616 7.16451 10.2203 5.91821 14.8866 5.3706C18.1303 4.99294 21.5921 5.01182 24.3805 5.0307H24.4374C24.978 5.0307 25.4902 5.0307 25.9928 5.04014C30.754 5.04014 35.3539 6.45639 39.3184 9.14725C40.2668 9.79872 41.348 10.403 42.4672 11.0261L42.7422 11.1772C43.7665 11.7437 44.8098 12.3385 45.8057 12.9617C47.6267 14.123 49.8365 15.7658 50.8608 18.2679C51.7334 20.4017 52.4352 23.5835 52.7861 26.9825C53.1371 30.4098 53.0896 33.6672 52.6534 35.9143C52.2361 38.0481 50.9746 40.6351 48.907 43.5903C47.3706 45.7902 45.3599 48.1978 43.3871 50.2089C40.0202 53.6268 35.7807 55.94 31.1049 56.8841C29.54 57.2146 27.9656 57.3656 26.4007 57.3656ZM22.5785 5.16288C20.1789 5.16288 17.4664 5.21009 14.8961 5.51223C10.2678 6.05984 7.06204 7.28725 5.08929 9.28888C3.13551 11.2811 2.13017 14.2741 1.92151 18.7211C1.83615 20.5527 1.89306 22.4694 1.96893 24.2539C1.97842 24.5465 1.99739 24.8392 2.00687 25.1319L2.01636 25.3963C2.08275 26.822 2.13965 28.1721 2.13965 29.4279C2.13965 34.2431 3.53385 38.8978 6.16102 42.9011C6.33174 43.156 6.50246 43.4204 6.68266 43.7036C7.88718 45.5542 9.38571 47.8485 11.0455 49.9256C13.3312 52.7959 15.3703 54.5804 17.2862 55.3923C21.6585 57.2335 26.4196 57.715 31.067 56.7708C35.7048 55.8361 39.9348 53.5323 43.2733 50.1334C45.2366 48.1317 47.2473 45.7336 48.7837 43.5337C50.8419 40.5879 52.0938 38.0292 52.5016 35.9048C52.9379 33.6766 52.9853 30.4381 52.6344 27.0203C52.2835 23.6307 51.5911 20.4678 50.7186 18.3434C49.7132 15.8791 47.5223 14.2457 45.7203 13.1033C44.7339 12.4707 43.6812 11.8853 42.6663 11.3188L42.3818 11.1583C41.2626 10.5352 40.1814 9.91202 39.2235 9.26999C35.2875 6.59801 30.7066 5.18177 25.9739 5.18177C25.4712 5.18177 24.959 5.18177 24.4184 5.17233H24.3615C23.8019 5.17233 23.2044 5.16288 22.5785 5.16288ZM26.4007 56.818C23.3467 56.818 20.3117 56.2043 17.4474 55.0052C15.5885 54.2216 13.6062 52.4749 11.3679 49.6613C9.72714 47.5936 8.22861 45.3087 7.03358 43.477L6.86286 43.2126C6.73957 43.0238 6.62576 42.8539 6.51194 42.6745C3.9322 38.7373 2.56645 34.1581 2.56645 29.4279C2.56645 28.1721 2.50954 26.822 2.44315 25.3869L2.43367 25.1414C2.42418 24.8392 2.40521 24.5371 2.39573 24.235C2.31985 22.4599 2.26295 20.5716 2.34831 18.7399C2.54748 14.4062 3.51488 11.4888 5.39279 9.58157C7.28966 7.64603 10.4195 6.45639 14.9625 5.92766C18.1682 5.54999 21.4783 5.56887 24.39 5.58776H24.4469C24.9875 5.58776 25.5091 5.5972 26.0023 5.5972C26.0023 5.5972 26.0023 5.5972 26.0118 5.5972C30.6591 5.5972 35.1642 6.98512 39.0338 9.60989C40.0107 10.2708 41.1014 10.8845 42.2206 11.5171L42.4956 11.6682C43.501 12.2347 44.5537 12.8106 45.5306 13.4432C48.1293 15.1049 49.6184 16.6533 50.3676 18.4945C51.2212 20.5811 51.9041 23.7062 52.255 27.058C52.6059 30.4381 52.5585 33.6294 52.1317 35.8199C51.7334 37.8781 50.5004 40.399 48.4802 43.2882C46.9627 45.4598 44.971 47.8485 43.0173 49.8312C39.7262 53.1736 35.5815 55.4301 31.01 56.3554C29.4736 56.667 27.9371 56.818 26.4007 56.818ZM14.9625 6.05984C10.4574 6.58857 7.35605 7.76877 5.47815 9.67598C3.61921 11.5643 2.67078 14.444 2.4716 18.7494C2.38625 20.5716 2.44315 22.4599 2.51903 24.235C2.52851 24.5371 2.54748 24.8392 2.55696 25.1414L2.56645 25.3869C2.63284 26.822 2.68975 28.1721 2.68975 29.4279C2.68975 34.1298 4.04601 38.6807 6.61627 42.5989C6.73008 42.7689 6.85338 42.9577 6.96719 43.1371L7.13791 43.4015C8.33294 45.2332 9.82199 47.518 11.4628 49.5763C13.6916 52.371 15.6644 54.1083 17.4948 54.8825C21.7723 56.6858 26.4196 57.1485 30.9626 56.2326C35.4962 55.3168 39.6219 53.0697 42.894 49.7463C44.8383 47.7635 46.83 45.3937 48.3475 43.2221C50.3581 40.3424 51.5816 37.8498 51.98 35.8104C52.4068 33.6294 52.4542 30.457 52.1033 27.0863C51.7618 23.744 51.0695 20.6377 50.2254 18.5606C49.4856 16.7478 48.0155 15.2182 45.4358 13.5754C44.4589 12.9522 43.4156 12.3668 42.4103 11.8098L42.1352 11.6587C41.0066 11.0261 39.9159 10.403 38.939 9.74208C35.0978 7.12674 30.6212 5.74827 25.9928 5.74827C25.9928 5.74827 25.9928 5.74827 25.9833 5.74827C25.4807 5.74827 24.959 5.74827 24.4279 5.73882H24.371C21.4593 5.7105 18.1587 5.69162 14.9625 6.05984Z" fill="white"/>
<path fill-rule="evenodd" clip-rule="evenodd" d="M41.0717 9.74294C37.1262 7.0804 32.4978 5.65471 27.7556 5.65471C24.6353 5.65471 22.046 7.21258 19.6465 9.38416C18.4515 10.4699 17.3039 11.6974 16.1657 12.9436C15.9381 13.1891 15.72 13.4441 15.4924 13.6895C14.5913 14.6904 13.6903 15.6912 12.7703 16.6164C11.8029 17.5889 10.845 18.467 9.92504 19.2979C9.75432 19.4489 9.5836 19.6 9.42237 19.7511C8.36012 20.7236 7.37374 21.6488 6.53912 22.6213C4.89833 24.538 3.79814 26.6718 3.77917 29.7781C4.14906 30.1841 4.49998 30.76 4.86039 31.4398C5.23976 32.1479 5.62862 32.9977 6.05542 33.9135L6.08387 33.9796C6.95643 35.8585 7.97126 38.0395 9.28958 40.0317C11.9262 44.016 15.6726 47.1318 20.0448 48.9635C21.1735 49.4355 22.2263 50.0304 23.2506 50.6346C23.5256 50.7951 23.8007 50.9651 24.0757 51.1256C24.806 51.5693 25.5268 52.0037 26.2476 52.3813C28.2204 53.4388 30.1836 54.1186 32.4409 53.6654C37.0882 52.7307 41.3657 50.4175 44.7137 47.0279C46.3355 45.3851 46.8571 43.0341 47.0658 40.4282C47.1417 39.5124 47.1796 38.5777 47.2175 37.6429C47.2365 37.2558 47.246 36.8593 47.265 36.4722C47.3314 35.1504 47.4262 33.8474 47.6633 32.6389C48.5928 27.937 48.1091 23.0556 46.2976 18.6275C45.8328 17.4945 45.5198 16.5315 45.2448 15.6817L45.2163 15.5779C44.9603 14.7659 44.7326 14.0766 44.4481 13.4441C43.8696 12.1694 43.0349 11.0742 41.0717 9.74294ZM27.7556 5.09766C32.6116 5.09766 37.3443 6.55167 41.3847 9.2803C43.4143 10.6493 44.3248 11.8295 44.9508 13.2458C45.2448 13.9161 45.4819 14.6243 45.738 15.4268C45.7475 15.4646 45.7664 15.5023 45.7759 15.5401C46.051 16.3898 46.3639 17.334 46.8192 18.4481C48.6781 22.9801 49.1618 27.9747 48.2134 32.7899C47.9858 33.9607 47.8909 35.2353 47.8245 36.5477C47.8056 36.9348 47.7866 37.3125 47.7771 37.709C47.7392 38.6532 47.7012 39.6068 47.6254 40.5321C47.4072 43.1569 46.8761 45.6872 45.112 47.4811C41.6787 50.9556 37.3064 53.316 32.5547 54.2697C30.1078 54.7606 28.0117 54.0147 25.9915 52.9289C25.2612 52.5324 24.5215 52.0886 23.7912 51.6449C23.5256 51.4844 23.2506 51.3239 22.985 51.1634C21.9702 50.5591 20.9364 49.9832 19.8552 49.53C15.3691 47.6511 11.5374 44.4692 8.84382 40.3905C7.49704 38.3511 6.47273 36.1417 5.60017 34.2628L5.57172 34.2062C5.14492 33.2809 4.75606 32.4501 4.38617 31.7514C4.0068 31.0338 3.65587 30.4862 3.32392 30.1274L3.24805 30.0424V29.9291C3.24805 26.5962 4.41462 24.3114 6.14078 22.2909C7.00385 21.29 8.0092 20.3459 9.07144 19.3734C9.24216 19.2223 9.41288 19.0713 9.57411 18.9108C10.4846 18.0799 11.4425 17.2113 12.391 16.2482C13.292 15.3324 14.1835 14.341 15.094 13.3402C15.3216 13.0947 15.5398 12.8398 15.7674 12.5849C16.9055 11.3291 18.0626 10.0828 19.2861 8.97817C21.7236 6.76882 24.4456 5.09766 27.7556 5.09766Z" fill="white"/>
<path d="M31.0157 54.4683C29.0619 54.4683 27.3832 53.7318 25.9511 52.967C25.2303 52.5799 24.4905 52.1362 23.7792 51.7113L23.7412 51.6924C23.4757 51.5319 23.2006 51.3714 22.935 51.2109C21.9771 50.6444 20.9338 50.0496 19.8147 49.5775C15.3096 47.6892 11.4874 44.5168 8.7749 40.4097C7.41863 38.3514 6.36587 36.0854 5.52176 34.2726L5.49331 34.216C5.076 33.319 4.67765 32.4598 4.30776 31.7611C3.89994 30.9869 3.56798 30.4771 3.255 30.1561L3.16016 30.0522V29.9106C3.16016 26.9459 4.06117 24.5761 6.07185 22.2251C6.96338 21.1865 8.01615 20.2046 9.00252 19.2982C9.17324 19.1471 9.34396 18.9961 9.50519 18.8356C10.4157 18.0047 11.3641 17.1455 12.322 16.173C13.2231 15.2666 14.0956 14.2941 15.0061 13.2744L15.1294 13.1423C15.3191 12.9345 15.5088 12.7268 15.689 12.5191C16.9599 11.1123 18.0506 9.96043 19.2077 8.91241C22.1478 6.25931 24.8509 5.02246 27.7341 5.02246V5.08855V5.0319C27.7341 5.0319 27.7341 5.0319 27.7436 5.0319C32.6186 5.0319 37.3513 6.47647 41.4011 9.22399C43.2505 10.4703 44.2938 11.6316 44.9957 13.2178C45.2897 13.8787 45.5173 14.5774 45.7734 15.3894L45.8113 15.5121C46.1243 16.4657 46.4183 17.3532 46.8451 18.4107C48.7135 22.971 49.1972 27.9467 48.2488 32.7808C48.0117 33.9988 47.9168 35.3584 47.8599 36.5292C47.841 36.9163 47.8315 37.2939 47.8125 37.6905C47.7746 38.6252 47.7366 39.5883 47.6608 40.5135C47.4616 42.9023 47.0064 45.5931 45.1285 47.5003C41.6761 50.9937 37.3228 53.3447 32.5332 54.3078C32.0211 54.4211 31.5089 54.4683 31.0157 54.4683ZM3.30242 30.005L3.35933 30.0711C3.6818 30.4016 4.02323 30.9208 4.43106 31.7045C4.80095 32.4126 5.19929 33.2624 5.61661 34.1593L5.64506 34.216C6.48917 36.0288 7.53245 38.2853 8.88871 40.3341C11.5823 44.4129 15.3855 47.5664 19.8621 49.4453C20.9908 49.9174 22.0435 50.5122 23.0014 51.0882C23.267 51.2487 23.542 51.4092 23.8076 51.5697L23.8455 51.5886C24.5569 52.0134 25.2872 52.4572 26.008 52.8443C27.7816 53.7979 29.944 54.6949 32.5237 54.1756C37.2849 53.222 41.6098 50.871 45.0431 47.4059C46.8925 45.5365 47.3383 42.8645 47.5375 40.5041C47.6133 39.5788 47.6513 38.6158 47.6892 37.681C47.7082 37.2939 47.7177 36.9068 47.7366 36.5197C47.7936 35.349 47.8789 33.9894 48.1255 32.7525C49.0739 27.9373 48.5902 22.9899 46.7313 18.4579C46.295 17.391 46.001 16.5129 45.688 15.5499L45.6501 15.4366C45.3845 14.6246 45.1569 13.9259 44.8724 13.265C44.18 11.6977 43.1557 10.5647 41.3252 9.32784C37.2944 6.59921 32.5901 5.16409 27.7436 5.16409C27.7436 5.16409 27.7436 5.16409 27.7341 5.16409C24.8888 5.16409 22.2142 6.3915 19.3025 9.01627C18.1454 10.0643 17.0642 11.2067 15.7933 12.6135C15.6036 12.8212 15.414 13.029 15.2337 13.2367L15.1199 13.3594C14.1905 14.3886 13.3274 15.3516 12.4169 16.2674C11.459 17.2399 10.5105 18.0991 9.59055 18.93C9.41983 19.081 9.24912 19.2416 9.08788 19.3926C8.09202 20.299 7.04874 21.2715 6.1667 22.3101C4.17498 24.6327 3.28345 26.9742 3.28345 29.9106L3.30242 30.005ZM31.0252 53.9018C29.1852 53.9018 27.5824 53.2031 26.2166 52.4666C25.5053 52.0795 24.813 51.6641 24.0732 51.2203L24.0352 51.2109C23.7697 51.0504 23.4946 50.8804 23.2101 50.7199C22.2332 50.144 21.171 49.5397 20.0139 49.0488C15.6036 47.1982 11.8763 44.1014 9.23015 40.0887C7.89285 38.0587 6.84957 35.821 6.02443 34.0271L5.99598 33.961C5.56918 33.0547 5.18032 32.2049 4.81043 31.4968C4.41209 30.732 4.07065 30.2127 3.7387 29.8445L3.71973 29.8256V29.7973C3.7387 27.0309 4.60178 24.8121 6.49865 22.5933C7.37121 21.5736 8.40501 20.6106 9.3819 19.7136L9.88457 19.2604C10.814 18.4107 11.7625 17.5515 12.7204 16.579C13.6309 15.6537 14.5509 14.6435 15.4329 13.6615C15.6605 13.4066 15.8882 13.1611 16.1063 12.9062C17.3677 11.5089 18.4489 10.3664 19.5871 9.33728C22.4134 6.7786 25.0121 5.58896 27.7436 5.58896C27.7436 5.58896 27.7436 5.58896 27.7531 5.58896C32.5237 5.58896 37.1426 7.0052 41.1071 9.68662C43.1557 11.0745 43.9429 12.1887 44.5025 13.4444C44.787 14.077 45.0052 14.7662 45.2707 15.5688L45.3087 15.6915C45.5552 16.4374 45.8777 17.4571 46.3614 18.6278C48.1919 23.0843 48.6566 27.9467 47.7272 32.677C47.4806 33.9327 47.3857 35.3206 47.3288 36.5008C47.3099 36.888 47.2909 37.2845 47.2814 37.6716C47.2435 38.5874 47.2055 39.5316 47.1296 40.4569C46.94 42.7418 46.5132 45.3193 44.7586 47.0944C41.3821 50.5122 37.1331 52.8065 32.4479 53.7507C31.9642 53.864 31.4805 53.9018 31.0252 53.9018ZM3.85251 29.7784C4.18447 30.1466 4.5259 30.6754 4.92425 31.4401C5.30362 32.1483 5.69248 33.0074 6.10979 33.9044L6.14773 33.9799C6.98235 35.7738 8.01615 38.0115 9.35344 40.0226C11.9901 44.0164 15.6985 47.0944 20.0803 48.926C21.2468 49.417 22.3091 50.0213 23.2955 50.6066C23.5705 50.7671 23.8455 50.9371 24.1206 51.0976L24.149 51.1165C24.8793 51.5602 25.5717 51.9757 26.283 52.3533C27.9712 53.2597 30.0199 54.1189 32.4289 53.628C37.0762 52.6932 41.3157 50.3989 44.6732 47.0094C46.3994 45.2627 46.8262 42.7134 47.0064 40.4569C47.0822 39.5222 47.1202 38.5874 47.1581 37.6716C47.1771 37.2845 47.1866 36.888 47.2055 36.5008C47.2624 35.3112 47.3573 33.9138 47.6039 32.6581C48.5333 27.9467 48.0591 23.1221 46.2381 18.6845C45.7544 17.5137 45.4225 16.4846 45.1854 15.7387L45.1474 15.616C44.8913 14.8229 44.6637 14.1336 44.3887 13.5105C43.8386 12.2831 43.0609 11.1784 41.0407 9.80937C37.0952 7.14683 32.5048 5.74002 27.7626 5.74002C27.7626 5.74002 27.7626 5.74002 27.7531 5.74002C25.0595 5.74002 22.4988 6.92023 19.6914 9.45058C18.5533 10.4797 17.4815 11.6127 16.2201 13.0101C15.9925 13.2556 15.7744 13.501 15.5467 13.756C14.6552 14.7473 13.7352 15.767 12.8247 16.6923C11.8668 17.6648 10.9089 18.5334 9.9889 19.3643L9.47674 19.8364C8.49037 20.7333 7.46606 21.6964 6.60298 22.6972C4.72508 24.8688 3.88097 27.0592 3.85251 29.7784Z" fill="white"/>
<path fill-rule="evenodd" clip-rule="evenodd" d="M34.289 4.61553C32.1455 2.76497 29.9641 1.30152 27.7543 1.31096C21.6179 1.31096 15.7281 3.85076 11.3843 8.36386C9.20285 10.6299 6.58517 13.9439 4.51758 17.4845C2.4405 21.0345 0.941976 24.7829 0.941976 27.9364C0.941976 32.7327 1.50155 37.1042 4.02439 41.0413C5.28581 43.0052 7.68536 45.2901 10.322 47.32C12.9587 49.35 15.7945 51.1061 17.9095 52.0125C22.1395 53.8347 26.7963 54.3163 31.2824 53.3815C35.7685 52.4468 39.8942 50.1525 43.1379 46.7913C46.3626 43.4395 48.231 38.2183 49.132 33.5164C50.0235 28.8428 49.5683 23.9992 47.8137 19.5994C46.9316 17.3901 46.0401 15.6528 44.8925 14.1421C43.7544 12.6315 42.3507 11.338 40.4443 10.0067C39.4674 9.32691 38.4621 8.42995 37.4378 7.48579C37.1627 7.23086 36.8877 6.97594 36.6127 6.71157C35.8349 6.01289 35.0667 5.29533 34.289 4.61553ZM37.7792 7.0798C38.8035 8.02396 39.7804 8.89259 40.7289 9.5535C42.6732 10.9037 44.1148 12.2349 45.3098 13.8022C46.4954 15.3695 47.4059 17.154 48.2974 19.3917C50.0899 23.8953 50.5641 28.8428 49.6442 33.6297C48.7337 38.3788 46.8368 43.7228 43.5078 47.1878C40.1977 50.634 35.9772 52.985 31.3773 53.9292C26.7869 54.8828 22.0162 54.3918 17.6914 52.5318C15.5289 51.5971 12.6457 49.8126 9.99954 47.7732C7.3534 45.7338 4.88747 43.4017 3.57863 41.3529C0.960945 37.2741 0.401367 32.7799 0.401367 27.9364C0.401367 24.6223 1.96629 20.7702 4.06233 17.2012C6.15837 13.6134 8.80451 10.2711 11.0144 7.97675C15.453 3.3598 21.4756 0.763348 27.7637 0.753906C30.1823 0.753906 32.4964 2.3401 34.6399 4.19066C35.4366 4.87046 36.2143 5.6069 36.9731 6.31503C37.2386 6.56995 37.5042 6.82487 37.7792 7.0798Z" fill="white"/>
<path d="M26.7411 54.4677C23.6397 54.4677 20.5668 53.8351 17.6646 52.5888C15.5021 51.654 12.6189 49.8696 9.95377 47.8208C7.01362 45.5548 4.71841 43.2699 3.51389 41.3816C0.706523 37.0195 0.327148 32.1382 0.327148 27.9367C0.327148 24.9909 1.59805 21.2615 3.9976 17.1638C5.89447 13.9253 8.42679 10.5547 10.9591 7.92044C15.4452 3.25627 21.4109 0.678711 27.7559 0.678711C30.3451 0.678711 32.8111 2.52927 34.6795 4.13435C35.4762 4.81414 36.2539 5.55059 37.0127 6.25871C37.2877 6.51364 37.5627 6.76856 37.8283 7.02348C38.7767 7.90155 39.7916 8.80795 40.7685 9.48775C42.7317 10.8473 44.1923 12.2069 45.3589 13.7554C46.478 15.2377 47.4075 16.9655 48.3654 19.3637C50.1675 23.8957 50.6417 28.8336 49.7217 33.6394C49.0862 36.9912 47.4265 43.2132 43.5663 47.2259C40.2278 50.691 36.0263 53.0325 31.3979 53.9861C29.852 54.3166 28.287 54.4677 26.7411 54.4677ZM27.7559 0.820335C21.4488 0.820335 15.5116 3.37902 11.054 8.01485C8.53112 10.6396 5.9988 14.0008 4.11141 17.2299C1.72135 21.3087 0.459929 25.0098 0.459929 27.9367C0.459929 32.1193 0.839304 36.9723 3.62771 41.3155C4.82273 43.1849 7.09898 45.4603 10.0296 47.7169C12.6853 49.7657 15.559 51.5407 17.712 52.466C22.0368 54.3355 26.7601 54.817 31.36 53.8634C35.9599 52.9098 40.1425 50.5871 43.4525 47.141C47.2937 43.1471 48.9345 36.9534 49.5699 33.6205C50.4804 28.8336 50.0157 23.924 48.2232 19.4203C47.2747 17.041 46.3547 15.3132 45.2451 13.8498C44.0785 12.3108 42.6369 10.9701 40.6831 9.61049C39.6967 8.93069 38.6819 8.01485 37.724 7.13678C37.4584 6.8913 37.1834 6.63638 36.9083 6.37201C36.1496 5.66389 35.3624 4.92744 34.5752 4.24765C32.7447 2.64257 30.2977 0.820335 27.7559 0.820335ZM26.7411 53.9106C23.7156 53.9106 20.709 53.2875 17.8732 52.0695C15.7487 51.1536 12.9034 49.3975 10.2762 47.3676C7.38351 45.1393 5.13572 42.9017 3.95966 41.07C1.22816 36.8213 0.858273 32.0438 0.858273 27.9272C0.858273 25.0853 2.10072 21.4597 4.44336 17.447C6.31178 14.2369 8.82513 10.904 11.3195 8.30754C15.7013 3.74724 21.5342 1.23577 27.7369 1.22633C30.1555 1.22633 32.5265 3.00135 34.3191 4.54978C35.0968 5.22013 35.865 5.9377 36.6143 6.63638L36.6333 6.65526C36.9083 6.91018 37.1834 7.17455 37.4584 7.42003C38.4258 8.31699 39.4596 9.23282 40.4555 9.9315C42.3713 11.2533 43.7845 12.5752 44.9226 14.0764C46.0133 15.5209 46.9143 17.2016 47.8533 19.5525C49.6174 23.9806 50.0726 28.8053 49.1716 33.5072C48.5456 36.7929 46.9238 42.9017 43.1585 46.8105C39.9054 50.2 35.7892 52.4849 31.2651 53.4196C29.7761 53.7595 28.2586 53.9106 26.7411 53.9106ZM27.7559 1.37739C21.5911 1.37739 15.7961 3.87942 11.4333 8.4114C8.93895 10.9984 6.43508 14.3219 4.57614 17.5226C2.24299 21.5164 1.00054 25.1231 1.00054 27.9367C1.00054 32.0344 1.36094 36.7835 4.07347 41.0039C5.24005 42.8167 7.46887 45.0449 10.3521 47.2637C12.9698 49.2842 15.8056 51.0403 17.9206 51.9467C22.1507 53.769 26.7601 54.2411 31.2556 53.3158C35.7512 52.3811 39.839 50.1151 43.0732 46.7444C46.8195 42.8545 48.4223 36.7835 49.0483 33.5072C49.9398 28.8336 49.4846 24.0373 47.73 19.6281C46.8005 17.296 45.8995 15.6154 44.8183 14.1897C43.6896 12.6979 42.2765 11.395 40.3796 10.0731C39.3743 9.37445 38.331 8.43973 37.3636 7.55221C37.098 7.28785 36.823 7.03293 36.5479 6.76856L36.5289 6.74968C35.7892 6.051 35.0209 5.33343 34.2432 4.66308C32.4696 3.13353 30.127 1.37739 27.7559 1.37739Z" fill="white"/>
<path fill-rule="evenodd" clip-rule="evenodd" d="M31.3363 5.78753C30.0369 5.84418 28.8134 5.90083 27.7607 5.90083C21.4061 5.90083 15.3077 8.38398 10.8121 12.8121C6.31651 17.2402 3.79367 23.2262 3.79367 29.4766C3.79367 34.1691 4.37222 38.2667 6.9899 42.1189C8.27977 44.0167 9.93005 44.9608 11.8174 45.6501C12.6331 45.9522 13.4867 46.1977 14.3782 46.4621C14.53 46.5093 14.6817 46.547 14.8335 46.5942C15.8862 46.9058 16.9864 47.2457 18.1151 47.6989C22.4968 49.4834 27.3149 49.9555 31.9717 49.0396C33.1667 48.8036 34.3618 48.7092 35.5378 48.6525C35.8698 48.6336 36.1922 48.6242 36.5242 48.6053C37.3493 48.5675 38.1555 48.5298 38.9427 48.4542C41.1241 48.2465 43.0969 47.7367 44.7282 46.1316C45.5818 45.2913 46.6819 44.3755 47.8485 43.403C47.9529 43.318 48.0477 43.2425 48.1425 43.1575C49.2238 42.2605 50.3524 41.3258 51.4241 40.3628C52.5907 39.3053 53.6719 38.2101 54.5255 37.1054C55.3696 35.9913 55.9766 34.8866 56.1948 33.782C57.1242 29.2122 56.6405 24.4725 54.829 20.1577C53.9185 18.005 52.3915 15.4369 50.5895 13.0765C48.7875 10.7161 46.7294 8.5917 44.7661 7.29819C42.8503 6.03302 39.8342 5.67423 36.638 5.63647C35.0541 5.61758 33.4418 5.68368 31.9148 5.74977C31.7251 5.76865 31.5354 5.77809 31.3363 5.78753ZM36.6475 5.10774C39.8342 5.1455 43.002 5.50428 45.0696 6.86388C47.0993 8.19515 49.2048 10.3762 51.0258 12.7649C52.8468 15.1536 54.4022 17.7595 55.3317 19.9689C57.1906 24.3781 57.6743 29.2217 56.7259 33.9047C56.4793 35.1132 55.8249 36.3029 54.9523 37.4548C54.0797 38.5972 52.9701 39.7207 51.7845 40.7876C50.7033 41.7696 49.5652 42.7137 48.484 43.6012C48.3796 43.6862 48.2848 43.7618 48.1805 43.8467C47.0139 44.8192 45.9327 45.7162 45.0981 46.5376C43.334 48.2749 41.2095 48.7941 38.9712 49.0113C38.165 49.0868 37.3399 49.1246 36.5052 49.1624C36.1828 49.1812 35.8603 49.1907 35.5473 49.2096C34.3902 49.2757 33.2236 49.3606 32.0665 49.5872C27.3054 50.522 22.3735 50.0404 17.8969 48.2182C16.8062 47.7744 15.725 47.444 14.6722 47.1324C14.5205 47.0852 14.3687 47.0474 14.217 47.0002C13.3255 46.7359 12.4529 46.4809 11.6183 46.1788C9.65501 45.4612 7.9004 44.4604 6.51568 42.4399C3.80316 38.4556 3.22461 34.2257 3.22461 29.4955C3.22461 23.094 5.80436 16.9664 10.4043 12.4439C15.0042 7.92134 21.2449 5.38154 27.7417 5.38154C28.785 5.38154 29.9895 5.32489 31.2888 5.26824C31.4785 5.2588 31.6777 5.24936 31.8674 5.23992C33.4133 5.15494 35.0446 5.08885 36.6475 5.10774Z" fill="white"/>
<path d="M27.2746 50.1248C24.0688 50.1248 20.8821 49.5017 17.8756 48.2837C16.7469 47.8305 15.6278 47.4811 14.6509 47.1979C14.5181 47.1601 14.3948 47.1224 14.262 47.0846L14.1956 47.0657C13.3231 46.8108 12.4315 46.5464 11.5874 46.2443C9.89922 45.6211 7.96441 44.6959 6.45639 42.4771C3.57315 38.1906 3.1748 33.6964 3.1748 29.476C3.1748 23.0179 5.73558 16.9469 10.3734 12.3772C15.0113 7.80743 21.1951 5.28652 27.7583 5.28652C28.7921 5.28652 30.0061 5.22987 31.2959 5.17322C31.4951 5.16378 31.6943 5.15434 31.884 5.14489C33.3351 5.0788 35.0138 5.01271 36.6451 5.0316C40.6475 5.0788 43.3411 5.63586 45.1052 6.79718C46.9831 8.03403 49.1076 10.1301 51.0803 12.7171C52.8918 15.0869 54.4662 17.7117 55.3957 19.9305C57.2641 24.368 57.7478 29.2022 56.7994 33.9041C56.5718 35.0371 55.9837 36.2078 55.0163 37.473C54.2386 38.4927 53.2048 39.5785 51.8485 40.8154C50.7768 41.7878 49.6577 42.7131 48.5764 43.6006L48.2445 43.8744C47.0495 44.8658 45.9967 45.7439 45.1621 46.5653C43.2747 48.4253 40.9889 48.8691 38.9972 49.0579C38.1911 49.1334 37.347 49.1712 36.5313 49.209C36.1993 49.2278 35.8864 49.2373 35.5734 49.2562C34.5301 49.3128 33.2971 49.3978 32.1021 49.6338C30.4898 49.9643 28.8774 50.1248 27.2746 50.1248ZM36.0855 5.16378C34.6344 5.16378 33.1738 5.22043 31.9029 5.27708C31.7038 5.28652 31.5141 5.29596 31.3244 5.3054C30.025 5.36205 28.811 5.4187 27.7677 5.4187C21.233 5.4187 15.0966 7.92073 10.4778 12.4622C5.85888 17.0036 3.30759 23.0557 3.30759 29.476C3.30759 33.6775 3.70593 38.1528 6.57969 42.3921C8.06873 44.5731 9.97509 45.4984 11.6443 46.1121C12.479 46.4142 13.3705 46.6786 14.2431 46.9335L14.3094 46.9524C14.4327 46.9902 14.5655 47.028 14.6983 47.0657C15.6752 47.349 16.8038 47.6983 17.9325 48.1609C22.4186 49.9832 27.303 50.4647 32.0642 49.53C33.2687 49.2939 34.5016 49.1995 35.5544 49.1523C35.8674 49.1334 36.1899 49.124 36.5123 49.1051C37.3375 49.0673 38.1816 49.0296 38.9783 48.954C40.9415 48.7652 43.1988 48.3215 45.0577 46.4992C45.8924 45.6778 46.9451 44.7903 48.1496 43.7989L48.4816 43.5251C49.5628 42.6282 50.682 41.7029 51.7442 40.7398C53.1005 39.5124 54.1248 38.4266 54.9025 37.4164C55.8604 36.1606 56.439 35.0088 56.6666 33.8946C57.615 29.2116 57.1313 24.4058 55.2724 19.9966C54.3429 17.7872 52.7685 15.1719 50.976 12.8115C49.0127 10.2434 46.9072 8.15677 45.0388 6.91992C43.2936 5.77748 40.6285 5.22043 36.6546 5.17322C36.4554 5.16378 36.2657 5.16378 36.0855 5.16378ZM27.2746 49.5772C24.1447 49.5772 21.0244 48.9729 18.0842 47.7738C16.9461 47.3112 15.7985 46.9619 14.8121 46.6692C14.6604 46.622 14.5086 46.5842 14.3569 46.537C13.4559 46.2726 12.6023 46.0177 11.7866 45.725C10.1743 45.1396 8.34378 44.2521 6.92113 42.1655C4.10427 38.0206 3.71541 33.6208 3.71541 29.476C3.71541 23.1595 6.21928 17.2207 10.7528 12.7643C15.2958 8.2984 21.3279 5.84357 27.7488 5.84357C28.8015 5.84357 30.025 5.78692 31.3244 5.73028C31.5141 5.72083 31.7132 5.71139 31.9029 5.70195C33.3446 5.63586 35.0138 5.56977 36.6261 5.58865C40.5242 5.63586 43.1134 6.16459 44.7827 7.26926C46.6132 8.46835 48.6902 10.5266 50.6156 13.0664C52.3986 15.3985 53.9446 17.9855 54.8646 20.1665C56.695 24.5002 57.1598 29.2305 56.2303 33.8286C56.0217 34.8766 55.4716 35.9718 54.5516 37.1803C53.7928 38.1717 52.778 39.2386 51.4502 40.4471C50.3879 41.4102 49.2783 42.326 48.1971 43.223L47.8651 43.4968C46.6606 44.4882 45.5983 45.3851 44.7542 46.216C42.9901 47.9532 40.8182 48.3687 38.9308 48.5481C38.1342 48.6236 37.309 48.6614 36.5028 48.6991H36.427C36.133 48.718 35.8295 48.7274 35.526 48.7463C34.4637 48.803 33.2118 48.8974 31.9788 49.1334C30.4234 49.4261 28.849 49.5772 27.2746 49.5772ZM31.3434 5.85302C30.044 5.90967 28.8205 5.96632 27.7677 5.96632C21.3848 5.96632 15.3812 8.4117 10.8666 12.8493C6.35206 17.2868 3.85768 23.1973 3.85768 29.476C3.85768 33.5925 4.24654 37.964 7.04442 42.0805C8.43862 44.1294 10.2501 45.0074 11.8435 45.5928C12.6592 45.895 13.5033 46.1404 14.3948 46.4048C14.5466 46.452 14.6983 46.4898 14.8501 46.537C15.8364 46.8297 16.984 47.179 18.1411 47.6511C22.5229 49.4356 27.303 49.8982 31.9598 48.9918C33.2023 48.7463 34.4637 48.6613 35.5354 48.6047C35.8389 48.5858 36.1424 48.5764 36.4365 48.5575H36.5123C37.309 48.5197 38.1342 48.482 38.9308 48.4064C40.7993 48.227 42.9427 47.8116 44.6784 46.1027C45.532 45.2624 46.5942 44.3749 47.7987 43.374L48.1307 43.1002C49.2119 42.2127 50.3216 41.2874 51.3838 40.3244C52.7116 39.1159 53.717 38.0584 54.4662 37.0765C55.3767 35.8868 55.9173 34.8105 56.126 33.7813C57.0555 29.2022 56.5812 24.5097 54.7602 20.2043C53.8497 18.0327 52.3038 15.4646 50.5302 13.1325C48.6049 10.6116 46.5468 8.56276 44.7258 7.37312C43.0755 6.28733 40.5052 5.7586 36.6356 5.72083C35.0233 5.70195 33.354 5.76804 31.9219 5.83413C31.7227 5.83413 31.533 5.84357 31.3434 5.85302Z" fill="white"/>
<path d="M36.7099 19.3446C37.6204 20.251 37.6204 21.7239 36.7099 22.6303L29.3406 29.957V40.305C29.3406 41.5891 28.2878 42.6277 26.979 42.6277C25.6702 42.6277 24.6174 41.5891 24.6174 40.305V29.9098L17.3049 22.6398C16.3944 21.7334 16.3944 20.2605 17.3049 19.3541C18.2154 18.4477 19.695 18.4477 20.615 19.3541L26.7703 25.4817H27.2446L33.3999 19.3541C34.3199 18.4382 35.79 18.4382 36.7099 19.3446Z" fill="white"/>
<path d="M102.905 2.72949H90.8417L86.5811 34.2022H95.1939L95.6252 28.4775H98.5266L98.9448 34.1892L107.649 34.2022L102.905 2.72949ZM98.5135 22.7528H95.6382L96.8798 9.74221C96.8798 9.74221 98.6181 22.6748 98.5135 22.7528Z" fill="white"/>
<path d="M251.199 20.7638H253.695V34.1908H262.034V2.70508H253.695V13.9202H251.199V2.70508H242.848V34.1908H251.199V20.7638Z" fill="white"/>
<path d="M221.334 33.5131C222.915 34.3458 224.928 34.7622 227.385 34.7622C229.738 34.7622 231.711 34.2678 233.332 33.292C234.939 32.3162 235.959 31.1843 236.442 29.8832C236.913 28.5951 237.148 25.4726 237.148 22.3891V21.1791H228.81V25.9019C228.81 27.5413 228.705 28.5951 228.522 29.0245C228.326 29.4669 227.921 29.688 227.307 29.688C226.64 29.688 226.248 29.4669 226.052 29.0245C225.856 28.5951 225.804 27.6454 225.804 26.1882V11.4081C225.804 9.89889 225.856 8.38966 226.052 7.92127C226.235 7.4659 226.627 7.25773 227.307 7.25773C227.934 7.25773 228.352 7.43988 228.535 7.80418C228.718 8.18149 228.81 9.65169 228.81 11.1479V16.3522H237.148V13.5028C237.148 10.7055 236.887 8.14246 236.39 6.82838C235.893 5.5013 234.835 4.3954 233.24 3.51068C231.633 2.63897 229.764 2.18359 227.307 2.18359C225.49 2.18359 223.726 2.46983 222.353 3.02928C220.942 3.60175 219.857 4.38239 219.073 5.39722C218.302 6.39903 217.818 7.42687 217.661 8.50675C217.492 9.58663 217.413 11.7074 217.413 13.8671V22.5842C217.413 25.5116 217.674 28.6081 218.197 30.0783C218.707 31.5485 219.753 32.6935 221.334 33.5131Z" fill="white"/>
<path d="M119.249 34.1778L119.236 13.4518L122.19 34.1778H127.235L130.371 13.5429V34.1778H137.703L137.664 2.70508H126.869L124.804 17.3811L122.752 2.70508H111.943L111.956 34.1778H119.249Z" fill="white"/>
<path d="M71.544 34.2022H79.255V22.7528L85.3585 2.72949H77.6867L75.5433 15.1026L73.3345 2.72949H65.6758L71.544 22.7528V34.2022Z" fill="white"/>
<path d="M151.216 28.4782H154.117L154.535 34.1898L163.24 34.2028L158.456 2.74316H146.406L142.146 34.2158H150.771L151.216 28.4782ZM152.457 9.74287C152.457 9.74287 154.196 22.6884 154.091 22.7535H151.216L152.457 9.74287Z" fill="white"/>
<path d="M168.609 31.3401C169.236 32.2768 170.06 33.1355 171.288 33.7861C172.517 34.4236 173.785 34.7228 175.209 34.7228C176.385 34.7228 177.64 34.5537 178.437 33.9812C179.3 33.3697 179.993 32.8103 180.62 31.5482L181.391 34.1894H186.697V17.5098H177.052V21.6992H178.542V26.0057C178.542 27.4109 178.424 28.3606 178.202 28.842C177.98 29.3364 177.562 29.5706 176.961 29.5706C176.399 29.5706 176.033 29.3625 175.837 28.9331C175.667 28.5038 175.562 27.606 175.562 26.2659L175.575 10.8874C175.575 9.35213 175.68 8.37633 175.85 8.01203C176.046 7.64774 176.529 7.45258 177.052 7.45258C177.653 7.45258 178.124 7.56967 178.294 8.01203C178.411 8.3373 178.49 8.97482 178.516 10.0157C178.529 10.367 178.529 10.9004 178.529 11.3297L178.516 13.8668H186.697V13.1772C186.697 10.7182 186.423 8.41536 185.939 7.1143C185.443 5.81324 184.384 4.69433 182.776 3.73154C181.156 2.79478 179.117 2.19629 176.66 2.19629C174.151 2.19629 172.125 2.87284 170.557 3.95272C168.975 5.0326 168.021 6.24259 167.694 7.54365C167.368 8.85772 167.185 11.3297 167.185 14.2181V23.3515C167.185 25.4332 167.25 27.3198 167.433 28.3606C167.564 29.3885 167.969 30.3903 168.609 31.3401Z" fill="white"/>
<path d="M239.524 51.9239H240.125L238.831 55.9572H227.644V55.3587H228.245C228.571 55.3587 228.872 55.2807 229.16 55.1115C229.369 55.0074 229.499 54.8383 229.578 54.6171C229.656 54.3829 229.695 53.9015 229.695 53.1599V43.1938C229.695 42.0098 229.552 41.5935 229.434 41.4504C229.199 41.1772 228.807 41.034 228.245 41.034H227.644V40.4355H238.844L239.014 43.9744H238.426L238.413 43.8964C238.269 43.1027 238.112 42.5563 237.929 42.27C237.759 41.9838 237.511 41.7626 237.184 41.6195C236.923 41.5154 236.426 41.4634 235.734 41.4634H232.545C232.192 41.4634 231.904 41.7496 231.904 42.1009V47.3312H234.949C235.734 47.3312 236.269 47.2141 236.518 46.9669C236.858 46.6416 237.054 46.0431 237.106 45.1974V45.1064H237.681V50.6229H237.119L237.106 50.5448C237.014 49.8162 236.91 49.3348 236.818 49.1397C236.701 48.8924 236.505 48.7103 236.23 48.5542C235.956 48.4111 235.524 48.333 234.949 48.333H231.904V53.29C231.904 54.1227 231.943 54.4089 231.983 54.5C232.035 54.6171 232.113 54.7212 232.244 54.7993C232.322 54.8513 232.532 54.9034 232.989 54.9034H235.42C236.217 54.9034 236.792 54.8513 237.158 54.7342C237.511 54.6171 237.851 54.3829 238.178 54.0447C238.609 53.5893 239.053 52.8867 239.498 51.9499L239.524 51.9239ZM122.565 41.0601H123.192C123.702 41.0601 124.094 41.2162 124.342 41.5154C124.46 41.6585 124.617 42.0749 124.617 43.2068V49.2698C124.617 50.844 124.473 51.976 124.211 52.6265C123.95 53.264 123.467 53.7974 122.748 54.2138C122.029 54.6301 121.192 54.8383 120.291 54.8383C119.585 54.8383 118.971 54.7082 118.474 54.435C117.99 54.1748 117.611 53.8365 117.363 53.4332C117.102 53.0298 116.919 52.4443 116.814 51.7158C116.723 50.9741 116.67 50.2976 116.67 49.7251V43.1938C116.67 42.3741 116.749 41.8407 116.919 41.5805C117.154 41.2162 117.546 41.034 118.108 41.034H118.748V40.4355H112.384V41.034H113.011C113.521 41.034 113.887 41.1641 114.109 41.4374C114.344 41.7106 114.449 42.2961 114.449 43.1938V49.0486C114.449 50.8571 114.566 52.1061 114.788 52.7696C115.128 53.7454 115.716 54.526 116.54 55.0985C117.363 55.671 118.579 55.9702 120.147 55.9702C121.598 55.9702 122.748 55.671 123.597 55.0725C124.447 54.474 125.022 53.7324 125.309 52.8997C125.597 52.054 125.741 50.8701 125.741 49.3738V43.2979C125.741 42.4912 125.806 41.9708 125.95 41.7496C126.237 41.2812 126.629 41.0601 127.165 41.0601H127.793V40.4616H122.539L122.565 41.0601ZM129.518 40.4746L129.348 44.2477H129.936L129.949 44.1566C130.001 43.48 130.145 42.9466 130.406 42.5433C130.655 42.153 130.955 41.8927 131.295 41.7496C131.57 41.6455 132.027 41.5935 132.681 41.5935H134.301V53.212C134.301 54.0446 134.223 54.5911 134.079 54.8123C133.844 55.1766 133.452 55.3587 132.863 55.3587H132.262V55.9572H138.51V55.3587H137.921C137.399 55.3587 137.007 55.2156 136.758 54.9164C136.641 54.7732 136.497 54.3569 136.497 53.212V41.6065H138.418C138.993 41.6065 139.451 41.7106 139.79 41.9057C140.143 42.1009 140.418 42.4132 140.627 42.8295C140.757 43.0897 140.862 43.5451 140.927 44.1566L140.94 44.2346H141.529L141.359 40.4616L129.518 40.4746ZM153.16 41.0731H153.252C153.618 41.0731 153.892 41.1121 154.062 41.2162C154.232 41.2943 154.363 41.4113 154.454 41.5675C154.546 41.7236 154.598 41.8927 154.598 42.0879C154.598 42.4132 154.389 42.9336 153.984 43.6231L151.265 48.2159L148.351 43.389C147.933 42.6994 147.724 42.218 147.724 41.9708C147.724 41.6716 147.841 41.4504 148.089 41.3073C148.351 41.1511 148.651 41.0731 148.965 41.0731H149.37V40.4746H143.071V41.0731H143.162C143.411 41.0731 143.607 41.1121 143.724 41.1772C144.234 41.4374 144.561 41.6585 144.718 41.8407C144.887 42.0228 145.201 42.4912 145.659 43.2458L149.566 49.6471V53.251C149.566 54.0837 149.488 54.6301 149.344 54.8513C149.109 55.2156 148.717 55.3978 148.129 55.3978H147.527V55.9962H153.788V55.3978H153.226C152.677 55.3978 152.285 55.2546 152.036 54.9554C151.919 54.8123 151.762 54.3959 151.762 53.251V49.4129L155.199 43.6101C155.617 42.8815 155.97 42.3611 156.258 42.0489C156.532 41.7366 156.846 41.4894 157.186 41.3203C157.526 41.1511 157.774 41.0731 157.944 41.0731H158.31V40.4746H153.134L153.16 41.0731ZM181.09 55.3327L181.181 55.3457V55.9312H175.352V55.3457H175.444C175.993 55.3197 176.359 55.2286 176.542 55.0725C176.725 54.9164 176.816 54.7472 176.816 54.526C176.816 54.2138 176.672 53.7064 176.398 53.0298L175.718 51.3384C175.614 51.0912 175.379 50.9351 175.117 50.9351H170.151L169.21 53.238C168.975 53.7974 168.857 54.2268 168.857 54.5C168.857 54.7082 168.948 54.8773 169.131 55.0335C169.327 55.1896 169.759 55.2937 170.425 55.3457L170.517 55.3587V55.9442H165.825V55.3717L165.903 55.3587C166.478 55.2546 166.857 55.1115 167.014 54.9554C167.367 54.6171 167.759 53.9015 168.19 52.8347L173.248 40.4746H173.745L173.771 40.5266L178.751 52.9648C179.143 53.9406 179.495 54.5911 179.809 54.8903C180.084 55.1375 180.528 55.2937 181.09 55.3327ZM175.039 49.6991L172.882 44.2346L170.53 50.0374H174.804C174.882 50.0374 174.96 49.9984 175.013 49.9333C175.065 49.8552 175.078 49.7642 175.039 49.6991ZM194.29 51.8589L194.159 51.7678L194.107 51.8459C193.245 53.0428 192.46 53.8495 191.742 54.2528C191.036 54.6431 190.199 54.8513 189.271 54.8513C188.2 54.8513 187.233 54.5911 186.396 54.0837C185.56 53.5763 184.932 52.8347 184.527 51.8849C184.109 50.9221 183.9 49.7772 183.9 48.4761C183.9 46.8888 184.122 45.5487 184.566 44.4818C185.011 43.428 185.625 42.6474 186.383 42.166C187.154 41.6846 188.017 41.4374 188.971 41.4374C190.108 41.4374 191.088 41.7626 191.885 42.4002C192.696 43.0377 193.323 44.1045 193.767 45.5747L193.794 45.6398H194.29L193.937 40.4746H193.401L193.388 40.5526C193.31 40.8779 193.192 41.1381 193.022 41.3203C192.892 41.4374 192.748 41.5024 192.578 41.5024C192.5 41.5024 192.33 41.4634 191.977 41.2812C190.944 40.7608 189.873 40.4876 188.801 40.4876C187.429 40.4876 186.148 40.8389 184.985 41.5154C183.835 42.192 182.907 43.1548 182.253 44.3908C181.587 45.6268 181.26 46.9929 181.26 48.4631C181.26 50.2846 181.77 51.8979 182.763 53.251C184.109 55.0725 186.03 55.9962 188.474 55.9962C189.833 55.9962 191.023 55.684 192.003 55.0725C192.918 54.513 193.741 53.6283 194.434 52.4704C194.552 52.2492 194.486 51.989 194.29 51.8589ZM210.078 55.3327L210.17 55.3457V55.9312H204.341V55.3457H204.432C204.981 55.3197 205.347 55.2286 205.53 55.0725C205.713 54.9164 205.804 54.7342 205.804 54.526C205.804 54.2138 205.661 53.7064 205.386 53.0298L204.707 51.3384C204.615 51.0912 204.367 50.9351 204.105 50.9351H199.126L198.185 53.238C197.95 53.7974 197.832 54.2268 197.832 54.5C197.832 54.7082 197.923 54.8773 198.106 55.0335C198.302 55.1896 198.734 55.2937 199.4 55.3457L199.492 55.3587V55.9442H194.8V55.3587L194.878 55.3457C195.453 55.2416 195.832 55.1115 195.989 54.9424C196.342 54.6041 196.734 53.8885 197.165 52.8217L202.223 40.4616H202.72L202.746 40.5136L207.726 52.9518C208.118 53.9276 208.471 54.5781 208.784 54.8643C209.085 55.1375 209.529 55.3067 210.078 55.3327ZM204.04 49.6991L201.884 44.2346L199.531 50.0374H203.805C203.883 50.0374 203.962 49.9984 204.014 49.9333C204.066 49.8552 204.079 49.7772 204.04 49.6991ZM225.134 43.8964C225.84 45.1194 226.193 46.5505 226.193 48.1508C226.193 50.2976 225.565 52.1191 224.311 53.5633C222.912 55.1766 220.756 55.9962 217.894 55.9962H211.267V55.3978H211.908C212.496 55.3978 212.901 55.2156 213.149 54.8123C213.293 54.5781 213.372 54.0316 213.372 53.186V43.2849C213.372 42.1269 213.215 41.6976 213.097 41.5415C212.836 41.2292 212.444 41.0731 211.921 41.0731H211.28V40.4746H217.332C219.527 40.4746 221.213 40.7348 222.35 41.2682C223.5 41.7756 224.441 42.6734 225.134 43.8964ZM217.489 54.9944C217.606 55.0074 217.724 55.0074 217.841 55.0074C219.475 55.0074 220.847 54.3959 221.932 53.199C223.017 51.989 223.566 50.3366 223.566 48.2679C223.566 46.1862 223.017 44.5209 221.945 43.3239C220.874 42.1269 219.462 41.5284 217.776 41.5284C217.162 41.5284 216.443 41.6325 215.659 41.8277V53.0558C215.633 54.0837 216.443 54.9294 217.489 54.9944ZM250.541 51.989C250.515 52.041 250.463 52.08 250.398 52.08C250.332 52.08 250.28 52.041 250.254 51.989L245.117 40.5266L245.091 40.4746H240.752V41.0731H240.844C241.432 41.0731 241.85 41.1511 242.111 41.2942C242.373 41.4244 242.543 41.5935 242.634 41.7887C242.778 42.0749 242.843 42.5563 242.843 43.2198V53.238C242.843 54.0707 242.765 54.6171 242.621 54.8383C242.386 55.2026 241.955 55.3847 241.366 55.3847H240.752V55.9832H246.085V55.3847H245.47C244.921 55.3847 244.516 55.2416 244.268 54.9424C244.15 54.7993 243.993 54.3829 243.993 53.238V43.428L249.535 55.9312L249.561 55.9832H250.045L255.599 43.428V53.225C255.599 54.2658 255.482 54.6692 255.377 54.8253C255.142 55.1896 254.724 55.3717 254.122 55.3717H253.508V55.9702H259.977V55.3717H259.376C258.827 55.3717 258.422 55.2286 258.174 54.9294C258.043 54.7863 257.886 54.3699 257.886 53.225V43.2068C257.886 42.3741 257.965 41.8277 258.109 41.6065C258.357 41.2422 258.775 41.0601 259.376 41.0601H259.977V40.4616H255.638L250.541 51.989ZM276.563 40.4616H271.753V41.0601H271.845C272.224 41.0601 272.498 41.0991 272.681 41.2032C272.864 41.2812 272.995 41.3983 273.086 41.5545C273.178 41.7106 273.23 41.8797 273.23 42.0749C273.23 42.4002 273.021 42.9206 272.59 43.6101L269.544 48.2159L266.538 43.402C266.107 42.7124 265.885 42.231 265.885 41.9838C265.885 41.6846 266.003 41.4634 266.264 41.3203C266.538 41.1641 266.839 41.0861 267.166 41.0861H267.584V40.4876H261.611C261.324 40.4876 261.088 40.7218 261.088 40.995V41.0861H261.18C261.441 41.0861 261.637 41.1251 261.768 41.1902C262.291 41.4504 262.631 41.6716 262.8 41.8537C262.97 42.0359 263.297 42.5042 263.768 43.2589L267.793 49.6601V53.264C267.793 54.0967 267.715 54.6431 267.571 54.8643C267.323 55.2286 266.917 55.4108 266.329 55.4108H265.715V56.0093H272.394V55.4108H271.818C271.256 55.4108 270.838 55.2677 270.59 54.9684C270.459 54.8253 270.302 54.4089 270.302 53.264V49.4519L273.844 43.6492C274.276 42.9336 274.641 42.4002 274.929 42.0879C275.217 41.7756 275.543 41.5284 275.896 41.3593C276.249 41.1902 276.51 41.1121 276.68 41.1121H277.059V41.021C277.085 40.6958 276.85 40.4616 276.563 40.4616ZM81.3566 49.0876C82.0493 49.7902 82.4021 50.6749 82.4021 51.7027C82.4021 52.4834 82.1669 53.238 81.7095 53.9406C81.252 54.6431 80.6116 55.1766 79.8144 55.5018C79.0302 55.8271 77.8017 55.9832 76.1941 55.9832H69.3457V55.8922C69.3457 55.6059 69.581 55.3847 69.8554 55.3847H69.973C70.535 55.3847 70.9402 55.2026 71.1885 54.8123C71.3453 54.5651 71.4107 54.0186 71.4107 53.1729V43.2719C71.4107 42.3481 71.3192 41.7626 71.1232 41.5284C70.8618 41.2162 70.4827 41.0601 69.973 41.0601H69.8554C69.5679 41.0601 69.3457 40.8259 69.3457 40.5526V40.4616H75.6191C76.7822 40.4616 77.7102 40.5526 78.4159 40.7348C79.4876 41.008 80.311 41.5024 80.873 42.218C81.435 42.9206 81.7225 43.7402 81.7225 44.651C81.7225 45.4316 81.5003 46.1472 81.056 46.7717C80.6639 47.3182 80.0888 47.7475 79.3569 48.0468C80.2457 48.281 80.9122 48.6322 81.3566 49.0876ZM79.3569 44.5599C79.3569 43.7012 79.0171 42.9466 78.3637 42.3351C77.6971 41.7236 76.7169 41.4113 75.4492 41.4113C75.2662 41.4113 75.0832 41.4244 74.9002 41.4244C74.1945 41.4764 73.6456 42.0619 73.6456 42.7644V47.3832C73.8808 47.4222 74.1553 47.4613 74.4428 47.4873C74.7826 47.5133 75.1486 47.5263 75.5406 47.5263C76.547 47.5263 77.305 47.4092 77.8147 47.1881C78.3114 46.9539 78.7035 46.6026 78.9649 46.1342C79.2262 45.6528 79.3569 45.1194 79.3569 44.5599ZM74.5604 54.8903C75.0309 54.9554 75.5014 54.9944 75.9589 54.9944C77.2005 54.9944 78.1545 54.6952 78.808 54.0967C79.4484 53.4982 79.7752 52.7566 79.7752 51.8849C79.7752 51.3124 79.6314 50.753 79.3308 50.2065C79.0433 49.6731 78.5597 49.2567 77.8931 48.9445C77.2266 48.6322 76.3902 48.4761 75.3969 48.4761C74.9525 48.4761 74.5866 48.4891 74.286 48.5021C74.0246 48.5151 73.8024 48.5412 73.6194 48.5672V53.8365C73.6325 54.3699 74.0246 54.8123 74.5604 54.8903ZM95.9029 52.002C95.4455 52.9257 95.0011 53.6283 94.5829 54.0967C94.2562 54.435 93.9164 54.6692 93.5635 54.7863C93.2106 54.9034 92.6225 54.9554 91.8252 54.9554H89.4074C88.9369 54.9554 88.7408 54.8903 88.6624 54.8513C88.5448 54.7732 88.4533 54.6692 88.401 54.5521C88.3618 54.461 88.3226 54.1617 88.3226 53.3421V48.372H91.3678C91.9559 48.372 92.3742 48.4501 92.6486 48.5932C92.9231 48.7363 93.1191 48.9315 93.2368 49.1787C93.3282 49.3738 93.4197 49.8552 93.5243 50.5838L93.5373 50.6619H94.0993V45.1454H93.5243V45.2365C93.4851 46.0822 93.289 46.6806 92.9362 47.0059C92.6748 47.2531 92.152 47.3702 91.3678 47.3702H88.3226V42.1269C88.3226 41.7756 88.6101 41.4894 88.963 41.4894H92.152C92.8447 41.4894 93.3282 41.5414 93.6027 41.6455C93.9294 41.7887 94.1908 42.0098 94.3477 42.2961C94.5176 42.5823 94.6875 43.1418 94.8312 43.9224L94.8443 44.0005H95.4324L95.2625 40.4616H84.062V41.0601H84.6632C85.2251 41.0601 85.6303 41.2032 85.8525 41.4764C85.9701 41.6195 86.1139 42.0359 86.1139 43.2198V53.1729C86.1139 53.9015 86.0747 54.3959 85.9962 54.6301C85.9309 54.8513 85.7871 55.0074 85.578 55.1245C85.2905 55.2937 84.9768 55.3717 84.6632 55.3717H84.062V55.9702H95.2495L96.5433 51.9369H95.9421L95.9029 52.002ZM112.763 55.3847L112.854 55.3978V55.9832H107.025V55.3978H107.117C107.665 55.3717 108.031 55.2807 108.214 55.1245C108.397 54.9684 108.489 54.7993 108.489 54.5781C108.489 54.2658 108.345 53.7584 108.071 53.0819L107.391 51.3905C107.286 51.1433 107.051 50.9872 106.79 50.9872H101.823L100.882 53.29C100.647 53.8495 100.53 54.2788 100.53 54.5521C100.53 54.7602 100.621 54.9294 100.804 55.0855C101 55.2416 101.431 55.3457 102.098 55.3978L102.189 55.4108V55.9962H97.4974V55.4238L97.5758 55.4108C98.1509 55.3067 98.5299 55.1636 98.6867 55.0074C99.0396 54.6692 99.4317 53.9536 99.863 52.8867L104.921 40.5266H105.418L105.444 40.5787L110.423 53.0168C110.815 54.0056 111.181 54.6431 111.482 54.9424C111.756 55.1896 112.201 55.3587 112.763 55.3847ZM106.711 49.7511L104.555 44.2867L102.202 50.0894H106.476C106.568 50.0894 106.633 50.0504 106.685 49.9853C106.738 49.9073 106.751 49.8162 106.711 49.7511Z" fill="white"/>
<path d="M192.699 28.4531C192.843 29.5069 193.261 30.5218 193.993 31.4976C194.711 32.4604 195.809 33.254 197.286 33.8525C198.737 34.464 200.449 34.7632 202.357 34.7632C204.082 34.7632 205.598 34.49 206.866 33.9826C208.134 33.4752 209.153 32.7466 209.924 31.7448C210.722 30.756 211.179 28.8824 211.336 27.9587C211.506 27.0349 211.584 25.7859 211.584 23.483L211.597 2.70508H203.246V26.1112C203.246 27.6204 203.181 28.5962 203.011 28.9865C202.854 29.4029 202.514 29.598 202.004 29.598C201.534 29.598 201.22 29.4159 201.063 29.0516C200.919 28.6873 200.841 27.8416 200.841 26.5015L200.828 2.71809H192.477L192.49 21.1671C192.503 24.6019 192.568 27.3992 192.699 28.4531Z" fill="white"/>
</svg>
