<svg width="141" height="141" viewBox="0 0 141 141" fill="none" xmlns="http://www.w3.org/2000/svg">
<mask id="mask0_2207_490" style="mask-type:alpha" maskUnits="userSpaceOnUse" x="0" y="0" width="141" height="141">
<path d="M70.1142 140.228C108.837 140.228 140.228 108.837 140.228 70.1142C140.228 31.3912 108.837 0 70.1142 0C31.3912 0 0 31.3912 0 70.1142C0 108.837 31.3912 140.228 70.1142 140.228Z" fill="#665E5B"/>
</mask>
<g mask="url(#mask0_2207_490)">
<path d="M70.1142 140.228C108.837 140.228 140.228 108.837 140.228 70.1142C140.228 31.3912 108.837 0 70.1142 0C31.3912 0 0 31.3912 0 70.1142C0 108.837 31.3912 140.228 70.1142 140.228Z" fill="#665E5B"/>
<path d="M66.0459 122.801C69.0926 121.717 71.8948 120.041 74.2909 117.869C76.6869 115.698 78.6295 113.073 80.0065 110.147L90.5508 87.688C90.6233 87.518 90.6607 87.3351 90.6607 87.1503C90.6607 86.9654 90.6233 86.7825 90.5508 86.6125C90.429 86.2719 90.1794 85.992 89.8548 85.8322L78.1507 80.2859C77.9846 80.2127 77.805 80.1749 77.6235 80.1749C77.4419 80.1749 77.2624 80.2127 77.0963 80.2859C76.9251 80.3477 76.768 80.4429 76.6341 80.566C76.5001 80.6891 76.392 80.8376 76.316 81.0029L65.7717 103.483C65.2977 104.588 64.6061 105.587 63.7383 106.419C62.8704 107.251 61.844 107.9 60.7201 108.327C59.5962 108.755 58.3979 108.952 57.1963 108.906C55.9948 108.861 54.8147 108.574 53.7263 108.063C52.6379 107.552 51.6634 106.827 50.8609 105.932C50.0584 105.037 49.4442 103.989 49.055 102.851C48.6657 101.714 48.5094 100.509 48.5952 99.3101C48.681 98.1108 49.0073 96.941 49.5546 95.8704L60.0989 73.39C60.2501 73.0568 60.264 72.6775 60.1377 72.3342C60.0114 71.9908 59.755 71.711 59.424 71.5552L47.7199 66.0511C47.3816 65.9151 47.0037 65.9151 46.6654 66.0511C46.4925 66.1096 46.3337 66.2035 46.1994 66.327C46.065 66.4505 45.958 66.6008 45.8852 66.7681L35.3409 89.2486C33.8 92.5129 33.0005 96.0777 33 99.6874C33.0051 102.565 33.5118 105.419 34.4973 108.123C35.5992 111.173 37.2929 113.976 39.4808 116.37C41.6688 118.765 44.3081 120.703 47.2473 122.075C50.1864 123.446 53.3675 124.224 56.6079 124.363C59.8484 124.502 63.0844 124 66.1302 122.885L66.0459 122.801ZM52.6967 110.147C54.091 110.803 55.6008 111.178 57.1399 111.25C58.679 111.321 60.2172 111.089 61.6665 110.566C63.1159 110.043 64.4479 109.24 65.5865 108.202C66.7251 107.164 67.6479 105.912 68.3023 104.517L73.1949 93.9724L82.3895 98.1901L77.497 108.734C76.2756 111.338 74.5536 113.675 72.429 115.613C70.3045 117.55 67.819 119.051 65.1147 120.028C62.4103 121.005 59.54 121.44 56.6676 121.308C53.7951 121.176 50.9768 120.479 48.3736 119.258C45.7704 118.036 43.4332 116.314 41.4955 114.19C39.5578 112.065 38.0575 109.58 37.0803 106.875C36.1031 104.171 35.6683 101.301 35.8004 98.4283C35.9325 95.5558 36.6291 92.7375 37.8504 90.1343L42.764 79.59L51.9586 83.9132L47.045 94.352C46.3497 95.7616 45.9443 97.2964 45.853 98.8656C45.7616 100.435 45.9861 102.006 46.5132 103.487C47.0402 104.968 47.859 106.328 48.9212 107.486C49.9833 108.645 51.2672 109.578 52.6967 110.232L52.6967 110.147ZM83.5705 95.8704L74.3758 91.5472L78.2561 83.3016L87.4508 87.5193L83.5705 95.8704ZM53.1396 81.5723L43.945 77.3546L47.8253 69.0879L57.0621 73.411L53.1396 81.5723Z" fill="white"/>
<path d="M54.9523 65.9454L59.4864 62.3603C59.6883 62.2034 59.8453 61.996 59.9416 61.759C60.0378 61.5221 60.07 61.2639 60.0347 61.0106C60.0092 60.7547 59.9181 60.5096 59.7704 60.2991C59.6226 60.0885 59.4232 59.9196 59.1912 59.8086L56.7027 58.6487L59.3387 56.5398C59.65 56.2868 59.8536 55.925 59.9082 55.5276C59.9309 55.333 59.9146 55.1358 59.8603 54.9475C59.806 54.7592 59.7147 54.5836 59.5918 54.431C59.4704 54.2754 59.3193 54.1454 59.1474 54.0484C58.9755 53.9514 58.7861 53.8893 58.5901 53.8658C58.3941 53.8423 58.1953 53.8577 58.0053 53.9113C57.8153 53.9649 57.6378 54.0555 57.483 54.1779L52.9278 57.763C52.7496 57.9037 52.6057 58.0832 52.507 58.2878C52.4084 58.4924 52.3575 58.7168 52.3584 58.9439L52.3584 59.1127C52.3854 59.3655 52.4773 59.6071 52.625 59.814C52.7728 60.0209 52.9716 60.1861 53.202 60.2936L55.6904 61.4535L53.0544 63.5623C52.7494 63.8141 52.553 64.1735 52.5059 64.5662C52.4588 64.9588 52.5646 65.3545 52.8013 65.6712C53.0543 65.9825 53.4161 66.186 53.8135 66.2406C54.0134 66.2696 54.2172 66.2585 54.4127 66.2078C54.6082 66.1571 54.7917 66.0679 54.9523 65.9454Z" fill="white"/>
<path d="M85.7423 73.1789C85.5674 73.3227 85.4259 73.5028 85.3276 73.7067C85.2292 73.9107 85.1764 74.1335 85.1729 74.3599L85.1729 74.5286C85.2024 74.7861 85.2974 75.0318 85.4488 75.2422C85.6001 75.4526 85.8028 75.6208 86.0375 75.7307L88.5049 76.8905L85.8899 78.9994C85.7324 79.1217 85.6008 79.2742 85.5031 79.4481C85.4053 79.6219 85.3432 79.8135 85.3205 80.0117C85.2736 80.4114 85.3874 80.8134 85.6368 81.1293C85.7561 81.2833 85.9056 81.4112 86.076 81.5055C86.2464 81.5998 86.4342 81.6584 86.628 81.6777C87.0277 81.7245 87.4298 81.6107 87.7457 81.3613L92.2798 77.7763C92.4808 77.6176 92.6384 77.4106 92.738 77.1746C92.8375 76.9387 92.8758 76.6813 92.8491 76.4266C92.8201 76.1716 92.7251 75.9285 92.5735 75.7214C92.4219 75.5143 92.2188 75.3503 91.9845 75.2456L89.5172 74.0858L92.1321 71.9769C92.289 71.8587 92.4203 71.7099 92.5182 71.5396C92.6161 71.3692 92.6784 71.1808 92.7015 70.9857C92.7484 70.586 92.6346 70.1839 92.3852 69.868C92.1322 69.5567 91.7703 69.3532 91.3729 69.2986C90.9799 69.2552 90.5858 69.3689 90.2763 69.615L85.7423 73.1789Z" fill="white"/>
<path d="M99.5985 66.5989C99.938 66.4752 100.217 66.2262 100.379 65.9029L106.558 52.6593C106.709 52.3318 106.726 51.9577 106.603 51.6181C106.481 51.2786 106.23 51.001 105.904 50.8457L102.973 49.4749C105.841 41.3347 130.894 -13.7909 147.87 -50.7803C147.99 -51.0336 148.028 -51.3179 147.979 -51.5938C147.93 -51.8696 147.796 -52.1233 147.596 -52.3197L141.269 -58.6463L144.623 -66.3226C146.141 -69.5702 144.306 -73.2185 140.152 -75.1587C136.567 -76.8458 132.054 -76.656 130.367 -73.0498L126.423 -65.6477L117.271 -66.5545C116.992 -66.5802 116.713 -66.5216 116.468 -66.3862C116.224 -66.2508 116.026 -66.0449 115.9 -65.7954C115.478 -64.9518 75.8316 16.2393 67.2696 32.7306L64.3594 31.3598C64.1966 31.2784 64.0191 31.2308 63.8375 31.2198C63.656 31.2087 63.474 31.2345 63.3027 31.2956C63.1313 31.3566 62.974 31.4517 62.8403 31.5751C62.7066 31.6985 62.5993 31.8476 62.5247 32.0136L56.3457 45.1939C56.2619 45.372 56.2187 45.5665 56.2192 45.7633C56.1874 45.9163 56.1874 46.0743 56.2192 46.2273C56.3429 46.5668 56.5919 46.846 56.9151 47.0076L98.4808 66.5145C98.6515 66.6041 98.8387 66.6578 99.0309 66.6723C99.2231 66.6868 99.4163 66.6618 99.5985 66.5989ZM133.804 -54.6395C96.5828 8.37325 77.6874 32.836 71.9513 34.966L69.737 33.9326C78.0037 18.1162 113.243 -54.0912 117.84 -63.5178C122.883 -60.0833 128.226 -57.1117 133.804 -54.6395ZM135.554 -53.8803C138.579 -52.6145 141.686 -51.5576 144.855 -50.717C141.86 -44.1795 135.512 -30.3665 128.511 -14.8664C111.64 13.8774 98.9869 34.8816 90.5514 43.6966L73.9336 35.915C86.1439 27.8802 116.975 -22.3739 135.554 -53.8803ZM92.2174 44.4769C99.2399 37.0116 108.899 21.7856 121.256 1.03441C111.893 21.9543 102.825 42.115 100.526 48.4416L92.2174 44.4769ZM132.813 -71.7634C133.846 -73.9988 137.031 -73.4927 138.971 -72.5859C141.185 -71.5525 143.189 -69.4859 142.092 -67.3559L138.359 -58.7939C138.244 -58.5432 138.209 -58.2632 138.258 -57.9917C138.307 -57.7202 138.438 -57.4703 138.633 -57.2755L142.598 -53.332C135.169 -55.7366 128.081 -59.0893 121.509 -63.3069L126.971 -62.7586C127.242 -62.7334 127.514 -62.7879 127.753 -62.9153C127.993 -63.0427 128.191 -63.2375 128.321 -63.4756L132.813 -71.7634ZM59.3825 45.1518L64.4016 34.4598L103.458 52.8069L98.4385 63.4988L59.3825 45.1518Z" fill="white"/>
</g>
</svg>
