<svg width="189" height="138" viewBox="0 0 189 138" fill="none" xmlns="http://www.w3.org/2000/svg">
<path d="M0.333333 3C0.333333 4.47276 1.52724 5.66667 3 5.66667C4.47276 5.66667 5.66667 4.47276 5.66667 3C5.66667 1.52724 4.47276 0.333333 3 0.333333C1.52724 0.333333 0.333333 1.52724 0.333333 3ZM183.333 135C183.333 136.473 184.527 137.667 186 137.667C187.473 137.667 188.667 136.473 188.667 135C188.667 133.527 187.473 132.333 186 132.333C184.527 132.333 183.333 133.527 183.333 135ZM3 3.5H171V2.5H3V3.5ZM185.5 18V135H186.5V18H185.5ZM171 3.5C179.008 3.5 185.5 9.99187 185.5 18H186.5C186.5 9.43959 179.56 2.5 171 2.5V3.5Z" fill="#181818"/>
</svg>
