<svg width="64" height="14" viewBox="0 0 64 14" fill="none" xmlns="http://www.w3.org/2000/svg">
<path d="M1.61921 11.0636L0.968187 10.3625L1.75275 9.57796C1.45228 9.22184 1.22414 8.83791 1.06834 8.42615C0.923673 8.01439 0.851337 7.56925 0.851337 7.09072C0.851337 6.37849 1.02383 5.73303 1.36882 5.15435C1.72493 4.56453 2.1979 4.09713 2.78771 3.75214C3.37753 3.39603 4.02298 3.21797 4.72409 3.21797C5.18036 3.21797 5.61437 3.29587 6.02613 3.45167C6.44902 3.59634 6.83852 3.81892 7.19463 4.11939L8.04597 3.26805L8.6803 3.98585L7.84565 4.82049C8.10161 5.16548 8.2908 5.52715 8.41321 5.90553C8.53563 6.27277 8.59683 6.66783 8.59683 7.09072C8.59683 7.79182 8.41878 8.43728 8.06266 9.02709C7.71767 9.61691 7.25027 10.0899 6.66046 10.446C6.08177 10.791 5.43631 10.9635 4.72409 10.9635C4.3012 10.9635 3.90057 10.9023 3.5222 10.7798C3.14383 10.6574 2.78771 10.4738 2.45385 10.229L1.61921 11.0636ZM2.48724 8.84347L6.46014 4.87057C6.19306 4.67025 5.91484 4.52002 5.6255 4.41986C5.34729 4.3197 5.04681 4.26962 4.72409 4.26962C4.20104 4.26962 3.72251 4.3976 3.2885 4.65356C2.86561 4.89839 2.52619 5.23781 2.27023 5.67183C2.0254 6.09471 1.90299 6.56768 1.90299 7.09072C1.90299 7.41345 1.9475 7.72505 2.03653 8.02552C2.13669 8.31487 2.28692 8.58752 2.48724 8.84347ZM4.72409 9.91182C5.236 9.91182 5.7034 9.7894 6.12629 9.54457C6.5603 9.28862 6.90529 8.94919 7.16125 8.52631C7.4172 8.09229 7.54518 7.61376 7.54518 7.09072C7.54518 6.81251 7.50623 6.55098 7.42833 6.30616C7.36156 6.0502 7.25584 5.80537 7.11117 5.57167L3.20503 9.4778C3.4276 9.62247 3.66687 9.73376 3.92283 9.81166C4.17878 9.87843 4.44587 9.91182 4.72409 9.91182ZM19.5901 13.166C18.8076 13.166 18.1101 13.0316 17.4976 12.7629C16.889 12.4942 16.4049 12.1207 16.0453 11.6425C15.6896 11.1604 15.4959 10.6012 15.4643 9.96493H16.9582C16.9898 10.3562 17.1241 10.6941 17.3612 10.9786C17.5984 11.2592 17.9086 11.4765 18.2919 11.6307C18.6753 11.7848 19.1001 11.8618 19.5664 11.8618C20.0881 11.8618 20.5504 11.771 20.9535 11.5892C21.3566 11.4074 21.6728 11.1545 21.902 10.8304C22.1312 10.5063 22.2458 10.1309 22.2458 9.7041C22.2458 9.25754 22.1352 8.86432 21.9138 8.52446C21.6925 8.18064 21.3685 7.91191 20.9417 7.71827C20.5149 7.52462 19.9932 7.4278 19.3767 7.4278H18.4046V6.12367H19.3767C19.8589 6.12367 20.2817 6.03673 20.6453 5.86285C21.0128 5.68896 21.2993 5.44394 21.5048 5.12779C21.7143 4.81164 21.819 4.44016 21.819 4.01335C21.819 3.60235 21.7281 3.2447 21.5463 2.94041C21.3645 2.63611 21.1077 2.39899 20.7757 2.22906C20.4477 2.05913 20.0604 1.97416 19.6138 1.97416C19.1949 1.97416 18.7997 2.05123 18.4283 2.20535C18.0607 2.35552 17.7604 2.57485 17.5272 2.86334C17.2941 3.14788 17.1676 3.4917 17.1478 3.89479H15.7252C15.7489 3.25854 15.9405 2.70132 16.3002 2.22313C16.6598 1.741 17.1301 1.36557 17.711 1.09684C18.2959 0.828109 18.9381 0.693744 19.6375 0.693744C20.3884 0.693744 21.0326 0.845892 21.57 1.15019C22.1075 1.45053 22.5205 1.8477 22.809 2.34169C23.0974 2.83568 23.2417 3.36919 23.2417 3.94222C23.2417 4.6259 23.0619 5.2088 22.7023 5.69094C22.3466 6.17307 21.8625 6.50701 21.2499 6.69275V6.78759C22.0166 6.91405 22.6153 7.24009 23.0461 7.76569C23.4768 8.28734 23.6922 8.93348 23.6922 9.7041C23.6922 10.3641 23.5124 10.9569 23.1528 11.4825C22.7971 12.0041 22.311 12.4151 21.6945 12.7155C21.078 13.0158 20.3766 13.166 19.5901 13.166ZM30.0765 13.166C29.1834 13.166 28.4226 12.9229 27.7943 12.4369C27.1659 11.9468 26.6858 11.2374 26.3538 10.3087C26.0219 9.3761 25.8559 8.2498 25.8559 6.92986C25.8559 5.61783 26.0219 4.49746 26.3538 3.56876C26.6897 2.63611 27.1719 1.92476 27.8002 1.43473C28.4325 0.940738 29.1913 0.693744 30.0765 0.693744C30.9618 0.693744 31.7185 0.940738 32.3469 1.43473C32.9792 1.92476 33.4613 2.63611 33.7933 3.56876C34.1292 4.49746 34.2972 5.61783 34.2972 6.92986C34.2972 8.2498 34.1312 9.3761 33.7992 10.3087C33.4673 11.2374 32.9871 11.9468 32.3588 12.4369C31.7304 12.9229 30.9697 13.166 30.0765 13.166ZM30.0765 11.8618C30.9618 11.8618 31.6494 11.435 32.1394 10.5814C32.6295 9.72782 32.8745 8.51063 32.8745 6.92986C32.8745 5.87865 32.7619 4.98355 32.5366 4.24454C32.3153 3.50553 31.9952 2.94238 31.5763 2.55509C31.1613 2.16781 30.6614 1.97416 30.0765 1.97416C29.1992 1.97416 28.5135 2.4069 28.0196 3.27237C27.5256 4.13388 27.2786 5.35305 27.2786 6.92986C27.2786 7.98107 27.3892 8.8742 27.6105 9.60926C27.8318 10.3443 28.15 10.9035 28.5649 11.2868C28.9838 11.6702 29.4877 11.8618 30.0765 11.8618ZM46.2478 11.1031L49.4251 3.89479H50.7529L46.8168 13H45.6787L41.8137 3.89479H43.1178L46.2478 11.1031ZM42.6673 3.89479V13H41.2683V3.89479H42.6673ZM49.8282 13V3.89479H51.2272V13H49.8282ZM58.7674 11.1031L61.9447 3.89479H63.2726L59.3365 13H58.1983L54.3334 3.89479H55.6375L58.7674 11.1031ZM55.187 3.89479V13H53.788V3.89479H55.187ZM62.3478 13V3.89479H63.7468V13H62.3478Z" fill="white"/>
</svg>
