<svg width="43" height="342" viewBox="0 0 43 342" fill="none" xmlns="http://www.w3.org/2000/svg">
<path d="M37 342L42.7735 332L31.2265 332L37 342ZM37 0L31.2265 10L42.7735 10L37 0ZM38 333L38 9L36 9L36 333L38 333Z" fill="white"/>
<path d="M14.624 191.662L14.624 186.37L17 186.838L17 196.378L15.11 196L10.61 190.258C10.046 189.562 9.572 189.082 9.188 188.818C8.804 188.542 8.402 188.404 7.982 188.404C7.562 188.404 7.226 188.566 6.974 188.89C6.722 189.202 6.596 189.658 6.596 190.258C6.596 190.762 6.71 191.248 6.938 191.716C7.166 192.184 7.49 192.592 7.91 192.94L6.488 194.902C5.78 194.386 5.222 193.678 4.814 192.778C4.394 191.878 4.184 190.894 4.184 189.826C4.184 188.95 4.328 188.182 4.616 187.522C4.904 186.85 5.306 186.334 5.822 185.974C6.338 185.602 6.92 185.416 7.568 185.416C8.348 185.416 9.08 185.632 9.764 186.064C10.448 186.496 11.204 187.246 12.032 188.314L14.624 191.662ZM17.216 180.036C17.216 181.44 16.796 182.55 15.956 183.366C15.104 184.182 13.934 184.59 12.446 184.59C10.934 184.59 9.548 184.314 8.288 183.762C7.028 183.198 6.032 182.418 5.3 181.422C4.556 180.426 4.184 179.292 4.184 178.02C4.184 176.616 4.61 175.506 5.462 174.69C6.302 173.874 7.466 173.466 8.954 173.466C10.466 173.466 11.852 173.748 13.112 174.312C14.372 174.864 15.374 175.638 16.118 176.634C16.85 177.63 17.216 178.764 17.216 180.036ZM14.75 179.766C14.75 179.07 14.45 178.47 13.85 177.966C13.25 177.45 12.506 177.06 11.618 176.796C10.718 176.532 9.854 176.4 9.026 176.4C8.222 176.4 7.628 176.568 7.244 176.904C6.848 177.228 6.65 177.69 6.65 178.29C6.65 178.986 6.95 179.592 7.55 180.108C8.15 180.612 8.9 180.996 9.8 181.26C10.688 181.524 11.546 181.656 12.374 181.656C13.178 181.656 13.778 181.494 14.174 181.17C14.558 180.834 14.75 180.366 14.75 179.766ZM17.216 167.837C17.216 169.241 16.796 170.351 15.956 171.167C15.104 171.983 13.934 172.391 12.446 172.391C10.934 172.391 9.548 172.115 8.288 171.563C7.028 170.999 6.032 170.219 5.3 169.223C4.556 168.227 4.184 167.093 4.184 165.821C4.184 164.417 4.61 163.307 5.462 162.491C6.302 161.675 7.466 161.267 8.954 161.267C10.466 161.267 11.852 161.549 13.112 162.113C14.372 162.665 15.374 163.439 16.118 164.435C16.85 165.431 17.216 166.565 17.216 167.837ZM14.75 167.567C14.75 166.871 14.45 166.271 13.85 165.767C13.25 165.251 12.506 164.861 11.618 164.597C10.718 164.333 9.854 164.201 9.026 164.201C8.222 164.201 7.628 164.369 7.244 164.705C6.848 165.029 6.65 165.491 6.65 166.091C6.65 166.787 6.95 167.393 7.55 167.909C8.15 168.413 8.9 168.797 9.8 169.061C10.688 169.325 11.546 169.457 12.374 169.457C13.178 169.457 13.778 169.295 14.174 168.971C14.558 168.635 14.75 168.167 14.75 167.567ZM7.316 141.648L17 143.556L17 146.094L11.276 144.978L16.064 148.758L16.064 149.946L11.078 151.836L17 153.006L17 155.544L7.316 153.6L7.316 150.702L12.914 148.722L7.316 144.312L7.316 141.648ZM7.316 126.97L17 128.878L17 131.416L11.276 130.3L16.064 134.08L16.064 135.268L11.078 137.158L17 138.328L17 140.866L7.316 138.922L7.316 136.024L12.914 134.044L7.316 129.634L7.316 126.97Z" fill="white"/>
</svg>
