<svg width="19" height="149" viewBox="0 0 19 149" fill="none" xmlns="http://www.w3.org/2000/svg">
<path d="M16.0356 148.591L18.5379 144.257L13.5334 144.257L16.0356 148.591ZM16.0356 0.369568L13.5334 4.70352L18.5378 4.70352L16.0356 0.369568ZM16.469 144.69L16.469 4.27013L15.6022 4.27013L15.6022 144.69L16.469 144.69Z" fill="white"/>
<path d="M6.97025 83.4351L6.97025 81.1416L8 81.3444L8 85.479L7.18088 85.3152L5.2306 82.8266C4.98617 82.525 4.78074 82.317 4.61431 82.2025C4.44789 82.0829 4.27367 82.0231 4.09164 82.0231C3.90961 82.0231 3.76399 82.0933 3.65478 82.2337C3.54556 82.369 3.49095 82.5666 3.49095 82.8266C3.49095 83.0451 3.54036 83.2557 3.63917 83.4585C3.73799 83.6613 3.87841 83.8382 4.06044 83.989L3.44415 84.8393C3.1373 84.6157 2.89547 84.3088 2.71864 83.9188C2.53662 83.5287 2.4456 83.1023 2.4456 82.6394C2.4456 82.2597 2.50801 81.9269 2.63283 81.6409C2.75765 81.3496 2.93187 81.126 3.1555 80.97C3.37914 80.8087 3.63137 80.7281 3.91221 80.7281C4.25026 80.7281 4.56751 80.8217 4.86395 81.009C5.16039 81.1962 5.48804 81.5212 5.84689 81.9841L6.97025 83.4351ZM8.09361 78.3964C8.09361 79.0049 7.91159 79.486 7.54753 79.8397C7.17828 80.1933 6.67121 80.3701 6.02632 80.3701C5.37102 80.3701 4.77034 80.2505 4.22426 80.0113C3.67818 79.7668 3.24652 79.4288 2.92927 78.9971C2.60683 78.5655 2.4456 78.074 2.4456 77.5227C2.4456 76.9142 2.63023 76.4332 2.99948 76.0795C3.36353 75.7259 3.86801 75.549 4.5129 75.549C5.16819 75.549 5.76888 75.6713 6.31496 75.9157C6.86104 76.1549 7.2953 76.4904 7.61774 76.922C7.93499 77.3537 8.09361 77.8452 8.09361 78.3964ZM7.02486 78.2794C7.02486 77.9778 6.89484 77.7177 6.6348 77.4993C6.37477 77.2757 6.05232 77.1067 5.66747 76.9922C5.27741 76.8778 4.90296 76.8206 4.5441 76.8206C4.19565 76.8206 3.93822 76.8934 3.77179 77.0391C3.60017 77.1795 3.51436 77.3797 3.51436 77.6397C3.51436 77.9414 3.64437 78.204 3.90441 78.4277C4.16445 78.6461 4.4895 78.8125 4.87955 78.9269C5.26441 79.0413 5.63626 79.0985 5.99511 79.0985C6.34356 79.0985 6.6036 79.0283 6.77522 78.8879C6.94165 78.7423 7.02486 78.5395 7.02486 78.2794ZM8.09361 73.1094C8.09361 73.7178 7.91159 74.1989 7.54753 74.5526C7.17828 74.9062 6.67121 75.083 6.02632 75.083C5.37102 75.083 4.77034 74.9634 4.22426 74.7242C3.67818 74.4798 3.24652 74.1417 2.92927 73.71C2.60683 73.2784 2.4456 72.7869 2.4456 72.2356C2.4456 71.6271 2.63023 71.1461 2.99948 70.7924C3.36353 70.4388 3.86801 70.262 4.5129 70.262C5.16819 70.262 5.76888 70.3842 6.31496 70.6286C6.86104 70.8678 7.2953 71.2033 7.61774 71.6349C7.93499 72.0666 8.09361 72.5581 8.09361 73.1094ZM7.02486 72.9923C7.02486 72.6907 6.89484 72.4307 6.6348 72.2122C6.37477 71.9886 6.05232 71.8196 5.66746 71.7052C5.27741 71.5907 4.90296 71.5335 4.5441 71.5335C4.19565 71.5335 3.93822 71.6063 3.77179 71.752C3.60017 71.8924 3.51436 72.0926 3.51436 72.3527C3.51436 72.6543 3.64437 72.9169 3.90441 73.1406C4.16445 73.359 4.4895 73.5254 4.87955 73.6398C5.26441 73.7543 5.63626 73.8115 5.99511 73.8115C6.34356 73.8115 6.6036 73.7413 6.77522 73.6008C6.94165 73.4552 7.02486 73.2524 7.02486 72.9923ZM3.803 61.7592L8 62.5861L8 63.6861L5.51924 63.2024L7.59434 64.8407L7.59434 65.3555L5.43343 66.1747L8 66.6817L8 67.7817L3.803 66.9392L3.803 65.6832L6.22915 64.8251L3.803 62.9138L3.803 61.7592ZM3.803 55.398L8 56.2249L8 57.3248L5.51924 56.8412L7.59434 58.4794L7.59434 58.9943L5.43343 59.8134L8 60.3205L8 61.4204L3.803 60.5779L3.803 59.3219L6.22914 58.4638L3.803 56.5525L3.803 55.398Z" fill="white"/>
</svg>
