<svg width="44" height="17" viewBox="0 0 44 17" fill="none" xmlns="http://www.w3.org/2000/svg">
<path d="M0.744629 13.7935L5.07858 16.2957L5.07858 11.2912L0.744629 13.7935ZM43.2174 13.7935L38.8834 11.2912V16.2957L43.2174 13.7935ZM4.64519 14.2269L39.3168 14.2269V13.3601L4.64519 13.3601V14.2269Z" fill="white"/>
<path d="M14.9637 7.21139H14.0666L13.8404 8.35815H12.6078L12.8418 7.21139H9.9008L10.0646 6.36107L13.2787 2.89737H14.6595L11.6639 6.18164H13.0993L13.3021 5.1597H14.4801L14.2772 6.18164H15.1744L14.9637 7.21139ZM17.8622 2.80376C18.2991 2.80376 18.6813 2.88957 19.009 3.06119C19.3418 3.23282 19.5993 3.48766 19.7813 3.8257C19.9685 4.15855 20.0621 4.56421 20.0621 5.04268C20.0621 5.59396 19.9451 6.13224 19.7111 6.65751C19.477 7.17758 19.113 7.60665 18.6189 7.94469C18.1248 8.28274 17.5138 8.45177 16.7857 8.45177C16.484 8.45177 16.1954 8.42056 15.9197 8.35815C15.6493 8.29054 15.4283 8.19953 15.2566 8.08512L15.8339 7.15678C16.094 7.33361 16.4346 7.42202 16.8559 7.42202C17.3655 7.42202 17.7712 7.279 18.0728 6.99296C18.3797 6.70692 18.5825 6.33766 18.6813 5.8852C18.3693 6.17644 17.961 6.32206 17.4565 6.32206C17.1289 6.32206 16.8299 6.25965 16.5594 6.13484C16.289 6.01002 16.0731 5.83059 15.9119 5.59656C15.7507 5.35732 15.6701 5.07388 15.6701 4.74624C15.6701 4.35618 15.7637 4.01553 15.9509 3.72429C16.1434 3.42785 16.406 3.20161 16.7388 3.04559C17.0717 2.88437 17.4461 2.80376 17.8622 2.80376ZM17.7842 5.37813C18.0806 5.37813 18.3199 5.29752 18.5019 5.13629C18.6839 4.97507 18.7749 4.76964 18.7749 4.52C18.7749 4.30157 18.6943 4.11955 18.5331 3.97393C18.3719 3.8231 18.1534 3.74769 17.8778 3.74769C17.597 3.74769 17.3681 3.8283 17.1913 3.98953C17.0145 4.15075 16.9261 4.36658 16.9261 4.63702C16.9261 4.86585 17.0041 5.04788 17.1601 5.1831C17.3161 5.31312 17.5242 5.37813 17.7842 5.37813ZM28.5569 4.16115L27.73 8.35815H26.6301L27.1137 5.8774L25.4755 7.9525H24.9606L24.1415 5.79159L23.6344 8.35815H22.5345L23.377 4.16115H24.633L25.4911 6.5873L27.4024 4.16115H28.5569ZM34.9182 4.16115L34.0913 8.35815H32.9913L33.475 5.8774L31.8368 7.9525H31.3219L30.5028 5.79159L29.9957 8.35815H28.8957L29.7383 4.16115H30.9942L31.8524 6.5873L33.7636 4.16115H34.9182Z" fill="white"/>
</svg>
