<svg width="28" height="7" viewBox="0 0 28 7" fill="none" xmlns="http://www.w3.org/2000/svg">
<path d="M0.34336 5.16078L0.0612094 4.85693L0.401237 4.5169C0.271013 4.36256 0.17214 4.19617 0.104617 4.01771C0.0419171 3.83926 0.0105671 3.64634 0.0105671 3.43895C0.0105671 3.13027 0.0853248 2.85053 0.23484 2.59973C0.389179 2.34411 0.59416 2.14154 0.849783 1.99202C1.10541 1.83768 1.38514 1.76051 1.689 1.76051C1.88674 1.76051 2.07484 1.79428 2.2533 1.8618C2.43658 1.9245 2.60538 2.02096 2.75972 2.15118L3.12869 1.78222L3.4036 2.09331L3.04187 2.45504C3.1528 2.60455 3.2348 2.7613 3.28785 2.92529C3.3409 3.08445 3.36743 3.25567 3.36743 3.43895C3.36743 3.7428 3.29026 4.02254 3.13592 4.27816C2.98641 4.53378 2.78384 4.73876 2.52821 4.8931C2.27741 5.04262 1.99768 5.11738 1.689 5.11738C1.50572 5.11738 1.33209 5.09085 1.16811 5.0378C1.00412 4.98474 0.849783 4.90516 0.70509 4.79905L0.34336 5.16078ZM0.71956 4.19858L2.4414 2.47674C2.32564 2.38993 2.20507 2.32481 2.07967 2.28141C1.95909 2.238 1.82887 2.21629 1.689 2.21629C1.46231 2.21629 1.25492 2.27176 1.06682 2.38269C0.883544 2.4888 0.736441 2.6359 0.62551 2.824C0.519402 3.00728 0.466348 3.21226 0.466348 3.43895C0.466348 3.57881 0.48564 3.71386 0.524225 3.84408C0.567633 3.96948 0.632744 4.08765 0.71956 4.19858ZM1.689 4.6616C1.91086 4.6616 2.11343 4.60854 2.29671 4.50243C2.48481 4.3915 2.63432 4.2444 2.74525 4.06112C2.85618 3.87302 2.91165 3.66563 2.91165 3.43895C2.91165 3.31837 2.89477 3.20503 2.86101 3.09892C2.83207 2.98799 2.78625 2.88188 2.72355 2.78059L1.03065 4.4735C1.12711 4.5362 1.23081 4.58443 1.34174 4.61819C1.45267 4.64713 1.56842 4.6616 1.689 4.6616ZM8.13187 6.07194C7.79275 6.07194 7.49045 6.0137 7.22498 5.89724C6.96121 5.78077 6.7514 5.61892 6.59554 5.41167C6.4414 5.20272 6.35747 4.96037 6.34377 4.68461H6.99119C7.00489 4.85418 7.06312 5.00062 7.16589 5.12393C7.26865 5.24554 7.4031 5.33974 7.56924 5.40654C7.73537 5.47333 7.91949 5.50673 8.1216 5.50673C8.34768 5.50673 8.54807 5.46734 8.72277 5.38855C8.89747 5.30977 9.03449 5.20015 9.13383 5.05971C9.23317 4.91926 9.28283 4.75655 9.28283 4.57157C9.28283 4.37803 9.23488 4.20762 9.13896 4.06032C9.04305 3.91131 8.90261 3.79485 8.71763 3.71092C8.53265 3.627 8.30657 3.58503 8.03938 3.58503H7.61805V3.01983H8.03938C8.24834 3.01983 8.4316 2.98215 8.58917 2.90679C8.74846 2.83143 8.87263 2.72524 8.9617 2.58822C9.05247 2.4512 9.09786 2.2902 9.09786 2.10523C9.09786 1.9271 9.05847 1.7721 8.97968 1.64022C8.90089 1.50834 8.78957 1.40557 8.6457 1.33192C8.50354 1.25828 8.33569 1.22145 8.14215 1.22145C7.9606 1.22145 7.78932 1.25485 7.62833 1.32165C7.46904 1.38673 7.33887 1.48179 7.23782 1.60682C7.13677 1.73014 7.08196 1.87915 7.0734 2.05384H6.45681C6.46709 1.77809 6.55016 1.5366 6.70602 1.32935C6.86188 1.1204 7.06569 0.95769 7.31746 0.841224C7.57095 0.724757 7.84927 0.666524 8.15243 0.666524C8.47785 0.666524 8.75702 0.732465 8.98996 0.864346C9.22289 0.994514 9.40187 1.16664 9.5269 1.38074C9.65193 1.59483 9.71445 1.82605 9.71445 2.0744C9.71445 2.3707 9.63652 2.62333 9.48066 2.83229C9.32651 3.04124 9.1167 3.18597 8.85122 3.26647V3.30757C9.1835 3.36238 9.44298 3.50368 9.62966 3.73147C9.81635 3.95756 9.9097 4.23759 9.9097 4.57157C9.9097 4.8576 9.83177 5.11451 9.67591 5.34231C9.52176 5.56839 9.3111 5.74651 9.04391 5.87668C8.77672 6.00685 8.47271 6.07194 8.13187 6.07194ZM12.6766 6.07194C12.2896 6.07194 11.9598 5.9666 11.6875 5.75593C11.4152 5.54355 11.2071 5.23612 11.0632 4.83362C10.9194 4.42942 10.8474 3.94129 10.8474 3.36923C10.8474 2.8006 10.9194 2.31504 11.0632 1.91254C11.2088 1.50834 11.4178 1.20004 11.6901 0.987663C11.9641 0.77357 12.293 0.666524 12.6766 0.666524C13.0603 0.666524 13.3883 0.77357 13.6606 0.987663C13.9346 1.20004 14.1436 1.50834 14.2875 1.91254C14.433 2.31504 14.5058 2.8006 14.5058 3.36923C14.5058 3.94129 14.4339 4.42942 14.29 4.83362C14.1462 5.23612 13.9381 5.54355 13.6657 5.75593C13.3934 5.9666 13.0637 6.07194 12.6766 6.07194ZM12.6766 5.50673C13.0603 5.50673 13.3583 5.32175 13.5707 4.9518C13.7831 4.58185 13.8893 4.05433 13.8893 3.36923C13.8893 2.91364 13.8404 2.5257 13.7428 2.20542C13.6469 1.88514 13.5082 1.64107 13.3266 1.47323C13.1468 1.30538 12.9301 1.22145 12.6766 1.22145C12.2964 1.22145 11.9992 1.409 11.7851 1.78409C11.5711 2.15747 11.464 2.68585 11.464 3.36923C11.464 3.82482 11.512 4.2119 11.6079 4.53047C11.7038 4.84904 11.8417 5.09139 12.0215 5.25753C12.2031 5.42366 12.4214 5.50673 12.6766 5.50673ZM19.6852 5.17788L21.0622 2.05384H21.6377L19.9318 6H19.4385L17.7635 2.05384H18.3287L19.6852 5.17788ZM18.1334 2.05384V6H17.5271V2.05384H18.1334ZM21.2369 6V2.05384H21.8432V6H21.2369ZM25.1111 5.17788L26.4882 2.05384H27.0637L25.3578 6H24.8645L23.1894 2.05384H23.7546L25.1111 5.17788ZM23.5594 2.05384V6H22.9531V2.05384H23.5594ZM26.6629 6V2.05384H27.2692V6H26.6629Z" fill="white"/>
</svg>
