<svg width="28" height="7" viewBox="0 0 28 7" fill="none" xmlns="http://www.w3.org/2000/svg">
<path d="M0.476172 5.16078L0.194022 4.85693L0.534049 4.5169C0.403826 4.36256 0.304953 4.19617 0.23743 4.01771C0.17473 3.83926 0.14338 3.64634 0.14338 3.43895C0.14338 3.13027 0.218137 2.85053 0.367653 2.59973C0.521991 2.34411 0.726972 2.14154 0.982595 1.99202C1.23822 1.83768 1.51796 1.76051 1.82181 1.76051C2.01956 1.76051 2.20766 1.79428 2.38611 1.8618C2.56939 1.9245 2.7382 2.02096 2.89253 2.15118L3.2615 1.78222L3.53642 2.09331L3.17468 2.45504C3.28562 2.60455 3.36761 2.7613 3.42066 2.92529C3.47372 3.08445 3.50024 3.25567 3.50024 3.43895C3.50024 3.7428 3.42307 4.02254 3.26873 4.27816C3.11922 4.53378 2.91665 4.73876 2.66103 4.8931C2.41023 5.04262 2.13049 5.11738 1.82181 5.11738C1.63853 5.11738 1.4649 5.09085 1.30092 5.0378C1.13693 4.98474 0.982595 4.90516 0.837903 4.79905L0.476172 5.16078ZM0.852372 4.19858L2.57421 2.47674C2.45846 2.38993 2.33788 2.32481 2.21248 2.28141C2.0919 2.238 1.96168 2.21629 1.82181 2.21629C1.59513 2.21629 1.38773 2.27176 1.19963 2.38269C1.01636 2.4888 0.869253 2.6359 0.758322 2.824C0.652214 3.00728 0.599161 3.21226 0.599161 3.43895C0.599161 3.57881 0.618453 3.71386 0.657038 3.84408C0.700445 3.96948 0.765557 4.08765 0.852372 4.19858ZM1.82181 4.6616C2.04367 4.6616 2.24624 4.60854 2.42952 4.50243C2.61762 4.3915 2.76713 4.2444 2.87807 4.06112C2.989 3.87302 3.04446 3.66563 3.04446 3.43895C3.04446 3.31837 3.02758 3.20503 2.99382 3.09892C2.96488 2.98799 2.91906 2.88188 2.85636 2.78059L1.16346 4.4735C1.25992 4.5362 1.36362 4.58443 1.47455 4.61819C1.58548 4.64713 1.70123 4.6616 1.82181 4.6616ZM6.36354 4.92097V4.39687L8.67574 0.738459H9.05597V1.5503H8.79906L7.05206 4.31466V4.35577H10.1658V4.92097H6.36354ZM8.84017 6V4.76169V4.51762V0.738459H9.44648V6H8.84017ZM12.8448 6.07194C12.4577 6.07194 12.128 5.9666 11.8557 5.75593C11.5833 5.54355 11.3752 5.23612 11.2314 4.83362C11.0875 4.42942 11.0156 3.94129 11.0156 3.36923C11.0156 2.8006 11.0875 2.31504 11.2314 1.91254C11.377 1.50834 11.5859 1.20004 11.8582 0.987663C12.1323 0.77357 12.4611 0.666524 12.8448 0.666524C13.2284 0.666524 13.5564 0.77357 13.8287 0.987663C14.1028 1.20004 14.3117 1.50834 14.4556 1.91254C14.6012 2.31504 14.674 2.8006 14.674 3.36923C14.674 3.94129 14.602 4.42942 14.4582 4.83362C14.3143 5.23612 14.1062 5.54355 13.8339 5.75593C13.5616 5.9666 13.2318 6.07194 12.8448 6.07194ZM12.8448 5.50673C13.2284 5.50673 13.5264 5.32175 13.7388 4.9518C13.9512 4.58185 14.0574 4.05433 14.0574 3.36923C14.0574 2.91364 14.0086 2.5257 13.911 2.20542C13.815 1.88514 13.6763 1.64107 13.4948 1.47323C13.3149 1.30538 13.0983 1.22145 12.8448 1.22145C12.4645 1.22145 12.1674 1.409 11.9533 1.78409C11.7392 2.15747 11.6321 2.68585 11.6321 3.36923C11.6321 3.82482 11.6801 4.2119 11.776 4.53047C11.8719 4.84904 12.0098 5.09139 12.1896 5.25753C12.3712 5.42366 12.5896 5.50673 12.8448 5.50673ZM19.8533 5.17788L21.2303 2.05384H21.8058L20.0999 6H19.6067L17.9316 2.05384H18.4968L19.8533 5.17788ZM18.3016 2.05384V6H17.6953V2.05384H18.3016ZM21.405 6V2.05384H22.0114V6H21.405ZM25.2793 5.17788L26.6563 2.05384H27.2318L25.5259 6H25.0326L23.3576 2.05384H23.9228L25.2793 5.17788ZM23.7275 2.05384V6H23.1212V2.05384H23.7275ZM26.831 6V2.05384H27.4373V6H26.831Z" fill="white"/>
</svg>
