<svg width="98" height="37" viewBox="0 0 98 37" fill="none" xmlns="http://www.w3.org/2000/svg">
<path d="M0 31L10 36.7735L10 25.2265L0 31ZM98 31L88 25.2265V36.7735L98 31ZM9 32L89 32V30L9 30V32Z" fill="white"/>
<path d="M32.808 14.354H30.738L30.216 17H27.372L27.912 14.354H21.126L21.504 12.392L28.92 4.4H32.106L25.194 11.978H28.506L28.974 9.62H31.692L31.224 11.978H33.294L32.808 14.354ZM39.4958 4.184C40.5038 4.184 41.3858 4.382 42.1418 4.778C42.9098 5.174 43.5038 5.762 43.9238 6.542C44.3558 7.31 44.5718 8.246 44.5718 9.35C44.5718 10.622 44.3018 11.864 43.7618 13.076C43.2218 14.276 42.3818 15.266 41.2418 16.046C40.1018 16.826 38.6918 17.216 37.0118 17.216C36.3158 17.216 35.6498 17.144 35.0138 17C34.3898 16.844 33.8798 16.634 33.4838 16.37L34.8158 14.228C35.4158 14.636 36.2018 14.84 37.1738 14.84C38.3498 14.84 39.2858 14.51 39.9818 13.85C40.6898 13.19 41.1578 12.338 41.3858 11.294C40.6658 11.966 39.7238 12.302 38.5598 12.302C37.8038 12.302 37.1138 12.158 36.4898 11.87C35.8658 11.582 35.3678 11.168 34.9958 10.628C34.6238 10.076 34.4378 9.422 34.4378 8.666C34.4378 7.766 34.6538 6.98 35.0858 6.308C35.5298 5.624 36.1358 5.102 36.9038 4.742C37.6718 4.37 38.5358 4.184 39.4958 4.184ZM39.3158 10.124C39.9998 10.124 40.5518 9.938 40.9718 9.566C41.3918 9.194 41.6018 8.72 41.6018 8.144C41.6018 7.64 41.4158 7.22 41.0438 6.884C40.6718 6.536 40.1678 6.362 39.5318 6.362C38.8838 6.362 38.3558 6.548 37.9478 6.92C37.5398 7.292 37.3358 7.79 37.3358 8.414C37.3358 8.942 37.5158 9.362 37.8758 9.674C38.2358 9.974 38.7158 10.124 39.3158 10.124ZM64.1724 7.316L62.2644 17H59.7264L60.8424 11.276L57.0624 16.064H55.8744L53.9844 11.078L52.8144 17H50.2764L52.2204 7.316H55.1184L57.0984 12.914L61.5084 7.316H64.1724ZM78.8502 7.316L76.9422 17H74.4042L75.5202 11.276L71.7402 16.064H70.5522L68.6622 11.078L67.4922 17H64.9542L66.8982 7.316H69.7962L71.7762 12.914L76.1862 7.316H78.8502Z" fill="white"/>
</svg>
