<svg width="66" height="13" viewBox="0 0 66 13" fill="none" xmlns="http://www.w3.org/2000/svg">
<path d="M1.61921 10.0636L0.968187 9.36253L1.75275 8.57796C1.45228 8.22184 1.22414 7.83791 1.06834 7.42615C0.923673 7.01439 0.851337 6.56925 0.851337 6.09072C0.851337 5.37849 1.02383 4.73303 1.36882 4.15435C1.72493 3.56453 2.1979 3.09713 2.78771 2.75214C3.37753 2.39603 4.02298 2.21797 4.72409 2.21797C5.18036 2.21797 5.61437 2.29587 6.02613 2.45167C6.44902 2.59634 6.83852 2.81892 7.19463 3.11939L8.04597 2.26805L8.6803 2.98585L7.84565 3.82049C8.10161 4.16548 8.2908 4.52715 8.41321 4.90553C8.53563 5.27277 8.59683 5.66783 8.59683 6.09072C8.59683 6.79182 8.41878 7.43728 8.06266 8.02709C7.71767 8.61691 7.25027 9.08987 6.66046 9.44599C6.08177 9.79098 5.43631 9.96347 4.72409 9.96347C4.3012 9.96347 3.90057 9.90226 3.5222 9.77985C3.14383 9.65743 2.78771 9.47381 2.45385 9.22898L1.61921 10.0636ZM2.48724 7.84347L6.46014 3.87057C6.19306 3.67025 5.91484 3.52002 5.6255 3.41986C5.34729 3.3197 5.04681 3.26962 4.72409 3.26962C4.20104 3.26962 3.72251 3.3976 3.2885 3.65356C2.86561 3.89839 2.52619 4.23781 2.27023 4.67183C2.0254 5.09471 1.90299 5.56768 1.90299 6.09072C1.90299 6.41345 1.9475 6.72505 2.03653 7.02552C2.13669 7.31487 2.28692 7.58752 2.48724 7.84347ZM4.72409 8.91182C5.236 8.91182 5.7034 8.7894 6.12629 8.54457C6.5603 8.28862 6.90529 7.94919 7.16125 7.52631C7.4172 7.09229 7.54518 6.61376 7.54518 6.09072C7.54518 5.81251 7.50623 5.55098 7.42833 5.30616C7.36156 5.0502 7.25584 4.80537 7.11117 4.57167L3.20503 8.4778C3.4276 8.62247 3.66687 8.73376 3.92283 8.81166C4.17878 8.87843 4.44587 8.91182 4.72409 8.91182ZM24.7056 8.92851H22.3686V12H21.1667V8.92851H14.573V8.06048L20.7661 0.314984H22.1015L16.1255 7.86017H21.2001V5.15592H22.3686V7.86017H24.7056V8.92851ZM30.4669 12.1002C29.5654 12.1002 28.7586 11.8609 28.0464 11.3824C27.3453 10.9038 26.7944 10.2194 26.3938 9.32914C26.0043 8.42772 25.8095 7.37051 25.8095 6.15749C25.8095 4.94448 26.0043 3.89282 26.3938 3.00254C26.7944 2.10112 27.3453 1.41115 28.0464 0.932621C28.7586 0.454092 29.5654 0.214827 30.4669 0.214827C31.3683 0.214827 32.1695 0.454092 32.8706 0.932621C33.5829 1.41115 34.1393 2.10112 34.5399 3.00254C34.9405 3.89282 35.1409 4.94448 35.1409 6.15749C35.1409 7.37051 34.9405 8.42772 34.5399 9.32914C34.1393 10.2194 33.5829 10.9038 32.8706 11.3824C32.1695 11.8609 31.3683 12.1002 30.4669 12.1002ZM30.4669 10.9984C31.1457 10.9984 31.7411 10.8092 32.253 10.4309C32.776 10.0525 33.1822 9.50163 33.4716 8.77827C33.7609 8.05492 33.9056 7.18132 33.9056 6.15749C33.9056 5.13366 33.7609 4.26007 33.4716 3.53671C33.1822 2.81335 32.776 2.26249 32.253 1.88412C31.7411 1.50574 31.1457 1.31656 30.4669 1.31656C29.788 1.31656 29.1871 1.50574 28.664 1.88412C28.1521 2.26249 27.7515 2.81335 27.4621 3.53671C27.1728 4.26007 27.0281 5.13366 27.0281 6.15749C27.0281 7.18132 27.1728 8.05492 27.4621 8.77827C27.7515 9.50163 28.1521 10.0525 28.664 10.4309C29.1871 10.8092 29.788 10.9984 30.4669 10.9984ZM51.8643 3.21955V12H50.7792V5.05576L47.2236 10.9317H46.6895L43.1339 5.03907V12H42.0488V3.21955H43.2507L46.9732 9.54615L50.7625 3.21955H51.8643ZM65.0523 3.21955V12H63.9672V5.05576L60.4117 10.9317H59.8775L56.3219 5.03907V12H55.2369V3.21955H56.4388L60.1613 9.54615L63.9505 3.21955H65.0523Z" fill="white"/>
</svg>
