<svg width="141" height="141" viewBox="0 0 141 141" fill="none" xmlns="http://www.w3.org/2000/svg">
<path d="M70.1142 140.228C108.837 140.228 140.228 108.837 140.228 70.1142C140.228 31.3912 108.837 0 70.1142 0C31.3912 0 0 31.3912 0 70.1142C0 108.837 31.3912 140.228 70.1142 140.228Z" fill="#665E5B"/>
<path d="M63.355 99.4054L63.355 91.4305C63.355 91.1604 63.2477 90.9013 63.0567 90.7103C62.8657 90.5193 62.6067 90.412 62.3366 90.412L60.5661 90.412C59.1403 86.119 58.8896 51.8219 58.9993 30.5449C58.9997 30.3715 58.9552 30.201 58.8701 30.05C58.785 29.8989 58.6621 29.7725 58.5136 29.6831L55.8344 28.1164L55.8344 23.6823C55.8253 23.1773 55.7129 22.6794 55.504 22.2195C55.2951 21.7596 54.9942 21.3474 54.6198 21.0082C54.2454 20.6691 53.8056 20.4103 53.3273 20.2477C52.849 20.0851 52.3425 20.0223 51.8391 20.063C51.3312 20.0203 50.82 20.0812 50.3364 20.2421C49.8528 20.403 49.407 20.6605 49.026 20.999C48.645 21.3375 48.3368 21.7499 48.1201 22.2112C47.9034 22.6725 47.7827 23.173 47.7654 23.6823L47.7654 27.991L45.1802 29.5578C45.0333 29.6516 44.913 29.7815 44.8307 29.9352C44.7484 30.0888 44.7069 30.261 44.7101 30.4352C45.0235 51.7906 44.9295 86.2757 43.3 90.3024L41.0282 90.3024C40.7581 90.3024 40.499 90.4097 40.3081 90.6007C40.1171 90.7916 40.0098 91.0507 40.0098 91.3208L40.0098 99.4054C40.0098 99.6755 40.1171 99.9346 40.3081 100.126C40.499 100.317 40.7581 100.424 41.0282 100.424L62.2739 100.424C62.4128 100.432 62.552 100.412 62.6829 100.365C62.8138 100.318 62.9336 100.244 63.0349 100.149C63.1362 100.053 63.2169 99.938 63.2719 99.8102C63.327 99.6824 63.3552 99.5446 63.355 99.4054ZM54.5966 90.365C55.7717 85.79 56.4454 77.7053 57.1035 68.1166C57.4168 82.014 58.0279 87.8582 58.5762 90.365L54.5966 90.365ZM56.9155 50.6468C56.5864 54.8928 56.3044 59.0448 56.038 62.9775C55.239 74.9321 54.4713 85.273 53.1395 90.365L47.264 90.365C49.7552 84.7089 51.7294 65.1553 54.4086 31.4693C55.474 31.4693 56.3514 31.3596 56.9781 31.3126C56.9625 38.5982 56.9468 45.0064 56.9625 50.6468L56.9155 50.6468ZM49.3478 29.4011C49.4935 29.3098 49.6132 29.1826 49.6955 29.0317C49.7778 28.8808 49.82 28.7113 49.8179 28.5394L49.8179 23.5413C49.8179 22.2879 51.1497 21.9745 51.8547 21.9745C52.0584 21.9745 53.8132 21.9745 53.8132 23.5413L53.8132 28.5394C53.8131 28.7148 53.8576 28.8874 53.9426 29.0409C54.0275 29.1944 54.1502 29.3238 54.2989 29.4168L55.286 30.0122C54.9413 30.0122 54.5496 30.0122 54.1422 30.0122C54.0438 29.9455 53.9311 29.9025 53.8132 29.8868C53.6449 29.8774 53.4785 29.9273 53.3432 30.0278C51.933 30.0278 50.2096 30.0278 48.4078 29.9338L49.3478 29.4011ZM46.8566 60.737L46.8566 51.0385C46.8566 41.6378 46.7626 33.7255 46.7313 31.2343C48.8151 31.4172 50.907 31.4904 52.9985 31.4536C51.4317 51.2892 48.6271 86.119 45.8069 90.3024L45.3995 90.3024C46.1516 87.3881 46.7626 79.8989 46.9036 60.7997L46.8566 60.737ZM42.0623 98.34L42.0623 92.4019L61.2711 92.4019L61.2711 98.34L42.0623 98.34Z" fill="white"/>
<path d="M101.991 99.4052L101.991 91.4302C101.991 91.1601 101.884 90.9011 101.693 90.7101C101.502 90.5191 101.243 90.4118 100.973 90.4118L99.4058 90.4118C98.9357 84.9437 98.5284 52.3857 98.356 30.529C98.3555 30.3198 98.2906 30.1158 98.17 29.9448C98.0495 29.7738 97.8792 29.644 97.6823 29.5732L93.2326 28.0064L93.1229 23.6194C93.1229 21.4886 91.2585 20.0001 88.5792 20.0001C86.276 20.0001 83.8789 21.2379 83.8789 23.5567L83.6595 27.9594L79.0688 29.5262C78.8744 29.5961 78.7059 29.7234 78.5856 29.8913C78.4652 30.0592 78.3988 30.2598 78.3951 30.4663C78.3951 30.9834 77.6744 79.6479 77.22 90.3648L75.6532 90.3648C75.3831 90.3648 75.124 90.4721 74.9331 90.6631C74.7421 90.8541 74.6348 91.1131 74.6348 91.3832L74.6348 99.4052C74.6348 99.6753 74.7421 99.9343 74.9331 100.125C75.124 100.316 75.3831 100.424 75.6532 100.424L100.722 100.424C100.875 100.463 101.035 100.465 101.189 100.432C101.343 100.399 101.487 100.33 101.61 100.231C101.734 100.132 101.832 100.006 101.898 99.8629C101.964 99.7196 101.996 99.5629 101.991 99.4052ZM96.3819 31.4691C96.3819 36.4671 96.4915 44.7241 96.6012 53.5608C95.0344 71.1559 93.5773 84.1133 91.4935 90.4118L81.9987 90.4118C85.9 83.2829 89.2373 55.5977 91.3995 32.0018C93.0711 31.9174 94.7355 31.7237 96.3819 31.422L96.3819 31.4691ZM92.9663 90.4118C94.5331 85.5548 95.6298 77.2664 96.7736 66.2989C96.9459 77.1097 97.1653 86.8395 97.4473 90.4118L92.9663 90.4118ZM85.1323 29.6359C85.323 29.5698 85.4893 29.4478 85.6095 29.2856C85.7297 29.1235 85.7982 28.9288 85.806 28.7272L86.0567 23.5881C86.0567 22.4287 87.6235 22.0213 88.6576 22.0213C89.6917 22.0213 91.1644 22.3503 91.1644 23.5881L91.2898 28.6958C91.2956 28.9018 91.3629 29.1014 91.4829 29.2689C91.603 29.4364 91.7703 29.5642 91.9635 29.6359L93.969 30.341C90.392 30.7369 86.7822 30.7369 83.2051 30.341L85.1323 29.6359ZM80.5573 31.4064C83.7043 31.8821 86.8853 32.097 90.0677 32.0488C86.3701 71.2186 82.7038 87.7013 80.4632 90.4118L79.3978 90.4118C79.7895 80.1963 80.4319 37.8616 80.5259 31.3594L80.5573 31.4064ZM76.8439 98.3398L76.8439 92.4016L100.032 92.4016L100.032 98.3398L76.8439 98.3398Z" fill="white"/>
<path d="M37 112.441C37.0031 111.866 37.1147 111.298 37.329 110.764C37.5426 110.257 37.8571 109.799 38.2534 109.417C38.6613 109.031 39.1401 108.728 39.6635 108.524C40.248 108.298 40.8702 108.186 41.4967 108.195C42.0281 108.19 42.5569 108.269 43.0635 108.43C43.534 108.579 43.9781 108.801 44.3796 109.088L45.2413 108.258L45.9621 108.994L45.1317 109.809C45.4172 110.159 45.6399 110.557 45.7897 110.984C45.9501 111.447 46.0296 111.935 46.0247 112.425C46.0331 113.008 45.9155 113.585 45.68 114.117C45.4553 114.622 45.1363 115.08 44.74 115.465C44.3354 115.851 43.8553 116.15 43.3298 116.342C42.758 116.553 42.153 116.659 41.5437 116.656C41.0517 116.659 40.5616 116.596 40.0866 116.468C39.6533 116.349 39.241 116.164 38.8645 115.919L38.0341 116.718L37.3134 115.982L38.0654 115.245C37.7359 114.877 37.4758 114.453 37.2977 113.992C37.1057 113.492 37.01 112.961 37.0157 112.425L37 112.441ZM38.3944 112.441C38.3942 112.783 38.4525 113.122 38.5668 113.444C38.673 113.751 38.832 114.037 39.0368 114.29L43.3925 110.044C42.8443 109.654 42.185 109.45 41.5123 109.464C41.0951 109.463 40.6811 109.537 40.2903 109.683C39.9236 109.819 39.5879 110.027 39.3032 110.294C39.0221 110.56 38.7981 110.88 38.6451 111.234C38.4846 111.616 38.4046 112.027 38.4101 112.441L38.3944 112.441ZM44.0976 110.796L39.8045 114.995C40.0495 115.14 40.3131 115.25 40.5879 115.324C40.8793 115.401 41.1797 115.438 41.481 115.433C41.9257 115.441 42.3676 115.362 42.7815 115.198C43.144 115.05 43.474 114.831 43.7529 114.556C44.0199 114.289 44.228 113.969 44.3639 113.616C44.5118 113.242 44.5862 112.843 44.5833 112.441C44.5941 111.856 44.4245 111.281 44.0976 110.796Z" fill="white"/>
<path d="M53.8441 116.75C53.1416 116.766 52.4465 116.604 51.8229 116.28C51.2475 115.971 50.7903 115.481 50.5225 114.885L51.2432 113.992C51.4793 114.474 51.8563 114.873 52.3243 115.136C52.7698 115.384 53.2715 115.514 53.7814 115.512C54.0669 115.526 54.3523 115.484 54.6213 115.387C54.8902 115.29 55.1373 115.141 55.3482 114.948C55.5336 114.764 55.6793 114.544 55.7763 114.302C55.8733 114.059 55.9196 113.799 55.9122 113.538C55.9245 113.27 55.8743 113.004 55.7655 112.759C55.6567 112.514 55.4924 112.298 55.2855 112.128C54.8384 111.78 54.2849 111.598 53.7187 111.611L52.857 111.611L52.857 110.373L53.6404 110.373C53.8823 110.372 54.1217 110.324 54.3454 110.232C54.5701 110.144 54.7771 110.017 54.9565 109.856C55.1446 109.68 55.2935 109.466 55.3934 109.228C55.4933 108.991 55.5419 108.735 55.5362 108.477C55.5497 108.242 55.515 108.007 55.4341 107.786C55.3533 107.565 55.2281 107.363 55.0662 107.193C54.8897 107.03 54.6821 106.904 54.456 106.823C54.2299 106.743 53.9898 106.708 53.7501 106.722C53.2702 106.706 52.7961 106.831 52.3869 107.083C52.0127 107.334 51.706 107.673 51.4939 108.07L50.7888 107.208C51.0257 106.657 51.439 106.199 51.9639 105.908C52.5408 105.596 53.1886 105.44 53.8441 105.453C54.6467 105.414 55.4349 105.677 56.0532 106.19C56.3317 106.445 56.5505 106.758 56.694 107.108C56.8375 107.457 56.9023 107.834 56.8837 108.211C56.8921 108.763 56.7456 109.305 56.4606 109.778C56.1583 110.249 55.7137 110.611 55.1915 110.812C55.5124 110.854 55.8214 110.961 56.1003 111.125C56.6226 111.442 57.0123 111.937 57.197 112.52C57.2916 112.824 57.3391 113.141 57.338 113.46C57.342 113.912 57.2513 114.36 57.0717 114.776C56.9067 115.158 56.6608 115.5 56.3509 115.779C56.0333 116.062 55.6596 116.275 55.2542 116.405C54.8146 116.551 54.3543 116.626 53.8911 116.625L53.8441 116.75Z" fill="white"/>
<path d="M59.0449 111.046C59.0539 110.293 59.1379 109.543 59.2956 108.806C59.4136 108.178 59.6361 107.574 59.9537 107.02C60.2284 106.542 60.6157 106.139 61.0818 105.845C61.5611 105.578 62.1003 105.439 62.6486 105.439C63.1968 105.439 63.736 105.578 64.2153 105.845C64.6804 106.135 65.0633 106.539 65.3278 107.02C65.6332 107.578 65.8499 108.181 65.9701 108.806C66.2523 110.307 66.2523 111.848 65.9701 113.35C65.8575 113.97 65.6459 114.567 65.3434 115.12C65.0804 115.583 64.7095 115.975 64.2623 116.264C63.7914 116.552 63.2476 116.699 62.6956 116.687C62.1441 116.694 61.6014 116.548 61.1288 116.264C60.6668 115.971 60.2804 115.574 60.0007 115.104C59.6806 114.557 59.4579 113.958 59.3426 113.334C59.1986 112.585 59.1303 111.824 59.1389 111.062L59.0449 111.046ZM60.361 111.046C60.3089 112.17 60.4958 113.291 60.9094 114.337C61.0444 114.681 61.2823 114.976 61.5907 115.18C61.899 115.385 62.2629 115.49 62.6329 115.48C63.0019 115.494 63.3656 115.389 63.6702 115.18C63.9749 114.971 64.2044 114.67 64.325 114.321C64.7044 113.267 64.8747 112.15 64.8264 111.031C64.8785 109.91 64.7026 108.791 64.3093 107.74C64.1752 107.397 63.9405 107.101 63.6358 106.893C63.3311 106.685 62.9706 106.574 62.6015 106.574C62.2325 106.574 61.872 106.685 61.5673 106.893C61.2626 107.101 61.0279 107.397 60.8937 107.74C60.5043 108.781 60.3285 109.889 60.3767 110.999L60.361 111.046Z" fill="white"/>
<path d="M73.5538 112.441C73.5492 111.866 73.6611 111.295 73.8829 110.764C74.0964 110.257 74.4109 109.799 74.8073 109.417C75.2151 109.031 75.694 108.728 76.2174 108.524C76.8018 108.298 77.4241 108.187 78.0505 108.195C78.5819 108.19 79.1108 108.269 79.6173 108.43C80.0879 108.579 80.532 108.801 80.9334 109.088L81.7952 108.258L82.5002 108.994L81.6855 109.809C81.971 110.16 82.1937 110.557 82.3436 110.984C82.4965 111.449 82.5758 111.935 82.5786 112.425C82.5869 113.008 82.4693 113.585 82.2339 114.117C82.002 114.618 81.6838 115.074 81.2938 115.465C80.8893 115.851 80.4092 116.15 79.8837 116.342C79.3109 116.547 78.7059 116.648 78.0975 116.64C77.6056 116.643 77.1154 116.58 76.6404 116.452C76.2071 116.334 75.7948 116.149 75.4183 115.904L74.5879 116.703L73.8672 115.966L74.6193 115.23C74.2897 114.862 74.0296 114.437 73.8515 113.976C73.6596 113.477 73.5639 112.945 73.5695 112.41L73.5538 112.441ZM74.9483 112.441C74.9481 112.783 75.0064 113.122 75.1206 113.444C75.2268 113.751 75.3859 114.037 75.5907 114.29L79.9463 110.044C79.3981 109.654 78.7389 109.45 78.0662 109.464C77.6489 109.463 77.2349 109.537 76.8441 109.683C76.4774 109.819 76.1418 110.027 75.857 110.294C75.5759 110.56 75.352 110.88 75.199 111.235C75.0384 111.616 74.9584 112.027 74.964 112.441L74.9483 112.441ZM80.6514 110.796L76.3584 114.995C76.6034 115.14 76.8669 115.25 77.1418 115.324C77.4331 115.401 77.7336 115.438 78.0349 115.434C78.4796 115.441 78.9215 115.362 79.3353 115.199C79.6979 115.05 80.0279 114.831 80.3067 114.556C80.5737 114.289 80.7818 113.969 80.9178 113.616C81.0656 113.242 81.1401 112.843 81.1371 112.441C81.1479 111.856 80.9783 111.281 80.6514 110.796Z" fill="white"/>
<path d="M86.8711 113.773L86.8711 112.88L91.4148 105.547L92.8562 105.547L88.5162 112.519L91.9318 112.519L91.9318 109.464L93.1853 109.464L93.1853 112.519L94.7521 112.519L94.7521 113.773L93.1853 113.773L93.1853 116.515L91.9318 116.515L91.9318 113.773L86.8711 113.773Z" fill="white"/>
<path d="M95.8806 111.046C95.872 110.284 95.9402 109.523 96.0843 108.775C96.2023 108.147 96.4247 107.543 96.7423 106.988C97.0171 106.511 97.4043 106.107 97.8704 105.813C98.3497 105.547 98.889 105.408 99.4372 105.408C99.9855 105.408 100.525 105.547 101.004 105.813C101.469 106.104 101.852 106.508 102.116 106.988C102.422 107.547 102.639 108.15 102.759 108.775C103.041 110.276 103.041 111.817 102.759 113.318C102.646 113.938 102.435 114.536 102.132 115.089C101.869 115.552 101.498 115.944 101.051 116.233C100.58 116.521 100.036 116.668 99.4842 116.656C98.9327 116.663 98.3901 116.517 97.9174 116.233C97.4954 115.927 97.1474 115.531 96.899 115.073C96.5789 114.525 96.3563 113.926 96.241 113.303C96.0969 112.554 96.0287 111.793 96.0373 111.031L95.8806 111.046ZM97.1967 111.046C97.1446 112.17 97.3315 113.291 97.7451 114.337C97.8801 114.681 98.118 114.976 98.4263 115.181C98.7347 115.385 99.0986 115.49 99.4686 115.48C99.8376 115.494 100.201 115.389 100.506 115.18C100.811 114.971 101.04 114.67 101.161 114.321C101.54 113.267 101.71 112.15 101.662 111.031C101.714 109.91 101.538 108.791 101.145 107.741C101.011 107.397 100.776 107.101 100.471 106.893C100.167 106.685 99.8063 106.574 99.4372 106.574C99.0682 106.574 98.7077 106.685 98.403 106.893C98.0983 107.101 97.8635 107.397 97.7294 107.741C97.34 108.781 97.1641 109.889 97.2124 110.999L97.1967 111.046Z" fill="white"/>
</svg>
