<svg width="49" height="321" viewBox="0 0 49 321" fill="none" xmlns="http://www.w3.org/2000/svg">
<path d="M14.9048 39.9197V45.2357H39.15V39.9197H14.9048ZM20.3203 12.1967C17.0412 22.9778 10.4334 31.1258 0.943973 35.7463C2.23573 36.889 4.42177 39.3235 5.31606 40.5655C15.0539 35.0508 22.2579 25.8594 26.3816 13.6375L20.3203 12.1967ZM11.9239 27.9958V47.2727H17.6871V33.3119H37.2124V47.223H43.2737V27.9958H11.9239ZM2.33509 17.463V22.9778H47.2483V17.463H2.33509ZM2.73255 4.84361V10.3087H46.9502V4.84361H2.73255ZM13.1163 0.868983V14.7802H19.0285V0.868983H13.1163ZM30.6046 0.868983V14.7802H36.5665V0.868983H30.6046ZM25.1395 62.7749C25.7357 64.4144 26.4313 66.6998 27.5243 69.4324C29.0644 73.5561 31.2505 77.7294 33.0391 80.6607C31.4989 80.5117 28.2198 80.2632 25.7854 80.0148L25.2885 85.2812C29.4619 85.629 35.7716 86.2749 38.5539 86.8214L41.5845 82.3996C40.6902 81.3563 39.7959 80.3129 38.9513 79.0709C37.3118 76.7854 34.9767 72.5127 33.4365 68.3394C32.2441 65.1597 31.0518 61.2347 30.3065 57.4092L23.5993 58.2041C24.1955 59.8436 24.7917 61.6322 25.1395 62.7749ZM7.05496 65.11L7.15432 71.4197C17.3393 72.2643 25.1892 72.0656 31.797 71.2707C35.7716 70.8235 40.0443 70.0783 43.3234 69.1343L42.5782 62.9239C38.6532 64.1163 34.2811 64.9609 29.8594 65.5074C23.8974 66.1533 16.3456 66.203 7.05496 65.11ZM17.0412 82.0021L10.8309 80.5613C9.14164 83.9398 8.19766 86.7717 8.19766 89.8023C8.19766 97.0063 14.5571 100.931 24.742 100.931C30.7537 100.931 35.2251 100.285 38.057 99.7886L38.4048 93.4789C34.927 94.1744 30.5549 94.7209 25.1395 94.7209C18.333 94.6713 14.6067 92.9324 14.6067 88.7093C14.6067 86.573 15.4017 84.3869 17.0412 82.0021ZM41.3858 124.035L37.908 118.321C36.6162 119.365 35.2251 120.209 33.3372 121.302C30.3065 123.041 24.0465 126.122 19.3266 129.252C13.4144 133.127 8.79386 137.549 8.79386 143.858C8.79386 152.404 16.296 155.186 26.2325 155.186C32.6913 155.186 37.908 154.64 42.1807 153.944L42.2304 146.79C37.8086 147.833 31.1014 148.628 26.0338 148.628C19.1279 148.628 15.6501 146.69 15.6501 143.113C15.6501 139.685 18.4323 136.803 22.556 134.121C27.1268 131.189 33.3372 128.258 36.4175 126.718C38.2558 125.824 39.8456 124.929 41.3858 124.035ZM16.3953 113.403L10.1353 115.986C12.8678 122.395 15.8488 128.904 18.5814 133.425L24.2452 130.146C21.9101 125.973 18.7801 120.011 16.3953 113.403ZM4.57082 171.93V177.197H45.0623V171.93H4.57082ZM6.85623 179.681V184.699H43.075V179.681H6.85623ZM2.58351 187.282V192.598H47.0496V187.282H2.58351ZM2.23573 195.629V200.846H47.5961V195.629H2.23573ZM21.6617 175.209V191.505H27.7727V175.209H21.6617ZM10.5824 167.757C12.0729 169.546 13.5137 172.079 14.0105 173.818L19.575 171.433C18.9291 169.695 17.4387 167.359 15.8985 165.67L10.5824 167.757ZM32.8403 165.67C32.0454 167.409 30.6046 169.893 29.4122 171.533L34.8276 173.073C36.0697 171.632 37.6596 169.546 39.1997 167.26L32.8403 165.67ZM20.9661 191.654C20.0719 200.2 18.2833 204.87 1.34144 207.106C2.48414 208.397 3.87526 210.832 4.3224 212.422C23.1522 209.391 26.1332 202.734 27.2759 191.654H20.9661ZM28.667 197.219L23.2019 198.163C26.9778 207.006 33.1384 211.13 45.0623 212.571C45.8075 210.882 47.3974 208.348 48.6395 207.056C37.8583 206.311 31.5983 203.429 28.667 197.219ZM18.4323 223.602L10.4334 223.552C10.8309 225.489 11.0296 227.874 11.0296 230.259C11.0296 234.532 10.5824 247.549 10.5824 254.206C10.5824 262.702 15.7991 266.279 23.9471 266.279C35.2748 266.279 42.3297 259.671 45.5591 254.902L41.038 249.387C37.4111 254.802 32.2441 259.522 24.0465 259.522C20.1712 259.522 17.1902 257.883 17.1902 252.865C17.1902 246.704 17.538 235.625 17.7864 230.259C17.8858 228.272 18.1342 225.688 18.4323 223.602ZM25.1395 282.775C25.7357 284.414 26.4313 286.7 27.5243 289.432C29.0644 293.556 31.2505 297.729 33.0391 300.661C31.4989 300.512 28.2198 300.263 25.7854 300.015L25.2885 305.281C29.4619 305.629 35.7716 306.275 38.5539 306.821L41.5845 302.4C40.6902 301.356 39.7959 300.313 38.9513 299.071C37.3118 296.785 34.9767 292.513 33.4365 288.339C32.2441 285.16 31.0518 281.235 30.3065 277.409L23.5993 278.204C24.1955 279.844 24.7917 281.632 25.1395 282.775ZM7.05496 285.11L7.15432 291.42C17.3393 292.264 25.1892 292.066 31.797 291.271C35.7716 290.824 40.0443 290.078 43.3234 289.134L42.5782 282.924C38.6532 284.116 34.2811 284.961 29.8594 285.507C23.8974 286.153 16.3456 286.203 7.05496 285.11ZM17.0412 302.002L10.8309 300.561C9.14164 303.94 8.19766 306.772 8.19766 309.802C8.19766 317.006 14.5571 320.931 24.742 320.931C30.7537 320.931 35.2251 320.285 38.057 319.789L38.4048 313.479C34.927 314.174 30.5549 314.721 25.1395 314.721C18.333 314.671 14.6067 312.932 14.6067 308.709C14.6067 306.573 15.4017 304.387 17.0412 302.002Z" fill="#524C49"/>
</svg>
