<svg width="180" height="181" viewBox="0 0 180 181" fill="none" xmlns="http://www.w3.org/2000/svg">
<path d="M129.547 90.6234C129.547 98.4745 127.219 106.149 122.857 112.677C118.495 119.205 112.296 124.293 105.042 127.298C97.7888 130.302 89.8073 131.088 82.1071 129.556C74.4068 128.025 67.3337 124.244 61.7822 118.693C56.2306 113.141 52.45 106.068 50.9183 98.3677C49.3866 90.6674 50.1727 82.6859 53.1772 75.4325C56.1817 68.179 61.2696 61.9794 67.7975 57.6176C74.3255 53.2557 82.0003 50.9276 89.8513 50.9276C100.379 50.9276 110.476 55.1098 117.921 62.5542C125.365 69.9987 129.547 80.0954 129.547 90.6234Z" fill="white"/>
<path d="M58.7543 175.56C66.7216 155.765 58.7543 156.642 61.1761 147.482C61.7863 145.122 63.0106 142.967 64.7245 141.234C66.4384 139.502 68.5807 138.255 70.9333 137.619C72.232 137.198 72.9339 137.233 73.2147 138.813C74.3809 144.584 74.7704 150.486 74.3729 156.361C74.1203 159.596 72.897 162.679 70.8631 165.206C67.4651 169.345 63.352 172.84 58.7192 175.525" fill="white"/>
<path d="M24.6741 153.343C40.4682 139.058 33.0274 136.356 39.0642 129.301C40.644 127.443 42.6871 126.036 44.9863 125.222C47.2855 124.408 49.7589 124.217 52.1558 124.668C53.5246 124.879 54.1213 125.194 53.7001 126.774C52.2316 132.437 50.0125 137.879 47.1017 142.954C45.4601 145.752 43.014 147.99 40.0821 149.377C35.2229 151.605 30.0051 152.948 24.6741 153.343Z" fill="white"/>
<path d="M3.61548 118.455C24.0776 112.524 18.5321 106.838 27.096 103.153C29.3234 102.172 31.7714 101.802 34.1891 102.08C36.6067 102.357 38.9071 103.273 40.8544 104.732C42.0127 105.469 42.3988 106.066 41.3107 107.259C37.5156 111.71 33.1491 115.64 28.3245 118.947C25.6151 120.727 22.4406 121.667 19.199 121.649C13.8567 121.513 8.58078 120.431 3.61548 118.455Z" fill="white"/>
<path d="M0.105713 77.8821C21.1645 81.3919 18.6374 73.9862 27.9033 74.3723C30.3398 74.4689 32.7075 75.208 34.7662 76.5148C36.825 77.8215 38.5016 79.6494 39.626 81.8131C40.328 83.0064 40.4333 83.7084 38.9241 84.305C33.5714 86.6491 27.929 88.2663 22.1472 89.1135C18.9278 89.5594 15.6488 89.021 12.741 87.5692C7.97578 85.1345 3.69409 81.8518 0.105713 77.8821Z" fill="white"/>
<path d="M14.6711 39.8715C31.9744 52.3312 33.0274 44.4693 41.2052 48.8917C43.3375 50.0645 45.1283 51.7714 46.402 53.8449C47.6756 55.9185 48.3885 58.2875 48.4705 60.7197C48.4705 62.1236 48.4705 62.7554 46.7156 62.6501C40.8848 62.4214 35.1116 61.4061 29.5527 59.6316C26.4673 58.6064 23.7556 56.6887 21.7609 54.1213C18.5913 49.8272 16.2141 45.0014 14.7413 39.8715" fill="white"/>
<path d="M44.3995 12.0394C54.4726 30.8168 58.8598 24.2184 64.3 31.7996C65.7195 33.7767 66.5906 36.0941 66.8248 38.5167C67.0591 40.9392 66.6481 43.3807 65.6337 45.5931C65.1424 46.8917 64.651 47.3831 63.2471 46.5758C58.133 43.7982 53.4117 40.3517 49.2079 36.3272C46.8873 34.0606 45.2982 31.1513 44.6451 27.9739C43.6772 22.7065 43.6772 17.3068 44.6451 12.0394" fill="white"/>
<path d="M83.2876 0.0351055C84.1651 21.3747 90.9741 17.3384 92.5535 26.499C92.983 28.8913 92.7745 31.3546 91.9488 33.6406C91.1231 35.9266 89.7095 37.9547 87.8503 39.5203C86.8325 40.468 86.2007 40.7136 85.2531 39.3448C81.7973 34.6022 78.9882 29.4207 76.8998 23.9368C75.8027 20.8706 75.6438 17.547 76.4435 14.3902C77.8631 9.22912 80.1798 4.35814 83.2876 0" fill="white"/>
<path d="M123.51 6.38818C114.981 25.9027 122.878 25.306 120.246 34.2209C119.569 36.5625 118.283 38.6829 116.52 40.366C114.756 42.0491 112.578 43.2349 110.208 43.8026C108.909 44.1887 108.207 44.1185 107.962 42.504C106.97 36.7086 106.758 30.8067 107.33 24.955C107.68 21.7319 108.988 18.6878 111.085 16.2156C114.601 12.2181 118.81 8.88882 123.51 6.38818Z" fill="white"/>
<path d="M156.958 29.5183C140.708 43.3469 148.078 46.2601 141.831 53.1393C140.193 54.9457 138.106 56.2867 135.782 57.0264C133.458 57.7661 130.98 57.8781 128.599 57.351C127.23 57.1404 126.669 56.7544 127.16 55.2101C128.771 49.5954 131.132 44.2237 134.18 39.2405C135.86 36.5265 138.301 34.3662 141.199 33.0281C146.131 30.9379 151.397 29.7491 156.748 29.5183" fill="white"/>
<path d="M176.859 65.037C156.221 70.3719 161.556 76.1982 152.922 79.6378C150.665 80.5506 148.206 80.8496 145.796 80.5044C143.385 80.1592 141.109 79.182 139.199 77.6723C138.076 76.865 137.69 76.2684 138.813 75.1101C142.732 70.7618 147.218 66.9605 152.15 63.8086C154.914 62.122 158.11 61.2802 161.346 61.3868C166.685 61.6172 171.94 62.8061 176.859 64.8966" fill="white"/>
<path d="M179.105 105.68C158.047 101.433 160.504 109.19 151.027 108.347C148.597 108.174 146.256 107.363 144.241 105.995C142.226 104.626 140.607 102.75 139.55 100.556C138.883 99.3271 138.813 98.6602 140.357 98.0635C145.779 95.8835 151.469 94.4433 157.275 93.7816C160.499 93.4515 163.748 94.0868 166.611 95.6067C171.338 98.1998 175.568 101.61 179.105 105.68Z" fill="white"/>
<path d="M163.487 143.27C146.569 130.284 145.306 138.111 137.268 133.443C135.137 132.237 133.365 130.488 132.131 128.373C130.898 126.258 130.248 123.853 130.249 121.404C130.249 120.001 130.249 119.369 132.039 119.509C137.866 119.919 143.614 121.099 149.131 123.019C152.179 124.134 154.82 126.14 156.713 128.775C159.788 133.154 162.047 138.053 163.381 143.235" fill="white"/>
<path d="M132.951 170.156C123.405 151.097 118.912 157.555 113.647 149.834C112.276 147.82 111.466 145.478 111.299 143.048C111.133 140.618 111.616 138.187 112.7 136.005C113.261 134.707 113.753 134.25 115.122 135.093C120.19 137.956 124.842 141.498 128.95 145.622C131.197 147.965 132.699 150.92 133.267 154.116C134.106 159.392 133.999 164.776 132.951 170.015" fill="white"/>
<path d="M93.7121 181C93.4664 159.66 86.517 163.451 85.2535 154.255C84.9131 151.843 85.2177 149.384 86.1363 147.127C87.0548 144.871 88.5546 142.898 90.4831 141.409C91.536 140.497 92.1678 140.286 93.0452 141.655C96.3222 146.501 98.9313 151.766 100.802 157.309C101.732 160.411 101.732 163.718 100.802 166.82C99.2201 171.889 96.761 176.641 93.5366 180.86" fill="white"/>
</svg>
