<svg width="168" height="148" viewBox="0 0 168 148" fill="none" xmlns="http://www.w3.org/2000/svg">
<path d="M58.3014 90.6173C46.9718 79.999 39.4722 65.9316 36.9711 50.6067C34.47 35.2818 37.1078 19.56 44.4735 5.8905C35.4941 9.88428 27.4154 15.6531 20.7232 22.85C13.1813 30.8265 7.51143 40.3833 4.12576 50.8257C0.740089 61.2681 -0.276319 72.3336 1.15042 83.218C2.57716 94.1024 6.41119 104.532 12.3738 113.749C18.3365 122.966 26.2779 130.739 35.6208 136.502C44.9638 142.265 55.4735 145.874 66.386 147.067C77.2986 148.259 88.3397 147.006 98.707 143.396C109.074 139.787 118.507 133.913 126.32 126.202C134.132 118.49 140.129 109.135 143.873 98.8155C130.708 107.097 115.171 110.784 99.6897 109.301C84.208 107.818 69.6538 101.248 58.3014 90.6173Z" fill="white"/>
<path d="M167.06 18.1582C167.299 17.9251 167.469 17.6297 167.55 17.3053C167.631 16.9808 167.619 16.6403 167.517 16.322C167.414 16.0038 167.225 15.7204 166.97 15.504C166.715 15.2876 166.405 15.1466 166.075 15.0971L154.006 13.3378C153.717 13.2906 153.442 13.1771 153.204 13.0061C152.966 12.8352 152.771 12.6116 152.634 12.3526L147.25 1.40993C147.104 1.10464 146.875 0.846914 146.588 0.666503C146.302 0.486092 145.97 0.390381 145.632 0.390381C145.293 0.390381 144.962 0.486092 144.675 0.666503C144.389 0.846914 144.159 1.10464 144.013 1.40993L138.7 12.3526C138.563 12.6116 138.368 12.8352 138.13 13.0061C137.892 13.1771 137.617 13.2906 137.328 13.3378L125.259 15.0971C124.929 15.1466 124.618 15.2876 124.364 15.504C124.109 15.7204 123.919 16.0038 123.817 16.322C123.715 16.6403 123.703 16.9808 123.784 17.3053C123.865 17.6297 124.034 17.9251 124.274 18.1582L133 26.6732C133.212 26.8728 133.372 27.122 133.464 27.3983C133.556 27.6747 133.578 27.9695 133.528 28.2565L131.452 40.29C131.403 40.6221 131.446 40.9615 131.576 41.2709C131.707 41.5802 131.92 41.8476 132.193 42.0438C132.465 42.24 132.786 42.3575 133.121 42.3833C133.456 42.4091 133.792 42.3422 134.091 42.19L144.858 36.49C145.118 36.3514 145.408 36.2788 145.702 36.2788C145.997 36.2788 146.287 36.3514 146.547 36.49L157.349 42.19C157.647 42.333 157.978 42.3925 158.307 42.3623C158.636 42.332 158.951 42.2131 159.218 42.0182C159.485 41.8233 159.695 41.5597 159.824 41.2554C159.953 40.9511 159.998 40.6175 159.952 40.29L157.876 28.2565C157.826 27.9695 157.848 27.6747 157.941 27.3983C158.033 27.122 158.192 26.8728 158.404 26.6732L167.13 18.1582" fill="white"/>
<path d="M104.781 53.2034L97.3221 54.259C97.1204 54.2957 96.9326 54.3867 96.7789 54.5224C96.6252 54.658 96.5115 54.833 96.4499 55.0285C96.3884 55.2241 96.3813 55.4327 96.4296 55.6319C96.4779 55.8311 96.5797 56.0134 96.7239 56.159L102.107 61.4368C102.24 61.5524 102.34 61.7015 102.395 61.8686C102.451 62.0357 102.461 62.2146 102.424 62.3868L101.157 69.8109C101.122 70.0167 101.144 70.2283 101.222 70.4221C101.299 70.6159 101.43 70.7843 101.597 70.9084C101.765 71.0325 101.965 71.1076 102.173 71.125C102.381 71.1425 102.59 71.1017 102.776 71.0073L109.426 67.4888C109.588 67.4025 109.77 67.3573 109.954 67.3573C110.138 67.3573 110.319 67.4025 110.481 67.4888L117.132 71.0073C117.318 71.1017 117.527 71.1425 117.735 71.125C117.943 71.1076 118.142 71.0325 118.31 70.9084C118.478 70.7843 118.608 70.6159 118.686 70.4221C118.763 70.2283 118.786 70.0167 118.75 69.8109L117.589 62.3868C117.552 62.2146 117.562 62.0357 117.618 61.8686C117.673 61.7015 117.773 61.5524 117.906 61.4368L123.289 56.159C123.433 56.0134 123.535 55.8311 123.583 55.6319C123.632 55.4327 123.625 55.2241 123.563 55.0285C123.501 54.833 123.388 54.658 123.234 54.5224C123.08 54.3867 122.893 54.2957 122.691 54.259L115.232 53.2034C115.05 53.1749 114.878 53.1022 114.73 52.9918C114.583 52.8814 114.465 52.7366 114.387 52.57L110.869 45.8145C110.78 45.6281 110.64 45.4707 110.466 45.3605C110.292 45.2503 110.09 45.1918 109.883 45.1918C109.677 45.1918 109.475 45.2503 109.301 45.3605C109.126 45.4707 108.987 45.6281 108.898 45.8145L105.555 52.57C105.477 52.7366 105.359 52.8814 105.212 52.9918C105.065 53.1022 104.893 53.1749 104.711 53.2034" fill="white"/>
<path d="M96.0908 14.2525L96.2668 14.8155L95.5279 19.1785C95.503 19.2994 95.5139 19.4248 95.5594 19.5396C95.6048 19.6543 95.6828 19.7532 95.7837 19.8242C95.8846 19.8952 96.0041 19.9352 96.1274 19.9393C96.2507 19.9433 96.3725 19.9113 96.4779 19.847L100.383 17.8063H101.017L104.922 19.847C105.028 19.9113 105.15 19.9433 105.273 19.9393C105.396 19.9352 105.516 19.8952 105.617 19.8242C105.718 19.7532 105.795 19.6543 105.841 19.5396C105.886 19.4248 105.897 19.2994 105.872 19.1785L105.098 14.8155L105.309 14.2525L108.476 11.1562C108.562 11.0676 108.621 10.957 108.648 10.8368C108.674 10.7165 108.667 10.5913 108.627 10.4748C108.587 10.3583 108.516 10.2552 108.421 10.1768C108.326 10.0983 108.211 10.0476 108.089 10.0302L103.726 9.39692L103.234 9.04505L101.298 5.06912C101.235 4.96728 101.147 4.88322 101.042 4.82494C100.938 4.76666 100.82 4.73608 100.7 4.73608C100.58 4.73608 100.463 4.76666 100.358 4.82494C100.253 4.88322 100.165 4.96728 100.102 5.06912L98.1668 9.04505L97.6742 9.39692L93.276 10.0302C93.157 10.0528 93.0463 10.1073 92.9558 10.1879C92.8654 10.2684 92.7985 10.372 92.7624 10.4877C92.7262 10.6033 92.7222 10.7266 92.7507 10.8443C92.7792 10.9621 92.8391 11.0699 92.9241 11.1562L96.0908 14.2525Z" fill="white"/>
</svg>
