<svg width="177" height="177" viewBox="0 0 177 177" fill="none" xmlns="http://www.w3.org/2000/svg">
<path d="M88.5533 172.393C70.8977 172.366 53.7026 166.759 39.4252 156.372C25.1478 145.986 14.5189 131.352 9.05734 114.563H168.049C162.589 131.356 151.962 145.994 137.685 156.386C123.408 166.778 106.212 172.393 88.5533 172.428M88.5533 5.2039C110.71 5.23122 131.951 14.0426 147.621 29.7062C163.292 45.3699 172.112 66.6079 172.148 88.7642C172.13 96.0606 171.145 103.322 169.22 110.36H169.014H122.48C122.378 101.336 118.81 92.6958 112.515 86.2286C106.22 79.7615 97.6792 75.9621 88.6606 75.617C79.6419 75.2718 70.8358 78.4072 64.0647 84.3743C57.2935 90.3414 53.0757 98.6834 52.2841 107.674C52.2325 108.534 52.2325 109.397 52.2841 110.257H7.85181C4.50198 97.8811 4.0535 84.899 6.5413 72.3213C9.0291 59.7437 14.3861 47.9098 22.1951 37.741C30.0042 27.5722 40.0548 19.3428 51.5644 13.6933C63.0739 8.04392 75.7321 5.12693 88.5533 5.16945V5.2039ZM88.5533 0.932881C71.1736 0.932883 54.1843 6.08699 39.7341 15.7433C25.2839 25.3997 14.022 39.1245 7.37263 55.1819C0.723288 71.2392 -1.01474 88.9079 2.37838 105.953C5.77149 122.998 14.1433 138.654 26.435 150.941C38.7267 163.228 54.3861 171.594 71.4327 174.98C88.4792 178.367 106.147 176.622 122.202 169.966C138.257 163.311 151.977 152.043 161.628 137.589C171.278 123.135 176.426 106.144 176.419 88.7642C176.392 65.4692 167.126 43.136 150.654 26.6639C134.181 10.1918 111.848 0.925785 88.5533 0.898438V0.932881Z" fill="white"/>
<path d="M122.928 125.55H52.353C51.7867 125.55 51.2435 125.775 50.843 126.175C50.4425 126.576 50.2175 127.119 50.2175 127.685C50.2175 128.251 50.4425 128.795 50.843 129.195C51.2435 129.596 51.7867 129.821 52.353 129.821H122.928C123.494 129.821 124.038 129.596 124.438 129.195C124.839 128.795 125.064 128.251 125.064 127.685C125.064 127.119 124.839 126.576 124.438 126.175C124.038 125.775 123.494 125.55 122.928 125.55Z" fill="white"/>
<path d="M108.703 140.809H67.3704C66.804 140.809 66.2608 141.034 65.8603 141.435C65.4599 141.835 65.2349 142.378 65.2349 142.945C65.2349 143.511 65.4599 144.054 65.8603 144.455C66.2608 144.855 66.804 145.08 67.3704 145.08H108.703C109.269 145.08 109.812 144.855 110.213 144.455C110.613 144.054 110.838 143.511 110.838 142.945C110.838 142.378 110.613 141.835 110.213 141.435C109.812 141.034 109.269 140.809 108.703 140.809Z" fill="white"/>
<path d="M95.6487 156.514H80.3213C79.7549 156.514 79.2118 156.739 78.8113 157.14C78.4108 157.54 78.1858 158.084 78.1858 158.65C78.1858 159.216 78.4108 159.759 78.8113 160.16C79.2118 160.56 79.7549 160.785 80.3213 160.785H95.6487C96.2151 160.785 96.7583 160.56 97.1588 160.16C97.5593 159.759 97.7842 159.216 97.7842 158.65C97.7842 158.084 97.5593 157.54 97.1588 157.14C96.7583 156.739 96.2151 156.514 95.6487 156.514Z" fill="white"/>
<path d="M55.3496 59.6934C58.8051 63.5711 62.7673 66.9656 67.1293 69.7854C68.3004 70.612 68.7826 70.1987 69.2993 69.0965C70.3917 67.2255 70.9674 65.0977 70.9674 62.9311C70.9674 60.7645 70.3917 58.6367 69.2993 56.7657C65.0627 49.6703 60.7228 55.2157 53.1452 37.8217C51.9568 42.4289 51.6068 47.2124 52.1119 51.9436C52.4559 54.8141 53.6561 57.5145 55.5562 59.6934" fill="white"/>
<path d="M19.3903 102.369C21.852 103.869 24.7095 104.589 27.5879 104.436C32.7744 104.127 37.8955 103.119 42.812 101.439C44.1898 100.991 44.1209 100.406 43.6042 99.2691C42.7667 97.2753 41.4182 95.5377 39.6947 94.2315C37.9712 92.9253 35.9337 92.0967 33.7878 91.8293C25.5902 90.7615 27.2435 97.6158 8.91943 92.8626C11.7686 96.623 15.2682 99.8426 19.2525 102.369" fill="white"/>
<path d="M36.371 78.8442C41.1761 80.8334 46.2274 82.1657 51.3884 82.8052C52.8006 83.0119 53.0417 82.4608 53.0417 81.2208C53.1713 79.0626 52.7264 76.9087 51.7522 74.9785C50.7781 73.0483 49.3095 71.4109 47.4963 70.2333C40.6076 65.6867 39.0576 72.5755 24.6602 60.2446C25.5824 64.9039 27.3322 69.3602 29.8267 73.4021C31.4114 75.8328 33.6921 77.7293 36.371 78.8442Z" fill="white"/>
<path d="M108.91 70.7151C111.061 70.3824 113.086 69.4827 114.775 68.1086C116.464 66.7345 117.756 64.9355 118.519 62.8964C121.482 55.181 114.455 55.1466 123.445 38.4758C119.092 40.3854 115.114 43.0565 111.7 46.3634C109.666 48.4058 108.287 51.008 107.739 53.8377C106.811 58.9493 106.568 64.1616 107.015 69.3374C107.015 70.7496 107.704 70.8873 108.91 70.6118" fill="white"/>
<path d="M131.918 100.786C130.85 101.75 131.126 102.267 131.918 103.059C133.494 104.548 135.438 105.591 137.55 106.081C139.663 106.572 141.868 106.491 143.939 105.849C151.861 103.438 147.383 97.8922 166.224 94.689C162.03 92.4427 157.47 90.9614 152.756 90.3146C149.892 89.9703 146.991 90.4859 144.421 91.7957C139.873 94.2247 135.668 97.2478 131.918 100.786Z" fill="white"/>
<path d="M87.0375 64.9981C87.7264 66.2726 88.312 66.1003 89.3108 65.3426C91.0859 64.1053 92.5041 62.4227 93.4231 60.4639C94.3421 58.505 94.7294 56.3388 94.5463 54.1828C93.8229 45.9508 87.4853 49.0163 88.312 30.0723C85.2147 33.6632 82.788 37.7815 81.1477 42.2309C80.2025 44.9613 80.0945 47.9118 80.8377 50.704C82.2466 55.7004 84.3203 60.485 87.0031 64.9293" fill="white"/>
<path d="M124.203 84.1487C126.272 84.785 128.472 84.8654 130.582 84.3817C132.692 83.898 134.638 82.8673 136.223 81.3932C142.251 75.7444 135.948 72.6445 151.344 61.5881C146.591 61.3977 141.843 62.0627 137.326 63.5514C134.579 64.4841 132.177 66.2249 130.437 68.5457C127.357 72.7204 124.865 77.2982 123.031 82.151C122.48 83.4943 123.031 83.8387 124.168 84.1487" fill="white"/>
</svg>
