<svg width="196" height="258" viewBox="0 0 196 258" fill="none" xmlns="http://www.w3.org/2000/svg">
<path d="M47.1656 2.62249L47.1656 14.3945L49.49 14.3945L49.49 0.22309L47.6405 0.22309L44.3413 1.94764L44.8412 3.89717L47.1656 2.62249Z" fill="white"/>
<path d="M59.9871 4.87217C58.9179 4.85928 57.8798 5.23193 57.0628 5.9219C57.3322 4.93273 57.8895 4.0459 58.6637 3.37396C59.438 2.70201 60.3945 2.27525 61.4118 2.14784C61.8521 2.1009 62.2961 2.1009 62.7364 2.14784L63.0363 2.14784L63.0363 0.0983544L62.8614 0.0983544C62.4039 0.061122 61.9442 0.061122 61.4867 0.0983544C59.7907 0.269878 58.1995 0.999525 56.9629 2.17284C55.3672 3.89429 54.5141 6.17518 54.5885 8.52125C54.5885 12.2203 56.588 14.5947 59.5872 14.5947C60.2336 14.5918 60.8728 14.459 61.4668 14.2042C62.0608 13.9494 62.5976 13.5779 63.0452 13.1116C63.4928 12.6453 63.8422 12.0938 64.0725 11.4899C64.3029 10.886 64.4095 10.2419 64.386 9.59598C64.4385 8.98992 64.3633 8.37957 64.1652 7.8044C63.9671 7.22923 63.6506 6.70201 63.236 6.25682C62.8214 5.81163 62.3181 5.45838 61.7584 5.21986C61.1988 4.98135 60.5954 4.8629 59.9871 4.87217ZM59.5622 12.6702C57.9126 12.6702 56.8879 11.2955 56.8379 9.02112C56.8304 8.77615 56.8909 8.53389 57.0129 8.32129C57.2459 7.8594 57.6034 7.47187 58.0451 7.20246C58.4867 6.93305 58.9949 6.79249 59.5122 6.79668C59.8721 6.79313 60.2285 6.86734 60.557 7.01423C60.8855 7.16112 61.1785 7.37721 61.4158 7.64775C61.6531 7.91829 61.8292 8.23688 61.932 8.58175C62.0349 8.92662 62.062 9.28963 62.0116 9.64596C61.9616 11.4455 61.0119 12.6702 59.5622 12.6702Z" fill="white"/>
<path d="M71.0844 -0.000235498C67.9852 -0.000235535 66.0857 2.79907 66.0857 7.34793C66.0857 11.8968 67.8602 14.6211 70.8595 14.6211C73.8587 14.6211 75.8582 11.8968 75.8582 7.12297C75.8582 2.34917 74.1087 -0.000235462 71.0844 -0.000235498ZM71.0844 1.94927C73.2589 1.94927 73.5838 5.27345 73.5838 7.24795C73.5838 9.22246 73.2589 12.6716 71.0844 12.6716C69.5348 12.6716 68.5851 10.6221 68.5851 7.37293C68.5851 4.12374 69.4099 1.94927 70.9845 1.94927L71.0844 1.94927Z" fill="white"/>
<path d="M83.0566 -0.000235498C79.9574 -0.000235535 78.0579 2.79907 78.0579 7.34793C78.0579 11.8968 79.9074 14.6211 82.8567 14.6211C85.8059 14.6211 87.8554 11.8968 87.8554 7.12297C87.8554 2.34917 86.0808 -0.000235462 83.0566 -0.000235498ZM83.0566 1.94927C85.2311 1.94927 85.556 5.27345 85.556 7.24795C85.556 9.22246 85.2311 12.6716 83.0566 12.6716C81.507 12.6716 80.5572 10.6221 80.5572 7.37293C80.5572 4.12374 81.382 1.94927 82.8567 1.94927L83.0566 1.94927Z" fill="white"/>
<path d="M89.9048 7.49696L89.9048 9.39648L95.6284 9.39648L95.6284 7.49696L89.9048 7.49696Z" fill="white"/>
<path d="M47.29 32.2399C50.0893 29.5406 52.0638 27.4161 52.0638 24.7418C52.1059 24.1501 52.0191 23.5563 51.8093 23.0015C51.5996 22.4466 51.2719 21.9439 50.8489 21.5281C50.4259 21.1122 49.9177 20.7931 49.3593 20.5928C48.801 20.3925 48.2058 20.3158 47.615 20.3679C46.1449 20.3627 44.72 20.876 43.591 21.8175L43.441 21.9425L44.2408 23.742L44.5157 23.5171C45.2796 22.8667 46.2379 22.4886 47.2401 22.4424C47.581 22.3861 47.9303 22.4119 48.2593 22.5177C48.5882 22.6234 48.8872 22.806 49.1315 23.0503C49.3758 23.2946 49.5584 23.5936 49.6641 23.9225C49.7699 24.2514 49.7957 24.6008 49.7394 24.9417C49.7394 26.8413 48.2398 28.5408 44.7407 31.865L43.2161 33.3646L43.2161 34.8643L52.4388 34.8643L52.4388 32.8648L46.6402 32.8648L47.29 32.2399Z" fill="white"/>
<path d="M61.8113 27.3175C62.4015 27.0158 62.8977 26.558 63.2458 25.9939C63.594 25.4299 63.7807 24.7811 63.7858 24.1183C63.7861 23.5845 63.6731 23.0568 63.4544 22.5699C63.2357 22.083 62.9162 21.6481 62.517 21.2938C62.1178 20.9395 61.648 20.6738 61.1386 20.5145C60.6292 20.3551 60.0918 20.3056 59.5619 20.3692C59.0074 20.3143 58.4476 20.373 57.9165 20.5418C57.3855 20.7105 56.8945 20.9858 56.4735 21.3507C56.0524 21.7156 55.7102 22.1625 55.4677 22.6642C55.2251 23.1658 55.0875 23.7116 55.063 24.2682C55.0726 24.9044 55.2543 25.5261 55.5887 26.0674C55.9231 26.6086 56.3979 27.0492 56.9625 27.3425C56.2311 27.6489 55.605 28.1621 55.161 28.8192C54.7171 29.4762 54.4745 30.2486 54.4631 31.0415C54.5058 31.6255 54.6673 32.1946 54.9377 32.714C55.2082 33.2333 55.5819 33.692 56.0359 34.0617C56.4899 34.4315 57.0147 34.7046 57.578 34.8643C58.1414 35.024 58.7314 35.067 59.3119 34.9905C59.9221 35.0671 60.5415 35.0164 61.1311 34.8415C61.7207 34.6666 62.2676 34.3713 62.7373 33.9744C63.207 33.5775 63.5893 33.0875 63.8602 32.5354C64.131 31.9833 64.2844 31.381 64.3107 30.7666C64.2735 30.0112 64.0174 29.283 63.5736 28.6706C63.1298 28.0582 62.5175 27.588 61.8113 27.3175ZM59.4369 22.3187C59.706 22.293 59.9775 22.3259 60.2327 22.4149C60.4879 22.504 60.7209 22.6473 60.9156 22.8348C61.1102 23.0224 61.262 23.2498 61.3606 23.5016C61.4591 23.7533 61.502 24.0234 61.4864 24.2932C61.4387 24.798 61.2386 25.2762 60.9127 25.6646C60.5869 26.053 60.1506 26.3331 59.6618 26.4677C58.0872 26.0428 57.3374 25.318 57.3374 24.2433C57.3359 23.976 57.3908 23.7115 57.4985 23.467C57.6063 23.2225 57.7643 23.0034 57.9625 22.8241C58.1606 22.6448 58.3944 22.5094 58.6484 22.4266C58.9025 22.3438 59.1712 22.3156 59.4369 22.3437L59.4369 22.3187ZM59.4369 33.216C59.0913 33.2315 58.7462 33.1751 58.4236 33.0503C58.1009 32.9255 57.8076 32.7351 57.5624 32.4912C57.3628 32.2776 57.2089 32.0257 57.1101 31.7506C57.0113 31.4756 56.9695 31.1833 56.9875 30.8916C57.0176 30.2877 57.2514 29.7118 57.6509 29.2579C58.0503 28.804 58.5918 28.4988 59.1869 28.3922C61.1115 28.9421 61.9113 29.7419 61.9113 31.0915C61.9071 31.4032 61.8367 31.7104 61.7048 31.9929C61.5729 32.2753 61.3825 32.5265 61.1461 32.7297C60.9098 32.9329 60.633 33.0836 60.334 33.1718C60.035 33.2599 59.7207 33.2835 59.4119 33.241L59.4369 33.216Z" fill="white"/>
<path d="M71.0844 20.3689C67.9852 20.3689 66.0857 23.1932 66.0857 27.7171C66.0857 32.241 67.8602 35.1152 70.8595 35.1152C73.8587 35.1152 75.8582 32.4159 75.8582 27.6171C75.8582 22.8183 74.1087 20.3689 71.0844 20.3689ZM71.0844 22.3184C73.2589 22.3184 73.5838 25.6426 73.5838 27.6171C73.5838 29.5916 73.2589 33.0408 71.0844 33.0408C69.5348 33.0408 68.5851 31.0163 68.5851 27.7421C68.5851 24.4679 69.4099 22.4434 70.9845 22.4434L71.0844 22.3184Z" fill="white"/>
<path d="M83.0566 20.3689C79.9574 20.3689 78.0579 23.1932 78.0579 27.7171C78.0579 32.241 79.9074 35.1152 82.8567 35.1152C85.8059 35.1152 87.8554 32.4159 87.8554 27.6171C87.8554 22.8183 86.0808 20.3689 83.0566 20.3689ZM83.0566 22.3184C85.2311 22.3184 85.556 25.6426 85.556 27.6171C85.556 29.5916 85.2311 33.0408 83.0566 33.0408C81.507 33.0408 80.5572 31.0163 80.5572 27.7421C80.5572 24.4679 81.382 22.4434 82.8567 22.4434L83.0566 22.3184Z" fill="white"/>
<path d="M134.469 11.1464L149.215 11.1464L149.215 126.667L134.469 126.667L134.469 11.1464ZM131.069 9.89672L131.069 127.842C131.069 128.419 131.298 128.972 131.706 129.38C132.114 129.788 132.667 130.017 133.244 130.017L150.34 130.017C150.916 130.017 151.469 129.788 151.877 129.38C152.285 128.972 152.514 128.419 152.514 127.842L152.514 9.89672C152.514 9.61117 152.458 9.32842 152.348 9.06461C152.239 8.80079 152.079 8.56107 151.877 8.35915C151.675 8.15724 151.436 7.99707 151.172 7.88779C150.908 7.77852 150.625 7.72228 150.34 7.72228L133.244 7.72228C132.958 7.72228 132.676 7.77852 132.412 7.88779C132.148 7.99707 131.908 8.15724 131.706 8.35915C131.504 8.56107 131.344 8.80079 131.235 9.06461C131.126 9.32842 131.069 9.61117 131.069 9.89672Z" fill="white"/>
<path d="M54.6636 83.128L69.385 83.128L69.385 126.667L54.6636 126.667L54.6636 83.128ZM51.2395 81.9034L51.2395 127.842C51.2395 128.13 51.2965 128.414 51.4074 128.68C51.5182 128.945 51.6806 129.186 51.8852 129.388C52.0898 129.591 52.3324 129.75 52.5991 129.858C52.8659 129.966 53.1513 130.02 53.4389 130.016L70.6096 130.016C70.9014 130.026 71.1923 129.978 71.4648 129.873C71.7374 129.768 71.986 129.609 72.1959 129.407C72.4058 129.204 72.5728 128.96 72.6867 128.692C72.8006 128.423 72.8593 128.134 72.8591 127.842L72.8591 81.8534C72.8591 81.27 72.6274 80.7106 72.2149 80.2981C71.8024 79.8856 71.243 79.6539 70.6596 79.6539L53.4389 79.6539C53.1501 79.6539 52.8641 79.7108 52.5973 79.8213C52.3304 79.9319 52.0879 80.0939 51.8837 80.2981C51.6795 80.5024 51.5175 80.7448 51.4069 81.0117C51.2964 81.2785 51.2395 81.5645 51.2395 81.8534L51.2395 81.9034Z" fill="white"/>
<path d="M94.5786 47.337L109.3 47.337L109.3 126.667L94.5786 126.667L94.5786 47.337ZM91.1545 46.0874L91.1545 127.842C91.1545 128.419 91.3836 128.972 91.7914 129.379C92.1992 129.787 92.7522 130.016 93.3289 130.016L110.525 130.016C110.823 130.037 111.121 129.996 111.403 129.896C111.684 129.796 111.942 129.639 112.16 129.435C112.378 129.231 112.552 128.984 112.67 128.71C112.789 128.436 112.85 128.14 112.849 127.842L112.849 46.0874C112.849 45.7997 112.792 45.5149 112.681 45.2494C112.57 44.984 112.408 44.7431 112.203 44.5409C111.999 44.3386 111.756 44.179 111.489 44.0712C111.223 43.9634 110.937 43.9096 110.65 43.9129L93.3289 43.9129C92.7522 43.9129 92.1992 44.142 91.7914 44.5498C91.3836 44.9576 91.1545 45.5107 91.1545 46.0874Z" fill="white"/>
<path d="M56.5213 200.122C55.4892 200.122 54.5115 199.959 53.5881 199.633C52.6783 199.294 51.945 198.846 51.3883 198.289L52.1012 197.128C52.5629 197.603 53.1807 197.997 53.9548 198.309C54.7424 198.622 55.5979 198.778 56.5213 198.778C57.7027 198.778 58.6057 198.52 59.2303 198.004C59.8686 197.488 60.1877 196.795 60.1877 195.926C60.1877 195.057 59.8754 194.365 59.2507 193.849C58.6396 193.333 57.6687 193.075 56.3379 193.075H55.3195V191.995L59.7192 186.475L59.9229 187.045H51.979V185.742H61.145V186.78L56.7453 192.301L56.0324 191.832H56.5824C58.2934 191.832 59.5698 192.212 60.4117 192.973C61.2672 193.733 61.695 194.711 61.695 195.906C61.695 196.707 61.5049 197.427 61.1247 198.065C60.7444 198.703 60.1673 199.206 59.3933 199.572C58.6329 199.939 57.6755 200.122 56.5213 200.122ZM70.2739 204.053C69.7714 204.053 69.2894 203.972 68.8277 203.809C68.3795 203.646 67.9925 203.402 67.6666 203.076L68.3388 201.996C68.6104 202.254 68.9023 202.451 69.2147 202.587C69.5406 202.736 69.9004 202.811 70.2942 202.811C70.7695 202.811 71.1769 202.675 71.5164 202.404C71.8694 202.146 72.2021 201.684 72.5145 201.018L73.207 199.45L73.37 199.226L77.7697 189.306H79.1955L73.8384 201.283C73.5397 201.976 73.207 202.526 72.8404 202.933C72.4873 203.341 72.1003 203.626 71.6793 203.789C71.2584 203.965 70.7899 204.053 70.2739 204.053ZM73.1255 200.306L68.1962 189.306H69.7035L74.0625 199.124L73.1255 200.306ZM86.9687 200.102C86.0453 200.102 85.2101 199.891 84.4633 199.47C83.7164 199.036 83.1189 198.418 82.6708 197.617C82.2363 196.802 82.019 195.811 82.019 194.643C82.019 193.475 82.2363 192.491 82.6708 191.689C83.1053 190.875 83.696 190.257 84.4429 189.836C85.1898 189.415 86.0317 189.204 86.9687 189.204C87.9871 189.204 88.8969 189.435 89.6981 189.897C90.5129 190.345 91.1511 190.983 91.6128 191.812C92.0745 192.626 92.3053 193.57 92.3053 194.643C92.3053 195.729 92.0745 196.68 91.6128 197.495C91.1511 198.309 90.5129 198.948 89.6981 199.409C88.8969 199.871 87.9871 200.102 86.9687 200.102ZM81.4487 203.952V189.306H82.8337V192.525L82.6912 194.663L82.8949 196.822V203.952H81.4487ZM86.8668 198.819C87.6273 198.819 88.3062 198.649 88.9037 198.309C89.5012 197.956 89.9765 197.467 90.3295 196.843C90.6826 196.205 90.8591 195.471 90.8591 194.643C90.8591 193.815 90.6826 193.088 90.3295 192.463C89.9765 191.839 89.5012 191.35 88.9037 190.997C88.3062 190.644 87.6273 190.467 86.8668 190.467C86.1064 190.467 85.4206 190.644 84.8095 190.997C84.2121 191.35 83.7368 191.839 83.3837 192.463C83.0442 193.088 82.8745 193.815 82.8745 194.643C82.8745 195.471 83.0442 196.205 83.3837 196.843C83.7368 197.467 84.2121 197.956 84.8095 198.309C85.4206 198.649 86.1064 198.819 86.8668 198.819ZM99.8123 200.102C98.7803 200.102 97.8501 199.871 97.0217 199.409C96.207 198.934 95.5619 198.289 95.0867 197.474C94.6114 196.646 94.3738 195.702 94.3738 194.643C94.3738 193.57 94.6114 192.626 95.0867 191.812C95.5619 190.997 96.207 190.359 97.0217 189.897C97.8365 189.435 98.7667 189.204 99.8123 189.204C100.871 189.204 101.808 189.435 102.623 189.897C103.452 190.359 104.097 190.997 104.558 191.812C105.034 192.626 105.271 193.57 105.271 194.643C105.271 195.702 105.034 196.646 104.558 197.474C104.097 198.289 103.452 198.934 102.623 199.409C101.795 199.871 100.858 200.102 99.8123 200.102ZM99.8123 198.819C100.586 198.819 101.272 198.649 101.87 198.309C102.467 197.956 102.936 197.467 103.275 196.843C103.628 196.205 103.805 195.471 103.805 194.643C103.805 193.801 103.628 193.068 103.275 192.443C102.936 191.818 102.467 191.336 101.87 190.997C101.272 190.644 100.593 190.467 99.8327 190.467C99.0722 190.467 98.3932 190.644 97.7957 190.997C97.1983 191.336 96.723 191.818 96.3699 192.443C96.0169 193.068 95.8403 193.801 95.8403 194.643C95.8403 195.471 96.0169 196.205 96.3699 196.843C96.723 197.467 97.1983 197.956 97.7957 198.309C98.3932 198.649 99.0654 198.819 99.8123 198.819ZM108.362 200V189.306H113.088C114.296 189.306 115.247 189.537 115.939 189.999C116.645 190.461 116.998 191.139 116.998 192.036C116.998 192.905 116.666 193.577 116 194.052C115.335 194.514 114.459 194.745 113.373 194.745L113.658 194.317C114.934 194.317 115.871 194.555 116.469 195.03C117.066 195.505 117.365 196.191 117.365 197.087C117.365 198.011 117.026 198.73 116.347 199.246C115.681 199.749 114.642 200 113.23 200H108.362ZM109.767 198.859H113.169C114.079 198.859 114.765 198.717 115.226 198.432C115.702 198.133 115.939 197.658 115.939 197.006C115.939 196.354 115.729 195.879 115.308 195.58C114.887 195.281 114.222 195.132 113.312 195.132H109.767V198.859ZM109.767 194.052H112.986C113.814 194.052 114.446 193.896 114.88 193.584C115.328 193.271 115.552 192.817 115.552 192.219C115.552 191.622 115.328 191.173 114.88 190.875C114.446 190.576 113.814 190.427 112.986 190.427H109.767V194.052ZM120.755 200V189.306H122.201V194.032H128.943V189.306H130.389V200H128.943V195.274H122.201V200H120.755ZM141.405 200V196.15L141.67 196.456H138.044C136.672 196.456 135.6 196.157 134.826 195.56C134.052 194.962 133.664 194.093 133.664 192.952C133.664 191.73 134.079 190.82 134.907 190.223C135.735 189.612 136.842 189.306 138.227 189.306H142.729V200H141.405ZM133.583 200L136.516 195.885H138.023L135.151 200H133.583ZM141.405 195.723V190.141L141.67 190.569H138.268C137.277 190.569 136.503 190.759 135.946 191.139C135.403 191.52 135.131 192.138 135.131 192.993C135.131 194.582 136.143 195.376 138.166 195.376H141.67L141.405 195.723ZM18.6806 226V215.306H20.1268V223.8L27.2763 215.306H28.5596V226H27.1134V217.486L19.9842 226H18.6806ZM32.7042 226V215.306H34.1504V220.032H40.8926V215.306H42.3388V226H40.8926V221.274H34.1504V226H32.7042ZM48.4862 226V216.182L48.8529 216.569H44.4328V215.306H53.9859V216.569H49.5658L49.9324 216.182V226H48.4862ZM60.1626 226.102C59.0491 226.102 58.0714 225.871 57.2295 225.409C56.3876 224.934 55.729 224.289 55.2537 223.474C54.7784 222.646 54.5408 221.702 54.5408 220.643C54.5408 219.584 54.7648 218.647 55.2129 217.832C55.6746 217.017 56.2993 216.379 57.0869 215.917C57.8881 215.442 58.7843 215.204 59.7756 215.204C60.7805 215.204 61.6699 215.435 62.444 215.897C63.2316 216.345 63.8494 216.983 64.2975 217.812C64.7457 218.626 64.9697 219.57 64.9697 220.643C64.9697 220.711 64.9629 220.786 64.9493 220.867C64.9493 220.935 64.9493 221.01 64.9493 221.091H55.6407V220.012H64.1753L63.605 220.439C63.605 219.665 63.4352 218.979 63.0958 218.382C62.7699 217.771 62.3217 217.296 61.7514 216.956C61.1811 216.617 60.5225 216.447 59.7756 216.447C59.0423 216.447 58.3837 216.617 57.7998 216.956C57.2159 217.296 56.761 217.771 56.4351 218.382C56.1092 218.993 55.9462 219.692 55.9462 220.48V220.704C55.9462 221.519 56.1228 222.239 56.4758 222.863C56.8425 223.474 57.3449 223.956 57.9831 224.309C58.6349 224.649 59.375 224.819 60.2034 224.819C60.8552 224.819 61.4594 224.703 62.0162 224.472C62.5865 224.241 63.0754 223.888 63.4828 223.413L64.2975 224.35C63.8223 224.92 63.2248 225.355 62.5051 225.654C61.7989 225.952 61.0181 226.102 60.1626 226.102ZM68.171 226V215.306H69.6172V220.032H76.3593V215.306H77.8055V226H76.3593V221.274H69.6172V226H68.171ZM86.3973 226.102C85.3381 226.102 84.3875 225.871 83.5456 225.409C82.7173 224.934 82.0655 224.289 81.5902 223.474C81.1149 222.646 80.8773 221.702 80.8773 220.643C80.8773 219.57 81.1149 218.626 81.5902 217.812C82.0655 216.997 82.7173 216.359 83.5456 215.897C84.3875 215.435 85.3381 215.204 86.3973 215.204C87.3071 215.204 88.1287 215.381 88.8619 215.734C89.5952 216.087 90.1724 216.617 90.5933 217.323L89.5138 218.056C89.1471 217.513 88.6922 217.112 88.149 216.854C87.6059 216.596 87.0152 216.467 86.3769 216.467C85.6165 216.467 84.9307 216.644 84.3197 216.997C83.7086 217.336 83.2265 217.818 82.8734 218.443C82.5204 219.068 82.3439 219.801 82.3439 220.643C82.3439 221.485 82.5204 222.218 82.8734 222.843C83.2265 223.467 83.7086 223.956 84.3197 224.309C84.9307 224.649 85.6165 224.819 86.3769 224.819C87.0152 224.819 87.6059 224.69 88.149 224.432C88.6922 224.174 89.1471 223.78 89.5138 223.25L90.5933 223.983C90.1724 224.676 89.5952 225.206 88.8619 225.572C88.1287 225.925 87.3071 226.102 86.3973 226.102ZM93.3936 226V215.306H94.8398V223.8L101.989 215.306H103.273V226H101.826V217.486L94.6972 226H93.3936ZM107.417 226V215.306H112.143C113.351 215.306 114.302 215.537 114.994 215.999C115.701 216.461 116.054 217.139 116.054 218.036C116.054 218.905 115.721 219.577 115.056 220.052C114.39 220.514 113.514 220.745 112.428 220.745L112.713 220.317C113.99 220.317 114.927 220.555 115.524 221.03C116.122 221.505 116.42 222.191 116.42 223.087C116.42 224.011 116.081 224.73 115.402 225.246C114.736 225.749 113.698 226 112.285 226H107.417ZM108.823 224.859H112.224C113.134 224.859 113.82 224.717 114.282 224.432C114.757 224.133 114.994 223.658 114.994 223.006C114.994 222.354 114.784 221.879 114.363 221.58C113.942 221.281 113.277 221.132 112.367 221.132H108.823V224.859ZM108.823 220.052H112.041C112.869 220.052 113.501 219.896 113.935 219.584C114.383 219.271 114.607 218.817 114.607 218.219C114.607 217.622 114.383 217.173 113.935 216.875C113.501 216.576 112.869 216.427 112.041 216.427H108.823V220.052ZM119.81 226V215.306H121.256V220.032H127.998V215.306H129.444V226H127.998V221.274H121.256V226H119.81ZM137.954 226.102C136.922 226.102 135.992 225.871 135.164 225.409C134.349 224.934 133.704 224.289 133.229 223.474C132.754 222.646 132.516 221.702 132.516 220.643C132.516 219.57 132.754 218.626 133.229 217.812C133.704 216.997 134.349 216.359 135.164 215.897C135.979 215.435 136.909 215.204 137.954 215.204C139.014 215.204 139.951 215.435 140.765 215.897C141.594 216.359 142.239 216.997 142.7 217.812C143.176 218.626 143.413 219.57 143.413 220.643C143.413 221.702 143.176 222.646 142.7 223.474C142.239 224.289 141.594 224.934 140.765 225.409C139.937 225.871 139 226.102 137.954 226.102ZM137.954 224.819C138.729 224.819 139.414 224.649 140.012 224.309C140.609 223.956 141.078 223.467 141.417 222.843C141.77 222.205 141.947 221.471 141.947 220.643C141.947 219.801 141.77 219.068 141.417 218.443C141.078 217.818 140.609 217.336 140.012 216.997C139.414 216.644 138.735 216.467 137.975 216.467C137.214 216.467 136.535 216.644 135.938 216.997C135.34 217.336 134.865 217.818 134.512 218.443C134.159 219.068 133.983 219.801 133.983 220.643C133.983 221.471 134.159 222.205 134.512 222.843C134.865 223.467 135.34 223.956 135.938 224.309C136.535 224.649 137.208 224.819 137.954 224.819ZM150.985 226.102C149.926 226.102 148.976 225.871 148.134 225.409C147.305 224.934 146.654 224.289 146.178 223.474C145.703 222.646 145.465 221.702 145.465 220.643C145.465 219.57 145.703 218.626 146.178 217.812C146.654 216.997 147.305 216.359 148.134 215.897C148.976 215.435 149.926 215.204 150.985 215.204C151.895 215.204 152.717 215.381 153.45 215.734C154.183 216.087 154.76 216.617 155.181 217.323L154.102 218.056C153.735 217.513 153.28 217.112 152.737 216.854C152.194 216.596 151.603 216.467 150.965 216.467C150.205 216.467 149.519 216.644 148.908 216.997C148.297 217.336 147.815 217.818 147.462 218.443C147.109 219.068 146.932 219.801 146.932 220.643C146.932 221.485 147.109 222.218 147.462 222.843C147.815 223.467 148.297 223.956 148.908 224.309C149.519 224.649 150.205 224.819 150.965 224.819C151.603 224.819 152.194 224.69 152.737 224.432C153.28 224.174 153.735 223.78 154.102 223.25L155.181 223.983C154.76 224.676 154.183 225.206 153.45 225.572C152.717 225.925 151.895 226.102 150.985 226.102ZM159.82 226V216.182L160.186 216.569H155.766V215.306H165.319V216.569H160.899L161.266 216.182V226H159.82ZM167.41 226V215.306H168.857V223.8L176.006 215.306H177.289V226H175.843V217.486L168.714 226H167.41ZM32.2069 252V241.306H36.9325C38.1411 241.306 39.0917 241.537 39.7842 241.999C40.4903 242.461 40.8434 243.139 40.8434 244.036C40.8434 244.905 40.5107 245.577 39.8453 246.052C39.1799 246.514 38.3041 246.745 37.2177 246.745L37.5029 246.317C38.7793 246.317 39.7163 246.555 40.3138 247.03C40.9113 247.505 41.21 248.191 41.21 249.087C41.21 250.011 40.8705 250.73 40.1916 251.246C39.5262 251.749 38.4874 252 37.0751 252H32.2069ZM33.6124 250.859H37.014C37.9238 250.859 38.6096 250.717 39.0713 250.432C39.5466 250.133 39.7842 249.658 39.7842 249.006C39.7842 248.354 39.5737 247.879 39.1528 247.58C38.7318 247.281 38.0664 247.132 37.1566 247.132H33.6124V250.859ZM33.6124 246.052H36.8307C37.659 246.052 38.2905 245.896 38.725 245.584C39.1731 245.271 39.3972 244.817 39.3972 244.219C39.3972 243.622 39.1731 243.173 38.725 242.875C38.2905 242.576 37.659 242.427 36.8307 242.427H33.6124V246.052ZM48.9991 252.102C47.9671 252.102 47.0369 251.871 46.2086 251.409C45.3938 250.934 44.7488 250.289 44.2735 249.474C43.7982 248.646 43.5606 247.702 43.5606 246.643C43.5606 245.57 43.7982 244.626 44.2735 243.812C44.7488 242.997 45.3938 242.359 46.2086 241.897C47.0233 241.435 47.9535 241.204 48.9991 241.204C50.0583 241.204 50.9953 241.435 51.81 241.897C52.6384 242.359 53.2834 242.997 53.7451 243.812C54.2204 244.626 54.458 245.57 54.458 246.643C54.458 247.702 54.2204 248.646 53.7451 249.474C53.2834 250.289 52.6384 250.934 51.81 251.409C50.9817 251.871 50.0447 252.102 48.9991 252.102ZM48.9991 250.819C49.7731 250.819 50.4589 250.649 51.0564 250.309C51.6539 249.956 52.1224 249.467 52.4619 248.843C52.8149 248.205 52.9914 247.471 52.9914 246.643C52.9914 245.801 52.8149 245.068 52.4619 244.443C52.1224 243.818 51.6539 243.336 51.0564 242.997C50.4589 242.644 49.7799 242.467 49.0195 242.467C48.259 242.467 47.5801 242.644 46.9826 242.997C46.3851 243.336 45.9098 243.818 45.5568 244.443C45.2037 245.068 45.0272 245.801 45.0272 246.643C45.0272 247.471 45.2037 248.205 45.5568 248.843C45.9098 249.467 46.3851 249.956 46.9826 250.309C47.5801 250.649 48.2523 250.819 48.9991 250.819ZM60.3413 252.122C59.5673 252.122 58.8001 252.014 58.0396 251.796C57.2792 251.579 56.607 251.246 56.0231 250.798L56.4916 249.719C57.0076 250.099 57.6051 250.391 58.2841 250.595C58.963 250.785 59.6352 250.88 60.3006 250.88C60.966 250.866 61.5431 250.771 62.032 250.595C62.5208 250.418 62.901 250.174 63.1726 249.861C63.4442 249.549 63.58 249.196 63.58 248.802C63.58 248.232 63.322 247.79 62.806 247.478C62.29 247.152 61.5838 246.989 60.6876 246.989H58.8544V245.93H60.5858C61.1153 245.93 61.5838 245.862 61.9912 245.726C62.3986 245.591 62.7109 245.394 62.9282 245.136C63.159 244.878 63.2745 244.572 63.2745 244.219C63.2745 243.839 63.1387 243.513 62.8671 243.241C62.6091 242.97 62.2492 242.766 61.7875 242.63C61.3258 242.494 60.803 242.427 60.2191 242.427C59.6895 242.44 59.1396 242.522 58.5692 242.671C57.9989 242.807 57.4353 243.017 56.8786 243.302L56.4712 242.182C57.0959 241.856 57.7137 241.612 58.3248 241.449C58.9494 241.272 59.5741 241.184 60.1987 241.184C61.0542 241.157 61.8215 241.259 62.5004 241.49C63.193 241.72 63.743 242.053 64.1503 242.488C64.5577 242.909 64.7614 243.418 64.7614 244.015C64.7614 244.545 64.5984 245.007 64.2725 245.4C63.9466 245.794 63.5121 246.1 62.9689 246.317C62.4258 246.534 61.8079 246.643 61.1153 246.643L61.1765 246.256C62.3986 246.256 63.3491 246.494 64.0281 246.969C64.7207 247.444 65.0669 248.089 65.0669 248.904C65.0669 249.542 64.8565 250.106 64.4355 250.595C64.0145 251.07 63.4442 251.443 62.7245 251.715C62.0184 251.986 61.224 252.122 60.3413 252.122ZM75.6829 251.307V242.569H70.5295L70.4073 244.952C70.3801 245.672 70.3326 246.378 70.2647 247.071C70.2104 247.763 70.1085 248.401 69.9592 248.985C69.8234 249.556 69.6265 250.024 69.3685 250.391C69.1105 250.744 68.7778 250.948 68.3704 251.002L66.9242 250.737C67.3451 250.751 67.6914 250.601 67.963 250.289C68.2346 249.963 68.4451 249.522 68.5944 248.965C68.7438 248.408 68.8524 247.777 68.9203 247.071C68.9882 246.351 69.0426 245.618 69.0833 244.871L69.2259 241.306H77.1291V251.307H75.6829ZM66.4761 254.587V250.737H78.7993V254.587H77.4346V252H67.8408V254.587H66.4761ZM86.2008 252.102C85.0873 252.102 84.1095 251.871 83.2676 251.409C82.4257 250.934 81.7671 250.289 81.2918 249.474C80.8165 248.646 80.5789 247.702 80.5789 246.643C80.5789 245.584 80.803 244.647 81.2511 243.832C81.7128 243.017 82.3374 242.379 83.125 241.917C83.9262 241.442 84.8225 241.204 85.8137 241.204C86.8186 241.204 87.7081 241.435 88.4821 241.897C89.2697 242.345 89.8876 242.983 90.3357 243.812C90.7838 244.626 91.0078 245.57 91.0078 246.643C91.0078 246.711 91.0011 246.786 90.9875 246.867C90.9875 246.935 90.9875 247.01 90.9875 247.091H81.6788V246.012H90.2135L89.6431 246.439C89.6431 245.665 89.4734 244.979 89.1339 244.382C88.808 243.771 88.3599 243.296 87.7895 242.956C87.2192 242.617 86.5606 242.447 85.8137 242.447C85.0805 242.447 84.4219 242.617 83.838 242.956C83.254 243.296 82.7991 243.771 82.4732 244.382C82.1473 244.993 81.9844 245.692 81.9844 246.48V246.704C81.9844 247.519 82.1609 248.239 82.514 248.863C82.8806 249.474 83.383 249.956 84.0213 250.309C84.6731 250.649 85.4132 250.819 86.2415 250.819C86.8933 250.819 87.4976 250.703 88.0543 250.472C88.6247 250.241 89.1135 249.888 89.5209 249.413L90.3357 250.35C89.8604 250.92 89.2629 251.355 88.5432 251.654C87.8371 251.952 87.0563 252.102 86.2008 252.102ZM94.2091 252V241.306H95.6553V249.8L102.805 241.306H104.088V252H102.642V243.486L95.5127 252H94.2091ZM99.057 239.758C98.1607 239.758 97.4342 239.534 96.8775 239.086C96.3343 238.624 96.0491 237.966 96.022 237.11H97.0608C97.0744 237.653 97.2645 238.081 97.6311 238.393C97.9978 238.706 98.473 238.862 99.057 238.862C99.6409 238.862 100.116 238.706 100.483 238.393C100.863 238.081 101.06 237.653 101.073 237.11H102.112C102.099 237.966 101.814 238.624 101.257 239.086C100.7 239.534 99.9668 239.758 99.057 239.758ZM112.714 252.102C111.655 252.102 110.704 251.871 109.862 251.409C109.034 250.934 108.382 250.289 107.907 249.474C107.432 248.646 107.194 247.702 107.194 246.643C107.194 245.57 107.432 244.626 107.907 243.812C108.382 242.997 109.034 242.359 109.862 241.897C110.704 241.435 111.655 241.204 112.714 241.204C113.624 241.204 114.445 241.381 115.179 241.734C115.912 242.087 116.489 242.617 116.91 243.323L115.83 244.056C115.464 243.513 115.009 243.112 114.466 242.854C113.922 242.596 113.332 242.467 112.694 242.467C111.933 242.467 111.247 242.644 110.636 242.997C110.025 243.336 109.543 243.818 109.19 244.443C108.837 245.068 108.66 245.801 108.66 246.643C108.66 247.485 108.837 248.218 109.19 248.843C109.543 249.467 110.025 249.956 110.636 250.309C111.247 250.649 111.933 250.819 112.694 250.819C113.332 250.819 113.922 250.69 114.466 250.432C115.009 250.174 115.464 249.78 115.83 249.25L116.91 249.983C116.489 250.676 115.912 251.206 115.179 251.572C114.445 251.925 113.624 252.102 112.714 252.102ZM121.548 252V242.182L121.915 242.569H117.495V241.306H127.048V242.569H122.628L122.994 242.182V252H121.548ZM129.139 252V241.306H133.864C135.073 241.306 136.024 241.537 136.716 241.999C137.422 242.461 137.775 243.139 137.775 244.036C137.775 244.905 137.443 245.577 136.777 246.052C136.112 246.514 135.236 246.745 134.15 246.745L134.435 246.317C135.711 246.317 136.648 246.555 137.246 247.03C137.843 247.505 138.142 248.191 138.142 249.087C138.142 250.011 137.802 250.73 137.123 251.246C136.458 251.749 135.419 252 134.007 252H129.139ZM130.544 250.859H133.946C134.856 250.859 135.541 250.717 136.003 250.432C136.478 250.133 136.716 249.658 136.716 249.006C136.716 248.354 136.506 247.879 136.085 247.58C135.664 247.281 134.998 247.132 134.089 247.132H130.544V250.859ZM130.544 246.052H133.763C134.591 246.052 135.222 245.896 135.657 245.584C136.105 245.271 136.329 244.817 136.329 244.219C136.329 243.622 136.105 243.173 135.657 242.875C135.222 242.576 134.591 242.427 133.763 242.427H130.544V246.052ZM141.531 252V241.306H142.978V249.8L150.127 241.306H151.41V252H149.964V243.486L142.835 252H141.531ZM162.46 252V248.15L162.725 248.456H159.099C157.728 248.456 156.655 248.157 155.881 247.56C155.107 246.962 154.72 246.093 154.72 244.952C154.72 243.73 155.134 242.82 155.962 242.223C156.791 241.612 157.897 241.306 159.282 241.306H163.784V252H162.46ZM154.638 252L157.571 247.885H159.079L156.207 252H154.638ZM162.46 247.723V242.141L162.725 242.569H159.323C158.332 242.569 157.558 242.759 157.001 243.139C156.458 243.52 156.186 244.138 156.186 244.993C156.186 246.582 157.198 247.376 159.221 247.376H162.725L162.46 247.723Z" fill="white"/>
</svg>
