<svg width="110" height="131" viewBox="0 0 110 131" fill="none" xmlns="http://www.w3.org/2000/svg">
<path d="M4.1656 2.62249L4.1656 14.3945L6.49002 14.3945L6.49002 0.22309L4.64048 0.22309L1.34131 1.94764L1.84118 3.89717L4.1656 2.62249Z" fill="white"/>
<path d="M16.9871 4.87217C15.9179 4.85928 14.8798 5.23193 14.0628 5.9219C14.3322 4.93273 14.8895 4.0459 15.6637 3.37396C16.438 2.70201 17.3945 2.27525 18.4118 2.14784C18.8521 2.1009 19.2961 2.1009 19.7364 2.14784L20.0363 2.14784L20.0363 0.0983544L19.8614 0.0983544C19.4039 0.061122 18.9442 0.061122 18.4867 0.0983544C16.7907 0.269878 15.1995 0.999525 13.9629 2.17284C12.3672 3.89429 11.5141 6.17518 11.5885 8.52125C11.5885 12.2203 13.588 14.5947 16.5872 14.5947C17.2336 14.5918 17.8728 14.459 18.4668 14.2042C19.0608 13.9494 19.5976 13.5779 20.0452 13.1116C20.4928 12.6453 20.8422 12.0938 21.0725 11.4899C21.3029 10.886 21.4095 10.2419 21.386 9.59598C21.4385 8.98992 21.3633 8.37957 21.1652 7.8044C20.9671 7.22923 20.6506 6.70201 20.236 6.25682C19.8214 5.81163 19.3181 5.45838 18.7584 5.21986C18.1988 4.98135 17.5954 4.8629 16.9871 4.87217ZM16.5622 12.6702C14.9126 12.6702 13.8879 11.2955 13.8379 9.02112C13.8304 8.77615 13.8909 8.53389 14.0129 8.32129C14.2459 7.8594 14.6034 7.47187 15.0451 7.20246C15.4867 6.93305 15.9949 6.79249 16.5122 6.79668C16.8721 6.79313 17.2285 6.86734 17.557 7.01423C17.8855 7.16112 18.1785 7.37721 18.4158 7.64775C18.6531 7.91829 18.8292 8.23688 18.932 8.58175C19.0349 8.92662 19.062 9.28963 19.0116 9.64596C18.9616 11.4455 18.0119 12.6702 16.5622 12.6702Z" fill="white"/>
<path d="M28.0844 -0.000235498C24.9852 -0.000235535 23.0857 2.79907 23.0857 7.34793C23.0857 11.8968 24.8602 14.6211 27.8595 14.6211C30.8587 14.6211 32.8582 11.8968 32.8582 7.12297C32.8582 2.34917 31.1087 -0.000235462 28.0844 -0.000235498ZM28.0844 1.94927C30.2589 1.94927 30.5838 5.27345 30.5838 7.24795C30.5838 9.22246 30.2589 12.6716 28.0844 12.6716C26.5348 12.6716 25.5851 10.6221 25.5851 7.37293C25.5851 4.12374 26.4099 1.94927 27.9845 1.94927L28.0844 1.94927Z" fill="white"/>
<path d="M40.0566 -0.000235498C36.9574 -0.000235535 35.0579 2.79907 35.0579 7.34793C35.0579 11.8968 36.9074 14.6211 39.8567 14.6211C42.8059 14.6211 44.8554 11.8968 44.8554 7.12297C44.8554 2.34917 43.0808 -0.000235462 40.0566 -0.000235498ZM40.0566 1.94927C42.2311 1.94927 42.556 5.27345 42.556 7.24795C42.556 9.22246 42.2311 12.6716 40.0566 12.6716C38.507 12.6716 37.5572 10.6221 37.5572 7.37293C37.5572 4.12374 38.382 1.94927 39.8567 1.94927L40.0566 1.94927Z" fill="white"/>
<path d="M46.9048 7.49696L46.9048 9.39648L52.6284 9.39648L52.6284 7.49696L46.9048 7.49696Z" fill="white"/>
<path d="M4.29004 32.2399C7.08934 29.5406 9.06385 27.4161 9.06385 24.7418C9.10593 24.1501 9.01909 23.5563 8.80932 23.0015C8.59956 22.4466 8.27187 21.9439 7.84888 21.5281C7.42589 21.1122 6.91767 20.7931 6.35934 20.5928C5.801 20.3925 5.20584 20.3158 4.61496 20.3679C3.14486 20.3627 1.72 20.876 0.59097 21.8175L0.441006 21.9425L1.24081 23.742L1.51574 23.5171C2.27956 22.8667 3.2379 22.4886 4.24005 22.4424C4.58095 22.3861 4.93035 22.4119 5.25928 22.5177C5.58822 22.6234 5.88723 22.806 6.13154 23.0503C6.37585 23.2946 6.55843 23.5936 6.66414 23.9225C6.76985 24.2514 6.79566 24.6008 6.73943 24.9417C6.73943 26.8413 5.2398 28.5408 1.74068 31.865L0.216064 33.3646L0.216064 34.8643L9.43875 34.8643L9.43875 32.8648L3.64021 32.8648L4.29004 32.2399Z" fill="white"/>
<path d="M18.8113 27.3175C19.4015 27.0158 19.8977 26.558 20.2458 25.9939C20.594 25.4299 20.7807 24.7811 20.7858 24.1183C20.7861 23.5845 20.6731 23.0568 20.4544 22.5699C20.2357 22.083 19.9162 21.6481 19.517 21.2938C19.1178 20.9395 18.648 20.6738 18.1386 20.5145C17.6292 20.3551 17.0918 20.3056 16.5619 20.3692C16.0074 20.3143 15.4476 20.373 14.9165 20.5418C14.3855 20.7105 13.8945 20.9858 13.4735 21.3507C13.0524 21.7156 12.7102 22.1625 12.4677 22.6642C12.2251 23.1658 12.0875 23.7116 12.063 24.2682C12.0726 24.9044 12.2543 25.5261 12.5887 26.0674C12.9231 26.6086 13.3979 27.0492 13.9625 27.3425C13.2311 27.6489 12.605 28.1621 12.161 28.8192C11.7171 29.4762 11.4745 30.2486 11.4631 31.0415C11.5058 31.6255 11.6673 32.1946 11.9377 32.714C12.2082 33.2333 12.5819 33.692 13.0359 34.0617C13.4899 34.4315 14.0147 34.7046 14.578 34.8643C15.1414 35.024 15.7314 35.067 16.3119 34.9905C16.9221 35.0671 17.5415 35.0164 18.1311 34.8415C18.7207 34.6666 19.2676 34.3713 19.7373 33.9744C20.207 33.5775 20.5893 33.0875 20.8602 32.5354C21.131 31.9833 21.2844 31.381 21.3107 30.7666C21.2735 30.0112 21.0174 29.283 20.5736 28.6706C20.1298 28.0582 19.5175 27.588 18.8113 27.3175ZM16.4369 22.3187C16.706 22.293 16.9775 22.3259 17.2327 22.4149C17.4879 22.504 17.7209 22.6473 17.9156 22.8348C18.1102 23.0224 18.262 23.2498 18.3606 23.5016C18.4591 23.7533 18.502 24.0234 18.4864 24.2932C18.4387 24.798 18.2386 25.2762 17.9127 25.6646C17.5869 26.053 17.1506 26.3331 16.6618 26.4677C15.0872 26.0428 14.3374 25.318 14.3374 24.2433C14.3359 23.976 14.3908 23.7115 14.4985 23.467C14.6063 23.2225 14.7643 23.0034 14.9625 22.8241C15.1606 22.6448 15.3944 22.5094 15.6484 22.4266C15.9025 22.3438 16.1712 22.3156 16.4369 22.3437L16.4369 22.3187ZM16.4369 33.216C16.0913 33.2315 15.7462 33.1751 15.4236 33.0503C15.1009 32.9255 14.8076 32.7351 14.5624 32.4912C14.3628 32.2776 14.2089 32.0257 14.1101 31.7506C14.0113 31.4756 13.9695 31.1833 13.9875 30.8916C14.0176 30.2877 14.2514 29.7118 14.6509 29.2579C15.0503 28.804 15.5918 28.4988 16.1869 28.3922C18.1115 28.9421 18.9113 29.7419 18.9113 31.0915C18.9071 31.4032 18.8367 31.7104 18.7048 31.9929C18.5729 32.2753 18.3825 32.5265 18.1461 32.7297C17.9098 32.9329 17.633 33.0836 17.334 33.1718C17.035 33.2599 16.7207 33.2835 16.4119 33.241L16.4369 33.216Z" fill="white"/>
<path d="M28.0844 20.3689C24.9852 20.3689 23.0857 23.1932 23.0857 27.7171C23.0857 32.241 24.8602 35.1152 27.8595 35.1152C30.8587 35.1152 32.8582 32.4159 32.8582 27.6171C32.8582 22.8183 31.1087 20.3689 28.0844 20.3689ZM28.0844 22.3184C30.2589 22.3184 30.5838 25.6426 30.5838 27.6171C30.5838 29.5916 30.2589 33.0408 28.0844 33.0408C26.5348 33.0408 25.5851 31.0163 25.5851 27.7421C25.5851 24.4679 26.4099 22.4434 27.9845 22.4434L28.0844 22.3184Z" fill="white"/>
<path d="M40.0566 20.3689C36.9574 20.3689 35.0579 23.1932 35.0579 27.7171C35.0579 32.241 36.9074 35.1152 39.8567 35.1152C42.8059 35.1152 44.8554 32.4159 44.8554 27.6171C44.8554 22.8183 43.0808 20.3689 40.0566 20.3689ZM40.0566 22.3184C42.2311 22.3184 42.556 25.6426 42.556 27.6171C42.556 29.5916 42.2311 33.0408 40.0566 33.0408C38.507 33.0408 37.5572 31.0163 37.5572 27.7421C37.5572 24.4679 38.382 22.4434 39.8567 22.4434L40.0566 22.3184Z" fill="white"/>
<path d="M91.4685 11.1464L106.215 11.1464L106.215 126.667L91.4685 126.667L91.4685 11.1464ZM88.0694 9.89672L88.0694 127.842C88.0694 128.419 88.2985 128.972 88.7063 129.38C89.1141 129.788 89.6671 130.017 90.2438 130.017L107.34 130.017C107.916 130.017 108.469 129.788 108.877 129.38C109.285 128.972 109.514 128.419 109.514 127.842L109.514 9.89672C109.514 9.61117 109.458 9.32842 109.348 9.06461C109.239 8.80079 109.079 8.56107 108.877 8.35915C108.675 8.15724 108.436 7.99707 108.172 7.88779C107.908 7.77852 107.625 7.72228 107.34 7.72228L90.2439 7.72228C89.9583 7.72228 89.6755 7.77852 89.4117 7.88779C89.1479 7.99707 88.9082 8.15724 88.7063 8.35915C88.5044 8.56107 88.3442 8.80079 88.2349 9.06461C88.1256 9.32842 88.0694 9.61117 88.0694 9.89672Z" fill="white"/>
<path d="M11.6636 83.128L26.385 83.128L26.385 126.667L11.6636 126.667L11.6636 83.128ZM8.2395 81.9034L8.2395 127.842C8.23948 128.13 8.29654 128.414 8.40738 128.68C8.51822 128.945 8.68062 129.186 8.88519 129.388C9.08977 129.591 9.33243 129.75 9.59914 129.858C9.86585 129.966 10.1513 130.02 10.4389 130.016L27.6096 130.016C27.9014 130.026 28.1923 129.978 28.4648 129.873C28.7374 129.768 28.986 129.609 29.1959 129.407C29.4058 129.204 29.5728 128.96 29.6867 128.692C29.8006 128.423 29.8593 128.134 29.8591 127.842L29.8591 81.8534C29.8591 81.27 29.6274 80.7106 29.2149 80.2981C28.8024 79.8856 28.243 79.6539 27.6596 79.6539L10.4389 79.6539C10.1501 79.6539 9.86411 79.7108 9.59726 79.8213C9.33041 79.9319 9.08794 80.0939 8.88371 80.2981C8.67947 80.5024 8.51746 80.7448 8.40693 81.0117C8.29639 81.2785 8.2395 81.5645 8.2395 81.8534L8.2395 81.9034Z" fill="white"/>
<path d="M51.5786 47.337L66.2999 47.337L66.2999 126.667L51.5786 126.667L51.5786 47.337ZM48.1545 46.0874L48.1545 127.842C48.1545 128.419 48.3836 128.972 48.7914 129.379C49.1992 129.787 49.7522 130.016 50.3289 130.016L67.5246 130.016C67.8225 130.037 68.1215 129.996 68.4029 129.896C68.6842 129.796 68.942 129.639 69.1601 129.435C69.3782 129.231 69.5519 128.984 69.6704 128.71C69.7889 128.436 69.8498 128.14 69.849 127.842L69.849 46.0874C69.8491 45.7997 69.792 45.5149 69.6812 45.2494C69.5703 44.984 69.4079 44.7431 69.2033 44.5409C68.9988 44.3386 68.7561 44.179 68.4894 44.0712C68.2227 43.9634 67.9372 43.9096 67.6496 43.9129L50.3289 43.9129C49.7522 43.9129 49.1992 44.142 48.7914 44.5498C48.3836 44.9576 48.1545 45.5107 48.1545 46.0874Z" fill="white"/>
</svg>
