<svg width="196" height="249" viewBox="0 0 196 249" fill="none" xmlns="http://www.w3.org/2000/svg">
<path d="M149.547 8.6831C148.281 8.69493 147.066 9.17698 146.137 10.0354C145.208 10.8939 144.631 12.0673 144.519 13.3274L144.519 14.2292L143.685 14.5223C138.024 16.5253 132.201 18.0339 126.28 19.0314L124.025 19.4597L125.558 15.086C126.113 13.5408 126.203 11.867 125.818 10.2711C125.433 8.67526 124.589 7.22706 123.39 6.10516C122.191 4.98328 120.691 4.23676 119.073 3.9577C117.455 3.67864 115.791 3.87926 114.286 4.53478C113.43 4.902 112.492 5.03902 111.567 4.93224C110.642 4.82546 109.76 4.47861 109.01 3.92606L105.876 1.67154C104.429 0.586732 102.669 0.000359312 100.86 0.00035929C99.0512 0.000359268 97.2911 0.586732 95.8437 1.67154L92.9579 3.92606C92.2097 4.48956 91.3276 4.84829 90.3985 4.9669C89.4694 5.0855 88.5255 4.95987 87.6597 4.60241L87.3216 4.4446C85.8192 3.81861 84.1674 3.64206 82.5666 3.93637C80.9658 4.23068 79.4849 4.9832 78.3034 6.10264C77.1219 7.22208 76.2907 8.66032 75.9105 10.2429C75.5303 11.8255 75.6175 13.4844 76.1616 15.0183L78.0104 20.2488L75.7558 19.9783C67.7366 19.0921 59.8598 17.2062 52.3088 14.3645L51.5197 14.0489L51.5197 13.2147C51.3926 12.0869 50.8893 11.0348 50.0909 10.2281C49.2926 9.42133 48.2458 8.90703 47.1194 8.76812C45.993 8.62922 44.8526 8.87381 43.8822 9.46243C42.9118 10.051 42.168 10.9494 41.7707 12.0125C41.3734 13.0757 41.3458 14.2417 41.6924 15.3224C42.039 16.4032 42.7395 17.3357 43.681 17.9695C44.6225 18.6034 45.75 18.9016 46.8817 18.8161C48.0134 18.7306 49.0834 18.2664 49.919 17.4983L50.5502 16.9121L51.3618 17.2278C58.8607 20.0367 66.6738 21.9219 74.6286 22.8415L76.8831 23.1346L75.6431 25.0059C67.9357 36.5152 62.3963 49.3361 59.2978 62.8368L55.42 79.6556C53.4811 86.4192 51.7451 93.3406 50.2346 100.6C50.1177 101.194 50.0574 101.798 50.0542 102.404C50.0542 104.796 51.0044 107.089 52.6956 108.781C54.3868 110.472 56.6806 111.422 59.0724 111.422L142.851 111.422C144.186 111.421 145.504 111.125 146.71 110.553C147.917 109.981 148.981 109.148 149.827 108.115C150.672 107.082 151.278 105.874 151.6 104.578C151.922 103.283 151.952 101.931 151.688 100.623C150.178 93.3857 148.464 86.4192 146.571 79.9261L142.625 62.8819C139.45 49.0872 133.731 36.0054 125.761 24.307L124.566 22.5259L126.686 22.1426C132.947 21.0857 139.103 19.4788 145.083 17.3405L145.849 17.0699L146.458 17.611C147.371 18.4223 148.55 18.8713 149.772 18.8736C151.117 18.8736 152.408 18.3391 153.359 17.3878C154.31 16.4365 154.845 15.1462 154.845 13.8009C154.845 12.4555 154.31 11.1653 153.359 10.214C152.408 9.26265 151.117 8.7282 149.772 8.7282L149.547 8.6831ZM80.31 8.32239C81.057 7.59869 82.0014 7.11199 83.0243 6.92345C84.0472 6.73492 85.103 6.85297 86.059 7.26276L86.3972 7.39802C87.7509 7.96146 89.2282 8.16216 90.6831 7.98028C92.1381 7.79841 93.5205 7.24027 94.6938 6.36094L97.5796 4.10642C98.5066 3.42172 99.6287 3.05225 100.781 3.05225C101.934 3.05225 103.056 3.42172 103.982 4.10642L107.139 6.36094C108.312 7.21556 109.687 7.75193 111.129 7.91786C112.571 8.08379 114.031 7.87365 115.368 7.30785C116.33 6.90298 117.389 6.7864 118.417 6.97232C119.444 7.15824 120.395 7.63864 121.155 8.3551C121.914 9.07156 122.449 9.99323 122.695 11.008C122.94 12.0229 122.885 13.0871 122.537 14.0714L120.463 19.9332L119.629 20.0459C112.998 20.9062 106.318 21.3354 99.6313 21.331C93.6793 21.331 87.795 21.083 82.1361 20.587L81.2343 20.587L78.9798 14.0263C78.6132 13.0505 78.5439 11.988 78.7806 10.9728C79.0173 9.95765 79.5495 9.03537 80.31 8.32239ZM139.379 63.5132L143.347 80.6476C145.24 87.0955 146.954 94.0395 148.442 101.209C148.622 102.067 148.607 102.955 148.396 103.806C148.185 104.657 147.785 105.449 147.224 106.124C146.67 106.825 145.965 107.393 145.16 107.783C144.356 108.173 143.474 108.377 142.58 108.378L58.8469 108.378C57.9529 108.377 57.0708 108.173 56.2665 107.783C55.4622 107.393 54.7567 106.825 54.2026 106.124C53.6419 105.445 53.2413 104.649 53.0305 103.794C52.8198 102.939 52.8042 102.048 52.9851 101.186C54.4731 94.0846 56.2091 87.073 58.1254 80.4221L62.0258 63.5132C65.2877 49.3665 71.2845 35.9942 79.6787 24.1492L80.1296 23.4954L80.9412 23.4954C93.9811 24.7568 107.119 24.598 120.125 23.0219L120.959 23.0219L121.455 23.6983C130.001 35.6555 136.093 49.1878 139.379 63.5132Z" fill="white"/>
<path d="M98.1662 70.7501L98.1662 82.4511C98.1662 83.1507 98.4441 83.8216 98.9388 84.3163C99.4334 84.811 100.104 85.0889 100.804 85.0889C101.504 85.0889 102.174 84.811 102.669 84.3163C103.164 83.8216 103.442 83.1507 103.442 82.4511L103.442 70.8177L111.671 62.5887C112.097 62.0893 112.32 61.4478 112.295 60.7917C112.27 60.1355 112 59.5127 111.537 59.0469C111.074 58.5812 110.453 58.3067 109.797 58.2778C109.141 58.249 108.498 58.468 107.996 58.8913L101.097 65.6549L100.579 65.6549L93.7022 58.8913C93.2051 58.4052 92.5375 58.133 91.8422 58.133C91.147 58.133 90.4793 58.4052 89.9822 58.8913C89.4921 59.3817 89.2168 60.0466 89.2168 60.74C89.2168 61.4333 89.4921 62.0983 89.9822 62.5887L98.1662 70.7501Z" fill="white"/>
<path d="M100.736 93.2275C95.9604 93.2275 91.2921 91.8114 87.3213 89.1582C83.3505 86.505 80.2556 82.7339 78.4281 78.3218C76.6005 73.9097 76.1224 69.0548 77.0541 64.3709C77.9857 59.687 80.2854 55.3846 83.6623 52.0078C87.0392 48.6309 91.3415 46.3312 96.0254 45.3996C100.709 44.4679 105.564 44.946 109.976 46.7736C114.388 48.6011 118.16 51.696 120.813 55.6668C123.466 59.6376 124.882 64.3059 124.882 69.0816C124.876 75.4836 122.33 81.6218 117.803 86.1487C113.276 90.6757 107.138 93.2216 100.736 93.2275ZM100.736 47.0774C96.3776 47.0729 92.1159 48.3615 88.4902 50.7802C84.8645 53.1988 82.0378 56.6386 80.3678 60.6644C78.6979 64.6902 78.2597 69.1209 79.1089 73.3958C79.9581 77.6706 82.0564 81.5975 85.1382 84.6793C88.2201 87.7612 92.147 89.8595 96.4218 90.7087C100.697 91.5579 105.127 91.1198 109.153 89.4498C113.179 87.7799 116.619 84.9532 119.037 81.3274C121.456 77.7017 122.745 73.44 122.74 69.0816C122.734 63.2475 120.414 57.6541 116.289 53.5288C112.164 49.4036 106.57 47.0834 100.736 47.0774Z" fill="white"/>
<path d="M58.628 191.122C57.5553 191.122 56.564 190.946 55.6541 190.593C54.7443 190.226 53.9567 189.717 53.2913 189.065C52.6259 188.413 52.1031 187.646 51.7229 186.763C51.3563 185.881 51.173 184.916 51.173 183.871C51.173 182.825 51.3563 181.861 51.7229 180.978C52.1031 180.096 52.6259 179.329 53.2913 178.677C53.9703 178.025 54.7647 177.522 55.6745 177.169C56.5843 176.803 57.5756 176.619 58.6484 176.619C59.6804 176.619 60.6513 176.796 61.5612 177.149C62.471 177.489 63.2382 178.005 63.8629 178.697L62.9055 179.654C62.3216 179.057 61.6766 178.629 60.9705 178.371C60.2643 178.1 59.5039 177.964 58.6891 177.964C57.8336 177.964 57.0392 178.113 56.306 178.412C55.5727 178.697 54.9344 179.111 54.3913 179.654C53.8481 180.184 53.4203 180.809 53.108 181.528C52.8093 182.235 52.6599 183.015 52.6599 183.871C52.6599 184.726 52.8093 185.514 53.108 186.234C53.4203 186.94 53.8481 187.564 54.3913 188.108C54.9344 188.637 55.5727 189.051 56.306 189.35C57.0392 189.635 57.8336 189.778 58.6891 189.778C59.5039 189.778 60.2643 189.642 60.9705 189.37C61.6766 189.099 62.3216 188.664 62.9055 188.067L63.8629 189.024C63.2382 189.717 62.471 190.24 61.5612 190.593C60.6513 190.946 59.6736 191.122 58.628 191.122ZM66.8127 195.053C66.3103 195.053 65.8282 194.972 65.3665 194.809C64.9184 194.646 64.5314 194.402 64.2055 194.076L64.8777 192.996C65.1492 193.254 65.4412 193.451 65.7535 193.587C66.0794 193.736 66.4393 193.811 66.8331 193.811C67.3084 193.811 67.7157 193.675 68.0552 193.404C68.4083 193.146 68.741 192.684 69.0533 192.018L69.7459 190.45L69.9088 190.226L74.3085 180.306H75.7343L70.3773 192.283C70.0785 192.976 69.7459 193.526 69.3792 193.933C69.0261 194.341 68.6391 194.626 68.2182 194.789C67.7972 194.965 67.3287 195.053 66.8127 195.053ZM69.6644 191.306L64.7351 180.306H66.2424L70.6014 190.124L69.6644 191.306ZM77.9875 191V180.306H79.4541L84.3019 188.515H83.6908L88.6201 180.306H89.9645V191H88.6405V181.956L88.9053 182.078L84.3019 189.696H83.6501L79.006 181.997L79.3115 181.936V191H77.9875ZM98.4795 191.102C97.4475 191.102 96.5173 190.871 95.689 190.409C94.8742 189.934 94.2292 189.289 93.7539 188.474C93.2787 187.646 93.041 186.702 93.041 185.643C93.041 184.57 93.2787 183.626 93.7539 182.812C94.2292 181.997 94.8742 181.359 95.689 180.897C96.5038 180.435 97.4339 180.204 98.4795 180.204C99.5387 180.204 100.476 180.435 101.29 180.897C102.119 181.359 102.764 181.997 103.226 182.812C103.701 183.626 103.938 184.57 103.938 185.643C103.938 186.702 103.701 187.646 103.226 188.474C102.764 189.289 102.119 189.934 101.29 190.409C100.462 190.871 99.5252 191.102 98.4795 191.102ZM98.4795 189.819C99.2536 189.819 99.9393 189.649 100.537 189.309C101.134 188.956 101.603 188.467 101.942 187.843C102.295 187.205 102.472 186.471 102.472 185.643C102.472 184.801 102.295 184.068 101.942 183.443C101.603 182.818 101.134 182.336 100.537 181.997C99.9393 181.644 99.2604 181.467 98.4999 181.467C97.7395 181.467 97.0605 181.644 96.463 181.997C95.8655 182.336 95.3902 182.818 95.0372 183.443C94.6841 184.068 94.5076 184.801 94.5076 185.643C94.5076 186.471 94.6841 187.205 95.0372 187.843C95.3902 188.467 95.8655 188.956 96.463 189.309C97.0605 189.649 97.7327 189.819 98.4795 189.819ZM113.792 186.478C113.167 186.75 112.536 186.967 111.897 187.13C111.273 187.279 110.648 187.354 110.024 187.354C108.761 187.354 107.763 187.069 107.029 186.498C106.296 185.915 105.929 185.018 105.929 183.81V180.306H107.355V183.728C107.355 184.543 107.62 185.154 108.15 185.561C108.679 185.969 109.392 186.173 110.288 186.173C110.832 186.173 111.402 186.105 111.999 185.969C112.597 185.819 113.201 185.609 113.812 185.337L113.792 186.478ZM113.67 191V180.306H115.116V191H113.67ZM127.065 191L122.665 185.704L123.867 184.991L128.776 191H127.065ZM119.223 191V180.306H120.669V191H119.223ZM120.221 186.234V184.991H123.663V186.234H120.221ZM123.989 185.806L122.645 185.602L126.902 180.306H128.47L123.989 185.806ZM137.5 191V188.637L137.439 188.25V184.299C137.439 183.389 137.181 182.689 136.665 182.201C136.162 181.712 135.409 181.467 134.404 181.467C133.711 181.467 133.053 181.583 132.428 181.814C131.803 182.044 131.274 182.35 130.839 182.73L130.187 181.651C130.73 181.189 131.382 180.836 132.143 180.591C132.903 180.333 133.704 180.204 134.546 180.204C135.931 180.204 136.997 180.551 137.744 181.243C138.505 181.922 138.885 182.961 138.885 184.36V191H137.5ZM133.813 191.102C133.012 191.102 132.312 190.973 131.715 190.715C131.131 190.443 130.683 190.077 130.371 189.615C130.058 189.14 129.902 188.596 129.902 187.985C129.902 187.429 130.031 186.926 130.289 186.478C130.561 186.016 130.995 185.65 131.593 185.378C132.204 185.093 133.019 184.95 134.037 184.95H137.724V186.03H134.078C133.046 186.03 132.326 186.213 131.919 186.58C131.525 186.947 131.328 187.401 131.328 187.945C131.328 188.556 131.566 189.045 132.041 189.411C132.516 189.778 133.182 189.961 134.037 189.961C134.852 189.961 135.551 189.778 136.135 189.411C136.733 189.031 137.167 188.488 137.439 187.782L137.765 188.78C137.493 189.486 137.018 190.049 136.339 190.47C135.673 190.891 134.831 191.102 133.813 191.102ZM34 216.307V207.569H28.8466L28.7244 209.952C28.6972 210.672 28.6497 211.378 28.5818 212.071C28.5275 212.763 28.4256 213.401 28.2763 213.985C28.1405 214.556 27.9436 215.024 27.6856 215.391C27.4275 215.744 27.0949 215.948 26.6875 216.002L25.2413 215.737C25.6622 215.751 26.0085 215.601 26.2801 215.289C26.5517 214.963 26.7622 214.522 26.9115 213.965C27.0609 213.408 27.1695 212.777 27.2374 212.071C27.3053 211.351 27.3597 210.618 27.4004 209.871L27.543 206.306H35.4462V216.307H34ZM24.7932 219.587V215.737H37.1164V219.587H35.7517V217H26.1579V219.587H24.7932ZM37.9794 216.98L38.0812 215.737C38.1763 215.751 38.2646 215.771 38.346 215.798C38.4411 215.812 38.5226 215.819 38.5905 215.819C39.025 215.819 39.3713 215.656 39.6293 215.33C39.9009 215.004 40.1046 214.569 40.2404 214.026C40.3761 213.483 40.4712 212.872 40.5255 212.193C40.5798 211.5 40.6274 210.808 40.6681 210.115L40.8514 206.306H48.6935V217H47.2473V207.141L47.6139 207.569H41.7884L42.1347 207.121L41.9717 210.217C41.931 211.141 41.8563 212.023 41.7477 212.865C41.6526 213.707 41.4964 214.447 41.2792 215.085C41.0755 215.724 40.7903 216.226 40.4237 216.593C40.057 216.946 39.5885 217.122 39.0182 217.122C38.8553 217.122 38.6855 217.109 38.509 217.081C38.346 217.054 38.1695 217.02 37.9794 216.98ZM59.7098 217V213.15L59.9746 213.456H56.3489C54.9774 213.456 53.9046 213.157 53.1306 212.56C52.3566 211.962 51.9696 211.093 51.9696 209.952C51.9696 208.73 52.3837 207.82 53.2121 207.223C54.0404 206.612 55.1471 206.306 56.5322 206.306H61.0338V217H59.7098ZM51.8881 217L54.8212 212.885H56.3285L53.4565 217H51.8881ZM59.7098 212.723V207.141L59.9746 207.569H56.573C55.5817 207.569 54.8077 207.759 54.2509 208.139C53.7077 208.52 53.4361 209.138 53.4361 209.993C53.4361 211.582 54.4478 212.376 56.4711 212.376H59.9746L59.7098 212.723ZM68.7366 217L73.2586 211.134L73.2382 211.847L68.9403 206.306H70.5698L74.0937 210.889L73.4826 210.869L77.0065 206.306H78.5952L74.2566 211.908L74.277 211.134L78.8397 217H77.1898L73.4622 212.111L74.0326 212.193L70.3661 217H68.7366ZM86.73 217.102C85.8066 217.102 84.9714 216.891 84.2246 216.47C83.4777 216.036 82.8802 215.418 82.4321 214.617C81.9976 213.802 81.7803 212.811 81.7803 211.643C81.7803 210.475 81.9976 209.491 82.4321 208.689C82.8666 207.875 83.4573 207.257 84.2042 206.836C84.9511 206.415 85.793 206.204 86.73 206.204C87.7484 206.204 88.6582 206.435 89.4594 206.897C90.2742 207.345 90.9124 207.983 91.3741 208.812C91.8358 209.626 92.0666 210.57 92.0666 211.643C92.0666 212.729 91.8358 213.68 91.3741 214.495C90.9124 215.309 90.2742 215.948 89.4594 216.409C88.6582 216.871 87.7484 217.102 86.73 217.102ZM81.21 220.952V206.306H82.595V209.525L82.4525 211.663L82.6562 213.822V220.952H81.21ZM86.6281 215.819C87.3886 215.819 88.0675 215.649 88.665 215.309C89.2625 214.956 89.7378 214.467 90.0908 213.843C90.4439 213.205 90.6204 212.471 90.6204 211.643C90.6204 210.815 90.4439 210.088 90.0908 209.463C89.7378 208.839 89.2625 208.35 88.665 207.997C88.0675 207.644 87.3886 207.467 86.6281 207.467C85.8677 207.467 85.1819 207.644 84.5708 207.997C83.9733 208.35 83.4981 208.839 83.145 209.463C82.8055 210.088 82.6358 210.815 82.6358 211.643C82.6358 212.471 82.8055 213.205 83.145 213.843C83.4981 214.467 83.9733 214.956 84.5708 215.309C85.1819 215.649 85.8677 215.819 86.6281 215.819ZM101.755 217V214.637L101.693 214.25V210.299C101.693 209.389 101.435 208.689 100.919 208.201C100.417 207.712 99.6633 207.467 98.6584 207.467C97.9659 207.467 97.3073 207.583 96.6826 207.814C96.058 208.044 95.5284 208.35 95.0938 208.73L94.442 207.651C94.9852 207.189 95.637 206.836 96.3975 206.591C97.1579 206.333 97.9591 206.204 98.801 206.204C100.186 206.204 101.252 206.551 101.999 207.243C102.759 207.922 103.14 208.961 103.14 210.36V217H101.755ZM98.0677 217.102C97.2665 217.102 96.5672 216.973 95.9697 216.715C95.3858 216.443 94.9377 216.077 94.6253 215.615C94.313 215.14 94.1569 214.596 94.1569 213.985C94.1569 213.429 94.2859 212.926 94.5439 212.478C94.8155 212.016 95.25 211.65 95.8475 211.378C96.4586 211.093 97.2733 210.95 98.2918 210.95H101.979V212.03H98.3325C97.3005 212.03 96.5808 212.213 96.1734 212.58C95.7796 212.947 95.5827 213.401 95.5827 213.945C95.5827 214.556 95.8203 215.045 96.2956 215.411C96.7709 215.778 97.4363 215.961 98.2918 215.961C99.1065 215.961 99.8059 215.778 100.39 215.411C100.987 215.031 101.422 214.488 101.693 213.782L102.019 214.78C101.748 215.486 101.272 216.049 100.593 216.47C99.9281 216.891 99.0862 217.102 98.0677 217.102ZM106.989 217V206.306H108.436V211.032H115.178V206.306H116.624V217H115.178V212.274H108.436V217H106.989ZM125.318 217.102C124.204 217.102 123.226 216.871 122.385 216.409C121.543 215.934 120.884 215.289 120.409 214.474C119.933 213.646 119.696 212.702 119.696 211.643C119.696 210.584 119.92 209.647 120.368 208.832C120.83 208.017 121.454 207.379 122.242 206.917C123.043 206.442 123.939 206.204 124.931 206.204C125.936 206.204 126.825 206.435 127.599 206.897C128.387 207.345 129.004 207.983 129.453 208.812C129.901 209.626 130.125 210.57 130.125 211.643C130.125 211.711 130.118 211.786 130.104 211.867C130.104 211.935 130.104 212.01 130.104 212.091H120.796V211.012H129.33L128.76 211.439C128.76 210.665 128.59 209.979 128.251 209.382C127.925 208.771 127.477 208.296 126.906 207.956C126.336 207.617 125.678 207.447 124.931 207.447C124.197 207.447 123.539 207.617 122.955 207.956C122.371 208.296 121.916 208.771 121.59 209.382C121.264 209.993 121.101 210.692 121.101 211.48V211.704C121.101 212.519 121.278 213.239 121.631 213.863C121.997 214.474 122.5 214.956 123.138 215.309C123.79 215.649 124.53 215.819 125.358 215.819C126.01 215.819 126.614 215.703 127.171 215.472C127.742 215.241 128.23 214.888 128.638 214.413L129.453 215.35C128.977 215.92 128.38 216.355 127.66 216.654C126.954 216.952 126.173 217.102 125.318 217.102ZM133.326 217V206.306H134.772V211.032H141.514V206.306H142.961V217H141.514V212.274H134.772V217H133.326ZM147.071 217V206.306H148.517V214.8L155.667 206.306H156.95V217H155.504V208.486L148.375 217H147.071ZM168 217V213.15L168.265 213.456H164.639C163.267 213.456 162.195 213.157 161.421 212.56C160.647 211.962 160.26 211.093 160.26 209.952C160.26 208.73 160.674 207.82 161.502 207.223C162.33 206.612 163.437 206.306 164.822 206.306H169.324V217H168ZM160.178 217L163.111 212.885H164.619L161.747 217H160.178ZM168 212.723V207.141L168.265 207.569H164.863C163.872 207.569 163.098 207.759 162.541 208.139C161.998 208.52 161.726 209.138 161.726 209.993C161.726 211.582 162.738 212.376 164.761 212.376H168.265L168 212.723ZM34.6834 243V232.306H39.409C40.6176 232.306 41.5682 232.537 42.2607 232.999C42.9668 233.461 43.3199 234.139 43.3199 235.036C43.3199 235.905 42.9872 236.577 42.3218 237.052C41.6564 237.514 40.7806 237.745 39.6942 237.745L39.9794 237.317C41.2558 237.317 42.1928 237.555 42.7903 238.03C43.3878 238.505 43.6865 239.191 43.6865 240.087C43.6865 241.011 43.3471 241.73 42.6681 242.246C42.0027 242.749 40.9639 243 39.5516 243H34.6834ZM36.0889 241.859H39.4905C40.4003 241.859 41.0861 241.717 41.5478 241.432C42.0231 241.133 42.2607 240.658 42.2607 240.006C42.2607 239.354 42.0502 238.879 41.6293 238.58C41.2083 238.281 40.5429 238.132 39.6331 238.132H36.0889V241.859ZM36.0889 237.052H39.3072C40.1355 237.052 40.767 236.896 41.2015 236.584C41.6496 236.271 41.8737 235.817 41.8737 235.219C41.8737 234.622 41.6496 234.173 41.2015 233.875C40.767 233.576 40.1355 233.427 39.3072 233.427H36.0889V237.052ZM60.249 243L55.8492 237.704L57.051 236.991L61.9599 243H60.249ZM52.4069 243V232.306H53.8531V243H52.4069ZM53.405 238.234V236.991H56.8473V238.234H53.405ZM57.1732 237.806L55.8289 237.602L60.086 232.306H61.6544L57.1732 237.806ZM68.2642 243.102C67.2321 243.102 66.3019 242.871 65.4736 242.409C64.6588 241.934 64.0138 241.289 63.5385 240.474C63.0633 239.646 62.8256 238.702 62.8256 237.643C62.8256 236.57 63.0633 235.626 63.5385 234.812C64.0138 233.997 64.6588 233.359 65.4736 232.897C66.2884 232.435 67.2186 232.204 68.2642 232.204C69.3234 232.204 70.2603 232.435 71.0751 232.897C71.9034 233.359 72.5484 233.997 73.0101 234.812C73.4854 235.626 73.7231 236.57 73.7231 237.643C73.7231 238.702 73.4854 239.646 73.0101 240.474C72.5484 241.289 71.9034 241.934 71.0751 242.409C70.2467 242.871 69.3098 243.102 68.2642 243.102ZM68.2642 241.819C69.0382 241.819 69.7239 241.649 70.3214 241.309C70.9189 240.956 71.3874 240.467 71.7269 239.843C72.08 239.205 72.2565 238.471 72.2565 237.643C72.2565 236.801 72.08 236.068 71.7269 235.443C71.3874 234.818 70.9189 234.336 70.3214 233.997C69.7239 233.644 69.045 233.467 68.2845 233.467C67.5241 233.467 66.8451 233.644 66.2476 233.997C65.6501 234.336 65.1749 234.818 64.8218 235.443C64.4687 236.068 64.2922 236.801 64.2922 237.643C64.2922 238.471 64.4687 239.205 64.8218 239.843C65.1749 240.467 65.6501 240.956 66.2476 241.309C66.8451 241.649 67.5173 241.819 68.2642 241.819ZM76.8139 243V232.306H78.2805L83.1283 240.515H82.5172L87.4465 232.306H88.7909V243H87.4669V233.956L87.7317 234.078L83.1283 241.696H82.4765L77.8324 233.997L78.1379 233.936V243H76.8139ZM92.9062 243V232.306H102.52V243H101.074V233.182L101.441 233.569H93.9858L94.3524 233.182V243H92.9062ZM104.676 242.98L104.778 241.737C104.873 241.751 104.961 241.771 105.043 241.798C105.138 241.812 105.219 241.819 105.287 241.819C105.722 241.819 106.068 241.656 106.326 241.33C106.598 241.004 106.801 240.569 106.937 240.026C107.073 239.483 107.168 238.872 107.222 238.193C107.276 237.5 107.324 236.808 107.365 236.115L107.548 232.306H115.39V243H113.944V233.141L114.311 233.569H108.485L108.831 233.121L108.668 236.217C108.628 237.141 108.553 238.023 108.444 238.865C108.349 239.707 108.193 240.447 107.976 241.085C107.772 241.724 107.487 242.226 107.12 242.593C106.754 242.946 106.285 243.122 105.715 243.122C105.552 243.122 105.382 243.109 105.206 243.081C105.043 243.054 104.866 243.02 104.676 242.98ZM124.084 243.102C122.971 243.102 121.993 242.871 121.151 242.409C120.309 241.934 119.651 241.289 119.175 240.474C118.7 239.646 118.463 238.702 118.463 237.643C118.463 236.584 118.687 235.647 119.135 234.832C119.596 234.017 120.221 233.379 121.009 232.917C121.81 232.442 122.706 232.204 123.697 232.204C124.702 232.204 125.592 232.435 126.366 232.897C127.153 233.345 127.771 233.983 128.219 234.812C128.667 235.626 128.891 236.57 128.891 237.643C128.891 237.711 128.885 237.786 128.871 237.867C128.871 237.935 128.871 238.01 128.871 238.091H119.562V237.012H128.097L127.527 237.439C127.527 236.665 127.357 235.979 127.018 235.382C126.692 234.771 126.243 234.296 125.673 233.956C125.103 233.617 124.444 233.447 123.697 233.447C122.964 233.447 122.305 233.617 121.722 233.956C121.138 234.296 120.683 234.771 120.357 235.382C120.031 235.993 119.868 236.692 119.868 237.48V237.704C119.868 238.519 120.045 239.239 120.398 239.863C120.764 240.474 121.267 240.956 121.905 241.309C122.557 241.649 123.297 241.819 124.125 241.819C124.777 241.819 125.381 241.703 125.938 241.472C126.508 241.241 126.997 240.888 127.405 240.413L128.219 241.35C127.744 241.92 127.147 242.355 126.427 242.654C125.721 242.952 124.94 243.102 124.084 243.102ZM139.935 243L135.535 237.704L136.737 236.991L141.646 243H139.935ZM132.093 243V232.306H133.539V243H132.093ZM133.091 238.234V236.991H136.533V238.234H133.091ZM136.859 237.806L135.515 237.602L139.772 232.306H141.34L136.859 237.806ZM145.746 243V233.182L146.113 233.569H141.693V232.306H151.246V233.569H146.826L147.193 233.182V243H145.746ZM157.423 243.102C156.309 243.102 155.332 242.871 154.49 242.409C153.648 241.934 152.989 241.289 152.514 240.474C152.039 239.646 151.801 238.702 151.801 237.643C151.801 236.584 152.025 235.647 152.473 234.832C152.935 234.017 153.559 233.379 154.347 232.917C155.148 232.442 156.044 232.204 157.036 232.204C158.041 232.204 158.93 232.435 159.704 232.897C160.492 233.345 161.11 233.983 161.558 234.812C162.006 235.626 162.23 236.57 162.23 237.643C162.23 237.711 162.223 237.786 162.209 237.867C162.209 237.935 162.209 238.01 162.209 238.091H152.901V237.012H161.435L160.865 237.439C160.865 236.665 160.695 235.979 160.356 235.382C160.03 234.771 159.582 234.296 159.012 233.956C158.441 233.617 157.783 233.447 157.036 233.447C156.302 233.447 155.644 233.617 155.06 233.956C154.476 234.296 154.021 234.771 153.695 235.382C153.369 235.993 153.206 236.692 153.206 237.48V237.704C153.206 238.519 153.383 239.239 153.736 239.863C154.103 240.474 154.605 240.956 155.243 241.309C155.895 241.649 156.635 241.819 157.463 241.819C158.115 241.819 158.72 241.703 159.276 241.472C159.847 241.241 160.336 240.888 160.743 240.413L161.558 241.35C161.082 241.92 160.485 242.355 159.765 242.654C159.059 242.952 158.278 243.102 157.423 243.102Z" fill="white"/>
</svg>
