<svg width="114" height="112" viewBox="0 0 114 112" fill="none" xmlns="http://www.w3.org/2000/svg">
<path d="M108.547 8.6831C107.281 8.69493 106.066 9.17698 105.137 10.0354C104.208 10.8939 103.631 12.0673 103.519 13.3274L103.519 14.2292L102.685 14.5223C97.0242 16.5253 91.2008 18.0339 85.2798 19.0314L83.0253 19.4597L84.5583 15.086C85.113 13.5408 85.2033 11.867 84.818 10.2711C84.4327 8.67526 83.5887 7.22706 82.3901 6.10516C81.1915 4.98328 79.6907 4.23676 78.0728 3.9577C76.455 3.67864 74.7909 3.87926 73.2857 4.53478C72.4296 4.902 71.4924 5.03902 70.5669 4.93224C69.6415 4.82546 68.7601 4.47861 68.0101 3.92606L64.8763 1.67154C63.4289 0.586732 61.6688 0.000359312 59.86 0.00035929C58.0512 0.000359268 56.2911 0.586732 54.8437 1.67154L51.9579 3.92606C51.2097 4.48956 50.3276 4.84829 49.3985 4.9669C48.4694 5.0855 47.5255 4.95987 46.6597 4.60241L46.3216 4.4446C44.8192 3.81861 43.1674 3.64206 41.5666 3.93637C39.9658 4.23068 38.4849 4.9832 37.3034 6.10264C36.1219 7.22208 35.2907 8.66032 34.9105 10.2429C34.5303 11.8255 34.6175 13.4844 35.1616 15.0183L37.0104 20.2488L34.7558 19.9783C26.7366 19.0921 18.8598 17.2062 11.3088 14.3645L10.5197 14.0489L10.5197 13.2147C10.3926 12.0869 9.88925 11.0348 9.09092 10.2281C8.29259 9.42133 7.24583 8.90703 6.1194 8.76812C4.99298 8.62922 3.85256 8.87381 2.88217 9.46243C1.91178 10.051 1.16797 10.9494 0.770681 12.0125C0.373397 13.0757 0.34581 14.2417 0.692384 15.3224C1.03896 16.4032 1.73951 17.3357 2.68099 17.9695C3.62246 18.6034 4.74995 18.9016 5.88169 18.8161C7.01342 18.7306 8.08341 18.2664 8.91898 17.4983L9.55025 16.9121L10.3618 17.2278C17.8607 20.0367 25.6738 21.9219 33.6286 22.8415L35.8831 23.1346L34.6431 25.0059C26.9357 36.5152 21.3963 49.3361 18.2978 62.8368L14.42 79.6556C12.4811 86.4192 10.7451 93.3406 9.23458 100.6C9.11773 101.194 9.05738 101.798 9.05425 102.404C9.05425 104.796 10.0044 107.089 11.6956 108.781C13.3868 110.472 15.6806 111.422 18.0724 111.422L101.851 111.422C103.186 111.421 104.504 111.125 105.71 110.553C106.917 109.981 107.981 109.148 108.827 108.115C109.672 107.082 110.278 105.874 110.6 104.578C110.922 103.283 110.952 101.931 110.688 100.623C109.178 93.3857 107.464 86.4192 105.571 79.9261L101.625 62.8819C98.4502 49.0872 92.7312 36.0054 84.7612 24.307L83.5663 22.5259L85.6856 22.1426C91.9471 21.0857 98.1033 19.4788 104.083 17.3405L104.849 17.0699L105.458 17.611C106.371 18.4223 107.55 18.8713 108.772 18.8736C110.117 18.8736 111.408 18.3391 112.359 17.3878C113.31 16.4365 113.845 15.1462 113.845 13.8009C113.845 12.4555 113.31 11.1653 112.359 10.214C111.408 9.26265 110.117 8.7282 108.772 8.7282L108.547 8.6831ZM39.31 8.32239C40.057 7.59869 41.0014 7.11199 42.0243 6.92345C43.0472 6.73492 44.103 6.85297 45.059 7.26276L45.3972 7.39802C46.7509 7.96146 48.2282 8.16216 49.6831 7.98028C51.1381 7.79841 52.5205 7.24027 53.6938 6.36094L56.5796 4.10642C57.5066 3.42172 58.6287 3.05225 59.7811 3.05225C60.9335 3.05225 62.0555 3.42172 62.9825 4.10642L66.1389 6.36094C67.3122 7.21556 68.6866 7.75193 70.1287 7.91786C71.5707 8.08379 73.0312 7.87365 74.3679 7.30785C75.3303 6.90298 76.3895 6.7864 77.4169 6.97232C78.4443 7.15824 79.3955 7.63864 80.1549 8.3551C80.9144 9.07156 81.4493 9.99323 81.6947 11.008C81.9401 12.0229 81.8854 13.0871 81.5373 14.0714L79.4631 19.9332L78.6289 20.0459C71.9978 20.9062 65.3179 21.3354 58.6313 21.331C52.6793 21.331 46.795 21.083 41.1361 20.587L40.2343 20.587L37.9798 14.0263C37.6132 13.0505 37.5439 11.988 37.7806 10.9728C38.0173 9.95765 38.5495 9.03537 39.31 8.32239ZM98.3786 63.5132L102.347 80.6476C104.24 87.0955 105.954 94.0395 107.442 101.209C107.622 102.067 107.607 102.955 107.396 103.806C107.185 104.657 106.785 105.449 106.224 106.124C105.67 106.825 104.965 107.393 104.16 107.783C103.356 108.173 102.474 108.377 101.58 108.378L17.8469 108.378C16.9529 108.377 16.0708 108.173 15.2665 107.783C14.4622 107.393 13.7567 106.825 13.2026 106.124C12.6419 105.445 12.2413 104.649 12.0305 103.794C11.8198 102.939 11.8042 102.048 11.9851 101.186C13.4731 94.0846 15.2091 87.073 17.1254 80.4221L21.0258 63.5132C24.2877 49.3665 30.2845 35.9942 38.6787 24.1492L39.1296 23.4954L39.9412 23.4954C52.9811 24.7568 66.1194 24.598 79.1249 23.0219L79.9591 23.0219L80.4551 23.6983C89.0012 35.6555 95.093 49.1878 98.3786 63.5132Z" fill="white"/>
<path d="M57.1662 70.7501L57.1662 82.4511C57.1662 83.1507 57.4441 83.8216 57.9388 84.3163C58.4334 84.811 59.1044 85.0889 59.804 85.0889C60.5036 85.0889 61.1745 84.811 61.6692 84.3163C62.1639 83.8216 62.4418 83.1507 62.4418 82.4511L62.4418 70.8177L70.6708 62.5887C71.0971 62.0893 71.32 61.4478 71.2952 60.7917C71.2704 60.1355 70.9996 59.5127 70.5367 59.0469C70.0738 58.5812 69.4527 58.3067 68.7967 58.2778C68.1407 58.249 67.4978 58.468 66.9959 58.8913L60.097 65.6549L59.5785 65.6549L52.7022 58.8913C52.2051 58.4052 51.5375 58.133 50.8422 58.133C50.147 58.133 49.4793 58.4052 48.9822 58.8913C48.4921 59.3817 48.2168 60.0466 48.2168 60.74C48.2168 61.4333 48.4921 62.0983 48.9822 62.5887L57.1662 70.7501Z" fill="white"/>
<path d="M59.736 93.2275C54.9604 93.2275 50.2921 91.8114 46.3213 89.1582C42.3505 86.505 39.2556 82.7339 37.4281 78.3218C35.6005 73.9097 35.1224 69.0548 36.0541 64.3709C36.9857 59.687 39.2854 55.3846 42.6623 52.0078C46.0392 48.6309 50.3415 46.3312 55.0254 45.3996C59.7092 44.4679 64.5642 44.946 68.9763 46.7736C73.3884 48.6011 77.1595 51.696 79.8127 55.6668C82.4659 59.6376 83.8821 64.3059 83.8821 69.0816C83.8761 75.4836 81.3302 81.6218 76.8032 86.1487C72.2763 90.6757 66.1381 93.2216 59.736 93.2275ZM59.736 47.0774C55.3776 47.0729 51.1159 48.3615 47.4902 50.7802C43.8645 53.1988 41.0378 56.6386 39.3678 60.6644C37.6979 64.6902 37.2597 69.1209 38.1089 73.3958C38.9581 77.6706 41.0564 81.5975 44.1382 84.6793C47.2201 87.7612 51.147 89.8595 55.4218 90.7087C59.6967 91.5579 64.1274 91.1198 68.1532 89.4498C72.179 87.7799 75.6189 84.9532 78.0375 81.3274C80.4561 77.7017 81.7447 73.44 81.7402 69.0816C81.7343 63.2475 79.4141 57.6541 75.2888 53.5288C71.1635 49.4036 65.5701 47.0834 59.736 47.0774Z" fill="white"/>
</svg>
