<svg width="320" height="392" viewBox="0 0 320 392" fill="none" xmlns="http://www.w3.org/2000/svg">
<g clip-path="url(#clip0_143_2243)">
<path d="M-70.0001 -177.577C42.0112 -173.003 140.431 -114.054 227.073 -55.2449C248.832 -40.4746 270.18 -25.2998 291.362 -10.0094C307.08 1.35939 324.092 14.6766 343.956 18.1524C373.883 23.3869 390.351 -0.993614 403.052 -22.5917C419.388 -50.3572 433.276 -80.2528 458.514 -101.587C494.886 -132.349 540.762 -132.135 582.394 -109.95C641.416 -78.4199 683.336 -24.6971 738.558 10.1853C813.505 57.4766 904.688 29.9175 985 31.8494V27.4819C905.216 26.326 814.115 55.2227 739.44 8.02214C682.718 -27.8427 641.482 -84.5873 581.693 -118.297C539.378 -142.133 493.939 -141.415 458.06 -108.39C434.043 -86.3046 421.877 -56.376 407.231 -28.1729C396.203 -6.92155 381.944 17.236 352.915 11.8613C333.307 8.2368 316.278 -5.09693 300.692 -16.3253C279.122 -31.8799 257.396 -47.3603 235.274 -62.4691C146.629 -123.012 45.0773 -186.634 -70.0001 -192V-177.577Z" fill="#1F1F1F"/>
<path d="M-70.0001 -153.848C37.7335 -150.851 131.661 -99.1754 215.641 -42.8436C236.955 -28.5439 257.816 -13.7654 278.447 1.16176C294.247 12.6048 311.646 25.3358 331.872 27.7631C362.525 31.4371 382.389 7.12273 397.925 -14.1452C417.707 -41.2749 434.826 -71.6412 463.039 -91.4229C501.521 -118.388 548.691 -115.523 589.589 -94.3291C647.68 -64.2106 690.201 -13.4186 744.921 19.6061C817.28 63.2564 908.026 37.5302 984.992 40.0483V35.0946C904.68 32.7829 813.604 59.6072 738.756 12.3406C684.424 -22.0216 642.248 -73.8785 583.754 -104.195C542.543 -125.521 496.386 -126.363 459.618 -97.1527C433.433 -76.3636 418.308 -46.5094 400.686 -19.0659C386.675 2.7552 368.641 27.2348 337.98 22.0581C317.894 18.6731 300.849 5.37241 284.966 -6.11192C264.097 -21.2125 243.013 -36.1644 221.501 -50.6952C136.195 -108.232 39.8847 -163.92 -70.0001 -167.875V-153.848Z" fill="#1F1F1F"/>
<path d="M-70.0001 -130.112C32.3019 -129.005 121.046 -85.9577 201.811 -32.9531C222.532 -19.3469 242.758 -5.18755 262.696 9.20296C279.246 21.1496 297.099 33.6825 318.207 36.0107C351.316 39.6682 375.441 15.3703 394.802 -6.46727C418.168 -32.7962 439.07 -62.9807 470.275 -81.0948C509.92 -104.096 557.733 -99.2005 597.782 -79.3527C654.422 -51.2817 696.754 -4.22157 749.224 28.0931C819.662 71.4545 909.65 46.5951 984.95 49.2123V43.8128C908.553 41.1873 818.046 66.4842 746.388 22.9164C692.699 -9.76148 650.177 -58.8857 592.672 -88.0382C552.153 -108.58 504.711 -112.254 465.742 -86.9814C436.301 -67.8849 417.632 -37.593 396.351 -10.81C379.24 10.7303 357.613 35.0283 325.963 31.3708C305.357 28.9847 287.81 16.3363 271.713 4.6951C251.371 -10.0174 230.79 -24.54 209.723 -38.5507C127.153 -93.4625 35.4339 -141.538 -70.0001 -143.751V-130.112Z" fill="#1F1F1F"/>
<path d="M-70.0001 -106.383C26.8291 -107.209 110.504 -73.1437 188.195 -23.5572C208.339 -10.7023 227.938 2.82125 247.2 16.6338C264.657 29.1419 283.153 41.4023 305.324 43.6893C341.334 47.3798 369.935 22.9498 393.466 0.757202C420.616 -24.8369 445.714 -54.8233 480.248 -71.0715C521.08 -90.3083 569.47 -82.8943 608.917 -63.8143C664.008 -37.1717 705.59 6.85025 755.933 38.6365C823.585 81.3704 912.246 56.9487 985 59.2026V53.5224C910.705 51.0455 821.244 75.6406 751.944 32.5187C700.43 0.468235 658.362 -45.2132 602.406 -72.5741C562.654 -92.0174 514.569 -97.9701 474.396 -76.7022C441.757 -59.3642 419.042 -29.287 394.027 -3.29658C372.853 18.6978 346.774 43.0535 312.429 39.3796C290.851 37.0761 272.735 24.6588 255.797 12.4644C236.164 -1.67012 216.235 -15.5487 195.753 -28.8164C116.356 -80.2523 29.8787 -119.378 -70.0001 -119.626V-106.383Z" fill="#1F1F1F"/>
<path d="M-70.0001 -82.6468C21.4305 -85.3135 100.16 -60.3551 175.057 -14.2526C211.635 8.27844 248.832 47.0246 293.299 51.227C332.557 54.9423 365.731 30.2646 393.606 7.82434C424.63 -17.1506 454.203 -46.9388 492.249 -61.2633C534.284 -77.0903 583.037 -66.7123 622.171 -47.8883C675.662 -22.1455 716.049 19.2344 764.373 50.7482C828.588 92.6069 915.526 68.2925 985 69.8612V64.0819C913.672 62.1087 825.761 86.4478 759.617 44.0854C710.205 12.39 669.135 -30.3852 614.769 -56.5655C575.512 -75.4804 526.916 -84.1989 485.532 -66.572C449.39 -51.1825 422.281 -21.2869 393.359 4.00173C367.85 26.2934 337.156 50.839 299.695 47.132C255.781 42.7975 218.048 3.29997 182.095 -19.3054C105.723 -67.315 24.3235 -97.2023 -70.0001 -95.5016V-82.6468Z" fill="#1F1F1F"/>
<path d="M-70.0001 -58.919C17.0374 -63.1792 91.8023 -46.8898 164.589 -3.48711C202.635 19.1926 239.082 56.7994 285.584 59.2763C327.043 61.4559 363.704 36.9846 394.991 14.9654C429.056 -9.00225 462.28 -37.3209 502.51 -50.5308C545.831 -64.7644 594.609 -51.7279 634.32 -32.9203C686.633 -8.15184 726.434 30.5943 772.5 62.7686C832.824 104.875 918.749 80.1974 985 80.8744V75.0455C917.274 73.8814 831.225 98.2206 768.824 56.882C721.431 25.426 681.729 -14.8228 628.995 -40.2436C589.886 -59.1006 541.109 -71.006 498.488 -56.6568C458.678 -43.2488 426.996 -13.5349 394.126 11.2006C364.165 33.7399 328.831 58.591 287.942 54.884C242.98 50.8137 206.204 12.7032 169.056 -9.75354C95.4453 -54.2543 18.9084 -74.8287 -69.9672 -71.3776L-70.0001 -58.919Z" fill="#1F1F1F"/>
<path d="M-70.0001 -35.182C-28.7892 -37.9313 12.8339 -39.8054 53.27 -32.1189C89.0741 -25.3159 122.232 -10.9006 153.141 6.76759C192.612 29.2987 228.202 65.7249 276.007 67.8632C320.968 69.853 361.94 44.8285 397.373 22.5781C435.147 -1.14182 472.682 -29.3779 516.481 -40.854C561.483 -52.6438 609.478 -35.9993 649.658 -16.6221C673.47 -5.13778 695.971 8.7656 717.327 23.9157C740.281 40.1968 760.252 59.9208 782.737 76.3258C838.882 117.301 922.854 92.3841 985 92.1033V86.3901C920.711 86.1837 835.816 110.985 777.503 69.4154C732.418 37.2329 693.325 -0.32444 641.82 -24.9361C601.895 -44.0161 553.472 -58.7863 509.31 -45.8159C467.275 -33.4977 431.949 -5.19559 396.054 18.6317C362.715 40.7665 323.902 65.4855 280.721 63.4049C233.584 61.1097 197.566 24.089 158.819 1.48365C87.2443 -40.3586 14.5318 -52.1814 -70.0001 -47.2277V-35.182Z" fill="#1F1F1F"/>
<path d="M-70.0001 -11.4537C-30.5695 -14.6076 9.56171 -18.8843 48.6874 -14.0214C82.4803 -9.84375 113.801 2.25154 142.97 18.1777C183.769 40.4198 218.641 76.0204 267.699 77.5478C316.179 79.0587 361.066 53.3985 400.472 30.8179C441.741 7.17222 483.389 -21.1465 530.608 -30.9961C577.333 -40.7466 623.992 -20.4612 664.873 -0.40696C687.765 10.8426 709.747 23.8606 730.621 38.5291C752.916 54.1746 771.544 73.4445 792.891 89.7917C844.817 129.57 926.942 104.463 984.934 103.274V97.7837C924.89 98.5433 841.891 123.559 787.888 83.195C765.98 66.823 746.677 47.322 724.077 31.3545C702.977 16.3164 680.698 3.01351 657.455 -8.42369C616.937 -28.1064 569.594 -46.6002 523.685 -35.9002C478.122 -25.2746 438.469 2.98635 398.881 26.6485C361.363 49.064 318.413 74.3279 271.63 72.5941C223.199 70.7943 187.939 34.7726 147.808 12.3901C117.806 -4.34515 85.6371 -17.5715 50.8633 -23.0206C11.0948 -29.2457 -29.7618 -26.1167 -70.0001 -23.1279V-11.4537Z" fill="#1F1F1F"/>
<path d="M-70.0001 12.2822C3.35534 5.88369 68.1966 -3.36321 134.406 31.1228C176.499 53.0429 210.572 87.9748 260.866 88.8169C312.652 89.6838 361.149 63.0329 404.115 40.0312C448.532 16.2452 493.955 -12.3707 544.331 -20.7837C592.746 -28.8665 637.592 -5.0392 679.289 15.626C701.449 26.4638 722.804 38.8799 743.19 52.7787C764.892 67.7389 782.176 86.4061 802.394 102.687C850.405 141.359 930.84 116.186 984.992 114.246V109.078C929.044 110.679 847.85 135.844 798.001 96.6933C777.297 80.3296 759.337 61.3569 737.363 46.0665C716.759 31.7868 695.118 19.0699 672.621 8.02206C631.328 -12.3707 585.559 -34.5303 537.935 -25.6962C489.026 -16.6144 445.351 11.8199 402.376 35.5068C361.05 58.2938 314.185 84.4329 263.973 83.2275C214.256 82.0303 179.804 46.8178 138.305 24.7408C109.902 9.62376 79.5214 -1.32393 46.6845 -4.21359C8.08636 -7.59862 -31.2618 -2.28991 -70.0001 0.987785V12.2822Z" fill="#1F1F1F"/>
<path d="M-70.0001 36.0108C-0.00746918 29.9508 63.2101 13.8678 127.689 46.0668C170.894 67.6567 204.143 102.209 255.591 102.118C310.36 102.044 361.956 74.113 407.981 50.5087C455.085 26.3594 503.854 -2.82619 557 -10.0503C606.906 -16.8286 649.592 10.3754 692.171 31.3709C713.601 41.9305 734.627 53.1176 754.334 66.2862C775.541 80.4455 791.539 98.2623 810.653 114.469C855.161 152.2 934.286 127.192 985.033 124.765V120.001C932.786 122.238 853.158 147.353 807.076 109.227C787.459 92.9784 770.876 74.7405 749.455 60.1849C729.525 46.6448 708.244 34.9706 686.517 24.1963C644.358 3.2999 600.642 -22.3768 551.345 -15.0453C499.42 -7.30928 452.126 21.579 406.184 45.5302C361.495 68.8291 311.259 96.1322 257.825 95.7359C206.888 95.3562 173.26 60.672 130.541 38.9335C65.2871 5.72719 1.41843 18.8215 -70.0001 25.1127V36.0108Z" fill="#1F1F1F"/>
<path d="M-70.0001 59.7472C-2.41418 54.5541 60.0369 32.8569 123.081 63.4047C167.161 84.7386 199.528 119.142 251.997 117.895C309.305 116.508 363.366 86.9843 411.838 62.5791C461.019 37.8106 512.558 7.71683 567.995 1.36783C619.039 -4.46928 659.343 25.9217 702.68 46.7272C723.36 56.6346 744.023 66.6163 763.293 78.7942C784.105 91.9545 798.916 108.648 816.95 124.707C858.606 161.785 936.841 137.289 985 134.705V130.428C935.794 132.988 857.246 157.756 814.387 120.43C795.875 104.297 780.594 87.0669 759.584 73.4359C740.207 60.7214 719.329 50.1948 698.345 39.9489C655.345 18.9865 613.961 -10.0257 563.371 -3.80878C508.882 2.88698 458.489 32.5184 410.148 56.9979C362.673 81.0151 309.594 109.796 253.374 110.556C201.333 111.257 168.57 76.8292 124.845 55.3962C61.2073 24.1879 -1.49106 43.5899 -70.0001 49.2371V59.7472Z" fill="#1F1F1F"/>
<path d="M-70.0001 83.475C-3.80711 79.7185 58.8253 53.9427 120.881 83.475C165.512 104.718 196.931 139.278 250.234 136.438C309.495 133.284 365.237 101.82 415.432 76.3417C465.956 50.6981 519.572 19.3081 576.74 13.4462C628.369 8.16228 666.192 41.5172 710.214 61.3898C730.242 70.4303 750.559 78.8929 769.5 89.8075C790.031 101.639 803.812 116.904 820.799 132.69C860.46 169.529 938.432 145.966 985 143.671V139.939C937.896 142.416 859.892 166.433 819.505 129.553C802.073 113.635 787.88 97.7169 767.241 85.2749C748.169 73.7823 727.679 64.6345 707.419 55.1894C663.67 34.8214 624.816 2.68845 573.327 8.17055C516.819 14.181 463.995 44.9683 413.948 70.2074C364.388 95.1988 309.272 125.796 250.753 128.133C197.78 130.254 165.949 95.7933 121.507 74.5336C59.0973 44.6793 -3.36204 68.9277 -70.0001 73.3612V83.475Z" fill="#1F1F1F"/>
<path d="M-70.0001 107.212C-2.89223 105.429 60.5726 77.176 123.065 107.608C164.078 127.563 194.17 160.828 243.203 158.821C306.371 156.188 365.674 120.067 418.523 92.2766C469.979 65.2211 525.094 31.7011 583.943 26.5079C634.361 22.0496 668.294 56.8411 711.796 74.5588C731.478 82.5673 751.746 89.197 770.752 98.4522C791.539 108.566 804.686 121.396 820.708 137.256C859.364 175.449 938.341 153.298 985 151.655V148.526C938.407 150.532 859.661 173.402 820.799 135.39C804.381 119.324 790.946 105.668 770.077 94.7947C750.996 84.8212 730.621 77.3742 710.733 68.8538C667.371 50.2692 632.515 16.5592 581.924 21.0423C523.404 26.2107 468.709 58.9299 417.336 85.49C364.718 112.678 305.588 147.708 242.865 149.269C193.956 150.524 163.551 117.516 122.529 97.6018C59.9545 67.2769 -2.97466 94.7782 -70.0001 97.4862V107.212Z" fill="#1F1F1F"/>
<path d="M-70.0001 130.94C-2.57079 130.114 62.9876 97.7996 126.114 127.439C167.259 146.742 196.857 180.7 245.882 177.703C308.943 173.839 367.784 136.513 420.262 108.045C471.19 80.4204 526.141 45.9591 584.858 40.6256C634.625 36.1012 666.959 72.1477 711.071 86.7941C730.366 93.2009 750.386 97.4611 769.211 104.867C790.155 113.123 802.749 124.31 818.285 139.782C857.386 178.718 937.187 159.597 985 158.557V155.873C937.772 157.013 858.26 177.653 819.472 139.023C803.812 123.476 791.086 111.86 770.332 102.902C751.457 94.7531 731.314 89.5517 711.911 82.4514C668.145 66.4427 635.366 30.5283 585.369 35.0444C526.38 40.3697 471.108 74.8309 419.858 102.456C367.034 130.94 307.855 168.258 244.489 172.13C195.374 175.119 165.611 141.351 124.672 121.503C62.0315 91.1286 -2.62849 120.884 -70.0001 121.61V130.94Z" fill="#1F1F1F"/>
<path d="M-70.0001 154.676C-27.66 154.354 9.23202 145.272 49.2231 135.514C78.4169 128.389 104.66 129.635 132.164 141.499C174.298 159.663 202.965 193.662 252.599 190.335C314.333 186.207 371.221 148.913 422.058 120.157C470.786 92.5651 523.726 57.98 580.688 53.0098C630.256 48.6835 660.695 86.15 705.301 98.4187C724.398 103.678 744.18 105.767 763.128 111.1C784.995 117.259 797.803 127.538 815.128 141.21C861.087 177.472 931.623 168.456 985 166.705V163.304C933.709 164.889 860.015 177.983 816.513 140.682C799.831 126.382 787.229 115.757 765.725 108.813C746.842 102.712 726.986 99.7727 707.873 94.1503C663.365 81.0725 632.366 44.1179 582.592 48.5184C524.896 53.6207 471.124 88.148 421.473 115.748C369.935 144.414 312.223 181.707 249.912 185.728C200.459 188.931 171.455 154.982 129.667 136.323C102.567 124.219 76.3564 121.767 47.1131 128.067C7.80613 136.579 -28.6573 145.355 -70.0001 145.735V154.676Z" fill="#1F1F1F"/>
<path d="M-70.0001 178.405C-24.8329 178.14 13.5344 168.117 55.2811 154.891C84.3843 145.661 110.899 143.456 139.722 154.594C182.582 171.106 210.605 205.443 260.264 201.753C320.078 197.303 374.377 159.977 422.858 130.932C468.742 103.447 519.036 68.6388 573.69 63.9823C622.888 59.7964 651.529 99.3022 696.499 109.036C715.744 113.164 735.484 113.338 754.73 116.739C777.668 120.793 791.465 130.098 810.447 142.474C862.002 176.085 926.489 178.933 984.992 177.273V173.211C928.261 175.003 861.969 176.58 812.285 142.036C793.896 129.247 780.519 119.579 757.985 114.791C738.863 110.712 719.132 109.878 699.977 105.329C655.098 94.687 625.846 55.9573 576.484 60.1927C520.932 64.9565 469.624 99.6737 422.644 127.2C373.24 156.154 317.968 193.456 257.38 197.79C207.654 201.348 179.425 167.176 136.821 150.003C108.501 138.585 82.1177 139.518 52.9898 147.989C11.9025 159.927 -25.8797 169.587 -70.0001 169.859V178.405Z" fill="#1F1F1F"/>
<path d="M-70.0001 202.108C-21.7751 201.77 18.4715 190.599 61.9243 173.781C91.0028 162.52 118.062 156.6 148.467 166.805C191.673 181.319 219.408 216.177 268.655 212.098C326.095 207.334 377.279 169.909 422.841 140.633C465.338 113.33 512.484 78.2162 564.467 73.857C613.005 69.7784 640.188 111.571 685.355 118.853C705.013 122.023 724.918 120.298 744.551 121.9C768.708 123.881 783.932 132.104 804.578 143.622C860.691 174.912 922.03 190.607 985.016 189.79V185.282C923.497 186.463 861.383 175.267 806.721 143.225C786.652 131.452 771.956 122.849 748.202 120.158C728.701 117.953 708.887 119.051 689.386 115.542C644.268 107.427 616.615 66.4429 567.813 70.5545C514.874 75.0211 466.591 110.011 422.874 137.429C376.273 166.607 323.976 204.007 265.671 208.664C216.218 212.618 188.417 177.959 145.335 162.718C115.507 152.167 88.662 156.79 59.6165 167.358C16.7571 182.929 -22.8054 193.679 -69.9507 193.984L-70.0001 202.108Z" fill="#1F1F1F"/>
<path d="M-70.0002 225.87C-18.5195 225.349 23.9607 212.817 69.1362 192.35C98.2723 179.14 126.09 169.315 158.201 178.38C201.547 190.608 229.282 226.134 277.713 221.651C332.458 216.581 380.106 179.032 422.306 149.583C461.044 122.577 504.62 87.0669 553.587 82.9884C601.26 79.0172 627.141 123.196 672.398 128.183C692.674 130.412 712.843 126.87 732.987 126.804C758.472 126.721 775.343 133.813 797.754 144.794C857.872 174.244 918.09 203.306 984.992 203.85V199.128C919.31 199.07 858.886 174.417 800.062 144.423C778.236 133.293 761.925 125.83 736.885 125.243C716.906 124.773 696.845 127.72 676.783 125.186C631.558 119.464 605.258 76.078 557.271 80.0822C507.291 84.2516 462.486 119.621 422.503 146.743C379.199 176.143 330.339 213.667 274.68 218.621C225.944 222.972 198.242 187.668 154.913 174.673C123.378 165.212 95.8326 173.748 66.7212 186.323C22.0898 205.592 -19.6157 217.696 -70.0084 218.109L-70.0002 225.87Z" fill="#1F1F1F"/>
<path d="M-70.0001 249.606C-15.0907 248.78 29.7798 234.695 76.7685 210.554C106.07 195.503 134.81 181.658 168.735 189.328C212.006 199.136 240.022 235.372 287.373 230.493C339.241 225.143 383.065 187.445 421.572 157.896C456.189 131.336 495.983 95.3312 541.752 91.5581C562.662 89.8326 580.622 97.0898 596.546 109.813C615.503 124.954 633.635 135.588 658.362 137.132C679.314 138.453 699.977 133.31 720.599 131.493C747.361 129.132 766.277 135.332 790.385 145.917C854.518 174.079 914.463 216.672 985.008 218.852V214.113C915.568 212.461 855.606 174.07 792.726 145.587C769.195 134.911 750.856 128.339 724.522 130.065C704.057 131.402 683.534 135.993 662.813 134.391C638.325 132.5 620.225 121.941 601.293 107.014C585.04 94.2084 566.676 87.1989 545.51 88.9492C498.711 92.8048 457.722 128.628 421.811 155.362C382.125 184.886 337.09 222.542 284.315 227.81C236.609 232.565 208.709 196.544 165.397 185.976C132.032 177.835 103.58 190.442 74.3618 204.965C27.9253 227.925 -16.1786 241.531 -70.0001 242.233V249.606Z" fill="#1F1F1F"/>
<path d="M-70.0001 273.334C-11.5383 272.186 35.8955 256.31 84.681 228.511C114.27 211.652 144.025 193.695 179.812 199.821C222.87 207.186 251.371 244.099 297.486 238.84C346.42 233.259 386.246 195.404 420.88 165.839C451.252 139.914 487.04 103.306 529.512 99.8719C549.59 98.2207 566.206 106.378 581.026 118.795C599.983 134.663 618.503 145.512 643.798 145.974C665.541 146.371 686.657 139.452 707.79 136.133C735.929 131.708 756.691 136.678 782.712 147.081C822.571 163.007 858.491 182.384 894.484 204.758C923.645 222.922 950.679 232.54 985 234.357V229.774C951.289 228.198 923.884 219.281 894.707 202.248C859.043 181.426 823.659 162.619 784.978 146.734C759.527 136.29 739.3 130.948 711.574 134.762C690.589 137.644 669.604 144.042 648.109 143.374C622.995 142.589 604.573 131.815 585.625 116.128C570.476 103.612 553.48 95.7521 533.13 97.4116C489.686 100.953 452.711 137.371 421.036 163.461C385.249 193.026 344.244 230.839 294.445 236.355C247.951 241.506 219.614 204.783 176.482 196.725C141.247 190.12 111.798 206.88 82.3073 223.211C34.074 249.994 -12.5933 265.317 -70.0001 266.358V273.334Z" fill="#1F1F1F"/>
<path d="M-70.0001 297.054C-7.887 295.486 42.1843 277.702 92.7666 246.271C122.768 227.628 153.569 205.592 191.211 209.943C234.071 214.897 263.05 252.273 307.97 246.824C353.986 241.234 389.889 202.992 420.492 173.6C446.595 148.526 478.311 111.216 517.503 108.178C536.732 106.683 552.005 115.782 565.703 127.844C584.43 144.315 603.659 155.874 629.382 154.908C651.991 154.082 673.371 145.653 695.081 140.872C724.547 134.358 747.122 138.049 775.096 148.303C818.92 164.402 856.982 185.555 893.784 213.262C922.829 235.149 948.454 247.228 985.033 249.854V245.577C949.105 243.174 923.06 231.748 893.981 210.901C857.37 184.671 819.958 164.006 777.223 147.948C749.793 137.636 727.712 133.582 698.609 139.51C677.031 143.902 655.749 151.836 633.363 152.39C607.813 153.017 588.65 141.566 569.899 125.318C555.887 113.148 540.227 104.33 520.783 105.866C480.685 109.02 447.84 146.123 420.55 171.461C388.867 200.886 351.819 239.104 305.028 244.636C259.762 249.986 230.955 212.8 187.989 207.169C150.899 202.29 120.353 223.203 90.4835 241.35C40.4452 271.79 -8.90903 289.029 -70.0001 290.449V297.054Z" fill="#1F1F1F"/>
<path d="M-70.0001 320.799C-4.88684 318.809 48.028 299.432 99.8878 264.657C130.013 244.438 161.869 218.265 200.78 219.867C246.261 221.708 276.947 263.204 323.976 253.85C364.742 245.717 394.975 209.58 420.707 181.526C442.351 157.929 470.16 120.133 505.601 116.805C526.207 114.873 540.515 127.538 554.23 140.195C572.454 157.029 592.771 166.615 618.124 163.94C641.317 161.463 662.805 151.3 684.885 145.256C715.942 136.769 741.278 140.41 771.428 150.846C818.021 166.953 857.609 189.947 893.891 222.237C922.359 247.567 946.393 261.553 985 264.855V260.999C947.036 257.87 922.59 244.421 894.023 220.032C858.485 189.411 817.488 165.797 773.192 150.433C743.52 140.005 718.645 136.026 687.935 143.935C665.937 149.607 644.515 159.308 621.511 161.471C596.241 163.857 576.031 154.272 557.774 137.594C543.763 124.797 529.141 112.496 508.321 114.477C472.056 117.928 443.266 155.51 420.567 179.412C393.87 207.483 362.649 243.653 321.215 251.769C273.831 261.041 243.376 219.702 197.789 217.192C159.339 215.07 127.73 240.219 97.7778 259.967C46.3796 293.892 -5.81821 312.741 -70.0001 314.598V320.799Z" fill="#1F1F1F"/>
<path d="M-70.0001 344.535C-1.2273 342.058 54.358 320.634 107.916 282.308C138.676 260.297 171.479 230.295 212.105 229.84C257.281 229.337 288.824 271.501 334.592 261.775C372.993 253.618 399.541 217.498 421.754 189.724C439.392 167.663 463.591 128.504 495.933 126.011C515.632 124.492 528.902 138.296 541.587 150.49C559.654 167.911 580.259 177.579 605.876 173.608C629.729 169.909 651.373 157.921 673.833 150.416C706.101 139.634 733.02 141.97 765.222 152.389C815.269 168.588 857.534 193.01 893.701 230.245C903.534 240.375 912.889 251.117 924.247 259.571C942.849 273.433 962.474 276.793 985.008 278.923V275.621C962.697 273.54 943.179 270.23 924.544 256.855C913.136 248.665 903.633 238.22 893.709 228.346C857.493 192.3 815.887 168.2 766.664 152.01C734.957 141.582 708.4 138.915 676.412 149.128C654.027 156.27 632.399 167.812 608.703 171.197C583.152 174.838 562.604 165.178 544.488 147.898C531.556 135.563 518.113 122.114 498.142 123.699C465.083 126.325 439.952 165.277 421.407 187.684C398.329 215.533 370.932 251.67 331.988 259.827C285.939 269.478 254.594 227.463 209.361 227.397C169.155 227.339 136.566 256.417 105.971 277.99C52.8085 315.457 -2.1257 336.37 -70.0001 338.723V344.535Z" fill="#1F1F1F"/>
<path d="M-70.0001 368.272C2.39101 365.308 60.5479 341.778 115.754 300.018C147.223 276.216 180.81 242.473 223.084 239.897C268.185 237.148 300.461 279.881 345.332 269.924C381.729 261.85 404.923 225.878 423.946 198.451C438.205 177.901 458.736 137.925 488.466 136.059C507.258 134.887 520.042 150.136 531.622 161.777C549.441 179.676 570.088 189.369 595.73 184.069C620.077 178.999 641.663 165.129 664.313 156.113C697.545 142.903 725.824 143.845 759.972 154.165C813.191 170.248 858.35 195.801 893.981 237.676C903.41 248.764 912.114 260.669 923.2 270.147C941.621 285.834 961.625 289.277 985.016 291.547V288.798C961.815 286.544 941.901 283.11 923.423 267.811C912.246 258.556 903.41 246.898 893.874 236.025C858.07 195.173 813.562 169.843 761.068 153.719C727.357 143.366 699.359 142.086 666.324 154.734C643.699 163.403 622.08 176.836 597.831 181.575C572.182 186.587 551.518 176.902 533.633 159.102C521.822 147.337 508.906 132.418 489.949 133.681C459.651 135.696 438.304 175.499 423.32 196.428C403.612 223.905 379.694 259.902 342.876 268.034C297.84 277.941 265.712 235.339 220.619 237.585C178.716 239.674 145.294 272.575 113.99 295.973C59.1467 336.948 1.5668 359.999 -70.0001 362.848V368.272Z" fill="#1F1F1F"/>
<path d="M-70 392C5.91879 388.574 66.5401 362.93 123.296 317.81C155.44 292.216 189.703 254.898 233.502 250.11C278.834 245.156 311.663 288.484 356.105 278.461C390.944 270.593 411.228 234.968 427.54 207.904C438.98 188.915 456.214 148.303 483.718 147.196C501.711 146.478 514.322 163.139 525.02 174.31C542.485 192.556 562.81 202.224 588.287 195.371C612.923 188.766 634.171 172.906 656.813 162.346C690.68 146.511 720.038 145.983 756.048 156.072C812.029 171.758 860.205 198.054 894.938 244.182C903.889 256.062 911.785 268.95 922.557 279.312C940.608 296.65 960.966 299.952 985 302.132V300.068C961.098 297.822 940.797 294.503 922.656 277.487C911.801 267.307 903.699 254.609 894.633 242.877C859.678 197.609 812.161 171.445 756.724 155.642C721.102 145.487 691.941 145.694 658.181 160.959C635.515 171.205 614.167 186.62 589.573 192.894C564.022 199.417 543.606 189.74 526.108 171.552C515.237 160.299 502.618 143.919 484.468 144.753C456.536 146.032 438.642 186.537 426.658 205.848C409.819 232.978 388.966 268.702 353.83 276.628C309.322 286.66 276.592 243.48 231.359 247.938C187.873 252.231 153.767 288.814 121.738 313.987C65.2955 358.447 5.18523 383.645 -70 386.972V392Z" fill="#1F1F1F"/>
</g>
<defs>
<clipPath id="clip0_143_2243">
<rect width="320" height="392" fill="white" transform="matrix(1 0 0 -1 0 392)"/>
</clipPath>
</defs>
</svg>
