<svg width="1920" height="573" viewBox="0 0 1920 573" fill="none" xmlns="http://www.w3.org/2000/svg">
<g clip-path="url(#clip0_36_768)">
<path d="M-0.000213623 -333.307C176.22 -334.809 328.5 -272.862 469.89 -182.689C506.55 -159.312 542.22 -134.72 577.275 -109.602C609.045 -86.8558 642.705 -64.5604 683.055 -60.4015C748.59 -53.6904 800.64 -98.1162 843.465 -138.473C892.875 -185.016 938.55 -239.546 1001.4 -269.093C1075.71 -304.075 1163.77 -290.593 1235.56 -255.896C1335.82 -207.447 1411.5 -127.393 1503.12 -69.59C1626.24 8.12138 1787.59 -36.2894 1920 -32.1906V-42.5201C1784.79 -47.0242 1621.98 -2.29819 1495.86 -80.7152C1402.11 -138.999 1325.55 -222.07 1223.71 -271.826C1151.37 -307.183 1063.86 -318.008 990.75 -279.333C931.35 -247.804 890.01 -193.108 844.485 -145.845C805.95 -105.848 758.49 -61.5576 695.985 -68.2387C656.715 -72.4276 623.745 -95.0083 592.92 -117.184C557.19 -142.887 520.92 -168.125 483.645 -192.253C339.15 -285.788 181.77 -356.939 -0.000213623 -357.389V-333.307Z" fill="#1F1F1F"/>
<path d="M-0.000213623 -290.142C166.395 -294.992 309.675 -249.605 445.98 -165.768C512.55 -124.796 580.245 -54.3359 661.17 -46.6939C732.615 -39.9377 792.99 -84.8139 843.72 -125.621C900.18 -171.038 954 -225.208 1023.24 -251.257C1099.74 -280.038 1188.46 -261.166 1259.68 -226.934C1357.03 -180.121 1430.53 -104.872 1518.48 -47.5647C1635.34 28.5552 1793.56 -15.6604 1920 -12.8078V-23.3174C1790.19 -26.9057 1630.2 17.3549 1509.82 -59.6808C1419.9 -117.319 1345.15 -195.105 1246.21 -242.714C1174.77 -277.11 1086.33 -292.965 1011.01 -260.911C945.24 -232.925 895.905 -178.56 843.27 -132.573C796.845 -92.0356 740.985 -47.3996 672.81 -54.1407C592.89 -62.023 524.22 -133.849 458.79 -174.957C319.8 -262.262 171.66 -316.612 -0.000213623 -313.519V-290.142Z" fill="#1F1F1F"/>
<path d="M-0.000213623 -246.993C158.4 -254.74 294.465 -225.118 426.93 -146.19C496.17 -104.947 562.5 -36.5597 647.13 -32.0556C722.58 -28.0919 789.3 -72.5928 846.24 -112.635C908.235 -156.22 968.7 -207.717 1041.91 -231.739C1120.75 -257.623 1209.52 -233.916 1281.79 -199.714C1377 -154.673 1449.43 -84.2134 1533.27 -25.7047C1643.05 50.8656 1799.43 5.98936 1920 7.22049V-3.37924C1796.74 -5.49618 1640.14 38.7645 1526.58 -36.4096C1440.33 -93.6121 1368.07 -166.804 1272.1 -213.032C1200.93 -247.323 1112.16 -268.973 1034.59 -242.879C962.145 -218.497 904.485 -164.462 844.665 -119.481C790.14 -78.4932 725.835 -33.3017 651.42 -40.0429C569.595 -47.4447 502.665 -116.748 435.06 -157.586C301.095 -238.51 161.805 -275.924 0.0597864 -269.649L-0.000213623 -246.993Z" fill="#1F1F1F"/>
<path d="M-0.000213623 -203.828C74.9998 -208.828 150.75 -212.236 224.34 -198.258C289.5 -185.887 349.845 -159.673 406.095 -127.543C477.93 -86.5705 542.7 -20.3297 629.7 -16.4411C711.525 -12.8228 786.09 -58.3296 850.575 -98.7917C919.32 -141.926 987.63 -193.273 1067.34 -214.143C1149.24 -235.582 1236.58 -205.314 1309.71 -170.077C1353.04 -149.193 1393.99 -123.91 1432.86 -96.3595C1474.63 -66.7523 1510.98 -30.8844 1551.9 -1.05201C1654.08 73.4614 1806.9 28.1498 1920 27.6393V17.2498C1803 16.8744 1648.5 61.9759 1542.37 -13.6185C1460.32 -72.1423 1389.18 -140.44 1295.44 -185.196C1222.78 -219.893 1134.66 -246.753 1054.29 -223.166C977.79 -200.765 913.5 -149.298 848.175 -105.968C787.5 -65.7164 716.865 -20.7651 638.28 -24.5486C552.495 -28.7224 486.945 -96.0442 416.43 -137.152C286.17 -213.242 153.84 -234.742 -0.000213623 -225.733V-203.828Z" fill="#1F1F1F"/>
<path d="M-0.000213623 -160.679C71.7598 -166.414 144.795 -174.191 216 -165.348C277.5 -157.751 334.5 -135.756 387.585 -106.794C461.835 -66.347 525.3 -1.60752 614.58 1.17002C702.81 3.91755 784.5 -42.7453 856.215 -83.808C931.32 -126.807 1007.11 -178.305 1093.05 -196.216C1178.08 -213.948 1263 -177.059 1337.4 -140.59C1379.06 -120.133 1419.07 -96.4597 1457.05 -69.7851C1497.63 -41.334 1531.53 -6.29185 1570.38 23.4355C1664.88 95.7719 1814.34 50.115 1919.88 47.953V37.9688C1810.6 39.3501 1659.55 84.8418 1561.27 11.4394C1521.4 -18.3329 1486.27 -53.7955 1445.14 -82.8321C1406.75 -110.179 1366.2 -134.37 1323.9 -155.169C1250.16 -190.961 1164 -224.592 1080.45 -205.134C997.53 -185.812 925.365 -134.419 853.32 -91.3899C785.04 -50.6275 706.875 -4.68535 621.735 -7.83824C533.595 -11.1113 469.425 -76.6164 396.39 -117.319C341.79 -147.752 283.245 -171.804 219.96 -181.713C147.585 -193.033 73.2298 -187.343 -0.000213623 -181.908V-160.679Z" fill="#1F1F1F"/>
<path d="M-0.000213623 -117.514C133.5 -129.15 251.505 -145.965 372 -83.2525C448.605 -43.3909 510.615 20.1324 602.145 21.6638C696.39 23.2403 784.65 -25.2242 862.845 -67.0526C943.68 -110.307 1026.34 -162.345 1118.02 -177.644C1206.13 -192.343 1287.75 -149.013 1363.63 -111.433C1403.96 -91.7249 1442.83 -69.1463 1479.93 -43.8714C1519.42 -16.6664 1550.88 17.2798 1587.67 46.887C1675.05 117.212 1821.43 71.4345 1919.98 67.9063V58.5077C1818.16 61.4203 1670.4 107.182 1579.68 35.987C1542 6.22966 1509.31 -28.272 1469.32 -56.0776C1431.83 -82.0451 1392.44 -105.171 1351.5 -125.261C1276.35 -162.345 1193.05 -202.642 1106.38 -186.577C1017.37 -170.062 937.89 -118.355 859.68 -75.2802C784.47 -33.8422 699.18 13.6915 607.8 11.4995C517.32 9.3225 454.62 -54.7113 379.095 -94.8582C327.405 -122.348 272.115 -142.257 212.355 -147.512C142.11 -153.667 70.4998 -144.013 -0.000213623 -138.053V-117.514Z" fill="#1F1F1F"/>
<path d="M-0.000213623 -74.3643C127.38 -85.3844 242.43 -114.631 359.775 -56.0775C438.405 -16.8165 498.915 46.0162 592.545 45.8511C692.22 45.716 786.12 -5.0757 869.88 -48.0001C955.605 -91.9154 1044.36 -144.989 1141.08 -158.126C1231.9 -170.453 1309.59 -120.982 1387.08 -82.802C1426.08 -63.5994 1464.34 -43.2558 1500.21 -19.3088C1538.8 6.43985 1567.92 38.8396 1602.7 68.3117C1683.7 136.925 1827.7 91.4479 1920.06 87.0339V78.3709C1824.97 82.4396 1680.06 128.112 1596.19 58.7779C1560.49 29.2308 1530.31 -3.93465 1491.33 -30.4039C1455.06 -55.0266 1416.33 -76.256 1376.79 -95.849C1300.06 -133.849 1220.5 -180.542 1130.79 -167.21C1036.29 -153.142 950.22 -100.608 866.61 -57.0534C785.28 -14.6845 693.855 34.9661 596.61 34.2454C503.91 33.5548 442.71 -29.5182 364.965 -69.0495C246.21 -129.435 129.975 -105.623 -0.000213623 -94.1825V-74.3643Z" fill="#1F1F1F"/>
<path d="M-0.000213623 -31.1998C123 -40.6434 236.655 -80.0997 351.39 -24.5487C431.61 14.2469 490.515 76.8094 586.005 74.5423C690.3 72.02 788.685 18.3307 876.9 -26.05C966.405 -71.0914 1060.2 -125.817 1161.09 -137.362C1253.98 -147.977 1327.33 -92.7113 1406.2 -54.8765C1443.84 -36.86 1481.44 -18.7083 1516.51 3.43704C1554.39 27.369 1581.34 57.7269 1614.16 86.9287C1689.97 154.356 1832.35 109.81 1920 105.11V97.3332C1830.45 101.987 1687.5 147.029 1609.5 79.1515C1575.81 49.8146 1548 18.4808 1509.76 -6.30693C1474.5 -29.4282 1436.5 -48.5707 1398.31 -67.2028C1320.06 -105.323 1244.74 -158.081 1152.67 -146.776C1053.51 -134.6 961.8 -80.7153 873.825 -36.1994C787.425 7.47572 690.825 59.8138 588.51 61.195C493.8 62.4712 434.175 -0.136276 354.6 -39.1121C238.785 -95.8642 124.68 -60.5818 -0.000213623 -50.3123V-31.1998Z" fill="#1F1F1F"/>
<path d="M-0.000213623 11.9499C120.465 5.11861 234.45 -41.7544 347.385 11.9499C428.61 50.5803 485.79 113.428 582.795 108.263C690.645 102.528 792.09 45.3105 883.44 -1.022C975.39 -47.6548 1072.96 -104.737 1177 -115.397C1270.96 -125.006 1339.8 -64.3502 1419.91 -28.212C1456.36 -11.7719 1493.34 3.61725 1527.81 23.4655C1565.17 44.9802 1590.25 72.7407 1621.17 101.447C1693.35 168.439 1835.25 125.589 1920 121.415V114.629C1834.27 119.133 1692.31 162.808 1618.81 95.7418C1587.09 66.7952 1561.26 37.8486 1523.7 15.2229C1488.99 -5.67632 1451.7 -22.3116 1414.83 -39.4874C1335.21 -76.5264 1264.5 -134.96 1170.79 -124.991C1067.95 -114.061 971.82 -58.0744 880.74 -12.1773C790.545 33.2694 690.24 88.9105 583.74 93.1594C487.335 97.018 429.405 34.3505 348.525 -4.31003C234.945 -58.5999 121.275 -14.5044 -0.000213623 -6.442V11.9499Z" fill="#1F1F1F"/>
<path d="M-0.000213623 55.1145C122.13 51.8715 237.63 0.494354 351.36 55.8352C426 92.1235 480.765 152.614 570 148.966C684.96 144.176 792.885 78.491 889.065 27.9546C982.71 -21.2456 1083.01 -82.2016 1190.11 -91.6452C1281.87 -99.7527 1343.62 -36.4846 1422.79 -4.26501C1458.61 10.2984 1495.5 22.3544 1530.09 39.1849C1567.92 57.5768 1591.84 80.9082 1621 109.75C1691.35 179.203 1835.08 138.921 1920 135.934V130.243C1835.2 133.892 1691.89 175.48 1621.17 106.357C1591.29 77.1397 1566.84 52.3069 1528.86 32.5337C1494.13 14.3971 1457.05 0.854675 1420.86 -14.6395C1341.94 -48.4356 1278.51 -109.737 1186.44 -101.584C1079.94 -92.1857 980.4 -32.6861 886.905 15.6132C791.145 65.0536 683.535 128.757 569.385 131.595C480.375 133.877 425.04 73.8517 350.385 37.6385C236.505 -17.5072 121.98 32.5037 -0.000213623 37.4282V55.1145Z" fill="#1F1F1F"/>
<path d="M-0.000213623 98.2641C122.715 96.7628 242.025 37.9988 356.91 91.8983C431.79 127.001 485.655 188.752 574.875 183.302C689.64 176.276 796.725 108.398 892.23 56.6309C984.915 6.39481 1084.92 -56.2727 1191.78 -65.9716C1282.35 -74.1992 1341.19 -8.64903 1421.47 17.9854C1456.59 29.6361 1493.02 37.3833 1527.28 50.8506C1565.4 65.8644 1588.32 86.2081 1616.59 114.344C1687.75 185.149 1832.98 150.377 1920 148.485V143.606C1834.05 145.678 1689.34 183.212 1618.75 112.963C1590.25 84.6917 1567.09 63.5673 1529.32 47.2773C1494.97 32.4587 1458.31 23.0001 1423 10.0882C1343.35 -19.0235 1283.7 -84.3335 1192.71 -76.1209C1085.35 -66.4371 984.765 -3.76955 891.495 46.4666C795.36 98.2641 687.66 166.126 572.34 173.168C482.955 178.603 428.79 117.197 354.285 81.1034C240.285 25.8677 122.61 79.9774 -0.000213623 81.2986V98.2641Z" fill="#1F1F1F"/>
<path d="M-0.000213623 141.429C77.0548 140.843 144.195 124.328 216.975 106.582C270.105 93.6248 317.865 95.8919 367.92 117.467C444.6 150.497 496.77 212.324 587.1 206.273C699.45 198.766 802.98 130.949 895.5 78.6561C984.18 28.48 1080.52 -34.4127 1184.19 -43.451C1274.4 -51.3182 1329.79 16.8143 1410.97 39.1248C1445.73 48.6886 1481.73 52.487 1516.21 62.186C1556.01 73.3862 1579.32 92.0784 1610.85 116.941C1694.49 182.882 1822.86 166.487 1920 163.304V157.118C1826.65 160.001 1692.54 183.813 1613.37 115.98C1583.01 89.9765 1560.07 70.6537 1520.94 58.0272C1486.57 46.932 1450.44 41.5871 1415.65 31.3627C1334.65 7.58083 1278.24 -59.6209 1187.65 -51.6185C1082.65 -42.34 984.795 20.4476 894.435 70.6387C800.64 122.767 695.61 190.584 582.21 197.896C492.21 203.721 439.425 141.984 363.375 108.053C314.055 86.0429 266.355 81.5838 213.135 93.0393C141.6 108.519 75.2398 124.478 -0.000213623 125.169V141.429Z" fill="#1F1F1F"/>
<path d="M-0.000213623 184.578C82.1998 184.098 152.025 165.871 228 141.819C280.965 125.034 329.22 121.025 381.675 141.279C459.675 171.306 510.675 233.748 601.05 227.037C709.905 218.945 808.725 151.068 896.955 98.2491C980.46 48.2682 1071.99 -15.0299 1171.45 -23.4977C1260.99 -31.1097 1313.11 40.7312 1394.95 58.4325C1429.98 65.9394 1465.9 66.2547 1500.93 72.4404C1542.67 79.8121 1567.78 96.7327 1602.33 119.238C1696.15 180.359 1813.51 185.539 1919.98 182.521V175.135C1816.74 178.393 1696.09 181.26 1605.67 118.443C1572.21 95.1862 1547.86 77.6051 1506.85 68.8971C1472.05 61.4803 1436.14 59.9639 1401.28 51.6913C1319.61 32.3385 1266.37 -38.0911 1176.54 -30.3891C1075.44 -21.7261 982.065 41.4069 896.565 91.4628C806.655 144.116 706.065 211.948 595.8 219.831C505.305 226.302 453.93 164.16 376.395 132.931C324.855 112.167 276.84 113.863 223.83 129.268C149.055 150.978 80.2948 168.544 -0.000213623 169.039V184.578Z" fill="#1F1F1F"/>
<path d="M-0.000213623 227.683C87.7648 227.067 161.01 206.754 240.09 176.171C293.01 155.692 342.255 144.927 397.59 163.484C476.22 189.878 526.695 253.266 616.32 245.85C720.855 237.187 814.005 169.129 896.925 115.89C974.265 66.2398 1060.06 2.38614 1154.67 -5.54114C1243 -12.9579 1292.47 63.0418 1374.67 76.284C1410.45 82.0493 1446.67 78.9114 1482.4 81.8241C1526.37 85.4274 1554.07 100.381 1591.65 121.325C1693.77 178.228 1805.4 206.769 1920.03 205.282V197.085C1808.07 199.232 1695.03 178.873 1595.55 120.605C1559.02 99.195 1532.28 83.5506 1489.05 78.6561C1453.56 74.6475 1417.5 76.6443 1382.01 70.2634C1299.9 55.5049 1249.57 -19.0235 1160.76 -11.5467C1064.41 -3.42419 976.545 60.2042 896.985 110.065C812.175 163.124 717 231.136 610.89 239.604C520.89 246.796 470.295 183.768 391.89 156.052C337.605 136.865 288.75 145.272 235.89 164.49C157.89 192.806 85.8898 212.354 0.0897864 212.909L-0.000213623 227.683Z" fill="#1F1F1F"/>
<path d="M-0.000228272 270.893C93.6898 269.947 171 247.156 253.215 209.937C306.24 185.915 356.865 168.048 415.305 184.533C494.19 206.769 544.665 271.373 632.805 263.221C732.435 254.002 819.15 185.719 895.95 132.165C966.45 83.0552 1045.75 18.4809 1134.87 11.0641C1221.63 3.84247 1268.73 84.1812 1351.09 93.2495C1387.99 97.3033 1424.7 90.8624 1461.36 90.7423C1507.74 90.5921 1538.44 103.489 1579.23 123.457C1688.64 177.011 1798.23 229.86 1919.98 230.851V222.263C1800.45 222.158 1690.48 177.327 1583.43 122.782C1543.71 102.543 1514.02 88.9706 1468.45 87.9046C1432.09 87.0488 1395.58 92.4088 1359.07 87.7995C1276.77 77.395 1228.9 -1.50244 1141.57 5.77927C1050.61 13.3612 969.075 77.6803 896.31 127.001C817.5 180.465 728.58 248.702 627.285 257.711C538.59 265.623 488.175 201.424 409.32 177.792C351.93 160.586 301.8 176.111 248.82 198.977C167.595 234.019 91.6948 256.029 -0.0152283 256.78L-0.000228272 270.893Z" fill="#1F1F1F"/>
<path d="M-0.000213623 314.057C99.9298 312.556 181.59 286.942 267.105 243.042C320.43 215.672 372.735 190.494 434.475 204.442C513.225 222.278 564.21 288.173 650.385 279.3C744.78 269.571 824.535 201.018 894.615 147.284C957.615 98.9848 1030.03 33.5096 1113.33 26.6483C1151.38 23.5105 1184.07 36.7076 1213.05 59.8438C1247.55 87.3791 1280.55 106.717 1325.55 109.524C1363.68 111.927 1401.28 102.573 1438.81 99.27C1487.52 94.9761 1521.94 106.251 1565.82 125.499C1682.53 176.711 1791.63 254.167 1920.01 258.131V249.513C1793.64 246.51 1684.51 176.696 1570.08 124.899C1527.25 105.486 1493.88 93.5347 1445.95 96.6726C1408.71 99.1049 1371.36 107.453 1333.65 104.54C1289.08 101.102 1256.14 81.8991 1221.69 54.7542C1192.11 31.4678 1158.69 18.7211 1120.17 21.904C1035 28.9154 960.405 94.0602 895.05 142.675C822.825 196.364 740.865 264.842 644.82 274.421C558 283.069 507.225 217.564 428.4 198.346C367.68 183.542 315.9 206.468 262.725 232.878C178.215 274.631 97.9498 299.374 -0.000213623 300.65V314.057Z" fill="#1F1F1F"/>
<path d="M-0.000213623 357.207C106.395 355.12 192.72 326.248 281.505 275.697C335.355 245.039 389.505 212.384 454.635 223.524C532.995 236.916 584.865 304.043 668.79 294.479C757.845 284.33 830.325 215.492 893.355 161.727C948.63 114.584 1013.76 48.0131 1091.05 41.7673C1127.59 38.7646 1157.83 53.5981 1184.8 76.1789C1219.3 105.035 1253.01 124.764 1299.04 125.604C1338.61 126.325 1377.04 113.743 1415.5 107.708C1466.71 99.6604 1504.5 108.699 1551.85 127.616C1624.39 156.578 1689.76 191.815 1755.27 232.502C1808.34 265.533 1857.54 283.024 1920 286.327V277.994C1858.65 275.127 1808.77 258.912 1755.67 227.938C1690.77 190.073 1626.37 155.872 1555.98 126.986C1509.66 107.993 1472.85 98.2792 1422.39 105.216C1384.2 110.455 1346.01 122.091 1306.89 120.875C1261.18 119.449 1227.66 99.8556 1193.17 71.3294C1165.6 48.5685 1134.67 34.2754 1097.64 37.2932C1018.57 43.7341 951.285 109.96 893.64 157.403C828.51 211.168 753.885 279.931 663.255 289.96C578.64 299.329 527.07 232.547 448.575 217.894C384.45 205.883 330.855 236.361 277.185 266.058C189.405 314.763 104.475 342.629 -0.000213623 344.52V357.207Z" fill="#1F1F1F"/>
<path d="M-0.000213623 400.341C113.04 397.489 204.165 365.149 296.22 307.992C350.82 274.091 406.875 234.019 475.38 241.931C553.38 250.939 606.12 318.907 687.87 308.998C771.615 298.833 836.955 229.289 892.65 175.84C940.155 130.243 997.875 62.3962 1069.2 56.8712C1104.19 54.1537 1131.99 70.6988 1156.92 92.6339C1191 122.586 1225.99 143.606 1272.81 141.849C1313.95 140.348 1352.86 125.019 1392.37 116.326C1446 104.48 1487.08 111.191 1537.99 129.838C1617.75 159.115 1687.02 197.58 1753.99 247.967C1806.85 287.768 1853.49 309.733 1920.06 314.508V306.731C1854.67 302.362 1807.27 281.582 1754.35 243.673C1687.72 195.974 1619.64 158.394 1541.86 129.193C1491.94 110.44 1451.76 103.069 1398.79 113.848C1359.52 121.836 1320.79 136.264 1280.05 137.27C1233.55 138.411 1198.68 117.587 1164.55 88.0397C1139.05 65.9094 1110.55 49.8747 1075.17 52.6673C1002.19 58.4025 942.42 125.874 892.755 171.952C835.095 225.461 767.67 294.96 682.515 305.019C600.135 314.748 547.71 247.126 469.515 236.886C402.015 228.013 346.425 266.043 292.065 299.043C201 354.399 111.18 385.748 -0.000213623 388.33V400.341Z" fill="#1F1F1F"/>
<path d="M-0.000213623 443.521C118.5 439.903 214.8 404.665 309.18 341.427C364.005 304.659 421.98 257.065 492.795 259.978C575.565 263.326 631.41 338.785 717 321.774C791.19 306.986 846.21 241.27 893.04 190.254C932.43 147.344 983.04 78.6111 1047.54 72.5605C1085.04 69.0473 1111.08 92.0785 1136.04 115.095C1169.2 145.708 1206.18 163.139 1252.32 158.274C1294.53 153.77 1333.63 135.288 1373.82 124.298C1430.34 108.864 1476.45 115.485 1531.32 134.462C1616.11 163.754 1688.16 205.568 1754.19 264.287C1806 310.349 1849.74 335.782 1920 341.788V334.776C1850.91 329.086 1806.42 304.629 1754.43 260.278C1689.75 204.594 1615.14 161.651 1534.53 133.712C1480.53 114.749 1435.26 107.513 1379.37 121.896C1339.33 132.21 1300.35 149.851 1258.48 153.785C1212.49 158.124 1175.71 140.693 1142.49 110.365C1116.99 87.0938 1090.38 64.7233 1052.49 68.3266C986.49 74.6024 934.095 142.945 892.785 186.41C844.2 237.457 787.38 303.232 711.975 317.991C625.74 334.851 570.315 259.677 487.35 255.113C417.375 251.255 359.85 296.987 305.34 332.9C211.8 394.591 116.805 428.868 -0.000213623 432.246V443.521Z" fill="#1F1F1F"/>
<path d="M-0.000213623 486.686C125.16 482.182 226.32 443.221 323.79 373.527C379.77 333.5 439.47 278.94 513.405 278.114C595.62 277.198 653.025 353.874 736.32 336.188C806.205 321.354 854.52 255.669 894.945 205.162C927.045 165.045 971.085 93.835 1029.94 89.3008C1065.79 86.5383 1089.94 111.641 1113.03 133.817C1145.91 165.496 1183.41 183.077 1230.03 175.855C1273.44 169.129 1312.83 147.329 1353.7 133.682C1412.43 114.074 1461.42 118.323 1520.02 137.27C1611.1 166.727 1688.02 211.138 1753.84 278.85C1771.74 297.272 1788.77 316.805 1809.43 332.179C1843.29 357.387 1879 363.498 1920.01 367.371V361.366C1879.41 357.582 1843.89 351.562 1809.98 327.239C1789.21 312.346 1771.92 293.353 1753.86 275.397C1687.95 209.847 1612.23 166.021 1522.65 136.579C1464.94 117.617 1416.61 112.767 1358.4 131.339C1317.66 144.326 1278.3 165.316 1235.17 171.471C1188.67 178.092 1151.28 160.526 1118.31 129.102C1094.77 106.672 1070.31 82.2144 1033.96 85.097C973.8 89.8714 928.065 160.706 894.315 201.454C852.315 252.095 802.455 317.811 731.58 332.644C647.775 350.195 590.73 273.79 508.41 273.67C435.24 273.565 375.93 326.444 320.25 365.675C223.5 433.807 123.525 471.837 -0.000213623 476.116V486.686Z" fill="#1F1F1F"/>
<path d="M-0.000213623 529.85C131.745 524.46 237.585 481.671 338.055 405.731C395.325 362.447 456.45 301.085 533.385 296.401C615.465 291.402 674.205 369.113 755.865 351.006C822.105 336.323 864.315 270.908 898.935 221.032C924.885 183.663 962.25 110.966 1016.35 107.573C1050.55 105.441 1073.82 133.171 1094.89 154.341C1127.32 186.891 1164.9 204.517 1211.56 194.878C1255.87 185.659 1295.16 160.436 1336.38 144.041C1396.86 120.019 1448.32 121.731 1510.47 140.498C1607.32 169.745 1689.51 216.212 1754.35 292.362C1771.51 312.526 1787.35 334.176 1807.53 351.412C1841.05 379.938 1877.46 386.199 1920.03 390.327V385.328C1877.8 381.229 1841.56 374.983 1807.93 347.163C1787.59 330.332 1771.51 309.133 1754.16 289.36C1689 215.071 1608 169.009 1512.46 139.687C1451.11 120.86 1400.16 118.533 1340.04 141.534C1298.86 157.298 1259.52 181.726 1215.39 190.344C1168.71 199.457 1131.1 181.846 1098.55 149.476C1077.06 128.082 1053.55 100.952 1019.05 103.249C963.915 106.912 925.065 179.294 897.795 217.353C861.93 267.319 818.4 332.779 751.395 347.568C669.435 365.585 610.965 288.113 528.9 292.197C452.64 295.996 391.815 355.826 334.845 398.375C235.035 472.888 130.245 514.807 -0.000213623 519.986V529.85Z" fill="#1F1F1F"/>
<path d="M0 573C138.165 566.769 248.49 520.136 351.78 438.086C410.28 391.543 472.635 323.681 552.345 314.973C634.845 305.965 694.59 384.757 775.47 366.53C838.875 352.222 875.79 287.438 905.475 238.223C926.295 203.691 957.66 129.838 1007.71 127.826C1040.46 126.52 1063.41 156.818 1082.88 177.132C1114.66 210.312 1151.66 227.893 1198.02 215.432C1242.85 203.421 1281.53 174.579 1322.73 155.377C1384.36 126.58 1437.79 125.619 1503.33 143.966C1605.21 172.492 1692.89 220.311 1756.09 304.193C1772.39 325.798 1786.76 349.235 1806.36 368.077C1839.21 399.606 1876.26 405.611 1920 409.575V405.822C1876.5 401.738 1839.55 395.702 1806.54 364.759C1786.79 346.247 1772.04 323.156 1755.54 301.821C1691.92 219.5 1605.45 171.922 1504.56 143.185C1439.73 124.718 1386.66 125.094 1325.22 152.854C1283.97 171.486 1245.12 199.517 1200.36 210.928C1153.86 222.788 1116.7 205.192 1084.86 172.117C1065.07 151.653 1042.11 121.866 1009.08 123.382C958.245 125.709 925.68 199.367 903.87 234.484C873.225 283.82 835.275 348.784 771.33 363.197C690.33 381.439 630.765 302.917 548.445 311.025C469.305 318.832 407.235 385.358 348.945 431.135C246.225 511.984 136.83 557.806 0 563.857V573Z" fill="#1F1F1F"/>
</g>
<defs>
<clipPath id="clip0_36_768">
<rect width="1920" height="1062" fill="white" transform="matrix(1 0 0 -1 0 573)"/>
</clipPath>
</defs>
</svg>
