<svg width="1659" height="162" viewBox="0 0 1659 162" fill="none" xmlns="http://www.w3.org/2000/svg">
<path d="M1522.84 71.9353C1528.14 72.4485 1537.04 72.9616 1546.79 72.9616C1559.27 72.9616 1627.86 72.9616 1640.52 72.9616C1649.07 72.9616 1655.06 72.2774 1659 71.9353V88.6982C1655.4 88.5272 1648.22 88.014 1640.69 88.014C1627.69 88.014 1559.44 88.014 1546.79 88.014C1537.38 88.014 1528.31 88.3561 1522.84 88.6982V71.9353Z" fill="white"/>
<path d="M1400.37 41.3174C1400.71 44.3963 1401.74 47.9883 1402.76 52.4356C1406.7 66.6328 1425.34 134.369 1428.93 146C1429.96 149.25 1431.5 154.553 1432.7 157.631L1417.99 161.566C1417.64 157.631 1416.79 153.184 1415.59 149.079C1412 136.763 1393.7 67.8301 1389.76 55.1724C1388.57 51.0672 1387.2 47.6462 1385.66 44.9094L1400.37 41.3174ZM1482.47 64.9223C1475.29 79.2905 1457.67 103.409 1445.87 114.869L1433.89 108.711C1444.5 99.6455 1457.5 83.7378 1463.31 73.6459C1455.79 75.0142 1375.74 91.093 1363.59 93.6587L1360.17 80.6589C1364.96 80.1457 1369.24 79.6326 1374.37 78.6063C1382.92 77.2379 1457.5 63.2118 1467.25 60.9881C1469.47 60.475 1472.04 59.6197 1473.75 58.7645L1482.47 64.9223Z" fill="white"/>
<path d="M1294.45 18.3966C1298.73 24.7255 1306.43 36.87 1310.36 45.0804L1300.61 49.5277C1296.34 40.4621 1290.52 30.1991 1284.88 22.5018L1294.45 18.3966ZM1316.69 10.1862C1321.31 16.173 1329.01 28.4886 1333.11 36.3569L1323.36 40.8042C1318.91 31.9096 1312.93 21.9887 1307.28 14.4625L1316.69 10.1862ZM1221.25 15.8309C1231.34 21.4755 1251.01 34.6464 1258.53 40.12L1250.32 51.7514C1242.28 45.5936 1223.64 33.1069 1213.55 27.4623L1221.25 15.8309ZM1195.59 138.132C1214.4 134.882 1235.61 128.211 1253.06 118.29C1281.45 102.04 1303.86 79.8036 1317.72 55.6855L1326.1 69.7116C1311.22 92.6324 1287.61 114.869 1260.24 130.777C1242.97 140.868 1219.36 148.908 1203.63 152.158L1195.59 138.132ZM1195.59 54.3171C1205.68 59.7907 1225.69 72.1063 1233.05 77.4089L1225.18 89.3824C1216.8 83.3956 1198.32 71.4221 1187.89 66.1196L1195.59 54.3171Z" fill="white"/>
<path d="M1021.55 71.9353C1026.85 72.4485 1035.75 72.9616 1045.5 72.9616C1057.98 72.9616 1126.57 72.9616 1139.23 72.9616C1147.78 72.9616 1153.77 72.2774 1157.71 71.9353V88.6982C1154.11 88.5272 1146.93 88.014 1139.4 88.014C1126.4 88.014 1058.15 88.014 1045.5 88.014C1036.09 88.014 1027.02 88.3561 1021.55 88.6982V71.9353Z" fill="white"/>
<path d="M956.379 67.488C956.379 112.987 946.458 136.421 907.459 154.039L895.999 143.092C927.13 131.29 942.524 116.579 942.524 68.5143V26.9492C942.524 20.2782 942.011 14.6336 941.669 13.0941H957.235C957.064 14.8046 956.379 20.2782 956.379 26.9492V67.488ZM894.63 14.1204C894.459 15.6599 893.946 20.6203 893.946 26.436V89.2114C893.946 95.5402 894.459 103.066 894.63 104.606H879.407C879.578 103.066 880.262 95.7113 880.262 89.2114V26.436C880.262 22.844 879.92 18.0546 879.407 14.1204H894.63ZM844.684 47.3041C846.223 47.4752 854.605 48.5015 861.789 48.5015H975.024C982.721 48.5015 988.366 47.8173 990.76 47.4752V62.0144C988.879 61.8434 982.721 61.5013 975.195 61.5013H861.789C854.262 61.5013 846.565 62.0144 844.684 62.0144V47.3041Z" fill="white"/>
<path d="M744.79 47.6462C747.698 54.4882 756.08 77.0668 758.132 84.422L745.475 89.0403C743.593 81.172 735.725 59.4486 732.133 51.9224L744.79 47.6462ZM806.711 57.225C805.513 60.646 804.658 63.3828 803.974 65.6064C799.527 84.422 792 102.895 779.856 118.29C763.948 138.303 743.08 151.645 724.093 158.829L712.804 147.368C732.475 141.553 754.369 128.553 768.395 111.106C780.54 96.2244 789.263 74.33 792 52.4356L806.711 57.225ZM704.936 56.1987C708.357 63.3828 717.422 85.7903 720.501 94.856L707.673 99.6454C704.936 90.7508 695.699 66.9748 692.278 60.9881L704.936 56.1987Z" fill="white"/>
<path d="M649.858 37.5543C648.147 39.4358 646.608 41.3174 645.581 42.8568C632.753 63.896 609.148 94.0008 578.872 115.895L568.267 106.316C595.635 87.3298 617.7 59.6197 626.766 43.37C611.371 43.37 535.938 43.37 526.189 43.37C519.347 43.37 511.991 43.8831 508.741 44.2252V29.0018C513.36 29.686 520.202 30.1991 526.189 30.1991C534.912 30.1991 611.029 30.1991 628.134 30.1991C632.753 30.1991 636.687 29.857 639.082 29.0018L649.858 37.5543ZM569.293 118.803C559.03 108.54 539.359 91.6061 530.294 85.1062L541.241 76.2116C549.109 81.8562 568.951 98.106 581.267 110.079C592.043 120.856 605.385 134.882 612.74 143.776L600.253 153.697C593.924 144.974 580.24 129.921 569.293 118.803Z" fill="white"/>
<path d="M340.77 102.04C363.349 96.5666 388.493 84.5931 402.519 76.0406C418.598 66.2907 434.335 52.0935 443.229 41.3174L453.834 51.5804C443.913 62.1855 426.124 77.0669 408.335 87.843C393.967 96.3955 370.191 107.685 347.441 114.698L340.77 102.04ZM400.98 83.9089L415.177 80.3168V144.461C415.177 149.592 415.348 156.776 416.032 159.342H400.125C400.467 156.776 400.98 149.592 400.98 144.461V83.9089Z" fill="white"/>
<path d="M195.773 21.1334C200.563 21.6466 205.694 21.9887 211.168 21.9887C221.089 21.9887 260.943 21.9887 270.522 21.9887C275.311 21.9887 281.469 21.6466 286.43 21.1334V35.3306C281.298 34.9885 275.311 34.6464 270.522 34.6464C260.943 34.6464 221.089 34.6464 211.51 34.6464C205.694 34.6464 200.22 34.9885 195.773 35.3306V21.1334ZM175.418 64.067C180.037 64.5802 184.997 64.9222 190.3 64.9222C200.22 64.9222 293.101 64.9222 302.166 64.9222C305.758 64.9222 311.403 64.5802 315.679 64.067V78.2642C311.916 77.9221 306.443 77.751 302.166 77.751C293.101 77.751 200.22 77.751 190.3 77.751C185.168 77.751 180.037 77.9221 175.418 78.2642V64.067ZM255.983 70.909C255.983 92.4613 253.246 110.251 245.72 124.619C239.391 136.079 226.562 148.395 212.023 155.75L199.365 146.513C212.536 140.868 224.852 131.119 231.694 120.171C240.246 106.658 241.444 89.8956 241.615 71.0801L255.983 70.909ZM295.324 7.10733C299.601 13.2651 305.758 23.6992 309.179 30.5412L299.943 34.6464C296.693 27.8044 290.877 17.5414 286.259 11.0415L295.324 7.10733ZM313.969 0.26532C318.587 6.59417 325.087 17.1993 328.337 23.5281L319.271 27.6333C315.508 20.2782 309.864 10.5283 305.074 4.19947L313.969 0.26532Z" fill="white"/>
<path d="M118.459 10.8705C122.735 17.0283 128.722 26.9492 132.143 33.7912L122.906 37.8964C119.485 31.0544 114.011 21.3045 109.393 14.8046L118.459 10.8705ZM138.643 6.08105C143.261 12.4099 149.59 22.5019 152.84 28.8307L143.603 32.9359C139.84 25.4097 134.537 16.3441 129.748 10.0152L138.643 6.08105ZM82.5381 14.2915C82.1961 16.6862 81.5118 22.844 81.5118 26.436C81.5118 35.5017 81.5118 49.8699 81.5118 58.2513C81.5118 72.1064 81.5118 127.527 81.5118 139.842C81.5118 148.737 77.2356 153.355 66.8015 153.355C59.6174 153.355 49.5255 153.013 42.5124 152.158L41.3151 138.645C48.8413 140.013 56.5385 140.526 61.1569 140.526C65.7752 140.526 67.6568 138.645 67.6568 134.026C67.8278 124.79 67.8278 66.2907 67.8278 58.2513C67.8278 52.4356 67.8278 35.5017 67.8278 26.436C67.8278 22.6729 67.1436 16.8572 66.6305 14.2915H82.5381ZM5.73666 43.0279C10.5261 43.7121 14.8023 44.0542 20.1049 44.0542C30.1968 44.0542 116.577 44.0542 126.84 44.0542C130.774 44.0542 136.419 43.7121 140.695 43.1989V57.3961C136.248 57.054 131.116 56.8829 127.011 56.8829C116.748 56.8829 30.71 56.8829 20.2759 56.8829C14.9734 56.8829 10.184 57.054 5.73666 57.5671V43.0279ZM45.0782 83.3957C37.723 97.9349 21.8154 119.829 12.0655 130.263L0.263062 122.224C11.7234 111.79 26.2627 91.435 32.9336 77.58L45.0782 83.3957ZM116.406 77.58C125.643 88.5272 139.156 109.908 145.998 122.395L133.511 129.408C126.669 115.895 113.84 94.685 104.775 83.9088L116.406 77.58Z" fill="white"/>
</svg>
