<svg width="645" height="141" viewBox="0 0 645 141" fill="none" xmlns="http://www.w3.org/2000/svg">
<path d="M10.3507 21.8186C14.7171 22.3224 20.9307 22.6583 24.4573 22.6583H116.654C121.86 22.6583 127.066 22.3224 131.097 21.8186V36.429C126.898 36.0932 121.524 35.7573 116.654 35.7573H24.4573C21.0986 35.7573 14.5491 36.0932 10.3507 36.429V21.8186ZM62.2429 120.397V30.2154H76.5175V120.397H62.2429ZM0.106628 112.168C4.97677 112.84 10.1828 113.176 14.885 113.176H125.891C130.929 113.176 135.463 112.504 139.661 112.168V127.282C135.295 126.779 129.081 126.779 125.891 126.779H14.885C10.3507 126.779 5.14471 126.946 0.106628 127.282V112.168Z" fill="#E03638"/>
<path d="M192.057 11.0707C203.813 18.9637 225.477 36.429 234.713 45.6655L224.301 56.4134C215.736 47.6807 194.912 29.5437 182.317 21.3148L192.057 11.0707ZM177.615 123.588C206.836 119.221 228.667 108.977 244.621 99.0691C270.651 82.7793 290.972 57.9248 300.712 37.1008L308.773 51.5433C297.353 72.3673 277.873 95.2066 252.514 111.161C235.553 121.74 214.393 132.153 186.348 137.359L177.615 123.588Z" fill="#E03638"/>
<path d="M442.114 8.71961C446.312 14.9332 453.869 26.8567 457.732 34.9176L448.16 39.284C443.961 30.3833 438.251 20.3072 432.71 12.7501L442.114 8.71961ZM463.946 0.658691C468.48 6.53644 476.037 18.6278 480.067 26.3529L470.495 30.7192C466.129 21.9865 460.251 12.2463 454.709 4.85708L463.946 0.658691ZM370.237 6.20057C380.146 11.7425 399.458 24.6735 406.847 30.0475L398.786 41.4671C390.893 35.4214 372.588 23.1621 362.68 17.6202L370.237 6.20057ZM345.047 126.275C363.52 123.084 384.344 116.534 401.473 106.794C429.351 90.8403 451.35 69.0086 464.953 45.3296L473.182 59.1004C458.572 81.6038 435.396 103.435 408.527 119.054C391.565 128.962 368.39 136.855 352.94 140.045L345.047 126.275ZM345.047 43.9862C354.955 49.3601 374.604 61.4515 381.825 66.6575L374.1 78.413C365.871 72.5353 347.734 60.7797 337.49 55.5737L345.047 43.9862Z" fill="#E03638"/>
<path d="M527.929 11.0707C539.685 18.9637 561.348 36.429 570.585 45.6655L560.173 56.4134C551.608 47.6807 530.784 29.5437 518.189 21.3148L527.929 11.0707ZM513.487 123.588C542.707 119.221 564.539 108.977 580.493 99.0691C606.523 82.7793 626.843 57.9248 636.584 37.1008L644.645 51.5433C633.225 72.3673 613.744 95.2066 588.386 111.161C571.425 121.74 550.265 132.153 522.219 137.359L513.487 123.588Z" fill="#E03638"/>
</svg>
