<svg width="196" height="206" viewBox="0 0 196 206" fill="none" xmlns="http://www.w3.org/2000/svg">
<path d="M59.036 10.0069C58.7172 9.61458 58.3401 9.27344 57.918 8.99531C57.6889 8.86676 57.4483 8.75983 57.1993 8.67589C57.7584 8.34648 58.2324 7.89064 58.5835 7.34493C59.0609 6.54079 59.3009 5.61787 59.2756 4.68301C59.304 4.06069 59.1946 3.43978 58.9553 2.86461C58.7161 2.28943 58.3528 1.77418 57.8914 1.3556C56.8925 0.505955 55.6077 0.068184 54.2978 0.131115C53.2391 0.115313 52.1941 0.371971 51.2632 0.87645C50.3917 1.34408 49.7061 2.09541 49.32 3.00598L49.32 3.19231L50.8373 5.05567L51.0769 4.62976C51.3698 4.06973 51.8003 3.59341 52.328 3.24556C52.8917 2.88829 53.5511 2.71182 54.2179 2.73979C54.5409 2.71892 54.8649 2.76228 55.171 2.86737C55.4771 2.97246 55.7593 3.1372 56.0014 3.35204C56.2173 3.58261 56.3832 3.85535 56.4885 4.15313C56.5939 4.4509 56.6365 4.76726 56.6137 5.0823C56.625 5.44623 56.5616 5.80861 56.4273 6.14705C56.2994 6.45658 56.0985 6.73058 55.8417 6.94564C55.5986 7.16829 55.3196 7.34827 55.0165 7.47802C54.7128 7.60381 54.3869 7.66718 54.0582 7.66435L52.5143 7.66435L52.5143 10.3263L54.1647 10.3263C54.9804 10.2892 55.7825 10.544 56.4273 11.045C56.708 11.2708 56.9314 11.5596 57.0794 11.888C57.2275 12.2165 57.2959 12.5751 57.2792 12.935C57.2847 13.2898 57.2193 13.6421 57.0867 13.9712C56.9541 14.3004 56.7571 14.5997 56.5072 14.8516C56.2127 15.1266 55.8642 15.3373 55.4838 15.4702C55.1034 15.6031 54.6995 15.6553 54.2978 15.6235C53.5723 15.6203 52.859 15.4373 52.2215 15.0911C51.5642 14.7265 51.0347 14.169 50.7042 13.494L50.4646 13.0415L48.9207 14.958L48.9207 15.1444C49.3854 16.1034 50.1273 16.9009 51.0502 17.4336C52.0635 17.9481 53.1883 18.2042 54.3244 18.179L54.5374 18.179C55.2082 18.1477 55.8713 18.0223 56.5072 17.8063C57.1687 17.6041 57.7776 17.2588 58.2907 16.7948C58.7996 16.3332 59.2074 15.7713 59.4886 15.1444C59.7672 14.4595 59.9118 13.7276 59.9144 12.9882C59.9172 12.4728 59.8363 11.9604 59.6749 11.4709C59.5702 10.9424 59.3523 10.443 59.036 10.0069Z" fill="white"/>
<path d="M71.7868 10.0066C71.4653 9.60695 71.0782 9.26489 70.6421 8.99501C70.4246 8.86195 70.1924 8.75476 69.95 8.67559C70.5072 8.35298 70.974 7.89524 71.3076 7.34463C71.8058 6.54818 72.0559 5.62164 72.0263 4.6827C72.0547 4.06039 71.9453 3.43948 71.7061 2.8643C71.4668 2.28913 71.1035 1.77387 70.6421 1.35529C69.6285 0.513144 68.3386 0.076851 67.0219 0.130808C65.964 0.121986 64.9207 0.378223 63.9873 0.876144C63.1272 1.35823 62.4456 2.1051 62.0441 3.00567L62.0441 3.19201L63.5614 5.05537L63.801 4.62945C64.1112 4.07335 64.5492 3.59893 65.0787 3.24526C65.6424 2.88799 66.3019 2.71151 66.9687 2.73948C67.6203 2.70318 68.2603 2.92289 68.7522 3.35174C68.9681 3.5823 69.1339 3.85505 69.2393 4.15282C69.3446 4.45059 69.3873 4.76695 69.3644 5.08199C69.3843 5.44919 69.311 5.81543 69.1515 6.14675C69.032 6.45402 68.8403 6.72797 68.5925 6.94533C68.3493 7.16798 68.0704 7.34797 67.7673 7.47771C67.4636 7.60351 67.1377 7.66687 66.809 7.66404L65.2651 7.66404L65.2651 10.326L66.9154 10.326C67.7311 10.2889 68.5333 10.5437 69.1781 11.0447C69.4588 11.2705 69.6822 11.5593 69.8302 11.8877C69.9782 12.2161 70.0466 12.5748 70.0299 12.9347C70.0355 13.2895 69.97 13.6418 69.8374 13.9709C69.7049 14.3 69.5079 14.5994 69.258 14.8513C68.9617 15.1236 68.6128 15.3326 68.2329 15.4653C67.853 15.5981 67.45 15.6518 67.0485 15.6232C66.3227 15.6233 65.6085 15.4402 64.9723 15.0908C64.315 14.7262 63.7854 14.1687 63.4549 13.4937L63.2154 13.0411L61.6714 14.9577L61.6714 15.1441C62.1362 16.1031 62.878 16.9006 63.801 17.4333C64.804 17.9499 65.9207 18.2062 67.0485 18.1787L67.2083 18.1787C67.8707 18.15 68.5254 18.0245 69.1515 17.806C69.8235 17.6099 70.4424 17.2641 70.9616 16.7945C71.4709 16.3392 71.8712 15.7751 72.1328 15.1441C72.4324 14.4648 72.5865 13.7303 72.5854 12.9879C72.5881 12.4725 72.5071 11.9601 72.3458 11.4706C72.2528 10.9519 72.0632 10.4552 71.7868 10.0066Z" fill="white"/>
<path d="M85.0427 2.65991C84.6281 1.86601 84.0015 1.20258 83.2326 0.743319C82.4298 0.257021 81.5092 -8.7657e-05 80.5707 -8.76682e-05C79.6321 -8.76794e-05 78.7115 0.257021 77.9087 0.743319C77.1565 1.2203 76.5273 1.86777 76.072 2.63328C75.5749 3.52065 75.2244 4.48244 75.0338 5.48154C74.8085 6.64791 74.7015 7.83405 74.7144 9.02191L74.7144 9.4212L74.8475 9.4212C74.8359 10.4769 74.9431 11.5305 75.1669 12.5623C75.3407 13.5575 75.6924 14.5133 76.2051 15.3839C76.6604 16.1494 77.2896 16.7969 78.0418 17.2739C78.846 17.7513 79.7689 17.9913 80.7038 17.966C81.6436 18.0039 82.5726 17.7531 83.3657 17.2473C84.091 16.7859 84.6938 16.1556 85.1225 15.4105C85.6115 14.5315 85.9532 13.5784 86.1341 12.5889C86.3594 11.4225 86.4664 10.2364 86.4535 9.04853C86.4503 7.86013 86.3345 6.67469 86.1075 5.50817C85.9193 4.50451 85.559 3.54091 85.0427 2.65991ZM83.6319 9.04853C83.7007 10.7118 83.4569 12.3731 82.9131 13.9465C82.7488 14.4181 82.4381 14.8249 82.0262 15.1074C81.6144 15.3899 81.123 15.5335 80.6239 15.517C80.1215 15.5345 79.6261 15.3953 79.2064 15.1187C78.7867 14.8421 78.4634 14.4417 78.2814 13.9731C77.6811 12.4406 77.4091 10.7992 77.4828 9.15501C77.4065 7.50661 77.6599 5.85956 78.2281 4.31031C78.3892 3.82922 78.702 3.41339 79.1196 3.12537C79.5373 2.83735 80.0371 2.69268 80.544 2.71314C81.0468 2.69512 81.5422 2.83762 81.9586 3.11999C82.375 3.40235 82.6907 3.80993 82.8599 4.28368C83.4365 5.83128 83.6989 7.47824 83.6319 9.12839L83.6319 9.04853Z" fill="white"/>
<path d="M94.2268 6.36035L94.2268 17.8066L96.8089 17.8066L96.8089 8.80932L101.733 8.80932L101.733 6.36035L94.2268 6.36035Z" fill="white"/>
<path d="M149.276 28.0015C151.724 23.8756 154.173 19.723 156.569 15.5704C157.163 14.6864 157.457 13.6354 157.409 12.5718C157.361 11.5082 156.974 10.4879 156.303 9.66087C155.659 8.79961 154.75 8.17401 153.716 7.88056C152.682 7.58711 151.58 7.64211 150.58 8.0371L145.709 9.47454C143.047 10.2997 140.172 11.125 137.403 11.9235C136.756 12.0749 136.163 12.4043 135.693 12.8747C135.222 13.3451 134.893 13.9377 134.741 14.5855C134.475 15.6236 134.156 16.6618 133.81 17.7265L133.038 20.3885L130.642 18.5783C129.604 17.8064 128.592 17.061 127.634 16.2891C127.191 15.9158 126.654 15.6712 126.081 15.5821C125.508 15.4929 124.922 15.5625 124.386 15.7833C117.694 18.0174 111.551 21.6466 106.365 26.431C102.201 30.205 98.7711 34.7177 96.2499 39.7406L95.8506 40.5658C93.4549 45.3573 91.1923 49.9092 92.0707 55.3129L92.0707 55.9518L91.4851 56.1913C87.7866 57.8181 83.8109 58.7217 79.7726 58.8533C78.8143 58.8533 77.6697 59.1461 77.6431 60.6634C77.6431 61.7548 78.3352 62.3404 79.7992 62.3936C84.1139 62.3495 88.3765 61.4445 92.3369 59.7317C92.8333 59.4821 93.3954 59.3941 93.9444 59.48C94.4934 59.5659 95.0017 59.8215 95.3981 60.2109C96.2704 61.0042 97.291 61.6172 98.4011 62.0147C99.5112 62.4121 100.689 62.5861 101.867 62.5267C113.388 62.2462 124.45 57.9532 133.144 50.3883C137.177 46.9419 140.597 42.8378 143.26 38.25C143.394 38.0556 143.486 37.8355 143.531 37.6035C143.575 37.3715 143.571 37.1328 143.519 36.9025C143.466 36.6722 143.366 36.4554 143.225 36.2657C143.085 36.0761 142.906 35.9178 142.701 35.801C142.503 35.6797 142.284 35.5986 142.055 35.5624C141.826 35.5262 141.593 35.5355 141.368 35.59C141.142 35.6444 140.93 35.7428 140.743 35.8795C140.556 36.0162 140.398 36.1886 140.278 36.3866C140.068 36.669 139.872 36.9622 139.693 37.2651L139.373 37.7442C135.661 43.574 130.666 48.4794 124.771 52.0868C118.875 55.6941 112.234 57.9083 105.354 58.5605C104.016 58.6663 102.672 58.6663 101.334 58.5605C100.722 58.5605 100.136 58.5605 99.5507 58.5605L98.8054 58.5605L98.6723 56.8036L99.3111 56.3777C99.5241 56.218 99.7371 56.0849 99.95 55.9518C107.932 51.5212 115.457 46.3141 122.417 40.4061C125.079 38.2233 127.607 35.9075 130.056 33.6981C130.343 33.4946 130.584 33.233 130.763 32.9303C130.942 32.6276 131.055 32.2905 131.095 31.9412C131.104 31.7253 131.068 31.5099 130.99 31.3084C130.913 31.1068 130.794 30.9236 130.642 30.7699C129.604 29.7052 128.353 30.5304 127.687 31.116L127.288 31.4621C125.398 32.9794 123.508 34.47 121.645 35.9873C117.119 39.6342 112.408 43.4141 107.696 46.9811C105.335 48.6983 102.873 50.2717 100.323 51.6927L96.4895 53.9819L95.1852 54.8071L95.1852 53.2366L95.1852 52.2783C95.1798 51.8208 95.2335 51.3645 95.3449 50.9207C97.2058 43.8136 100.769 37.2664 105.727 31.8448C110.685 26.4232 116.888 22.2902 123.801 19.8028C124.252 19.6929 124.721 19.6763 125.179 19.7541C125.636 19.832 126.073 20.0025 126.463 20.2553C127.474 20.9208 128.433 21.6662 129.364 22.4115C130.296 23.1568 130.509 23.2899 131.095 23.7425C131.489 24.0786 131.959 24.3147 132.464 24.4305C132.969 24.5464 133.495 24.5386 133.996 24.4079C134.485 24.204 134.918 23.8843 135.256 23.4762C135.595 23.0682 135.829 22.5841 135.939 22.0655L136.339 20.7079C136.685 19.4834 137.057 18.2057 137.51 16.9812C137.691 16.5342 137.961 16.1289 138.305 15.7901C138.648 15.4514 139.057 15.1864 139.506 15.0114C142.754 13.9466 146.108 12.9617 149.355 12.03L150.713 11.6307C151.131 11.5207 151.559 11.4494 151.991 11.4178C152.23 11.4178 152.55 11.4177 152.922 11.2847L154.44 11.0717L153.268 13.4408C153.002 13.9732 152.816 14.3725 152.576 14.7718L149.675 19.7496L145.895 26.1648C145.643 26.5697 145.48 27.0233 145.416 27.4958C145.375 27.7158 145.375 27.9413 145.416 28.1613C145.475 28.3605 145.574 28.5458 145.707 28.7059C145.839 28.866 146.003 28.9976 146.188 29.0929C147.891 29.8649 148.823 28.7469 149.276 28.0015Z" fill="white"/>
<path d="M37.9266 100.3L34.2265 104.958C31.2984 108.498 28.2904 112.172 25.4421 115.925C24.8879 116.641 24.5882 117.522 24.5903 118.427C24.5965 119.081 24.734 119.726 24.9947 120.325C25.2553 120.924 25.6338 121.465 26.1076 121.914C31.6178 127.478 37.3676 133.228 43.703 139.51C44.1935 139.989 44.772 140.368 45.4066 140.628C46.5152 141.055 47.7425 141.058 48.8529 140.635C49.9633 140.213 50.8785 139.395 51.4226 138.339L55.7082 131.551L62.7091 120.53C62.9304 120.165 63.2283 119.852 63.5821 119.613C63.936 119.374 64.3374 119.215 64.7588 119.146C68.5387 119.306 72.3985 119.519 76.1252 119.705L76.3914 119.705C80.2512 119.918 84.6168 120.131 88.8492 120.317L90.2334 120.317C92.6157 120.586 95.0261 120.46 97.3674 119.945C109.612 116.511 121.777 112.784 134.208 108.924C135.803 108.401 137.24 107.486 138.388 106.262C141.715 102.722 145.069 99.1018 148.317 95.6146L148.556 95.3485C152.576 90.9829 156.755 86.4576 160.987 82.0388C162.472 80.7984 163.425 79.0359 163.649 77.1143C163.649 75.7301 162.718 74.4523 160.588 72.4293C158.666 70.5338 156.074 69.4711 153.374 69.4711C150.674 69.4711 148.083 70.5338 146.16 72.4293C144.963 73.6005 139.532 79.1906 136.285 82.518L134.554 84.3015C133.197 85.6324 130.801 88.0282 129.364 89.4124C128.906 89.9714 128.264 90.349 127.554 90.4771C125.291 90.4771 123.002 90.4771 120.792 90.4771L117.784 90.4771L117.784 90.5038L117.784 89.0131C117.821 87.9856 117.731 86.9576 117.518 85.9519C116.992 83.5902 115.677 81.4781 113.79 79.9637C111.903 78.4492 109.556 77.6226 107.137 77.62L107.004 77.62C102.239 77.62 97.3142 77.62 92.3896 77.62C89.84 77.7719 87.3334 76.9109 85.4153 75.2243C80.9803 71.8082 75.394 70.2435 69.8298 70.859C64.2656 71.4745 59.1563 74.2222 55.5752 78.5251C51.6621 83.0504 43.3835 93.4319 37.9266 100.3ZM57.545 81.6662C59.1866 79.5655 61.26 77.8417 63.625 76.611C65.99 75.3803 68.5915 74.6714 71.2539 74.5322C73.6818 74.3564 76.1197 74.6894 78.4116 75.5099C80.7035 76.3304 82.7988 77.6203 84.5635 79.2971C85.3359 80.0253 86.2493 80.5875 87.2473 80.9492C88.2454 81.3109 89.3069 81.4643 90.3665 81.4C95.3177 81.4 100.508 81.4 106.205 81.4C107.252 81.373 108.299 81.4804 109.319 81.7194C110.872 82.1704 112.21 83.1671 113.086 84.5262C113.963 85.8852 114.318 87.515 114.088 89.1156C113.858 90.7162 113.058 92.1798 111.834 93.237C110.611 94.2943 109.046 94.8739 107.429 94.8693C102.505 94.8693 97.5803 94.8693 92.6558 94.8693L82.2476 94.8693C81.5927 94.8349 80.9482 95.0434 80.4375 95.4549C80.2853 95.6193 80.167 95.812 80.0893 96.0221C80.0117 96.2322 79.9762 96.4556 79.985 96.6794C79.985 98.1701 81.1563 98.4629 82.1146 98.4629C89.1953 98.4629 96.276 98.4629 103.41 98.4629L107.669 98.4629C110.342 98.4377 112.905 97.3899 114.83 95.5348C115.492 94.9627 116.325 94.6258 117.199 94.5765C120.313 94.5765 123.428 94.5765 126.462 94.5765L127.474 94.5765C128.26 94.5872 129.04 94.4341 129.764 94.1271C130.488 93.8201 131.141 93.3657 131.68 92.793L133.969 90.5304L134.262 90.2376L137.216 87.3094L140.996 83.423L141.156 83.2633C144.244 80.0956 147.731 76.502 148.689 75.597C149.551 74.6346 150.7 73.9752 151.965 73.7163C153.231 73.4575 154.546 73.6129 155.717 74.1595C156.788 74.6977 157.782 75.3782 158.672 76.1826C159.071 76.502 159.497 76.8481 159.949 77.1675L160.375 77.1941L160.109 77.5934L159.843 77.9927L159.577 78.3654L154.572 83.6892C148.37 90.4239 141.928 97.3715 135.593 104.159C134.777 104.941 133.78 105.508 132.691 105.81C121.671 109.164 110.491 112.518 100.881 115.393L100.748 115.393C97.691 116.567 94.4398 117.154 91.1651 117.123C85.7081 116.724 80.1181 116.431 74.741 116.165L74.5281 116.165C71.4668 116.165 68.2725 115.872 65.1581 115.686C64.0425 115.573 62.9185 115.793 61.9283 116.319C60.938 116.845 60.1259 117.653 59.5947 118.64C56.9327 122.979 54.2708 127.371 51.4492 131.604L51.4492 131.737L48.5743 136.156C48.0419 137.008 47.6958 137.513 47.1635 137.567C46.6843 137.567 46.2584 137.194 45.6461 136.582L42.3986 133.334L40.4288 131.364C36.9949 127.93 33.0819 123.991 29.2221 120.184C28.9927 120.023 28.8034 119.811 28.6685 119.565C28.5337 119.32 28.4569 119.046 28.444 118.766C28.4312 118.486 28.4827 118.207 28.5944 117.95C28.7062 117.692 28.8754 117.464 29.089 117.283C31.112 114.834 33.215 112.225 34.892 110.122L36.9417 107.46L37.2345 107.114L37.4741 106.821L42.1324 101.018C46.6577 95.2686 54.2708 85.8188 57.5184 81.746L57.545 81.6662Z" fill="white"/>
<path d="M121.565 69.0221L121.884 69.3682C122.097 69.3682 122.283 69.3682 122.443 69.3682C122.753 69.3212 123.056 69.2409 123.348 69.1286C124.44 68.6228 125.531 68.1437 126.622 67.6645C129.438 66.5115 132.177 65.1777 134.821 63.6716C136.944 62.2944 138.916 60.6973 140.704 58.9068L142.115 57.5758C142.301 57.4233 142.451 57.2327 142.557 57.0168C142.663 56.801 142.721 56.565 142.727 56.3247C142.713 56.0796 142.649 55.8398 142.539 55.6202C142.429 55.4005 142.276 55.2055 142.088 55.047C141.907 54.9029 141.698 54.7973 141.475 54.7365C141.252 54.6757 141.018 54.661 140.789 54.6934C140.56 54.7258 140.34 54.8045 140.142 54.9248C139.944 55.0451 139.773 55.2044 139.639 55.3931L139.08 55.8988C138.814 56.1916 138.548 56.5111 138.255 56.7773C133.802 60.8542 128.515 63.915 122.763 65.7479C122.63 65.7479 122.47 65.7479 122.31 65.7479C122.052 65.7932 121.807 65.8931 121.591 66.0408C121.378 66.3336 120.713 67.2386 120.793 67.7976C120.932 68.2693 121.199 68.6931 121.565 69.0221Z" fill="white"/>
<path d="M39.4014 200.122C39.2113 200.122 39.028 200.109 38.8514 200.081C38.6749 200.068 38.478 200.034 38.2607 199.98L38.383 198.635C38.6138 198.69 38.8379 198.717 39.0551 198.717C39.6662 198.717 40.1551 198.479 40.5217 198.004C40.9019 197.515 41.1871 196.768 41.3772 195.763C41.5673 194.745 41.6895 193.441 41.7438 191.852L41.9475 185.742H51.6228V200H50.1359V186.638L50.5229 187.045H42.9049L43.2715 186.618L43.0882 191.812C43.0339 193.237 42.932 194.473 42.7827 195.519C42.6333 196.551 42.416 197.413 42.1309 198.106C41.8457 198.785 41.4791 199.294 41.0309 199.633C40.5828 199.959 40.0396 200.122 39.4014 200.122ZM60.6699 200.102C59.5564 200.102 58.5786 199.871 57.7367 199.409C56.8948 198.934 56.2362 198.289 55.7609 197.474C55.2856 196.646 55.048 195.702 55.048 194.643C55.048 193.584 55.2721 192.647 55.7202 191.832C56.1819 191.017 56.8065 190.379 57.5941 189.917C58.3953 189.442 59.2916 189.204 60.2828 189.204C61.2877 189.204 62.1772 189.435 62.9512 189.897C63.7388 190.345 64.3567 190.983 64.8048 191.812C65.2529 192.626 65.477 193.57 65.477 194.643C65.477 194.711 65.4702 194.786 65.4566 194.867C65.4566 194.935 65.4566 195.01 65.4566 195.091H56.1479V194.012H64.6826L64.1122 194.439C64.1122 193.665 63.9425 192.979 63.603 192.382C63.2771 191.771 62.829 191.296 62.2586 190.956C61.6883 190.617 61.0297 190.447 60.2828 190.447C59.5496 190.447 58.891 190.617 58.3071 190.956C57.7231 191.296 57.2682 191.771 56.9423 192.382C56.6164 192.993 56.4535 193.692 56.4535 194.48V194.704C56.4535 195.519 56.63 196.239 56.9831 196.863C57.3497 197.474 57.8521 197.956 58.4904 198.309C59.1422 198.649 59.8823 198.819 60.7106 198.819C61.3624 198.819 61.9667 198.703 62.5234 198.472C63.0938 198.241 63.5826 197.888 63.99 197.413L64.8048 198.35C64.3295 198.92 63.732 199.355 63.0123 199.654C62.3062 199.952 61.5254 200.102 60.6699 200.102ZM62.0957 187.168C61.8648 187.168 61.6612 187.086 61.4846 186.923C61.3081 186.76 61.2198 186.55 61.2198 186.292C61.2198 186.034 61.3081 185.823 61.4846 185.66C61.6612 185.497 61.8648 185.416 62.0957 185.416C62.3401 185.416 62.5438 185.497 62.7068 185.66C62.8833 185.823 62.9716 186.034 62.9716 186.292C62.9716 186.55 62.8833 186.76 62.7068 186.923C62.5438 187.086 62.3401 187.168 62.0957 187.168ZM58.47 187.168C58.2256 187.168 58.0151 187.086 57.8386 186.923C57.6756 186.76 57.5941 186.55 57.5941 186.292C57.5941 186.034 57.6756 185.823 57.8386 185.66C58.0151 185.497 58.2256 185.416 58.47 185.416C58.7009 185.416 58.9045 185.497 59.0811 185.66C59.2576 185.823 59.3459 186.034 59.3459 186.292C59.3459 186.55 59.2576 186.76 59.0811 186.923C58.9045 187.086 58.7009 187.168 58.47 187.168ZM68.6782 200V189.306H76.2555V190.569H69.7578L70.1244 190.202V200H68.6782ZM86.1876 200L81.7879 194.704L82.9897 193.991L87.8986 200H86.1876ZM78.3456 200V189.306H79.7918V200H78.3456ZM79.3436 195.234V193.991H82.786V195.234H79.3436ZM83.1119 194.806L81.7676 194.602L86.0247 189.306H87.5931L83.1119 194.806ZM90.1811 200V189.306H91.6273V197.8L98.7768 189.306H100.06V200H98.6139V191.486L91.4847 200H90.1811ZM104.205 200V189.306H105.651V197.8L112.8 189.306H114.084V200H112.637V191.486L105.508 200H104.205ZM109.053 187.758C108.156 187.758 107.43 187.534 106.873 187.086C106.33 186.624 106.045 185.966 106.018 185.11H107.056C107.07 185.653 107.26 186.081 107.627 186.393C107.993 186.706 108.469 186.862 109.053 186.862C109.636 186.862 110.112 186.706 110.478 186.393C110.859 186.081 111.055 185.653 111.069 185.11H112.108C112.094 185.966 111.809 186.624 111.252 187.086C110.696 187.534 109.962 187.758 109.053 187.758ZM123.559 200V189.306H128.285C129.493 189.306 130.444 189.537 131.137 189.999C131.843 190.461 132.196 191.139 132.196 192.036C132.196 192.905 131.863 193.577 131.198 194.052C130.532 194.514 129.656 194.745 128.57 194.745L128.855 194.317C130.132 194.317 131.069 194.555 131.666 195.03C132.264 195.505 132.562 196.191 132.562 197.087C132.562 198.011 132.223 198.73 131.544 199.246C130.878 199.749 129.84 200 128.427 200H123.559ZM124.965 198.859H128.366C129.276 198.859 129.962 198.717 130.424 198.432C130.899 198.133 131.137 197.658 131.137 197.006C131.137 196.354 130.926 195.879 130.505 195.58C130.084 195.281 129.419 195.132 128.509 195.132H124.965V198.859ZM124.965 194.052H128.183C129.011 194.052 129.643 193.896 130.077 193.584C130.525 193.271 130.749 192.817 130.749 192.219C130.749 191.622 130.525 191.173 130.077 190.875C129.643 190.576 129.011 190.427 128.183 190.427H124.965V194.052ZM140.535 200.102C139.421 200.102 138.444 199.871 137.602 199.409C136.76 198.934 136.101 198.289 135.626 197.474C135.151 196.646 134.913 195.702 134.913 194.643C134.913 193.584 135.137 192.647 135.585 191.832C136.047 191.017 136.671 190.379 137.459 189.917C138.26 189.442 139.156 189.204 140.148 189.204C141.153 189.204 142.042 189.435 142.816 189.897C143.604 190.345 144.222 190.983 144.67 191.812C145.118 192.626 145.342 193.57 145.342 194.643C145.342 194.711 145.335 194.786 145.321 194.867C145.321 194.935 145.321 195.01 145.321 195.091H136.013V194.012H144.547L143.977 194.439C143.977 193.665 143.807 192.979 143.468 192.382C143.142 191.771 142.694 191.296 142.124 190.956C141.553 190.617 140.895 190.447 140.148 190.447C139.414 190.447 138.756 190.617 138.172 190.956C137.588 191.296 137.133 191.771 136.807 192.382C136.481 192.993 136.318 193.692 136.318 194.48V194.704C136.318 195.519 136.495 196.239 136.848 196.863C137.215 197.474 137.717 197.956 138.355 198.309C139.007 198.649 139.747 198.819 140.575 198.819C141.227 198.819 141.832 198.703 142.388 198.472C142.959 198.241 143.448 197.888 143.855 197.413L144.67 198.35C144.194 198.92 143.597 199.355 142.877 199.654C142.171 199.952 141.39 200.102 140.535 200.102ZM153.024 200.102C151.965 200.102 151.015 199.871 150.173 199.409C149.344 198.934 148.692 198.289 148.217 197.474C147.742 196.646 147.504 195.702 147.504 194.643C147.504 193.57 147.742 192.626 148.217 191.812C148.692 190.997 149.344 190.359 150.173 189.897C151.015 189.435 151.965 189.204 153.024 189.204C153.934 189.204 154.756 189.381 155.489 189.734C156.222 190.087 156.799 190.617 157.22 191.323L156.141 192.056C155.774 191.513 155.319 191.112 154.776 190.854C154.233 190.596 153.642 190.467 153.004 190.467C152.243 190.467 151.558 190.644 150.947 190.997C150.336 191.336 149.854 191.818 149.5 192.443C149.147 193.068 148.971 193.801 148.971 194.643C148.971 195.485 149.147 196.218 149.5 196.843C149.854 197.467 150.336 197.956 150.947 198.309C151.558 198.649 152.243 198.819 153.004 198.819C153.642 198.819 154.233 198.69 154.776 198.432C155.319 198.174 155.774 197.78 156.141 197.25L157.22 197.983C156.799 198.676 156.222 199.206 155.489 199.572C154.756 199.925 153.934 200.102 153.024 200.102Z" fill="white"/>
</svg>
