<svg width="140" height="141" viewBox="0 0 140 141" fill="none" xmlns="http://www.w3.org/2000/svg">
<path d="M35.036 10.0069C34.7172 9.61458 34.3401 9.27344 33.918 8.99531C33.6889 8.86676 33.4483 8.75983 33.1993 8.67589C33.7584 8.34648 34.2324 7.89064 34.5835 7.34493C35.0609 6.54079 35.3009 5.61787 35.2756 4.68301C35.304 4.06069 35.1946 3.43978 34.9553 2.86461C34.7161 2.28943 34.3528 1.77418 33.8914 1.3556C32.8925 0.505955 31.6077 0.0681841 30.2978 0.131114C29.2391 0.115312 28.1941 0.371971 27.2632 0.87645C26.3917 1.34408 25.7061 2.09541 25.32 3.00598L25.32 3.19231L26.8373 5.05567L27.0769 4.62976C27.3698 4.06973 27.8003 3.59341 28.328 3.24556C28.8917 2.88829 29.5511 2.71182 30.2179 2.73979C30.5409 2.71892 30.8649 2.76228 31.171 2.86737C31.4771 2.97246 31.7593 3.1372 32.0014 3.35204C32.2173 3.58261 32.3832 3.85535 32.4885 4.15313C32.5939 4.4509 32.6365 4.76726 32.6137 5.0823C32.625 5.44623 32.5616 5.80861 32.4273 6.14705C32.2994 6.45658 32.0985 6.73058 31.8417 6.94564C31.5986 7.16829 31.3196 7.34827 31.0165 7.47802C30.7128 7.60381 30.3869 7.66718 30.0582 7.66435L28.5143 7.66435L28.5143 10.3263L30.1647 10.3263C30.9804 10.2892 31.7825 10.544 32.4273 11.045C32.708 11.2708 32.9314 11.5596 33.0794 11.888C33.2275 12.2165 33.2959 12.5751 33.2792 12.935C33.2847 13.2898 33.2193 13.6421 33.0867 13.9712C32.9541 14.3004 32.7571 14.5997 32.5072 14.8516C32.2127 15.1266 31.8642 15.3373 31.4838 15.4702C31.1034 15.6031 30.6995 15.6553 30.2978 15.6235C29.5723 15.6203 28.859 15.4373 28.2215 15.0911C27.5642 14.7265 27.0347 14.169 26.7042 13.494L26.4646 13.0415L24.9207 14.958L24.9207 15.1444C25.3854 16.1034 26.1273 16.9009 27.0502 17.4336C28.0635 17.9481 29.1883 18.2042 30.3244 18.179L30.5374 18.179C31.2082 18.1477 31.8713 18.0223 32.5072 17.8063C33.1687 17.6041 33.7776 17.2588 34.2907 16.7948C34.7996 16.3332 35.2074 15.7713 35.4886 15.1444C35.7672 14.4595 35.9118 13.7276 35.9144 12.9882C35.9172 12.4728 35.8363 11.9604 35.6749 11.4709C35.5702 10.9424 35.3523 10.443 35.036 10.0069Z" fill="white"/>
<path d="M47.7868 10.0066C47.4653 9.60695 47.0782 9.26489 46.6421 8.99501C46.4246 8.86195 46.1924 8.75476 45.95 8.67559C46.5072 8.35298 46.974 7.89524 47.3076 7.34463C47.8058 6.54818 48.0559 5.62164 48.0263 4.6827C48.0547 4.06039 47.9453 3.43948 47.7061 2.8643C47.4668 2.28913 47.1035 1.77387 46.6421 1.35529C45.6285 0.513144 44.3386 0.0768505 43.0219 0.130808C41.964 0.121987 40.9207 0.378224 39.9873 0.876144C39.1272 1.35823 38.4456 2.1051 38.0441 3.00567L38.0441 3.19201L39.5614 5.05537L39.801 4.62945C40.1112 4.07335 40.5492 3.59893 41.0787 3.24526C41.6424 2.88799 42.3019 2.71151 42.9687 2.73948C43.6203 2.70318 44.2603 2.92289 44.7522 3.35174C44.9681 3.5823 45.1339 3.85505 45.2393 4.15282C45.3446 4.45059 45.3873 4.76695 45.3644 5.08199C45.3843 5.44919 45.311 5.81543 45.1515 6.14675C45.032 6.45402 44.8403 6.72797 44.5925 6.94533C44.3493 7.16798 44.0704 7.34797 43.7673 7.47771C43.4636 7.6035 43.1377 7.66688 42.809 7.66404L41.2651 7.66404L41.2651 10.326L42.9154 10.326C43.7311 10.2889 44.5333 10.5437 45.1781 11.0447C45.4588 11.2705 45.6822 11.5593 45.8302 11.8877C45.9782 12.2161 46.0466 12.5748 46.0299 12.9347C46.0355 13.2895 45.97 13.6418 45.8374 13.9709C45.7049 14.3 45.5079 14.5994 45.258 14.8513C44.9617 15.1236 44.6128 15.3326 44.2329 15.4653C43.853 15.5981 43.45 15.6518 43.0485 15.6232C42.3227 15.6233 41.6085 15.4402 40.9723 15.0908C40.315 14.7262 39.7854 14.1687 39.4549 13.4937L39.2154 13.0411L37.6714 14.9577L37.6714 15.1441C38.1362 16.1031 38.878 16.9006 39.801 17.4333C40.804 17.9499 41.9207 18.2062 43.0485 18.1787L43.2083 18.1787C43.8707 18.15 44.5254 18.0245 45.1515 17.806C45.8235 17.6099 46.4424 17.2641 46.9616 16.7945C47.4709 16.3392 47.8712 15.7751 48.1328 15.1441C48.4324 14.4648 48.5865 13.7303 48.5854 12.9879C48.5881 12.4725 48.5071 11.9601 48.3458 11.4706C48.2528 10.9519 48.0632 10.4552 47.7868 10.0066Z" fill="white"/>
<path d="M61.0427 2.65991C60.6281 1.86601 60.0015 1.20258 59.2326 0.743319C58.4298 0.25702 57.5092 -8.79037e-05 56.5707 -8.79149e-05C55.6321 -8.7926e-05 54.7115 0.25702 53.9087 0.743319C53.1565 1.2203 52.5273 1.86778 52.072 2.63328C51.5749 3.52065 51.2244 4.48244 51.0338 5.48154C50.8085 6.64791 50.7015 7.83405 50.7144 9.02191L50.7144 9.4212L50.8475 9.4212C50.8359 10.4769 50.9431 11.5305 51.1669 12.5623C51.3407 13.5575 51.6924 14.5133 52.2051 15.3839C52.6604 16.1494 53.2896 16.7969 54.0418 17.2739C54.846 17.7513 55.7689 17.9913 56.7038 17.966C57.6436 18.0039 58.5726 17.7531 59.3657 17.2473C60.091 16.7859 60.6938 16.1556 61.1225 15.4105C61.6115 14.5315 61.9532 13.5784 62.1341 12.5889C62.3594 11.4225 62.4664 10.2364 62.4535 9.04853C62.4503 7.86013 62.3345 6.67469 62.1075 5.50817C61.9193 4.50451 61.559 3.54091 61.0427 2.65991ZM59.6319 9.04853C59.7007 10.7118 59.4569 12.3731 58.9131 13.9465C58.7488 14.4181 58.4381 14.8249 58.0262 15.1074C57.6144 15.3899 57.123 15.5335 56.6239 15.517C56.1215 15.5345 55.6261 15.3953 55.2064 15.1187C54.7867 14.8421 54.4634 14.4417 54.2814 13.9731C53.6811 12.4406 53.4091 10.7992 53.4828 9.15501C53.4065 7.50661 53.6599 5.85956 54.2281 4.31031C54.3892 3.82922 54.702 3.41339 55.1196 3.12537C55.5373 2.83734 56.0371 2.69268 56.544 2.71314C57.0468 2.69512 57.5422 2.83762 57.9586 3.11999C58.375 3.40235 58.6907 3.80993 58.8599 4.28369C59.4365 5.83128 59.6989 7.47824 59.6319 9.12839L59.6319 9.04853Z" fill="white"/>
<path d="M70.2268 6.36035L70.2268 17.8066L72.8089 17.8066L72.8089 8.80932L77.7335 8.80932L77.7335 6.36035L70.2268 6.36035Z" fill="white"/>
<path d="M125.276 28.0015C127.724 23.8756 130.173 19.723 132.569 15.5704C133.163 14.6864 133.457 13.6354 133.409 12.5718C133.361 11.5082 132.974 10.4879 132.303 9.66088C131.659 8.79961 130.75 8.17401 129.716 7.88056C128.682 7.58711 127.58 7.64211 126.58 8.0371L121.709 9.47454C119.047 10.2997 116.172 11.125 113.403 11.9235C112.756 12.0749 112.163 12.4043 111.693 12.8747C111.222 13.3451 110.893 13.9377 110.741 14.5855C110.475 15.6236 110.156 16.6618 109.81 17.7265L109.038 20.3885L106.642 18.5783C105.604 17.8064 104.592 17.061 103.634 16.2891C103.191 15.9158 102.654 15.6712 102.081 15.5821C101.508 15.4929 100.922 15.5625 100.386 15.7833C93.6936 18.0174 87.5512 21.6466 82.3653 26.431C78.2007 30.205 74.7711 34.7177 72.2499 39.7406L71.8506 40.5658C69.4549 45.3573 67.1923 49.9092 68.0707 55.3129L68.0707 55.9518L67.4851 56.1913C63.7866 57.8181 59.8109 58.7217 55.7726 58.8533C54.8143 58.8533 53.6697 59.1461 53.6431 60.6634C53.6431 61.7548 54.3352 62.3404 55.7992 62.3936C60.1139 62.3495 64.3765 61.4445 68.3369 59.7317C68.8333 59.4821 69.3954 59.3941 69.9444 59.48C70.4934 59.5659 71.0017 59.8215 71.3981 60.2109C72.2704 61.0042 73.291 61.6172 74.4011 62.0147C75.5112 62.4121 76.689 62.5861 77.8666 62.5267C89.3879 62.2462 100.45 57.9532 109.144 50.3883C113.177 46.9419 116.597 42.8378 119.26 38.25C119.394 38.0556 119.486 37.8355 119.531 37.6035C119.575 37.3715 119.571 37.1328 119.519 36.9025C119.466 36.6722 119.366 36.4554 119.225 36.2657C119.085 36.0761 118.906 35.9178 118.701 35.801C118.503 35.6797 118.284 35.5986 118.055 35.5624C117.826 35.5262 117.593 35.5355 117.368 35.59C117.142 35.6444 116.93 35.7428 116.743 35.8795C116.556 36.0162 116.398 36.1886 116.278 36.3866C116.068 36.669 115.872 36.9622 115.693 37.2651L115.373 37.7442C111.661 43.574 106.666 48.4794 100.771 52.0868C94.8755 55.6941 88.2344 57.9083 81.3537 58.5605C80.016 58.6663 78.672 58.6663 77.3342 58.5605C76.722 58.5605 76.1363 58.5605 75.5507 58.5605L74.8054 58.5605L74.6723 56.8036L75.3111 56.3777C75.5241 56.218 75.7371 56.0849 75.95 55.9518C83.9318 51.5212 91.4572 46.3141 98.4167 40.4061C101.079 38.2233 103.607 35.9075 106.056 33.6981C106.343 33.4946 106.584 33.233 106.763 32.9303C106.942 32.6276 107.055 32.2905 107.095 31.9412C107.104 31.7253 107.068 31.5099 106.99 31.3084C106.913 31.1068 106.794 30.9236 106.642 30.7699C105.604 29.7052 104.353 30.5304 103.687 31.116L103.288 31.4621C101.398 32.9794 99.508 34.47 97.6447 35.9873C93.1194 39.6342 88.4078 43.4141 83.6962 46.9811C81.3353 48.6983 78.8729 50.2717 76.3227 51.6927L72.4895 53.9819L71.1851 54.8071L71.1851 53.2366L71.1851 52.2783C71.1798 51.8208 71.2335 51.3645 71.3449 50.9207C73.2058 43.8136 76.769 37.2664 81.7269 31.8448C86.6847 26.4232 92.888 22.2902 99.8009 19.8028C100.252 19.6929 100.721 19.6763 101.179 19.7541C101.636 19.832 102.073 20.0025 102.463 20.2553C103.474 20.9208 104.433 21.6662 105.364 22.4115C106.296 23.1568 106.509 23.2899 107.095 23.7425C107.489 24.0786 107.959 24.3147 108.464 24.4305C108.969 24.5464 109.495 24.5386 109.996 24.4079C110.485 24.204 110.918 23.8843 111.256 23.4762C111.595 23.0682 111.829 22.5841 111.939 22.0655L112.339 20.7079C112.685 19.4834 113.057 18.2057 113.51 16.9812C113.691 16.5342 113.961 16.1289 114.305 15.7901C114.648 15.4514 115.057 15.1864 115.506 15.0114C118.754 13.9466 122.108 12.9617 125.355 12.03L126.713 11.6307C127.131 11.5207 127.559 11.4494 127.991 11.4178C128.23 11.4178 128.55 11.4177 128.922 11.2847L130.44 11.0717L129.268 13.4408C129.002 13.9732 128.816 14.3725 128.576 14.7718L125.675 19.7496L121.895 26.1648C121.643 26.5697 121.48 27.0233 121.416 27.4958C121.375 27.7158 121.375 27.9413 121.416 28.1613C121.475 28.3605 121.574 28.5458 121.707 28.7059C121.839 28.866 122.003 28.9976 122.188 29.0929C123.891 29.8649 124.823 28.7469 125.276 28.0015Z" fill="white"/>
<path d="M13.9266 100.3L10.2265 104.958C7.29838 108.498 4.2904 112.172 1.44214 115.925C0.887912 116.641 0.588202 117.522 0.590344 118.427C0.59649 119.081 0.73399 119.726 0.994653 120.325C1.25532 120.924 1.6338 121.465 2.10762 121.914C7.61781 127.478 13.3676 133.228 19.703 139.51C20.1935 139.989 20.772 140.368 21.4066 140.628C22.5152 141.055 23.7425 141.058 24.8529 140.635C25.9633 140.213 26.8785 139.395 27.4226 138.339L31.7082 131.551L38.7091 120.53C38.9304 120.165 39.2283 119.852 39.5821 119.613C39.936 119.374 40.3374 119.215 40.7588 119.146C44.5387 119.306 48.3985 119.519 52.1252 119.705L52.3914 119.705C56.2512 119.918 60.6168 120.131 64.8492 120.317L66.2334 120.317C68.6157 120.586 71.0261 120.46 73.3674 119.945C85.6122 116.511 97.7772 112.784 110.208 108.924C111.803 108.401 113.24 107.486 114.388 106.262C117.715 102.722 121.069 99.1018 124.317 95.6146L124.556 95.3485C128.576 90.9829 132.755 86.4576 136.987 82.0388C138.472 80.7984 139.425 79.0359 139.649 77.1143C139.649 75.7301 138.718 74.4523 136.588 72.4293C134.666 70.5338 132.074 69.4711 129.374 69.4711C126.674 69.4711 124.083 70.5338 122.16 72.4293C120.963 73.6005 115.532 79.1906 112.285 82.518L110.554 84.3015C109.197 85.6324 106.801 88.0282 105.364 89.4124C104.906 89.9714 104.264 90.349 103.554 90.4771C101.291 90.4771 99.0017 90.4771 96.7923 90.4771L93.7844 90.4771L93.7844 90.5038L93.7844 89.0131C93.8207 87.9856 93.7313 86.9576 93.5181 85.9519C92.9919 83.5902 91.677 81.4781 89.7899 79.9637C87.9029 78.4492 85.5563 77.6226 83.1366 77.62L83.0035 77.62C78.2387 77.62 73.3142 77.62 68.3896 77.62C65.84 77.7719 63.3334 76.9109 61.4153 75.2243C56.9803 71.8082 51.394 70.2435 45.8298 70.859C40.2656 71.4745 35.1563 74.2222 31.5752 78.5251C27.6621 83.0504 19.3835 93.4319 13.9266 100.3ZM33.545 81.6662C35.1866 79.5655 37.26 77.8417 39.625 76.611C41.99 75.3803 44.5915 74.6714 47.2539 74.5322C49.6818 74.3564 52.1197 74.6894 54.4116 75.5099C56.7035 76.3304 58.7988 77.6203 60.5635 79.2971C61.3359 80.0253 62.2493 80.5875 63.2473 80.9492C64.2454 81.3109 65.3069 81.4643 66.3665 81.4C71.3177 81.4 76.5084 81.4 82.205 81.4C83.2525 81.373 84.2992 81.4804 85.3194 81.7194C86.8723 82.1704 88.21 83.1671 89.0863 84.5262C89.9626 85.8852 90.3185 87.515 90.0884 89.1156C89.8584 90.7162 89.0579 92.1798 87.8343 93.237C86.6108 94.2943 85.0465 94.8739 83.4295 94.8693C78.5049 94.8693 73.5803 94.8693 68.6558 94.8693L58.2476 94.8693C57.5927 94.8349 56.9482 95.0434 56.4375 95.4549C56.2853 95.6193 56.167 95.812 56.0893 96.0221C56.0117 96.2322 55.9762 96.4556 55.985 96.6794C55.985 98.1701 57.1563 98.4629 58.1146 98.4629C65.1953 98.4629 72.276 98.4629 79.41 98.4629L83.669 98.4629C86.3423 98.4377 88.9046 97.3899 90.8296 95.5348C91.492 94.9627 92.3249 94.6258 93.1987 94.5765C96.3132 94.5765 99.4276 94.5765 102.462 94.5765L103.474 94.5765C104.26 94.5872 105.04 94.4341 105.764 94.1271C106.488 93.8201 107.141 93.3657 107.68 92.793L109.969 90.5304L110.262 90.2376L113.216 87.3094L116.996 83.423L117.156 83.2633C120.244 80.0956 123.731 76.502 124.689 75.597C125.551 74.6346 126.7 73.9752 127.965 73.7163C129.231 73.4575 130.546 73.6129 131.717 74.1595C132.788 74.6977 133.782 75.3782 134.672 76.1826C135.071 76.502 135.497 76.8481 135.949 77.1675L136.375 77.1941L136.109 77.5934L135.843 77.9927L135.577 78.3654L130.572 83.6892C124.37 90.4239 117.928 97.3715 111.593 104.159C110.777 104.941 109.78 105.508 108.691 105.81C97.6708 109.164 86.4907 112.518 76.8811 115.393L76.748 115.393C73.691 116.567 70.4398 117.154 67.1651 117.123C61.7081 116.724 56.1181 116.431 50.741 116.165L50.5281 116.165C47.4668 116.165 44.2725 115.872 41.1581 115.686C40.0425 115.573 38.9185 115.793 37.9283 116.319C36.938 116.845 36.1259 117.653 35.5947 118.64C32.9327 122.979 30.2708 127.371 27.4492 131.604L27.4492 131.737L24.5743 136.156C24.0419 137.008 23.6958 137.513 23.1635 137.567C22.6843 137.567 22.2584 137.194 21.6461 136.582L18.3986 133.334L16.4288 131.364C12.9949 127.93 9.08186 123.991 5.22207 120.184C4.99275 120.023 4.80339 119.811 4.66853 119.565C4.53367 119.32 4.45688 119.046 4.44404 118.766C4.43119 118.486 4.48265 118.207 4.59444 117.95C4.70624 117.692 4.87537 117.464 5.08896 117.283C7.11203 114.834 9.21497 112.225 10.892 110.122L12.9417 107.46L13.2345 107.114L13.4741 106.821L18.1324 101.018C22.6577 95.2686 30.2708 85.8188 33.5184 81.746L33.545 81.6662Z" fill="white"/>
<path d="M97.5647 69.0221L97.8842 69.3682C98.0971 69.3682 98.2835 69.3682 98.4432 69.3682C98.7526 69.3212 99.0561 69.2409 99.3482 69.1286C100.44 68.6228 101.531 68.1437 102.622 67.6645C105.438 66.5115 108.177 65.1777 110.821 63.6716C112.944 62.2944 114.916 60.6973 116.704 58.9068L118.115 57.5758C118.301 57.4233 118.451 57.2327 118.557 57.0168C118.663 56.801 118.721 56.565 118.727 56.3247C118.713 56.0796 118.649 55.8398 118.539 55.6202C118.429 55.4005 118.276 55.2055 118.088 55.047C117.907 54.9029 117.698 54.7973 117.475 54.7365C117.252 54.6757 117.018 54.661 116.789 54.6934C116.56 54.7258 116.34 54.8045 116.142 54.9248C115.944 55.0451 115.773 55.2044 115.639 55.3931L115.08 55.8988C114.814 56.1916 114.548 56.5111 114.255 56.7773C109.802 60.8542 104.515 63.915 98.7626 65.7479C98.6295 65.7479 98.4698 65.7479 98.3101 65.7479C98.0524 65.7932 97.8073 65.8931 97.5914 66.0408C97.3784 66.3336 96.713 67.2386 96.7928 67.7976C96.9321 68.2693 97.1993 68.6931 97.5647 69.0221Z" fill="white"/>
</svg>
