<svg width="270" height="59" viewBox="0 0 270 59" fill="none" xmlns="http://www.w3.org/2000/svg">
<g clip-path="url(#clip0_34_399)">
<path d="M269.097 48.4072L267.056 58.9955H191.739L193.779 48.4072H269.097Z" fill="#E03638"/>
<path d="M205.737 50.8897H210.838V56.5144H209.914V54.5052H208.353L205.879 56.5144H204.619V56.3233L206.869 54.5052H205.747C205.451 54.5064 205.166 54.3917 204.951 54.185C204.747 53.9726 204.629 53.6908 204.619 53.3947V52.026C204.618 51.876 204.647 51.7274 204.704 51.5889C204.761 51.4505 204.845 51.3251 204.951 51.2203C205.053 51.1143 205.175 51.0303 205.31 50.9735C205.445 50.9167 205.59 50.8882 205.737 50.8897V50.8897ZM205.737 51.8246C205.711 51.8235 205.685 51.8291 205.662 51.8408C205.638 51.8525 205.619 51.8701 205.604 51.8917C205.584 51.9082 205.568 51.9287 205.557 51.9518C205.545 51.9749 205.539 52.0002 205.538 52.026V53.3638C205.538 53.392 205.544 53.42 205.555 53.4458C205.566 53.4716 205.583 53.4947 205.604 53.5135C205.621 53.5311 205.642 53.5448 205.665 53.5537C205.688 53.5626 205.712 53.5665 205.737 53.5652H209.904V51.8246H205.737Z" fill="white"/>
<path d="M244.445 54.5052H243.322C243.026 54.5064 242.741 54.3916 242.527 54.1849C242.323 53.9726 242.204 53.6907 242.195 53.3947V50.8896H243.123V53.3637C243.123 53.392 243.129 53.4199 243.141 53.4457C243.152 53.4715 243.169 53.4946 243.19 53.5135C243.207 53.5311 243.228 53.5448 243.251 53.5537C243.273 53.5626 243.298 53.5665 243.322 53.5651H247.49V50.8896H248.413V56.5144H247.49V54.5052H244.429H244.445Z" fill="white"/>
<path d="M219.842 51.5206C219.858 51.6126 219.867 51.7059 219.867 51.7995V56.4893H218.939V51.9493L216.837 55.978C216.633 56.3447 216.394 56.4945 216.108 56.4945C215.822 56.4945 215.562 56.3757 215.368 55.978L213.262 51.9493V56.4893H212.338V51.7995C212.335 51.6997 212.348 51.6 212.379 51.5051V51.5051C212.412 51.3688 212.481 51.244 212.578 51.1435C212.754 50.9708 212.991 50.8744 213.236 50.875C213.396 50.8704 213.553 50.9175 213.685 51.0092V51.0092C213.815 51.0983 213.92 51.2191 213.991 51.3605L216.093 55.3789L218.194 51.3605C218.268 51.215 218.377 51.0907 218.511 50.9989C218.639 50.9089 218.793 50.8619 218.949 50.8646C219.072 50.8611 219.194 50.8831 219.308 50.9293C219.422 50.9755 219.526 51.0449 219.612 51.1332C219.71 51.2347 219.782 51.3588 219.821 51.4948L219.842 51.5206Z" fill="white"/>
<path d="M226.984 51.3303C227.119 51.4645 227.227 51.6253 227.3 51.8028C227.373 51.9804 227.409 52.1711 227.407 52.3633V55.0388C227.41 55.2325 227.372 55.4246 227.296 55.6026C227.221 55.7806 227.109 55.9405 226.968 56.0718C226.836 56.2099 226.677 56.3192 226.502 56.393C226.326 56.4667 226.138 56.5033 225.948 56.5005H222.643C222.26 56.4974 221.894 56.3436 221.622 56.0718C221.486 55.9381 221.378 55.7775 221.305 55.5998C221.232 55.4221 221.196 55.2312 221.199 55.0388V52.3633C221.197 52.1711 221.233 51.9804 221.306 51.8028C221.379 51.6253 221.486 51.4645 221.622 51.3303C221.893 51.0566 222.26 50.9025 222.643 50.9016H225.948C226.14 50.8979 226.331 50.9341 226.509 51.0078C226.688 51.0815 226.849 51.1913 226.984 51.3303V51.3303ZM226.32 51.9863C226.272 51.9353 226.215 51.8948 226.151 51.8672C226.087 51.8397 226.018 51.8257 225.948 51.8262H222.643C222.575 51.8251 222.507 51.8378 222.444 51.8635C222.381 51.8892 222.324 51.9275 222.275 51.9759C222.223 52.0253 222.181 52.0853 222.153 52.152C222.125 52.2188 222.111 52.2908 222.112 52.3633V55.0388C222.11 55.1085 222.122 55.1778 222.148 55.2426C222.173 55.3074 222.211 55.3664 222.26 55.4158C222.309 55.4681 222.369 55.5094 222.434 55.537C222.5 55.5645 222.571 55.5778 222.643 55.576H225.948C226.085 55.5746 226.217 55.5233 226.32 55.4313C226.373 55.381 226.414 55.3199 226.441 55.2523C226.468 55.1846 226.481 55.1118 226.479 55.0388V52.3633C226.479 52.2929 226.465 52.2231 226.438 52.1582C226.411 52.0934 226.371 52.0349 226.32 51.9863V51.9863Z" fill="white"/>
<path d="M240.838 50.8896H239.909V53.5651H235.742C235.718 53.5664 235.694 53.5625 235.672 53.5535C235.65 53.5446 235.631 53.531 235.614 53.5135C235.594 53.4946 235.577 53.4715 235.565 53.4457C235.554 53.4199 235.548 53.392 235.548 53.3637V50.8896H234.62V53.3947C234.621 53.5423 234.651 53.6882 234.708 53.824C234.765 53.9598 234.849 54.0829 234.953 54.186C235.057 54.2892 235.181 54.3705 235.316 54.4253C235.451 54.4801 235.596 54.5072 235.742 54.5052H239.909V55.0217C239.911 55.0938 239.898 55.1656 239.871 55.2323C239.844 55.299 239.803 55.3592 239.751 55.409C239.65 55.501 239.52 55.5525 239.384 55.5537H234.62V56.4937H239.384C239.574 56.4965 239.762 56.4599 239.938 56.3861C240.113 56.3124 240.272 56.2031 240.404 56.065C240.541 55.9377 240.651 55.7829 240.726 55.6103C240.8 55.4378 240.838 55.2514 240.838 55.063V55.063V50.8896Z" fill="white"/>
<path d="M229.57 53.8339V56.5146H228.647V52.3206C228.646 52.1322 228.685 51.9459 228.759 51.7734C228.834 51.6009 228.943 51.446 229.08 51.3186C229.212 51.1799 229.371 51.0703 229.546 50.9966C229.722 50.9228 229.91 50.8865 230.1 50.8899H233.641V51.8247H230.1C229.964 51.8273 229.833 51.8806 229.733 51.9745C229.681 52.0239 229.639 52.0839 229.611 52.1506C229.583 52.2173 229.569 52.2893 229.57 52.3619V53.8339V53.8339Z" fill="white"/>
<path d="M258.431 50.8908V55.5754L262.782 51.1594C262.957 50.9908 263.188 50.895 263.43 50.8908C263.554 50.8859 263.677 50.9084 263.792 50.9565C263.906 51.0047 264.009 51.0774 264.093 51.1697C264.181 51.2544 264.25 51.3562 264.297 51.469C264.345 51.5818 264.369 51.7031 264.369 51.8256V56.5155H263.461V51.8256L259.074 56.2262C258.989 56.3127 258.888 56.381 258.777 56.4271C258.665 56.4732 258.546 56.4963 258.426 56.4948C258.179 56.494 257.942 56.398 257.763 56.2262C257.674 56.1392 257.604 56.0347 257.557 55.9193C257.509 55.8038 257.486 55.6798 257.487 55.5548V50.8701L258.431 50.8908Z" fill="white"/>
<path d="M250.367 50.8908V55.5754L254.718 51.1594C254.893 50.9908 255.124 50.895 255.366 50.8908C255.49 50.8859 255.613 50.9084 255.728 50.9565C255.842 51.0047 255.945 51.0774 256.029 51.1697C256.116 51.2544 256.186 51.3562 256.233 51.469C256.281 51.5818 256.305 51.7031 256.305 51.8256V56.5155H255.381V51.8256L251.03 56.2262C250.946 56.3131 250.845 56.3818 250.733 56.4279C250.622 56.4741 250.502 56.4969 250.382 56.4948C250.136 56.493 249.899 56.3971 249.719 56.2262C249.63 56.1392 249.56 56.0347 249.513 55.9193C249.466 55.8038 249.442 55.6798 249.444 55.5548V50.8701L250.367 50.8908Z" fill="white"/>
<path d="M261.91 50.3424L262.476 49.7691L261.874 49.1699L261.293 49.7226C261.251 49.7667 261.2 49.8018 261.145 49.8259C261.105 49.8392 261.064 49.8496 261.022 49.8569C260.997 49.8593 260.971 49.8593 260.946 49.8569C260.919 49.8593 260.891 49.8593 260.864 49.8569C260.824 49.8496 260.785 49.8392 260.747 49.8259C260.69 49.8019 260.638 49.7668 260.594 49.7226L260.084 49.1699L259.461 49.831L259.972 50.3475C259.983 50.3607 259.997 50.3712 260.012 50.3785C260.061 50.4259 260.114 50.4691 260.17 50.5077C260.218 50.5383 260.267 50.5659 260.318 50.5903C260.339 50.6027 260.362 50.6131 260.385 50.6213C260.534 50.6835 260.693 50.7168 260.854 50.7194H260.971C261.128 50.7168 261.282 50.6835 261.425 50.6213C261.447 50.6131 261.467 50.6027 261.487 50.5903C261.539 50.5659 261.59 50.5383 261.64 50.5077C261.696 50.4691 261.749 50.4259 261.798 50.3785L261.839 50.3475L261.91 50.3424Z" fill="white"/>
<path d="M196.06 54.4393H197.55L197.881 52.9621H196.397L196.611 52.0272H198.096L198.356 50.8857H199.468L199.208 52.0272H200.82L201.075 50.8857H202.187L201.932 52.0272H203.416L203.202 52.9621H201.717L201.381 54.4393H202.865L202.656 55.3793H201.166L200.911 56.5156H199.799L200.054 55.3793H198.448L198.187 56.5156H197.075L197.335 55.3793H195.851L196.06 54.4393ZM200.605 52.9621H198.993L198.662 54.4393H200.269L200.605 52.9621Z" fill="white"/>
<path d="M38.8142 14.0848C39.0988 14.3726 39.3246 14.7144 39.4786 15.0906C39.6326 15.4668 39.7119 15.8701 39.7119 16.2774C39.7119 16.6846 39.6326 17.0879 39.4786 17.4641C39.3246 17.8403 39.0988 18.1821 38.8142 18.4699L29.1528 28.2473V42.0534C29.1204 42.8608 28.7808 43.6243 28.2051 44.184C27.6294 44.7437 26.8622 45.0563 26.0641 45.0563C25.266 45.0563 24.4988 44.7437 23.9231 44.184C23.3474 43.6243 23.0078 42.8608 22.9754 42.0534V28.1698L13.3853 18.4699C12.811 17.8877 12.4887 17.0984 12.4891 16.2755C12.4896 15.4527 12.8129 14.6637 13.3879 14.0822C13.9629 13.5007 14.7424 13.1743 15.5551 13.1748C16.3678 13.1753 17.147 13.5026 17.7213 14.0848L25.7912 22.2559H26.4135L34.4834 14.0848C34.7677 13.7967 35.1052 13.5681 35.4768 13.4121C35.8483 13.2562 36.2466 13.1759 36.6488 13.1759C37.051 13.1759 37.4493 13.2562 37.8209 13.4121C38.1924 13.5681 38.53 13.7967 38.8142 14.0848" fill="white"/>
<path d="M25.9798 5.07205e-07C31.1194 -0.00102108 36.1438 1.5412 40.4177 4.43163C44.6915 7.32205 48.0229 11.4308 49.9904 16.2384C51.9579 21.0459 52.4732 26.3363 51.4712 31.4404C50.4691 36.5445 47.9947 41.2331 44.3609 44.9132C40.727 48.5933 36.0969 51.0997 31.0562 52.1153C26.0155 53.1309 20.7905 52.6102 16.0421 50.6189C11.2937 48.6277 7.23509 45.2554 4.3796 40.9285C1.52412 36.6017 9.90324e-08 31.5146 0 26.3106C-1.32776e-07 19.3335 2.73699 12.6421 7.60901 7.70802C12.481 2.77398 19.0891 0.00137018 25.9798 5.07205e-07V5.07205e-07ZM38.8142 18.4701C39.3885 17.8886 39.7111 17.0999 39.7111 16.2776C39.7111 15.4552 39.3885 14.6665 38.8142 14.085C38.2399 13.5035 37.4609 13.1768 36.6487 13.1768C35.8366 13.1768 35.0576 13.5035 34.4833 14.085L26.4134 22.2561H25.7911L17.7212 14.085C17.1469 13.5028 16.3677 13.1755 15.555 13.175C14.7423 13.1745 13.9628 13.5009 13.3878 14.0824C12.8128 14.6639 12.4895 15.4529 12.4891 16.2757C12.4886 17.0986 12.8109 17.8879 13.3852 18.4701L22.9753 28.17V42.0536C23.0077 42.861 23.3473 43.6245 23.923 44.1842C24.4987 44.7439 25.2659 45.0565 26.064 45.0565C26.8621 45.0565 27.6293 44.7439 28.205 44.1842C28.7807 43.6245 29.1203 42.861 29.1527 42.0536V28.2475L38.8142 18.4701Z" fill="#E03638"/>
<path d="M99.4093 10.2568H87.7788L83.6674 41.1385H91.9821L92.4004 35.5189H95.206L95.6141 41.1178H104.016L99.4093 10.2568ZM95.1754 29.8839H92.4004L93.6043 17.116C93.6043 17.116 95.2825 29.8116 95.1754 29.8839" fill="white"/>
<path d="M186.032 35.4835C186.183 36.5738 186.614 37.6049 187.282 38.474C188.113 39.5222 189.209 40.322 190.454 40.788C192.013 41.4083 193.677 41.7103 195.351 41.6764C196.838 41.701 198.315 41.4434 199.708 40.9171C200.869 40.4696 201.889 39.713 202.661 38.7271C203.426 37.7561 203.87 35.9225 204.023 35.0032C204.228 33.5512 204.308 32.084 204.263 30.6181V10.2266H196.203V33.1851C196.262 34.1311 196.186 35.0808 195.979 36.0052C195.905 36.1986 195.769 36.3618 195.594 36.4692C195.419 36.5766 195.213 36.6223 195.01 36.5991C194.825 36.6198 194.638 36.581 194.476 36.4883C194.314 36.3956 194.185 36.2537 194.107 36.0826C193.921 35.2618 193.85 34.4184 193.898 33.5776V10.2369H185.838V28.3145C185.838 31.6975 185.899 34.435 186.022 35.4732" fill="white"/>
<path d="M266.593 10.2207H258.544V41.123H266.593V10.2207Z" fill="white"/>
<path d="M242.459 27.9477H244.872V41.1185H252.917V10.2266H244.872V21.2281H242.459V10.2266H234.41V41.1185H242.459V27.9477Z" fill="white"/>
<path d="M213.675 40.4571C215.491 41.3378 217.492 41.7579 219.505 41.6812C221.511 41.7458 223.496 41.247 225.239 40.2402C226.582 39.502 227.638 38.3237 228.233 36.8984C228.687 35.633 228.912 32.5753 228.912 29.5435V28.3348H220.852V32.9834C220.911 34.0142 220.818 35.0483 220.576 36.0514C220.446 36.2517 220.269 36.4162 220.061 36.53C219.853 36.6438 219.619 36.7034 219.383 36.7034C219.146 36.7034 218.913 36.6438 218.705 36.53C218.496 36.4162 218.319 36.2517 218.189 36.0514C218.005 35.6227 217.949 34.693 217.949 33.2674V18.7692C217.949 17.2817 218.005 15.7993 218.189 15.3448C218.373 14.8903 218.75 14.694 219.408 14.694C220.066 14.694 220.428 14.8696 220.587 15.2105C220.745 15.5514 220.852 17.0235 220.852 18.4955V23.6037H228.896V20.8301C228.896 18.0874 228.646 15.5669 228.167 14.2757C227.579 12.8567 226.502 11.7022 225.137 11.0269C223.369 10.1033 221.396 9.66014 219.408 9.74078C217.777 9.70801 216.155 9.99023 214.629 10.5723C213.388 11.0469 212.295 11.8473 211.461 12.8914C210.751 13.7685 210.283 14.8197 210.104 15.9388C209.916 17.6847 209.836 19.4408 209.864 21.1968V29.7397C209.864 32.6166 210.124 35.6537 210.624 37.0895C211.169 38.5749 212.268 39.7843 213.685 40.4571" fill="white"/>
<path d="M115.178 41.103L115.173 20.7735L118.024 41.0979H122.881L125.911 20.851V41.0979H132.991L132.95 10.2266H122.529L120.544 24.6163L118.56 10.2266H108.139L108.144 41.0979L115.178 41.103Z" fill="white"/>
<path d="M69.1711 41.1284H76.6085V29.8894L82.4952 10.252H75.0935L73.0327 22.3846L70.9004 10.252H63.514L69.1711 29.8894V41.1284Z" fill="white"/>
<path d="M146.013 35.5095H148.819L149.222 41.1083H157.623L153.032 10.2422H141.392L137.28 41.1238H145.595L146.013 35.5095ZM147.212 17.122C147.212 17.122 148.89 29.8228 148.788 29.8848H146.013L147.212 17.122Z" fill="white"/>
<path d="M162.797 38.3133C163.439 39.3311 164.33 40.1637 165.383 40.7305C166.55 41.3505 167.85 41.6681 169.168 41.6551C170.305 41.6551 171.509 41.4846 172.279 40.9216C173.196 40.338 173.929 39.5034 174.396 38.5147L175.136 41.0973H180.237V24.7448H170.928V28.851H172.356V33.0812C172.416 34.0195 172.307 34.9611 172.035 35.8599C171.934 36.0911 171.764 36.2842 171.549 36.4113C171.334 36.5385 171.084 36.5932 170.836 36.5675C170.612 36.5919 170.387 36.5448 170.191 36.4327C169.995 36.3206 169.839 36.1492 169.744 35.9426C169.525 35.0884 169.437 34.2051 169.484 33.3239V18.2369C169.484 16.7287 169.581 15.7783 169.744 15.422C169.872 15.2348 170.046 15.0855 170.25 14.9893C170.453 14.8931 170.679 14.8534 170.902 14.8745C171.479 14.8745 171.922 14.9933 172.106 15.422C172.274 16.0622 172.358 16.7221 172.356 17.3847C172.356 17.7255 172.356 18.2575 172.356 18.6759V21.1603H180.242V20.4888C180.242 18.0716 179.987 15.8403 179.508 14.5439C179.028 13.2475 178.013 12.1732 176.447 11.2331C174.648 10.2132 172.612 9.69793 170.55 9.74043C168.457 9.68815 166.399 10.2925 164.658 11.4707C163.128 12.5347 162.215 13.7123 161.899 14.9881C161.508 17.1495 161.337 19.3458 161.389 21.5425V30.4883C161.356 32.1274 161.434 33.7668 161.623 35.3951C161.785 36.4436 162.179 37.4413 162.776 38.3133" fill="white"/>
</g>
<defs>
<clipPath id="clip0_34_399">
<rect width="269.098" height="59" fill="white"/>
</clipPath>
</defs>
</svg>
