<svg width="630" height="261" viewBox="0 0 630 261" fill="none" xmlns="http://www.w3.org/2000/svg">
<path d="M11.3333 54C11.3333 51.0545 8.9455 48.6667 6 48.6667C3.0545 48.6667 0.666687 51.0545 0.666687 54C0.666687 56.9455 3.0545 59.3333 6 59.3333C8.9455 59.3333 11.3333 56.9455 11.3333 54ZM79.5 1V0H79.1771L78.9151 0.188885L79.5 1ZM630 0H79.5V2H630V0ZM78.9151 0.188885L5.4151 53.1889L6.5849 54.8111L80.0849 1.81112L78.9151 0.188885Z" fill="white"/>
<path d="M26.8333 176C26.8333 173.054 24.4455 170.667 21.5 170.667C18.5545 170.667 16.1667 173.054 16.1667 176C16.1667 178.946 18.5545 181.333 21.5 181.333C24.4455 181.333 26.8333 178.946 26.8333 176ZM79.5 147V146H79.2639L79.0528 146.106L79.5 147ZM630 146H79.5V148H630V146ZM79.0528 146.106L21.0528 175.106L21.9472 176.894L79.9472 147.894L79.0528 146.106Z" fill="white"/>
<path d="M25.3333 255.5C25.3333 252.554 22.9455 250.167 20 250.167C17.0545 250.167 14.6667 252.554 14.6667 255.5C14.6667 258.446 17.0545 260.833 20 260.833C22.9455 260.833 25.3333 258.446 25.3333 255.5ZM79.5 212V211H79.1735L78.9098 211.193L79.5 212ZM630 211H79.5V213H630V211ZM78.9098 211.193L19.4098 254.693L20.5902 256.307L80.0902 212.807L78.9098 211.193Z" fill="white"/>
</svg>
