<svg width="217" height="219" viewBox="0 0 217 219" fill="none" xmlns="http://www.w3.org/2000/svg">
<path d="M6.16667 215.5C6.16667 214.027 4.97276 212.833 3.5 212.833C2.02724 212.833 0.833333 214.027 0.833333 215.5C0.833333 216.973 2.02724 218.167 3.5 218.167C4.97276 218.167 6.16667 216.973 6.16667 215.5ZM51.5 115.274V114.774H51.1851L51.049 115.058L51.5 115.274ZM217 114.774H51.5V115.774H217V114.774ZM51.049 115.058L3.04905 215.284L3.95095 215.716L51.951 115.49L51.049 115.058Z" fill="white"/>
<path d="M6.66667 180C6.66667 178.527 5.47276 177.333 4 177.333C2.52724 177.333 1.33333 178.527 1.33333 180C1.33333 181.473 2.52724 182.667 4 182.667C5.47276 182.667 6.66667 181.473 6.66667 180ZM67.5 55V54.5H67.1932L67.0542 54.7735L67.5 55ZM217 54.5H67.5V55.5H217V54.5ZM67.0542 54.7735L3.55422 179.774L4.44578 180.226L67.9458 55.2265L67.0542 54.7735Z" fill="white"/>
<path d="M6.16667 103.5C6.16667 102.027 4.97276 100.833 3.5 100.833C2.02724 100.833 0.833333 102.027 0.833333 103.5C0.833333 104.973 2.02724 106.167 3.5 106.167C4.97276 106.167 6.16667 104.973 6.16667 103.5ZM54.5 1V0.5H54.1903L54.0524 0.777267L54.5 1ZM217 0.5H54.5V1.5H217V0.5ZM54.0524 0.777267L3.05235 103.277L3.94765 103.723L54.9476 1.22273L54.0524 0.777267Z" fill="white"/>
</svg>
