<svg width="196" height="227" viewBox="0 0 196 227" fill="#000000" xmlns="http://www.w3.org/2000/svg">
<path d="M101.858 15.0933C110.653 15.6742 119.156 18.504 126.548 23.3151C134.073 28.2122 140.186 34.9917 144.281 42.9809C148.376 50.9702 150.311 59.8914 149.894 68.8594C149.477 77.8274 146.722 86.5304 141.902 94.1049C137.083 101.679 130.366 107.862 122.419 112.039C114.473 116.216 105.572 118.243 96.6 117.917C87.6282 117.592 78.8974 114.927 71.2738 110.185C63.6503 105.444 57.3991 98.7913 53.1406 90.8879L53.1325 90.8729L53.1254 90.8573L50.5163 85.1044L50.5106 85.0918L50.5056 85.079C49.4359 82.3273 48.6118 79.4864 48.043 76.5894L48.0404 76.5762L48.0385 76.563L47.2258 70.8101L47.2255 70.8077C47.0284 69.3626 47.0284 67.9439 47.0284 66.4799L47.0284 66.4629C47.0284 65.7078 47.0722 64.9714 47.1149 64.2621L47.1164 64.2375C47.1588 63.5321 47.1995 62.8551 47.1995 62.1856L47.1995 62.1497L47.2047 62.1141L48.0387 56.3398L48.0402 56.3295L48.0422 56.3192C48.5851 53.423 49.4032 50.5851 50.4852 47.8443L50.4895 47.8334L50.4943 47.8228L53.082 42.0699L53.0894 42.0533L53.0981 42.0373C57.296 34.268 63.4096 27.7001 70.8587 22.9571C78.3078 18.214 86.8453 15.453 95.6611 14.936L95.6757 14.9352L95.6904 14.9352L96.5591 14.9352L96.5591 4.42938L89.6808 4.42938L89.6655 4.42938L89.6502 4.42844C89.1535 4.398 88.6836 4.19246 88.3241 3.84834C87.9646 3.50422 87.7387 3.0438 87.6865 2.54888L87.6837 2.52173L87.6838 2.49442C87.6858 2.0098 87.8621 1.54205 88.1805 1.17667C88.4989 0.811287 88.9381 0.572686 89.4179 0.504433L89.453 0.499451L89.4883 0.499451L107.259 0.499451L107.26 0.499451L107.26 0.999451C107.453 0.998986 107.644 1.03867 107.821 1.116L101.858 15.0933ZM101.858 15.0933L101.858 15.0207L101.358 15.0207L100.489 15.0207M101.858 15.0933L100.489 15.0207M100.489 15.0207L100.489 4.42938L107.218 4.42938L107.236 4.42938L107.254 4.42808C107.763 4.39136 108.243 4.17605 108.609 3.8201C108.975 3.46415 109.204 2.99039 109.255 2.48232L109.258 2.44663L109.257 2.41081C109.246 2.15621 109.184 1.90649 109.074 1.67665C108.968 1.45476 108.819 1.25577 108.637 1.09081L100.489 15.0207ZM136.49 37.7548C142.69 45.9809 146.051 55.997 146.068 66.2965L146.047 66.3599L146.047 66.4404C146.025 76.7494 142.653 86.772 136.441 94.9985C130.228 103.225 121.51 109.21 111.6 112.051C101.69 114.893 91.1258 114.437 81.4976 110.753C71.875 107.071 63.7086 100.364 58.227 91.6407L55.0996 85.7475C53.8144 82.8775 52.8112 79.8894 52.1043 76.8253L51.1685 70.9338C50.8842 67.9385 50.8842 64.923 51.1685 61.9278L52.1042 56.0368C52.8176 52.9716 53.8063 49.9771 55.0583 47.0897L58.1847 41.1772C63.6544 32.4241 71.8235 25.688 81.4588 21.9863C91.0997 18.2825 101.684 17.8178 111.613 20.6627C121.541 23.5076 130.273 29.5072 136.49 37.7548Z" fill="white" stroke="white"/>
<path d="M101.923 66.4421C101.923 64.5479 100.387 63.0122 98.4929 63.0122C96.5986 63.0122 95.063 64.5478 95.063 66.4421C95.063 68.3364 96.5986 69.8721 98.4929 69.8721C100.387 69.8721 101.923 68.3364 101.923 66.4421Z" fill="white" stroke="white"/>
<path d="M29.6073 46.5166L73.385 46.5166C73.9498 46.5166 74.4269 46.3819 74.7682 46.0822C75.1183 45.7747 75.2537 45.357 75.2537 44.9473C75.2537 44.5375 75.1183 44.1198 74.7682 43.8124C74.4269 43.5127 73.9498 43.378 73.385 43.378L29.6073 43.378C29.0425 43.378 28.5653 43.5127 28.2241 43.8124C27.8739 44.1198 27.7385 44.5375 27.7385 44.9473C27.7385 45.3571 27.8739 45.7747 28.2241 46.0822C28.5653 46.3819 29.0425 46.5166 29.6073 46.5166Z" fill="white" stroke="white"/>
<path d="M16.3901 46.5166L21.2234 46.5166C21.7882 46.5166 22.2653 46.3819 22.6066 46.0822C22.9568 45.7747 23.0921 45.357 23.0921 44.9473C23.0921 44.5375 22.9568 44.1198 22.6066 43.8124C22.2653 43.5127 21.7882 43.378 21.2234 43.378L16.3901 43.378C15.8171 43.378 15.335 43.5115 14.9905 43.8104C14.6357 44.1181 14.5 44.5371 14.5 44.9473C14.5 45.3575 14.6357 45.7764 14.9905 46.0842C15.335 46.383 15.8171 46.5166 16.3901 46.5166Z" fill="white" stroke="white"/>
<path d="M29.1155 60.7393L74.155 60.7393C74.7286 60.7393 75.2153 60.6055 75.5671 60.3144C75.9307 60.0135 76.0879 59.5959 76.0879 59.1699C76.0879 58.7678 75.9626 58.3481 75.6126 58.037C75.2718 57.7341 74.7918 57.6006 74.2191 57.6006L29.1155 57.6006C28.537 57.6006 28.0557 57.7421 27.7133 58.0433C27.3633 58.3511 27.2253 58.7667 27.2253 59.1699C27.2253 59.5732 27.3633 59.9888 27.7133 60.2966C28.0557 60.5977 28.537 60.7393 29.1155 60.7393Z" fill="white" stroke="white"/>
<path d="M43.2729 75.7529L73.3847 75.7529C73.9495 75.7529 74.4266 75.6182 74.7679 75.3185C75.1181 75.0111 75.2534 74.5934 75.2534 74.1836C75.2534 73.7739 75.1181 73.3562 74.7679 73.0487C74.4266 72.749 73.9495 72.6143 73.3847 72.6143L43.2729 72.6143C42.7084 72.6143 42.2333 72.749 41.8958 73.0528C41.5504 73.3636 41.4255 73.7819 41.4255 74.1836C41.4255 74.5853 41.5504 75.0037 41.8958 75.3145C42.2333 75.6183 42.7084 75.7529 43.2729 75.7529Z" fill="white" stroke="white"/>
<path d="M32.5155 75.7529L36.0442 75.7529C36.6087 75.7529 37.0837 75.6183 37.4213 75.3145C37.7666 75.0037 37.8916 74.5853 37.8916 74.1836C37.8916 73.7819 37.7666 73.3636 37.4213 73.0528C37.0837 72.749 36.6087 72.6143 36.0442 72.6143L32.5155 72.6143C31.951 72.6143 31.476 72.749 31.1384 73.0528C30.7931 73.3636 30.6682 73.7819 30.6682 74.1836C30.6682 74.5853 30.7931 75.0037 31.1384 75.3145C31.476 75.6183 31.951 75.7529 32.5155 75.7529Z" fill="white" stroke="white"/>
<path d="M43.7004 90.252L65.0866 90.252C65.6589 90.252 66.1369 90.1186 66.474 89.8114C66.819 89.497 66.934 89.0765 66.934 88.6826C66.934 88.2896 66.8197 87.8669 66.4791 87.5478C66.1432 87.2333 65.6643 87.0919 65.0866 87.0919L43.7004 87.0919C43.1249 87.0919 42.6498 87.2429 42.3158 87.556C41.9792 87.8716 41.853 88.2889 41.853 88.6826C41.853 89.0774 41.9801 89.4923 42.3208 89.8032C42.6561 90.1092 43.1302 90.252 43.7004 90.252Z" fill="white" stroke="white"/>
<path d="M73.4709 90.252L77.7482 90.252C78.3208 90.252 78.8008 90.1185 79.1417 89.8156C79.4917 89.5044 79.6169 89.0847 79.6169 88.6826C79.6169 88.2815 79.4925 87.8595 79.1467 87.5436C78.8071 87.2333 78.3261 87.0919 77.7482 87.0919L73.4709 87.0919C72.8873 87.0919 72.4049 87.2414 72.0637 87.5498C71.7177 87.8624 71.5808 88.2807 71.5808 88.6826C71.5808 89.0859 71.7187 89.5015 72.0687 89.8093C72.4111 90.1104 72.8924 90.252 73.4709 90.252Z" fill="white" stroke="white"/>
<path d="M96.8593 68.0588L96.8755 68.0767L96.8933 68.0931C97.0876 68.2709 97.3282 68.3903 97.5873 68.4374C97.8325 68.482 98.0849 68.4602 98.3185 68.3746C98.7904 68.2618 99.2278 68.0354 99.5926 67.715L99.5989 67.7095L99.6049 67.7038L122.381 46.3175L122.381 46.3176L122.387 46.312C122.776 45.9348 123.032 45.5385 123.041 45.0894C123.051 44.6459 122.814 44.2951 122.596 44.0306C122.357 43.7419 122.016 43.4515 121.555 43.41C121.084 43.3676 120.644 43.5958 120.24 43.9872L97.4661 65.3708L97.466 65.3709C97.0572 65.7549 96.7628 66.2204 96.6303 66.6793C96.5019 67.1235 96.5036 67.6635 96.8593 68.0588Z" fill="white" stroke="white"/>
<path d="M60.6071 195V181.638L61.0145 182.045H55.5963V180.742H67.1048V182.045H61.707L62.094 181.638V195H60.6071ZM75.4478 195V192.637L75.3867 192.25V188.299C75.3867 187.389 75.1287 186.689 74.6127 186.201C74.1103 185.712 73.3566 185.467 72.3517 185.467C71.6592 185.467 71.0006 185.583 70.3759 185.814C69.7513 186.044 69.2217 186.35 68.7872 186.73L68.1353 185.651C68.6785 185.189 69.3303 184.836 70.0908 184.591C70.8512 184.333 71.6524 184.204 72.4943 184.204C73.8794 184.204 74.9454 184.551 75.6923 185.243C76.4527 185.922 76.8329 186.961 76.8329 188.36V195H75.4478ZM71.761 195.102C70.9599 195.102 70.2605 194.973 69.663 194.715C69.0791 194.443 68.631 194.077 68.3187 193.615C68.0063 193.14 67.8502 192.596 67.8502 191.985C67.8502 191.429 67.9792 190.926 68.2372 190.478C68.5088 190.016 68.9433 189.65 69.5408 189.378C70.1519 189.093 70.9666 188.95 71.9851 188.95H75.6719V190.03H72.0258C70.9938 190.03 70.2741 190.213 69.8667 190.58C69.4729 190.947 69.276 191.401 69.276 191.945C69.276 192.556 69.5137 193.045 69.9889 193.411C70.4642 193.778 71.1296 193.961 71.9851 193.961C72.7999 193.961 73.4992 193.778 74.0831 193.411C74.6806 193.031 75.1151 192.488 75.3867 191.782L75.7126 192.78C75.441 193.486 74.9658 194.049 74.2868 194.47C73.6214 194.891 72.7795 195.102 71.761 195.102ZM80.6828 195V184.306H82.129V192.8L89.2786 184.306H90.5618V195H89.1156V186.486L81.9864 195H80.6828ZM85.5307 182.758C84.6344 182.758 83.9079 182.534 83.3512 182.086C82.808 181.624 82.5228 180.966 82.4957 180.11H83.5345C83.5481 180.653 83.7382 181.081 84.1048 181.393C84.4715 181.706 84.9467 181.862 85.5307 181.862C86.1146 181.862 86.5898 181.706 86.9565 181.393C87.3367 181.081 87.5336 180.653 87.5472 180.11H88.586C88.5724 180.966 88.2873 181.624 87.7305 182.086C87.1738 182.534 86.4405 182.758 85.5307 182.758ZM94.7064 195V184.306H96.173L101.021 192.515H100.41L105.339 184.306H106.683V195H105.359V185.956L105.624 186.078L101.021 193.696H100.369L95.7249 185.997L96.0304 185.936V195H94.7064ZM115.382 195.102C114.268 195.102 113.291 194.871 112.449 194.409C111.607 193.934 110.948 193.289 110.473 192.474C109.998 191.646 109.76 190.702 109.76 189.643C109.76 188.584 109.984 187.647 110.432 186.832C110.894 186.017 111.518 185.379 112.306 184.917C113.107 184.442 114.003 184.204 114.995 184.204C116 184.204 116.889 184.435 117.663 184.897C118.451 185.345 119.069 185.983 119.517 186.812C119.965 187.626 120.189 188.57 120.189 189.643C120.189 189.711 120.182 189.786 120.169 189.867C120.169 189.935 120.169 190.01 120.169 190.091H110.86V189.012H119.394L118.824 189.439C118.824 188.665 118.654 187.979 118.315 187.382C117.989 186.771 117.541 186.296 116.971 185.956C116.4 185.617 115.742 185.447 114.995 185.447C114.261 185.447 113.603 185.617 113.019 185.956C112.435 186.296 111.98 186.771 111.654 187.382C111.328 187.993 111.165 188.692 111.165 189.48V189.704C111.165 190.519 111.342 191.239 111.695 191.863C112.062 192.474 112.564 192.956 113.202 193.309C113.854 193.649 114.594 193.819 115.423 193.819C116.074 193.819 116.679 193.703 117.235 193.472C117.806 193.241 118.295 192.888 118.702 192.413L119.517 193.35C119.041 193.92 118.444 194.355 117.724 194.654C117.018 194.952 116.237 195.102 115.382 195.102ZM128.91 195.102C127.987 195.102 127.152 194.891 126.405 194.47C125.658 194.036 125.06 193.418 124.612 192.617C124.178 191.802 123.96 190.811 123.96 189.643C123.96 188.475 124.178 187.491 124.612 186.689C125.047 185.875 125.638 185.257 126.384 184.836C127.131 184.415 127.973 184.204 128.91 184.204C129.929 184.204 130.838 184.435 131.64 184.897C132.454 185.345 133.093 185.983 133.554 186.812C134.016 187.626 134.247 188.57 134.247 189.643C134.247 190.729 134.016 191.68 133.554 192.495C133.093 193.309 132.454 193.948 131.64 194.409C130.838 194.871 129.929 195.102 128.91 195.102ZM123.39 198.952V184.306H124.775V187.525L124.633 189.663L124.836 191.822V198.952H123.39ZM128.808 193.819C129.569 193.819 130.248 193.649 130.845 193.309C131.443 192.956 131.918 192.467 132.271 191.843C132.624 191.205 132.801 190.471 132.801 189.643C132.801 188.815 132.624 188.088 132.271 187.463C131.918 186.839 131.443 186.35 130.845 185.997C130.248 185.644 129.569 185.467 128.808 185.467C128.048 185.467 127.362 185.644 126.751 185.997C126.154 186.35 125.678 186.839 125.325 187.463C124.986 188.088 124.816 188.815 124.816 189.643C124.816 190.471 124.986 191.205 125.325 191.843C125.678 192.467 126.154 192.956 126.751 193.309C127.362 193.649 128.048 193.819 128.808 193.819ZM56.0322 221V207.353L56.684 208.045H52.6713V206.742H57.4987V221H56.0322ZM66.59 221.122C65.4901 221.122 64.5124 220.837 63.6569 220.267C62.8014 219.683 62.1292 218.854 61.6403 217.782C61.1515 216.695 60.907 215.392 60.907 213.871C60.907 212.35 61.1515 211.053 61.6403 209.98C62.1292 208.894 62.8014 208.066 63.6569 207.495C64.5124 206.911 65.4901 206.619 66.59 206.619C67.6899 206.619 68.6676 206.911 69.5231 207.495C70.3786 208.066 71.0508 208.894 71.5397 209.98C72.0421 211.053 72.2933 212.35 72.2933 213.871C72.2933 215.392 72.0421 216.695 71.5397 217.782C71.0508 218.854 70.3786 219.683 69.5231 220.267C68.6676 220.837 67.6899 221.122 66.59 221.122ZM66.59 219.778C67.4319 219.778 68.1652 219.554 68.7899 219.106C69.4145 218.644 69.9034 217.979 70.2564 217.11C70.6095 216.227 70.786 215.147 70.786 213.871C70.786 212.594 70.6095 211.522 70.2564 210.653C69.9034 209.77 69.4145 209.104 68.7899 208.656C68.1652 208.195 67.4319 207.964 66.59 207.964C65.7752 207.964 65.0487 208.195 64.4105 208.656C63.7723 209.104 63.2766 209.77 62.9236 210.653C62.5705 211.522 62.394 212.594 62.394 213.871C62.394 215.147 62.5705 216.227 62.9236 217.11C63.2766 217.979 63.7723 218.644 64.4105 219.106C65.0487 219.554 65.7752 219.778 66.59 219.778ZM80.7226 221V210.306H82.1892L87.037 218.515H86.4259L91.3552 210.306H92.6996V221H91.3756V211.956L91.6404 212.078L87.037 219.696H86.3852L81.7411 211.997L82.0466 211.936V221H80.7226ZM96.8149 221V210.306H98.2611V218.8L105.411 210.306H106.694V221H105.248V212.486L98.1185 221H96.8149ZM110.839 221V210.306H112.285V215.032H119.027V210.306H120.473V221H119.027V216.274H112.285V221H110.839ZM124.767 225.053C124.265 225.053 123.782 224.972 123.321 224.809C122.873 224.646 122.486 224.402 122.16 224.076L122.832 222.996C123.103 223.254 123.395 223.451 123.708 223.587C124.034 223.736 124.394 223.811 124.787 223.811C125.263 223.811 125.67 223.675 126.009 223.404C126.363 223.146 126.695 222.684 127.008 222.018L127.7 220.45L127.863 220.226L132.263 210.306H133.689L128.332 222.283C128.033 222.976 127.7 223.526 127.333 223.933C126.98 224.341 126.593 224.626 126.172 224.789C125.751 224.965 125.283 225.053 124.767 225.053ZM127.619 221.306L122.689 210.306H124.197L128.556 220.124L127.619 221.306ZM137.979 221V211.182L138.345 211.569H133.925V210.306H143.478V211.569H139.058L139.425 211.182V221H137.979Z" fill="white"/>
</svg>
