<svg width="137" height="119" viewBox="0 0 137 119" fill="none" xmlns="http://www.w3.org/2000/svg">
<mask id="path-1-outside-1_40_1002" maskUnits="userSpaceOnUse" x="32.5284" y="-0.548828" width="104" height="119" fill="black">
<rect fill="white" x="32.5284" y="-0.548828" width="104" height="119"/>
<path d="M87.3577 15.5207L85.989 15.5207L85.989 3.92937L93.2176 3.92937C93.6094 3.90112 93.9787 3.73546 94.2604 3.4616C94.5421 3.18773 94.7181 2.82323 94.7574 2.43233C94.7493 2.2451 94.7035 2.06144 94.6226 1.89238C94.5418 1.72332 94.4276 1.57236 94.2869 1.44856C94.1563 1.30657 93.9976 1.19332 93.8209 1.116C93.6441 1.03868 93.4532 0.998984 93.2603 0.999448L75.4883 0.999448C75.1274 1.0508 74.7969 1.23029 74.5574 1.50516C74.3179 1.78002 74.1853 2.1319 74.1838 2.49648C74.2235 2.87379 74.3957 3.2248 74.6698 3.48713C74.9439 3.74947 75.3021 3.90617 75.6808 3.92937L83.0591 3.92937L83.0591 15.4352L81.6903 15.4352C72.9596 15.9471 64.5045 18.6815 57.1273 23.3788C49.75 28.0761 43.6954 34.5806 39.538 42.275L36.9502 48.0279C35.8799 50.7391 35.0707 53.5464 34.5336 56.4113L33.6995 62.1856C33.6995 63.5757 33.5284 64.9872 33.5284 66.4629C33.5284 67.9385 33.5284 69.3286 33.7209 70.7401L34.5336 76.493C35.0967 79.3611 35.9126 82.1737 36.9716 84.8978L39.5808 90.6507C43.7979 98.4774 49.9884 105.065 57.5379 109.761C65.0874 114.456 73.7334 117.096 82.6181 117.418C91.5028 117.74 100.317 115.733 108.187 111.596C116.056 107.46 122.708 101.337 127.48 93.8364C132.253 86.3356 134.981 77.7171 135.395 68.8362C135.808 59.9553 133.892 51.1207 129.836 43.209C125.781 35.2974 119.727 28.5837 112.275 23.7342C104.824 18.8847 96.2339 16.068 87.3577 15.5635L87.3577 15.5207ZM132.547 66.4415C132.525 76.8588 129.118 86.9868 122.84 95.2998C116.561 103.613 107.752 109.66 97.7379 112.532C87.7241 115.403 77.0483 114.943 67.3189 111.22C57.5894 107.497 49.3332 100.714 43.7939 91.8912L40.6501 85.9672C39.346 83.0576 38.3289 80.0278 37.6132 76.9208L36.6722 70.9968C36.383 67.9596 36.383 64.9019 36.6722 61.8648L37.6132 55.9408C38.3352 52.834 39.3373 49.7989 40.6073 46.873L43.7511 40.9276C49.2783 32.075 57.5373 25.2624 67.2795 21.5196C77.0217 17.7768 87.7176 17.3073 97.7503 20.1821C107.783 23.0568 116.607 29.1196 122.889 37.4539C129.17 45.7881 132.568 55.9409 132.568 66.3773L132.547 66.4415Z"/>
</mask>
<path d="M87.3577 15.5207L85.989 15.5207L85.989 3.92937L93.2176 3.92937C93.6094 3.90112 93.9787 3.73546 94.2604 3.4616C94.5421 3.18773 94.7181 2.82323 94.7574 2.43233C94.7493 2.2451 94.7035 2.06144 94.6226 1.89238C94.5418 1.72332 94.4276 1.57236 94.2869 1.44856C94.1563 1.30657 93.9976 1.19332 93.8209 1.116C93.6441 1.03868 93.4532 0.998984 93.2603 0.999448L75.4883 0.999448C75.1274 1.0508 74.7969 1.23029 74.5574 1.50516C74.3179 1.78002 74.1853 2.1319 74.1838 2.49648C74.2235 2.87379 74.3957 3.2248 74.6698 3.48713C74.9439 3.74947 75.3021 3.90617 75.6808 3.92937L83.0591 3.92937L83.0591 15.4352L81.6903 15.4352C72.9596 15.9471 64.5045 18.6815 57.1273 23.3788C49.75 28.0761 43.6954 34.5806 39.538 42.275L36.9502 48.0279C35.8799 50.7391 35.0707 53.5464 34.5336 56.4113L33.6995 62.1856C33.6995 63.5757 33.5284 64.9872 33.5284 66.4629C33.5284 67.9385 33.5284 69.3286 33.7209 70.7401L34.5336 76.493C35.0967 79.3611 35.9126 82.1737 36.9716 84.8978L39.5808 90.6507C43.7979 98.4774 49.9884 105.065 57.5379 109.761C65.0874 114.456 73.7334 117.096 82.6181 117.418C91.5028 117.74 100.317 115.733 108.187 111.596C116.056 107.46 122.708 101.337 127.48 93.8364C132.253 86.3356 134.981 77.7171 135.395 68.8362C135.808 59.9553 133.892 51.1207 129.836 43.209C125.781 35.2974 119.727 28.5837 112.275 23.7342C104.824 18.8847 96.2339 16.068 87.3577 15.5635L87.3577 15.5207ZM132.547 66.4415C132.525 76.8588 129.118 86.9868 122.84 95.2998C116.561 103.613 107.752 109.66 97.7379 112.532C87.7241 115.403 77.0483 114.943 67.3189 111.22C57.5894 107.497 49.3332 100.714 43.7939 91.8912L40.6501 85.9672C39.346 83.0576 38.3289 80.0278 37.6132 76.9208L36.6722 70.9968C36.383 67.9596 36.383 64.9019 36.6722 61.8648L37.6132 55.9408C38.3352 52.834 39.3373 49.7989 40.6073 46.873L43.7511 40.9276C49.2783 32.075 57.5373 25.2624 67.2795 21.5196C77.0217 17.7768 87.7176 17.3073 97.7503 20.1821C107.783 23.0568 116.607 29.1196 122.889 37.4539C129.17 45.7881 132.568 55.9409 132.568 66.3773L132.547 66.4415Z" fill="white"/>
<path d="M87.3577 15.5207L88.3577 15.5207L88.3577 14.5207L87.3577 14.5207L87.3577 15.5207ZM85.989 15.5207L84.989 15.5207L84.989 16.5207L85.989 16.5207L85.989 15.5207ZM85.989 3.92937L85.989 2.92937L84.989 2.92937L84.989 3.92937L85.989 3.92937ZM93.2176 3.92937L93.2176 4.92937L93.2536 4.92937L93.2895 4.92679L93.2176 3.92937ZM94.7574 2.43233L95.7524 2.5323L95.7595 2.46094L95.7565 2.38929L94.7574 2.43233ZM94.2869 1.44856L93.5508 2.12548L93.5866 2.16438L93.6263 2.19929L94.2869 1.44856ZM93.2603 0.999448L93.2603 1.99945L93.2627 1.99945L93.2603 0.999448ZM75.4883 0.999448L75.4883 -0.000552124L75.4176 -0.000552124L75.3475 0.00941502L75.4883 0.999448ZM74.1838 2.49648L73.1838 2.49236L73.1836 2.54697L73.1893 2.60128L74.1838 2.49648ZM75.6808 3.92937L75.6196 4.9275L75.6502 4.92937L75.6808 4.92937L75.6808 3.92937ZM83.0591 3.92937L84.0591 3.92937L84.0591 2.92937L83.0591 2.92937L83.0591 3.92937ZM83.0591 15.4352L83.0591 16.4352L84.0591 16.4352L84.0591 15.4352L83.0591 15.4352ZM81.6903 15.4352L81.6903 14.4352L81.6611 14.4352L81.6318 14.4369L81.6903 15.4352ZM39.538 42.275L38.6582 41.7996L38.6409 41.8316L38.626 41.8648L39.538 42.275ZM36.9502 48.0279L36.0383 47.6177L36.0287 47.639L36.0201 47.6607L36.9502 48.0279ZM34.5336 56.4113L33.5507 56.2271L33.5469 56.2476L33.5439 56.2684L34.5336 56.4113ZM33.6995 62.1856L32.7098 62.0426L32.6995 62.1138L32.6995 62.1856L33.6995 62.1856ZM33.7209 70.7401L32.7301 70.8752L32.7307 70.88L33.7209 70.7401ZM34.5336 76.493L33.5434 76.6329L33.5472 76.6594L33.5523 76.6857L34.5336 76.493ZM36.9716 84.8978L36.0396 85.2602L36.0496 85.2858L36.0609 85.3109L36.9716 84.8978ZM39.5808 90.6507L38.6701 91.0638L38.6842 91.095L38.7004 91.1251L39.5808 90.6507ZM87.3577 15.5635L86.3577 15.5635L86.3577 16.5083L87.301 16.5619L87.3577 15.5635ZM132.547 66.4415L131.598 66.1254L131.547 66.2782L131.547 66.4393L132.547 66.4415ZM43.7939 91.8912L42.9105 92.3599L42.9276 92.3921L42.947 92.4229L43.7939 91.8912ZM40.6501 85.9672L39.7375 86.3762L39.7512 86.4065L39.7668 86.4359L40.6501 85.9672ZM37.6132 76.9208L36.6256 77.0776L36.631 77.1117L36.6387 77.1452L37.6132 76.9208ZM36.6722 70.9968L35.6767 71.0916L35.6797 71.1227L35.6846 71.1536L36.6722 70.9968ZM36.6722 61.8648L35.6846 61.7079L35.6797 61.7388L35.6767 61.77L36.6722 61.8648ZM37.6132 55.9408L36.6392 55.7145L36.6312 55.749L36.6256 55.7839L37.6132 55.9408ZM40.6073 46.873L39.7233 46.4056L39.7053 46.4396L39.69 46.4749L40.6073 46.873ZM43.7511 40.9276L42.9028 40.398L42.8838 40.4285L42.8671 40.4602L43.7511 40.9276ZM132.568 66.3773L133.517 66.6934L133.568 66.5395L133.568 66.3773L132.568 66.3773ZM87.3577 14.5207L85.989 14.5207L85.989 16.5207L87.3577 16.5207L87.3577 14.5207ZM86.989 15.5207L86.989 3.92937L84.989 3.92937L84.989 15.5207L86.989 15.5207ZM85.989 4.92937L93.2176 4.92937L93.2176 2.92937L85.989 2.92937L85.989 4.92937ZM93.2895 4.92679C93.9162 4.8816 94.5069 4.61663 94.9575 4.17859L93.5633 2.7446C93.4505 2.8543 93.3026 2.92065 93.1456 2.93196L93.2895 4.92679ZM94.9575 4.17859C95.408 3.74057 95.6896 3.15756 95.7524 2.5323L93.7624 2.33235C93.7467 2.4889 93.6762 2.6349 93.5633 2.7446L94.9575 4.17859ZM95.7565 2.38929C95.7426 2.06732 95.6637 1.75154 95.5247 1.46093L93.7205 2.32384C93.7432 2.37134 93.7561 2.42288 93.7583 2.47536L95.7565 2.38929ZM95.5247 1.46093C95.3857 1.17029 95.1894 0.910715 94.9475 0.697831L93.6263 2.19929C93.6657 2.234 93.6978 2.27635 93.7205 2.32384L95.5247 1.46093ZM95.0229 0.771638C94.7984 0.527478 94.5255 0.332765 94.2217 0.199839L93.42 2.03215C93.4697 2.05387 93.5142 2.08566 93.5508 2.12548L95.0229 0.771638ZM94.2217 0.199839C93.9178 0.0669022 93.5896 -0.00134676 93.2579 -0.000549019L93.2627 1.99945C93.3169 1.99932 93.3704 2.01045 93.42 2.03215L94.2217 0.199839ZM93.2603 -0.000551912L75.4883 -0.000552124L75.4883 1.99945L93.2603 1.99945L93.2603 -0.000551912ZM75.3475 0.00941502C74.7489 0.0945748 74.2008 0.392278 73.8035 0.848181L75.3113 2.16214C75.3931 2.06831 75.5059 2.00702 75.6292 1.98948L75.3475 0.00941502ZM73.8035 0.848181C73.4062 1.30408 73.1863 1.88769 73.1838 2.49236L75.1838 2.5006C75.1843 2.3761 75.2296 2.25597 75.3113 2.16214L73.8035 0.848181ZM73.1893 2.60128C73.2538 3.2138 73.5334 3.78364 73.9784 4.20955L75.3613 2.76472C75.2581 2.66595 75.1932 2.53378 75.1783 2.39169L73.1893 2.60128ZM73.9784 4.20955C74.4233 4.63544 75.0049 4.88983 75.6196 4.9275L75.742 2.93125C75.5994 2.92251 75.4645 2.86351 75.3613 2.76472L73.9784 4.20955ZM75.6808 4.92937L83.0591 4.92937L83.0591 2.92937L75.6808 2.92937L75.6808 4.92937ZM82.0591 3.92937L82.0591 15.4352L84.0591 15.4352L84.0591 3.92937L82.0591 3.92937ZM83.0591 14.4352L81.6903 14.4352L81.6903 16.4352L83.0591 16.4352L83.0591 14.4352ZM81.6318 14.4369C72.731 14.9588 64.1111 17.7465 56.5902 22.5353L57.6644 24.2223C64.8978 19.6165 73.1882 16.9354 81.7489 16.4335L81.6318 14.4369ZM56.5902 22.5353C49.0692 27.3241 42.8967 33.9553 38.6582 41.7996L40.4178 42.7504C44.4942 35.2059 50.4309 28.8281 57.6644 24.2223L56.5902 22.5353ZM38.626 41.8648L36.0383 47.6177L37.8622 48.4381L40.45 42.6852L38.626 41.8648ZM36.0201 47.6607C34.9264 50.4311 34.0996 53.2996 33.5507 56.2271L35.5165 56.5956C36.0419 53.7931 36.8334 51.0472 37.8804 48.3951L36.0201 47.6607ZM33.5439 56.2684L32.7098 62.0426L34.6893 62.3286L35.5233 56.5543L33.5439 56.2684ZM32.6995 62.1856C32.6995 62.8452 32.6589 63.5148 32.6158 64.2321C32.5732 64.9396 32.5284 65.6905 32.5284 66.4629L34.5284 66.4629C34.5284 65.7596 34.5692 65.0669 34.6122 64.3522C34.6546 63.6474 34.6995 62.9161 34.6995 62.1856L32.6995 62.1856ZM32.5284 66.4629C32.5284 67.9273 32.5269 69.3853 32.7301 70.8752L34.7117 70.605C34.53 69.2719 34.5284 67.9498 34.5284 66.4629L32.5284 66.4629ZM32.7307 70.88L33.5434 76.6329L35.5238 76.3532L34.7111 70.6002L32.7307 70.88ZM33.5523 76.6857C34.1268 79.6116 34.9591 82.481 36.0396 85.2602L37.9037 84.5355C36.866 81.8663 36.0666 79.1105 35.5149 76.3004L33.5523 76.6857ZM36.0609 85.3109L38.6701 91.0638L40.4915 90.2377L37.8823 84.4848L36.0609 85.3109ZM38.7004 91.1251C43.0003 99.1053 49.3122 105.822 57.0098 110.61L58.066 108.912C50.6646 104.308 44.5956 97.8496 40.4611 90.1764L38.7004 91.1251ZM57.0098 110.61C64.7073 115.397 73.523 118.089 82.5819 118.417L82.6544 116.418C73.9439 116.103 65.4675 113.515 58.066 108.912L57.0098 110.61ZM82.5819 118.417C91.6409 118.745 100.628 116.699 108.652 112.481L107.722 110.711C100.006 114.767 91.3648 116.734 82.6544 116.418L82.5819 118.417ZM108.652 112.481C116.676 108.264 123.458 102.021 128.324 94.3733L126.637 93.2996C121.957 100.653 115.437 106.656 107.722 110.711L108.652 112.481ZM128.324 94.3733C133.19 86.7253 135.972 77.9378 136.393 68.8827L134.396 68.7897C133.99 77.4964 131.316 85.9459 126.637 93.2996L128.324 94.3733ZM136.393 68.8827C136.815 59.8276 134.861 50.8197 130.726 42.7529L128.946 43.6652C132.922 51.4217 134.801 60.083 134.396 68.7897L136.393 68.8827ZM130.726 42.7529C126.591 34.686 120.418 27.8407 112.821 22.8961L111.73 24.5723C119.035 29.3267 124.97 35.9087 128.946 43.6652L130.726 42.7529ZM112.821 22.8961C105.223 17.9514 96.4648 15.0795 87.4145 14.5651L87.301 16.5619C96.0031 17.0565 104.425 19.8179 111.73 24.5723L112.821 22.8961ZM88.3577 15.5635L88.3577 15.5207L86.3577 15.5207L86.3577 15.5635L88.3577 15.5635ZM131.547 66.4393C131.525 76.6399 128.189 86.5572 122.042 94.6971L123.638 95.9025C130.046 87.4165 133.524 77.0778 133.547 66.4436L131.547 66.4393ZM122.042 94.6971C115.894 102.837 107.268 108.759 97.4622 111.571L98.0135 113.493C108.236 110.562 117.229 104.388 123.638 95.9025L122.042 94.6971ZM97.4622 111.571C87.6568 114.382 77.2032 113.932 67.6762 110.286L66.9615 112.154C76.8934 115.954 87.7913 116.424 98.0135 113.493L97.4622 111.571ZM67.6762 110.286C58.1492 106.641 50.0648 99.9984 44.6408 91.3594L42.947 92.4229C48.6015 101.429 57.0296 108.354 66.9615 112.154L67.6762 110.286ZM44.6772 91.4224L41.5334 85.4984L39.7668 86.4359L42.9105 92.3599L44.6772 91.4224ZM41.5626 85.5581C40.2851 82.708 39.2888 79.74 38.5877 76.6963L36.6387 77.1452C37.369 80.3157 38.4069 83.4073 39.7375 86.3762L41.5626 85.5581ZM38.6008 76.7639L37.6598 70.8399L35.6846 71.1536L36.6256 77.0776L38.6008 76.7639ZM37.6677 70.902C37.3845 67.9279 37.3845 64.9337 37.6677 61.9596L35.6767 61.77C35.3815 64.8702 35.3815 67.9914 35.6767 71.0916L37.6677 70.902ZM37.6598 62.0217L38.6008 56.0977L36.6256 55.7839L35.6846 61.7079L37.6598 62.0217ZM38.5873 56.1672C39.2956 53.1192 40.2787 50.1417 41.5246 47.2712L39.69 46.4749C38.396 49.4562 37.3748 52.5487 36.6392 55.7145L38.5873 56.1672ZM41.4913 47.3405L44.6351 41.3951L42.8671 40.4602L39.7233 46.4056L41.4913 47.3405ZM44.5993 41.4572C50.0115 32.7888 58.0986 26.118 67.6381 22.4531L66.9209 20.5861C56.9759 24.4068 48.5451 31.3612 42.9028 40.398L44.5993 41.4572ZM67.6381 22.4531C77.1776 18.7881 87.6509 18.3284 97.4749 21.1434L98.0258 19.2207C87.7843 16.2861 76.8658 16.7654 66.9209 20.5861L67.6381 22.4531ZM97.4749 21.1434C107.299 23.9583 115.939 29.8949 122.09 38.0558L123.687 36.852C117.275 28.3443 108.267 22.1553 98.0258 19.2207L97.4749 21.1434ZM122.09 38.0558C128.241 46.2166 131.568 56.1581 131.568 66.3773L133.568 66.3773C133.568 55.7237 130.1 45.3597 123.687 36.852L122.09 38.0558ZM131.62 66.0612L131.598 66.1254L133.496 66.7576L133.517 66.6934L131.62 66.0612Z" fill="white" mask="url(#path-1-outside-1_40_1002)"/>
<path d="M87.9228 66.4421C87.9228 64.5479 86.3872 63.0122 84.4929 63.0122C82.5986 63.0122 81.063 64.5478 81.063 66.4421C81.063 68.3364 82.5986 69.8721 84.4929 69.8721C86.3872 69.8721 87.9228 68.3364 87.9228 66.4421Z" fill="white" stroke="white"/>
<path d="M15.6073 46.5166L59.385 46.5166C59.9498 46.5166 60.4269 46.3819 60.7682 46.0822C61.1183 45.7747 61.2537 45.357 61.2537 44.9473C61.2537 44.5375 61.1183 44.1198 60.7682 43.8124C60.4269 43.5127 59.9498 43.378 59.385 43.378L15.6073 43.378C15.0425 43.378 14.5653 43.5127 14.2241 43.8124C13.8739 44.1198 13.7385 44.5375 13.7385 44.9473C13.7385 45.3571 13.8739 45.7747 14.2241 46.0822C14.5653 46.3819 15.0425 46.5166 15.6073 46.5166Z" fill="white" stroke="white"/>
<path d="M2.39011 46.5166L7.2234 46.5166C7.78821 46.5166 8.26531 46.3819 8.60657 46.0822C8.95677 45.7747 9.09212 45.357 9.09212 44.9473C9.09212 44.5375 8.95677 44.1198 8.60657 43.8124C8.26531 43.5127 7.78821 43.378 7.2234 43.378L2.39011 43.378C1.81708 43.378 1.335 43.5115 0.990485 43.8104C0.635711 44.1181 0.5 44.5371 0.5 44.9473C0.5 45.3575 0.635711 45.7764 0.990485 46.0842C1.335 46.383 1.81708 46.5166 2.39011 46.5166Z" fill="white" stroke="white"/>
<path d="M15.1155 60.7393L60.155 60.7393C60.7286 60.7393 61.2153 60.6055 61.5671 60.3144C61.9307 60.0135 62.0879 59.5959 62.0879 59.1699C62.0879 58.7678 61.9626 58.3481 61.6126 58.037C61.2718 57.7341 60.7918 57.6006 60.2191 57.6006L15.1155 57.6006C14.537 57.6006 14.0557 57.7421 13.7133 58.0433C13.3633 58.3511 13.2253 58.7667 13.2253 59.1699C13.2253 59.5732 13.3633 59.9888 13.7133 60.2966C14.0557 60.5977 14.537 60.7393 15.1155 60.7393Z" fill="white" stroke="white"/>
<path d="M29.2729 75.7529L59.3847 75.7529C59.9495 75.7529 60.4266 75.6182 60.7679 75.3185C61.1181 75.0111 61.2534 74.5934 61.2534 74.1836C61.2534 73.7739 61.1181 73.3562 60.7679 73.0487C60.4266 72.749 59.9495 72.6143 59.3847 72.6143L29.2729 72.6143C28.7084 72.6143 28.2333 72.749 27.8958 73.0528C27.5504 73.3636 27.4255 73.7819 27.4255 74.1836C27.4255 74.5853 27.5504 75.0037 27.8958 75.3145C28.2333 75.6183 28.7084 75.7529 29.2729 75.7529Z" fill="white" stroke="white"/>
<path d="M18.5155 75.7529L22.0442 75.7529C22.6087 75.7529 23.0837 75.6183 23.4213 75.3145C23.7666 75.0037 23.8916 74.5853 23.8916 74.1836C23.8916 73.7819 23.7666 73.3636 23.4213 73.0528C23.0837 72.749 22.6087 72.6143 22.0442 72.6143L18.5155 72.6143C17.951 72.6143 17.476 72.749 17.1384 73.0528C16.7931 73.3636 16.6682 73.7819 16.6682 74.1836C16.6682 74.5853 16.7931 75.0037 17.1384 75.3145C17.476 75.6183 17.951 75.7529 18.5155 75.7529Z" fill="white" stroke="white"/>
<path d="M29.7004 90.252L51.0866 90.252C51.6589 90.252 52.1369 90.1186 52.474 89.8114C52.819 89.497 52.934 89.0765 52.934 88.6826C52.934 88.2896 52.8197 87.8669 52.4791 87.5478C52.1432 87.2333 51.6643 87.0919 51.0866 87.0919L29.7004 87.0919C29.1249 87.0919 28.6498 87.2429 28.3158 87.556C27.9792 87.8716 27.853 88.2889 27.853 88.6826C27.853 89.0774 27.9801 89.4923 28.3208 89.8032C28.6561 90.1092 29.1302 90.252 29.7004 90.252Z" fill="white" stroke="white"/>
<path d="M59.4709 90.252L63.7482 90.252C64.3208 90.252 64.8008 90.1185 65.1417 89.8156C65.4917 89.5044 65.6169 89.0847 65.6169 88.6826C65.6169 88.2815 65.4925 87.8595 65.1467 87.5436C64.8071 87.2333 64.3261 87.0919 63.7482 87.0919L59.4709 87.0919C58.8873 87.0919 58.4049 87.2414 58.0637 87.5498C57.7177 87.8624 57.5808 88.2807 57.5808 88.6826C57.5808 89.0859 57.7187 89.5015 58.0687 89.8093C58.4111 90.1104 58.8924 90.252 59.4709 90.252Z" fill="white" stroke="white"/>
<path d="M82.8593 68.0588L82.8755 68.0767L82.8933 68.0931C83.0876 68.2709 83.3282 68.3903 83.5873 68.4374C83.8325 68.482 84.0849 68.4602 84.3185 68.3746C84.7904 68.2618 85.2278 68.0354 85.5926 67.715L85.5989 67.7095L85.6049 67.7038L108.381 46.3175L108.381 46.3176L108.387 46.312C108.776 45.9348 109.032 45.5385 109.041 45.0894C109.051 44.6459 108.814 44.2951 108.596 44.0306C108.357 43.7419 108.016 43.4515 107.555 43.41C107.084 43.3677 106.644 43.5958 106.24 43.9872L83.4661 65.3708L83.466 65.3709C83.0572 65.7549 82.7628 66.2204 82.6303 66.6793C82.5019 67.1235 82.5036 67.6635 82.8593 68.0588Z" fill="white" stroke="white"/>
</svg>
