<svg width="1809" height="324" viewBox="0 0 1809 324" fill="none" xmlns="http://www.w3.org/2000/svg">
<path d="M1808.38 7.35779V317H1727.86V7.35779H1808.38Z" fill="white"/>
<path d="M1695.35 7.35779V317H1614.83V186.946H1590.73V317H1510.22V7.35779H1590.73V118.095H1614.83V7.35779H1695.35Z" fill="white"/>
<path d="M1481.34 142.384H1400.82V88.45C1400.82 72.7671 1399.93 63.0131 1398.14 59.188C1396.48 55.2353 1392.72 53.259 1386.86 53.259C1380.23 53.259 1376.02 55.6178 1374.23 60.3355C1372.45 65.0531 1371.56 75.2534 1371.56 90.9363V234.76C1371.56 249.806 1372.45 259.623 1374.23 264.214C1376.02 268.804 1380.04 271.099 1386.28 271.099C1392.28 271.099 1396.16 268.804 1397.95 264.214C1399.86 259.623 1400.82 248.849 1400.82 231.891V193.067H1481.34V205.116C1481.34 237.119 1479.04 259.815 1474.45 273.203C1469.99 286.59 1459.98 298.321 1444.42 308.394C1429 318.466 1409.93 323.503 1387.24 323.503C1363.65 323.503 1344.21 319.231 1328.91 310.689C1313.61 302.146 1303.47 290.352 1298.5 275.306C1293.52 260.133 1291.04 237.374 1291.04 207.028V116.565C1291.04 94.2514 1291.8 77.5485 1293.33 66.4557C1294.86 55.2353 1299.39 44.4613 1306.91 34.1335C1314.56 23.8057 1325.08 15.7093 1338.47 9.8441C1351.98 3.85144 1367.48 0.855103 1384.94 0.855103C1408.66 0.855103 1428.23 5.44523 1443.66 14.6255C1459.09 23.8057 1469.22 35.281 1474.07 49.0514C1478.91 62.6943 1481.34 83.9874 1481.34 112.931V142.384Z" fill="white"/>
<path d="M1262.16 7.35779V214.296C1262.16 237.757 1261.39 254.268 1259.86 263.831C1258.33 273.266 1253.81 283.02 1246.28 293.093C1238.76 303.038 1228.82 310.625 1216.45 315.852C1204.21 320.953 1189.74 323.503 1173.03 323.503C1154.55 323.503 1138.22 320.443 1124.07 314.322C1109.92 308.202 1099.34 300.233 1092.32 290.416C1085.31 280.598 1081.17 270.27 1079.89 259.432C1078.62 248.467 1077.98 225.516 1077.98 190.58V7.35779H1158.5V239.542C1158.5 253.057 1159.2 261.727 1160.6 265.552C1162.13 269.25 1165.13 271.099 1169.59 271.099C1174.69 271.099 1177.94 269.059 1179.34 264.979C1180.87 260.771 1181.64 250.953 1181.64 235.525V7.35779H1262.16Z" fill="white"/>
<path d="M1047.76 121.346H967.243V93.2314C967.243 75.5084 966.478 64.4156 964.948 59.953C963.418 55.4903 959.784 53.259 954.046 53.259C949.074 53.259 945.695 55.1716 943.91 58.9967C942.125 62.8218 941.232 72.6396 941.232 88.45V237.055C941.232 250.953 942.125 260.133 943.91 264.596C945.695 268.931 949.265 271.099 954.62 271.099C960.485 271.099 964.438 268.612 966.478 263.64C968.645 258.667 969.729 248.977 969.729 234.569V197.848H953.472V150.799H1047.76V317H997.079L989.62 294.814C984.137 304.377 977.188 311.581 968.773 316.426C960.485 321.144 950.667 323.503 939.32 323.503C925.804 323.503 913.118 320.251 901.26 313.749C889.529 307.118 880.604 298.958 874.484 289.268C868.364 279.578 864.539 269.441 863.009 258.858C861.479 248.148 860.714 232.146 860.714 210.853V118.86C860.714 89.2788 862.307 67.7944 865.495 54.4066C868.683 41.0187 877.799 28.7784 892.844 17.6856C908.017 6.46526 927.589 0.855103 951.56 0.855103C975.148 0.855103 994.72 5.70024 1010.28 15.3905C1025.83 25.0808 1035.97 36.6198 1040.68 50.0077C1045.4 63.2681 1047.76 82.5848 1047.76 107.958V121.346Z" fill="white"/>
<path d="M803.146 7.35779L849.238 317H766.807L762.791 261.345H733.911L729.13 317H645.743L686.671 7.35779H803.146ZM760.496 206.454C756.416 171.391 752.336 128.104 748.255 76.5922C740.095 135.754 734.995 179.041 732.955 206.454H760.496Z" fill="white"/>
<path d="M631.781 7.35779V317H561.399V107.958L533.285 317H483.367L453.723 112.739V317H383.341V7.35779H487.575C490.635 25.9733 493.886 47.9039 497.329 73.1496L508.422 151.947L526.782 7.35779H631.781Z" fill="white"/>
<path d="M323.478 7.35779L369.57 317H287.139L283.123 261.345H254.243L249.462 317H166.075L207.003 7.35779H323.478ZM280.828 206.454C276.748 171.391 272.668 128.104 268.587 76.5922C260.427 135.754 255.327 179.041 253.287 206.454H280.828Z" fill="white"/>
<path d="M189.981 7.35779L131.266 204.924V317H56.6765V204.924L0.0649414 7.35779H74.0807C85.6835 67.6669 92.1862 108.277 93.5887 129.187C98.0514 96.164 105.51 55.5541 115.966 7.35779H189.981Z" fill="white"/>
</svg>
