<svg width="182" height="127" viewBox="0 0 182 127" fill="none" xmlns="http://www.w3.org/2000/svg">
<path d="M21.1989 92.3525C16.0596 94.8348 11.3686 98.1539 7.31756 102.174L4 105.448L6.96834 108.46C14.0122 115.608 22.9712 120.568 32.7676 122.744C42.564 124.92 52.7805 124.22 62.1881 120.726C45.5945 116.424 31.0681 106.369 21.1989 92.3525Z" stroke="#495876" stroke-width="4.3652" stroke-miterlimit="10"/>
<path d="M144.821 36.4346C144.903 33.1041 144.684 29.7731 144.166 26.482L143.337 21.3311L137.706 22.2477C131.823 23.1691 126.122 25.0104 120.812 27.7042C122.818 32.7136 124.282 37.9233 125.178 43.2443C131.349 40.0072 137.97 37.7118 144.821 36.4346Z" stroke="#495876" stroke-width="4.3652" stroke-miterlimit="10"/>
<path d="M57.4274 43.157C58.3501 37.8987 59.8129 32.7496 61.7926 27.7915C56.418 25.0498 50.6423 23.1785 44.681 22.2477L39.3991 21.3311L38.5697 26.482C37.9707 29.7667 37.6495 33.096 37.6094 36.4346C44.51 37.6889 51.1878 39.9541 57.4274 43.157Z" stroke="#495876" stroke-width="4.3652" stroke-miterlimit="10"/>
<path d="M164.248 51.2308V45.4688H157.962C146.859 45.4617 135.963 48.4799 126.446 54.1992C126.446 55.1158 126.446 56.0762 126.446 57.0365C126.475 67.3156 124.468 77.4988 120.542 86.9987C116.617 96.4986 110.849 105.127 103.572 112.387L103.223 112.736C119.444 112.587 134.952 106.044 146.378 94.5279C157.804 83.012 164.226 67.4533 164.248 51.2308Z" stroke="#495876" stroke-width="4.3652" stroke-miterlimit="10"/>
<path d="M174.943 102.173C170.964 98.2386 166.381 94.9668 161.367 92.4824C151.461 106.53 136.862 116.577 120.203 120.813C126.092 122.953 132.315 124.032 138.581 123.999C145.422 123.959 152.189 122.565 158.489 119.898C164.79 117.231 170.5 113.343 175.292 108.459L178.26 105.447L174.943 102.173Z" stroke="#495876" stroke-width="4.3652" stroke-miterlimit="10"/>
<path d="M96.3686 8.84537L91.5232 4L86.285 9.23824C73.5139 22.0161 66.3398 39.3424 66.3398 57.4082C66.3398 75.474 73.5139 92.8003 86.285 105.578L91.1303 110.642L96.3686 105.404C109.14 92.6257 116.314 75.2994 116.314 57.2336C116.314 39.1678 109.14 21.8415 96.3686 9.06363V8.84537Z" stroke="#495876" stroke-width="4.3652" stroke-miterlimit="10"/>
<path d="M56.2082 54.1572C46.7088 48.4333 35.8257 45.4144 24.7351 45.4268H18.4492V51.1889C18.4585 67.3443 24.8149 82.8493 36.1483 94.3624C47.4817 105.875 62.8849 112.475 79.0382 112.738C71.7612 105.478 65.9934 96.8495 62.0676 87.3496C58.1418 77.8497 56.1355 67.6665 56.1645 57.3874C56.1645 56.3398 56.1645 55.2485 56.2082 54.1572Z" stroke="#495876" stroke-width="4.3652" stroke-miterlimit="10"/>
</svg>
