<svg width="127" height="146" viewBox="0 0 127 146" fill="none" xmlns="http://www.w3.org/2000/svg">
<path d="M124.56 113.436C124.703 109.455 123.536 105.538 121.239 102.284C119.016 100.111 116.357 98.436 113.438 97.3687C110.519 96.3014 107.407 95.8667 104.307 96.0934C100.483 95.1381 96.7187 93.9608 93.0322 92.5675C86.9912 90.9838 81.8196 87.0793 78.6418 81.703C77.0019 79.0381 78.6418 70.3465 79.6258 64.7297C82.4289 60.9439 84.3736 56.5928 85.3246 51.9792C87.1695 52.2252 88.1944 50.9133 89.0144 46.0755C89.8344 41.2377 92.7452 36.8919 90.4083 35.7029C90.2117 35.5931 89.9941 35.526 89.7697 35.5061C89.5454 35.4862 89.3194 35.514 89.1065 35.5875C88.8936 35.661 88.6986 35.7787 88.5344 35.9329C88.3701 36.087 88.2404 36.2741 88.1535 36.4819C88.1535 34.6779 88.1535 32.587 88.1535 30.0041C88.1535 17.2947 81.6347 4.70819 65.6044 3.02726C64.99 2.99091 64.3739 2.99091 63.7594 3.02726C63.1586 2.99186 62.5563 2.99186 61.9555 3.02726C45.9252 4.70819 39.4474 17.2947 39.4064 30.0041C39.4064 32.505 39.4064 34.5549 39.4064 36.3179C39.3079 36.1364 39.1744 35.9764 39.0134 35.8471C38.8525 35.7177 38.6676 35.6216 38.4692 35.5644C38.2708 35.5072 38.063 35.49 37.8579 35.5137C37.6528 35.5375 37.4546 35.6018 37.2746 35.7029C34.9377 36.8919 37.9305 41.4017 38.7095 46.0755C39.4884 50.7493 40.3904 52.5122 42.2353 52.3072C43.0524 57.0089 45.104 61.4092 48.1801 65.0577C49.5741 70.4695 51.132 78.4231 49.287 80.883C45.8868 86.4522 40.5859 90.6026 34.3637 92.5675C30.6922 93.9639 26.9411 95.1412 23.1302 96.0934C20.0245 95.8713 16.907 96.308 13.9819 97.3749C11.0569 98.4418 8.39026 100.115 6.15689 102.284C4.13787 105.048 3.034 108.373 3 111.796C9.8628 121.416 18.8944 129.286 29.3636 134.768C39.8329 140.249 51.4457 143.189 63.2622 143.348C75.0786 143.508 86.7666 140.883 97.3802 135.687C107.994 130.49 117.235 122.867 124.355 113.436H124.56Z" stroke="#495876" stroke-width="4.09983" stroke-miterlimit="10" stroke-linecap="round"/>
</svg>
