<svg width="129" height="164" viewBox="0 0 129 164" fill="none" xmlns="http://www.w3.org/2000/svg">
<path d="M25.3267 65.2151C21.2269 72.4718 24.9577 83.0494 30.3285 88.2151C35.6993 93.3809 42.628 96.6198 48.9417 101.786C52.0054 104.405 54.671 107.458 56.8544 110.846C57.4284 111.707 58.0024 112.609 58.5354 113.511C59.9703 115.725 61.2412 118.062 62.6352 120.399C62.6352 120.399 62.6352 120.727 62.9221 120.932L64.4391 123.802C68.4599 131.592 73.0076 139.098 78.0505 146.269C79.8544 148.77 82.1504 151.68 84.0773 154.796C92.8509 157.297 118.475 164.062 126.634 152.5C118.547 128.686 108.961 105.407 97.9347 82.8034C94.5216 77.6241 91.9866 71.9169 90.432 65.9121C89.3251 61.4433 87.1521 54.9245 84.9382 48.0778V47.5858C84.1182 45.1259 83.3393 42.625 82.6013 40.1242V39.7552C82.6205 39.6329 82.6205 39.5084 82.6013 39.3862C82.4865 39.0224 82.3907 38.6529 82.3143 38.2792C82.3143 38.2792 82.3143 38.0742 82.3143 37.9512V37.7462C82.2958 37.5417 82.2958 37.3358 82.3143 37.1313V36.8443C82.2983 36.5438 82.2983 36.2428 82.3143 35.9423C82.3143 35.9423 82.3143 35.9423 82.3143 35.6963C82.3143 35.6963 82.3143 35.4093 82.3143 35.2864V34.1794C82.2986 34.112 82.2986 34.0418 82.3143 33.9744C82.3344 33.866 82.3344 33.7548 82.3143 33.6464V31.3095C82.3332 31.1187 82.3332 30.9264 82.3143 30.7355C82.3907 29.7595 82.5834 28.796 82.8883 27.8657C83.1753 26.8407 83.5443 26.0617 83.7493 25.2828C83.9543 24.5038 86.2912 16.7961 87.8491 11.3024C79.291 7.0016 70.0275 4.27948 60.5033 3.26669C50.9011 2.59708 41.2525 3.18977 31.8044 5.02961C32.7064 10.5644 35.9043 16.7961 34.2233 22.4949C34.2419 22.6995 34.2419 22.9053 34.2233 23.1099V23.5198C33.959 24.4037 33.6301 25.267 33.2394 26.1027C33.1472 26.356 33.0377 26.6026 32.9114 26.8407C32.6146 27.4319 32.2861 28.0068 31.9274 28.5626C30.8205 30.2846 29.7135 31.8425 28.6066 33.3184C27.4996 34.7944 25.9417 36.5573 24.1378 38.6892C20.2839 42.789 16.1841 46.8889 11.5923 51.8497C3.80258 60.3363 0.645756 71.5288 4.90958 85.8782C5.31956 87.4362 9.5014 103.59 10.2394 108.509C11.4037 122.772 11.7596 137.09 11.3053 151.394C20.5093 156.655 30.67 160.028 41.193 161.315H41.726C42.3 159.839 42.833 158.363 43.407 156.846V156.272C43.407 156.067 43.407 155.862 43.612 155.698C43.6288 155.521 43.6288 155.343 43.612 155.165C43.7731 154.792 43.9101 154.408 44.0219 154.017C44.0219 154.017 44.0219 153.648 44.0219 153.484L44.2269 152.951V152.418C44.2269 152.213 44.2269 152.049 44.2269 151.885C44.2093 151.722 44.2093 151.557 44.2269 151.394C44.2447 151.216 44.2447 151.038 44.2269 150.861C44.2269 150.861 44.2269 150.533 44.2269 150.369C44.2269 150.369 44.2269 150.041 44.2269 149.877C44.2445 149.713 44.2445 149.548 44.2269 149.385V148.893C44.21 148.743 44.21 148.591 44.2269 148.442C44.2038 148.292 44.2038 148.14 44.2269 147.991C44.2093 147.827 44.2093 147.662 44.2269 147.499V147.007V146.515V146.064V145.613V145.203V144.793C44.2079 144.657 44.2079 144.519 44.2269 144.383C44.2076 144.233 44.2076 144.082 44.2269 143.932V143.522C46.1538 135.322 51.4016 121.834 52.9185 111.912" stroke="#495876" stroke-width="4.09983" stroke-miterlimit="10" stroke-linecap="round"/>
</svg>
