<svg width="125" height="141" viewBox="0 0 125 141" fill="none" xmlns="http://www.w3.org/2000/svg">
<path d="M67.0389 22.2899C67.0389 23.5621 66.5335 24.7822 65.634 25.6818C64.7344 26.5813 63.5143 27.0867 62.2421 27.0867C60.9699 27.0867 59.7498 26.5813 58.8503 25.6818C57.9507 24.7822 57.4453 23.5621 57.4453 22.2899V19.83C57.4453 18.5578 57.9507 17.3377 58.8503 16.4382C59.7498 15.5386 60.9699 15.0332 62.2421 15.0332C63.5143 15.0332 64.7344 15.5386 65.634 16.4382C66.5335 17.3377 67.0389 18.5578 67.0389 19.83V22.2899ZM67.0389 41.7641C67.0389 43.0363 66.5335 44.2564 65.634 45.1559C64.7344 46.0555 63.5143 46.5609 62.2421 46.5609C60.9699 46.5609 59.7498 46.0555 58.8503 45.1559C57.9507 44.2564 57.4453 43.0363 57.4453 41.7641V39.2632C57.4453 37.991 57.9507 36.7709 58.8503 35.8713C59.7498 34.9718 60.9699 34.4664 62.2421 34.4664C63.5143 34.4664 64.7344 34.9718 65.634 35.8713C66.5335 36.7709 67.0389 37.991 67.0389 39.2632V41.7641ZM67.0389 60.6233C67.0389 61.8955 66.5335 63.1156 65.634 64.0152C64.7344 64.9147 63.5143 65.4201 62.2421 65.4201C60.9699 65.4201 59.7498 64.9147 58.8503 64.0152C57.9507 63.1156 57.4453 61.8955 57.4453 60.6233V58.0814C57.4453 56.8092 57.9507 55.5891 58.8503 54.6896C59.7498 53.79 60.9699 53.2846 62.2421 53.2846C63.5143 53.2846 64.7344 53.79 65.634 54.6896C66.5335 55.5891 67.0389 56.8092 67.0389 58.0814V60.6233ZM67.0389 79.6465C67.0389 80.9187 66.5335 82.1388 65.634 83.0384C64.7344 83.9379 63.5143 84.4433 62.2421 84.4433C60.9699 84.4433 59.7498 83.9379 58.8503 83.0384C57.9507 82.1388 57.4453 80.9187 57.4453 79.6465V77.1456C57.4453 75.8734 57.9507 74.6533 58.8503 73.7538C59.7498 72.8542 60.9699 72.3488 62.2421 72.3488C63.5143 72.3488 64.7344 72.8542 65.634 73.7538C66.5335 74.6533 67.0389 75.8734 67.0389 77.1456V79.6465ZM67.0389 97.5218C67.0389 98.794 66.5335 100.014 65.634 100.914C64.7344 101.813 63.5143 102.319 62.2421 102.319C60.9699 102.319 59.7498 101.813 58.8503 100.914C57.9507 100.014 57.4453 98.794 57.4453 97.5218V94.9799C57.4453 93.7077 57.9507 92.4876 58.8503 91.588C59.7498 90.6885 60.9699 90.1831 62.2421 90.1831C63.5143 90.1831 64.7344 90.6885 65.634 91.588C66.5335 92.4876 67.0389 93.7077 67.0389 94.9799V97.5218ZM67.0389 115.93C67.0389 117.202 66.5335 118.422 65.634 119.322C64.7344 120.221 63.5143 120.727 62.2421 120.727C60.9699 120.727 59.7498 120.221 58.8503 119.322C57.9507 118.422 57.4453 117.202 57.4453 115.93V113.429C57.4453 112.157 57.9507 110.937 58.8503 110.037C59.7498 109.138 60.9699 108.632 62.2421 108.632C63.5143 108.632 64.7344 109.138 65.634 110.037C66.5335 110.937 67.0389 112.157 67.0389 113.429V115.93Z" fill="#495876"/>
<path d="M61.7096 137.904C73.723 138.05 85.6988 136.532 97.2961 133.394C94.6653 127.966 92.5249 122.313 90.9003 116.503C89.1298 109.256 90.0323 101.614 93.4422 94.9789C95.6652 88.9129 97.2588 82.6345 98.198 76.2427C98.198 76.2427 100.453 94.7329 101.56 102.482C102.667 110.23 102.216 114.781 104.143 126.261C104.348 127.573 104.676 129.089 105.045 130.729C111.333 128.19 117.039 124.395 121.813 119.578C120.649 115.345 119.098 111.228 117.18 107.278C117.18 107.278 116.442 96.4138 115.745 85.6313C115.048 74.8487 113.449 61.0323 112.998 51.1927C112.547 41.3531 112.998 35.4494 109.883 31.8415C108.09 29.9878 105.913 28.5497 103.505 27.6289C101.096 26.708 98.515 26.3266 95.9431 26.5117C92.8278 25.7176 89.7726 24.7038 86.8005 23.4779C84.2881 22.7963 81.9378 21.6179 79.8886 20.0123C77.8394 18.4068 76.1329 16.4067 74.87 14.1302C74.0508 10.8599 74.0508 7.43799 74.87 4.16765C66.9787 2.61078 58.8593 2.61078 50.968 4.16765C51.921 7.23862 51.921 10.5263 50.968 13.5973C48.2171 18.3131 43.8459 21.8684 38.6685 23.6008C35.651 24.7842 32.555 25.7568 29.4029 26.5117C26.8254 26.3318 24.2396 26.7153 21.8253 27.6357C19.411 28.5561 17.2261 29.9913 15.4225 31.8415C12.4296 35.4494 12.7576 41.2301 12.3066 51.1927C11.8556 61.1553 10.2567 74.8077 9.55973 85.6313C8.86276 96.4548 8.04279 107.278 8.04279 107.278C5.89927 111.758 4.20991 116.442 3 121.259C8.31113 125.059 14.1368 128.082 20.3013 130.237C20.6293 128.761 20.8753 127.409 21.0802 126.138C23.0072 114.699 22.5562 110.107 23.6631 102.359C24.7701 94.6099 27.066 76.1197 27.066 76.1197C27.9735 82.5537 29.5537 88.8747 31.7808 94.9789C35.2465 101.61 36.1793 109.276 34.4047 116.544C32.8429 122.193 30.7566 127.683 28.173 132.943C39.066 136.045 50.3055 137.767 61.6276 138.068" stroke="#495876" stroke-width="4.37" stroke-miterlimit="10"/>
</svg>
