<svg width="288" height="290" viewBox="0 0 288 290" fill="none" xmlns="http://www.w3.org/2000/svg">
<rect x="2.73108" y="58.298" width="241.879" height="201.392" rx="15.1905" transform="rotate(-13.1179 2.73108 58.298)" fill="white"/>
<rect x="2.73108" y="58.298" width="241.879" height="201.392" rx="15.1905" transform="rotate(-13.1179 2.73108 58.298)" stroke="#9419FF" stroke-width="2.17007" stroke-dasharray="5.43 5.43"/>
<rect x="2.73108" y="58.298" width="241.879" height="201.392" rx="15.1905" transform="rotate(-13.1179 2.73108 58.298)" stroke="black" stroke-opacity="0.2" stroke-width="2.17007" stroke-dasharray="5.43 5.43"/>
<path d="M72.9351 79.0934L76.0379 92.4081L74.1739 92.8425L71.4567 81.1826L65.5602 82.5567L66.3357 86.4871C66.7008 88.3405 66.8958 89.866 66.9209 91.0634C66.9586 92.2578 66.7918 93.2058 66.4205 93.9073C66.0462 94.5962 65.4279 95.0411 64.5657 95.242C64.1726 95.3336 63.7613 95.376 63.3319 95.3691L63.0705 93.6452C63.2852 93.6486 63.494 93.6267 63.6969 93.5794C64.2422 93.4524 64.6294 93.1348 64.8587 92.6269C65.0849 92.1062 65.1786 91.3892 65.1395 90.4758C65.1005 89.5624 64.9393 88.3834 64.6561 86.9386L63.5577 81.2787L72.9351 79.0934ZM77.5316 81.4314L79.3577 81.0059L81.0686 88.348L85.5395 79.5653L87.1943 79.1797L89.5436 89.2608L87.7176 89.6863L86.0066 82.3442L81.5548 91.1225L79.8809 91.5126L77.5316 81.4314ZM100.078 76.1773L102.427 86.2585L100.601 86.684L98.6243 78.2006L92.937 79.526L94.9139 88.0093L93.0879 88.4349L90.7386 78.3537L100.078 76.1773ZM110.305 84.543C109.303 84.7765 108.351 84.7644 107.449 84.5067C106.546 84.249 105.777 83.7866 105.14 83.1195C104.513 82.4367 104.084 81.6008 103.854 80.6117C103.623 79.6226 103.64 78.6896 103.903 77.8126C104.177 76.92 104.663 76.1651 105.361 75.5478C106.056 74.9178 106.905 74.4861 107.907 74.2526C108.909 74.0192 109.854 74.0328 110.744 74.2934C111.643 74.5383 112.407 75.0022 113.034 75.685C113.67 76.3521 114.104 77.1803 114.334 78.1693C114.565 79.1584 114.544 80.0993 114.27 80.9919C114.007 81.8688 113.527 82.6223 112.832 83.2523C112.149 83.8793 111.307 84.3096 110.305 84.543ZM109.933 82.9452C110.579 82.7945 111.122 82.5142 111.562 82.1044C112.011 81.6789 112.319 81.1659 112.486 80.5653C112.651 79.9521 112.652 79.2967 112.489 78.5993C112.327 77.9019 112.038 77.3208 111.622 76.8562C111.203 76.3789 110.7 76.055 110.112 75.8845C109.537 75.7111 108.926 75.6997 108.279 75.8504C107.632 76.0011 107.083 76.2829 106.631 76.6957C106.192 77.1055 105.884 77.6186 105.706 78.2347C105.539 78.8353 105.536 79.4843 105.699 80.1817C105.861 80.8792 106.152 81.4665 106.571 81.9438C106.999 82.4055 107.503 82.7294 108.081 82.9156C108.669 83.086 109.286 83.0959 109.933 82.9452ZM127.418 69.806L129.768 79.8871L128.113 80.2728L126.397 72.9116L124.081 80.0092L123.282 80.1953L118.1 74.8252L119.82 82.2054L118.146 82.5955L115.797 72.5143L117.68 72.0755L123.223 77.963L125.707 70.2049L127.418 69.806ZM134.545 68.0449C135.94 67.7198 137.085 67.814 137.98 68.3274C138.888 68.8378 139.5 69.7714 139.816 71.1282L141.235 77.215L139.504 77.6183L139.193 76.2868C138.998 76.827 138.645 77.2903 138.134 77.6769C137.632 78.0478 136.994 78.3235 136.221 78.5037C135.092 78.7667 134.122 78.7054 133.31 78.3197C132.511 77.931 132.008 77.2929 131.801 76.4052C131.594 75.5176 131.752 74.7321 132.275 74.0488C132.794 73.3528 133.758 72.8408 135.165 72.5128L138.057 71.8391L137.972 71.4777C137.789 70.6915 137.421 70.1423 136.867 69.8302C136.313 69.5182 135.592 69.4655 134.704 69.6724C134.108 69.8113 133.548 70.0487 133.025 70.3845C132.499 70.7077 132.077 71.08 131.761 71.5013L130.681 70.3091C131.104 69.7694 131.651 69.3076 132.324 68.9236C132.993 68.5269 133.734 68.234 134.545 68.0449ZM136.197 77.0252C136.894 76.8627 137.461 76.5702 137.898 76.1476C138.331 75.7124 138.595 75.1829 138.69 74.5591L138.362 73.1515L135.547 73.8075C134 74.1681 133.348 74.8682 133.59 75.908C133.708 76.4153 133.998 76.7689 134.459 76.969C134.92 77.169 135.499 77.1878 136.197 77.0252ZM148.943 75.5389C147.916 75.7783 146.945 75.7706 146.03 75.5159C145.128 75.2582 144.358 74.7958 143.721 74.1287C143.082 73.4489 142.647 72.6144 142.416 71.6253C142.186 70.6362 142.208 69.7017 142.485 68.8218C142.758 67.9292 143.244 67.1743 143.942 66.557C144.65 65.924 145.518 65.4879 146.545 65.2485C147.458 65.0358 148.313 65.0305 149.108 65.2328C149.917 65.4321 150.599 65.8346 151.155 66.4405L149.974 67.658C149.545 67.25 149.068 66.9803 148.542 66.8487C148.017 66.7171 147.469 66.7177 146.898 66.8507C146.239 67.0044 145.677 67.2891 145.212 67.7049C144.76 68.1177 144.446 68.6322 144.269 69.2484C144.101 69.8489 144.099 70.4979 144.261 71.1954C144.427 71.9055 144.719 72.4992 145.137 72.9765C145.566 73.4382 146.074 73.7543 146.662 73.9247C147.262 74.0923 147.892 74.0992 148.552 73.9456C149.122 73.8126 149.614 73.571 150.027 73.2207C150.44 72.8704 150.749 72.4174 150.954 71.8617L152.546 72.4131C152.316 73.2021 151.883 73.8711 151.249 74.4199C150.625 74.9531 149.856 75.3261 148.943 75.5389ZM159.661 73.0412C158.634 73.2806 157.663 73.2729 156.748 73.0182C155.846 72.7606 155.076 72.2982 154.439 71.631C153.8 70.9512 153.364 70.1168 153.134 69.1277C152.903 68.1386 152.926 67.2041 153.203 66.3242C153.476 65.4316 153.962 64.6766 154.66 64.0593C155.368 63.4264 156.236 62.9902 157.263 62.7509C158.176 62.5381 159.03 62.5329 159.826 62.7351C160.635 62.9344 161.317 63.337 161.872 63.9428L160.692 65.1604C160.263 64.7524 159.786 64.4826 159.26 64.351C158.735 64.2194 158.187 64.2201 157.616 64.3531C156.957 64.5067 156.395 64.7914 155.93 65.2072C155.478 65.62 155.164 66.1345 154.987 66.7507C154.819 67.3513 154.816 68.0003 154.979 68.6977C155.144 69.4078 155.437 70.0015 155.855 70.4788C156.284 70.9405 156.792 71.2566 157.38 71.4271C157.98 71.5946 158.61 71.6016 159.27 71.4479C159.84 71.3149 160.332 71.0733 160.745 70.723C161.158 70.3728 161.467 69.9198 161.672 69.364L163.264 69.9154C163.034 70.7045 162.601 71.3734 161.967 71.9223C161.343 72.4555 160.574 72.8285 159.661 73.0412ZM167.331 60.4048C168.726 60.0797 169.87 60.1739 170.766 60.6872C171.673 61.1976 172.285 62.1312 172.601 63.4881L174.02 69.5748L172.289 69.9782L171.979 68.6467C171.784 69.1868 171.43 69.6502 170.919 70.0367C170.417 70.4077 169.779 70.6833 169.006 70.8636C167.877 71.1266 166.907 71.0652 166.095 70.6795C165.296 70.2909 164.793 69.6527 164.586 68.7651C164.379 67.8774 164.537 67.092 165.06 66.4087C165.58 65.7127 166.543 65.2007 167.951 64.8727L170.842 64.1989L170.758 63.8375C170.574 63.0513 170.206 62.5022 169.652 62.1901C169.098 61.878 168.377 61.8254 167.489 62.0323C166.893 62.1711 166.334 62.4085 165.81 62.7444C165.284 63.0676 164.863 63.4398 164.546 63.8611L163.466 62.6689C163.889 62.1293 164.436 61.6675 165.109 61.2835C165.779 60.8868 166.519 60.5939 167.331 60.4048ZM168.982 69.3851C169.68 69.2226 170.247 68.93 170.683 68.5075C171.116 68.0723 171.38 67.5428 171.476 66.9189L171.148 65.5114L168.333 66.1674C166.786 66.5279 166.133 67.2281 166.376 68.2679C166.494 68.7751 166.783 69.1288 167.244 69.3288C167.706 69.5289 168.285 69.5476 168.982 69.3851ZM185.483 62.4113L183.524 62.8679L184.517 67.1286L182.691 67.5541L181.698 63.2934L179.739 63.75L177.955 68.6579L175.786 69.1632L178.034 63.1447L173.703 59.02L175.643 58.5678L179.356 62.1947L181.335 61.7337L180.342 57.473L182.168 57.0475L183.161 61.3082L185.139 60.8472L186.866 55.9526L188.825 55.4961L186.769 61.1291L191.441 65.5152L189.272 66.0205L185.483 62.4113Z" fill="#9419FF"/>
<path d="M72.9351 79.0934L76.0379 92.4081L74.1739 92.8425L71.4567 81.1826L65.5602 82.5567L66.3357 86.4871C66.7008 88.3405 66.8958 89.866 66.9209 91.0634C66.9586 92.2578 66.7918 93.2058 66.4205 93.9073C66.0462 94.5962 65.4279 95.0411 64.5657 95.242C64.1726 95.3336 63.7613 95.376 63.3319 95.3691L63.0705 93.6452C63.2852 93.6486 63.494 93.6267 63.6969 93.5794C64.2422 93.4524 64.6294 93.1348 64.8587 92.6269C65.0849 92.1062 65.1786 91.3892 65.1395 90.4758C65.1005 89.5624 64.9393 88.3834 64.6561 86.9386L63.5577 81.2787L72.9351 79.0934ZM77.5316 81.4314L79.3577 81.0059L81.0686 88.348L85.5395 79.5653L87.1943 79.1797L89.5436 89.2608L87.7176 89.6863L86.0066 82.3442L81.5548 91.1225L79.8809 91.5126L77.5316 81.4314ZM100.078 76.1773L102.427 86.2585L100.601 86.684L98.6243 78.2006L92.937 79.526L94.9139 88.0093L93.0879 88.4349L90.7386 78.3537L100.078 76.1773ZM110.305 84.543C109.303 84.7765 108.351 84.7644 107.449 84.5067C106.546 84.249 105.777 83.7866 105.14 83.1195C104.513 82.4367 104.084 81.6008 103.854 80.6117C103.623 79.6226 103.64 78.6896 103.903 77.8126C104.177 76.92 104.663 76.1651 105.361 75.5478C106.056 74.9178 106.905 74.4861 107.907 74.2526C108.909 74.0192 109.854 74.0328 110.744 74.2934C111.643 74.5383 112.407 75.0022 113.034 75.685C113.67 76.3521 114.104 77.1803 114.334 78.1693C114.565 79.1584 114.544 80.0993 114.27 80.9919C114.007 81.8688 113.527 82.6223 112.832 83.2523C112.149 83.8793 111.307 84.3096 110.305 84.543ZM109.933 82.9452C110.579 82.7945 111.122 82.5142 111.562 82.1044C112.011 81.6789 112.319 81.1659 112.486 80.5653C112.651 79.9521 112.652 79.2967 112.489 78.5993C112.327 77.9019 112.038 77.3208 111.622 76.8562C111.203 76.3789 110.7 76.055 110.112 75.8845C109.537 75.7111 108.926 75.6997 108.279 75.8504C107.632 76.0011 107.083 76.2829 106.631 76.6957C106.192 77.1055 105.884 77.6186 105.706 78.2347C105.539 78.8353 105.536 79.4843 105.699 80.1817C105.861 80.8792 106.152 81.4665 106.571 81.9438C106.999 82.4055 107.503 82.7294 108.081 82.9156C108.669 83.086 109.286 83.0959 109.933 82.9452ZM127.418 69.806L129.768 79.8871L128.113 80.2728L126.397 72.9116L124.081 80.0092L123.282 80.1953L118.1 74.8252L119.82 82.2054L118.146 82.5955L115.797 72.5143L117.68 72.0755L123.223 77.963L125.707 70.2049L127.418 69.806ZM134.545 68.0449C135.94 67.7198 137.085 67.814 137.98 68.3274C138.888 68.8378 139.5 69.7714 139.816 71.1282L141.235 77.215L139.504 77.6183L139.193 76.2868C138.998 76.827 138.645 77.2903 138.134 77.6769C137.632 78.0478 136.994 78.3235 136.221 78.5037C135.092 78.7667 134.122 78.7054 133.31 78.3197C132.511 77.931 132.008 77.2929 131.801 76.4052C131.594 75.5176 131.752 74.7321 132.275 74.0488C132.794 73.3528 133.758 72.8408 135.165 72.5128L138.057 71.8391L137.972 71.4777C137.789 70.6915 137.421 70.1423 136.867 69.8302C136.313 69.5182 135.592 69.4655 134.704 69.6724C134.108 69.8113 133.548 70.0487 133.025 70.3845C132.499 70.7077 132.077 71.08 131.761 71.5013L130.681 70.3091C131.104 69.7694 131.651 69.3076 132.324 68.9236C132.993 68.5269 133.734 68.234 134.545 68.0449ZM136.197 77.0252C136.894 76.8627 137.461 76.5702 137.898 76.1476C138.331 75.7124 138.595 75.1829 138.69 74.5591L138.362 73.1515L135.547 73.8075C134 74.1681 133.348 74.8682 133.59 75.908C133.708 76.4153 133.998 76.7689 134.459 76.969C134.92 77.169 135.499 77.1878 136.197 77.0252ZM148.943 75.5389C147.916 75.7783 146.945 75.7706 146.03 75.5159C145.128 75.2582 144.358 74.7958 143.721 74.1287C143.082 73.4489 142.647 72.6144 142.416 71.6253C142.186 70.6362 142.208 69.7017 142.485 68.8218C142.758 67.9292 143.244 67.1743 143.942 66.557C144.65 65.924 145.518 65.4879 146.545 65.2485C147.458 65.0358 148.313 65.0305 149.108 65.2328C149.917 65.4321 150.599 65.8346 151.155 66.4405L149.974 67.658C149.545 67.25 149.068 66.9803 148.542 66.8487C148.017 66.7171 147.469 66.7177 146.898 66.8507C146.239 67.0044 145.677 67.2891 145.212 67.7049C144.76 68.1177 144.446 68.6322 144.269 69.2484C144.101 69.8489 144.099 70.4979 144.261 71.1954C144.427 71.9055 144.719 72.4992 145.137 72.9765C145.566 73.4382 146.074 73.7543 146.662 73.9247C147.262 74.0923 147.892 74.0992 148.552 73.9456C149.122 73.8126 149.614 73.571 150.027 73.2207C150.44 72.8704 150.749 72.4174 150.954 71.8617L152.546 72.4131C152.316 73.2021 151.883 73.8711 151.249 74.4199C150.625 74.9531 149.856 75.3261 148.943 75.5389ZM159.661 73.0412C158.634 73.2806 157.663 73.2729 156.748 73.0182C155.846 72.7606 155.076 72.2982 154.439 71.631C153.8 70.9512 153.364 70.1168 153.134 69.1277C152.903 68.1386 152.926 67.2041 153.203 66.3242C153.476 65.4316 153.962 64.6766 154.66 64.0593C155.368 63.4264 156.236 62.9902 157.263 62.7509C158.176 62.5381 159.03 62.5329 159.826 62.7351C160.635 62.9344 161.317 63.337 161.872 63.9428L160.692 65.1604C160.263 64.7524 159.786 64.4826 159.26 64.351C158.735 64.2194 158.187 64.2201 157.616 64.3531C156.957 64.5067 156.395 64.7914 155.93 65.2072C155.478 65.62 155.164 66.1345 154.987 66.7507C154.819 67.3513 154.816 68.0003 154.979 68.6977C155.144 69.4078 155.437 70.0015 155.855 70.4788C156.284 70.9405 156.792 71.2566 157.38 71.4271C157.98 71.5946 158.61 71.6016 159.27 71.4479C159.84 71.3149 160.332 71.0733 160.745 70.723C161.158 70.3728 161.467 69.9198 161.672 69.364L163.264 69.9154C163.034 70.7045 162.601 71.3734 161.967 71.9223C161.343 72.4555 160.574 72.8285 159.661 73.0412ZM167.331 60.4048C168.726 60.0797 169.87 60.1739 170.766 60.6872C171.673 61.1976 172.285 62.1312 172.601 63.4881L174.02 69.5748L172.289 69.9782L171.979 68.6467C171.784 69.1868 171.43 69.6502 170.919 70.0367C170.417 70.4077 169.779 70.6833 169.006 70.8636C167.877 71.1266 166.907 71.0652 166.095 70.6795C165.296 70.2909 164.793 69.6527 164.586 68.7651C164.379 67.8774 164.537 67.092 165.06 66.4087C165.58 65.7127 166.543 65.2007 167.951 64.8727L170.842 64.1989L170.758 63.8375C170.574 63.0513 170.206 62.5022 169.652 62.1901C169.098 61.878 168.377 61.8254 167.489 62.0323C166.893 62.1711 166.334 62.4085 165.81 62.7444C165.284 63.0676 164.863 63.4398 164.546 63.8611L163.466 62.6689C163.889 62.1293 164.436 61.6675 165.109 61.2835C165.779 60.8868 166.519 60.5939 167.331 60.4048ZM168.982 69.3851C169.68 69.2226 170.247 68.93 170.683 68.5075C171.116 68.0723 171.38 67.5428 171.476 66.9189L171.148 65.5114L168.333 66.1674C166.786 66.5279 166.133 67.2281 166.376 68.2679C166.494 68.7751 166.783 69.1288 167.244 69.3288C167.706 69.5289 168.285 69.5476 168.982 69.3851ZM185.483 62.4113L183.524 62.8679L184.517 67.1286L182.691 67.5541L181.698 63.2934L179.739 63.75L177.955 68.6579L175.786 69.1632L178.034 63.1447L173.703 59.02L175.643 58.5678L179.356 62.1947L181.335 61.7337L180.342 57.473L182.168 57.0475L183.161 61.3082L185.139 60.8472L186.866 55.9526L188.825 55.4961L186.769 61.1291L191.441 65.5152L189.272 66.0205L185.483 62.4113Z" fill="black" fill-opacity="0.2"/>
<path d="M72.3004 144.959L70.0208 135.263L67.0923 144.468L66.2173 144.672L59.5344 137.767L61.7818 147.41L59.9558 147.836L56.8529 134.521L58.4127 134.158L66.1476 142.222L69.4449 131.587L71.0046 131.223L74.1264 144.534L72.3004 144.959ZM75.6173 133.558L77.4433 133.132L79.1543 140.474L83.6252 131.691L85.28 131.306L87.6293 141.387L85.8032 141.812L84.0923 134.47L79.6404 143.249L77.9666 143.639L75.6173 133.558ZM95.5179 139.669C94.5162 139.902 93.5641 139.89 92.6618 139.633C91.7595 139.375 90.99 138.913 90.3532 138.245C89.7262 137.563 89.2974 136.727 89.0669 135.738C88.8364 134.748 88.8529 133.815 89.1165 132.939C89.3898 132.046 89.8757 131.291 90.5741 130.674C91.2695 130.044 92.1181 129.612 93.1199 129.379C94.1217 129.145 95.0674 129.159 95.957 129.419C96.8564 129.664 97.6196 130.128 98.2466 130.811C98.8834 131.478 99.317 132.306 99.5475 133.295C99.778 134.284 99.7566 135.225 99.4833 136.118C99.2197 136.995 98.7402 137.748 98.0448 138.378C97.362 139.005 96.5197 139.435 95.5179 139.669ZM95.1456 138.071C95.7923 137.92 96.3353 137.64 96.7746 137.23C97.2236 136.805 97.5318 136.292 97.6994 135.691C97.8639 135.078 97.865 134.423 97.7025 133.725C97.5399 133.028 97.2508 132.447 96.835 131.982C96.4163 131.505 95.913 131.181 95.3251 131.01C94.7499 130.837 94.139 130.826 93.4922 130.976C92.8455 131.127 92.2962 131.409 91.8443 131.822C91.405 132.231 91.0967 132.744 90.9195 133.361C90.7519 133.961 90.7494 134.61 90.9119 135.308C91.0745 136.005 91.3651 136.592 91.7838 137.07C92.2123 137.531 92.7156 137.855 93.2937 138.041C93.8816 138.212 94.4989 138.222 95.1456 138.071ZM107.779 136.812C106.752 137.051 105.781 137.043 104.866 136.789C103.964 136.531 103.194 136.068 102.558 135.401C101.918 134.722 101.483 133.887 101.252 132.898C101.022 131.909 101.045 130.974 101.321 130.094C101.594 129.202 102.08 128.447 102.778 127.83C103.487 127.197 104.354 126.761 105.381 126.521C106.294 126.308 107.149 126.303 107.945 126.505C108.753 126.705 109.435 127.107 109.991 127.713L108.811 128.931C108.381 128.523 107.904 128.253 107.379 128.121C106.853 127.99 106.305 127.99 105.735 128.123C105.075 128.277 104.513 128.562 104.049 128.978C103.597 129.39 103.282 129.905 103.105 130.521C102.937 131.122 102.935 131.771 103.097 132.468C103.263 133.178 103.555 133.772 103.974 134.249C104.402 134.711 104.91 135.027 105.498 135.197C106.099 135.365 106.729 135.372 107.388 135.218C107.959 135.085 108.45 134.844 108.864 134.493C109.277 134.143 109.585 133.69 109.79 133.134L111.383 133.686C111.152 134.475 110.72 135.144 110.086 135.693C109.461 136.226 108.692 136.599 107.779 136.812ZM119.632 124.985L115.942 125.845L117.919 134.328L116.093 134.754L114.116 126.271L110.426 127.13L110.053 125.533L119.259 123.387L119.632 124.985ZM121.127 122.952L122.953 122.527L124.664 129.869L129.134 121.086L130.789 120.7L133.139 130.782L131.313 131.207L129.602 123.865L125.15 132.643L123.476 133.033L121.127 122.952ZM145.955 117.166L148.305 127.247L146.65 127.633L144.934 120.272L142.618 127.369L141.819 127.556L136.637 122.185L138.357 129.566L136.683 129.956L134.334 119.875L136.217 119.436L141.76 125.323L144.244 117.565L145.955 117.166ZM158.507 114.241L156.202 126.47C156.011 127.597 155.672 128.438 155.186 128.993C154.713 129.544 154.07 129.915 153.259 130.104C152.764 130.219 152.263 130.249 151.756 130.193C151.264 130.147 150.83 130.008 150.455 129.774L150.916 128.223C151.551 128.597 152.211 128.703 152.895 128.544C153.339 128.44 153.679 128.234 153.914 127.925C154.166 127.626 154.345 127.163 154.453 126.537L154.612 125.757L147.817 116.732L149.719 116.289L155.117 123.534L156.719 114.658L158.507 114.241ZM168.492 111.914L170.841 121.996L169.015 122.421L167.038 113.938L162.701 114.948L163.11 117.219C163.363 118.591 163.507 119.754 163.542 120.708C163.575 121.65 163.451 122.441 163.173 123.081C162.894 123.721 162.393 124.125 161.671 124.293C161.341 124.37 160.953 124.4 160.508 124.383L160.263 122.816C160.437 122.816 160.594 122.799 160.733 122.767C161.24 122.649 161.569 122.338 161.719 121.835C161.87 121.332 161.912 120.768 161.846 120.141C161.78 119.515 161.648 118.63 161.448 117.486L160.75 113.718L168.492 111.914ZM180.107 109.208L182.456 119.289L180.82 119.67L180.075 116.475L177.146 117.157L176.937 117.206L175.475 120.916L173.516 121.372L175.167 117.358C174.353 117.307 173.683 117.068 173.156 116.643C172.626 116.205 172.27 115.593 172.086 114.807C171.817 113.653 172.007 112.686 172.654 111.907C173.298 111.115 174.312 110.558 175.694 110.236L180.107 109.208ZM173.964 114.429C174.12 115.102 174.446 115.554 174.942 115.786C175.447 116.002 176.124 116.012 176.974 115.814L179.77 115.162L178.843 111.187L176.123 111.821C174.373 112.228 173.653 113.098 173.964 114.429ZM196.412 114.352L197.348 118.365L195.617 118.769L195.054 116.353L186.019 118.459L183.669 108.378L185.495 107.952L187.472 116.435L192.988 115.15L191.012 106.667L192.838 106.241L194.814 114.724L196.412 114.352ZM196.802 105.317L198.628 104.892L200.339 112.234L204.81 103.451L206.465 103.065L208.814 113.147L206.988 113.572L205.277 106.23L200.825 115.008L199.151 115.398L196.802 105.317ZM218.093 100.356L220.442 110.437L218.806 110.818L218.062 107.622L215.133 108.305L214.923 108.354L213.462 112.063L211.502 112.52L213.154 108.505C212.34 108.454 211.669 108.216 211.142 107.791C210.612 107.353 210.256 106.741 210.073 105.955C209.804 104.801 209.993 103.834 210.64 103.055C211.285 102.263 212.298 101.706 213.68 101.384L218.093 100.356ZM211.95 105.577C212.107 106.249 212.433 106.702 212.928 106.934C213.433 107.15 214.11 107.16 214.96 106.962L217.756 106.31L216.83 102.335L214.11 102.968C212.36 103.376 211.64 104.246 211.95 105.577Z" fill="#9419FF"/>
<path d="M72.3004 144.959L70.0208 135.263L67.0923 144.468L66.2173 144.672L59.5344 137.767L61.7818 147.41L59.9558 147.836L56.8529 134.521L58.4127 134.158L66.1476 142.222L69.4449 131.587L71.0046 131.223L74.1264 144.534L72.3004 144.959ZM75.6173 133.558L77.4433 133.132L79.1543 140.474L83.6252 131.691L85.28 131.306L87.6293 141.387L85.8032 141.812L84.0923 134.47L79.6404 143.249L77.9666 143.639L75.6173 133.558ZM95.5179 139.669C94.5162 139.902 93.5641 139.89 92.6618 139.633C91.7595 139.375 90.99 138.913 90.3532 138.245C89.7262 137.563 89.2974 136.727 89.0669 135.738C88.8364 134.748 88.8529 133.815 89.1165 132.939C89.3898 132.046 89.8757 131.291 90.5741 130.674C91.2695 130.044 92.1181 129.612 93.1199 129.379C94.1217 129.145 95.0674 129.159 95.957 129.419C96.8564 129.664 97.6196 130.128 98.2466 130.811C98.8834 131.478 99.317 132.306 99.5475 133.295C99.778 134.284 99.7566 135.225 99.4833 136.118C99.2197 136.995 98.7402 137.748 98.0448 138.378C97.362 139.005 96.5197 139.435 95.5179 139.669ZM95.1456 138.071C95.7923 137.92 96.3353 137.64 96.7746 137.23C97.2236 136.805 97.5318 136.292 97.6994 135.691C97.8639 135.078 97.865 134.423 97.7025 133.725C97.5399 133.028 97.2508 132.447 96.835 131.982C96.4163 131.505 95.913 131.181 95.3251 131.01C94.7499 130.837 94.139 130.826 93.4922 130.976C92.8455 131.127 92.2962 131.409 91.8443 131.822C91.405 132.231 91.0967 132.744 90.9195 133.361C90.7519 133.961 90.7494 134.61 90.9119 135.308C91.0745 136.005 91.3651 136.592 91.7838 137.07C92.2123 137.531 92.7156 137.855 93.2937 138.041C93.8816 138.212 94.4989 138.222 95.1456 138.071ZM107.779 136.812C106.752 137.051 105.781 137.043 104.866 136.789C103.964 136.531 103.194 136.068 102.558 135.401C101.918 134.722 101.483 133.887 101.252 132.898C101.022 131.909 101.045 130.974 101.321 130.094C101.594 129.202 102.08 128.447 102.778 127.83C103.487 127.197 104.354 126.761 105.381 126.521C106.294 126.308 107.149 126.303 107.945 126.505C108.753 126.705 109.435 127.107 109.991 127.713L108.811 128.931C108.381 128.523 107.904 128.253 107.379 128.121C106.853 127.99 106.305 127.99 105.735 128.123C105.075 128.277 104.513 128.562 104.049 128.978C103.597 129.39 103.282 129.905 103.105 130.521C102.937 131.122 102.935 131.771 103.097 132.468C103.263 133.178 103.555 133.772 103.974 134.249C104.402 134.711 104.91 135.027 105.498 135.197C106.099 135.365 106.729 135.372 107.388 135.218C107.959 135.085 108.45 134.844 108.864 134.493C109.277 134.143 109.585 133.69 109.79 133.134L111.383 133.686C111.152 134.475 110.72 135.144 110.086 135.693C109.461 136.226 108.692 136.599 107.779 136.812ZM119.632 124.985L115.942 125.845L117.919 134.328L116.093 134.754L114.116 126.271L110.426 127.13L110.053 125.533L119.259 123.387L119.632 124.985ZM121.127 122.952L122.953 122.527L124.664 129.869L129.134 121.086L130.789 120.7L133.139 130.782L131.313 131.207L129.602 123.865L125.15 132.643L123.476 133.033L121.127 122.952ZM145.955 117.166L148.305 127.247L146.65 127.633L144.934 120.272L142.618 127.369L141.819 127.556L136.637 122.185L138.357 129.566L136.683 129.956L134.334 119.875L136.217 119.436L141.76 125.323L144.244 117.565L145.955 117.166ZM158.507 114.241L156.202 126.47C156.011 127.597 155.672 128.438 155.186 128.993C154.713 129.544 154.07 129.915 153.259 130.104C152.764 130.219 152.263 130.249 151.756 130.193C151.264 130.147 150.83 130.008 150.455 129.774L150.916 128.223C151.551 128.597 152.211 128.703 152.895 128.544C153.339 128.44 153.679 128.234 153.914 127.925C154.166 127.626 154.345 127.163 154.453 126.537L154.612 125.757L147.817 116.732L149.719 116.289L155.117 123.534L156.719 114.658L158.507 114.241ZM168.492 111.914L170.841 121.996L169.015 122.421L167.038 113.938L162.701 114.948L163.11 117.219C163.363 118.591 163.507 119.754 163.542 120.708C163.575 121.65 163.451 122.441 163.173 123.081C162.894 123.721 162.393 124.125 161.671 124.293C161.341 124.37 160.953 124.4 160.508 124.383L160.263 122.816C160.437 122.816 160.594 122.799 160.733 122.767C161.24 122.649 161.569 122.338 161.719 121.835C161.87 121.332 161.912 120.768 161.846 120.141C161.78 119.515 161.648 118.63 161.448 117.486L160.75 113.718L168.492 111.914ZM180.107 109.208L182.456 119.289L180.82 119.67L180.075 116.475L177.146 117.157L176.937 117.206L175.475 120.916L173.516 121.372L175.167 117.358C174.353 117.307 173.683 117.068 173.156 116.643C172.626 116.205 172.27 115.593 172.086 114.807C171.817 113.653 172.007 112.686 172.654 111.907C173.298 111.115 174.312 110.558 175.694 110.236L180.107 109.208ZM173.964 114.429C174.12 115.102 174.446 115.554 174.942 115.786C175.447 116.002 176.124 116.012 176.974 115.814L179.77 115.162L178.843 111.187L176.123 111.821C174.373 112.228 173.653 113.098 173.964 114.429ZM196.412 114.352L197.348 118.365L195.617 118.769L195.054 116.353L186.019 118.459L183.669 108.378L185.495 107.952L187.472 116.435L192.988 115.15L191.012 106.667L192.838 106.241L194.814 114.724L196.412 114.352ZM196.802 105.317L198.628 104.892L200.339 112.234L204.81 103.451L206.465 103.065L208.814 113.147L206.988 113.572L205.277 106.23L200.825 115.008L199.151 115.398L196.802 105.317ZM218.093 100.356L220.442 110.437L218.806 110.818L218.062 107.622L215.133 108.305L214.923 108.354L213.462 112.063L211.502 112.52L213.154 108.505C212.34 108.454 211.669 108.216 211.142 107.791C210.612 107.353 210.256 106.741 210.073 105.955C209.804 104.801 209.993 103.834 210.64 103.055C211.285 102.263 212.298 101.706 213.68 101.384L218.093 100.356ZM211.95 105.577C212.107 106.249 212.433 106.702 212.928 106.934C213.433 107.15 214.11 107.16 214.96 106.962L217.756 106.31L216.83 102.335L214.11 102.968C212.36 103.376 211.64 104.246 211.95 105.577Z" fill="black" fill-opacity="0.2"/>
<path d="M94.9712 188.856C93.6397 189.167 92.3671 189.156 91.1533 188.824C89.9492 188.476 88.9232 187.859 88.0751 186.974C87.2241 186.076 86.6479 184.98 86.3465 183.687C86.0451 182.394 86.0791 181.162 86.4484 179.993C86.8147 178.812 87.4689 177.804 88.4108 176.969C89.3498 176.122 90.485 175.543 91.8165 175.233C92.8563 174.991 93.8487 174.947 94.7937 175.101C95.7358 175.242 96.591 175.584 97.3592 176.127L96.4021 177.614C95.155 176.795 93.7834 176.559 92.287 176.908C91.2979 177.139 90.4557 177.569 89.7602 178.199C89.0648 178.829 88.5804 179.59 88.3071 180.483C88.0435 181.36 88.024 182.28 88.2486 183.244C88.4732 184.207 88.899 185.031 89.5261 185.713C90.1628 186.381 90.9324 186.843 91.8347 187.101C92.737 187.358 93.6827 187.372 94.6718 187.141C96.1554 186.796 97.2803 185.972 98.0466 184.67L99.5622 185.581C99.1131 186.407 98.4924 187.1 97.7002 187.659C96.9207 188.215 96.011 188.614 94.9712 188.856ZM108.147 180.111C109.53 180.136 110.374 180.802 110.678 182.108C110.885 182.995 110.709 183.759 110.149 184.397C109.602 185.033 108.669 185.504 107.35 185.811L102.5 186.942L100.15 176.86L104.829 175.77C106.021 175.492 107.007 175.503 107.785 175.803C108.561 176.09 109.044 176.646 109.236 177.47C109.361 178.003 109.323 178.5 109.123 178.961C108.932 179.406 108.607 179.79 108.147 180.111ZM102.949 180.781L105.688 180.142C106.385 179.98 106.882 179.73 107.178 179.394C107.487 179.055 107.585 178.644 107.473 178.162C107.248 177.198 106.426 176.882 105.005 177.213L102.266 177.851L102.949 180.781ZM106.889 184.435C107.65 184.257 108.192 184.004 108.516 183.674C108.841 183.345 108.944 182.926 108.826 182.419C108.704 181.899 108.437 181.554 108.023 181.383C107.621 181.209 107.046 181.209 106.298 181.384L103.255 182.093L103.96 185.117L106.889 184.435ZM122.133 177.112C122.166 177.252 122.196 177.438 122.224 177.673L114.045 179.579C114.366 180.44 114.919 181.066 115.706 181.458C116.502 181.834 117.395 181.906 118.384 181.676C119.588 181.395 120.464 180.763 121.01 179.78L122.293 180.725C121.961 181.364 121.485 181.902 120.865 182.341C120.258 182.777 119.536 183.092 118.699 183.287C117.634 183.535 116.639 183.54 115.714 183.301C114.786 183.049 114.003 182.583 113.363 181.903C112.736 181.221 112.307 180.385 112.077 179.395C111.849 178.419 111.859 177.488 112.107 176.601C112.368 175.711 112.828 174.962 113.489 174.354C114.159 173.73 114.976 173.305 115.939 173.081C116.903 172.856 117.811 172.879 118.662 173.148C119.524 173.402 120.255 173.873 120.857 174.562C121.471 175.248 121.897 176.098 122.133 177.112ZM116.299 174.621C115.424 174.825 114.75 175.263 114.278 175.934C113.819 176.603 113.639 177.38 113.739 178.266L120.206 176.759C119.906 175.933 119.397 175.323 118.677 174.93C117.966 174.52 117.173 174.418 116.299 174.621ZM131.236 171.301L127.546 172.161L129.523 180.644L127.697 181.07L125.72 172.586L122.03 173.446L121.658 171.848L130.864 169.703L131.236 171.301ZM138.979 178.561C137.977 178.794 137.025 178.782 136.123 178.525C135.221 178.267 134.451 177.805 133.814 177.137C133.187 176.455 132.759 175.619 132.528 174.63C132.298 173.64 132.314 172.707 132.578 171.831C132.851 170.938 133.337 170.183 134.035 169.566C134.731 168.936 135.579 168.504 136.581 168.271C137.583 168.037 138.528 168.051 139.418 168.311C140.317 168.556 141.081 169.02 141.708 169.703C142.344 170.37 142.778 171.198 143.009 172.187C143.239 173.176 143.218 174.117 142.944 175.01C142.681 175.887 142.201 176.64 141.506 177.27C140.823 177.897 139.981 178.327 138.979 178.561ZM138.607 176.963C139.253 176.812 139.796 176.532 140.236 176.122C140.685 175.697 140.993 175.184 141.16 174.583C141.325 173.97 141.326 173.315 141.164 172.617C141.001 171.92 140.712 171.339 140.296 170.874C139.877 170.397 139.374 170.073 138.786 169.902C138.211 169.729 137.6 169.718 136.953 169.868C136.307 170.019 135.757 170.301 135.305 170.714C134.866 171.123 134.558 171.636 134.381 172.253C134.213 172.853 134.211 173.502 134.373 174.2C134.536 174.897 134.826 175.484 135.245 175.962C135.673 176.423 136.177 176.747 136.755 176.933C137.343 177.104 137.96 177.114 138.607 176.963ZM151.985 166.466L148.295 167.326L150.272 175.809L148.446 176.234L146.469 167.751L142.779 168.611L142.406 167.013L151.613 164.868L151.985 166.466ZM163.333 167.511C163.365 167.651 163.396 167.837 163.423 168.072L155.244 169.978C155.565 170.839 156.119 171.465 156.906 171.857C157.702 172.233 158.594 172.305 159.583 172.075C160.788 171.794 161.664 171.162 162.21 170.179L163.493 171.124C163.161 171.763 162.684 172.301 162.065 172.74C161.458 173.175 160.736 173.491 159.899 173.686C158.834 173.934 157.839 173.939 156.914 173.7C155.986 173.448 155.203 172.982 154.563 172.302C153.936 171.619 153.507 170.784 153.277 169.794C153.049 168.818 153.059 167.886 153.307 167C153.568 166.11 154.028 165.361 154.689 164.753C155.359 164.129 156.176 163.704 157.139 163.48C158.103 163.255 159.011 163.278 159.862 163.547C160.724 163.801 161.455 164.272 162.057 164.961C162.671 165.647 163.097 166.497 163.333 167.511ZM157.498 165.02C156.623 165.224 155.95 165.662 155.478 166.333C155.019 167.002 154.839 167.779 154.939 168.665L161.406 167.158C161.106 166.332 160.596 165.722 159.876 165.329C159.166 164.919 158.373 164.816 157.498 165.02ZM170.301 160.413C171.277 160.185 172.202 160.197 173.076 160.448C173.95 160.699 174.693 161.161 175.304 161.834C175.928 162.504 176.359 163.346 176.595 164.36C176.831 165.375 176.819 166.327 176.559 167.217C176.308 168.091 175.846 168.833 175.173 169.445C174.5 170.056 173.675 170.475 172.699 170.703C171.976 170.871 171.278 170.887 170.604 170.75C169.943 170.61 169.341 170.322 168.798 169.887L170.013 175.099L168.187 175.525L164.978 161.753L166.728 161.346L167.1 162.943C167.376 162.291 167.792 161.753 168.348 161.329C168.902 160.892 169.552 160.587 170.301 160.413ZM172.174 169.141C172.821 168.99 173.364 168.71 173.803 168.3C174.252 167.874 174.56 167.361 174.728 166.761C174.905 166.145 174.912 165.488 174.75 164.79C174.587 164.093 174.292 163.513 173.863 163.052C173.445 162.574 172.941 162.25 172.354 162.08C171.778 161.907 171.167 161.895 170.521 162.046C169.887 162.194 169.345 162.48 168.896 162.906C168.457 163.316 168.147 163.822 167.967 164.426C167.799 165.026 167.797 165.675 167.959 166.373C168.122 167.07 168.413 167.658 168.831 168.135C169.247 168.6 169.75 168.923 170.341 169.107C170.929 169.277 171.54 169.288 172.174 169.141ZM181.553 157.79C182.948 157.465 184.093 157.559 184.988 158.073C185.896 158.583 186.508 159.517 186.824 160.874L188.242 166.96L186.512 167.364L186.201 166.032C186.006 166.572 185.653 167.036 185.141 167.422C184.64 167.793 184.002 168.069 183.229 168.249C182.1 168.512 181.13 168.451 180.318 168.065C179.519 167.676 179.016 167.038 178.809 166.151C178.602 165.263 178.76 164.478 179.283 163.794C179.802 163.098 180.766 162.586 182.173 162.258L185.065 161.585L184.98 161.223C184.797 160.437 184.428 159.888 183.874 159.576C183.32 159.264 182.6 159.211 181.712 159.418C181.116 159.557 180.556 159.794 180.033 160.13C179.507 160.453 179.085 160.825 178.769 161.247L177.689 160.055C178.111 159.515 178.659 159.053 179.332 158.669C180.001 158.272 180.742 157.979 181.553 157.79ZM183.205 166.771C183.902 166.608 184.469 166.316 184.905 165.893C185.339 165.458 185.603 164.928 185.698 164.305L185.37 162.897L182.555 163.553C181.008 163.914 180.356 164.614 180.598 165.654C180.716 166.161 181.006 166.514 181.467 166.714C181.928 166.914 182.507 166.933 183.205 166.771ZM198.521 153.937L200.87 164.018L199.044 164.443L197.067 155.96L191.38 157.285L193.357 165.769L191.531 166.194L189.181 156.113L198.521 153.937ZM202.054 153.113L203.88 152.688L205.591 160.03L210.062 151.247L211.717 150.861L214.066 160.943L212.24 161.368L210.529 154.026L206.077 162.804L204.403 163.194L202.054 153.113ZM223.345 148.152L225.694 158.233L224.058 158.614L223.314 155.419L220.384 156.101L220.175 156.15L218.713 159.86L216.754 160.316L218.406 156.302C217.592 156.251 216.921 156.012 216.394 155.587C215.864 155.149 215.508 154.537 215.325 153.751C215.056 152.597 215.245 151.63 215.892 150.851C216.537 150.059 217.55 149.502 218.932 149.18L223.345 148.152ZM217.202 153.373C217.359 154.045 217.684 154.498 218.18 154.73C218.685 154.946 219.362 154.956 220.212 154.758L223.008 154.106L222.081 150.131L219.361 150.765C217.611 151.172 216.892 152.042 217.202 153.373ZM83.557 211.507L81.4647 211.994L82.4576 216.255L80.6316 216.681L78.2823 206.6L80.1083 206.174L81.1012 210.435L83.2316 209.938L85.5103 204.915L87.4695 204.459L84.7766 210.2L90.085 214.478L87.9357 214.979L83.557 211.507ZM94.9731 202.61C95.9495 202.382 96.8747 202.394 97.7487 202.645C98.6227 202.896 99.3654 203.358 99.9768 204.031C100.601 204.701 101.031 205.543 101.268 206.557C101.504 207.572 101.492 208.524 101.231 209.414C100.98 210.288 100.518 211.03 99.8453 211.642C99.1723 212.253 98.3475 212.673 97.3711 212.9C96.6483 213.069 95.9501 213.084 95.2764 212.947C94.6154 212.807 94.0136 212.519 93.471 212.084L94.6856 217.296L92.8595 217.722L89.6504 203.95L91.4003 203.543L91.7726 205.14C92.0484 204.488 92.4644 203.95 93.0208 203.526C93.5742 203.089 94.2249 202.784 94.9731 202.61ZM96.8466 211.338C97.4933 211.187 98.0363 210.907 98.4756 210.497C98.9246 210.071 99.2328 209.558 99.4004 208.958C99.5776 208.342 99.585 207.685 99.4225 206.987C99.26 206.29 98.9645 205.71 98.536 205.249C98.1173 204.771 97.614 204.448 97.0261 204.277C96.4509 204.104 95.84 204.092 95.1933 204.243C94.5592 204.391 94.0177 204.677 93.5687 205.103C93.1295 205.513 92.8197 206.019 92.6395 206.623C92.472 207.223 92.4695 207.872 92.632 208.57C92.7945 209.267 93.0851 209.855 93.5039 210.332C93.9196 210.797 94.4229 211.12 95.0138 211.304C95.6016 211.474 96.2126 211.486 96.8466 211.338ZM106.226 199.987C107.621 199.662 108.766 199.757 109.661 200.27C110.568 200.78 111.18 201.714 111.497 203.071L112.915 209.157L111.184 209.561L110.874 208.229C110.679 208.769 110.326 209.233 109.814 209.619C109.312 209.99 108.675 210.266 107.901 210.446C106.772 210.709 105.802 210.648 104.99 210.262C104.191 209.874 103.688 209.235 103.481 208.348C103.275 207.46 103.432 206.675 103.955 205.991C104.475 205.295 105.438 204.783 106.846 204.455L109.737 203.782L109.653 203.42C109.47 202.634 109.101 202.085 108.547 201.773C107.993 201.461 107.272 201.408 106.384 201.615C105.789 201.754 105.229 201.991 104.705 202.327C104.179 202.65 103.758 203.022 103.442 203.444L102.362 202.252C102.784 201.712 103.331 201.25 104.004 200.866C104.674 200.469 105.414 200.177 106.226 199.987ZM107.877 208.968C108.575 208.805 109.142 208.513 109.578 208.09C110.011 207.655 110.276 207.125 110.371 206.502L110.043 205.094L107.228 205.75C105.681 206.111 105.028 206.811 105.271 207.851C105.389 208.358 105.679 208.711 106.14 208.911C106.601 209.112 107.18 209.13 107.877 208.968ZM120.624 207.481C119.596 207.721 118.625 207.713 117.71 207.458C116.808 207.201 116.039 206.738 115.402 206.071C114.762 205.391 114.327 204.557 114.096 203.568C113.866 202.579 113.889 201.644 114.165 200.764C114.438 199.872 114.924 199.117 115.623 198.5C116.331 197.867 117.198 197.43 118.226 197.191C119.139 196.978 119.993 196.973 120.789 197.175C121.597 197.375 122.279 197.777 122.835 198.383L121.655 199.601C121.225 199.193 120.748 198.923 120.223 198.791C119.697 198.66 119.15 198.66 118.579 198.793C117.919 198.947 117.357 199.232 116.893 199.647C116.441 200.06 116.126 200.575 115.949 201.191C115.781 201.791 115.779 202.44 115.942 203.138C116.107 203.848 116.399 204.442 116.818 204.919C117.246 205.381 117.754 205.697 118.342 205.867C118.943 206.035 119.573 206.042 120.232 205.888C120.803 205.755 121.295 205.513 121.708 205.163C122.121 204.813 122.43 204.36 122.634 203.804L124.227 204.356C123.996 205.145 123.564 205.814 122.93 206.362C122.305 206.896 121.537 207.269 120.624 207.481ZM124.72 195.778L126.546 195.352L127.544 199.632L133.288 198.293L132.291 194.014L134.117 193.588L136.466 203.669L134.64 204.095L133.656 199.872L127.912 201.211L128.896 205.433L127.07 205.859L124.72 195.778ZM143.011 195.125C144.282 194.842 145.32 194.908 146.125 195.322C146.93 195.736 147.454 196.463 147.696 197.503C147.951 198.593 147.779 199.522 147.183 200.29C146.596 201.041 145.622 201.569 144.263 201.872L140.017 202.842L137.667 192.761L139.493 192.335L140.287 195.74L143.011 195.125ZM147.634 190.438L149.46 190.012L151.81 200.094L149.984 200.519L147.634 190.438ZM143.806 200.515C144.633 200.335 145.216 200.026 145.555 199.586C145.906 199.143 146.004 198.586 145.847 197.914C145.693 197.254 145.372 196.821 144.882 196.614C144.393 196.407 143.728 196.395 142.888 196.578L140.597 197.071L141.519 201.028L143.806 200.515ZM164.632 186.477L166.982 196.558L165.327 196.944L163.611 189.583L161.295 196.68L160.496 196.866L155.314 191.496L157.034 198.876L155.36 199.266L153.01 189.185L154.894 188.746L160.437 194.634L162.92 186.876L164.632 186.477ZM186.037 190.433L186.973 194.446L185.242 194.85L184.679 192.434L175.644 194.539L173.295 184.458L175.121 184.033L177.098 192.516L182.614 191.231L180.637 182.747L182.463 182.322L184.44 190.805L186.037 190.433ZM194.424 184.648C195.807 184.673 196.651 185.339 196.955 186.645C197.162 187.533 196.986 188.296 196.426 188.934C195.879 189.57 194.946 190.041 193.627 190.349L188.777 191.479L186.427 181.398L191.106 180.307C192.298 180.03 193.284 180.041 194.062 180.341C194.838 180.628 195.321 181.184 195.513 182.008C195.638 182.54 195.6 183.037 195.4 183.498C195.209 183.944 194.884 184.327 194.424 184.648ZM189.226 185.318L191.965 184.68C192.662 184.517 193.159 184.268 193.455 183.931C193.764 183.592 193.862 183.181 193.75 182.7C193.525 181.736 192.703 181.42 191.282 181.75L188.543 182.389L189.226 185.318ZM193.166 188.972C193.927 188.795 194.469 188.541 194.793 188.212C195.118 187.882 195.221 187.464 195.103 186.957C194.981 186.437 194.714 186.091 194.3 185.92C193.898 185.747 193.323 185.747 192.575 185.921L189.532 186.63L190.237 189.655L193.166 188.972ZM208.41 181.65C208.443 181.789 208.473 181.976 208.501 182.21L200.322 184.116C200.643 184.977 201.196 185.603 201.983 185.995C202.779 186.371 203.672 186.444 204.661 186.213C205.865 185.933 206.741 185.301 207.287 184.318L208.57 185.262C208.238 185.901 207.762 186.44 207.142 186.878C206.535 187.314 205.813 187.629 204.976 187.824C203.911 188.073 202.916 188.077 201.991 187.838C201.063 187.586 200.28 187.121 199.64 186.441C199.013 185.758 198.584 184.922 198.354 183.933C198.126 182.956 198.136 182.025 198.384 181.138C198.645 180.249 199.105 179.5 199.766 178.891C200.436 178.267 201.253 177.843 202.216 177.618C203.18 177.394 204.088 177.416 204.939 177.685C205.801 177.939 206.532 178.411 207.134 179.099C207.748 179.785 208.174 180.635 208.41 181.65ZM202.576 179.159C201.701 179.363 201.027 179.8 200.555 180.472C200.096 181.14 199.916 181.918 200.016 182.804L206.483 181.297C206.183 180.471 205.674 179.861 204.954 179.467C204.243 179.058 203.45 178.955 202.576 179.159ZM217.513 175.838L213.823 176.698L215.8 185.182L213.974 185.607L211.997 177.124L208.307 177.984L207.935 176.386L217.141 174.24L217.513 175.838ZM225.256 183.098C224.254 183.332 223.302 183.32 222.4 183.062C221.498 182.804 220.728 182.342 220.091 181.675C219.464 180.992 219.036 180.156 218.805 179.167C218.575 178.178 218.591 177.245 218.855 176.368C219.128 175.475 219.614 174.72 220.312 174.103C221.008 173.473 221.856 173.041 222.858 172.808C223.86 172.574 224.805 172.588 225.695 172.849C226.594 173.094 227.358 173.558 227.985 174.24C228.621 174.907 229.055 175.736 229.286 176.725C229.516 177.714 229.495 178.655 229.221 179.547C228.958 180.424 228.478 181.178 227.783 181.808C227.1 182.435 226.258 182.865 225.256 183.098ZM224.884 181.501C225.53 181.35 226.073 181.07 226.513 180.66C226.962 180.234 227.27 179.721 227.437 179.121C227.602 178.507 227.603 177.852 227.441 177.155C227.278 176.457 226.989 175.876 226.573 175.412C226.154 174.934 225.651 174.61 225.063 174.44C224.488 174.266 223.877 174.255 223.23 174.406C222.584 174.556 222.034 174.838 221.582 175.251C221.143 175.661 220.835 176.174 220.658 176.79C220.49 177.391 220.488 178.04 220.65 178.737C220.813 179.434 221.103 180.022 221.522 180.499C221.95 180.961 222.454 181.285 223.032 181.471C223.62 181.641 224.237 181.651 224.884 181.501ZM242.37 168.361L244.719 178.442L243.064 178.828L241.349 171.467L239.032 178.564L238.233 178.751L233.051 173.381L234.771 180.761L233.097 181.151L230.748 171.07L232.631 170.631L238.174 176.518L240.658 168.76L242.37 168.361Z" fill="#9419FF"/>
<path d="M94.9712 188.856C93.6397 189.167 92.3671 189.156 91.1533 188.824C89.9492 188.476 88.9232 187.859 88.0751 186.974C87.2241 186.076 86.6479 184.98 86.3465 183.687C86.0451 182.394 86.0791 181.162 86.4484 179.993C86.8147 178.812 87.4689 177.804 88.4108 176.969C89.3498 176.122 90.485 175.543 91.8165 175.233C92.8563 174.991 93.8487 174.947 94.7937 175.101C95.7358 175.242 96.591 175.584 97.3592 176.127L96.4021 177.614C95.155 176.795 93.7834 176.559 92.287 176.908C91.2979 177.139 90.4557 177.569 89.7602 178.199C89.0648 178.829 88.5804 179.59 88.3071 180.483C88.0435 181.36 88.024 182.28 88.2486 183.244C88.4732 184.207 88.899 185.031 89.5261 185.713C90.1628 186.381 90.9324 186.843 91.8347 187.101C92.737 187.358 93.6827 187.372 94.6718 187.141C96.1554 186.796 97.2803 185.972 98.0466 184.67L99.5622 185.581C99.1131 186.407 98.4924 187.1 97.7002 187.659C96.9207 188.215 96.011 188.614 94.9712 188.856ZM108.147 180.111C109.53 180.136 110.374 180.802 110.678 182.108C110.885 182.995 110.709 183.759 110.149 184.397C109.602 185.033 108.669 185.504 107.35 185.811L102.5 186.942L100.15 176.86L104.829 175.77C106.021 175.492 107.007 175.503 107.785 175.803C108.561 176.09 109.044 176.646 109.236 177.47C109.361 178.003 109.323 178.5 109.123 178.961C108.932 179.406 108.607 179.79 108.147 180.111ZM102.949 180.781L105.688 180.142C106.385 179.98 106.882 179.73 107.178 179.394C107.487 179.055 107.585 178.644 107.473 178.162C107.248 177.198 106.426 176.882 105.005 177.213L102.266 177.851L102.949 180.781ZM106.889 184.435C107.65 184.257 108.192 184.004 108.516 183.674C108.841 183.345 108.944 182.926 108.826 182.419C108.704 181.899 108.437 181.554 108.023 181.383C107.621 181.209 107.046 181.209 106.298 181.384L103.255 182.093L103.96 185.117L106.889 184.435ZM122.133 177.112C122.166 177.252 122.196 177.438 122.224 177.673L114.045 179.579C114.366 180.44 114.919 181.066 115.706 181.458C116.502 181.834 117.395 181.906 118.384 181.676C119.588 181.395 120.464 180.763 121.01 179.78L122.293 180.725C121.961 181.364 121.485 181.902 120.865 182.341C120.258 182.777 119.536 183.092 118.699 183.287C117.634 183.535 116.639 183.54 115.714 183.301C114.786 183.049 114.003 182.583 113.363 181.903C112.736 181.221 112.307 180.385 112.077 179.395C111.849 178.419 111.859 177.488 112.107 176.601C112.368 175.711 112.828 174.962 113.489 174.354C114.159 173.73 114.976 173.305 115.939 173.081C116.903 172.856 117.811 172.879 118.662 173.148C119.524 173.402 120.255 173.873 120.857 174.562C121.471 175.248 121.897 176.098 122.133 177.112ZM116.299 174.621C115.424 174.825 114.75 175.263 114.278 175.934C113.819 176.603 113.639 177.38 113.739 178.266L120.206 176.759C119.906 175.933 119.397 175.323 118.677 174.93C117.966 174.52 117.173 174.418 116.299 174.621ZM131.236 171.301L127.546 172.161L129.523 180.644L127.697 181.07L125.72 172.586L122.03 173.446L121.658 171.848L130.864 169.703L131.236 171.301ZM138.979 178.561C137.977 178.794 137.025 178.782 136.123 178.525C135.221 178.267 134.451 177.805 133.814 177.137C133.187 176.455 132.759 175.619 132.528 174.63C132.298 173.64 132.314 172.707 132.578 171.831C132.851 170.938 133.337 170.183 134.035 169.566C134.731 168.936 135.579 168.504 136.581 168.271C137.583 168.037 138.528 168.051 139.418 168.311C140.317 168.556 141.081 169.02 141.708 169.703C142.344 170.37 142.778 171.198 143.009 172.187C143.239 173.176 143.218 174.117 142.944 175.01C142.681 175.887 142.201 176.64 141.506 177.27C140.823 177.897 139.981 178.327 138.979 178.561ZM138.607 176.963C139.253 176.812 139.796 176.532 140.236 176.122C140.685 175.697 140.993 175.184 141.16 174.583C141.325 173.97 141.326 173.315 141.164 172.617C141.001 171.92 140.712 171.339 140.296 170.874C139.877 170.397 139.374 170.073 138.786 169.902C138.211 169.729 137.6 169.718 136.953 169.868C136.307 170.019 135.757 170.301 135.305 170.714C134.866 171.123 134.558 171.636 134.381 172.253C134.213 172.853 134.211 173.502 134.373 174.2C134.536 174.897 134.826 175.484 135.245 175.962C135.673 176.423 136.177 176.747 136.755 176.933C137.343 177.104 137.96 177.114 138.607 176.963ZM151.985 166.466L148.295 167.326L150.272 175.809L148.446 176.234L146.469 167.751L142.779 168.611L142.406 167.013L151.613 164.868L151.985 166.466ZM163.333 167.511C163.365 167.651 163.396 167.837 163.423 168.072L155.244 169.978C155.565 170.839 156.119 171.465 156.906 171.857C157.702 172.233 158.594 172.305 159.583 172.075C160.788 171.794 161.664 171.162 162.21 170.179L163.493 171.124C163.161 171.763 162.684 172.301 162.065 172.74C161.458 173.175 160.736 173.491 159.899 173.686C158.834 173.934 157.839 173.939 156.914 173.7C155.986 173.448 155.203 172.982 154.563 172.302C153.936 171.619 153.507 170.784 153.277 169.794C153.049 168.818 153.059 167.886 153.307 167C153.568 166.11 154.028 165.361 154.689 164.753C155.359 164.129 156.176 163.704 157.139 163.48C158.103 163.255 159.011 163.278 159.862 163.547C160.724 163.801 161.455 164.272 162.057 164.961C162.671 165.647 163.097 166.497 163.333 167.511ZM157.498 165.02C156.623 165.224 155.95 165.662 155.478 166.333C155.019 167.002 154.839 167.779 154.939 168.665L161.406 167.158C161.106 166.332 160.596 165.722 159.876 165.329C159.166 164.919 158.373 164.816 157.498 165.02ZM170.301 160.413C171.277 160.185 172.202 160.197 173.076 160.448C173.95 160.699 174.693 161.161 175.304 161.834C175.928 162.504 176.359 163.346 176.595 164.36C176.831 165.375 176.819 166.327 176.559 167.217C176.308 168.091 175.846 168.833 175.173 169.445C174.5 170.056 173.675 170.475 172.699 170.703C171.976 170.871 171.278 170.887 170.604 170.75C169.943 170.61 169.341 170.322 168.798 169.887L170.013 175.099L168.187 175.525L164.978 161.753L166.728 161.346L167.1 162.943C167.376 162.291 167.792 161.753 168.348 161.329C168.902 160.892 169.552 160.587 170.301 160.413ZM172.174 169.141C172.821 168.99 173.364 168.71 173.803 168.3C174.252 167.874 174.56 167.361 174.728 166.761C174.905 166.145 174.912 165.488 174.75 164.79C174.587 164.093 174.292 163.513 173.863 163.052C173.445 162.574 172.941 162.25 172.354 162.08C171.778 161.907 171.167 161.895 170.521 162.046C169.887 162.194 169.345 162.48 168.896 162.906C168.457 163.316 168.147 163.822 167.967 164.426C167.799 165.026 167.797 165.675 167.959 166.373C168.122 167.07 168.413 167.658 168.831 168.135C169.247 168.6 169.75 168.923 170.341 169.107C170.929 169.277 171.54 169.288 172.174 169.141ZM181.553 157.79C182.948 157.465 184.093 157.559 184.988 158.073C185.896 158.583 186.508 159.517 186.824 160.874L188.242 166.96L186.512 167.364L186.201 166.032C186.006 166.572 185.653 167.036 185.141 167.422C184.64 167.793 184.002 168.069 183.229 168.249C182.1 168.512 181.13 168.451 180.318 168.065C179.519 167.676 179.016 167.038 178.809 166.151C178.602 165.263 178.76 164.478 179.283 163.794C179.802 163.098 180.766 162.586 182.173 162.258L185.065 161.585L184.98 161.223C184.797 160.437 184.428 159.888 183.874 159.576C183.32 159.264 182.6 159.211 181.712 159.418C181.116 159.557 180.556 159.794 180.033 160.13C179.507 160.453 179.085 160.825 178.769 161.247L177.689 160.055C178.111 159.515 178.659 159.053 179.332 158.669C180.001 158.272 180.742 157.979 181.553 157.79ZM183.205 166.771C183.902 166.608 184.469 166.316 184.905 165.893C185.339 165.458 185.603 164.928 185.698 164.305L185.37 162.897L182.555 163.553C181.008 163.914 180.356 164.614 180.598 165.654C180.716 166.161 181.006 166.514 181.467 166.714C181.928 166.914 182.507 166.933 183.205 166.771ZM198.521 153.937L200.87 164.018L199.044 164.443L197.067 155.96L191.38 157.285L193.357 165.769L191.531 166.194L189.181 156.113L198.521 153.937ZM202.054 153.113L203.88 152.688L205.591 160.03L210.062 151.247L211.717 150.861L214.066 160.943L212.24 161.368L210.529 154.026L206.077 162.804L204.403 163.194L202.054 153.113ZM223.345 148.152L225.694 158.233L224.058 158.614L223.314 155.419L220.384 156.101L220.175 156.15L218.713 159.86L216.754 160.316L218.406 156.302C217.592 156.251 216.921 156.012 216.394 155.587C215.864 155.149 215.508 154.537 215.325 153.751C215.056 152.597 215.245 151.63 215.892 150.851C216.537 150.059 217.55 149.502 218.932 149.18L223.345 148.152ZM217.202 153.373C217.359 154.045 217.684 154.498 218.18 154.73C218.685 154.946 219.362 154.956 220.212 154.758L223.008 154.106L222.081 150.131L219.361 150.765C217.611 151.172 216.892 152.042 217.202 153.373ZM83.557 211.507L81.4647 211.994L82.4576 216.255L80.6316 216.681L78.2823 206.6L80.1083 206.174L81.1012 210.435L83.2316 209.938L85.5103 204.915L87.4695 204.459L84.7766 210.2L90.085 214.478L87.9357 214.979L83.557 211.507ZM94.9731 202.61C95.9495 202.382 96.8747 202.394 97.7487 202.645C98.6227 202.896 99.3654 203.358 99.9768 204.031C100.601 204.701 101.031 205.543 101.268 206.557C101.504 207.572 101.492 208.524 101.231 209.414C100.98 210.288 100.518 211.03 99.8453 211.642C99.1723 212.253 98.3475 212.673 97.3711 212.9C96.6483 213.069 95.9501 213.084 95.2764 212.947C94.6154 212.807 94.0136 212.519 93.471 212.084L94.6856 217.296L92.8595 217.722L89.6504 203.95L91.4003 203.543L91.7726 205.14C92.0484 204.488 92.4644 203.95 93.0208 203.526C93.5742 203.089 94.2249 202.784 94.9731 202.61ZM96.8466 211.338C97.4933 211.187 98.0363 210.907 98.4756 210.497C98.9246 210.071 99.2328 209.558 99.4004 208.958C99.5776 208.342 99.585 207.685 99.4225 206.987C99.26 206.29 98.9645 205.71 98.536 205.249C98.1173 204.771 97.614 204.448 97.0261 204.277C96.4509 204.104 95.84 204.092 95.1933 204.243C94.5592 204.391 94.0177 204.677 93.5687 205.103C93.1295 205.513 92.8197 206.019 92.6395 206.623C92.472 207.223 92.4695 207.872 92.632 208.57C92.7945 209.267 93.0851 209.855 93.5039 210.332C93.9196 210.797 94.4229 211.12 95.0138 211.304C95.6016 211.474 96.2126 211.486 96.8466 211.338ZM106.226 199.987C107.621 199.662 108.766 199.757 109.661 200.27C110.568 200.78 111.18 201.714 111.497 203.071L112.915 209.157L111.184 209.561L110.874 208.229C110.679 208.769 110.326 209.233 109.814 209.619C109.312 209.99 108.675 210.266 107.901 210.446C106.772 210.709 105.802 210.648 104.99 210.262C104.191 209.874 103.688 209.235 103.481 208.348C103.275 207.46 103.432 206.675 103.955 205.991C104.475 205.295 105.438 204.783 106.846 204.455L109.737 203.782L109.653 203.42C109.47 202.634 109.101 202.085 108.547 201.773C107.993 201.461 107.272 201.408 106.384 201.615C105.789 201.754 105.229 201.991 104.705 202.327C104.179 202.65 103.758 203.022 103.442 203.444L102.362 202.252C102.784 201.712 103.331 201.25 104.004 200.866C104.674 200.469 105.414 200.177 106.226 199.987ZM107.877 208.968C108.575 208.805 109.142 208.513 109.578 208.09C110.011 207.655 110.276 207.125 110.371 206.502L110.043 205.094L107.228 205.75C105.681 206.111 105.028 206.811 105.271 207.851C105.389 208.358 105.679 208.711 106.14 208.911C106.601 209.112 107.18 209.13 107.877 208.968ZM120.624 207.481C119.596 207.721 118.625 207.713 117.71 207.458C116.808 207.201 116.039 206.738 115.402 206.071C114.762 205.391 114.327 204.557 114.096 203.568C113.866 202.579 113.889 201.644 114.165 200.764C114.438 199.872 114.924 199.117 115.623 198.5C116.331 197.867 117.198 197.43 118.226 197.191C119.139 196.978 119.993 196.973 120.789 197.175C121.597 197.375 122.279 197.777 122.835 198.383L121.655 199.601C121.225 199.193 120.748 198.923 120.223 198.791C119.697 198.66 119.15 198.66 118.579 198.793C117.919 198.947 117.357 199.232 116.893 199.647C116.441 200.06 116.126 200.575 115.949 201.191C115.781 201.791 115.779 202.44 115.942 203.138C116.107 203.848 116.399 204.442 116.818 204.919C117.246 205.381 117.754 205.697 118.342 205.867C118.943 206.035 119.573 206.042 120.232 205.888C120.803 205.755 121.295 205.513 121.708 205.163C122.121 204.813 122.43 204.36 122.634 203.804L124.227 204.356C123.996 205.145 123.564 205.814 122.93 206.362C122.305 206.896 121.537 207.269 120.624 207.481ZM124.72 195.778L126.546 195.352L127.544 199.632L133.288 198.293L132.291 194.014L134.117 193.588L136.466 203.669L134.64 204.095L133.656 199.872L127.912 201.211L128.896 205.433L127.07 205.859L124.72 195.778ZM143.011 195.125C144.282 194.842 145.32 194.908 146.125 195.322C146.93 195.736 147.454 196.463 147.696 197.503C147.951 198.593 147.779 199.522 147.183 200.29C146.596 201.041 145.622 201.569 144.263 201.872L140.017 202.842L137.667 192.761L139.493 192.335L140.287 195.74L143.011 195.125ZM147.634 190.438L149.46 190.012L151.81 200.094L149.984 200.519L147.634 190.438ZM143.806 200.515C144.633 200.335 145.216 200.026 145.555 199.586C145.906 199.143 146.004 198.586 145.847 197.914C145.693 197.254 145.372 196.821 144.882 196.614C144.393 196.407 143.728 196.395 142.888 196.578L140.597 197.071L141.519 201.028L143.806 200.515ZM164.632 186.477L166.982 196.558L165.327 196.944L163.611 189.583L161.295 196.68L160.496 196.866L155.314 191.496L157.034 198.876L155.36 199.266L153.01 189.185L154.894 188.746L160.437 194.634L162.92 186.876L164.632 186.477ZM186.037 190.433L186.973 194.446L185.242 194.85L184.679 192.434L175.644 194.539L173.295 184.458L175.121 184.033L177.098 192.516L182.614 191.231L180.637 182.747L182.463 182.322L184.44 190.805L186.037 190.433ZM194.424 184.648C195.807 184.673 196.651 185.339 196.955 186.645C197.162 187.533 196.986 188.296 196.426 188.934C195.879 189.57 194.946 190.041 193.627 190.349L188.777 191.479L186.427 181.398L191.106 180.307C192.298 180.03 193.284 180.041 194.062 180.341C194.838 180.628 195.321 181.184 195.513 182.008C195.638 182.54 195.6 183.037 195.4 183.498C195.209 183.944 194.884 184.327 194.424 184.648ZM189.226 185.318L191.965 184.68C192.662 184.517 193.159 184.268 193.455 183.931C193.764 183.592 193.862 183.181 193.75 182.7C193.525 181.736 192.703 181.42 191.282 181.75L188.543 182.389L189.226 185.318ZM193.166 188.972C193.927 188.795 194.469 188.541 194.793 188.212C195.118 187.882 195.221 187.464 195.103 186.957C194.981 186.437 194.714 186.091 194.3 185.92C193.898 185.747 193.323 185.747 192.575 185.921L189.532 186.63L190.237 189.655L193.166 188.972ZM208.41 181.65C208.443 181.789 208.473 181.976 208.501 182.21L200.322 184.116C200.643 184.977 201.196 185.603 201.983 185.995C202.779 186.371 203.672 186.444 204.661 186.213C205.865 185.933 206.741 185.301 207.287 184.318L208.57 185.262C208.238 185.901 207.762 186.44 207.142 186.878C206.535 187.314 205.813 187.629 204.976 187.824C203.911 188.073 202.916 188.077 201.991 187.838C201.063 187.586 200.28 187.121 199.64 186.441C199.013 185.758 198.584 184.922 198.354 183.933C198.126 182.956 198.136 182.025 198.384 181.138C198.645 180.249 199.105 179.5 199.766 178.891C200.436 178.267 201.253 177.843 202.216 177.618C203.18 177.394 204.088 177.416 204.939 177.685C205.801 177.939 206.532 178.411 207.134 179.099C207.748 179.785 208.174 180.635 208.41 181.65ZM202.576 179.159C201.701 179.363 201.027 179.8 200.555 180.472C200.096 181.14 199.916 181.918 200.016 182.804L206.483 181.297C206.183 180.471 205.674 179.861 204.954 179.467C204.243 179.058 203.45 178.955 202.576 179.159ZM217.513 175.838L213.823 176.698L215.8 185.182L213.974 185.607L211.997 177.124L208.307 177.984L207.935 176.386L217.141 174.24L217.513 175.838ZM225.256 183.098C224.254 183.332 223.302 183.32 222.4 183.062C221.498 182.804 220.728 182.342 220.091 181.675C219.464 180.992 219.036 180.156 218.805 179.167C218.575 178.178 218.591 177.245 218.855 176.368C219.128 175.475 219.614 174.72 220.312 174.103C221.008 173.473 221.856 173.041 222.858 172.808C223.86 172.574 224.805 172.588 225.695 172.849C226.594 173.094 227.358 173.558 227.985 174.24C228.621 174.907 229.055 175.736 229.286 176.725C229.516 177.714 229.495 178.655 229.221 179.547C228.958 180.424 228.478 181.178 227.783 181.808C227.1 182.435 226.258 182.865 225.256 183.098ZM224.884 181.501C225.53 181.35 226.073 181.07 226.513 180.66C226.962 180.234 227.27 179.721 227.437 179.121C227.602 178.507 227.603 177.852 227.441 177.155C227.278 176.457 226.989 175.876 226.573 175.412C226.154 174.934 225.651 174.61 225.063 174.44C224.488 174.266 223.877 174.255 223.23 174.406C222.584 174.556 222.034 174.838 221.582 175.251C221.143 175.661 220.835 176.174 220.658 176.79C220.49 177.391 220.488 178.04 220.65 178.737C220.813 179.434 221.103 180.022 221.522 180.499C221.95 180.961 222.454 181.285 223.032 181.471C223.62 181.641 224.237 181.651 224.884 181.501ZM242.37 168.361L244.719 178.442L243.064 178.828L241.349 171.467L239.032 178.564L238.233 178.751L233.051 173.381L234.771 180.761L233.097 181.151L230.748 171.07L232.631 170.631L238.174 176.518L240.658 168.76L242.37 168.361Z" fill="black" fill-opacity="0.2"/>
<path d="M132.785 268.061L129.093 268.922L130.908 276.71L128.43 277.288L124.305 259.587L126.783 259.009L128.575 266.697L132.317 265.824L136.089 256.841L138.794 256.21L134.47 266.256L143.223 273.84L140.34 274.512L132.785 268.061ZM153.778 271.594C151.991 272.01 150.291 271.998 148.677 271.556C147.059 271.098 145.676 270.274 144.528 269.084C143.397 267.89 142.633 266.442 142.236 264.739C141.839 263.037 141.885 261.4 142.372 259.829C142.875 258.254 143.754 256.912 145.006 255.803C146.254 254.676 147.772 253.905 149.559 253.489C151.329 253.076 153.022 253.099 154.64 253.557C156.254 253.999 157.626 254.817 158.757 256.01C159.885 257.187 160.649 258.636 161.05 260.355C161.45 262.075 161.407 263.72 160.92 265.291C160.429 266.845 159.559 268.185 158.311 269.311C157.059 270.421 155.548 271.181 153.778 271.594ZM153.253 269.343C154.551 269.041 155.646 268.475 156.537 267.645C157.444 266.812 158.073 265.812 158.424 264.646C158.787 263.459 158.819 262.226 158.521 260.944C158.222 259.663 157.65 258.579 156.803 257.692C155.97 256.785 154.962 256.157 153.779 255.811C152.613 255.461 151.381 255.437 150.083 255.739C148.785 256.042 147.674 256.612 146.749 257.449C145.841 258.283 145.206 259.293 144.843 260.479C144.492 261.645 144.466 262.869 144.765 264.15C145.063 265.431 145.629 266.526 146.463 267.433C147.31 268.32 148.324 268.937 149.507 269.283C150.706 269.626 151.955 269.646 153.253 269.343ZM183.611 264.428L180.58 251.538L176.687 263.776L175.524 264.047L166.64 254.867L169.627 267.687L167.2 268.253L163.075 250.552L165.148 250.069L175.431 260.789L179.815 246.651L181.888 246.168L186.038 263.863L183.611 264.428ZM187.423 244.878L200.775 241.767L201.276 243.916L190.427 246.444L191.606 251.501L197.119 250.217C199.226 249.726 200.929 249.791 202.229 250.412C203.529 251.033 204.372 252.17 204.757 253.822C205.162 255.558 204.874 257.03 203.893 258.236C202.929 259.438 201.343 260.296 199.134 260.811L191.548 262.579L187.423 244.878ZM198.567 258.837C200.017 258.499 201.057 257.964 201.686 257.231C202.315 256.497 202.503 255.591 202.252 254.513C201.753 252.372 200.02 251.647 197.053 252.338L192.072 253.499L193.586 259.998L198.567 258.837ZM218.056 256.615C216.27 257.031 214.569 257.019 212.956 256.577C211.338 256.119 209.955 255.294 208.807 254.105C207.676 252.911 206.912 251.463 206.515 249.76C206.118 248.057 206.163 246.421 206.65 244.85C207.154 243.275 208.032 241.933 209.284 240.823C210.533 239.697 212.05 238.926 213.837 238.509C215.607 238.097 217.301 238.12 218.919 238.578C220.532 239.02 221.905 239.837 223.036 241.031C224.164 242.208 224.928 243.656 225.328 245.376C225.729 247.095 225.686 248.741 225.199 250.311C224.708 251.866 223.838 253.206 222.59 254.332C221.338 255.441 219.827 256.202 218.056 256.615ZM217.532 254.364C218.83 254.062 219.925 253.496 220.815 252.666C221.723 251.832 222.352 250.833 222.702 249.667C223.066 248.48 223.098 247.246 222.8 245.965C222.501 244.684 221.928 243.6 221.082 242.713C220.248 241.805 219.24 241.178 218.058 240.832C216.892 240.481 215.66 240.457 214.362 240.76C213.064 241.062 211.952 241.632 211.028 242.47C210.12 243.304 209.485 244.314 209.121 245.5C208.771 246.666 208.745 247.89 209.044 249.171C209.342 250.452 209.908 251.546 210.742 252.454C211.588 253.341 212.603 253.958 213.786 254.304C214.985 254.647 216.234 254.667 217.532 254.364ZM226.57 235.756L229.427 235.09L231.769 247.314L229.847 247.762L226.57 235.756ZM232.171 253.272C231.699 253.382 231.268 253.323 230.877 253.094C230.482 252.848 230.231 252.498 230.125 252.043C230.019 251.588 230.091 251.171 230.341 250.793C230.586 250.398 230.945 250.145 231.417 250.035C231.889 249.925 232.314 249.995 232.692 250.245C233.066 250.478 233.306 250.821 233.413 251.277C233.519 251.732 233.449 252.157 233.203 252.552C232.97 252.926 232.626 253.166 232.171 253.272Z" fill="#9419FF"/>
<path d="M132.785 268.061L129.093 268.922L130.908 276.71L128.43 277.288L124.305 259.587L126.783 259.009L128.575 266.697L132.317 265.824L136.089 256.841L138.794 256.21L134.47 266.256L143.223 273.84L140.34 274.512L132.785 268.061ZM153.778 271.594C151.991 272.01 150.291 271.998 148.677 271.556C147.059 271.098 145.676 270.274 144.528 269.084C143.397 267.89 142.633 266.442 142.236 264.739C141.839 263.037 141.885 261.4 142.372 259.829C142.875 258.254 143.754 256.912 145.006 255.803C146.254 254.676 147.772 253.905 149.559 253.489C151.329 253.076 153.022 253.099 154.64 253.557C156.254 253.999 157.626 254.817 158.757 256.01C159.885 257.187 160.649 258.636 161.05 260.355C161.45 262.075 161.407 263.72 160.92 265.291C160.429 266.845 159.559 268.185 158.311 269.311C157.059 270.421 155.548 271.181 153.778 271.594ZM153.253 269.343C154.551 269.041 155.646 268.475 156.537 267.645C157.444 266.812 158.073 265.812 158.424 264.646C158.787 263.459 158.819 262.226 158.521 260.944C158.222 259.663 157.65 258.579 156.803 257.692C155.97 256.785 154.962 256.157 153.779 255.811C152.613 255.461 151.381 255.437 150.083 255.739C148.785 256.042 147.674 256.612 146.749 257.449C145.841 258.283 145.206 259.293 144.843 260.479C144.492 261.645 144.466 262.869 144.765 264.15C145.063 265.431 145.629 266.526 146.463 267.433C147.31 268.32 148.324 268.937 149.507 269.283C150.706 269.626 151.955 269.646 153.253 269.343ZM183.611 264.428L180.58 251.538L176.687 263.776L175.524 264.047L166.64 254.867L169.627 267.687L167.2 268.253L163.075 250.552L165.148 250.069L175.431 260.789L179.815 246.651L181.888 246.168L186.038 263.863L183.611 264.428ZM187.423 244.878L200.775 241.767L201.276 243.916L190.427 246.444L191.606 251.501L197.119 250.217C199.226 249.726 200.929 249.791 202.229 250.412C203.529 251.033 204.372 252.17 204.757 253.822C205.162 255.558 204.874 257.03 203.893 258.236C202.929 259.438 201.343 260.296 199.134 260.811L191.548 262.579L187.423 244.878ZM198.567 258.837C200.017 258.499 201.057 257.964 201.686 257.231C202.315 256.497 202.503 255.591 202.252 254.513C201.753 252.372 200.02 251.647 197.053 252.338L192.072 253.499L193.586 259.998L198.567 258.837ZM218.056 256.615C216.27 257.031 214.569 257.019 212.956 256.577C211.338 256.119 209.955 255.294 208.807 254.105C207.676 252.911 206.912 251.463 206.515 249.76C206.118 248.057 206.163 246.421 206.65 244.85C207.154 243.275 208.032 241.933 209.284 240.823C210.533 239.697 212.05 238.926 213.837 238.509C215.607 238.097 217.301 238.12 218.919 238.578C220.532 239.02 221.905 239.837 223.036 241.031C224.164 242.208 224.928 243.656 225.328 245.376C225.729 247.095 225.686 248.741 225.199 250.311C224.708 251.866 223.838 253.206 222.59 254.332C221.338 255.441 219.827 256.202 218.056 256.615ZM217.532 254.364C218.83 254.062 219.925 253.496 220.815 252.666C221.723 251.832 222.352 250.833 222.702 249.667C223.066 248.48 223.098 247.246 222.8 245.965C222.501 244.684 221.928 243.6 221.082 242.713C220.248 241.805 219.24 241.178 218.058 240.832C216.892 240.481 215.66 240.457 214.362 240.76C213.064 241.062 211.952 241.632 211.028 242.47C210.12 243.304 209.485 244.314 209.121 245.5C208.771 246.666 208.745 247.89 209.044 249.171C209.342 250.452 209.908 251.546 210.742 252.454C211.588 253.341 212.603 253.958 213.786 254.304C214.985 254.647 216.234 254.667 217.532 254.364ZM226.57 235.756L229.427 235.09L231.769 247.314L229.847 247.762L226.57 235.756ZM232.171 253.272C231.699 253.382 231.268 253.323 230.877 253.094C230.482 252.848 230.231 252.498 230.125 252.043C230.019 251.588 230.091 251.171 230.341 250.793C230.586 250.398 230.945 250.145 231.417 250.035C231.889 249.925 232.314 249.995 232.692 250.245C233.066 250.478 233.306 250.821 233.413 251.277C233.519 251.732 233.449 252.157 233.203 252.552C232.97 252.926 232.626 253.166 232.171 253.272Z" fill="black" fill-opacity="0.2"/>
</svg>
