<svg width="120" height="121" viewBox="0 0 120 121" fill="none" xmlns="http://www.w3.org/2000/svg">
<path d="M60 120.341C93.1371 120.341 120 93.4785 120 60.3414C120 27.2043 93.1371 0.341431 60 0.341431C26.8629 0.341431 0 27.2043 0 60.3414C0 93.4785 26.8629 120.341 60 120.341Z" fill="#E4281C"/>
<path d="M12.2235 54.2433C12.2222 53.9913 12.2941 53.7443 12.4307 53.5325C12.5672 53.3207 12.7623 53.1531 12.9924 53.0502C15.7988 51.7437 18.869 51.1023 21.9638 51.1759C25.0586 51.2494 28.0948 52.036 30.836 53.4744L31.8965 54.0312C34.4027 55.3176 37.1792 55.9886 39.9963 55.9886C42.8134 55.9886 45.5901 55.3176 48.0963 54.0312L49.3159 53.3949C52.0802 51.9882 55.1292 51.2308 58.2305 51.1802C61.3318 51.1297 64.4037 51.7874 67.2125 53.1033L70.6063 54.6676C72.9556 55.7809 75.5229 56.3585 78.1227 56.3585C80.7226 56.3585 83.29 55.7809 85.6394 54.6676L88.8475 53.1828C91.7106 51.8402 94.8467 51.1821 98.008 51.2603C101.169 51.3385 104.269 52.151 107.062 53.6335C107.367 53.8066 107.593 54.0914 107.692 54.4278C107.791 54.7642 107.755 55.1258 107.593 55.4364C107.514 55.5913 107.406 55.7289 107.273 55.8411C107.141 55.9533 106.987 56.0378 106.822 56.0897C106.656 56.1416 106.482 56.1598 106.309 56.1432C106.136 56.1267 105.969 56.0757 105.816 55.9932C103.38 54.6904 100.674 53.9737 97.9122 53.9001C95.1507 53.8265 92.41 54.3979 89.908 55.569L86.7 57.0803C84 58.3497 81.0533 59.0079 78.0698 59.0079C75.0863 59.0079 72.1396 58.3497 69.4397 57.0803L66.0459 55.4895C63.5961 54.3528 60.9207 53.7861 58.2205 53.832C55.5203 53.878 52.8656 54.5353 50.4559 55.7546L49.2629 56.3909C46.3888 57.8552 43.2089 58.6186 39.9832 58.6186C36.7576 58.6186 33.5777 57.8552 30.7035 56.3909L29.6164 55.8341C27.2397 54.582 24.6064 53.8948 21.9209 53.8258C19.2355 53.7568 16.5704 54.308 14.1326 55.4364C13.9763 55.512 13.8064 55.5554 13.633 55.5642C13.4597 55.573 13.2864 55.547 13.1233 55.4876C12.9602 55.4283 12.8105 55.3369 12.6833 55.2189C12.5561 55.1008 12.4539 54.9584 12.3826 54.8001C12.2802 54.6323 12.2252 54.4399 12.2235 54.2433Z" fill="white"/>
<path d="M12.2235 62.5415C12.2266 62.287 12.3001 62.0384 12.4358 61.8231C12.5715 61.6079 12.7641 61.4344 12.9923 61.3219C15.8024 60.0253 18.8729 59.3917 21.9667 59.4698C25.0605 59.548 28.095 60.3358 30.836 61.7726L31.8965 62.3294C34.4007 63.6221 37.178 64.2967 39.9963 64.2967C42.8146 64.2967 45.592 63.6221 48.0963 62.3294L49.3158 61.7196C52.0806 60.3163 55.1276 59.5586 58.2276 59.5035C61.3275 59.4484 64.3996 60.0973 67.2124 61.4014L70.6062 62.9922C72.9556 64.1056 75.5229 64.6831 78.1227 64.6831C80.7225 64.6831 83.29 64.1056 85.6393 62.9922L88.8475 61.5074C91.7106 60.1649 94.8467 59.5067 98.008 59.585C101.169 59.6632 104.269 60.4757 107.062 61.9582C107.367 62.1313 107.593 62.4161 107.692 62.7525C107.791 63.0888 107.755 63.4505 107.593 63.7611C107.429 64.0687 107.151 64.2996 106.818 64.4038C106.486 64.508 106.126 64.4771 105.816 64.3179C103.38 63.0151 100.674 62.2984 97.9122 62.2248C95.1506 62.1511 92.41 62.7226 89.908 63.8937L86.6999 65.4049C84 66.6744 81.0533 67.3326 78.0698 67.3326C75.0863 67.3326 72.1396 66.6744 69.4396 65.4049L66.0458 63.8141C63.5961 62.6774 60.9206 62.1108 58.2204 62.1567C55.5202 62.2026 52.8656 62.8599 50.4559 64.0793L49.2629 64.6891C46.3907 66.1596 43.21 66.9265 39.9832 66.9265C36.7564 66.9265 33.5757 66.1596 30.7035 64.6891L29.6163 64.1323C27.2397 62.8802 24.6063 62.1929 21.9209 62.1239C19.2355 62.055 16.5704 62.6061 14.1326 63.7346C13.9763 63.8101 13.8064 63.8536 13.633 63.8624C13.4597 63.8711 13.2864 63.8451 13.1233 63.7858C12.9601 63.7265 12.8105 63.6351 12.6833 63.517C12.5561 63.3989 12.4538 63.2565 12.3826 63.0983C12.2802 62.9305 12.2252 62.738 12.2235 62.5415Z" fill="white"/>
<path d="M12.2235 70.8398C12.2266 70.5854 12.3001 70.3368 12.4358 70.1215C12.5715 69.9062 12.7641 69.7327 12.9923 69.6202C15.8024 68.3237 18.8729 67.69 21.9667 67.7682C25.0605 67.8463 28.095 68.6342 30.836 70.0709L31.8965 70.6277C34.4007 71.9205 37.178 72.595 39.9963 72.595C42.8146 72.595 45.592 71.9205 48.0963 70.6277L49.3158 70.0179C52.0806 68.6146 55.1276 67.8569 58.2276 67.8018C61.3275 67.7467 64.3996 68.3956 67.2124 69.6998L70.6062 71.2906C72.9556 72.4039 75.5229 72.9815 78.1227 72.9815C80.7225 72.9815 83.29 72.4039 85.6393 71.2906L88.8475 69.8058C91.7106 68.4633 94.8467 67.8051 98.008 67.8833C101.169 67.9615 104.269 68.774 107.062 70.2565C107.367 70.4297 107.593 70.7144 107.692 71.0508C107.791 71.3872 107.755 71.7488 107.593 72.0594C107.429 72.3671 107.151 72.5979 106.818 72.7021C106.486 72.8063 106.126 72.7755 105.816 72.6162C103.38 71.3134 100.674 70.5967 97.9122 70.5231C95.1506 70.4495 92.41 71.0209 89.908 72.192L86.6999 73.7033C84 74.9727 81.0533 75.6309 78.0698 75.6309C75.0863 75.6309 72.1396 74.9727 69.4396 73.7033L66.0458 72.1125C63.5961 70.9758 60.9206 70.4091 58.2204 70.4551C55.5202 70.501 52.8656 71.1583 50.4559 72.3776L49.2629 72.9874C46.3907 74.458 43.21 75.2249 39.9832 75.2249C36.7564 75.2249 33.5757 74.458 30.7035 72.9874L29.6163 72.4306C27.2397 71.1785 24.6063 70.4913 21.9209 70.4223C19.2355 70.3533 16.5704 70.9045 14.1326 72.0329C13.9763 72.1085 13.8064 72.1519 13.633 72.1607C13.4597 72.1695 13.2864 72.1435 13.1233 72.0841C12.9601 72.0248 12.8105 71.9334 12.6833 71.8153C12.5561 71.6972 12.4538 71.5549 12.3826 71.3966C12.2802 71.2288 12.2252 71.0364 12.2235 70.8398Z" fill="white"/>
<path d="M39.8508 91.097C39.9942 90.9843 40.1195 90.8501 40.222 90.6993C40.7631 89.9253 41.0249 88.9903 40.9645 88.0479C40.9645 86.1125 40.0099 83.8058 35.4231 83.8058H24.2609V99.2101H35.7943C37.2321 99.3245 38.6673 98.961 39.8773 98.1761C40.4089 97.7185 40.8235 97.1404 41.0863 96.4901C41.3492 95.8399 41.4528 95.1362 41.3886 94.4377C41.4224 93.7979 41.3 93.1595 41.0321 92.5775C40.7642 91.9955 40.3588 91.4874 39.8508 91.097ZM26.9122 92.5022H36.245C36.9248 92.4479 37.6038 92.6154 38.1804 92.9794C38.3836 93.1656 38.54 93.3971 38.6368 93.6551C38.7335 93.9131 38.7679 94.1904 38.7373 94.4642C38.7659 94.7599 38.7337 95.0583 38.6425 95.341C38.5512 95.6238 38.403 95.8848 38.207 96.108C37.6839 96.5053 37.032 96.6943 36.3775 96.6383H26.9122V92.5022ZM37.8359 89.5592C37.272 89.848 36.6368 89.9676 36.0065 89.9039H26.9122V86.4306H36.0065C36.6494 86.3743 37.2928 86.5328 37.8359 86.8813C38.0172 87.0536 38.1567 87.2649 38.244 87.4992C38.3313 87.7335 38.3639 87.9847 38.3395 88.2335C38.3681 88.4787 38.3374 88.7272 38.2497 88.9579C38.162 89.1886 38.0201 89.3949 37.8359 89.5592Z" fill="white"/>
<path d="M55.8113 83.6728H49.6867C48.0515 83.4983 46.4133 83.9745 45.1265 84.9985C44.1332 86.2189 43.6573 87.7798 43.8008 89.3467V93.7745C43.729 94.5382 43.8142 95.3086 44.0513 96.0382C44.2884 96.7678 44.6723 97.4411 45.1794 98.0166C46.4852 98.9542 48.0863 99.3875 49.6867 99.2363H55.9173C57.4461 99.4021 58.9848 99.0268 60.2656 98.1757C60.7918 97.581 61.1847 96.8805 61.4179 96.1214C61.6511 95.3623 61.7193 94.5621 61.6178 93.7745V89.3467C61.709 88.5309 61.6262 87.705 61.3749 86.9235C61.1235 86.1419 60.7093 85.4226 60.1596 84.8129C58.8993 83.912 57.3515 83.5062 55.8113 83.6728ZM58.8604 89.2142V93.7745C58.8604 95.3653 58.5422 95.9221 58.3301 96.1077C58.118 96.2933 57.5347 96.6379 55.6788 96.6379H49.6867C48.7621 96.756 47.8251 96.5498 47.0354 96.0546C46.5422 95.4033 46.3234 94.585 46.4256 93.7745V89.2142C46.369 88.8006 46.3986 88.3797 46.5127 87.9782C46.6267 87.5766 46.8228 87.203 47.0884 86.881C47.8739 86.3744 48.8119 86.1587 49.7398 86.2712H55.9704C56.8923 86.1338 57.833 86.3313 58.6217 86.828C58.5687 87.1991 58.8604 87.7029 58.8604 89.2142Z" fill="white"/>
<path d="M75.6171 83.8321H64.0571V99.2365H75.6171C76.4184 99.3208 77.2284 99.2319 77.9923 98.9757C78.7563 98.7195 79.4563 98.3021 80.0448 97.7517C80.9703 96.4813 81.3951 94.9144 81.2379 93.3505V89.5856C81.4235 87.9783 80.9765 86.3619 79.9917 85.0783C78.7513 84.1092 77.1819 83.6621 75.6171 83.8321ZM78.6129 93.3505C78.7296 94.2623 78.563 95.1879 78.1357 96.0018C77.8032 96.2675 77.4205 96.4632 77.0104 96.5771C76.6003 96.6911 76.1715 96.7208 75.7496 96.6647H66.7084V86.4305H75.7231C77.2078 86.4305 77.8176 86.7486 78.0563 87.0138C78.5464 87.8051 78.7434 88.7434 78.6129 89.6651V93.3505Z" fill="white"/>
<path d="M97.0404 83.8058L91.022 89.8509L85.1624 83.9649L84.9768 83.8058H81.371L89.6963 92.078V99.2101H92.3477V92.078L100.646 83.8058H97.0404Z" fill="white"/>
<path d="M25.8244 22.4791H22.7489V42.2847L39.8765 42.3112V39.3152L25.7979 39.2887L25.8244 22.4791Z" fill="white"/>
<path d="M47.433 22.5063H44.3839V42.3384H47.433V22.5063Z" fill="white"/>
<path d="M65.5949 22.5058H52.3382V42.3379H55.4137V34.6224H65.5949C67.4421 34.7645 69.2894 34.3489 70.8976 33.4293C71.5239 32.8598 72.0048 32.1487 72.3 31.3553C72.5952 30.5619 72.6962 29.7094 72.5945 28.869C72.6843 27.9791 72.5764 27.0804 72.2785 26.237C71.9806 25.3937 71.4999 24.6266 70.8711 23.9905C69.3359 22.9026 67.4722 22.3781 65.5949 22.5058ZM66.3638 31.5999H55.4933V25.5283H66.0987C67.0753 25.4224 68.0585 25.6565 68.8826 26.1912C69.4255 26.8915 69.6729 27.7765 69.572 28.6569C69.6272 29.089 69.5946 29.5277 69.4762 29.9469C69.3577 30.366 69.1558 30.7569 68.8826 31.0961C68.0801 31.5284 67.1555 31.6779 66.2578 31.5204L66.3638 31.5999Z" fill="white"/>
<path d="M97.411 23.7786C95.8695 22.6868 93.9898 22.1793 92.1083 22.3469H83.9155C81.8269 22.1111 79.7299 22.7116 78.0827 24.0172C76.8178 25.5722 76.2175 27.5635 76.4123 29.5585V35.3915C76.3318 36.3456 76.4426 37.3062 76.7386 38.2168C77.0345 39.1274 77.5095 39.9697 78.1356 40.6942C79.8173 41.8813 81.8647 42.4354 83.9155 42.2585H92.0817C94.0464 42.4623 96.0213 41.9849 97.676 40.9063C98.3344 40.139 98.8255 39.2428 99.1177 38.2749C99.4099 37.3071 99.4968 36.2888 99.3729 35.2854V29.585C99.4747 28.5335 99.3525 27.4724 99.0143 26.4715C98.6761 25.4707 98.1296 24.5529 97.411 23.7786ZM83.783 25.3429H91.9492C93.1562 25.1875 94.379 25.4697 95.3959 26.1383C96.0628 27.0967 96.3553 28.2664 96.2178 29.426V35.3915C96.2178 37.4595 95.7937 38.2815 95.449 38.6261C94.3949 39.2484 93.163 39.5003 91.9492 39.342H83.783C82.5425 39.4932 81.2879 39.2123 80.2303 38.5466C79.8801 38.1064 79.6221 37.6001 79.4718 37.0581C79.3215 36.516 79.2818 35.9492 79.3553 35.3915V29.3994C79.2676 28.8411 79.2953 28.2707 79.4367 27.7235C79.578 27.1763 79.8301 26.6639 80.1772 26.2178C81.1984 25.5322 82.4263 25.2229 83.6505 25.3429H83.783Z" fill="white"/>
</svg>
