<svg width="443" height="555" viewBox="0 0 443 555" fill="none" xmlns="http://www.w3.org/2000/svg">
<ellipse cx="223.259" cy="331.215" rx="218.029" ry="223.206" fill="url(#paint0_linear_3_1677)"/>
<circle cx="221.483" cy="327.732" r="221.483" fill="url(#paint1_linear_3_1677)"/>
<circle cx="221.483" cy="327.732" r="221.483" fill="white" fill-opacity="0.42"/>
<mask id="mask0_3_1677" style="mask-type:alpha" maskUnits="userSpaceOnUse" x="5" y="108" width="437" height="447">
<ellipse cx="223.259" cy="331.215" rx="218.029" ry="223.206" fill="url(#paint2_linear_3_1677)"/>
</mask>
<g mask="url(#mask0_3_1677)">
<rect x="50.6245" y="5" width="344.018" height="570.678" fill="white"/>
</g>
<g filter="url(#filter0_dd_3_1677)">
<rect x="50.6246" y="5" width="344.018" height="462.525" fill="white"/>
</g>
<mask id="mask1_3_1677" style="mask-type:alpha" maskUnits="userSpaceOnUse" x="5" y="103" width="437" height="448">
<ellipse cx="223.782" cy="327.155" rx="218.029" ry="223.206" fill="url(#paint3_linear_3_1677)"/>
<ellipse cx="223.782" cy="327.155" rx="218.029" ry="223.206" fill="white"/>
</mask>
<g mask="url(#mask1_3_1677)">
<path d="M50.6245 467.525H394.642C394.642 470.703 392.067 473.278 388.889 473.278H56.3773C53.2001 473.278 50.6245 470.703 50.6245 467.525Z" fill="white"/>
</g>
<path d="M91.4861 53.1949V56H79.791V40.8956H91.2056V43.7007H83.265V46.9805H90.2777V49.6993H83.265V53.1949H91.4861ZM107.797 56L107.775 46.9374L103.33 54.4032H101.755L97.3315 47.1316V56H94.0516V40.8956H96.9431L102.596 50.2819L108.163 40.8956H111.033L111.076 56H107.797ZM119.407 56.2589C118.213 56.2589 117.055 56.1007 115.933 55.7842C114.825 55.4534 113.934 55.029 113.258 54.5111L114.444 51.8787C115.092 52.3534 115.861 52.7346 116.753 53.0223C117.645 53.31 118.537 53.4538 119.429 53.4538C120.421 53.4538 121.155 53.31 121.63 53.0223C122.104 52.7202 122.342 52.3246 122.342 51.8355C122.342 51.4759 122.198 51.181 121.91 50.9508C121.637 50.7063 121.277 50.5121 120.831 50.3682C120.4 50.2244 119.81 50.0661 119.062 49.8935C117.911 49.6202 116.969 49.3469 116.235 49.0735C115.502 48.8002 114.869 48.3615 114.336 47.7573C113.819 47.1531 113.56 46.3476 113.56 45.3406C113.56 44.4631 113.797 43.6719 114.272 42.9671C114.746 42.2478 115.458 41.6796 116.408 41.2624C117.372 40.8452 118.544 40.6367 119.925 40.6367C120.889 40.6367 121.831 40.7517 122.752 40.9819C123.672 41.2121 124.478 41.5429 125.168 41.9745L124.09 44.6285C122.694 43.8374 121.299 43.4418 119.903 43.4418C118.925 43.4418 118.199 43.6 117.724 43.9165C117.264 44.2329 117.034 44.6501 117.034 45.168C117.034 45.6858 117.3 46.0742 117.832 46.3332C118.379 46.5777 119.206 46.8223 120.313 47.0668C121.464 47.3401 122.406 47.6135 123.14 47.8868C123.874 48.1601 124.499 48.5916 125.017 49.1814C125.55 49.7712 125.816 50.5696 125.816 51.5766C125.816 52.4397 125.571 53.2309 125.082 53.9501C124.607 54.655 123.888 55.216 122.924 55.6332C121.961 56.0503 120.788 56.2589 119.407 56.2589ZM148.405 40.8956L141.867 56H138.415L131.898 40.8956H135.675L140.271 51.6845L144.931 40.8956H148.405ZM153.032 44.2186C154.83 44.2186 156.211 44.6501 157.175 45.5132C158.139 46.3619 158.62 47.6494 158.62 49.3756V56H155.47V54.5543C154.837 55.6332 153.658 56.1726 151.931 56.1726C151.039 56.1726 150.263 56.0216 149.601 55.7195C148.954 55.4174 148.457 55.0002 148.112 54.468C147.767 53.9357 147.594 53.3316 147.594 52.6555C147.594 51.5766 147.997 50.7278 148.803 50.1093C149.623 49.4907 150.881 49.1814 152.579 49.1814H155.254C155.254 48.4478 155.031 47.8868 154.585 47.4984C154.139 47.0956 153.471 46.8942 152.579 46.8942C151.96 46.8942 151.349 46.9949 150.745 47.1963C150.155 47.3833 149.651 47.6422 149.234 47.9731L148.026 45.6211C148.659 45.1752 149.414 44.8299 150.291 44.5854C151.183 44.3408 152.097 44.2186 153.032 44.2186ZM152.773 53.907C153.348 53.907 153.859 53.7775 154.305 53.5186C154.751 53.2452 155.067 52.8497 155.254 52.3318V51.145H152.946C151.565 51.145 150.874 51.5981 150.874 52.5044C150.874 52.936 151.039 53.2812 151.37 53.5401C151.716 53.7847 152.183 53.907 152.773 53.907ZM167.188 56.1726C165.951 56.1726 164.836 55.9209 163.843 55.4174C162.865 54.8995 162.095 54.1875 161.534 53.2812C160.988 52.3749 160.715 51.3464 160.715 50.1956C160.715 49.0448 160.988 48.0162 161.534 47.11C162.095 46.2037 162.865 45.4988 163.843 44.9954C164.836 44.4775 165.951 44.2186 167.188 44.2186C168.411 44.2186 169.475 44.4775 170.381 44.9954C171.302 45.4988 171.971 46.2253 172.388 47.1747L169.777 48.5773C169.173 47.5128 168.303 46.9805 167.166 46.9805C166.289 46.9805 165.562 47.2682 164.987 47.8436C164.411 48.419 164.124 49.203 164.124 50.1956C164.124 51.1882 164.411 51.9722 164.987 52.5476C165.562 53.123 166.289 53.4107 167.166 53.4107C168.317 53.4107 169.187 52.8784 169.777 51.8139L172.388 53.2381C171.971 54.1587 171.302 54.878 170.381 55.3958C169.475 55.9137 168.411 56.1726 167.188 56.1726ZM185.806 44.3912V56H182.612V54.619C182.166 55.1225 181.634 55.5109 181.015 55.7842C180.397 56.0432 179.728 56.1726 179.009 56.1726C177.484 56.1726 176.275 55.7339 175.383 54.8564C174.492 53.9789 174.046 52.677 174.046 50.9508V44.3912H177.412V50.4545C177.412 52.3246 178.196 53.2596 179.764 53.2596C180.569 53.2596 181.217 53.0007 181.706 52.4828C182.195 51.9506 182.439 51.1666 182.439 50.1309V44.3912H185.806ZM200.403 44.3912V56H197.21V54.619C196.764 55.1225 196.232 55.5109 195.613 55.7842C194.995 56.0432 194.326 56.1726 193.606 56.1726C192.082 56.1726 190.873 55.7339 189.981 54.8564C189.089 53.9789 188.644 52.677 188.644 50.9508V44.3912H192.01V50.4545C192.01 52.3246 192.794 53.2596 194.362 53.2596C195.167 53.2596 195.815 53.0007 196.304 52.4828C196.793 51.9506 197.037 51.1666 197.037 50.1309V44.3912H200.403ZM218.173 44.2186C219.626 44.2186 220.777 44.6501 221.626 45.5132C222.489 46.3619 222.92 47.6422 222.92 49.3541V56H219.554V49.8719C219.554 48.9513 219.36 48.268 218.971 47.822C218.597 47.3617 218.058 47.1316 217.353 47.1316C216.562 47.1316 215.936 47.3905 215.476 47.9084C215.016 48.4118 214.785 49.1671 214.785 50.174V56H211.419V49.8719C211.419 48.045 210.686 47.1316 209.218 47.1316C208.442 47.1316 207.823 47.3905 207.363 47.9084C206.902 48.4118 206.672 49.1671 206.672 50.174V56H203.306V44.3912H206.521V45.729C206.953 45.2399 207.478 44.8659 208.096 44.607C208.729 44.348 209.42 44.2186 210.168 44.2186C210.988 44.2186 211.729 44.384 212.39 44.7148C213.052 45.0313 213.584 45.4988 213.987 46.1174C214.462 45.5132 215.059 45.0457 215.778 44.7148C216.512 44.384 217.31 44.2186 218.173 44.2186ZM242.945 48.1457C243.808 48.419 244.484 48.8793 244.973 49.5267C245.462 50.1596 245.707 50.9436 245.707 51.8787C245.707 53.2021 245.189 54.2234 244.153 54.9427C243.132 55.6476 241.636 56 239.665 56H231.854V40.8956H239.234C241.075 40.8956 242.485 41.248 243.463 41.9529C244.455 42.6578 244.952 43.6144 244.952 44.8227C244.952 45.5564 244.772 46.2109 244.412 46.7863C244.067 47.3617 243.578 47.8148 242.945 48.1457ZM235.328 43.5281V47.0884H238.802C239.665 47.0884 240.32 46.9374 240.766 46.6353C241.212 46.3332 241.435 45.8872 241.435 45.2974C241.435 44.7077 241.212 44.2689 240.766 43.9812C240.32 43.6791 239.665 43.5281 238.802 43.5281H235.328ZM239.406 53.3675C240.327 53.3675 241.017 53.2165 241.478 52.9144C241.952 52.6123 242.19 52.1448 242.19 51.5118C242.19 50.2603 241.262 49.6346 239.406 49.6346H235.328V53.3675H239.406ZM253.424 56.1726C252.201 56.1726 251.101 55.9209 250.123 55.4174C249.159 54.8995 248.404 54.1875 247.857 53.2812C247.311 52.3749 247.037 51.3464 247.037 50.1956C247.037 49.0448 247.311 48.0162 247.857 47.11C248.404 46.2037 249.159 45.4988 250.123 44.9954C251.101 44.4775 252.201 44.2186 253.424 44.2186C254.647 44.2186 255.74 44.4775 256.704 44.9954C257.668 45.4988 258.423 46.2037 258.97 47.11C259.516 48.0162 259.79 49.0448 259.79 50.1956C259.79 51.3464 259.516 52.3749 258.97 53.2812C258.423 54.1875 257.668 54.8995 256.704 55.4174C255.74 55.9209 254.647 56.1726 253.424 56.1726ZM253.424 53.4107C254.287 53.4107 254.992 53.123 255.539 52.5476C256.1 51.9578 256.38 51.1738 256.38 50.1956C256.38 49.2174 256.1 48.4406 255.539 47.8652C254.992 47.2754 254.287 46.9805 253.424 46.9805C252.561 46.9805 251.849 47.2754 251.288 47.8652C250.727 48.4406 250.446 49.2174 250.446 50.1956C250.446 51.1738 250.727 51.9578 251.288 52.5476C251.849 53.123 252.561 53.4107 253.424 53.4107ZM273.648 39.9893V56H270.433V54.6622C269.599 55.6691 268.391 56.1726 266.808 56.1726C265.715 56.1726 264.722 55.9281 263.831 55.439C262.953 54.9499 262.263 54.2522 261.759 53.3459C261.256 52.4397 261.004 51.3896 261.004 50.1956C261.004 49.0016 261.256 47.9515 261.759 47.0452C262.263 46.139 262.953 45.4413 263.831 44.9522C264.722 44.4631 265.715 44.2186 266.808 44.2186C268.29 44.2186 269.448 44.6861 270.282 45.6211V39.9893H273.648ZM267.391 53.4107C268.24 53.4107 268.945 53.123 269.506 52.5476C270.067 51.9578 270.347 51.1738 270.347 50.1956C270.347 49.2174 270.067 48.4406 269.506 47.8652C268.945 47.2754 268.24 46.9805 267.391 46.9805C266.528 46.9805 265.816 47.2754 265.255 47.8652C264.694 48.4406 264.413 49.2174 264.413 50.1956C264.413 51.1738 264.694 51.9578 265.255 52.5476C265.816 53.123 266.528 53.4107 267.391 53.4107ZM288.071 44.3912L282.827 56.7121C282.295 58.0499 281.633 58.9921 280.842 59.5387C280.065 60.0854 279.123 60.3587 278.015 60.3587C277.411 60.3587 276.814 60.2652 276.224 60.0782C275.635 59.8912 275.153 59.6323 274.779 59.3014L276.009 56.9063C276.268 57.1364 276.563 57.3162 276.893 57.4457C277.239 57.5752 277.577 57.6399 277.908 57.6399C278.368 57.6399 278.742 57.5248 279.03 57.2947C279.317 57.0789 279.576 56.7121 279.806 56.1942L279.85 56.0863L274.822 44.3912H278.296L281.554 52.2671L284.834 44.3912H288.071ZM93.536 93L93.5144 83.9374L89.0694 91.4032H87.4942L83.0708 84.1316V93H79.791V77.8956H82.6824L88.3357 87.2819L93.9028 77.8956H96.7726L96.8158 93H93.536ZM104.629 81.2186C106.427 81.2186 107.808 81.6501 108.772 82.5132C109.735 83.3619 110.217 84.6494 110.217 86.3756V93H107.067V91.5543C106.434 92.6332 105.254 93.1726 103.528 93.1726C102.636 93.1726 101.859 93.0216 101.198 92.7195C100.55 92.4174 100.054 92.0002 99.7089 91.468C99.3636 90.9357 99.191 90.3316 99.191 89.6555C99.191 88.5766 99.5938 87.7278 100.399 87.1093C101.219 86.4907 102.478 86.1814 104.175 86.1814H106.851C106.851 85.4478 106.628 84.8868 106.182 84.4984C105.736 84.0956 105.067 83.8942 104.175 83.8942C103.557 83.8942 102.946 83.9949 102.341 84.1963C101.752 84.3833 101.248 84.6422 100.831 84.9731L99.6226 82.6211C100.256 82.1752 101.011 81.8299 101.888 81.5854C102.78 81.3408 103.694 81.2186 104.629 81.2186ZM104.37 90.907C104.945 90.907 105.456 90.7775 105.902 90.5186C106.348 90.2452 106.664 89.8497 106.851 89.3318V88.145H104.542C103.161 88.145 102.471 88.5981 102.471 89.5044C102.471 89.936 102.636 90.2812 102.967 90.5401C103.312 90.7847 103.78 90.907 104.37 90.907ZM116.954 93.1726C115.99 93.1726 115.047 93.0575 114.127 92.8274C113.206 92.5828 112.473 92.2807 111.926 91.9211L113.048 89.5044C113.566 89.8353 114.192 90.1086 114.925 90.3244C115.659 90.5258 116.378 90.6264 117.083 90.6264C118.507 90.6264 119.219 90.274 119.219 89.5691C119.219 89.2383 119.025 89.0009 118.637 88.8571C118.248 88.7132 117.651 88.591 116.846 88.4903C115.896 88.3464 115.112 88.181 114.494 87.994C113.875 87.807 113.336 87.4761 112.875 87.0014C112.429 86.5267 112.206 85.8506 112.206 84.9731C112.206 84.2394 112.415 83.5921 112.832 83.0311C113.264 82.4557 113.882 82.0097 114.688 81.6933C115.508 81.3768 116.472 81.2186 117.579 81.2186C118.399 81.2186 119.212 81.3121 120.018 81.4991C120.838 81.6717 121.514 81.9162 122.046 82.2327L120.924 84.6278C119.902 84.0524 118.788 83.7647 117.579 83.7647C116.86 83.7647 116.321 83.8654 115.961 84.0668C115.601 84.2682 115.422 84.5271 115.422 84.8436C115.422 85.2032 115.616 85.455 116.004 85.5988C116.393 85.7427 117.011 85.8794 117.86 86.0088C118.809 86.1671 119.586 86.3397 120.19 86.5267C120.794 86.6993 121.319 87.023 121.765 87.4977C122.211 87.9724 122.434 88.6341 122.434 89.4828C122.434 90.2021 122.218 90.8422 121.787 91.4032C121.355 91.9643 120.722 92.403 119.888 92.7195C119.068 93.0216 118.09 93.1726 116.954 93.1726ZM128.201 93.1726C127.237 93.1726 126.295 93.0575 125.374 92.8274C124.454 92.5828 123.72 92.2807 123.173 91.9211L124.295 89.5044C124.813 89.8353 125.439 90.1086 126.173 90.3244C126.906 90.5258 127.626 90.6264 128.33 90.6264C129.755 90.6264 130.467 90.274 130.467 89.5691C130.467 89.2383 130.272 89.0009 129.884 88.8571C129.496 88.7132 128.899 88.591 128.093 88.4903C127.144 88.3464 126.36 88.181 125.741 87.994C125.122 87.807 124.583 87.4761 124.123 87.0014C123.677 86.5267 123.454 85.8506 123.454 84.9731C123.454 84.2394 123.662 83.5921 124.08 83.0311C124.511 82.4557 125.13 82.0097 125.935 81.6933C126.755 81.3768 127.719 81.2186 128.827 81.2186C129.647 81.2186 130.459 81.3121 131.265 81.4991C132.085 81.6717 132.761 81.9162 133.293 82.2327L132.171 84.6278C131.15 84.0524 130.035 83.7647 128.827 83.7647C128.107 83.7647 127.568 83.8654 127.208 84.0668C126.849 84.2682 126.669 84.5271 126.669 84.8436C126.669 85.2032 126.863 85.455 127.251 85.5988C127.64 85.7427 128.258 85.8794 129.107 86.0088C130.057 86.1671 130.833 86.3397 131.438 86.5267C132.042 86.6993 132.567 87.023 133.013 87.4977C133.459 87.9724 133.682 88.6341 133.682 89.4828C133.682 90.2021 133.466 90.8422 133.034 91.4032C132.603 91.9643 131.97 92.403 131.135 92.7195C130.316 93.0216 129.337 93.1726 128.201 93.1726ZM140.225 81.2186C142.023 81.2186 143.404 81.6501 144.368 82.5132C145.332 83.3619 145.814 84.6494 145.814 86.3756V93H142.663V91.5543C142.03 92.6332 140.851 93.1726 139.125 93.1726C138.233 93.1726 137.456 93.0216 136.794 92.7195C136.147 92.4174 135.651 92.0002 135.305 91.468C134.96 90.9357 134.788 90.3316 134.788 89.6555C134.788 88.5766 135.19 87.7278 135.996 87.1093C136.816 86.4907 138.075 86.1814 139.772 86.1814H142.448C142.448 85.4478 142.225 84.8868 141.779 84.4984C141.333 84.0956 140.664 83.8942 139.772 83.8942C139.153 83.8942 138.542 83.9949 137.938 84.1963C137.348 84.3833 136.845 84.6422 136.427 84.9731L135.219 82.6211C135.852 82.1752 136.607 81.8299 137.485 81.5854C138.377 81.3408 139.29 81.2186 140.225 81.2186ZM139.966 90.907C140.542 90.907 141.052 90.7775 141.498 90.5186C141.944 90.2452 142.261 89.8497 142.448 89.3318V88.145H140.139C138.758 88.145 138.067 88.5981 138.067 89.5044C138.067 89.936 138.233 90.2812 138.564 90.5401C138.909 90.7847 139.376 90.907 139.966 90.907ZM160.747 81.3912V91.058C160.747 93.187 160.193 94.7694 159.085 95.8051C157.977 96.8408 156.359 97.3587 154.23 97.3587C153.108 97.3587 152.044 97.222 151.037 96.9487C150.03 96.6754 149.195 96.2798 148.534 95.7619L149.871 93.3452C150.36 93.748 150.979 94.0645 151.727 94.2947C152.475 94.5392 153.223 94.6615 153.971 94.6615C155.136 94.6615 155.992 94.3954 156.539 93.8631C157.1 93.3452 157.38 92.5541 157.38 91.4896V90.9933C156.503 91.9571 155.28 92.439 153.712 92.439C152.648 92.439 151.67 92.2088 150.778 91.7485C149.9 91.2738 149.202 90.6121 148.685 89.7633C148.167 88.9146 147.908 87.9364 147.908 86.8288C147.908 85.7211 148.167 84.7429 148.685 83.8942C149.202 83.0455 149.9 82.391 150.778 81.9306C151.67 81.4559 152.648 81.2186 153.712 81.2186C155.395 81.2186 156.676 81.7724 157.553 82.88V81.3912H160.747ZM154.381 89.677C155.273 89.677 155.999 89.4181 156.56 88.9002C157.136 88.368 157.424 87.6775 157.424 86.8288C157.424 85.98 157.136 85.2968 156.56 84.7789C155.999 84.2466 155.273 83.9805 154.381 83.9805C153.489 83.9805 152.756 84.2466 152.18 84.7789C151.605 85.2968 151.317 85.98 151.317 86.8288C151.317 87.6775 151.605 88.368 152.18 88.9002C152.756 89.4181 153.489 89.677 154.381 89.677ZM175.035 87.2387C175.035 87.2819 175.014 87.584 174.97 88.145H166.188C166.347 88.8643 166.721 89.4325 167.31 89.8497C167.9 90.2668 168.634 90.4754 169.511 90.4754C170.115 90.4754 170.648 90.3891 171.108 90.2165C171.583 90.0295 172.022 89.7418 172.424 89.3534L174.215 91.2954C173.122 92.5469 171.525 93.1726 169.425 93.1726C168.116 93.1726 166.958 92.9209 165.951 92.4174C164.944 91.8995 164.167 91.1875 163.621 90.2812C163.074 89.3749 162.801 88.3464 162.801 87.1956C162.801 86.0592 163.067 85.0378 163.599 84.1316C164.146 83.2109 164.886 82.4988 165.822 81.9954C166.771 81.4775 167.828 81.2186 168.993 81.2186C170.13 81.2186 171.158 81.4631 172.079 81.9522C173 82.4413 173.719 83.1462 174.237 84.0668C174.769 84.9731 175.035 86.0304 175.035 87.2387ZM169.015 83.7647C168.253 83.7647 167.612 83.9805 167.095 84.4121C166.577 84.8436 166.26 85.4334 166.145 86.1814H171.863C171.748 85.4478 171.432 84.8652 170.914 84.4336C170.396 83.9877 169.763 83.7647 169.015 83.7647ZM180.276 82.9232C180.678 82.3622 181.218 81.9378 181.894 81.6501C182.584 81.3624 183.376 81.2186 184.267 81.2186V84.3258C183.893 84.297 183.642 84.2826 183.512 84.2826C182.548 84.2826 181.793 84.5559 181.247 85.1026C180.7 85.6348 180.427 86.4404 180.427 87.5193V93H177.06V81.3912H180.276V82.9232ZM190.015 86.5914H211.593V87.6919H190.015V86.5914ZM230.058 81.3912L224.814 93.7121C224.282 95.0499 223.62 95.9921 222.829 96.5387C222.052 97.0854 221.11 97.3587 220.002 97.3587C219.398 97.3587 218.801 97.2652 218.211 97.0782C217.622 96.8912 217.14 96.6323 216.766 96.3014L217.996 93.9063C218.255 94.1364 218.549 94.3162 218.88 94.4457C219.226 94.5752 219.564 94.6399 219.894 94.6399C220.355 94.6399 220.729 94.5248 221.016 94.2947C221.304 94.0789 221.563 93.7121 221.793 93.1942L221.836 93.0863L216.809 81.3912H220.283L223.541 89.2671L226.821 81.3912H230.058ZM231.466 81.3912H234.81V85.9225H239.859V81.3912H243.226V93H239.859V88.6629H234.81V93H231.466V81.3912ZM246.232 81.3912H249.577V88.2961L255.23 81.3912H258.316V93H254.971V86.0951L249.339 93H246.232V81.3912ZM266.45 88.5981H264.702V93H261.336V81.3912H264.702V85.9009H266.514L269.665 81.3912H273.247L269.19 86.9582L273.527 93H269.557L266.45 88.5981ZM279.263 81.2186C281.061 81.2186 282.442 81.6501 283.406 82.5132C284.37 83.3619 284.852 84.6494 284.852 86.3756V93H281.701V91.5543C281.069 92.6332 279.889 93.1726 278.163 93.1726C277.271 93.1726 276.494 93.0216 275.832 92.7195C275.185 92.4174 274.689 92.0002 274.343 91.468C273.998 90.9357 273.826 90.3316 273.826 89.6555C273.826 88.5766 274.228 87.7278 275.034 87.1093C275.854 86.4907 277.113 86.1814 278.81 86.1814H281.486C281.486 85.4478 281.263 84.8868 280.817 84.4984C280.371 84.0956 279.702 83.8942 278.81 83.8942C278.192 83.8942 277.58 83.9949 276.976 84.1963C276.386 84.3833 275.883 84.6422 275.466 84.9731L274.257 82.6211C274.89 82.1752 275.645 81.8299 276.523 81.5854C277.415 81.3408 278.328 81.2186 279.263 81.2186ZM279.004 90.907C279.58 90.907 280.09 90.7775 280.536 90.5186C280.982 90.2452 281.299 89.8497 281.486 89.3318V88.145H279.177C277.796 88.145 277.105 88.5981 277.105 89.5044C277.105 89.936 277.271 90.2812 277.602 90.5401C277.947 90.7847 278.414 90.907 279.004 90.907ZM298.694 81.3912V93H295.328V84.1531H291.66L291.552 86.203C291.495 87.7278 291.351 88.9937 291.121 90.0007C290.89 91.0077 290.516 91.7988 289.998 92.3742C289.481 92.9497 288.761 93.2374 287.841 93.2374C287.352 93.2374 286.769 93.151 286.093 92.9784L286.266 90.2165C286.496 90.2452 286.661 90.2596 286.762 90.2596C287.265 90.2596 287.639 90.0798 287.884 89.7202C288.143 89.3462 288.315 88.8787 288.402 88.3176C288.488 87.7422 288.553 86.987 288.596 86.052L288.769 81.3912H298.694ZM307.995 85.1026C309.505 85.1169 310.663 85.4622 311.469 86.1383C312.274 86.8 312.677 87.7422 312.677 88.965C312.677 90.2452 312.224 91.245 311.318 91.9643C310.426 92.6691 309.167 93.0216 307.541 93.0216L301.716 93V81.3912H305.06V85.1026H307.995ZM307.239 90.6264C307.887 90.6408 308.383 90.5042 308.728 90.2165C309.074 89.9288 309.246 89.4972 309.246 88.9218C309.246 88.3608 309.074 87.9508 308.728 87.6919C308.397 87.4329 307.901 87.2963 307.239 87.2819L305.06 87.2603V90.6264H307.239ZM314.564 81.3912H317.909V85.9225H322.958V81.3912H326.324V93H322.958V88.6629H317.909V93H314.564V81.3912ZM335.437 85.1026C336.948 85.1169 338.091 85.455 338.868 86.1167C339.645 86.7784 340.033 87.7278 340.033 88.965C340.033 90.2596 339.595 91.2594 338.717 91.9643C337.84 92.6691 336.595 93.0216 334.984 93.0216L329.331 93V81.3912H332.675V85.1026H335.437ZM341.285 81.3912H344.629V93H341.285V81.3912ZM334.682 90.6264C335.329 90.6408 335.826 90.5042 336.171 90.2165C336.516 89.9288 336.689 89.4972 336.689 88.9218C336.689 88.3608 336.516 87.9508 336.171 87.6919C335.84 87.4329 335.344 87.2963 334.682 87.2819L332.675 87.2603V90.6264H334.682ZM347.658 81.3912H351.003V88.2961L356.656 81.3912H359.742V93H356.397V86.0951L350.766 93H347.658V81.3912ZM353.484 80.1397C350.953 80.1397 349.679 79.0248 349.665 76.7951H351.866C351.88 77.2986 352.017 77.6942 352.276 77.9819C352.549 78.2552 352.945 78.3919 353.463 78.3919C353.981 78.3919 354.376 78.2552 354.65 77.9819C354.937 77.6942 355.081 77.2986 355.081 76.7951H357.325C357.311 79.0248 356.031 80.1397 353.484 80.1397ZM80.1794 118.65H81.7114V127.67L89.2852 118.65H90.6445V130H89.1125V120.981L81.5603 130H80.1794V118.65ZM104.998 130.108C103.876 130.108 102.869 129.863 101.977 129.374C101.1 128.885 100.409 128.202 99.9056 127.324C99.4021 126.432 99.1504 125.433 99.1504 124.325C99.1504 123.217 99.4021 122.225 99.9056 121.347C100.409 120.47 101.1 119.787 101.977 119.297C102.869 118.808 103.876 118.564 104.998 118.564C105.976 118.564 106.846 118.758 107.609 119.146C108.386 119.52 108.997 120.074 109.443 120.808L108.299 121.585C107.925 121.024 107.451 120.606 106.875 120.333C106.3 120.045 105.674 119.902 104.998 119.902C104.178 119.902 103.437 120.089 102.775 120.463C102.128 120.822 101.617 121.34 101.243 122.016C100.884 122.692 100.704 123.462 100.704 124.325C100.704 125.203 100.884 125.979 101.243 126.655C101.617 127.317 102.128 127.835 102.775 128.209C103.437 128.569 104.178 128.748 104.998 128.748C105.674 128.748 106.3 128.612 106.875 128.339C107.451 128.065 107.925 127.648 108.299 127.087L109.443 127.864C108.997 128.597 108.386 129.158 107.609 129.547C106.832 129.921 105.962 130.108 104.998 130.108ZM126.904 118.65V130H125.372V120.01H119.934L119.783 122.815C119.668 125.174 119.395 126.986 118.963 128.252C118.531 129.518 117.762 130.151 116.654 130.151C116.352 130.151 115.985 130.094 115.554 129.978L115.662 128.662C115.92 128.72 116.1 128.748 116.201 128.748C116.791 128.748 117.237 128.475 117.539 127.929C117.841 127.382 118.042 126.706 118.143 125.9C118.244 125.095 118.33 124.03 118.402 122.707L118.596 118.65H126.904ZM140.796 118.564C141.861 118.564 142.817 118.808 143.666 119.297C144.529 119.787 145.205 120.47 145.694 121.347C146.183 122.225 146.428 123.217 146.428 124.325C146.428 125.433 146.183 126.425 145.694 127.303C145.205 128.18 144.529 128.871 143.666 129.374C142.817 129.863 141.861 130.108 140.796 130.108C139.789 130.108 138.876 129.892 138.056 129.461C137.236 129.015 136.567 128.403 136.049 127.626C135.545 126.85 135.251 125.958 135.164 124.951H132.575V130H131.043V118.65H132.575V123.548H135.186C135.301 122.57 135.61 121.707 136.114 120.959C136.632 120.197 137.293 119.607 138.099 119.19C138.904 118.772 139.803 118.564 140.796 118.564ZM140.796 128.77C141.573 128.77 142.271 128.583 142.889 128.209C143.522 127.835 144.018 127.31 144.378 126.634C144.738 125.958 144.917 125.188 144.917 124.325C144.917 123.462 144.738 122.692 144.378 122.016C144.018 121.34 143.522 120.822 142.889 120.463C142.271 120.089 141.573 119.902 140.796 119.902C140.019 119.902 139.314 120.089 138.681 120.463C138.063 120.822 137.574 121.34 137.214 122.016C136.855 122.692 136.675 123.462 136.675 124.325C136.675 125.188 136.855 125.958 137.214 126.634C137.574 127.31 138.063 127.835 138.681 128.209C139.314 128.583 140.019 128.77 140.796 128.77ZM154.999 118.931C156.049 118.931 156.984 119.168 157.804 119.643C158.639 120.103 159.286 120.758 159.746 121.606C160.207 122.441 160.437 123.397 160.437 124.476C160.437 125.584 160.192 126.569 159.703 127.432C159.229 128.281 158.56 128.943 157.696 129.417C156.833 129.892 155.841 130.129 154.719 130.129C152.834 130.129 151.374 129.468 150.338 128.144C149.303 126.821 148.785 124.994 148.785 122.664C148.785 120.232 149.245 118.37 150.166 117.075C151.101 115.78 152.554 114.903 154.525 114.442L159.617 113.277L159.876 114.68L155.086 115.78C153.46 116.14 152.266 116.78 151.504 117.701C150.741 118.607 150.324 119.952 150.252 121.736C150.712 120.858 151.353 120.175 152.173 119.686C152.993 119.182 153.935 118.931 154.999 118.931ZM154.762 128.856C155.553 128.856 156.258 128.677 156.877 128.317C157.509 127.943 157.999 127.425 158.344 126.763C158.703 126.102 158.883 125.354 158.883 124.519C158.883 123.685 158.711 122.951 158.365 122.318C158.02 121.685 157.531 121.196 156.898 120.851C156.28 120.491 155.567 120.312 154.762 120.312C153.956 120.312 153.237 120.491 152.604 120.851C151.986 121.196 151.496 121.685 151.137 122.318C150.792 122.951 150.619 123.685 150.619 124.519C150.619 125.354 150.792 126.102 151.137 126.763C151.496 127.425 151.993 127.943 152.626 128.317C153.259 128.677 153.971 128.856 154.762 128.856ZM168.187 130.108C167.094 130.108 166.108 129.863 165.231 129.374C164.353 128.871 163.663 128.18 163.16 127.303C162.656 126.425 162.404 125.433 162.404 124.325C162.404 123.217 162.656 122.225 163.16 121.347C163.663 120.47 164.353 119.787 165.231 119.297C166.108 118.808 167.094 118.564 168.187 118.564C169.28 118.564 170.266 118.808 171.143 119.297C172.021 119.787 172.704 120.47 173.193 121.347C173.697 122.225 173.948 123.217 173.948 124.325C173.948 125.433 173.697 126.425 173.193 127.303C172.704 128.18 172.021 128.871 171.143 129.374C170.266 129.863 169.28 130.108 168.187 130.108ZM168.187 128.748C168.993 128.748 169.712 128.569 170.345 128.209C170.992 127.835 171.496 127.31 171.855 126.634C172.215 125.958 172.395 125.188 172.395 124.325C172.395 123.462 172.215 122.692 171.855 122.016C171.496 121.34 170.992 120.822 170.345 120.463C169.712 120.089 168.993 119.902 168.187 119.902C167.382 119.902 166.655 120.089 166.008 120.463C165.375 120.822 164.871 121.34 164.497 122.016C164.138 122.692 163.958 123.462 163.958 124.325C163.958 125.188 164.138 125.958 164.497 126.634C164.871 127.31 165.375 127.835 166.008 128.209C166.655 128.569 167.382 128.748 168.187 128.748ZM184.235 124.131C185.775 124.49 186.544 125.418 186.544 126.914C186.544 127.907 186.177 128.669 185.444 129.202C184.71 129.734 183.617 130 182.164 130H177.007V118.65H182.013C183.308 118.65 184.322 118.902 185.055 119.405C185.789 119.909 186.156 120.628 186.156 121.563C186.156 122.182 185.983 122.714 185.638 123.16C185.307 123.591 184.84 123.915 184.235 124.131ZM178.496 123.699H181.905C182.783 123.699 183.451 123.534 183.912 123.203C184.386 122.872 184.624 122.39 184.624 121.757C184.624 121.124 184.386 120.65 183.912 120.333C183.451 120.017 182.783 119.858 181.905 119.858H178.496V123.699ZM182.099 128.792C183.077 128.792 183.811 128.633 184.3 128.317C184.789 128 185.034 127.504 185.034 126.828C185.034 126.152 184.811 125.656 184.365 125.339C183.919 125.008 183.214 124.843 182.25 124.843H178.496V128.792H182.099ZM194.796 122.664C196.22 122.678 197.299 122.994 198.032 123.613C198.78 124.232 199.154 125.123 199.154 126.289C199.154 127.497 198.751 128.425 197.946 129.072C197.155 129.719 196.004 130.036 194.493 130.022L189.919 130V118.65H191.451V122.62L194.796 122.664ZM194.407 128.856C195.457 128.871 196.248 128.662 196.781 128.231C197.327 127.785 197.601 127.137 197.601 126.289C197.601 125.454 197.334 124.836 196.802 124.433C196.27 124.03 195.472 123.822 194.407 123.807L191.451 123.764V128.813L194.407 128.856ZM211.615 118.564C212.679 118.564 213.636 118.808 214.485 119.297C215.348 119.787 216.024 120.47 216.513 121.347C217.002 122.225 217.247 123.217 217.247 124.325C217.247 125.433 217.002 126.425 216.513 127.303C216.024 128.18 215.348 128.871 214.485 129.374C213.636 129.863 212.679 130.108 211.615 130.108C210.608 130.108 209.694 129.892 208.874 129.461C208.055 129.015 207.386 128.403 206.868 127.626C206.364 126.85 206.069 125.958 205.983 124.951H203.394V130H201.862V118.65H203.394V123.548H206.005C206.12 122.57 206.429 121.707 206.932 120.959C207.45 120.197 208.112 119.607 208.918 119.19C209.723 118.772 210.622 118.564 211.615 118.564ZM211.615 128.77C212.392 128.77 213.089 128.583 213.708 128.209C214.341 127.835 214.837 127.31 215.197 126.634C215.556 125.958 215.736 125.188 215.736 124.325C215.736 123.462 215.556 122.692 215.197 122.016C214.837 121.34 214.341 120.822 213.708 120.463C213.089 120.089 212.392 119.902 211.615 119.902C210.838 119.902 210.133 120.089 209.5 120.463C208.882 120.822 208.393 121.34 208.033 122.016C207.673 122.692 207.493 123.462 207.493 124.325C207.493 125.188 207.673 125.958 208.033 126.634C208.393 127.31 208.882 127.835 209.5 128.209C210.133 128.583 210.838 128.77 211.615 128.77ZM230.494 130.108C229.372 130.108 228.365 129.863 227.473 129.374C226.596 128.885 225.905 128.202 225.402 127.324C224.899 126.432 224.647 125.433 224.647 124.325C224.647 123.217 224.899 122.225 225.402 121.347C225.905 120.47 226.596 119.787 227.473 119.297C228.365 118.808 229.372 118.564 230.494 118.564C231.473 118.564 232.343 118.758 233.105 119.146C233.882 119.52 234.493 120.074 234.939 120.808L233.796 121.585C233.422 121.024 232.947 120.606 232.372 120.333C231.796 120.045 231.17 119.902 230.494 119.902C229.674 119.902 228.934 120.089 228.272 120.463C227.624 120.822 227.114 121.34 226.74 122.016C226.38 122.692 226.2 123.462 226.2 124.325C226.2 125.203 226.38 125.979 226.74 126.655C227.114 127.317 227.624 127.835 228.272 128.209C228.934 128.569 229.674 128.748 230.494 128.748C231.17 128.748 231.796 128.612 232.372 128.339C232.947 128.065 233.422 127.648 233.796 127.087L234.939 127.864C234.493 128.597 233.882 129.158 233.105 129.547C232.328 129.921 231.458 130.108 230.494 130.108ZM242.183 130.108C241.089 130.108 240.104 129.863 239.227 129.374C238.349 128.871 237.659 128.18 237.155 127.303C236.652 126.425 236.4 125.433 236.4 124.325C236.4 123.217 236.652 122.225 237.155 121.347C237.659 120.47 238.349 119.787 239.227 119.297C240.104 118.808 241.089 118.564 242.183 118.564C243.276 118.564 244.261 118.808 245.139 119.297C246.016 119.787 246.7 120.47 247.189 121.347C247.692 122.225 247.944 123.217 247.944 124.325C247.944 125.433 247.692 126.425 247.189 127.303C246.7 128.18 246.016 128.871 245.139 129.374C244.261 129.863 243.276 130.108 242.183 130.108ZM242.183 128.748C242.988 128.748 243.708 128.569 244.341 128.209C244.988 127.835 245.491 127.31 245.851 126.634C246.211 125.958 246.39 125.188 246.39 124.325C246.39 123.462 246.211 122.692 245.851 122.016C245.491 121.34 244.988 120.822 244.341 120.463C243.708 120.089 242.988 119.902 242.183 119.902C241.377 119.902 240.651 120.089 240.003 120.463C239.37 120.822 238.867 121.34 238.493 122.016C238.133 122.692 237.953 123.462 237.953 124.325C237.953 125.188 238.133 125.958 238.493 126.634C238.867 127.31 239.37 127.835 240.003 128.209C240.651 128.569 241.377 128.748 242.183 128.748ZM256.442 124.088C257.248 124.275 257.866 124.598 258.298 125.059C258.744 125.519 258.967 126.08 258.967 126.742C258.967 127.403 258.736 127.993 258.276 128.511C257.83 129.029 257.219 129.432 256.442 129.719C255.665 129.993 254.809 130.129 253.874 130.129C253.054 130.129 252.249 130.014 251.458 129.784C250.666 129.54 249.976 129.187 249.386 128.727L249.904 127.583C250.422 127.972 251.026 128.274 251.717 128.49C252.407 128.705 253.105 128.813 253.81 128.813C254.86 128.813 255.716 128.619 256.377 128.231C257.053 127.828 257.391 127.288 257.391 126.612C257.391 126.008 257.118 125.541 256.572 125.21C256.025 124.865 255.277 124.692 254.327 124.692H252.385V123.57H254.241C255.09 123.57 255.773 123.412 256.291 123.095C256.809 122.764 257.068 122.326 257.068 121.779C257.068 121.175 256.773 120.7 256.183 120.355C255.608 120.01 254.853 119.837 253.917 119.837C252.695 119.837 251.486 120.146 250.292 120.765L249.861 119.578C251.213 118.873 252.616 118.521 254.069 118.521C254.932 118.521 255.708 118.65 256.399 118.909C257.104 119.154 257.65 119.506 258.039 119.966C258.442 120.427 258.643 120.959 258.643 121.563C258.643 122.139 258.442 122.649 258.039 123.095C257.65 123.541 257.118 123.872 256.442 124.088ZM273.298 128.662V132.74H271.852V130H261.689V132.74H260.244V128.662H260.891C261.653 128.619 262.171 128.058 262.445 126.979C262.718 125.9 262.905 124.39 263.006 122.448L263.157 118.65H271.529V128.662H273.298ZM264.408 122.534C264.336 124.145 264.2 125.476 263.998 126.526C263.797 127.562 263.437 128.274 262.919 128.662H269.997V120.01H264.538L264.408 122.534ZM279.974 118.564C281.455 118.564 282.592 118.938 283.383 119.686C284.174 120.419 284.57 121.513 284.57 122.966V130H283.102V128.231C282.757 128.82 282.246 129.281 281.57 129.612C280.909 129.942 280.117 130.108 279.197 130.108C277.931 130.108 276.924 129.806 276.176 129.202C275.428 128.597 275.054 127.799 275.054 126.806C275.054 125.843 275.399 125.066 276.09 124.476C276.794 123.886 277.909 123.591 279.434 123.591H283.038V122.901C283.038 121.923 282.764 121.182 282.218 120.678C281.671 120.161 280.873 119.902 279.823 119.902C279.103 119.902 278.413 120.024 277.751 120.268C277.089 120.499 276.521 120.822 276.046 121.239L275.356 120.096C275.931 119.607 276.622 119.233 277.427 118.974C278.233 118.7 279.082 118.564 279.974 118.564ZM279.434 128.9C280.297 128.9 281.038 128.705 281.657 128.317C282.275 127.914 282.736 127.339 283.038 126.591V124.735H279.477C277.535 124.735 276.564 125.411 276.564 126.763C276.564 127.425 276.816 127.95 277.32 128.339C277.823 128.713 278.528 128.9 279.434 128.9ZM288.432 118.65H289.964V123.678H297.106V118.65H298.638V130H297.106V124.994H289.964V130H288.432V118.65ZM302.777 118.65H304.309V123.678H311.451V118.65H312.983V130H311.451V124.994H304.309V130H302.777V118.65ZM321.891 122.664C323.315 122.678 324.401 122.994 325.149 123.613C325.897 124.232 326.271 125.123 326.271 126.289C326.271 127.497 325.868 128.425 325.063 129.072C324.257 129.719 323.106 130.036 321.61 130.022L317.122 130V118.65H318.654V122.62L321.891 122.664ZM328.17 118.65H329.702V130H328.17V118.65ZM321.524 128.856C322.574 128.871 323.365 128.662 323.898 128.231C324.444 127.785 324.718 127.137 324.718 126.289C324.718 125.454 324.451 124.836 323.919 124.433C323.387 124.03 322.589 123.822 321.524 123.807L318.654 123.764V128.813L321.524 128.856ZM333.848 118.65H335.38V127.67L342.954 118.65H344.313V130H342.781V120.981L335.229 130H333.848V118.65ZM339.005 117.01C338.027 117.01 337.25 116.766 336.675 116.277C336.1 115.787 335.805 115.097 335.79 114.205H336.891C336.905 114.766 337.107 115.219 337.495 115.565C337.883 115.895 338.387 116.061 339.005 116.061C339.624 116.061 340.127 115.895 340.516 115.565C340.919 115.219 341.127 114.766 341.142 114.205H342.242C342.228 115.097 341.926 115.787 341.336 116.277C340.76 116.766 339.984 117.01 339.005 117.01ZM90.364 155.65V167H88.832V157.01H81.7114V167H80.1794V155.65H90.364ZM100.351 155.564C101.415 155.564 102.379 155.808 103.242 156.297C104.105 156.772 104.781 157.448 105.271 158.326C105.76 159.203 106.004 160.203 106.004 161.325C106.004 162.461 105.76 163.468 105.271 164.346C104.781 165.223 104.105 165.907 103.242 166.396C102.394 166.871 101.43 167.108 100.351 167.108C99.4302 167.108 98.5958 166.921 97.8478 166.547C97.1142 166.158 96.51 165.597 96.0353 164.864V171.186H94.5033V155.65H95.9705V157.894C96.4309 157.146 97.035 156.571 97.7831 156.168C98.5455 155.765 99.4014 155.564 100.351 155.564ZM100.243 165.748C101.034 165.748 101.753 165.569 102.401 165.209C103.048 164.835 103.552 164.31 103.911 163.634C104.285 162.958 104.472 162.188 104.472 161.325C104.472 160.462 104.285 159.7 103.911 159.038C103.552 158.362 103.048 157.837 102.401 157.463C101.753 157.089 101.034 156.902 100.243 156.902C99.4374 156.902 98.7109 157.089 98.0636 157.463C97.4306 157.837 96.9271 158.362 96.5531 159.038C96.1935 159.7 96.0137 160.462 96.0137 161.325C96.0137 162.188 96.1935 162.958 96.5531 163.634C96.9271 164.31 97.4306 164.835 98.0636 165.209C98.7109 165.569 99.4374 165.748 100.243 165.748ZM113.762 167.108C112.669 167.108 111.684 166.863 110.806 166.374C109.929 165.871 109.238 165.18 108.735 164.303C108.231 163.425 107.98 162.433 107.98 161.325C107.98 160.217 108.231 159.225 108.735 158.347C109.238 157.47 109.929 156.787 110.806 156.297C111.684 155.808 112.669 155.564 113.762 155.564C114.856 155.564 115.841 155.808 116.719 156.297C117.596 156.787 118.279 157.47 118.768 158.347C119.272 159.225 119.524 160.217 119.524 161.325C119.524 162.433 119.272 163.425 118.768 164.303C118.279 165.18 117.596 165.871 116.719 166.374C115.841 166.863 114.856 167.108 113.762 167.108ZM113.762 165.748C114.568 165.748 115.287 165.569 115.92 165.209C116.567 164.835 117.071 164.31 117.431 163.634C117.79 162.958 117.97 162.188 117.97 161.325C117.97 160.462 117.79 159.692 117.431 159.016C117.071 158.34 116.567 157.822 115.92 157.463C115.287 157.089 114.568 156.902 113.762 156.902C112.957 156.902 112.23 157.089 111.583 157.463C110.95 157.822 110.447 158.34 110.073 159.016C109.713 159.692 109.533 160.462 109.533 161.325C109.533 162.188 109.713 162.958 110.073 163.634C110.447 164.31 110.95 164.835 111.583 165.209C112.23 165.569 112.957 165.748 113.762 165.748ZM133.588 165.662V169.74H132.143V167H121.979V169.74H120.534V165.662H121.181C121.943 165.619 122.461 165.058 122.735 163.979C123.008 162.9 123.195 161.39 123.296 159.448L123.447 155.65H131.819V165.662H133.588ZM124.698 159.534C124.626 161.145 124.49 162.476 124.288 163.526C124.087 164.562 123.727 165.274 123.209 165.662H130.287V157.01H124.828L124.698 159.534ZM146.003 155.65L140.328 168.359C139.868 169.424 139.336 170.179 138.732 170.625C138.128 171.071 137.401 171.294 136.552 171.294C136.006 171.294 135.495 171.208 135.02 171.035C134.546 170.862 134.136 170.603 133.79 170.258L134.502 169.115C135.078 169.69 135.768 169.978 136.574 169.978C137.092 169.978 137.531 169.834 137.89 169.546C138.264 169.258 138.609 168.769 138.926 168.079L139.422 166.978L134.351 155.65H135.948L140.221 165.295L144.493 155.65H146.003ZM152.296 161.951H149.706V167H148.174V155.65H149.706V160.635H152.317L156.309 155.65H157.971L153.504 161.152L158.294 167H156.482L152.296 161.951ZM168.249 157.01H163.955V167H162.423V157.01H158.129V155.65H168.249V157.01ZM169.408 164.756C169.739 164.756 170.012 164.871 170.228 165.101C170.444 165.317 170.552 165.59 170.552 165.921C170.552 166.094 170.523 166.281 170.465 166.482C170.422 166.684 170.35 166.914 170.249 167.173L169.343 170.15H168.308L169.041 167.022C168.811 166.95 168.624 166.82 168.48 166.633C168.336 166.432 168.264 166.194 168.264 165.921C168.264 165.59 168.372 165.317 168.588 165.101C168.804 164.871 169.077 164.756 169.408 164.756ZM183.188 161.951H180.599V167H179.067V155.65H180.599V160.635H183.21L187.202 155.65H188.863L184.397 161.152L189.187 167H187.374L183.188 161.951ZM195.671 167.108C194.578 167.108 193.592 166.863 192.715 166.374C191.837 165.871 191.147 165.18 190.643 164.303C190.14 163.425 189.888 162.433 189.888 161.325C189.888 160.217 190.14 159.225 190.643 158.347C191.147 157.47 191.837 156.787 192.715 156.297C193.592 155.808 194.578 155.564 195.671 155.564C196.764 155.564 197.75 155.808 198.627 156.297C199.505 156.787 200.188 157.47 200.677 158.347C201.18 159.225 201.432 160.217 201.432 161.325C201.432 162.433 201.18 163.425 200.677 164.303C200.188 165.18 199.505 165.871 198.627 166.374C197.75 166.863 196.764 167.108 195.671 167.108ZM195.671 165.748C196.476 165.748 197.196 165.569 197.829 165.209C198.476 164.835 198.98 164.31 199.339 163.634C199.699 162.958 199.879 162.188 199.879 161.325C199.879 160.462 199.699 159.692 199.339 159.016C198.98 158.34 198.476 157.822 197.829 157.463C197.196 157.089 196.476 156.902 195.671 156.902C194.865 156.902 194.139 157.089 193.492 157.463C192.859 157.822 192.355 158.34 191.981 159.016C191.622 159.692 191.442 160.462 191.442 161.325C191.442 162.188 191.622 162.958 191.981 163.634C192.355 164.31 192.859 164.835 193.492 165.209C194.139 165.569 194.865 165.748 195.671 165.748ZM212.053 157.01H207.759V167H206.227V157.01H201.933V155.65H212.053V157.01ZM218.208 167.108C217.115 167.108 216.129 166.863 215.252 166.374C214.374 165.871 213.684 165.18 213.18 164.303C212.677 163.425 212.425 162.433 212.425 161.325C212.425 160.217 212.677 159.225 213.18 158.347C213.684 157.47 214.374 156.787 215.252 156.297C216.129 155.808 217.115 155.564 218.208 155.564C219.301 155.564 220.287 155.808 221.164 156.297C222.041 156.787 222.725 157.47 223.214 158.347C223.717 159.225 223.969 160.217 223.969 161.325C223.969 162.433 223.717 163.425 223.214 164.303C222.725 165.18 222.041 165.871 221.164 166.374C220.287 166.863 219.301 167.108 218.208 167.108ZM218.208 165.748C219.013 165.748 219.733 165.569 220.366 165.209C221.013 164.835 221.516 164.31 221.876 163.634C222.236 162.958 222.416 162.188 222.416 161.325C222.416 160.462 222.236 159.692 221.876 159.016C221.516 158.34 221.013 157.822 220.366 157.463C219.733 157.089 219.013 156.902 218.208 156.902C217.402 156.902 216.676 157.089 216.028 157.463C215.396 157.822 214.892 158.34 214.518 159.016C214.158 159.692 213.979 160.462 213.979 161.325C213.979 162.188 214.158 162.958 214.518 163.634C214.892 164.31 215.396 164.835 216.028 165.209C216.676 165.569 217.402 165.748 218.208 165.748ZM232.875 155.564C233.94 155.564 234.903 155.808 235.767 156.297C236.63 156.772 237.306 157.448 237.795 158.326C238.284 159.203 238.528 160.203 238.528 161.325C238.528 162.461 238.284 163.468 237.795 164.346C237.306 165.223 236.63 165.907 235.767 166.396C234.918 166.871 233.954 167.108 232.875 167.108C231.954 167.108 231.12 166.921 230.372 166.547C229.638 166.158 229.034 165.597 228.56 164.864V171.186H227.028V155.65H228.495V157.894C228.955 157.146 229.559 156.571 230.307 156.168C231.07 155.765 231.926 155.564 232.875 155.564ZM232.767 165.748C233.558 165.748 234.278 165.569 234.925 165.209C235.572 164.835 236.076 164.31 236.435 163.634C236.809 162.958 236.996 162.188 236.996 161.325C236.996 160.462 236.809 159.7 236.435 159.038C236.076 158.362 235.572 157.837 234.925 157.463C234.278 157.089 233.558 156.902 232.767 156.902C231.962 156.902 231.235 157.089 230.588 157.463C229.955 157.837 229.451 158.362 229.077 159.038C228.718 159.7 228.538 160.462 228.538 161.325C228.538 162.188 228.718 162.958 229.077 163.634C229.451 164.31 229.955 164.835 230.588 165.209C231.235 165.569 231.962 165.748 232.767 165.748ZM246.373 159.664C247.797 159.678 248.883 159.994 249.631 160.613C250.379 161.232 250.753 162.123 250.753 163.289C250.753 164.497 250.351 165.425 249.545 166.072C248.739 166.719 247.589 167.036 246.093 167.022L241.604 167V155.65H243.136V159.62L246.373 159.664ZM252.652 155.65H254.184V167H252.652V155.65ZM246.006 165.856C247.056 165.871 247.847 165.662 248.38 165.231C248.926 164.785 249.2 164.137 249.2 163.289C249.2 162.454 248.934 161.836 248.401 161.433C247.869 161.03 247.071 160.822 246.006 160.807L243.136 160.764V165.813L246.006 165.856ZM258.33 155.65H259.862V164.67L267.436 155.65H268.796V167H267.264V157.981L259.711 167H258.33V155.65ZM263.488 154.01C262.509 154.01 261.733 153.766 261.157 153.277C260.582 152.787 260.287 152.097 260.272 151.205H261.373C261.387 151.766 261.589 152.219 261.977 152.565C262.365 152.895 262.869 153.061 263.488 153.061C264.106 153.061 264.61 152.895 264.998 152.565C265.401 152.219 265.609 151.766 265.624 151.205H266.724C266.71 152.097 266.408 152.787 265.818 153.277C265.243 153.766 264.466 154.01 263.488 154.01ZM84.8617 204.108C83.7684 204.108 82.7831 203.863 81.9056 203.374C81.0281 202.871 80.3376 202.18 79.8341 201.303C79.3306 200.425 79.0789 199.433 79.0789 198.325C79.0789 197.217 79.3306 196.225 79.8341 195.347C80.3376 194.47 81.0281 193.787 81.9056 193.297C82.7831 192.808 83.7684 192.564 84.8617 192.564C85.955 192.564 86.9404 192.808 87.8179 193.297C88.6954 193.787 89.3787 194.47 89.8677 195.347C90.3712 196.225 90.623 197.217 90.623 198.325C90.623 199.433 90.3712 200.425 89.8677 201.303C89.3787 202.18 88.6954 202.871 87.8179 203.374C86.9404 203.863 85.955 204.108 84.8617 204.108ZM84.8617 202.748C85.6673 202.748 86.3865 202.569 87.0195 202.209C87.6668 201.835 88.1703 201.31 88.5299 200.634C88.8896 199.958 89.0694 199.188 89.0694 198.325C89.0694 197.462 88.8896 196.692 88.5299 196.016C88.1703 195.34 87.6668 194.822 87.0195 194.463C86.3865 194.089 85.6673 193.902 84.8617 193.902C84.0561 193.902 83.3297 194.089 82.6824 194.463C82.0494 194.822 81.5459 195.34 81.1719 196.016C80.8123 196.692 80.6325 197.462 80.6325 198.325C80.6325 199.188 80.8123 199.958 81.1719 200.634C81.5459 201.31 82.0494 201.835 82.6824 202.209C83.3297 202.569 84.0561 202.748 84.8617 202.748ZM99.1838 192.931C100.234 192.931 101.169 193.168 101.989 193.643C102.823 194.103 103.471 194.758 103.931 195.606C104.391 196.441 104.621 197.397 104.621 198.476C104.621 199.584 104.377 200.569 103.888 201.432C103.413 202.281 102.744 202.943 101.881 203.417C101.018 203.892 100.025 204.129 98.9033 204.129C97.0188 204.129 95.5587 203.468 94.523 202.144C93.4872 200.821 92.9694 198.994 92.9694 196.664C92.9694 194.232 93.4297 192.37 94.3504 191.075C95.2854 189.78 96.7383 188.903 98.7091 188.442L103.801 187.277L104.06 188.68L99.2701 189.78C97.6446 190.14 96.4506 190.78 95.6882 191.701C94.9258 192.607 94.5086 193.952 94.4367 195.736C94.897 194.858 95.5371 194.175 96.3571 193.686C97.177 193.182 98.1193 192.931 99.1838 192.931ZM98.9464 202.856C99.7376 202.856 100.442 202.677 101.061 202.317C101.694 201.943 102.183 201.425 102.528 200.763C102.888 200.102 103.068 199.354 103.068 198.519C103.068 197.685 102.895 196.951 102.55 196.318C102.205 195.685 101.716 195.196 101.083 194.851C100.464 194.491 99.752 194.312 98.9464 194.312C98.1408 194.312 97.4216 194.491 96.7886 194.851C96.1701 195.196 95.681 195.685 95.3214 196.318C94.9761 196.951 94.8035 197.685 94.8035 198.519C94.8035 199.354 94.9761 200.102 95.3214 200.763C95.681 201.425 96.1773 201.943 96.8102 202.317C97.4432 202.677 98.1552 202.856 98.9464 202.856ZM116.006 192.65V204H114.604V200.245H111.043H110.612L107.979 204H106.318L109.145 200.03C108.267 199.785 107.591 199.368 107.116 198.778C106.642 198.188 106.404 197.44 106.404 196.534C106.404 195.268 106.836 194.304 107.699 193.643C108.562 192.981 109.742 192.65 111.238 192.65H116.006ZM107.958 196.577C107.958 198.26 109.03 199.102 111.173 199.102H114.604V194.01H111.281C109.065 194.01 107.958 194.865 107.958 196.577ZM125.451 198.088C126.257 198.275 126.875 198.598 127.307 199.059C127.753 199.519 127.976 200.08 127.976 200.742C127.976 201.403 127.745 201.993 127.285 202.511C126.839 203.029 126.228 203.432 125.451 203.719C124.674 203.993 123.818 204.129 122.883 204.129C122.063 204.129 121.258 204.014 120.466 203.784C119.675 203.54 118.985 203.187 118.395 202.727L118.913 201.583C119.431 201.972 120.035 202.274 120.725 202.49C121.416 202.705 122.114 202.813 122.818 202.813C123.869 202.813 124.724 202.619 125.386 202.231C126.062 201.828 126.4 201.288 126.4 200.612C126.4 200.008 126.127 199.541 125.58 199.21C125.034 198.865 124.286 198.692 123.336 198.692H121.394V197.57H123.25C124.099 197.57 124.782 197.412 125.3 197.095C125.818 196.764 126.077 196.326 126.077 195.779C126.077 195.175 125.782 194.7 125.192 194.355C124.617 194.01 123.861 193.837 122.926 193.837C121.704 193.837 120.495 194.146 119.301 194.765L118.87 193.578C120.222 192.873 121.624 192.521 123.077 192.521C123.94 192.521 124.717 192.65 125.408 192.909C126.113 193.154 126.659 193.506 127.048 193.966C127.45 194.427 127.652 194.959 127.652 195.563C127.652 196.139 127.45 196.649 127.048 197.095C126.659 197.541 126.127 197.872 125.451 198.088ZM135.143 192.564C136.625 192.564 137.761 192.938 138.552 193.686C139.344 194.419 139.739 195.513 139.739 196.966V204H138.272V202.231C137.927 202.82 137.416 203.281 136.74 203.612C136.078 203.942 135.287 204.108 134.366 204.108C133.101 204.108 132.094 203.806 131.346 203.202C130.598 202.597 130.223 201.799 130.223 200.806C130.223 199.843 130.569 199.066 131.259 198.476C131.964 197.886 133.079 197.591 134.604 197.591H138.207V196.901C138.207 195.923 137.934 195.182 137.387 194.678C136.841 194.161 136.042 193.902 134.992 193.902C134.273 193.902 133.582 194.024 132.921 194.268C132.259 194.499 131.691 194.822 131.216 195.239L130.526 194.096C131.101 193.607 131.791 193.233 132.597 192.974C133.403 192.7 134.251 192.564 135.143 192.564ZM134.604 202.9C135.467 202.9 136.208 202.705 136.826 202.317C137.445 201.914 137.905 201.339 138.207 200.591V198.735H134.647C132.705 198.735 131.734 199.411 131.734 200.763C131.734 201.425 131.986 201.95 132.489 202.339C132.993 202.713 133.698 202.9 134.604 202.9ZM151.586 194.01H147.292V204H145.76V194.01H141.466V192.65H151.586V194.01ZM162.984 198.8H153.49C153.576 199.979 154.029 200.936 154.849 201.67C155.669 202.389 156.705 202.748 157.956 202.748C158.661 202.748 159.308 202.626 159.898 202.382C160.488 202.123 160.999 201.749 161.43 201.26L162.293 202.252C161.79 202.856 161.157 203.317 160.395 203.633C159.647 203.95 158.819 204.108 157.913 204.108C156.748 204.108 155.712 203.863 154.806 203.374C153.914 202.871 153.216 202.18 152.713 201.303C152.209 200.425 151.958 199.433 151.958 198.325C151.958 197.217 152.195 196.225 152.67 195.347C153.159 194.47 153.821 193.787 154.655 193.297C155.504 192.808 156.453 192.564 157.503 192.564C158.553 192.564 159.495 192.808 160.33 193.297C161.164 193.787 161.819 194.47 162.293 195.347C162.768 196.21 163.005 197.203 163.005 198.325L162.984 198.8ZM157.503 193.88C156.41 193.88 155.489 194.232 154.741 194.937C154.008 195.628 153.59 196.534 153.49 197.656H161.538C161.437 196.534 161.013 195.628 160.265 194.937C159.531 194.232 158.611 193.88 157.503 193.88ZM175.228 192.65V204H173.696V194.01H168.258L168.107 196.815C167.992 199.174 167.718 200.986 167.287 202.252C166.855 203.518 166.086 204.151 164.978 204.151C164.676 204.151 164.309 204.094 163.878 203.978L163.986 202.662C164.244 202.72 164.424 202.748 164.525 202.748C165.115 202.748 165.561 202.475 165.863 201.929C166.165 201.382 166.366 200.706 166.467 199.9C166.568 199.095 166.654 198.03 166.726 196.707L166.92 192.65H175.228ZM184.244 196.664C185.668 196.678 186.747 196.994 187.48 197.613C188.228 198.232 188.602 199.123 188.602 200.289C188.602 201.497 188.199 202.425 187.394 203.072C186.603 203.719 185.452 204.036 183.941 204.022L179.367 204V192.65H180.899V196.62L184.244 196.664ZM183.855 202.856C184.905 202.871 185.696 202.662 186.229 202.231C186.775 201.785 187.049 201.137 187.049 200.289C187.049 199.454 186.782 198.836 186.25 198.433C185.718 198.03 184.92 197.822 183.855 197.807L180.899 197.764V202.813L183.855 202.856ZM191.31 192.65H192.842V197.678H199.984V192.65H201.516V204H199.984V198.994H192.842V204H191.31V192.65ZM210.337 204.108C209.244 204.108 208.258 203.863 207.381 203.374C206.503 202.871 205.813 202.18 205.309 201.303C204.806 200.425 204.554 199.433 204.554 198.325C204.554 197.217 204.806 196.225 205.309 195.347C205.813 194.47 206.503 193.787 207.381 193.297C208.258 192.808 209.244 192.564 210.337 192.564C211.43 192.564 212.416 192.808 213.293 193.297C214.171 193.787 214.854 194.47 215.343 195.347C215.847 196.225 216.098 197.217 216.098 198.325C216.098 199.433 215.847 200.425 215.343 201.303C214.854 202.18 214.171 202.871 213.293 203.374C212.416 203.863 211.43 204.108 210.337 204.108ZM210.337 202.748C211.143 202.748 211.862 202.569 212.495 202.209C213.142 201.835 213.646 201.31 214.005 200.634C214.365 199.958 214.545 199.188 214.545 198.325C214.545 197.462 214.365 196.692 214.005 196.016C213.646 195.34 213.142 194.822 212.495 194.463C211.862 194.089 211.143 193.902 210.337 193.902C209.531 193.902 208.805 194.089 208.158 194.463C207.525 194.822 207.021 195.34 206.647 196.016C206.288 196.692 206.108 197.462 206.108 198.325C206.108 199.188 206.288 199.958 206.647 200.634C207.021 201.31 207.525 201.835 208.158 202.209C208.805 202.569 209.531 202.748 210.337 202.748ZM234.773 192.65V204H233.241V194.01H226.12V204H224.588V192.65H234.773ZM243.595 204.108C242.501 204.108 241.516 203.863 240.638 203.374C239.761 202.871 239.07 202.18 238.567 201.303C238.063 200.425 237.812 199.433 237.812 198.325C237.812 197.217 238.063 196.225 238.567 195.347C239.07 194.47 239.761 193.787 240.638 193.297C241.516 192.808 242.501 192.564 243.595 192.564C244.688 192.564 245.673 192.808 246.551 193.297C247.428 193.787 248.111 194.47 248.601 195.347C249.104 196.225 249.356 197.217 249.356 198.325C249.356 199.433 249.104 200.425 248.601 201.303C248.111 202.18 247.428 202.871 246.551 203.374C245.673 203.863 244.688 204.108 243.595 204.108ZM243.595 202.748C244.4 202.748 245.119 202.569 245.752 202.209C246.4 201.835 246.903 201.31 247.263 200.634C247.622 199.958 247.802 199.188 247.802 198.325C247.802 197.462 247.622 196.692 247.263 196.016C246.903 195.34 246.4 194.822 245.752 194.463C245.119 194.089 244.4 193.902 243.595 193.902C242.789 193.902 242.063 194.089 241.415 194.463C240.782 194.822 240.279 195.34 239.905 196.016C239.545 196.692 239.365 197.462 239.365 198.325C239.365 199.188 239.545 199.958 239.905 200.634C240.279 201.31 240.782 201.835 241.415 202.209C242.063 202.569 242.789 202.748 243.595 202.748ZM256.536 198.951H253.946V204H252.414V192.65H253.946V197.635H256.557L260.549 192.65H262.211L257.744 198.152L262.534 204H260.722L256.536 198.951ZM269.018 204.108C267.925 204.108 266.94 203.863 266.062 203.374C265.185 202.871 264.494 202.18 263.991 201.303C263.487 200.425 263.236 199.433 263.236 198.325C263.236 197.217 263.487 196.225 263.991 195.347C264.494 194.47 265.185 193.787 266.062 193.297C266.94 192.808 267.925 192.564 269.018 192.564C270.112 192.564 271.097 192.808 271.974 193.297C272.852 193.787 273.535 194.47 274.024 195.347C274.528 196.225 274.78 197.217 274.78 198.325C274.78 199.433 274.528 200.425 274.024 201.303C273.535 202.18 272.852 202.871 271.974 203.374C271.097 203.863 270.112 204.108 269.018 204.108ZM269.018 202.748C269.824 202.748 270.543 202.569 271.176 202.209C271.823 201.835 272.327 201.31 272.687 200.634C273.046 199.958 273.226 199.188 273.226 198.325C273.226 197.462 273.046 196.692 272.687 196.016C272.327 195.34 271.823 194.822 271.176 194.463C270.543 194.089 269.824 193.902 269.018 193.902C268.213 193.902 267.486 194.089 266.839 194.463C266.206 194.822 265.703 195.34 265.329 196.016C264.969 196.692 264.789 197.462 264.789 198.325C264.789 199.188 264.969 199.958 265.329 200.634C265.703 201.31 266.206 201.835 266.839 202.209C267.486 202.569 268.213 202.748 269.018 202.748ZM283.686 192.564C284.75 192.564 285.714 192.808 286.577 193.297C287.44 193.772 288.116 194.448 288.605 195.326C289.094 196.203 289.339 197.203 289.339 198.325C289.339 199.461 289.094 200.468 288.605 201.346C288.116 202.223 287.44 202.907 286.577 203.396C285.728 203.871 284.765 204.108 283.686 204.108C282.765 204.108 281.931 203.921 281.183 203.547C280.449 203.158 279.845 202.597 279.37 201.864V208.186H277.838V192.65H279.305V194.894C279.766 194.146 280.37 193.571 281.118 193.168C281.88 192.765 282.736 192.564 283.686 192.564ZM283.578 202.748C284.369 202.748 285.088 202.569 285.736 202.209C286.383 201.835 286.886 201.31 287.246 200.634C287.62 199.958 287.807 199.188 287.807 198.325C287.807 197.462 287.62 196.7 287.246 196.038C286.886 195.362 286.383 194.837 285.736 194.463C285.088 194.089 284.369 193.902 283.578 193.902C282.772 193.902 282.046 194.089 281.398 194.463C280.765 194.837 280.262 195.362 279.888 196.038C279.528 196.7 279.349 197.462 279.349 198.325C279.349 199.188 279.528 199.958 279.888 200.634C280.262 201.31 280.765 201.835 281.398 202.209C282.046 202.569 282.772 202.748 283.578 202.748ZM292.415 192.65H293.947V201.67L301.521 192.65H302.88V204H301.348V194.981L293.796 204H292.415V192.65ZM315.039 194.01H310.745V204H309.213V194.01H304.919V192.65H315.039V194.01ZM329.698 198.131C331.237 198.49 332.007 199.418 332.007 200.914C332.007 201.907 331.64 202.669 330.906 203.202C330.173 203.734 329.079 204 327.626 204H322.469V192.65H327.475C328.77 192.65 329.784 192.902 330.518 193.405C331.252 193.909 331.618 194.628 331.618 195.563C331.618 196.182 331.446 196.714 331.1 197.16C330.77 197.591 330.302 197.915 329.698 198.131ZM323.958 197.699H327.368C328.245 197.699 328.914 197.534 329.374 197.203C329.849 196.872 330.086 196.39 330.086 195.757C330.086 195.124 329.849 194.65 329.374 194.333C328.914 194.017 328.245 193.858 327.368 193.858H323.958V197.699ZM327.562 202.792C328.54 202.792 329.274 202.633 329.763 202.317C330.252 202 330.496 201.504 330.496 200.828C330.496 200.152 330.273 199.656 329.827 199.339C329.381 199.008 328.677 198.843 327.713 198.843H323.958V202.792H327.562ZM339.287 192.564C340.769 192.564 341.905 192.938 342.696 193.686C343.488 194.419 343.883 195.513 343.883 196.966V204H342.416V202.231C342.071 202.82 341.56 203.281 340.884 203.612C340.222 203.942 339.431 204.108 338.51 204.108C337.244 204.108 336.237 203.806 335.489 203.202C334.741 202.597 334.367 201.799 334.367 200.806C334.367 199.843 334.713 199.066 335.403 198.476C336.108 197.886 337.223 197.591 338.748 197.591H342.351V196.901C342.351 195.923 342.078 195.182 341.531 194.678C340.985 194.161 340.186 193.902 339.136 193.902C338.417 193.902 337.726 194.024 337.065 194.268C336.403 194.499 335.835 194.822 335.36 195.239L334.669 194.096C335.245 193.607 335.935 193.233 336.741 192.974C337.546 192.7 338.395 192.564 339.287 192.564ZM338.748 202.9C339.611 202.9 340.352 202.705 340.97 202.317C341.589 201.914 342.049 201.339 342.351 200.591V198.735H338.791C336.849 198.735 335.878 199.411 335.878 200.763C335.878 201.425 336.13 201.95 336.633 202.339C337.136 202.713 337.841 202.9 338.748 202.9ZM352.493 204.108C351.371 204.108 350.364 203.863 349.472 203.374C348.594 202.885 347.904 202.202 347.4 201.324C346.897 200.432 346.645 199.433 346.645 198.325C346.645 197.217 346.897 196.225 347.4 195.347C347.904 194.47 348.594 193.787 349.472 193.297C350.364 192.808 351.371 192.564 352.493 192.564C353.471 192.564 354.341 192.758 355.104 193.146C355.88 193.52 356.492 194.074 356.938 194.808L355.794 195.585C355.42 195.024 354.945 194.606 354.37 194.333C353.795 194.045 353.169 193.902 352.493 193.902C351.673 193.902 350.932 194.089 350.27 194.463C349.623 194.822 349.112 195.34 348.738 196.016C348.379 196.692 348.199 197.462 348.199 198.325C348.199 199.203 348.379 199.979 348.738 200.655C349.112 201.317 349.623 201.835 350.27 202.209C350.932 202.569 351.673 202.748 352.493 202.748C353.169 202.748 353.795 202.612 354.37 202.339C354.945 202.065 355.42 201.648 355.794 201.087L356.938 201.864C356.492 202.597 355.88 203.158 355.104 203.547C354.327 203.921 353.457 204.108 352.493 204.108Z" fill="black"/>
<path d="M163.168 437.739C162.519 437.873 161.825 437.854 161.085 437.683C160.372 437.506 159.728 437.206 159.153 436.784C158.604 436.356 158.268 435.844 158.144 435.247C158.031 434.702 158.247 434.373 158.792 434.26C158.896 434.238 158.987 434.22 159.065 434.203C159.174 434.208 159.283 434.212 159.392 434.217C159.935 435.268 160.429 436.019 160.874 436.468C161.324 436.943 162.069 437.073 163.107 436.858C164.716 436.524 166.24 435.058 167.677 432.459C169.141 429.855 170.633 426.149 172.154 421.34L176.572 407.39L173.418 412.551C172.123 414.66 171.046 416.386 170.187 417.728C169.328 419.069 168.693 420.054 168.282 420.68C167.541 421.809 166.8 422.869 166.058 423.862C165.316 424.855 164.542 425.692 163.736 426.373C162.956 427.049 162.098 427.484 161.164 427.678C159.684 427.984 158.765 427.268 158.404 425.529C157.974 423.453 158.413 421.128 159.72 418.557C160.208 417.643 160.695 416.73 161.183 415.817C161.671 414.904 162.155 413.978 162.638 413.039C164.191 409.956 165.286 407.468 165.923 405.577C166.152 404.853 166.306 404.225 166.386 403.694C166.491 403.158 166.504 402.696 166.423 402.306C166.305 401.735 165.972 401.371 165.425 401.214C164.873 401.03 164.052 401.052 162.961 401.278C160.21 401.848 156.752 404.297 152.587 408.625C151.601 409.614 150.714 410.759 149.928 412.059C149.142 413.359 148.561 414.67 148.185 415.993C147.81 417.316 147.738 418.536 147.969 419.652C148.206 420.794 148.715 421.554 149.498 421.934C150.301 422.282 151.208 422.351 152.22 422.141C153.544 421.867 154.892 420.992 156.265 419.516C157.896 417.852 158.82 416.956 159.038 416.83C158.977 417.844 158.17 419.108 156.616 420.621C154.896 422.25 153.179 423.242 151.466 423.597C150.117 423.876 148.995 423.622 148.1 422.832C147.206 422.043 146.629 421.026 146.371 419.78C145.64 416.25 147.475 412.107 151.876 407.351C152.758 406.383 153.859 405.424 155.178 404.474C156.523 403.519 157.921 402.687 159.371 401.981C160.817 401.248 162.149 400.755 163.369 400.503C164.511 400.266 165.543 400.282 166.465 400.551C167.387 400.821 167.951 401.448 168.155 402.435C168.402 403.628 168.005 405.565 166.963 408.244C166.524 409.391 165.887 410.823 165.051 412.539C164.242 414.249 163.232 416.232 162.02 418.486C161.527 419.373 161.135 420.483 160.843 421.816C160.545 423.123 160.471 424.14 160.622 424.866C160.767 425.567 161.112 425.861 161.657 425.748C162.228 425.63 162.989 425.053 163.938 424.017C166.637 421.103 169.305 417.585 171.943 413.466C174.278 409.842 175.96 406.786 176.987 404.299C177.734 402.547 178.704 401.548 179.898 401.3C180.314 401.214 180.548 401.301 180.602 401.561C180.613 401.612 180.61 401.667 180.595 401.724C180.606 401.776 180.604 401.831 180.589 401.888C179.713 404.587 178.552 408.063 177.105 412.315C175.684 416.561 173.965 421.587 171.946 427.392C171.38 428.971 170.655 430.502 169.771 431.985C168.888 433.467 167.89 434.73 166.78 435.772C165.669 436.814 164.465 437.47 163.168 437.739ZM184.629 423.181C184.006 423.31 183.337 423.218 182.623 422.906C181.909 422.594 181.451 422.147 181.249 421.567C180.575 419.622 181.342 416.986 183.549 413.659C185.73 410.338 187.924 408.448 190.13 407.991C190.727 407.868 191.224 407.914 191.62 408.129C191.84 408.273 192.021 408.493 192.163 408.788C192.331 409.078 192.442 409.218 192.493 409.207C192.597 409.185 192.685 409.154 192.758 409.112C192.825 409.044 192.911 408.999 193.014 408.977C193.326 408.913 193.623 408.973 193.905 409.158C194.187 409.343 194.359 409.524 194.423 409.7C194.46 409.747 193.895 411.204 192.73 414.071C191.554 416.887 191.135 418.719 191.474 419.57C191.727 420.14 192.075 420.379 192.516 420.287C193.865 420.008 195.869 417.265 198.525 412.058C198.582 411.938 198.649 411.87 198.727 411.854C198.856 411.827 198.94 411.904 198.978 412.086C199.021 412.294 198.958 412.578 198.789 412.937C196.412 418.059 194.341 420.802 192.576 421.168C192.343 421.217 192.114 421.223 191.89 421.189C190.657 420.984 189.908 420.246 189.645 418.974C189.553 418.533 189.514 418.081 189.526 417.618L187.597 420.454C187.02 421.332 186.466 421.988 185.934 422.423C185.427 422.853 184.992 423.105 184.629 423.181ZM184.101 422.397C185.606 422.085 187.315 420.012 189.228 416.177L192.177 409.638C191.894 409.318 191.519 409.206 191.052 409.303C189.468 409.631 187.591 411.346 185.418 414.449C183.153 417.626 182.338 420.028 182.973 421.656C183.232 422.252 183.608 422.499 184.101 422.397ZM206.84 418.456C206.217 418.585 205.833 418.299 205.687 417.599C205.672 416.086 205.917 414.33 206.423 412.33C206.655 411.361 206.89 410.406 207.128 409.463C207.392 408.515 207.64 407.557 207.872 406.588C207.047 407.436 206.237 408.362 205.443 409.366C204.644 410.343 203.893 411.42 203.189 412.594C202.361 413.957 201.432 415.679 200.402 417.76C199.653 419.242 199.201 419.999 199.045 420.031C198.682 420.106 198.348 419.999 198.045 419.71C197.741 419.421 197.565 419.16 197.517 418.926C197.447 418.589 197.565 417.658 197.872 416.132C197.962 415.653 198.055 415.187 198.151 414.734C198.267 414.25 198.373 413.782 198.468 413.329L196.641 416.266C196.599 416.328 196.476 416.516 196.27 416.83C196.064 417.143 195.884 417.316 195.728 417.348C195.598 417.375 195.514 417.297 195.477 417.116C195.466 417.064 195.479 416.994 195.514 416.905C195.519 416.796 195.572 416.663 195.675 416.506C195.984 416.036 196.3 415.537 196.624 415.01C196.948 414.483 197.271 413.888 197.594 413.226C197.84 412.714 198.186 411.966 198.631 410.98C199.097 409.963 199.66 408.696 200.32 407.179C200.525 406.73 200.887 406.452 201.406 406.345C201.925 406.237 202.236 406.43 202.338 406.923C202.376 407.105 201.964 408.449 201.103 410.955C200.676 412.289 200.332 413.376 200.073 414.214C199.84 415.048 199.709 415.657 199.68 416.042C200.122 415.3 200.652 414.46 201.269 413.52C201.912 412.574 202.653 411.514 203.493 410.338C206.072 406.718 207.868 404.803 208.88 404.593C209.166 404.534 209.457 404.568 209.754 404.696C210.077 404.819 210.268 405.023 210.328 405.308C210.355 405.438 210.045 406.49 209.398 408.465C208.783 410.46 208.458 411.637 208.425 411.996C210.805 408.985 211.993 407.467 211.988 407.441C214.035 405.041 215.591 403.73 216.655 403.51C216.966 403.445 217.273 403.49 217.576 403.644C217.899 403.766 218.087 403.957 218.141 404.217C218.152 404.269 217.547 405.531 216.327 408.004C215.061 410.513 214.466 412.477 214.543 413.896C214.633 414.851 215.21 415.219 216.274 414.999C216.923 414.864 217.746 414.261 218.742 413.188C219.737 412.115 220.721 410.721 221.691 409.003C221.809 408.79 221.943 408.586 222.093 408.392C222.237 408.173 222.373 408.05 222.503 408.023C222.659 407.991 222.75 408.04 222.777 408.169C222.815 408.351 222.741 408.583 222.556 408.865C222.048 409.809 221.415 410.807 220.658 411.857C219.927 412.902 219.17 413.817 218.385 414.602C217.595 415.361 216.849 415.813 216.149 415.959C214.384 416.324 213.332 415.69 212.993 414.054C212.874 413.483 212.893 412.789 213.049 411.972C213.199 411.129 213.365 410.364 213.547 409.676C213.999 408.067 214.55 406.612 215.201 405.313C214.457 405.901 213.7 406.626 212.932 407.489C212.189 408.347 211.432 409.329 210.66 410.437C208.879 413.08 207.805 415.603 207.437 418.007C207.35 418.242 207.151 418.392 206.84 418.456ZM224.456 414.927C223.833 415.056 223.165 414.965 222.45 414.653C221.736 414.341 221.278 413.894 221.076 413.313C220.403 411.368 221.169 408.733 223.376 405.406C225.557 402.085 227.751 400.195 229.957 399.738C230.554 399.614 231.051 399.66 231.448 399.876C231.667 400.02 231.848 400.24 231.99 400.535C232.159 400.825 232.269 400.964 232.321 400.954C232.425 400.932 232.513 400.9 232.585 400.858C232.652 400.79 232.738 400.745 232.842 400.724C233.153 400.659 233.45 400.72 233.732 400.905C234.014 401.09 234.187 401.271 234.25 401.447C234.287 401.494 233.723 402.951 232.557 405.818C231.381 408.633 230.962 410.466 231.301 411.316C231.554 411.886 231.902 412.126 232.343 412.034C233.693 411.755 235.696 409.011 238.353 403.805C238.409 403.685 238.476 403.617 238.554 403.601C238.684 403.574 238.767 403.651 238.805 403.833C238.848 404.041 238.785 404.324 238.616 404.684C236.239 409.806 234.169 412.549 232.404 412.915C232.17 412.963 231.941 412.97 231.718 412.935C230.484 412.731 229.736 411.993 229.472 410.721C229.381 410.279 229.341 409.827 229.354 409.365L227.424 412.201C226.848 413.078 226.293 413.735 225.761 414.17C225.254 414.599 224.819 414.852 224.456 414.927ZM223.928 414.143C225.434 413.831 227.143 411.758 229.055 407.924L232.004 401.385C231.721 401.064 231.346 400.953 230.879 401.049C229.296 401.378 227.418 403.093 225.245 406.196C222.98 409.373 222.165 411.775 222.8 413.403C223.059 413.999 223.435 414.246 223.928 414.143ZM238.688 420.099C237.91 420.26 237.181 420.073 236.501 419.537C235.821 419.001 235.391 418.36 235.209 417.612C235.222 417.285 235.307 417.105 235.462 417.072C235.618 417.04 235.749 417.216 235.856 417.6C235.968 418.01 236.259 418.369 236.729 418.678C237.199 418.986 237.616 419.103 237.979 419.028C239.484 418.716 240.866 417.414 242.124 415.124C242.576 414.299 243.013 413.342 243.437 412.253C243.893 411.184 244.295 409.991 244.644 408.673L245.792 404.415L243.486 407.979C242.765 409.076 242.114 409.915 241.53 410.496C240.973 411.072 240.512 411.397 240.149 411.472C239.526 411.601 238.857 411.51 238.143 411.198C237.423 410.86 236.963 410.4 236.761 409.819C236.087 407.875 236.854 405.239 239.061 401.912C241.274 398.611 243.47 396.735 245.65 396.283C246.247 396.159 246.744 396.205 247.141 396.421C247.354 396.539 247.533 396.746 247.675 397.041C247.843 397.331 247.954 397.471 248.005 397.46C248.109 397.438 248.197 397.406 248.27 397.364C248.337 397.296 248.423 397.252 248.526 397.23C248.864 397.16 249.161 397.22 249.417 397.411C249.699 397.596 249.825 397.814 249.795 398.063C249.818 398.302 249.587 399.081 249.102 400.4C248.796 401.275 248.46 402.333 248.095 403.573C247.724 404.786 247.324 406.06 246.897 407.394C246.49 408.696 246.08 409.918 245.667 411.06C245.259 412.227 244.876 413.186 244.517 413.937C242.786 417.599 240.843 419.653 238.688 420.099ZM239.613 410.649C241.118 410.338 242.827 408.264 244.74 404.43L247.689 397.891C247.458 397.56 247.096 397.445 246.602 397.547C244.993 397.881 243.103 399.599 240.93 402.702C238.676 405.931 237.861 408.333 238.485 409.909C238.744 410.505 239.12 410.752 239.613 410.649ZM253.402 409.173C252.234 409.415 251.496 408.796 251.19 407.317C251.071 406.746 251.1 406.036 251.276 405.187C251.473 404.307 251.804 403.359 252.27 402.342C252.27 402.342 252.082 402.611 251.707 403.149C251.331 403.687 250.915 404.355 250.457 405.154C250.375 405.279 250.256 405.358 250.1 405.39C249.996 405.412 249.931 405.358 249.904 405.228C249.877 405.098 249.948 404.853 250.117 404.493L254.183 397.073C254.697 396.154 255.356 395.612 256.16 395.445C256.757 395.321 257.104 395.493 257.201 395.96C257.239 396.142 257.196 396.327 257.072 396.515C256.676 397.084 256.203 397.872 255.654 398.88C255.131 399.881 254.634 400.945 254.163 402.071C253.693 403.198 253.318 404.263 253.039 405.268C252.781 406.242 252.708 407.002 252.821 407.547C252.918 408.014 253.122 408.215 253.434 408.151C253.615 408.113 253.887 407.989 254.25 407.779C254.607 407.542 255.064 407.136 255.621 406.561C256.174 405.959 256.804 405.084 257.514 403.935C257.637 403.747 257.956 403.194 258.469 402.275C258.983 401.357 259.66 400.053 260.501 398.362C262.003 395.425 263.066 393.892 263.689 393.763C264.546 393.586 265.086 393.839 265.309 394.524C265.409 394.747 265.023 395.625 264.149 397.16C263.041 399.257 262.295 400.752 261.911 401.643C261.206 403.333 260.939 404.592 261.111 405.423C261.229 405.994 261.483 406.239 261.873 406.159C262.262 406.078 262.717 405.794 263.239 405.307C263.781 404.788 264.331 404.174 264.887 403.463C265.438 402.726 265.961 401.982 266.455 401.23C266.969 400.446 267.403 399.734 267.758 399.092C267.876 398.878 268.013 398.755 268.168 398.723C268.324 398.69 268.418 398.752 268.45 398.908C268.461 398.96 268.464 399.04 268.46 399.149C268.455 399.259 268.402 399.392 268.299 399.548C267.98 400.101 267.569 400.796 267.066 401.631C266.557 402.44 265.996 403.26 265.383 404.091C264.77 404.922 264.159 405.631 263.549 406.217C262.94 406.804 262.389 407.148 261.896 407.25C261.299 407.374 260.747 407.326 260.242 407.106C259.73 406.86 259.416 406.451 259.297 405.88C259.179 405.309 259.152 404.719 259.215 404.111C259.273 403.476 259.311 402.94 259.328 402.503C258.404 404.184 257.553 405.497 256.775 406.443C256.022 407.384 255.361 408.049 254.792 408.438C254.229 408.852 253.765 409.097 253.402 409.173ZM270.696 405.67C269.866 405.842 269.059 405.738 268.277 405.359C267.489 404.954 267.004 404.31 266.821 403.428C266.439 401.585 267.132 399.248 268.901 396.419C270.716 393.552 272.532 391.93 274.349 391.554C274.972 391.425 275.5 391.491 275.934 391.754C276.361 391.99 276.624 392.341 276.721 392.809C276.855 393.457 276.823 394.087 276.625 394.696C276.401 395.446 275.952 395.891 275.277 396.031C274.602 396.171 274.222 396.033 274.136 395.618C274.077 395.333 274.156 394.869 274.376 394.228C274.615 393.556 274.732 393.207 274.727 393.181C274.716 393.129 274.672 393.111 274.594 393.127C273.883 393.356 272.981 394.098 271.888 395.353C271.408 395.913 270.988 396.433 270.628 396.913C270.293 397.389 270.034 397.835 269.85 398.252L268.791 400.786C268.684 401.052 268.598 401.489 268.535 402.098C268.498 402.701 268.509 403.146 268.568 403.431C268.675 403.95 268.933 404.344 269.34 404.611C269.773 404.873 270.263 404.948 270.808 404.835C272.105 404.566 273.644 403.367 275.422 401.239C276.856 399.535 277.949 397.887 278.702 396.296C278.8 396.113 278.939 396.003 279.121 395.966C279.303 395.928 279.404 395.961 279.426 396.065C279.442 396.143 279.404 396.286 279.312 396.495C278.277 398.685 276.942 400.667 275.306 402.441C273.557 404.319 272.02 405.396 270.696 405.67ZM277.258 403.985C276.506 404.141 276.084 403.999 275.992 403.557C275.938 403.298 276.008 402.85 276.201 402.215C276.954 399.839 277.628 397.737 278.224 395.908C278.84 394.048 279.393 392.471 279.883 391.179C281.945 385.581 283.568 382.443 284.754 381.764C284.806 381.753 284.845 381.745 284.871 381.74C284.891 381.709 284.914 381.69 284.94 381.685C285.278 381.615 285.555 381.842 285.772 382.365C285.807 382.926 284.866 385.179 282.949 389.122C281.934 391.146 281.155 392.81 280.613 394.113C280.092 395.385 279.794 396.3 279.72 396.857C280.447 396.056 281.232 395.203 282.073 394.298C282.914 393.393 283.737 392.532 284.542 391.716C285.342 390.873 286.078 390.179 286.75 389.634C287.417 389.063 287.952 388.708 288.357 388.57C288.409 388.559 288.474 388.546 288.552 388.53C288.624 388.488 288.673 388.464 288.699 388.458C289.426 388.308 289.859 388.57 289.999 389.245C290.037 389.426 289.886 389.877 289.548 390.597C289.21 391.317 288.696 392.425 288.004 393.922C286.764 396.561 286.263 398.451 286.499 399.593C286.623 400.19 286.906 400.443 287.347 400.352C287.809 400.229 288.298 399.911 288.814 399.398C289.356 398.88 289.88 398.27 290.384 397.57C290.889 396.87 291.331 396.196 291.712 395.549C292.112 394.871 292.41 394.349 292.605 393.983C292.79 393.701 292.948 393.547 293.078 393.52C293.181 393.499 293.244 393.54 293.266 393.643C293.309 393.851 293.256 394.119 293.108 394.448C292.877 394.902 292.514 395.505 292.021 396.257C291.553 397.003 291.023 397.776 290.43 398.576C289.859 399.344 289.294 400.016 288.737 400.592C288.2 401.136 287.776 401.44 287.464 401.505C285.933 401.822 284.981 401.085 284.61 399.295C284.401 398.282 284.593 396.862 285.189 395.033C285.423 394.335 285.671 393.634 285.931 392.93C286.191 392.227 286.451 391.523 286.712 390.819C283.733 393.169 281.231 396.246 279.204 400.049C278.963 400.587 278.718 401.165 278.467 401.786C278.212 402.38 277.979 402.889 277.768 403.311C277.558 403.734 277.388 403.958 277.258 403.985ZM298.347 385.444C297.905 385.536 297.486 385.473 297.09 385.258C296.719 385.037 296.496 384.745 296.421 384.381C296.27 383.655 296.688 383.189 297.675 382.985C298.038 382.909 298.428 382.964 298.845 383.148C299.257 383.306 299.501 383.567 299.576 383.931C299.641 384.242 299.531 384.563 299.247 384.892C298.958 385.196 298.658 385.38 298.347 385.444ZM294.008 400.758C293.437 400.876 292.932 400.791 292.494 400.503C292.024 400.195 291.689 399.56 291.49 398.6C291.377 398.055 291.378 397.405 291.492 396.65C291.575 395.875 291.723 395.087 291.936 394.285C292.175 393.477 292.416 392.75 292.661 392.104C293.626 389.441 294.572 387.999 295.501 387.78C295.735 387.731 296.042 387.776 296.422 387.914C296.797 388.026 297.009 388.198 297.057 388.432C297.057 388.432 296.335 389.908 294.889 392.86C293.464 395.781 292.862 397.774 293.082 398.838C293.255 399.669 293.665 400.017 294.314 399.882C294.729 399.796 295.226 399.517 295.805 399.046C296.405 398.542 297.012 397.943 297.625 397.247C298.239 396.552 298.806 395.825 299.326 395.068C299.872 394.305 300.298 393.621 300.606 393.016C300.796 392.624 300.968 392.345 301.123 392.178C301.303 392.005 301.42 391.913 301.472 391.902C301.575 391.881 301.643 391.948 301.676 392.104C301.703 392.234 301.601 392.525 301.37 392.979C301.165 393.428 300.857 393.965 300.445 394.592C299.951 395.344 299.404 396.161 298.801 397.044C298.199 397.927 297.511 398.719 296.736 399.421C295.956 400.097 295.046 400.543 294.008 400.758Z" fill="black"/>
<path d="M198.797 453.918C198.526 453.974 198.355 453.829 198.284 453.483C198.215 453.153 198.263 452.704 198.428 452.138L201.479 444.972C202.417 442.773 203.082 440.99 203.472 439.624C203.863 438.259 204.005 437.32 203.9 436.81C203.85 436.569 203.722 436.408 203.517 436.325C203.312 436.242 203.084 436.203 202.835 436.208C202.585 436.212 202.355 436.237 202.145 436.28C200.868 436.545 199.25 437.695 197.29 439.73C196.735 440.3 196.242 440.911 195.814 441.564C195.385 442.217 195.002 442.899 194.664 443.612C194.017 445.03 193.782 446.16 193.956 447.001C194.09 447.647 194.471 447.975 195.1 447.986C195.338 448 195.599 447.977 195.885 447.917C196.426 447.805 196.938 447.558 197.423 447.176C197.908 446.793 198.362 446.339 198.786 445.812C199.108 445.401 199.299 445.189 199.359 445.177C199.419 445.164 199.452 445.212 199.459 445.32C199.434 445.654 199.279 446 198.992 446.357C198.706 446.714 198.347 447.062 197.917 447.402C197.483 447.727 197.032 448.009 196.564 448.247C196.108 448.467 195.693 448.615 195.317 448.693C194.716 448.818 194.159 448.776 193.646 448.569C193.13 448.347 192.81 447.936 192.686 447.335C192.496 446.419 192.795 445.182 193.585 443.624C194.339 442.12 195.362 440.709 196.656 439.392C197.185 438.843 197.823 438.296 198.572 437.749C199.317 437.187 200.085 436.699 200.877 436.285C201.665 435.855 202.39 435.571 203.051 435.435C204.237 435.189 204.912 435.456 205.073 436.237C205.27 437.184 204.894 438.961 203.946 441.57C203.27 443.371 202.332 445.54 201.135 448.075C200.144 450.176 199.642 451.228 199.627 451.231C199.672 451.222 200.232 450.299 201.309 448.462C201.966 447.323 202.592 446.3 203.187 445.394C203.795 444.469 204.362 443.654 204.89 442.949C205.146 442.599 205.456 442.166 205.82 441.652C206.18 441.123 206.601 440.511 207.084 439.816C207.51 439.226 207.931 438.685 208.345 438.191C208.775 437.695 209.2 437.403 209.621 437.316C210.057 437.226 210.364 437.272 210.543 437.454C209.515 439.453 208.658 441.816 207.97 444.544C207.481 446.494 207.331 447.927 207.521 448.843C207.633 449.384 207.857 449.745 208.192 449.926C208.527 450.107 208.928 450.15 209.393 450.053C209.904 449.947 210.408 449.694 210.905 449.294C211.416 448.89 211.903 448.405 212.366 447.839C212.828 447.273 213.248 446.693 213.626 446.098C214.993 443.997 215.976 441.827 216.578 439.587C217.044 437.83 217.179 436.478 216.983 435.532C216.964 435.442 216.939 435.361 216.909 435.289C216.893 435.214 216.872 435.148 216.844 435.091C216.529 435.156 216.157 435.061 215.728 434.805C215.465 434.671 215.313 434.507 215.273 434.312C215.236 434.131 215.28 433.966 215.405 433.814C215.53 433.663 215.69 433.567 215.886 433.527C216.171 433.468 216.408 433.552 216.596 433.779C216.681 433.887 216.832 434.012 217.05 434.155C217.195 434.25 217.266 434.329 217.264 434.393C217.382 434.509 217.546 434.546 217.756 434.502C217.967 434.458 218.143 434.328 218.286 434.11C218.444 433.89 218.636 433.756 218.861 433.709C218.981 433.684 219.051 433.717 219.069 433.807C219.104 433.972 218.994 434.16 218.739 434.369C218.611 434.505 218.445 434.61 218.241 434.684C218.123 434.724 218.006 434.764 217.889 434.804C217.769 434.828 217.646 434.838 217.519 434.833C217.824 435.397 218.006 435.821 218.065 436.107C218.314 437.308 218.066 438.981 217.319 441.126C216.948 442.205 216.483 443.25 215.924 444.258C215.365 445.267 214.706 446.242 213.945 447.183C212.445 449.092 210.989 450.193 209.577 450.485C208.03 450.806 207.107 450.245 206.808 448.803C206.668 448.127 206.652 447.331 206.76 446.416C206.865 445.486 207.024 444.552 207.237 443.615L208.126 439.741C207.571 440.388 207.117 440.921 206.765 441.339C206.425 441.738 206.135 442.08 205.897 442.365C205.673 442.646 205.458 442.933 205.253 443.227C205.059 443.502 204.824 443.84 204.547 444.242C204.249 444.696 203.858 445.341 203.373 446.178C202.886 446.999 202.329 448.016 201.702 449.227L199.751 452.968C199.639 453.179 199.5 453.38 199.336 453.571C199.172 453.762 198.992 453.877 198.797 453.918ZM222.101 438.372C221.846 438.425 221.604 438.389 221.374 438.264C221.16 438.137 221.031 437.967 220.987 437.757C220.9 437.337 221.142 437.067 221.712 436.949C221.923 436.905 222.149 436.937 222.39 437.043C222.628 437.135 222.769 437.286 222.813 437.496C222.85 437.677 222.787 437.862 222.623 438.053C222.455 438.228 222.282 438.335 222.101 438.372ZM219.59 447.235C219.26 447.304 218.968 447.254 218.714 447.088C218.442 446.909 218.248 446.542 218.133 445.986C218.068 445.671 218.068 445.295 218.134 444.858C218.182 444.409 218.268 443.953 218.391 443.489C218.529 443.021 218.669 442.601 218.811 442.227C219.369 440.685 219.917 439.851 220.455 439.724C220.59 439.696 220.767 439.722 220.988 439.802C221.205 439.866 221.327 439.966 221.355 440.101C221.355 440.101 220.937 440.956 220.1 442.664C219.276 444.355 218.927 445.508 219.055 446.124C219.154 446.605 219.392 446.806 219.767 446.728C220.008 446.679 220.296 446.517 220.631 446.244C220.978 445.953 221.329 445.606 221.684 445.203C222.039 444.801 222.367 444.38 222.668 443.942C222.984 443.5 223.231 443.104 223.409 442.754C223.519 442.528 223.618 442.366 223.708 442.269C223.813 442.169 223.88 442.116 223.91 442.11C223.97 442.097 224.009 442.136 224.028 442.226C224.044 442.302 223.985 442.47 223.851 442.733C223.733 442.993 223.554 443.304 223.316 443.667C223.03 444.102 222.713 444.575 222.365 445.086C222.016 445.597 221.618 446.055 221.169 446.461C220.718 446.853 220.191 447.111 219.59 447.235ZM225.011 445.994C224.53 446.094 224.124 446.061 223.791 445.895C223.471 445.71 223.249 445.318 223.124 444.717C223.053 444.371 223.068 443.914 223.169 443.344C223.267 442.76 223.41 442.127 223.598 441.446C223.786 440.765 223.975 440.091 224.166 439.425C223.98 439.51 223.812 439.569 223.662 439.6C223.211 439.693 222.95 439.567 222.879 439.222C222.844 439.056 222.878 438.916 222.98 438.801C223.096 438.683 223.205 438.606 223.307 438.569C223.307 438.569 223.322 438.566 223.352 438.559C223.398 438.55 223.449 438.532 223.506 438.504L224.812 438.233C225.011 437.832 225.213 437.406 225.417 436.957C225.717 436.362 225.978 435.994 226.199 435.854L226.267 435.84C226.372 435.819 226.533 435.84 226.75 435.905C227.019 435.99 227.167 436.1 227.195 436.236C227.235 436.431 226.979 437.009 226.426 437.969C226.565 437.956 226.761 437.924 227.017 437.871C227.272 437.818 227.588 437.752 227.963 437.674C228.143 437.637 228.399 437.584 228.729 437.516C229.075 437.444 229.428 437.371 229.788 437.296C230.161 437.203 230.482 437.129 230.752 437.073C231.02 437.002 231.168 436.963 231.198 436.957C231.247 436.963 231.274 436.981 231.28 437.011C231.308 437.146 230.459 437.51 228.733 438.102C227.755 438.446 227.003 438.712 226.478 438.899C225.968 439.083 225.692 439.187 225.65 439.211C225.477 439.435 225.285 439.796 225.075 440.294C224.865 440.792 224.665 441.342 224.477 441.945C224.289 442.548 224.141 443.12 224.033 443.659C223.938 444.18 223.918 444.576 223.974 444.846C224.024 445.087 224.156 445.271 224.37 445.399C224.582 445.511 224.89 445.526 225.296 445.442C225.566 445.386 225.877 445.259 226.227 445.061C226.578 444.863 226.903 444.654 227.202 444.436C227.513 444.199 227.735 444.02 227.866 443.899C228.207 443.577 228.57 443.173 228.955 442.686C229.351 442.181 229.73 441.625 230.089 441.017C230.256 440.764 230.377 440.629 230.452 440.613C230.497 440.604 230.526 440.629 230.538 440.689C230.563 440.81 230.491 441.028 230.322 441.345C230.052 441.856 229.733 442.36 229.367 442.859C229.012 443.34 228.598 443.802 228.126 444.244C227.588 444.747 227.051 445.141 226.514 445.424C225.992 445.705 225.491 445.895 225.011 445.994ZM229.465 445.048C229.029 445.138 228.785 445.056 228.732 444.8C228.701 444.65 228.741 444.391 228.853 444.023C229.289 442.648 229.679 441.431 230.023 440.373C230.38 439.297 230.7 438.384 230.984 437.636C232.177 434.396 233.116 432.58 233.803 432.187C233.833 432.181 233.855 432.176 233.87 432.173C233.882 432.155 233.896 432.145 233.911 432.141C234.106 432.101 234.266 432.232 234.392 432.535C234.412 432.86 233.867 434.164 232.758 436.446C232.17 437.617 231.72 438.58 231.406 439.335C231.104 440.071 230.932 440.6 230.889 440.922C231.31 440.459 231.764 439.965 232.251 439.441C232.738 438.918 233.214 438.419 233.68 437.947C234.143 437.459 234.569 437.058 234.958 436.742C235.344 436.411 235.654 436.206 235.888 436.126C235.918 436.12 235.955 436.112 236.001 436.103C236.042 436.079 236.071 436.065 236.086 436.062C236.507 435.975 236.757 436.126 236.838 436.517C236.86 436.622 236.773 436.883 236.577 437.299C236.382 437.716 236.084 438.357 235.684 439.224C234.966 440.751 234.676 441.845 234.813 442.506C234.885 442.852 235.048 442.998 235.303 442.945C235.571 442.874 235.854 442.69 236.152 442.393C236.466 442.093 236.769 441.74 237.061 441.335C237.353 440.93 237.609 440.54 237.829 440.165C238.061 439.773 238.234 439.471 238.347 439.259C238.454 439.096 238.545 439.007 238.62 438.991C238.68 438.979 238.716 439.002 238.729 439.063C238.754 439.183 238.723 439.338 238.637 439.528C238.504 439.791 238.294 440.14 238.008 440.575C237.737 441.007 237.431 441.454 237.088 441.917C236.757 442.362 236.43 442.751 236.108 443.084C235.797 443.399 235.551 443.575 235.371 443.612C234.485 443.796 233.934 443.37 233.72 442.333C233.598 441.747 233.71 440.925 234.054 439.867C234.19 439.463 234.333 439.057 234.484 438.65C234.634 438.243 234.785 437.835 234.936 437.428C233.212 438.788 231.764 440.569 230.591 442.77C230.451 443.081 230.309 443.416 230.164 443.775C230.016 444.119 229.881 444.413 229.76 444.658C229.638 444.902 229.54 445.032 229.465 445.048ZM255.327 442.133C254.486 442.307 253.595 442.358 252.656 442.286C251.72 442.23 250.804 442.044 249.908 441.728C249.028 441.409 248.233 440.978 247.526 440.436C246.573 441.886 245.556 442.724 244.474 442.948C243.918 443.063 243.471 442.984 243.132 442.709C242.796 442.45 242.576 442.065 242.47 441.554C242.274 440.607 242.404 439.421 242.86 437.995C243.287 436.653 243.697 435.91 244.09 435.766C244.391 435.704 244.763 435.948 245.206 436.498L247.195 438.953C247.77 437.722 248.366 436.4 248.982 434.987C247.635 434.687 246.852 434.011 246.634 432.959C246.541 432.509 246.56 432.074 246.693 431.655C246.837 431.217 247.057 430.843 247.353 430.531C247.649 430.219 247.977 430.026 248.337 429.951C248.833 429.848 249.242 430.006 249.564 430.425C249.603 430.464 249.612 430.509 249.592 430.56C249.586 430.609 249.567 430.628 249.533 430.62C249.403 430.521 249.231 430.447 249.017 430.397C248.803 430.348 248.614 430.34 248.449 430.374C248.133 430.44 247.867 430.628 247.649 430.939C247.444 431.233 247.3 431.56 247.218 431.922C247.152 432.28 247.16 432.584 247.243 432.833C247.401 433.599 248.081 434.156 249.281 434.502C249.458 434.074 249.652 433.611 249.862 433.113C250.069 432.6 250.293 432.052 250.532 431.47C252.613 426.464 254.644 423.756 256.627 423.345C258.024 423.056 258.858 423.564 259.129 424.871C259.375 426.058 259.086 427.575 258.262 429.422C257.856 430.336 257.283 431.199 256.543 432.011C255.802 432.822 254.983 433.517 254.084 434.095C253.197 434.654 252.303 435.028 251.402 435.214C251.192 435.258 250.98 435.294 250.767 435.323C250.565 435.333 250.375 435.325 250.198 435.299C249.913 435.891 249.581 436.555 249.201 437.292C248.821 438.029 248.402 438.844 247.945 439.738C248.293 440.057 248.754 440.353 249.328 440.626C249.916 440.896 250.555 441.108 251.245 441.263C251.939 441.432 252.612 441.544 253.265 441.596C253.918 441.649 254.493 441.624 254.989 441.521C255.559 441.403 256.071 441.226 256.524 440.991C256.98 440.772 257.328 440.488 257.569 440.14C257.814 439.808 257.889 439.416 257.796 438.965C257.783 438.905 257.771 438.845 257.759 438.785C257.746 438.725 257.726 438.666 257.699 438.61C257.692 438.579 257.68 438.558 257.662 438.547C257.659 438.532 257.656 438.517 257.653 438.502C257.622 438.351 257.651 438.267 257.741 438.248C257.892 438.217 258.037 438.312 258.177 438.534C258.313 438.741 258.396 438.912 258.424 439.047C258.52 439.512 258.424 439.955 258.135 440.376C257.849 440.811 257.449 441.184 256.933 441.494C256.433 441.801 255.898 442.014 255.327 442.133ZM251.123 434.661C251.889 434.502 252.672 434.16 253.472 433.634C254.268 433.093 254.99 432.458 255.638 431.728C256.298 430.98 256.798 430.219 257.139 429.443C258.11 427.252 258.493 425.661 258.288 424.669C258.201 424.249 258.017 423.966 257.736 423.82C257.455 423.675 257.142 423.638 256.797 423.709C256.045 423.865 255.245 424.689 254.395 426.181C254.133 426.658 253.796 427.339 253.384 428.223C252.984 429.09 252.516 430.158 251.981 431.428C251.77 431.926 251.535 432.453 251.274 433.008C251.013 433.564 250.74 434.137 250.456 434.729C250.675 434.73 250.898 434.708 251.123 434.661ZM244.393 442.33C244.679 442.271 244.972 442.101 245.274 441.819C245.594 441.549 245.888 441.229 246.157 440.86C246.425 440.491 246.634 440.142 246.786 439.813C246.513 439.557 246.213 439.243 245.886 438.872C245.558 438.501 245.194 438.067 244.793 437.571C244.298 436.921 243.969 436.653 243.804 436.765C243.543 436.866 243.35 437.408 243.224 438.39C243.098 439.371 243.118 440.26 243.283 441.056C243.482 442.018 243.852 442.442 244.393 442.33ZM258.121 439.039C257.746 439.117 257.417 439.005 257.135 438.703C256.85 438.386 256.674 438.062 256.605 437.732C256.418 436.83 256.81 435.433 257.781 433.54C258.764 431.629 259.66 430.589 260.472 430.421C261.238 430.262 261.705 430.588 261.873 431.399C261.898 431.52 261.909 431.65 261.907 431.792C261.92 431.93 261.927 432.078 261.928 432.234C261.968 432.273 262.047 432.28 262.168 432.255C262.573 432.171 263.024 431.929 263.521 431.528C263.559 431.786 263.042 432.277 261.97 433.001C262.238 433.462 261.938 434.511 261.071 436.148C260.186 437.851 259.323 438.79 258.482 438.964L258.121 439.039ZM258.387 438.279C259.033 438.145 259.736 437.38 260.497 435.985C261.233 434.626 261.549 433.691 261.443 433.181C261.175 433.095 260.803 432.812 260.327 432.331C259.816 432.437 259.208 433.205 258.502 434.636C257.804 436.034 257.538 437.053 257.701 437.692C257.813 438.155 258.041 438.35 258.387 438.279ZM264.013 437.842C263.923 437.86 263.787 437.849 263.606 437.808C263.422 437.752 263.252 437.686 263.095 437.609C262.935 437.517 262.838 437.427 262.804 437.34C262.764 437.223 262.777 436.868 262.842 436.275C262.889 435.67 262.999 434.84 263.172 433.786C263.342 432.716 263.499 431.885 263.642 431.291C263.786 430.698 263.906 430.336 264.005 430.206C264.053 430.133 264.129 430.086 264.234 430.064C264.399 430.03 264.573 430.072 264.754 430.191C264.932 430.296 265.049 430.444 265.105 430.636C265.108 430.651 264.916 431.615 264.529 433.528C264.145 435.378 264.009 436.464 264.123 436.785C264.74 436.438 265.69 435.465 266.973 433.868C267.742 432.894 268.264 432.049 268.539 431.334C268.826 430.601 268.916 429.979 268.811 429.468C268.748 429.168 268.617 428.913 268.417 428.704C268.229 428.476 267.93 428.319 267.52 428.232C267.406 428.208 267.339 428.152 267.321 428.062C267.293 427.926 267.361 427.842 267.526 427.807C267.962 427.717 268.367 427.782 268.742 428.002C269.131 428.219 269.385 428.613 269.504 429.184C269.628 429.785 269.514 430.521 269.162 431.393C268.807 432.25 268.245 433.204 267.476 434.257C266.803 435.164 266.176 435.921 265.597 436.526C265.032 437.129 264.504 437.567 264.013 437.842ZM271.017 436.625C270.536 436.725 270.07 436.665 269.617 436.445C269.161 436.211 268.88 435.838 268.774 435.327C268.553 434.261 268.954 432.909 269.978 431.271C271.029 429.612 272.08 428.673 273.131 428.455C273.477 428.384 273.775 428.424 274.025 428.576C274.288 428.709 274.448 428.911 274.504 429.182C274.678 430.023 274.181 430.987 273.012 432.076C271.975 433.043 271.05 433.61 270.239 433.778C270.119 433.803 270.011 433.81 269.914 433.799C269.773 434.251 269.749 434.702 269.842 435.153C270.004 435.934 270.453 436.248 271.189 436.096C271.94 435.94 272.805 435.236 273.783 433.984C274.547 433.058 275.166 432.115 275.641 431.155C275.739 430.947 275.84 430.832 275.945 430.81C276.036 430.791 276.09 430.827 276.109 430.917C276.127 431.007 276.094 431.147 276.008 431.337C275.702 431.98 275.358 432.584 274.973 433.15C274.589 433.715 274.16 434.251 273.685 434.756C272.702 435.837 271.813 436.46 271.017 436.625ZM270.452 433.217C271.023 433.099 271.707 432.659 272.505 431.899C272.762 431.626 273.007 431.333 273.239 431.018C273.484 430.685 273.668 430.365 273.792 430.058C273.931 429.747 273.979 429.486 273.936 429.276C273.895 429.08 273.717 429.016 273.402 429.081C272.951 429.174 272.39 429.643 271.719 430.487C271.397 430.899 271.096 431.337 270.817 431.802C270.537 432.267 270.315 432.744 270.15 433.233C270.246 433.244 270.347 433.239 270.452 433.217Z" fill="black"/>
<defs>
<filter id="filter0_dd_3_1677" x="42.5707" y="0.397758" width="360.125" height="471.73" filterUnits="userSpaceOnUse" color-interpolation-filters="sRGB">
<feFlood flood-opacity="0" result="BackgroundImageFix"/>
<feColorMatrix in="SourceAlpha" type="matrix" values="0 0 0 0 0 0 0 0 0 0 0 0 0 0 0 0 0 0 127 0" result="hardAlpha"/>
<feOffset dx="3.45168"/>
<feGaussianBlur stdDeviation="2.30112"/>
<feComposite in2="hardAlpha" operator="out"/>
<feColorMatrix type="matrix" values="0 0 0 0 0.690196 0 0 0 0 0.188235 0 0 0 0 1 0 0 0 0.25 0"/>
<feBlend mode="normal" in2="BackgroundImageFix" result="effect1_dropShadow_3_1677"/>
<feColorMatrix in="SourceAlpha" type="matrix" values="0 0 0 0 0 0 0 0 0 0 0 0 0 0 0 0 0 0 127 0" result="hardAlpha"/>
<feOffset dx="-3.45168"/>
<feGaussianBlur stdDeviation="2.30112"/>
<feComposite in2="hardAlpha" operator="out"/>
<feColorMatrix type="matrix" values="0 0 0 0 0.69125 0 0 0 0 0.1875 0 0 0 0 1 0 0 0 0.25 0"/>
<feBlend mode="normal" in2="effect1_dropShadow_3_1677" result="effect2_dropShadow_3_1677"/>
<feBlend mode="normal" in="SourceGraphic" in2="effect2_dropShadow_3_1677" result="shape"/>
</filter>
<linearGradient id="paint0_linear_3_1677" x1="66.5019" y1="297.655" x2="503.572" y2="366.256" gradientUnits="userSpaceOnUse">
<stop stop-color="#8099B5"/>
<stop offset="1" stop-color="white"/>
</linearGradient>
<linearGradient id="paint1_linear_3_1677" x1="221.483" y1="106.249" x2="221.483" y2="549.215" gradientUnits="userSpaceOnUse">
<stop stop-color="#F2CEFF"/>
<stop offset="1" stop-color="#FFCFFA"/>
</linearGradient>
<linearGradient id="paint2_linear_3_1677" x1="66.5019" y1="297.655" x2="503.572" y2="366.256" gradientUnits="userSpaceOnUse">
<stop stop-color="#8099B5"/>
<stop offset="1" stop-color="white"/>
</linearGradient>
<linearGradient id="paint3_linear_3_1677" x1="67.0244" y1="293.595" x2="504.095" y2="362.195" gradientUnits="userSpaceOnUse">
<stop stop-color="#8099B5"/>
<stop offset="1" stop-color="white"/>
</linearGradient>
</defs>
</svg>
