<svg width="34" height="31" viewBox="0 0 34 31" fill="none" xmlns="http://www.w3.org/2000/svg">
<path d="M11.5558 18.7415C10.6886 16.9519 10.3719 16.4847 10.1863 16.153C9.37956 14.7159 8.58892 13.258 7.62885 11.921C6.8725 10.8698 6.11211 9.80395 5.265 8.81112C3.76036 7.05073 2.5986 8.06859 1.29969 8.95295C0.505014 9.49317 -0.104103 10.438 0.014897 11.4142C0.192388 12.9097 0.995131 14.0255 1.79182 15.2082C2.88702 16.8372 11.5357 30.0422 11.6264 30.4281C15.2347 21.5448 16.9007 18.7769 20.1742 13.3435C23.4457 7.91007 27.5462 2.32437 33.363 0.134309C28.835 -0.624912 24.3856 1.94476 20.9326 5.06716C17.0802 8.55248 13.7785 13.9755 11.5558 18.7415Z" fill="white"/>
</svg>
