<svg width="163" height="163" viewBox="0 0 163 163" fill="none" xmlns="http://www.w3.org/2000/svg">
<path d="M81.042 162.084C125.8 162.084 162.084 125.801 162.084 81.0422C162.084 36.2838 125.8 0 81.042 0C36.2836 0 0 36.2838 0 81.0422C0 125.801 36.2836 162.084 81.042 162.084Z" fill="white"/>
<path d="M29.6884 91.7849L31.837 89.6719C32.5998 88.9277 33.3174 88.1385 33.9858 87.3084C34.6301 86.5367 35.2052 85.7098 35.7047 84.8374C36.1231 84.1047 36.3566 83.2812 36.3852 82.438C36.4123 81.8915 36.2333 81.3547 35.8837 80.9338C35.682 80.7478 35.4449 80.6044 35.1865 80.5121C34.928 80.4198 34.6536 80.3805 34.3797 80.3967C33.8396 80.3814 33.314 80.5736 32.9113 80.9338C32.5086 81.3815 32.2254 81.9234 32.0877 82.5096L29.9032 81.5427C30.0719 80.4511 30.632 79.4583 31.4789 78.7494C32.4017 78.0425 33.54 77.6757 34.7019 77.7108C35.3762 77.6914 36.0473 77.8135 36.6717 78.0689C37.211 78.2718 37.6997 78.5895 38.104 79C38.4856 79.3722 38.7792 79.8249 38.9635 80.3251C39.1338 80.8204 39.2186 81.3412 39.2142 81.865C39.2152 82.6168 39.1068 83.3648 38.892 84.0853C38.6634 84.7888 38.3507 85.4621 37.9609 86.0908C37.5972 86.735 37.1778 87.3461 36.7076 87.9172C36.2928 88.453 35.8503 88.967 35.3823 89.4571C34.9924 89.8796 34.5737 90.2745 34.129 90.6389C33.8473 90.9088 33.5482 91.16 33.2337 91.391H39.8946V93.7187H29.8315V91.6058L29.6884 91.7849Z" fill="#9419FF"/>
<path d="M29.6884 91.7849L31.837 89.6719C32.5998 88.9277 33.3174 88.1385 33.9858 87.3084C34.6301 86.5367 35.2052 85.7098 35.7047 84.8374C36.1231 84.1047 36.3566 83.2812 36.3852 82.438C36.4123 81.8915 36.2333 81.3547 35.8837 80.9338C35.682 80.7478 35.4449 80.6044 35.1865 80.5121C34.928 80.4198 34.6536 80.3805 34.3797 80.3967C33.8396 80.3814 33.314 80.5736 32.9113 80.9338C32.5086 81.3815 32.2254 81.9234 32.0877 82.5096L29.9032 81.5427C30.0719 80.4511 30.632 79.4583 31.4789 78.7494C32.4017 78.0425 33.54 77.6757 34.7019 77.7108C35.3762 77.6914 36.0473 77.8135 36.6717 78.0689C37.211 78.2718 37.6997 78.5895 38.104 79C38.4856 79.3722 38.7792 79.8249 38.9635 80.3251C39.1338 80.8204 39.2186 81.3412 39.2142 81.865C39.2152 82.6168 39.1068 83.3648 38.892 84.0853C38.6634 84.7888 38.3507 85.4621 37.9609 86.0908C37.5972 86.735 37.1778 87.3461 36.7076 87.9172C36.2928 88.453 35.8503 88.967 35.3823 89.4571C34.9924 89.8796 34.5737 90.2745 34.129 90.6389C33.8473 90.9088 33.5482 91.16 33.2337 91.391H39.8946V93.7187H29.8315V91.6058L29.6884 91.7849Z" fill="black" fill-opacity="0.2"/>
<path d="M50.9235 77.8537L56.367 85.3384L61.5595 77.8537H64.2098V93.7183H61.4522V82.1511L56.4029 89.3135H55.9729L50.8877 82.1511V93.7183H48.0945V77.7104L50.9235 77.8537Z" fill="#9419FF"/>
<path d="M50.9235 77.8537L56.367 85.3384L61.5595 77.8537H64.2098V93.7183H61.4522V82.1511L56.4029 89.3135H55.9729L50.8877 82.1511V93.7183H48.0945V77.7104L50.9235 77.8537Z" fill="black" fill-opacity="0.2"/>
<path d="M67.8269 85.9127C67.8067 84.8079 68.0141 83.7108 68.4359 82.6896C68.8092 81.7021 69.3961 80.8094 70.1548 80.0753C70.9011 79.3227 71.7897 78.7262 72.769 78.3205C73.8486 77.8809 75.0054 77.6617 76.1711 77.6759C77.2975 77.674 78.4145 77.8804 79.4658 78.2847C80.4562 78.6219 81.361 79.172 82.116 79.8963C82.8974 80.6807 83.5125 81.6146 83.9247 82.6421C84.337 83.6697 84.5379 84.7699 84.5153 85.8768C84.53 87.0078 84.3105 88.1295 83.8708 89.1715C83.4685 90.1439 82.885 91.0311 82.1516 91.7858C81.3934 92.5318 80.4919 93.1166 79.5016 93.5048C78.4512 93.9124 77.3337 94.1189 76.207 94.1136C75.084 94.1132 73.9695 93.9194 72.9123 93.5406C71.9391 93.1562 71.0507 92.5843 70.2979 91.8574C69.5415 91.1142 68.9445 90.2247 68.5432 89.2432C68.1289 88.1573 67.9224 87.0032 67.9344 85.841L67.8269 85.9127ZM70.7635 85.9127C70.7633 86.6702 70.8969 87.4218 71.1576 88.133C71.4323 88.7921 71.8199 89.3981 72.3034 89.9236C72.7982 90.4206 73.3812 90.8214 74.0225 91.1054C74.7098 91.3629 75.4372 91.4963 76.1711 91.4993C76.9444 91.5088 77.7117 91.3626 78.4273 91.0695C79.0625 90.7935 79.6352 90.3914 80.1106 89.8877C80.5839 89.368 80.949 88.7593 81.1849 88.0971C81.4372 87.3847 81.5584 86.6325 81.5429 85.8768C81.5465 85.1074 81.4132 84.3434 81.149 83.6207C80.8743 82.9616 80.4865 82.3556 80.003 81.8301C79.5165 81.3321 78.9309 80.9417 78.2841 80.6841C77.6167 80.3976 76.8974 80.2514 76.1711 80.2544C75.4333 80.2515 74.7025 80.3977 74.0225 80.6841C73.3757 80.9417 72.7899 81.3321 72.3034 81.8301C71.8315 82.3574 71.4558 82.9635 71.1932 83.6207C70.929 84.3434 70.7957 85.1074 70.7994 85.8768L70.7635 85.9127Z" fill="#9419FF"/>
<path d="M67.8269 85.9127C67.8067 84.8079 68.0141 83.7108 68.4359 82.6896C68.8092 81.7021 69.3961 80.8094 70.1548 80.0753C70.9011 79.3227 71.7897 78.7262 72.769 78.3205C73.8486 77.8809 75.0054 77.6617 76.1711 77.6759C77.2975 77.674 78.4145 77.8804 79.4658 78.2847C80.4562 78.6219 81.361 79.172 82.116 79.8963C82.8974 80.6807 83.5125 81.6146 83.9247 82.6421C84.337 83.6697 84.5379 84.7699 84.5153 85.8768C84.53 87.0078 84.3105 88.1295 83.8708 89.1715C83.4685 90.1439 82.885 91.0311 82.1516 91.7858C81.3934 92.5318 80.4919 93.1166 79.5016 93.5048C78.4512 93.9124 77.3337 94.1189 76.207 94.1136C75.084 94.1132 73.9695 93.9194 72.9123 93.5406C71.9391 93.1562 71.0507 92.5843 70.2979 91.8574C69.5415 91.1142 68.9445 90.2247 68.5432 89.2432C68.1289 88.1573 67.9224 87.0032 67.9344 85.841L67.8269 85.9127ZM70.7635 85.9127C70.7633 86.6702 70.8969 87.4218 71.1576 88.133C71.4323 88.7921 71.8199 89.3981 72.3034 89.9236C72.7982 90.4206 73.3812 90.8214 74.0225 91.1054C74.7098 91.3629 75.4372 91.4963 76.1711 91.4993C76.9444 91.5088 77.7117 91.3626 78.4273 91.0695C79.0625 90.7935 79.6352 90.3914 80.1106 89.8877C80.5839 89.368 80.949 88.7593 81.1849 88.0971C81.4372 87.3847 81.5584 86.6325 81.5429 85.8768C81.5465 85.1074 81.4132 84.3434 81.149 83.6207C80.8743 82.9616 80.4865 82.3556 80.003 81.8301C79.5165 81.3321 78.9309 80.9417 78.2841 80.6841C77.6167 80.3976 76.8974 80.2514 76.1711 80.2544C75.4333 80.2515 74.7025 80.3977 74.0225 80.6841C73.3757 80.9417 72.7899 81.3321 72.3034 81.8301C71.8315 82.3574 71.4558 82.9635 71.1932 83.6207C70.929 84.3434 70.7957 85.1074 70.7994 85.8768L70.7635 85.9127Z" fill="black" fill-opacity="0.2"/>
<path d="M88.4529 77.7469H92.8936C94.2939 77.7138 95.6888 77.9321 97.012 78.3916C98.0621 78.7663 99.0247 79.3512 99.8411 80.1105C100.55 80.8292 101.089 81.6982 101.417 82.6532C101.763 83.6178 101.933 84.6367 101.918 85.6614C101.923 86.7468 101.742 87.8249 101.381 88.8486C100.997 89.8394 100.398 90.7324 99.6262 91.4629C98.7926 92.2262 97.82 92.8219 96.7613 93.2177C95.474 93.672 94.1153 93.8903 92.7504 93.8623H88.2739V77.8544L88.4529 77.7469ZM92.8936 80.3612H91.0315V91.1048H92.7863C93.6648 91.1209 94.5388 90.9752 95.3646 90.675C96.0825 90.4504 96.7426 90.0715 97.2986 89.5649C97.8349 89.0896 98.2417 88.4858 98.4804 87.8101C98.7736 87.082 98.9196 86.303 98.9102 85.5182C98.9232 84.7678 98.7767 84.0232 98.4804 83.3336C98.2299 82.6946 97.8236 82.1283 97.2986 81.6863C96.7315 81.2036 96.074 80.8384 95.3646 80.6119C94.5444 80.3421 93.6855 80.2091 92.8221 80.218L92.8936 80.3612Z" fill="#9419FF"/>
<path d="M88.4529 77.7469H92.8936C94.2939 77.7138 95.6888 77.9321 97.012 78.3916C98.0621 78.7663 99.0247 79.3512 99.8411 80.1105C100.55 80.8292 101.089 81.6982 101.417 82.6532C101.763 83.6178 101.933 84.6367 101.918 85.6614C101.923 86.7468 101.742 87.8249 101.381 88.8486C100.997 89.8394 100.398 90.7324 99.6262 91.4629C98.7926 92.2262 97.82 92.8219 96.7613 93.2177C95.474 93.672 94.1153 93.8903 92.7504 93.8623H88.2739V77.8544L88.4529 77.7469ZM92.8936 80.3612H91.0315V91.1048H92.7863C93.6648 91.1209 94.5388 90.9752 95.3646 90.675C96.0825 90.4504 96.7426 90.0715 97.2986 89.5649C97.8349 89.0896 98.2417 88.4858 98.4804 87.8101C98.7736 87.082 98.9196 86.303 98.9102 85.5182C98.9232 84.7678 98.7767 84.0232 98.4804 83.3336C98.2299 82.6946 97.8236 82.1283 97.2986 81.6863C96.7315 81.2036 96.074 80.8384 95.3646 80.6119C94.5444 80.3421 93.6855 80.2091 92.8221 80.218L92.8936 80.3612Z" fill="black" fill-opacity="0.2"/>
<path d="M114.92 77.8537V80.468H108.474V84.4431H114.239V87.0931H108.474V91.2115H115.135V93.7183H105.645V77.7104L114.92 77.8537Z" fill="#9419FF"/>
<path d="M114.92 77.8537V80.468H108.474V84.4431H114.239V87.0931H108.474V91.2115H115.135V93.7183H105.645V77.7104L114.92 77.8537Z" fill="black" fill-opacity="0.2"/>
<path d="M125.483 89.7432C125.48 89.5007 125.427 89.2614 125.329 89.0398C125.23 88.8181 125.088 88.6189 124.91 88.454C124.526 88.068 124.078 87.7528 123.585 87.5229C123.084 87.2364 122.511 86.9857 121.866 86.6992C121.246 86.4296 120.658 86.0934 120.111 85.6964C119.59 85.2988 119.142 84.8142 118.786 84.264C118.403 83.6146 118.217 82.8683 118.249 82.1153C118.243 81.5347 118.365 80.9599 118.607 80.4321C118.808 79.8828 119.14 79.391 119.574 78.9997C120.031 78.5865 120.567 78.2699 121.15 78.0686C121.824 77.8131 122.542 77.6914 123.263 77.7104C124.166 77.7103 125.063 77.8679 125.913 78.176C126.624 78.444 127.271 78.8588 127.811 79.3936L126.307 81.5065C125.94 81.142 125.517 80.8396 125.053 80.6112C124.554 80.4012 124.019 80.2917 123.478 80.2889C122.886 80.2498 122.3 80.4281 121.83 80.7902C121.639 80.9385 121.485 81.1286 121.38 81.346C121.274 81.5633 121.22 81.8021 121.221 82.0437C121.208 82.2904 121.249 82.537 121.342 82.766C121.435 82.995 121.577 83.2008 121.759 83.3687C122.164 83.7439 122.623 84.0575 123.119 84.2998C123.688 84.5972 124.274 84.8603 124.874 85.0877C125.495 85.3251 126.084 85.6379 126.629 86.0188C127.177 86.3822 127.641 86.8584 127.99 87.4155C128.373 88.0908 128.559 88.86 128.527 89.6358C128.524 90.2654 128.39 90.8875 128.133 91.4622C127.854 92.0037 127.464 92.4797 126.987 92.8588C126.473 93.2672 125.891 93.5823 125.268 93.79C124.586 94.0098 123.872 94.1186 123.155 94.1123C122.631 94.1637 122.103 94.1637 121.579 94.1123C121.062 93.9994 120.557 93.8313 120.075 93.6109C119.607 93.418 119.172 93.1521 118.786 92.823C118.442 92.51 118.162 92.1329 117.962 91.7129L119.538 89.8148C120.003 90.4054 120.605 90.8727 121.293 91.1757C121.915 91.4471 122.584 91.5932 123.263 91.6054C123.848 91.6315 124.425 91.4682 124.91 91.1399C125.123 90.9771 125.293 90.7648 125.405 90.5214C125.518 90.278 125.569 90.0109 125.555 89.7432H125.483Z" fill="#9419FF"/>
<path d="M125.483 89.7432C125.48 89.5007 125.427 89.2614 125.329 89.0398C125.23 88.8181 125.088 88.6189 124.91 88.454C124.526 88.068 124.078 87.7528 123.585 87.5229C123.084 87.2364 122.511 86.9857 121.866 86.6992C121.246 86.4296 120.658 86.0934 120.111 85.6964C119.59 85.2988 119.142 84.8142 118.786 84.264C118.403 83.6146 118.217 82.8683 118.249 82.1153C118.243 81.5347 118.365 80.9599 118.607 80.4321C118.808 79.8828 119.14 79.391 119.574 78.9997C120.031 78.5865 120.567 78.2699 121.15 78.0686C121.824 77.8131 122.542 77.6914 123.263 77.7104C124.166 77.7103 125.063 77.8679 125.913 78.176C126.624 78.444 127.271 78.8588 127.811 79.3936L126.307 81.5065C125.94 81.142 125.517 80.8396 125.053 80.6112C124.554 80.4012 124.019 80.2917 123.478 80.2889C122.886 80.2498 122.3 80.4281 121.83 80.7902C121.639 80.9385 121.485 81.1286 121.38 81.346C121.274 81.5633 121.22 81.8021 121.221 82.0437C121.208 82.2904 121.249 82.537 121.342 82.766C121.435 82.995 121.577 83.2008 121.759 83.3687C122.164 83.7439 122.623 84.0575 123.119 84.2998C123.688 84.5972 124.274 84.8603 124.874 85.0877C125.495 85.3251 126.084 85.6379 126.629 86.0188C127.177 86.3822 127.641 86.8584 127.99 87.4155C128.373 88.0908 128.559 88.86 128.527 89.6358C128.524 90.2654 128.39 90.8875 128.133 91.4622C127.854 92.0037 127.464 92.4797 126.987 92.8588C126.473 93.2672 125.891 93.5823 125.268 93.79C124.586 94.0098 123.872 94.1186 123.155 94.1123C122.631 94.1637 122.103 94.1637 121.579 94.1123C121.062 93.9994 120.557 93.8313 120.075 93.6109C119.607 93.418 119.172 93.1521 118.786 92.823C118.442 92.51 118.162 92.1329 117.962 91.7129L119.538 89.8148C120.003 90.4054 120.605 90.8727 121.293 91.1757C121.915 91.4471 122.584 91.5932 123.263 91.6054C123.848 91.6315 124.425 91.4682 124.91 91.1399C125.123 90.9771 125.293 90.7648 125.405 90.5214C125.518 90.278 125.569 90.0109 125.555 89.7432H125.483Z" fill="black" fill-opacity="0.2"/>
<path d="M50.4937 121.509C50.6781 121.36 50.8463 121.192 50.9951 121.008C51.7235 119.96 52.0882 118.702 52.0335 117.427C52.0335 114.812 50.7086 111.697 44.5131 111.697H29.4363V132.503H45.0143C46.9634 132.666 48.9124 132.188 50.5654 131.143C51.2678 130.514 51.8145 129.73 52.1625 128.854C52.5105 127.978 52.6504 127.033 52.5708 126.093C52.6316 125.217 52.4735 124.339 52.1109 123.539C51.7484 122.739 51.1926 122.041 50.4937 121.509ZM33.0175 123.443H45.6233C46.5528 123.37 47.4814 123.595 48.2733 124.088C48.5413 124.343 48.7457 124.657 48.8701 125.005C48.9945 125.353 49.0355 125.726 48.9896 126.093C49.0283 126.492 48.9845 126.896 48.8613 127.277C48.7381 127.659 48.5381 128.012 48.2733 128.313C47.5618 128.837 46.6817 129.08 45.8023 128.994H33.0175V123.443ZM47.8078 119.432C47.0324 119.819 46.1636 119.981 45.3009 119.898H33.0175V115.206H45.3009C46.1699 115.122 47.0417 115.337 47.7719 115.815C48.0147 116.049 48.2017 116.335 48.3195 116.651C48.4372 116.967 48.4827 117.306 48.4524 117.642C48.4984 117.97 48.4639 118.305 48.3516 118.617C48.2393 118.929 48.0526 119.208 47.8078 119.432Z" fill="#9419FF"/>
<path d="M50.4937 121.509C50.6781 121.36 50.8463 121.192 50.9951 121.008C51.7235 119.96 52.0882 118.702 52.0335 117.427C52.0335 114.812 50.7086 111.697 44.5131 111.697H29.4363V132.503H45.0143C46.9634 132.666 48.9124 132.188 50.5654 131.143C51.2678 130.514 51.8145 129.73 52.1625 128.854C52.5105 127.978 52.6504 127.033 52.5708 126.093C52.6316 125.217 52.4735 124.339 52.1109 123.539C51.7484 122.739 51.1926 122.041 50.4937 121.509ZM33.0175 123.443H45.6233C46.5528 123.37 47.4814 123.595 48.2733 124.088C48.5413 124.343 48.7457 124.657 48.8701 125.005C48.9945 125.353 49.0355 125.726 48.9896 126.093C49.0283 126.492 48.9845 126.896 48.8613 127.277C48.7381 127.659 48.5381 128.012 48.2733 128.313C47.5618 128.837 46.6817 129.08 45.8023 128.994H33.0175V123.443ZM47.8078 119.432C47.0324 119.819 46.1636 119.981 45.3009 119.898H33.0175V115.206H45.3009C46.1699 115.122 47.0417 115.337 47.7719 115.815C48.0147 116.049 48.2017 116.335 48.3195 116.651C48.4372 116.967 48.4827 117.306 48.4524 117.642C48.4984 117.97 48.4639 118.305 48.3516 118.617C48.2393 118.929 48.0526 119.208 47.8078 119.432Z" fill="black" fill-opacity="0.2"/>
<path d="M72.0545 111.625H63.6386C61.4312 111.405 59.2243 112.047 57.4791 113.416C56.1374 115.064 55.4946 117.173 55.6885 119.289V125.27C55.5852 126.305 55.7009 127.349 56.0279 128.337C56.3549 129.324 56.8858 130.231 57.5864 131C59.3334 132.273 61.4874 132.859 63.6386 132.647H72.0545C74.1195 132.871 76.1975 132.364 77.9275 131.215C78.6382 130.411 79.169 129.465 79.484 128.44C79.799 127.415 79.891 126.334 79.7539 125.27V119.146C79.8726 118.044 79.7586 116.93 79.4193 115.875C79.08 114.82 78.523 113.848 77.7843 113.022C76.104 111.884 74.0702 111.388 72.0545 111.625ZM76.1727 119.146V125.27C76.1727 127.419 75.7429 128.171 75.4564 128.457C75.17 128.744 74.3821 129.137 71.8753 129.137H63.4596C62.2152 129.299 60.9528 129.034 59.8784 128.385C59.5306 127.952 59.2749 127.452 59.1271 126.916C58.9793 126.381 58.9426 125.82 59.0189 125.27V119.146C58.8838 118.007 59.2057 116.861 59.9142 115.959C60.9884 115.308 62.2475 115.031 63.4954 115.171H71.9111C74.0598 115.171 74.9551 115.565 75.4923 115.923C76.0295 116.281 76.1727 116.926 76.1727 119.003V119.146Z" fill="#9419FF"/>
<path d="M72.0545 111.625H63.6386C61.4312 111.405 59.2243 112.047 57.4791 113.416C56.1374 115.064 55.4946 117.173 55.6885 119.289V125.27C55.5852 126.305 55.7009 127.349 56.0279 128.337C56.3549 129.324 56.8858 130.231 57.5864 131C59.3334 132.273 61.4874 132.859 63.6386 132.647H72.0545C74.1195 132.871 76.1975 132.364 77.9275 131.215C78.6382 130.411 79.169 129.465 79.484 128.44C79.799 127.415 79.891 126.334 79.7539 125.27V119.146C79.8726 118.044 79.7586 116.93 79.4193 115.875C79.08 114.82 78.523 113.848 77.7843 113.022C76.104 111.884 74.0702 111.388 72.0545 111.625ZM76.1727 119.146V125.27C76.1727 127.419 75.7429 128.171 75.4564 128.457C75.17 128.744 74.3821 129.137 71.8753 129.137H63.4596C62.2152 129.299 60.9528 129.034 59.8784 128.385C59.5306 127.952 59.2749 127.452 59.1271 126.916C58.9793 126.381 58.9426 125.82 59.0189 125.27V119.146C58.8838 118.007 59.2057 116.861 59.9142 115.959C60.9884 115.308 62.2475 115.031 63.4954 115.171H71.9111C74.0598 115.171 74.9551 115.565 75.4923 115.923C76.0295 116.281 76.1727 116.926 76.1727 119.003V119.146Z" fill="black" fill-opacity="0.2"/>
<path d="M98.8039 111.626H83.1542V132.433H98.7681C99.8531 132.547 100.95 132.431 101.987 132.092C103.024 131.752 103.977 131.197 104.784 130.463C106.013 128.723 106.584 126.604 106.396 124.482V119.397C106.629 117.222 106.013 115.041 104.677 113.309C103.011 112.009 100.906 111.406 98.8039 111.626ZM102.851 124.482C102.851 126.882 102.457 127.741 102.206 128.064C101.757 128.423 101.24 128.687 100.686 128.841C100.132 128.995 99.5528 129.035 98.9829 128.959H86.7354V115.207H98.9115C100.953 115.207 101.741 115.637 102.063 115.995C102.717 117.067 102.982 118.332 102.815 119.576L102.851 124.482Z" fill="#9419FF"/>
<path d="M98.8039 111.626H83.1542V132.433H98.7681C99.8531 132.547 100.95 132.431 101.987 132.092C103.024 131.752 103.977 131.197 104.784 130.463C106.013 128.723 106.584 126.604 106.396 124.482V119.397C106.629 117.222 106.013 115.041 104.677 113.309C103.011 112.009 100.906 111.406 98.8039 111.626ZM102.851 124.482C102.851 126.882 102.457 127.741 102.206 128.064C101.757 128.423 101.24 128.687 100.686 128.841C100.132 128.995 99.5528 129.035 98.9829 128.959H86.7354V115.207H98.9115C100.953 115.207 101.741 115.637 102.063 115.995C102.717 117.067 102.982 118.332 102.815 119.576L102.851 124.482Z" fill="black" fill-opacity="0.2"/>
<path d="M127.776 111.66L119.611 119.861L111.696 111.911L111.481 111.66H106.575L117.82 122.833V132.503H121.401V122.869L132.646 111.66H127.776Z" fill="#9419FF"/>
<path d="M127.776 111.66L119.611 119.861L111.696 111.911L111.481 111.66H106.575L117.82 122.833V132.503H121.401V122.869L132.646 111.66H127.776Z" fill="black" fill-opacity="0.2"/>
<path d="M38.8188 42.3289H53.8598V38.8193H35.2734V59.626H38.8188V50.673H53.4659V47.1277H38.8188V42.3289Z" fill="#9419FF"/>
<path d="M38.8188 42.3289H53.8598V38.8193H35.2734V59.626H38.8188V50.673H53.4659V47.1277H38.8188V42.3289Z" fill="black" fill-opacity="0.2"/>
<path d="M68.5422 38.8193H64.5313L53.7877 59.626H57.7986L60.2697 54.8272H72.8038L75.2748 59.626H79.3933L68.6497 39.2491L68.5422 38.8193ZM70.9417 51.3177H62.0961L66.5367 42.7228L70.9417 51.3177Z" fill="#9419FF"/>
<path d="M68.5422 38.8193H64.5313L53.7877 59.626H57.7986L60.2697 54.8272H72.8038L75.2748 59.626H79.3933L68.6497 39.2491L68.5422 38.8193ZM70.9417 51.3177H62.0961L66.5367 42.7228L70.9417 51.3177Z" fill="black" fill-opacity="0.2"/>
<path d="M96.5827 38.6399H88.167C85.9993 38.4332 83.8373 39.0895 82.1504 40.4664C81.4582 41.2895 80.937 42.2423 80.6173 43.2692C80.2976 44.2961 80.1858 45.3764 80.2883 46.4469V51.9978C80.1065 54.1249 80.7761 56.2372 82.1504 57.8709C83.8603 59.1987 86.0115 59.826 88.167 59.6257H96.5827C98.6595 59.8061 100.735 59.262 102.456 58.0858C103.109 57.4925 103.619 56.7589 103.948 55.9402C104.276 55.1214 104.415 54.2388 104.354 53.3586V52.5707H100.773V53.3586C100.821 53.7461 100.77 54.1395 100.626 54.5025C100.482 54.8654 100.249 55.1863 99.949 55.4357C98.9324 55.992 97.7719 56.2292 96.6185 56.1161H88.2026C86.949 56.2742 85.68 55.9824 84.6214 55.2925C83.9191 54.347 83.6111 53.1659 83.762 51.9978V46.4469C83.591 45.1878 83.8976 43.9102 84.6214 42.8658C85.68 42.1759 86.949 41.884 88.2026 42.0421H96.6185C97.8672 41.8886 99.1308 42.1665 100.2 42.8299C100.465 43.0794 100.668 43.3875 100.792 43.7296C100.916 44.0717 100.959 44.4381 100.916 44.7996V45.5874H104.497V44.7996C104.354 42.0421 103.029 38.6399 96.5827 38.6399Z" fill="#9419FF"/>
<path d="M96.5827 38.6399H88.167C85.9993 38.4332 83.8373 39.0895 82.1504 40.4664C81.4582 41.2895 80.937 42.2423 80.6173 43.2692C80.2976 44.2961 80.1858 45.3764 80.2883 46.4469V51.9978C80.1065 54.1249 80.7761 56.2372 82.1504 57.8709C83.8603 59.1987 86.0115 59.826 88.167 59.6257H96.5827C98.6595 59.8061 100.735 59.262 102.456 58.0858C103.109 57.4925 103.619 56.7589 103.948 55.9402C104.276 55.1214 104.415 54.2388 104.354 53.3586V52.5707H100.773V53.3586C100.821 53.7461 100.77 54.1395 100.626 54.5025C100.482 54.8654 100.249 55.1863 99.949 55.4357C98.9324 55.992 97.7719 56.2292 96.6185 56.1161H88.2026C86.949 56.2742 85.68 55.9824 84.6214 55.2925C83.9191 54.347 83.6111 53.1659 83.762 51.9978V46.4469C83.591 45.1878 83.8976 43.9102 84.6214 42.8658C85.68 42.1759 86.949 41.884 88.2026 42.0421H96.6185C97.8672 41.8886 99.1308 42.1665 100.2 42.8299C100.465 43.0794 100.668 43.3875 100.792 43.7296C100.916 44.0717 100.959 44.4381 100.916 44.7996V45.5874H104.497V44.7996C104.354 42.0421 103.029 38.6399 96.5827 38.6399Z" fill="black" fill-opacity="0.2"/>
<path d="M126.308 42.3289V38.8193H107.722V59.626H126.308V56.1165H111.303V50.673H125.95V47.1277H111.303V42.3289H126.308Z" fill="#9419FF"/>
<path d="M126.308 42.3289V38.8193H107.722V59.626H126.308V56.1165H111.303V50.673H125.95V47.1277H111.303V42.3289H126.308Z" fill="black" fill-opacity="0.2"/>
<path d="M28.5415 68.6512C28.5415 68.4137 28.6359 68.186 28.8038 68.0181C28.9717 67.8502 29.1994 67.7559 29.4368 67.7559H132.647C132.884 67.7559 133.112 67.8502 133.28 68.0181C133.447 68.186 133.542 68.4137 133.542 68.6512C133.533 68.8858 133.436 69.1084 133.27 69.2744C133.104 69.4404 132.881 69.5376 132.647 69.5465H29.4368C29.2022 69.5376 28.9797 69.4404 28.8136 69.2744C28.6476 69.1084 28.5504 68.8858 28.5415 68.6512Z" fill="#9419FF"/>
<path d="M28.5415 68.6512C28.5415 68.4137 28.6359 68.186 28.8038 68.0181C28.9717 67.8502 29.1994 67.7559 29.4368 67.7559H132.647C132.884 67.7559 133.112 67.8502 133.28 68.0181C133.447 68.186 133.542 68.4137 133.542 68.6512C133.533 68.8858 133.436 69.1084 133.27 69.2744C133.104 69.4404 132.881 69.5376 132.647 69.5465H29.4368C29.2022 69.5376 28.9797 69.4404 28.8136 69.2744C28.6476 69.1084 28.5504 68.8858 28.5415 68.6512Z" fill="black" fill-opacity="0.2"/>
<path d="M28.5415 102.17C28.5415 101.933 28.6359 101.705 28.8038 101.537C28.9717 101.369 29.1994 101.275 29.4368 101.275H132.647C132.884 101.275 133.112 101.369 133.28 101.537C133.447 101.705 133.542 101.933 133.542 102.17C133.542 102.408 133.447 102.635 133.28 102.803C133.112 102.971 132.884 103.065 132.647 103.065H29.4368C29.1994 103.065 28.9717 102.971 28.8038 102.803C28.6359 102.635 28.5415 102.408 28.5415 102.17Z" fill="#9419FF"/>
<path d="M28.5415 102.17C28.5415 101.933 28.6359 101.705 28.8038 101.537C28.9717 101.369 29.1994 101.275 29.4368 101.275H132.647C132.884 101.275 133.112 101.369 133.28 101.537C133.447 101.705 133.542 101.933 133.542 102.17C133.542 102.408 133.447 102.635 133.28 102.803C133.112 102.971 132.884 103.065 132.647 103.065H29.4368C29.1994 103.065 28.9717 102.971 28.8038 102.803C28.6359 102.635 28.5415 102.408 28.5415 102.17Z" fill="black" fill-opacity="0.2"/>
</svg>
