<svg width="163" height="163" viewBox="0 0 163 163" fill="none" xmlns="http://www.w3.org/2000/svg">
<path d="M81.0422 162.084C125.801 162.084 162.084 125.801 162.084 81.0422C162.084 36.2838 125.801 0 81.0422 0C36.2838 0 0 36.2838 0 81.0422C0 125.801 36.2838 162.084 81.0422 162.084Z" fill="white"/>
<path d="M53.8598 98.877C53.8598 93.0424 49.1301 88.3125 43.2955 88.3125C37.4609 88.3125 32.731 93.0424 32.731 98.877V115.171C32.731 121.006 37.4609 125.736 43.2955 125.736C49.1301 125.736 53.8598 121.006 53.8598 115.171V98.877Z" fill="#9419FF"/>
<path d="M53.8598 98.877C53.8598 93.0424 49.1301 88.3125 43.2955 88.3125C37.4609 88.3125 32.731 93.0424 32.731 98.877V115.171C32.731 121.006 37.4609 125.736 43.2955 125.736C49.1301 125.736 53.8598 121.006 53.8598 115.171V98.877Z" fill="black" fill-opacity="0.2"/>
<path d="M91.5361 76.7799C91.5361 70.9453 86.8061 66.2153 80.9715 66.2153C75.1369 66.2153 70.407 70.9453 70.407 76.7799V115.17C70.407 121.005 75.1369 125.735 80.9715 125.735C86.8061 125.735 91.5361 121.005 91.5361 115.17V76.7799Z" fill="#9419FF"/>
<path d="M91.5361 76.7799C91.5361 70.9453 86.8061 66.2153 80.9715 66.2153C75.1369 66.2153 70.407 70.9453 70.407 76.7799V115.17C70.407 121.005 75.1369 125.735 80.9715 125.735C86.8061 125.735 91.5361 121.005 91.5361 115.17V76.7799Z" fill="black" fill-opacity="0.2"/>
<path d="M129.317 46.9131C129.317 41.0785 124.587 36.3486 118.752 36.3486C112.918 36.3486 108.188 41.0785 108.188 46.9131V115.135C108.188 120.969 112.918 125.699 118.752 125.699C124.587 125.699 129.317 120.969 129.317 115.135V46.9131Z" fill="#9419FF"/>
<path d="M129.317 46.9131C129.317 41.0785 124.587 36.3486 118.752 36.3486C112.918 36.3486 108.188 41.0785 108.188 46.9131V115.135C108.188 120.969 112.918 125.699 118.752 125.699C124.587 125.699 129.317 120.969 129.317 115.135V46.9131Z" fill="black" fill-opacity="0.2"/>
</svg>
