<svg width="163" height="163" viewBox="0 0 163 163" fill="none" xmlns="http://www.w3.org/2000/svg">
<path d="M81.0422 162.76C125.801 162.76 162.084 126.476 162.084 81.718C162.084 36.9596 125.801 0.675781 81.0422 0.675781C36.2838 0.675781 0 36.9596 0 81.718C0 126.476 36.2838 162.76 81.0422 162.76Z" fill="white"/>
<path d="M47.3783 81.466C45.2147 80.2037 42.7095 79.6526 40.2159 79.8902H29.4724C27.8435 80.0377 26.2042 79.7665 24.7096 79.1024C24.3798 78.8028 24.1265 78.4287 23.9708 78.0113C23.815 77.594 23.7613 77.1453 23.8143 76.703C23.711 75.6388 24.0185 74.5755 24.6737 73.7306C25.8688 72.98 27.2811 72.6521 28.6846 72.7995H40.1445C41.7421 72.6497 43.3435 73.0406 44.6924 73.9097C45.0835 74.2557 45.3879 74.6888 45.5807 75.174C45.7736 75.6592 45.8494 76.183 45.8026 76.703V77.1686H49.1689V76.703C49.1689 71.94 46.3041 69.5406 40.6459 69.5406H28.8995C26.7126 69.3643 24.5332 69.9598 22.74 71.2238C22.0174 71.9367 21.4626 72.8014 21.1157 73.7553C20.7688 74.7092 20.6384 75.7284 20.7343 76.7388C20.6536 77.6236 20.7621 78.5153 21.0523 79.355C21.3425 80.1947 21.8078 80.9631 22.4176 81.6092C24.3782 82.8846 26.7152 83.4531 29.0427 83.2208H41.0039C42.4674 83.0664 43.9428 83.3664 45.2297 84.0802C45.6127 84.4599 45.9051 84.9212 46.085 85.4297C46.2648 85.9382 46.3273 86.4807 46.2681 87.0168C46.315 87.57 46.2328 88.1264 46.0277 88.6423C45.8226 89.1581 45.5004 89.6193 45.0865 89.9892C43.9238 90.7243 42.5543 91.0634 41.1829 90.9561H29.938C28.3363 91.0954 26.7344 90.6918 25.39 89.8101C24.9989 89.4642 24.6945 89.0311 24.5017 88.5458C24.3089 88.0606 24.233 87.5369 24.2798 87.0168V86.5512H20.9135V87.0168C20.8467 88.0417 21.0154 89.0683 21.4064 90.018C21.7975 90.9676 22.4006 91.8153 23.1697 92.496C24.8888 93.7507 26.9895 94.3708 29.1144 94.2508H41.4336C43.6544 94.4314 45.8692 93.8366 47.7007 92.5677C48.4163 91.8573 48.9668 90.9982 49.3134 90.0513C49.6599 89.1044 49.7941 88.0929 49.7062 87.0885C49.8079 86.0324 49.6489 84.9674 49.243 83.9871C48.8371 83.0067 48.1968 82.1411 47.3783 81.466Z" fill="#9419FF"/>
<path d="M47.3783 81.466C45.2147 80.2037 42.7095 79.6526 40.2159 79.8902H29.4724C27.8435 80.0377 26.2042 79.7665 24.7096 79.1024C24.3798 78.8028 24.1265 78.4287 23.9708 78.0113C23.815 77.594 23.7613 77.1453 23.8143 76.703C23.711 75.6388 24.0185 74.5755 24.6737 73.7306C25.8688 72.98 27.2811 72.6521 28.6846 72.7995H40.1445C41.7421 72.6497 43.3435 73.0406 44.6924 73.9097C45.0835 74.2557 45.3879 74.6888 45.5807 75.174C45.7736 75.6592 45.8494 76.183 45.8026 76.703V77.1686H49.1689V76.703C49.1689 71.94 46.3041 69.5406 40.6459 69.5406H28.8995C26.7126 69.3643 24.5332 69.9598 22.74 71.2238C22.0174 71.9367 21.4626 72.8014 21.1157 73.7553C20.7688 74.7092 20.6384 75.7284 20.7343 76.7388C20.6536 77.6236 20.7621 78.5153 21.0523 79.355C21.3425 80.1947 21.8078 80.9631 22.4176 81.6092C24.3782 82.8846 26.7152 83.4531 29.0427 83.2208H41.0039C42.4674 83.0664 43.9428 83.3664 45.2297 84.0802C45.6127 84.4599 45.9051 84.9212 46.085 85.4297C46.2648 85.9382 46.3273 86.4807 46.2681 87.0168C46.315 87.57 46.2328 88.1264 46.0277 88.6423C45.8226 89.1581 45.5004 89.6193 45.0865 89.9892C43.9238 90.7243 42.5543 91.0634 41.1829 90.9561H29.938C28.3363 91.0954 26.7344 90.6918 25.39 89.8101C24.9989 89.4642 24.6945 89.0311 24.5017 88.5458C24.3089 88.0606 24.233 87.5369 24.2798 87.0168V86.5512H20.9135V87.0168C20.8467 88.0417 21.0154 89.0683 21.4064 90.018C21.7975 90.9676 22.4006 91.8153 23.1697 92.496C24.8888 93.7507 26.9895 94.3708 29.1144 94.2508H41.4336C43.6544 94.4314 45.8692 93.8366 47.7007 92.5677C48.4163 91.8573 48.9668 90.9982 49.3134 90.0513C49.6599 89.1044 49.7941 88.0929 49.7062 87.0885C49.8079 86.0324 49.6489 84.9674 49.243 83.9871C48.8371 83.0067 48.1968 82.1411 47.3783 81.466Z" fill="black" fill-opacity="0.2"/>
<path d="M52.9312 72.7996H64.4626V94.1792H67.8289V72.7996H79.4319V69.5049H52.9312V72.7996Z" fill="#9419FF"/>
<path d="M52.9312 72.7996H64.4626V94.1792H67.8289V72.7996H79.4319V69.5049H52.9312V72.7996Z" fill="black" fill-opacity="0.2"/>
<path d="M102.494 69.326H92.0726C89.5066 69.0681 86.9402 69.8123 84.9103 71.4031C83.3566 73.3398 82.6237 75.8082 82.869 78.279V85.692C82.7439 86.888 82.8669 88.0968 83.2305 89.243C83.5941 90.3891 84.1902 91.4478 84.9817 92.353C87.0555 93.8453 89.6011 94.5326 92.1441 94.2869H102.565C105.001 94.5459 107.453 93.9646 109.513 92.6395C110.323 91.6892 110.926 90.5806 111.283 89.3845C111.641 88.1883 111.745 86.9308 111.59 85.692V78.279C111.721 76.9917 111.584 75.6914 111.19 74.4591C110.796 73.2268 110.152 72.089 109.298 71.1166C107.319 69.7205 104.903 69.0847 102.494 69.326ZM108.152 78.0641V85.692C108.346 87.2086 107.963 88.7427 107.078 89.9895C106.612 90.455 105.395 90.9922 102.458 90.9922H92.0368C90.4087 91.1604 88.771 90.7825 87.3813 89.9178C86.8956 89.3369 86.5363 88.661 86.3267 87.9333C86.117 87.2057 86.0615 86.4424 86.1636 85.692V78.0641C86.0698 77.2976 86.136 76.52 86.3579 75.7803C86.5798 75.0406 86.9525 74.355 87.4528 73.7667C88.8071 72.8772 90.4232 72.4732 92.0368 72.6207H102.315C103.91 72.4368 105.519 72.8169 106.863 73.6951C107.818 74.9145 108.278 76.4489 108.152 77.9925V78.0641Z" fill="#9419FF"/>
<path d="M102.494 69.326H92.0726C89.5066 69.0681 86.9402 69.8123 84.9103 71.4031C83.3566 73.3398 82.6237 75.8082 82.869 78.279V85.692C82.7439 86.888 82.8669 88.0968 83.2305 89.243C83.5941 90.3891 84.1902 91.4478 84.9817 92.353C87.0555 93.8453 89.6011 94.5326 92.1441 94.2869H102.565C105.001 94.5459 107.453 93.9646 109.513 92.6395C110.323 91.6892 110.926 90.5806 111.283 89.3845C111.641 88.1883 111.745 86.9308 111.59 85.692V78.279C111.721 76.9917 111.584 75.6914 111.19 74.4591C110.796 73.2268 110.152 72.089 109.298 71.1166C107.319 69.7205 104.903 69.0847 102.494 69.326ZM108.152 78.0641V85.692C108.346 87.2086 107.963 88.7427 107.078 89.9895C106.612 90.455 105.395 90.9922 102.458 90.9922H92.0368C90.4087 91.1604 88.771 90.7825 87.3813 89.9178C86.8956 89.3369 86.5363 88.661 86.3267 87.9333C86.117 87.2057 86.0615 86.4424 86.1636 85.692V78.0641C86.0698 77.2976 86.136 76.52 86.3579 75.7803C86.5798 75.0406 86.9525 74.355 87.4528 73.7667C88.8071 72.8772 90.4232 72.4732 92.0368 72.6207H102.315C103.91 72.4368 105.519 72.8169 106.863 73.6951C107.818 74.9145 108.278 76.4489 108.152 77.9925V78.0641Z" fill="black" fill-opacity="0.2"/>
<path d="M139.273 71.2965C137.314 69.9449 134.948 69.3122 132.576 69.5059H116.067V94.3951H119.433V84.3678H132.612C134.937 84.5749 137.271 84.0757 139.308 82.9353C140.072 82.2274 140.658 81.3493 141.019 80.3724C141.38 79.3955 141.505 78.3473 141.385 77.3128C141.488 76.217 141.352 75.1118 140.988 74.0733C140.623 73.0348 140.038 72.0875 139.273 71.2965ZM138.019 77.0622C138.095 77.6484 138.049 78.244 137.882 78.8112C137.716 79.3784 137.433 79.9048 137.052 80.3569C135.969 80.9798 134.711 81.2314 133.471 81.0731H119.361V72.908H133.256C134.522 72.7967 135.787 73.1256 136.837 73.8391C137.258 74.2622 137.588 74.7657 137.81 75.3195C138.031 75.8732 138.139 76.4659 138.127 77.0622H138.019Z" fill="#9419FF"/>
<path d="M139.273 71.2965C137.314 69.9449 134.948 69.3122 132.576 69.5059H116.067V94.3951H119.433V84.3678H132.612C134.937 84.5749 137.271 84.0757 139.308 82.9353C140.072 82.2274 140.658 81.3493 141.019 80.3724C141.38 79.3955 141.505 78.3473 141.385 77.3128C141.488 76.217 141.352 75.1118 140.988 74.0733C140.623 73.0348 140.038 72.0875 139.273 71.2965ZM138.019 77.0622C138.095 77.6484 138.049 78.244 137.882 78.8112C137.716 79.3784 137.433 79.9048 137.052 80.3569C135.969 80.9798 134.711 81.2314 133.471 81.0731H119.361V72.908H133.256C134.522 72.7967 135.787 73.1256 136.837 73.8391C137.258 74.2622 137.588 74.7657 137.81 75.3195C138.031 75.8732 138.139 76.4659 138.127 77.0622H138.019Z" fill="black" fill-opacity="0.2"/>
<path d="M8.59669 81.7539C8.58961 67.415 12.8355 53.3962 20.7973 41.4709C28.7591 29.5456 40.0792 20.2497 53.3252 14.7592C66.5712 9.26869 81.1481 7.83026 95.2118 10.6259C109.275 13.4215 122.194 20.3256 132.333 30.4648C142.472 40.6039 149.376 53.5224 152.172 67.5861C154.968 81.6498 153.529 96.2267 148.039 109.473C142.548 122.719 133.252 134.039 121.327 142.001C109.402 149.962 95.3828 154.208 81.044 154.201C61.8356 154.182 43.4192 146.543 29.8368 132.961C16.2544 119.379 8.61565 100.962 8.59669 81.7539ZM149.946 81.7539C149.953 68.1248 145.918 54.7998 138.351 43.4642C130.784 32.1287 120.026 23.2917 107.436 18.0712C94.8468 12.8507 80.992 11.4811 67.6239 14.1357C54.2559 16.7902 41.9753 23.3497 32.3356 32.9844C22.6959 42.619 16.1301 54.8962 13.4686 68.2628C10.8071 81.6295 12.1696 95.4851 17.3835 108.077C22.5975 120.67 31.4288 131.433 42.7604 139.006C54.0921 146.578 67.4149 150.62 81.044 150.62C99.3059 150.601 116.815 143.341 129.731 130.431C142.648 117.521 149.917 100.016 149.946 81.7539Z" fill="#9419FF"/>
<path d="M8.59669 81.7539C8.58961 67.415 12.8355 53.3962 20.7973 41.4709C28.7591 29.5456 40.0792 20.2497 53.3252 14.7592C66.5712 9.26869 81.1481 7.83026 95.2118 10.6259C109.275 13.4215 122.194 20.3256 132.333 30.4648C142.472 40.6039 149.376 53.5224 152.172 67.5861C154.968 81.6498 153.529 96.2267 148.039 109.473C142.548 122.719 133.252 134.039 121.327 142.001C109.402 149.962 95.3828 154.208 81.044 154.201C61.8356 154.182 43.4192 146.543 29.8368 132.961C16.2544 119.379 8.61565 100.962 8.59669 81.7539ZM149.946 81.7539C149.953 68.1248 145.918 54.7998 138.351 43.4642C130.784 32.1287 120.026 23.2917 107.436 18.0712C94.8468 12.8507 80.992 11.4811 67.6239 14.1357C54.2559 16.7902 41.9753 23.3497 32.3356 32.9844C22.6959 42.619 16.1301 54.8962 13.4686 68.2628C10.8071 81.6295 12.1696 95.4851 17.3835 108.077C22.5975 120.67 31.4288 131.433 42.7604 139.006C54.0921 146.578 67.4149 150.62 81.044 150.62C99.3059 150.601 116.815 143.341 129.731 130.431C142.648 117.521 149.917 100.016 149.946 81.7539Z" fill="black" fill-opacity="0.2"/>
</svg>
