<svg width="163" height="163" viewBox="0 0 163 163" fill="none" xmlns="http://www.w3.org/2000/svg">
<path d="M81.0422 162.084C125.801 162.084 162.084 125.801 162.084 81.0422C162.084 36.2838 125.801 0 81.0422 0C36.2838 0 0 36.2838 0 81.0422C0 125.801 36.2838 162.084 81.0422 162.084Z" fill="white"/>
<path d="M15.6149 81.5067C15.6142 70.4756 18.4553 59.6303 23.8645 50.0165C29.2737 40.4027 37.0686 32.3445 46.4974 26.6188C55.9262 20.8932 66.6709 17.6932 77.6959 17.3273C88.7209 16.9615 99.6545 19.4421 109.442 24.53C109.707 24.7193 109.895 24.9972 109.972 25.3132C110.049 25.6293 110.011 25.9626 109.864 26.2528C109.717 26.543 109.47 26.7708 109.169 26.8949C108.869 27.0191 108.533 27.0313 108.224 26.9295C98.849 22.0668 88.3801 19.6995 77.8249 20.0552C67.2696 20.411 56.9836 23.4779 47.957 28.9608C38.9305 34.4436 31.4669 42.1578 26.2855 51.3607C21.104 60.5636 18.3791 70.9454 18.3725 81.5067C18.373 93.4353 21.8412 105.107 28.3549 115.1C34.8687 125.093 44.1469 132.977 55.0604 137.793C65.9739 142.608 78.052 144.147 89.8244 142.222C101.597 140.298 112.556 134.992 121.367 126.952C121.636 126.773 121.96 126.696 122.281 126.735C122.602 126.773 122.898 126.924 123.118 127.161C123.337 127.397 123.465 127.704 123.479 128.027C123.493 128.35 123.392 128.667 123.194 128.922C113.996 137.294 102.565 142.815 90.2895 144.815C78.0137 146.814 65.4217 145.205 54.0431 140.183C42.6645 135.161 32.9892 126.943 26.1928 116.526C19.3964 106.11 15.7714 93.9441 15.7583 81.5067H15.6149Z" fill="#9419FF"/>
<path d="M15.6149 81.5067C15.6142 70.4756 18.4553 59.6303 23.8645 50.0165C29.2737 40.4027 37.0686 32.3445 46.4974 26.6188C55.9262 20.8932 66.6709 17.6932 77.6959 17.3273C88.7209 16.9615 99.6545 19.4421 109.442 24.53C109.707 24.7193 109.895 24.9972 109.972 25.3132C110.049 25.6293 110.011 25.9626 109.864 26.2528C109.717 26.543 109.47 26.7708 109.169 26.8949C108.869 27.0191 108.533 27.0313 108.224 26.9295C98.849 22.0668 88.3801 19.6995 77.8249 20.0552C67.2696 20.411 56.9836 23.4779 47.957 28.9608C38.9305 34.4436 31.4669 42.1578 26.2855 51.3607C21.104 60.5636 18.3791 70.9454 18.3725 81.5067C18.373 93.4353 21.8412 105.107 28.3549 115.1C34.8687 125.093 44.1469 132.977 55.0604 137.793C65.9739 142.608 78.052 144.147 89.8244 142.222C101.597 140.298 112.556 134.992 121.367 126.952C121.636 126.773 121.96 126.696 122.281 126.735C122.602 126.773 122.898 126.924 123.118 127.161C123.337 127.397 123.465 127.704 123.479 128.027C123.493 128.35 123.392 128.667 123.194 128.922C113.996 137.294 102.565 142.815 90.2895 144.815C78.0137 146.814 65.4217 145.205 54.0431 140.183C42.6645 135.161 32.9892 126.943 26.1928 116.526C19.3964 106.11 15.7714 93.9441 15.7583 81.5067H15.6149Z" fill="black" fill-opacity="0.2"/>
<path d="M95.475 30.5119L105.538 24.03L107.83 12.2837L123.265 36.0269L95.475 30.5119Z" fill="#9419FF"/>
<path d="M95.475 30.5119L105.538 24.03L107.83 12.2837L123.265 36.0269L95.475 30.5119Z" fill="black" fill-opacity="0.2"/>
<path d="M115.28 81.5435H130.393" stroke="#9419FF" stroke-width="3.975" stroke-linecap="round" stroke-linejoin="round"/>
<path d="M115.28 81.5435H130.393" stroke="black" stroke-opacity="0.2" stroke-width="3.975" stroke-linecap="round" stroke-linejoin="round"/>
<path d="M80.2164 116.495V131.679" stroke="#9419FF" stroke-width="3.975" stroke-linecap="round" stroke-linejoin="round"/>
<path d="M80.2164 116.495V131.679" stroke="black" stroke-opacity="0.2" stroke-width="3.975" stroke-linecap="round" stroke-linejoin="round"/>
<path d="M80.2164 31.335V46.4834" stroke="#9419FF" stroke-width="3.975" stroke-linecap="round" stroke-linejoin="round"/>
<path d="M80.2164 31.335V46.4834" stroke="black" stroke-opacity="0.2" stroke-width="3.975" stroke-linecap="round" stroke-linejoin="round"/>
<path d="M30.0803 81.5435H45.2645" stroke="#9419FF" stroke-width="3.975" stroke-linecap="round" stroke-linejoin="round"/>
<path d="M30.0803 81.5435H45.2645" stroke="black" stroke-opacity="0.2" stroke-width="3.975" stroke-linecap="round" stroke-linejoin="round"/>
<path d="M63.0642 55.043V108.044H54.398V67.398L47.9159 72.3043L43.296 65.1419L56.7971 55.043H63.0642Z" fill="#9419FF"/>
<path d="M63.0642 55.043V108.044H54.398V67.398L47.9159 72.3043L43.296 65.1419L56.7971 55.043H63.0642Z" fill="black" fill-opacity="0.2"/>
<path d="M73.9878 81.5788C73.9744 77.8872 74.3341 74.2037 75.0619 70.5845C75.6089 67.5819 76.6754 64.6976 78.2134 62.0614C79.575 59.7955 81.4997 57.9203 83.8002 56.6179C86.2192 55.2766 88.949 54.5972 91.7145 54.6483C94.4583 54.5874 97.168 55.2679 99.5575 56.6179C101.8 57.9472 103.671 59.8191 105.001 62.0614C106.539 64.6976 107.605 67.5819 108.152 70.5845C109.537 77.8607 109.537 85.3327 108.152 92.6089C107.593 95.6081 106.527 98.4903 105.001 101.132C103.661 103.357 101.791 105.214 99.5575 106.54C97.1937 107.889 94.5073 108.57 91.7862 108.509C89.0207 108.56 86.2909 107.881 83.8719 106.54C81.5807 105.241 79.6578 103.38 78.2851 101.132C76.7629 98.4812 75.6747 95.6037 75.0619 92.6089C74.2732 88.9859 73.8891 85.2865 73.9161 81.5788H73.9878ZM83.1913 81.5788C82.9357 86.4527 83.679 91.3274 85.3757 95.9035C85.8437 97.2507 86.7189 98.419 87.8802 99.2467C89.0415 100.074 90.4318 100.52 91.8579 100.523C93.2745 100.56 94.6645 100.137 95.8203 99.3169C96.976 98.4969 97.8352 97.3244 98.2683 95.9752C99.7788 91.3581 100.422 86.5015 100.166 81.6504C100.414 76.7942 99.7462 71.9347 98.1966 67.3257C97.7224 65.9856 96.8442 64.8255 95.6834 64.0049C94.5226 63.1844 93.136 62.7437 91.7145 62.7437C90.293 62.7437 88.9064 63.1844 87.7456 64.0049C86.5847 64.8255 85.707 65.9856 85.2328 67.3257C83.698 71.9382 83.03 76.7949 83.263 81.6504L83.1913 81.5788Z" fill="#9419FF"/>
<path d="M73.9878 81.5788C73.9744 77.8872 74.3341 74.2037 75.0619 70.5845C75.6089 67.5819 76.6754 64.6976 78.2134 62.0614C79.575 59.7955 81.4997 57.9203 83.8002 56.6179C86.2192 55.2766 88.949 54.5972 91.7145 54.6483C94.4583 54.5874 97.168 55.2679 99.5575 56.6179C101.8 57.9472 103.671 59.8191 105.001 62.0614C106.539 64.6976 107.605 67.5819 108.152 70.5845C109.537 77.8607 109.537 85.3327 108.152 92.6089C107.593 95.6081 106.527 98.4903 105.001 101.132C103.661 103.357 101.791 105.214 99.5575 106.54C97.1937 107.889 94.5073 108.57 91.7862 108.509C89.0207 108.56 86.2909 107.881 83.8719 106.54C81.5807 105.241 79.6578 103.38 78.2851 101.132C76.7629 98.4812 75.6747 95.6037 75.0619 92.6089C74.2732 88.9859 73.8891 85.2865 73.9161 81.5788H73.9878ZM83.1913 81.5788C82.9357 86.4527 83.679 91.3274 85.3757 95.9035C85.8437 97.2507 86.7189 98.419 87.8802 99.2467C89.0415 100.074 90.4318 100.52 91.8579 100.523C93.2745 100.56 94.6645 100.137 95.8203 99.3169C96.976 98.4969 97.8352 97.3244 98.2683 95.9752C99.7788 91.3581 100.422 86.5015 100.166 81.6504C100.414 76.7942 99.7462 71.9347 98.1966 67.3257C97.7224 65.9856 96.8442 64.8255 95.6834 64.0049C94.5226 63.1844 93.136 62.7437 91.7145 62.7437C90.293 62.7437 88.9064 63.1844 87.7456 64.0049C86.5847 64.8255 85.707 65.9856 85.2328 67.3257C83.698 71.9382 83.03 76.7949 83.263 81.6504L83.1913 81.5788Z" fill="black" fill-opacity="0.2"/>
</svg>
