<svg width="163" height="163" viewBox="0 0 163 163" fill="none" xmlns="http://www.w3.org/2000/svg">
<path d="M81.0422 162.084C125.801 162.084 162.084 125.801 162.084 81.0422C162.084 36.2838 125.801 0 81.0422 0C36.2838 0 0 36.2838 0 81.0422C0 125.801 36.2838 162.084 81.0422 162.084Z" fill="white"/>
<path d="M10.6739 81.0772C10.6668 67.1491 14.791 53.5319 22.5245 41.9482C30.2581 30.3645 41.2537 21.3348 54.1202 16.0015C66.9867 10.6682 81.146 9.27088 94.8068 11.9864C108.468 14.7019 121.016 21.4081 130.865 31.2568C140.713 41.1054 147.42 53.6538 150.135 67.3146C152.851 80.9754 151.453 95.1346 146.12 108.001C140.786 120.868 131.757 131.863 120.173 139.597C108.59 147.33 94.9723 151.454 81.0442 151.447C62.3896 151.419 44.507 143.996 31.3162 130.805C18.1254 117.614 10.7023 99.7318 10.6739 81.0772ZM148.764 81.0772C148.771 67.6819 144.806 54.5853 137.369 43.4441C129.932 32.3028 119.358 23.6174 106.984 18.4863C94.6108 13.3553 80.9934 12.009 67.8546 14.618C54.7158 17.2269 42.6459 23.6738 33.1715 33.1433C23.6971 42.6127 17.2437 54.6792 14.6278 67.8166C12.0119 80.954 13.3509 94.5721 18.4754 106.948C23.5999 119.325 32.2798 129.903 43.4171 137.346C54.5544 144.789 67.6489 148.762 81.0442 148.762C98.9927 148.743 116.201 141.607 128.896 128.919C141.591 116.23 148.736 99.0257 148.764 81.0772Z" fill="#9419FF"/>
<path d="M10.6739 81.0772C10.6668 67.1491 14.791 53.5319 22.5245 41.9482C30.2581 30.3645 41.2537 21.3348 54.1202 16.0015C66.9867 10.6682 81.146 9.27088 94.8068 11.9864C108.468 14.7019 121.016 21.4081 130.865 31.2568C140.713 41.1054 147.42 53.6538 150.135 67.3146C152.851 80.9754 151.453 95.1346 146.12 108.001C140.786 120.868 131.757 131.863 120.173 139.597C108.59 147.33 94.9723 151.454 81.0442 151.447C62.3896 151.419 44.507 143.996 31.3162 130.805C18.1254 117.614 10.7023 99.7318 10.6739 81.0772ZM148.764 81.0772C148.771 67.6819 144.806 54.5853 137.369 43.4441C129.932 32.3028 119.358 23.6174 106.984 18.4863C94.6108 13.3553 80.9934 12.009 67.8546 14.618C54.7158 17.2269 42.6459 23.6738 33.1715 33.1433C23.6971 42.6127 17.2437 54.6792 14.6278 67.8166C12.0119 80.954 13.3509 94.5721 18.4754 106.948C23.5999 119.325 32.2798 129.903 43.4171 137.346C54.5544 144.789 67.6489 148.762 81.0442 148.762C98.9927 148.743 116.201 141.607 128.896 128.919C141.591 116.23 148.736 99.0257 148.764 81.0772Z" fill="black" fill-opacity="0.2"/>
<path d="M60.1277 81.0772C60.1277 76.9408 61.3542 72.8972 63.6523 69.4579C65.9503 66.0186 69.2167 63.338 73.0382 61.7551C76.8598 60.1721 81.0649 59.758 85.1219 60.565C89.1788 61.3719 92.9053 63.3638 95.8302 66.2887C98.7551 69.2136 100.747 72.9401 101.554 76.9971C102.361 81.054 101.947 85.2591 100.364 89.0807C98.781 92.9022 96.1004 96.1686 92.6611 98.4666C89.2218 100.765 85.1783 101.991 81.0419 101.991C75.498 101.982 70.1839 99.7754 66.2638 95.8553C62.3437 91.9352 60.1372 86.6211 60.1277 81.0772ZM99.27 81.0772C99.27 77.472 98.201 73.9478 96.1981 70.9502C94.1952 67.9525 91.3482 65.6162 88.0174 64.2365C84.6866 62.8569 81.0216 62.4959 77.4856 63.1992C73.9497 63.9026 70.7018 65.6386 68.1526 68.1879C65.6033 70.7371 63.8671 73.9851 63.1637 77.521C62.4604 81.057 62.8215 84.7221 64.2011 88.0529C65.5808 91.3836 67.9171 94.2305 70.9147 96.2334C73.9123 98.2364 77.4367 99.3054 81.0419 99.3054C85.8763 99.3054 90.5126 97.3849 93.931 93.9665C97.3495 90.548 99.27 85.9116 99.27 81.0772Z" fill="#9419FF"/>
<path d="M60.1277 81.0772C60.1277 76.9408 61.3542 72.8972 63.6523 69.4579C65.9503 66.0186 69.2167 63.338 73.0382 61.7551C76.8598 60.1721 81.0649 59.758 85.1219 60.565C89.1788 61.3719 92.9053 63.3638 95.8302 66.2887C98.7551 69.2136 100.747 72.9401 101.554 76.9971C102.361 81.054 101.947 85.2591 100.364 89.0807C98.781 92.9022 96.1004 96.1686 92.6611 98.4666C89.2218 100.765 85.1783 101.991 81.0419 101.991C75.498 101.982 70.1839 99.7754 66.2638 95.8553C62.3437 91.9352 60.1372 86.6211 60.1277 81.0772ZM99.27 81.0772C99.27 77.472 98.201 73.9478 96.1981 70.9502C94.1952 67.9525 91.3482 65.6162 88.0174 64.2365C84.6866 62.8569 81.0216 62.4959 77.4856 63.1992C73.9497 63.9026 70.7018 65.6386 68.1526 68.1879C65.6033 70.7371 63.8671 73.9851 63.1637 77.521C62.4604 81.057 62.8215 84.7221 64.2011 88.0529C65.5808 91.3836 67.9171 94.2305 70.9147 96.2334C73.9123 98.2364 77.4367 99.3054 81.0419 99.3054C85.8763 99.3054 90.5126 97.3849 93.931 93.9665C97.3495 90.548 99.27 85.9116 99.27 81.0772Z" fill="black" fill-opacity="0.2"/>
<path d="M122.189 115.313C128.004 115.313 132.717 110.599 132.717 104.785C132.717 98.9697 128.004 94.2559 122.189 94.2559C116.374 94.2559 111.66 98.9697 111.66 104.785C111.66 110.599 116.374 115.313 122.189 115.313Z" fill="#9419FF"/>
<path d="M122.189 115.313C128.004 115.313 132.717 110.599 132.717 104.785C132.717 98.9697 128.004 94.2559 122.189 94.2559C116.374 94.2559 111.66 98.9697 111.66 104.785C111.66 110.599 116.374 115.313 122.189 115.313Z" fill="black" fill-opacity="0.2"/>
<path d="M122.189 67.8279C128.004 67.8279 132.717 63.114 132.717 57.2992C132.717 51.4844 128.004 46.7705 122.189 46.7705C116.374 46.7705 111.66 51.4844 111.66 57.2992C111.66 63.114 116.374 67.8279 122.189 67.8279Z" fill="#9419FF"/>
<path d="M122.189 67.8279C128.004 67.8279 132.717 63.114 132.717 57.2992C132.717 51.4844 128.004 46.7705 122.189 46.7705C116.374 46.7705 111.66 51.4844 111.66 57.2992C111.66 63.114 116.374 67.8279 122.189 67.8279Z" fill="black" fill-opacity="0.2"/>
<path d="M81.0438 44.0847C86.8587 44.0847 91.5725 39.3708 91.5725 33.556C91.5725 27.7412 86.8587 23.0273 81.0438 23.0273C75.229 23.0273 70.5151 27.7412 70.5151 33.556C70.5151 39.3708 75.229 44.0847 81.0438 44.0847Z" fill="#9419FF"/>
<path d="M81.0438 44.0847C86.8587 44.0847 91.5725 39.3708 91.5725 33.556C91.5725 27.7412 86.8587 23.0273 81.0438 23.0273C75.229 23.0273 70.5151 27.7412 70.5151 33.556C70.5151 39.3708 75.229 44.0847 81.0438 44.0847Z" fill="black" fill-opacity="0.2"/>
<path d="M39.93 67.8279C45.7448 67.8279 50.4587 63.114 50.4587 57.2992C50.4587 51.4844 45.7448 46.7705 39.93 46.7705C34.1152 46.7705 29.4013 51.4844 29.4013 57.2992C29.4013 63.114 34.1152 67.8279 39.93 67.8279Z" fill="#9419FF"/>
<path d="M39.93 67.8279C45.7448 67.8279 50.4587 63.114 50.4587 57.2992C50.4587 51.4844 45.7448 46.7705 39.93 46.7705C34.1152 46.7705 29.4013 51.4844 29.4013 57.2992C29.4013 63.114 34.1152 67.8279 39.93 67.8279Z" fill="black" fill-opacity="0.2"/>
<path d="M39.93 115.313C45.7448 115.313 50.4587 110.599 50.4587 104.785C50.4587 98.9697 45.7448 94.2559 39.93 94.2559C34.1152 94.2559 29.4013 98.9697 29.4013 104.785C29.4013 110.599 34.1152 115.313 39.93 115.313Z" fill="#9419FF"/>
<path d="M39.93 115.313C45.7448 115.313 50.4587 110.599 50.4587 104.785C50.4587 98.9697 45.7448 94.2559 39.93 94.2559C34.1152 94.2559 29.4013 98.9697 29.4013 104.785C29.4013 110.599 34.1152 115.313 39.93 115.313Z" fill="black" fill-opacity="0.2"/>
<path d="M81.0438 139.056C86.8587 139.056 91.5725 134.343 91.5725 128.528C91.5725 122.713 86.8587 117.999 81.0438 117.999C75.229 117.999 70.5151 122.713 70.5151 128.528C70.5151 134.343 75.229 139.056 81.0438 139.056Z" fill="#9419FF"/>
<path d="M81.0438 139.056C86.8587 139.056 91.5725 134.343 91.5725 128.528C91.5725 122.713 86.8587 117.999 81.0438 117.999C75.229 117.999 70.5151 122.713 70.5151 128.528C70.5151 134.343 75.229 139.056 81.0438 139.056Z" fill="black" fill-opacity="0.2"/>
</svg>
