<svg width="163" height="163" viewBox="0 0 163 163" fill="none" xmlns="http://www.w3.org/2000/svg">
<path d="M81.0422 162.084C125.801 162.084 162.084 125.801 162.084 81.0422C162.084 36.2838 125.801 0 81.0422 0C36.2838 0 0 36.2838 0 81.0422C0 125.801 36.2838 162.084 81.0422 162.084Z" fill="white"/>
<path d="M123.656 49.2412C125.052 50.8886 132.752 59.9847 137.049 65.7146C138.726 67.9746 139.943 70.5419 140.63 73.2709C142.539 79.7661 141.951 86.7399 138.983 92.8242C134.732 99.6137 130.03 106.11 124.909 112.27" stroke="#9419FF" stroke-width="3.975" stroke-miterlimit="10"/>
<path d="M123.656 49.2412C125.052 50.8886 132.752 59.9847 137.049 65.7146C138.726 67.9746 139.943 70.5419 140.63 73.2709C142.539 79.7661 141.951 86.7399 138.983 92.8242C134.732 99.6137 130.03 106.11 124.909 112.27" stroke="black" stroke-opacity="0.2" stroke-width="3.975" stroke-miterlimit="10"/>
<path d="M121.543 61.4888C115.455 62.778 110.8 70.2985 110.8 79.3947C110.8 88.4909 115.849 96.6202 122.295 97.3006" stroke="#9419FF" stroke-width="3.975" stroke-miterlimit="10"/>
<path d="M121.543 61.4888C115.455 62.778 110.8 70.2985 110.8 79.3947C110.8 88.4909 115.849 96.6202 122.295 97.3006" stroke="black" stroke-opacity="0.2" stroke-width="3.975" stroke-miterlimit="10"/>
<path d="M123.621 49.2406C120.29 39.0342 112.877 39.0342 112.877 39.0342L102.134 38.2463C101.717 38.2814 101.297 38.2814 100.88 38.2463C98.7256 37.8928 96.515 38.2844 94.613 39.3565C92.4764 40.5828 90.7648 42.4318 89.7068 44.6567C87.1507 50.968 85.7558 57.6891 85.5888 64.4964C85.5888 64.7471 85.5888 64.962 85.5888 65.1768C84.4475 78.304 84.7835 91.5178 86.5912 104.57C89.7068 122.906 99.5192 122.726 99.5192 122.726L107.72 123.443C108.421 123.507 109.116 123.626 109.798 123.801C112.108 124.408 114.553 124.252 116.767 123.354C118.981 122.457 120.845 120.867 122.081 118.823C124.588 114.74 125.877 106.504 126.414 97.0135C126.944 85.239 126.68 73.4422 125.626 61.7031C125.34 58.6949 125.017 56.0448 124.695 53.8961C124.449 52.3206 124.09 50.7647 123.621 49.2406Z" stroke="#9419FF" stroke-width="3.975" stroke-miterlimit="10"/>
<path d="M123.621 49.2406C120.29 39.0342 112.877 39.0342 112.877 39.0342L102.134 38.2463C101.717 38.2814 101.297 38.2814 100.88 38.2463C98.7256 37.8928 96.515 38.2844 94.613 39.3565C92.4764 40.5828 90.7648 42.4318 89.7068 44.6567C87.1507 50.968 85.7558 57.6891 85.5888 64.4964C85.5888 64.7471 85.5888 64.962 85.5888 65.1768C84.4475 78.304 84.7835 91.5178 86.5912 104.57C89.7068 122.906 99.5192 122.726 99.5192 122.726L107.72 123.443C108.421 123.507 109.116 123.626 109.798 123.801C112.108 124.408 114.553 124.252 116.767 123.354C118.981 122.457 120.845 120.867 122.081 118.823C124.588 114.74 125.877 106.504 126.414 97.0135C126.944 85.239 126.68 73.4422 125.626 61.7031C125.34 58.6949 125.017 56.0448 124.695 53.8961C124.449 52.3206 124.09 50.7647 123.621 49.2406Z" stroke="black" stroke-opacity="0.2" stroke-width="3.975" stroke-miterlimit="10"/>
<path d="M122.33 97.4797C122.412 104.017 121.195 110.505 118.749 116.567C118.14 117.624 117.27 118.508 116.224 119.135C115.177 119.761 113.988 120.11 112.768 120.149C112.166 120.135 111.566 120.063 110.978 119.934C110.072 119.701 109.15 119.533 108.22 119.432L99.8046 118.716C99.2316 118.716 93.2153 117.713 90.9233 103.997C89.1613 91.2418 88.8249 78.3297 89.9205 65.4997C89.9392 65.2015 89.9392 64.9025 89.9205 64.6044C90.0436 58.401 91.2558 52.2675 93.5017 46.4836C94.1666 44.9991 95.2653 43.7507 96.6531 42.9024C97.5164 42.414 98.4906 42.1551 99.4824 42.1504H100.234C100.799 42.2776 101.375 42.3496 101.953 42.3653L112.697 43.1173H112.876C113.413 43.1173 119.071 43.7977 120.719 54.5413C121.041 56.6183 121.327 59.0177 121.614 61.7036C122.703 73.5968 122.942 85.5525 122.33 97.4797Z" stroke="#9419FF" stroke-width="3.975" stroke-miterlimit="10"/>
<path d="M122.33 97.4797C122.412 104.017 121.195 110.505 118.749 116.567C118.14 117.624 117.27 118.508 116.224 119.135C115.177 119.761 113.988 120.11 112.768 120.149C112.166 120.135 111.566 120.063 110.978 119.934C110.072 119.701 109.15 119.533 108.22 119.432L99.8046 118.716C99.2316 118.716 93.2153 117.713 90.9233 103.997C89.1613 91.2418 88.8249 78.3297 89.9205 65.4997C89.9392 65.2015 89.9392 64.9025 89.9205 64.6044C90.0436 58.401 91.2558 52.2675 93.5017 46.4836C94.1666 44.9991 95.2653 43.7507 96.6531 42.9024C97.5164 42.414 98.4906 42.1551 99.4824 42.1504H100.234C100.799 42.2776 101.375 42.3496 101.953 42.3653L112.697 43.1173H112.876C113.413 43.1173 119.071 43.7977 120.719 54.5413C121.041 56.6183 121.327 59.0177 121.614 61.7036C122.703 73.5968 122.942 85.5525 122.33 97.4797Z" stroke="black" stroke-opacity="0.2" stroke-width="3.975" stroke-miterlimit="10"/>
<path d="M48.8466 58.5522L56.009 59.8415L58.5156 60.2713C65.3199 62.3842 69.6173 71.9459 68.4356 83.2267C67.2538 94.5074 61.2732 102.959 54.1108 103.639H52.6783H46.3036C46.9278 103.16 47.5039 102.62 48.023 102.028C52.8087 96.7402 55.7053 90.0145 56.2594 82.9043C57.2962 75.1528 55.4205 67.2923 50.9952 60.8443C50.3372 60.0277 49.6191 59.2615 48.8466 58.5522Z" stroke="#9419FF" stroke-width="3.975" stroke-miterlimit="10"/>
<path d="M48.8466 58.5522L56.009 59.8415L58.5156 60.2713C65.3199 62.3842 69.6173 71.9459 68.4356 83.2267C67.2538 94.5074 61.2732 102.959 54.1108 103.639H52.6783H46.3036C46.9278 103.16 47.5039 102.62 48.023 102.028C52.8087 96.7402 55.7053 90.0145 56.2594 82.9043C57.2962 75.1528 55.4205 67.2923 50.9952 60.8443C50.3372 60.0277 49.6191 59.2615 48.8466 58.5522Z" stroke="black" stroke-opacity="0.2" stroke-width="3.975" stroke-miterlimit="10"/>
<path d="M52.7491 103.674H54.1817C53.7049 103.711 53.2259 103.711 52.7491 103.674Z" stroke="#9419FF" stroke-width="3.975" stroke-miterlimit="10"/>
<path d="M52.7491 103.674H54.1817C53.7049 103.711 53.2259 103.711 52.7491 103.674Z" stroke="black" stroke-opacity="0.2" stroke-width="3.975" stroke-miterlimit="10"/>
<path fill-rule="evenodd" clip-rule="evenodd" d="M47.8064 63.2797C46.7607 61.5873 45.3558 60.1455 43.691 59.0563C42.0263 57.9671 40.1428 57.2572 38.1732 56.9768C29.1129 56.0457 20.6253 66.2163 19.2286 79.6815C17.832 93.1468 24.0633 104.75 33.1237 105.788C35.4795 105.901 37.8265 105.431 39.9568 104.419C42.0872 103.407 43.935 101.884 45.3356 99.9868C49.2041 95.1434 51.5469 89.2604 52.0678 83.0836C52.9855 76.1879 51.4793 69.1875 47.8064 63.2797ZM46.2663 103.819C46.8905 103.339 47.4666 102.799 47.9857 102.207C52.7714 96.9195 55.6679 90.1939 56.2221 83.0836C57.2588 75.3321 55.3831 67.4716 50.9579 61.0235C50.2842 60.1425 49.5418 59.3162 48.7376 58.5525C46.1914 56.0959 42.9061 54.5476 39.3907 54.1476C28.4323 53.0017 18.584 63.9601 17.0083 79.2159C15.4326 94.4718 22.8455 107.006 33.8397 108.152C36.115 108.335 38.4036 108.045 40.561 107.299C42.7184 106.553 44.6977 105.368 46.3739 103.819H46.2663Z" stroke="#9419FF" stroke-width="3.975" stroke-miterlimit="10"/>
<path fill-rule="evenodd" clip-rule="evenodd" d="M47.8064 63.2797C46.7607 61.5873 45.3558 60.1455 43.691 59.0563C42.0263 57.9671 40.1428 57.2572 38.1732 56.9768C29.1129 56.0457 20.6253 66.2163 19.2286 79.6815C17.832 93.1468 24.0633 104.75 33.1237 105.788C35.4795 105.901 37.8265 105.431 39.9568 104.419C42.0872 103.407 43.935 101.884 45.3356 99.9868C49.2041 95.1434 51.5469 89.2604 52.0678 83.0836C52.9855 76.1879 51.4793 69.1875 47.8064 63.2797ZM46.2663 103.819C46.8905 103.339 47.4666 102.799 47.9857 102.207C52.7714 96.9195 55.6679 90.1939 56.2221 83.0836C57.2588 75.3321 55.3831 67.4716 50.9579 61.0235C50.2842 60.1425 49.5418 59.3162 48.7376 58.5525C46.1914 56.0959 42.9061 54.5476 39.3907 54.1476C28.4323 53.0017 18.584 63.9601 17.0083 79.2159C15.4326 94.4718 22.8455 107.006 33.8397 108.152C36.115 108.335 38.4036 108.045 40.561 107.299C42.7184 106.553 44.6977 105.368 46.3739 103.819H46.2663Z" stroke="black" stroke-opacity="0.2" stroke-width="3.975" stroke-miterlimit="10"/>
<path d="M47.8076 63.2793C51.4805 69.1872 52.9867 76.1875 52.069 83.0832C51.548 89.26 49.2052 95.143 45.3367 99.9864C43.2193 97.217 41.6862 94.0464 40.8305 90.6668C39.9749 87.2872 39.8144 83.7691 40.3588 80.3257C40.7746 73.948 43.4098 67.917 47.8076 63.2793Z" stroke="#9419FF" stroke-width="3.975" stroke-miterlimit="10"/>
<path d="M47.8076 63.2793C51.4805 69.1872 52.9867 76.1875 52.069 83.0832C51.548 89.26 49.2052 95.143 45.3367 99.9864C43.2193 97.217 41.6862 94.0464 40.8305 90.6668C39.9749 87.2872 39.8144 83.7691 40.3588 80.3257C40.7746 73.948 43.4098 67.917 47.8076 63.2793Z" stroke="black" stroke-opacity="0.2" stroke-width="3.975" stroke-miterlimit="10"/>
</svg>
