<svg width="175" height="175" viewBox="0 0 175 175" fill="none" xmlns="http://www.w3.org/2000/svg">
<path d="M87.5 175C135.825 175 175 135.825 175 87.5C175 39.1751 135.825 0 87.5 0C39.1751 0 0 39.1751 0 87.5C0 135.825 39.1751 175 87.5 175Z" fill="#B866FF"/>
<path d="M32.7506 100.104C32.7481 99.6907 32.8782 99.2874 33.1218 98.9534C33.3654 98.6193 33.7094 98.3722 34.1038 98.2481C34.596 98.1018 35.126 98.1532 35.5809 98.3915C36.0358 98.6298 36.3798 99.0361 36.5397 99.5241L36.733 100.181C38.3183 105.285 39.8651 110.273 41.5277 115.184C43.1903 120.094 44.6595 123.922 46.2061 127.441C47.4777 130.41 48.9238 133.302 50.5366 136.102C51.7095 138.122 53.0006 140.072 54.4031 141.94C55.4517 143.386 56.6017 144.756 57.8444 146.039C59.0561 147.222 60.348 148.32 61.711 149.325C63.4896 150.679 65.3455 151.993 67.4334 153.192C69.5213 154.39 71.9573 156.053 74.2773 157.29C76.523 158.519 78.8633 159.566 81.2757 160.422C83.1662 161.152 85.1663 161.557 87.1916 161.621C98.4046 161.621 113.948 149.209 117.351 145.729L117.699 145.381C118.394 144.647 119.129 143.951 119.864 143.1C124.542 137.958 132.933 119.901 139.197 96.7015C139.26 96.455 139.371 96.2234 139.524 96.02C139.676 95.8165 139.868 95.6452 140.087 95.5159C140.306 95.3866 140.549 95.3018 140.801 95.2664C141.053 95.231 141.309 95.2456 141.555 95.3096C142.056 95.4456 142.483 95.7736 142.744 96.2223C143.004 96.6711 143.077 97.2045 142.947 97.7068C136.49 121.602 127.674 140.239 122.687 145.807C121.913 146.696 121.14 147.431 120.444 148.165L120.057 148.552C117.351 151.336 100.725 165.487 87.1529 165.603C84.6914 165.542 82.2589 165.058 79.9612 164.173C77.2925 163.274 74.7054 162.148 72.2281 160.809C69.7922 159.494 67.3948 158.064 65.0749 156.517C62.7549 154.97 60.9764 153.733 59.1592 152.38C57.6186 151.257 56.1466 150.044 54.7512 148.745C53.3644 147.379 52.0726 145.919 50.8847 144.376C49.3096 142.328 47.8634 140.185 46.5542 137.958C44.8555 135.035 43.332 132.013 41.9917 128.91C40.4451 125.314 38.8983 121.177 37.2357 116.382C35.5731 111.588 33.9493 106.368 32.364 101.225V100.568C32.477 100.401 32.6065 100.245 32.7506 100.104Z" fill="white"/>
<path d="M27.0663 75.3199C27.0654 74.9767 27.1542 74.6393 27.3238 74.3409C27.4933 74.0425 27.7377 73.7936 28.0329 73.6186C49.9949 60.975 76.481 38.201 86.2634 15.6204C86.4743 15.1545 86.8612 14.7912 87.3395 14.61C87.8178 14.4288 88.3485 14.4445 88.8152 14.6538C89.0445 14.7543 89.2516 14.8993 89.4245 15.0804C89.5975 15.2615 89.7328 15.4751 89.8226 15.7088C89.9125 15.9425 89.9552 16.1917 89.9482 16.442C89.9412 16.6923 89.8847 16.9387 89.7818 17.167C79.6901 40.3663 52.4695 63.8362 29.9662 76.7892C29.7489 76.92 29.5077 77.0058 29.2566 77.0416C29.0054 77.0774 28.7497 77.0624 28.5044 76.9975C28.2592 76.9326 28.0296 76.8191 27.829 76.6637C27.6285 76.5084 27.4611 76.3144 27.337 76.0932C27.1891 75.8594 27.0965 75.5949 27.0663 75.3199Z" fill="white"/>
<path d="M86.1107 16.586C86.0748 16.0733 86.2441 15.5673 86.5812 15.1794C86.9184 14.7914 87.396 14.5533 87.9087 14.5174C88.4214 14.4815 88.9273 14.6508 89.3152 14.988C89.7032 15.3252 89.9413 15.8026 89.9772 16.3154C93.1478 38.0067 100.494 51.733 113.176 59.4661C118.624 62.433 124.398 64.7557 130.383 66.3872C136.672 68.1495 142.752 70.5866 148.517 73.6563C150.784 74.9375 152.855 76.5393 154.664 78.4121C157.193 81.2199 159.127 84.5105 160.349 88.0855C161.572 91.6606 162.058 95.4462 161.779 99.2142C161.131 110.643 156.137 121.391 147.821 129.257C147.644 129.437 147.434 129.58 147.201 129.678C146.969 129.776 146.719 129.826 146.467 129.826C146.215 129.826 145.966 129.776 145.733 129.678C145.501 129.58 145.291 129.437 145.114 129.257C144.76 128.896 144.562 128.41 144.562 127.904C144.562 127.398 144.76 126.912 145.114 126.551C152.653 119.395 157.175 109.631 157.758 99.2528C158.024 96.0036 157.626 92.7343 156.589 89.6435C155.552 86.5527 153.898 83.705 151.726 81.2734C150.139 79.6746 148.344 78.2961 146.39 77.1748C140.917 74.2831 135.148 71.9886 129.184 70.3311C122.849 68.5812 116.737 66.1029 110.973 62.9459C93.0704 51.9263 88.1986 31.4723 86.072 17.0887L86.1107 16.586Z" fill="white"/>
<path d="M6.45927 94.2271C6.46072 90.6269 6.98149 87.0456 8.00574 83.5941C10.9075 74.9392 15.2904 66.854 20.9588 59.6989C25.7271 53.7098 31.0476 48.1821 36.8503 43.1887C39.0929 41.1395 41.4128 39.0515 43.6167 36.9249C43.7965 36.7437 44.0103 36.5999 44.2459 36.5017C44.4815 36.4036 44.7341 36.353 44.9893 36.353C45.2445 36.353 45.4973 36.4036 45.7329 36.5017C45.9685 36.5999 46.1824 36.7437 46.3621 36.9249C46.5433 37.1046 46.6871 37.3184 46.7852 37.554C46.8834 37.7896 46.9339 38.0423 46.9339 38.2975C46.9339 38.5527 46.8834 38.8054 46.7852 39.041C46.6871 39.2766 46.5433 39.4904 46.3621 39.6701C44.1195 41.7968 41.7608 43.9233 39.5182 45.9726C33.8948 50.8355 28.7187 56.1928 24.052 61.9801C18.6831 68.7852 14.524 76.4625 11.7564 84.6768C6.80724 101.032 15.3136 119.012 30.3545 124C30.5986 124.074 30.825 124.197 31.0205 124.361C31.2159 124.525 31.3762 124.727 31.4918 124.954C31.6073 125.182 31.6759 125.43 31.6931 125.685C31.7102 125.939 31.6758 126.195 31.5918 126.435C31.4241 126.916 31.0769 127.314 30.6228 127.544C30.1688 127.775 29.6431 127.821 29.1559 127.673C22.3615 125.155 16.5225 120.579 12.4538 114.583C8.38502 108.587 6.28948 101.471 6.45927 94.2271Z" fill="white"/>
<path d="M95.5427 16.5873C95.5359 16.1775 95.6651 15.7769 95.9099 15.4482C96.1547 15.1195 96.5015 14.881 96.8961 14.77C97.3883 14.6237 97.9181 14.6751 98.373 14.9134C98.8279 15.1517 99.1719 15.558 99.3318 16.046C102.734 26.911 106.369 36.4614 116.074 43.1118C122.381 47.1648 129.491 49.803 136.915 50.8449C137.167 50.8449 137.416 50.8951 137.649 50.9928C137.881 51.0904 138.092 51.2334 138.268 51.4134C138.445 51.5935 138.584 51.8069 138.676 52.0413C138.769 52.2756 138.815 52.5262 138.809 52.7782C138.804 53.0372 138.748 53.2926 138.645 53.53C138.541 53.7673 138.391 53.9818 138.204 54.1614C138.018 54.3409 137.798 54.4819 137.556 54.5763C137.315 54.6707 137.058 54.7166 136.799 54.7115H136.258C128.287 53.501 120.667 50.6007 113.909 46.2051C103.16 38.8973 99.2546 28.6896 95.6201 17.09C95.58 16.9249 95.5541 16.7568 95.5427 16.5873Z" fill="white"/>
<path d="M59.0433 90.1662C49.4543 90.6688 45.2012 84.2504 40.5613 85.913C40.5613 85.913 43.1132 82.7038 46.0518 83.4384C50.189 84.4437 51.8129 87.3049 58.6181 87.5756C62.89 87.6119 67.0574 86.2545 70.4884 83.7091C69.1916 85.5792 67.4884 87.1316 65.5063 88.2499C63.5242 89.3681 61.3146 90.0233 59.0433 90.1662Z" fill="white"/>
<path d="M112.402 90.1662C121.991 90.6688 126.205 84.2504 130.884 85.913C130.884 85.913 128.332 82.7038 125.394 83.4384C121.256 84.4437 119.632 87.3049 112.789 87.5756C108.529 87.6063 104.376 86.249 100.957 83.7091C102.25 85.5833 103.952 87.1386 105.935 88.2574C107.918 89.3761 110.129 90.0289 112.402 90.1662Z" fill="white"/>
<path d="M39.2459 68.6692C42.7077 65.2827 46.9406 62.7881 51.5802 61.4001C56.4031 60.6346 61.3341 60.9115 66.041 62.212C69.0849 63.4299 71.7527 65.4308 73.7741 68.0119L73.5808 68.7465C70.5089 69.7114 67.2724 70.0404 64.0691 69.7131C58.5399 69.0171 53.7068 65.2279 48.023 66.8519C45.1134 67.4653 42.2562 68.3056 39.4779 69.3651L39.13 68.6692H39.2459Z" fill="white"/>
<path d="M117.118 65.6918C111.084 68.4974 104.321 69.3359 97.7852 68.0891V67.4318C99.945 65.0784 102.627 63.2648 105.615 62.1366C108.604 61.0084 111.815 60.5972 114.991 60.936" fill="white"/>
<path d="M87.3082 146.309C83.9523 146.334 80.6754 145.292 77.9513 143.332C75.2808 140.8 73.1387 137.764 71.6488 134.4C71.6077 134.248 71.6077 134.088 71.6488 133.936C71.653 133.727 71.7174 133.524 71.8343 133.351C71.9511 133.179 72.1152 133.043 72.3072 132.961C72.4992 132.88 72.7107 132.855 72.9163 132.891C73.1219 132.927 73.3127 133.021 73.4659 133.163C73.4659 133.163 73.4662 133.163 73.6982 133.163C77.8222 135.533 82.3884 137.034 87.115 137.57H88.0429C92.9232 137.121 97.6535 135.645 101.924 133.24C102.078 133.099 102.269 133.006 102.475 132.972C102.681 132.938 102.892 132.964 103.084 133.047C103.285 133.118 103.459 133.248 103.583 133.421C103.708 133.594 103.776 133.8 103.78 134.013C103.77 134.233 103.703 134.446 103.586 134.632C102.086 137.954 99.9135 140.929 97.2066 143.37C94.4909 145.352 91.2111 146.409 87.8496 146.386H87.115L87.3082 146.309ZM75.2059 136.72C76.2076 138.541 77.5156 140.176 79.0725 141.553C81.4294 143.269 84.2774 144.177 87.1924 144.144H87.927C90.8459 144.163 93.6933 143.241 96.0467 141.514C97.6152 140.148 98.925 138.511 99.9132 136.681C96.1392 138.31 92.1343 139.34 88.0429 139.736C87.6443 139.774 87.2429 139.774 86.8443 139.736C82.8295 139.354 78.901 138.336 75.2059 136.72Z" fill="white"/>
<path d="M87.6958 139.776H87.1158C82.0059 139.322 77.0439 137.821 72.5388 135.368L72.1909 135.136L71.8428 134.904C71.3553 134.587 70.9456 134.164 70.6442 133.666C70.5593 133.499 70.5151 133.313 70.5151 133.125C70.5151 132.937 70.5593 132.752 70.6442 132.584C70.7483 132.43 70.8857 132.301 71.0464 132.207C71.207 132.113 71.3867 132.057 71.5722 132.043H72.0361C73.3859 132.468 74.8186 132.561 76.2121 132.313C77.2947 132.313 78.2227 131.926 79.112 131.733C80.8536 131.215 82.6851 131.07 84.4865 131.308C85.294 131.449 86.0758 131.709 86.8064 132.081C87.0996 132.219 87.4127 132.311 87.7343 132.352L88.5077 132.081C89.2498 131.705 90.0452 131.444 90.8662 131.308C92.6514 131.038 94.4743 131.171 96.2021 131.695C97.13 131.927 98.058 132.12 99.102 132.274H100.765C101.619 132.304 102.472 132.173 103.278 131.888C103.486 131.781 103.724 131.744 103.954 131.783C104.185 131.822 104.397 131.935 104.559 132.105C104.72 132.275 104.822 132.493 104.849 132.726C104.876 132.958 104.826 133.193 104.709 133.396C104.396 133.895 103.989 134.329 103.51 134.672C98.8998 137.328 93.7678 138.95 88.469 139.428L87.6958 139.776ZM75.8255 134.633C79.4335 136.213 83.2714 137.205 87.1932 137.572H88.1211C92.1171 137.178 96.0291 136.174 99.7207 134.594L98.7154 134.401C97.5554 134.401 96.5502 133.976 95.6609 133.782C94.2388 133.327 92.7327 133.194 91.253 133.396C90.5835 133.513 89.9331 133.722 89.3197 134.014C88.7941 134.258 88.2327 134.414 87.6571 134.478C87.0258 134.451 86.4068 134.293 85.8397 134.014C85.2405 133.72 84.6027 133.512 83.9452 133.396C82.4651 133.211 80.9625 133.342 79.5372 133.782C78.5198 134.052 77.4868 134.258 76.444 134.401L75.8255 134.633Z" fill="white"/>
<path d="M79.0718 113.636C79.0668 113.408 79.1498 113.187 79.3037 113.018C79.3905 112.925 79.4953 112.852 79.6117 112.801C79.7281 112.751 79.8538 112.725 79.9806 112.725C80.1074 112.725 80.2328 112.751 80.3492 112.801C80.4656 112.852 80.5704 112.925 80.6572 113.018C82.4948 114.557 84.764 115.489 87.1529 115.686C88.3786 115.675 89.588 115.403 90.7011 114.89C91.8142 114.377 92.8057 113.633 93.61 112.708C93.7907 112.531 94.0336 112.432 94.2866 112.432C94.5396 112.432 94.7828 112.531 94.9634 112.708C95.1631 112.875 95.2935 113.11 95.3292 113.367C95.365 113.624 95.3035 113.886 95.1567 114.1C94.1908 115.276 92.9827 116.23 91.6149 116.898C90.2471 117.565 88.7517 117.93 87.2303 117.967C84.3895 117.753 81.6862 116.658 79.4973 114.835C79.2934 114.721 79.1377 114.536 79.0595 114.316C78.9813 114.095 78.9857 113.854 79.0718 113.636Z" fill="white"/>
<path d="M138.539 104.745C138.499 104.566 138.499 104.382 138.539 104.203C138.605 103.957 138.721 103.726 138.879 103.525C139.037 103.325 139.233 103.158 139.457 103.035C139.681 102.912 139.928 102.836 140.182 102.811C140.436 102.786 140.692 102.812 140.936 102.889C142.186 103.195 143.489 103.215 144.748 102.947C146.006 102.679 147.188 102.131 148.205 101.342C150.776 99.42 152.639 96.7009 153.502 93.609C154.394 90.6789 154.593 87.5814 154.082 84.5613C154.007 84.3176 153.982 84.0609 154.01 83.8073C154.038 83.5536 154.118 83.3085 154.245 83.0871C154.372 82.8658 154.543 82.673 154.748 82.5208C154.953 82.3686 155.187 82.2604 155.436 82.2027C155.677 82.1322 155.93 82.1103 156.18 82.1383C156.429 82.1664 156.671 82.2438 156.89 82.3662C157.11 82.4885 157.303 82.6533 157.458 82.8509C157.613 83.0486 157.728 83.2751 157.794 83.5174C158.509 87.2212 158.31 91.0435 157.214 94.653C156.127 98.6256 153.746 102.122 150.448 104.59C148.957 105.721 147.228 106.497 145.392 106.859C143.556 107.221 141.662 107.159 139.854 106.678C139.457 106.538 139.115 106.275 138.879 105.927C138.642 105.579 138.523 105.165 138.539 104.745Z" fill="white"/>
<path d="M18.2904 89.4329C18.2904 82.2025 22.4276 75.1654 28.382 73.4641C28.6538 73.3864 28.9388 73.367 29.2186 73.4069C29.4985 73.4469 29.7668 73.5454 30.0059 73.6961C30.2363 73.862 30.4282 74.0758 30.5683 74.3227C30.7084 74.5696 30.7936 74.8438 30.818 75.1267C31.3845 80.3738 32.4593 85.5535 34.0273 90.5929C34.217 91.0697 34.2095 91.6024 34.0065 92.0737C33.8035 92.545 33.4214 92.9164 32.9445 93.1061C32.4677 93.2959 31.935 93.2884 31.4637 93.0853C30.9923 92.8823 30.6211 92.5004 30.4314 92.0235C28.9132 87.4768 27.8638 82.7868 27.2995 78.0266C25.1636 79.8314 23.5932 82.2139 22.7771 84.8885C21.9611 87.5631 21.9338 90.4163 22.6983 93.1061C23.5469 96.2988 25.4386 99.1161 28.0726 101.11C29.0808 101.915 30.2612 102.477 31.522 102.752C32.7827 103.027 34.0898 103.008 35.3418 102.695C35.834 102.552 36.3632 102.609 36.8127 102.856C37.2623 103.103 37.5955 103.518 37.739 104.01C37.8722 104.502 37.8097 105.026 37.5646 105.473C37.3195 105.92 36.911 106.255 36.4245 106.407C34.6049 106.887 32.6992 106.941 30.8553 106.565C29.0114 106.19 27.2787 105.395 25.7915 104.242C22.4647 101.744 20.0692 98.2054 18.9864 94.1888C18.5426 92.6418 18.3085 91.0422 18.2904 89.4329Z" fill="white"/>
</svg>
