<svg width="147" height="6" viewBox="0 0 147 6" fill="none" xmlns="http://www.w3.org/2000/svg">
<path d="M0.333333 3C0.333333 4.47276 1.52724 5.66667 3 5.66667C4.47276 5.66667 5.66667 4.47276 5.66667 3C5.66667 1.52724 4.47276 0.333333 3 0.333333C1.52724 0.333333 0.333333 1.52724 0.333333 3ZM141.333 3C141.333 4.47276 142.527 5.66667 144 5.66667C145.473 5.66667 146.667 4.47276 146.667 3C146.667 1.52724 145.473 0.333333 144 0.333333C142.527 0.333333 141.333 1.52724 141.333 3ZM3 3.5L144 3.5V2.5L3 2.5L3 3.5Z" fill="white"/>
</svg>
