<svg width="73" height="7" viewBox="0 0 73 7" fill="none" xmlns="http://www.w3.org/2000/svg">
<path d="M0.33344 3.52381C0.346589 4.99651 1.55111 6.17971 3.02381 6.16656C4.49651 6.15341 5.67971 4.94889 5.66656 3.47619C5.65341 2.00349 4.44889 0.82029 2.97619 0.83344C1.50349 0.846589 0.32029 2.05111 0.33344 3.52381ZM67.3334 3.52381C67.3466 4.99651 68.5511 6.17971 70.0238 6.16656C71.4965 6.15341 72.6797 4.94889 72.6666 3.47619C72.6534 2.00349 71.4489 0.820291 69.9762 0.83344C68.5035 0.846589 67.3203 2.05111 67.3334 3.52381ZM3 4L70 4L70 3L3 3V4Z" fill="white"/>
</svg>
