<svg width="197" height="197" viewBox="0 0 197 197" fill="none" xmlns="http://www.w3.org/2000/svg">
<path d="M98.0169 196.033C152.15 196.033 196.033 152.15 196.033 98.0166C196.033 43.8835 152.15 0 98.0169 0C43.8838 0 0 43.8835 0 98.0166C0 152.15 43.8838 196.033 98.0169 196.033Z" fill="white"/>
<path d="M60.3355 53.7498V62.4123H39.3723V75.4061H58.2999V84.0686H39.3723V97.6255H61.0287V106.288H29.9299V53.7498H60.3355Z" fill="#9419FF"/>
<path d="M60.3355 53.7498V62.4123H39.3723V75.4061H58.2999V84.0686H39.3723V97.6255H61.0287V106.288H29.9299V53.7498H60.3355Z" fill="black" fill-opacity="0.2"/>
<path d="M81.5561 53.7498L99.4443 78.2647L116.769 53.7498H125.432V106.201H116.293V68.2595L99.7472 91.605H98.4048L81.6862 68.5194V106.201H72.4605V53.7498H81.5561Z" fill="#9419FF"/>
<path d="M81.5561 53.7498L99.4443 78.2647L116.769 53.7498H125.432V106.201H116.293V68.2595L99.7472 91.605H98.4048L81.6862 68.5194V106.201H72.4605V53.7498H81.5561Z" fill="black" fill-opacity="0.2"/>
<path d="M159.867 92.7743C159.896 91.9636 159.749 91.1562 159.435 90.4082C159.121 89.6602 158.648 88.9897 158.048 88.4431C156.758 87.2177 155.299 86.1822 153.717 85.3678C151.985 84.4583 150.122 83.5487 148.043 82.6392C146.014 81.8063 144.095 80.73 142.326 79.434C140.592 78.1535 139.121 76.5505 137.995 74.7129C136.708 72.5892 136.075 70.1338 136.175 67.653C136.176 65.7343 136.559 63.835 137.301 62.0656C138.014 60.2797 139.125 58.6799 140.55 57.3879C142.063 56.0523 143.811 55.0095 145.704 54.3127C147.917 53.5394 150.247 53.1583 152.591 53.1865C155.546 53.1712 158.479 53.6846 161.253 54.7025C163.606 55.5386 165.728 56.9188 167.447 58.7306L162.51 65.6606C161.352 64.4475 159.988 63.4502 158.481 62.7153C156.829 61.997 155.042 61.6425 153.241 61.6758C151.31 61.557 149.398 62.1077 147.827 63.2351C147.189 63.7571 146.681 64.4199 146.342 65.1715C146.004 65.9231 145.845 66.7428 145.877 67.5663C145.854 68.3763 146.004 69.182 146.318 69.9291C146.631 70.6762 147.102 71.3474 147.697 71.8976C148.996 73.0875 150.454 74.0932 152.028 74.8862C153.76 75.7524 155.709 76.6187 157.788 77.4416C159.812 78.2426 161.743 79.2591 163.549 80.4735C165.287 81.7322 166.759 83.3219 167.88 85.1513C169.172 87.3203 169.804 89.8187 169.699 92.3412C169.712 94.4098 169.253 96.454 168.357 98.3184C167.549 100.059 166.4 101.621 164.978 102.909C163.29 104.227 161.384 105.239 159.347 105.898C157.1 106.653 154.744 107.033 152.374 107.024C150.643 107.023 148.917 106.849 147.22 106.504C145.525 106.134 143.872 105.597 142.282 104.902C140.699 104.293 139.233 103.414 137.951 102.303C136.787 101.311 135.843 100.086 135.179 98.7082L140.42 92.3845C141.902 94.2974 143.858 95.7904 146.094 96.7158C148.121 97.6404 150.32 98.1274 152.548 98.1451C154.472 98.2175 156.37 97.6711 157.962 96.5858C158.676 96.0611 159.248 95.3665 159.627 94.5648C160.005 93.7631 160.177 92.8797 160.127 91.9947L159.867 92.7743Z" fill="#9419FF"/>
<path d="M159.867 92.7743C159.896 91.9636 159.749 91.1562 159.435 90.4082C159.121 89.6602 158.648 88.9897 158.048 88.4431C156.758 87.2177 155.299 86.1822 153.717 85.3678C151.985 84.4583 150.122 83.5487 148.043 82.6392C146.014 81.8063 144.095 80.73 142.326 79.434C140.592 78.1535 139.121 76.5505 137.995 74.7129C136.708 72.5892 136.075 70.1338 136.175 67.653C136.176 65.7343 136.559 63.835 137.301 62.0656C138.014 60.2797 139.125 58.6799 140.55 57.3879C142.063 56.0523 143.811 55.0095 145.704 54.3127C147.917 53.5394 150.247 53.1583 152.591 53.1865C155.546 53.1712 158.479 53.6846 161.253 54.7025C163.606 55.5386 165.728 56.9188 167.447 58.7306L162.51 65.6606C161.352 64.4475 159.988 63.4502 158.481 62.7153C156.829 61.997 155.042 61.6425 153.241 61.6758C151.31 61.557 149.398 62.1077 147.827 63.2351C147.189 63.7571 146.681 64.4199 146.342 65.1715C146.004 65.9231 145.845 66.7428 145.877 67.5663C145.854 68.3763 146.004 69.182 146.318 69.9291C146.631 70.6762 147.102 71.3474 147.697 71.8976C148.996 73.0875 150.454 74.0932 152.028 74.8862C153.76 75.7524 155.709 76.6187 157.788 77.4416C159.812 78.2426 161.743 79.2591 163.549 80.4735C165.287 81.7322 166.759 83.3219 167.88 85.1513C169.172 87.3203 169.804 89.8187 169.699 92.3412C169.712 94.4098 169.253 96.454 168.357 98.3184C167.549 100.059 166.4 101.621 164.978 102.909C163.29 104.227 161.384 105.239 159.347 105.898C157.1 106.653 154.744 107.033 152.374 107.024C150.643 107.023 148.917 106.849 147.22 106.504C145.525 106.134 143.872 105.597 142.282 104.902C140.699 104.293 139.233 103.414 137.951 102.303C136.787 101.311 135.843 100.086 135.179 98.7082L140.42 92.3845C141.902 94.2974 143.858 95.7904 146.094 96.7158C148.121 97.6404 150.32 98.1274 152.548 98.1451C154.472 98.2175 156.37 97.6711 157.962 96.5858C158.676 96.0611 159.248 95.3665 159.627 94.5648C160.005 93.7631 160.177 92.8797 160.127 91.9947L159.867 92.7743Z" fill="black" fill-opacity="0.2"/>
<path d="M35.8604 118.243V141.545H32.0494V123.7L29.1906 125.823L27.1551 122.704L33.0889 118.373L35.8604 118.243Z" fill="#9419FF"/>
<path d="M35.8604 118.243V141.545H32.0494V123.7L29.1906 125.823L27.1551 122.704L33.0889 118.373L35.8604 118.243Z" fill="black" fill-opacity="0.2"/>
<path d="M41.3615 129.937C41.3525 128.308 41.5121 126.682 41.8379 125.086C42.0927 123.763 42.5611 122.49 43.2242 121.318C43.8315 120.327 44.6809 119.507 45.6928 118.935C46.753 118.351 47.9474 118.052 49.158 118.069C50.3698 118.042 51.5668 118.341 52.6232 118.935C53.6093 119.511 54.4295 120.332 55.0051 121.318C55.6866 122.482 56.1562 123.758 56.3914 125.086C57.0262 128.274 57.0262 131.556 56.3914 134.744C56.1562 136.073 55.6866 137.349 55.0051 138.513C54.4202 139.527 53.5719 140.364 52.5503 140.936C51.5286 141.508 50.3717 141.793 49.2014 141.761C48.0141 141.789 46.8403 141.503 45.7985 140.933C44.7568 140.363 43.8839 139.528 43.2676 138.513C42.5893 137.343 42.1062 136.07 41.8379 134.744C41.4928 133.166 41.333 131.552 41.3615 129.937ZM45.4332 129.937C45.3089 132.074 45.6334 134.213 46.3859 136.217C46.5925 136.811 46.9788 137.326 47.491 137.691C48.0031 138.055 48.616 138.252 49.2447 138.253C49.8669 138.273 50.4782 138.089 50.9863 137.729C51.4945 137.369 51.8718 136.854 52.0602 136.26C52.7166 134.22 52.9952 132.077 52.8828 129.937C52.9882 127.793 52.6947 125.649 52.0168 123.613C51.8203 123.016 51.4352 122.499 50.9197 122.14C50.4042 121.781 49.786 121.599 49.158 121.621C48.5262 121.608 47.9069 121.8 47.3921 122.166C46.8773 122.533 46.4943 123.055 46.2992 123.656C45.6413 125.682 45.3626 127.811 45.4765 129.937H45.4332Z" fill="#9419FF"/>
<path d="M41.3615 129.937C41.3525 128.308 41.5121 126.682 41.8379 125.086C42.0927 123.763 42.5611 122.49 43.2242 121.318C43.8315 120.327 44.6809 119.507 45.6928 118.935C46.753 118.351 47.9474 118.052 49.158 118.069C50.3698 118.042 51.5668 118.341 52.6232 118.935C53.6093 119.511 54.4295 120.332 55.0051 121.318C55.6866 122.482 56.1562 123.758 56.3914 125.086C57.0262 128.274 57.0262 131.556 56.3914 134.744C56.1562 136.073 55.6866 137.349 55.0051 138.513C54.4202 139.527 53.5719 140.364 52.5503 140.936C51.5286 141.508 50.3717 141.793 49.2014 141.761C48.0141 141.789 46.8403 141.503 45.7985 140.933C44.7568 140.363 43.8839 139.528 43.2676 138.513C42.5893 137.343 42.1062 136.07 41.8379 134.744C41.4928 133.166 41.333 131.552 41.3615 129.937ZM45.4332 129.937C45.3089 132.074 45.6334 134.213 46.3859 136.217C46.5925 136.811 46.9788 137.326 47.491 137.691C48.0031 138.055 48.616 138.252 49.2447 138.253C49.8669 138.273 50.4782 138.089 50.9863 137.729C51.4945 137.369 51.8718 136.854 52.0602 136.26C52.7166 134.22 52.9952 132.077 52.8828 129.937C52.9882 127.793 52.6947 125.649 52.0168 123.613C51.8203 123.016 51.4352 122.499 50.9197 122.14C50.4042 121.781 49.786 121.599 49.158 121.621C48.5262 121.608 47.9069 121.8 47.3921 122.166C46.8773 122.533 46.4943 123.055 46.2992 123.656C45.6413 125.682 45.3626 127.811 45.4765 129.937H45.4332Z" fill="black" fill-opacity="0.2"/>
<path d="M76.3594 128.117V131.452H62.1527V128.117H76.3594Z" fill="#9419FF"/>
<path d="M76.3594 128.117V131.452H62.1527V128.117H76.3594Z" fill="black" fill-opacity="0.2"/>
<path d="M80.1715 136.173V133.228L89.137 118.198H93.4683L85.0659 132.232H90.7395V126.601H94.5511V132.318H97.5399V136.173H94.5511V141.544H90.7395V136.173H80.1715Z" fill="#9419FF"/>
<path d="M80.1715 136.173V133.228L89.137 118.198H93.4683L85.0659 132.232H90.7395V126.601H94.5511V132.318H97.5399V136.173H94.5511V141.544H90.7395V136.173H80.1715Z" fill="black" fill-opacity="0.2"/>
<path d="M114.128 118.372V122.183H106.505L105.855 126.818H106.462H107.155C108.132 126.81 109.102 126.987 110.014 127.338C110.89 127.655 111.687 128.157 112.352 128.81C113.026 129.458 113.557 130.24 113.911 131.106C114.293 132.086 114.484 133.129 114.475 134.181C114.498 135.326 114.276 136.463 113.825 137.516C113.416 138.434 112.844 139.271 112.136 139.985C111.393 140.655 110.524 141.17 109.58 141.501C108.593 141.852 107.553 142.027 106.505 142.021C105.872 142.085 105.233 142.085 104.6 142.021C103.944 141.89 103.304 141.687 102.694 141.414C102.093 141.151 101.526 140.816 101.004 140.418C100.481 140.002 100.028 139.505 99.6619 138.945L101.871 136.087C102.395 136.813 103.096 137.395 103.906 137.776C104.739 138.199 105.658 138.422 106.592 138.426C107.098 138.45 107.603 138.366 108.073 138.179C108.544 137.993 108.969 137.707 109.321 137.343C110.01 136.52 110.369 135.471 110.329 134.399C110.289 133.327 109.852 132.308 109.104 131.539C108.081 130.705 106.782 130.287 105.466 130.369C104.716 130.304 103.963 130.304 103.213 130.369L101.611 130.803L103.127 118.458L114.128 118.372Z" fill="#9419FF"/>
<path d="M114.128 118.372V122.183H106.505L105.855 126.818H106.462H107.155C108.132 126.81 109.102 126.987 110.014 127.338C110.89 127.655 111.687 128.157 112.352 128.81C113.026 129.458 113.557 130.24 113.911 131.106C114.293 132.086 114.484 133.129 114.475 134.181C114.498 135.326 114.276 136.463 113.825 137.516C113.416 138.434 112.844 139.271 112.136 139.985C111.393 140.655 110.524 141.17 109.58 141.501C108.593 141.852 107.553 142.027 106.505 142.021C105.872 142.085 105.233 142.085 104.6 142.021C103.944 141.89 103.304 141.687 102.694 141.414C102.093 141.151 101.526 140.816 101.004 140.418C100.481 140.002 100.028 139.505 99.6619 138.945L101.871 136.087C102.395 136.813 103.096 137.395 103.906 137.776C104.739 138.199 105.658 138.422 106.592 138.426C107.098 138.45 107.603 138.366 108.073 138.179C108.544 137.993 108.969 137.707 109.321 137.343C110.01 136.52 110.369 135.471 110.329 134.399C110.289 133.327 109.852 132.308 109.104 131.539C108.081 130.705 106.782 130.287 105.466 130.369C104.716 130.304 103.963 130.304 103.213 130.369L101.611 130.803L103.127 118.458L114.128 118.372Z" fill="black" fill-opacity="0.2"/>
<path d="M130.329 131.625V141.544H126.258V118.285H130.329V127.814H140.941V118.285H145.013V141.544H140.941V131.625H130.329Z" fill="#9419FF"/>
<path d="M130.329 131.625V141.544H126.258V118.285H130.329V127.814H140.941V118.285H145.013V141.544H140.941V131.625H130.329Z" fill="black" fill-opacity="0.2"/>
<path d="M167.923 118.285V121.144L154.93 137.733H167.923V141.544H149.255V138.729L162.249 122.14H150.035V118.285H167.923Z" fill="#9419FF"/>
<path d="M167.923 118.285V121.144L154.93 137.733H167.923V141.544H149.255V138.729L162.249 122.14H150.035V118.285H167.923Z" fill="black" fill-opacity="0.2"/>
</svg>
