<svg width="197" height="197" viewBox="0 0 197 197" fill="none" xmlns="http://www.w3.org/2000/svg">
<path d="M98.0166 196.033C152.15 196.033 196.033 152.15 196.033 98.0166C196.033 43.8835 152.15 0 98.0166 0C43.8835 0 0 43.8835 0 98.0166C0 152.15 43.8835 196.033 98.0166 196.033Z" fill="white"/>
<path d="M64.4489 95.5026C64.4416 92.838 64.926 90.195 65.878 87.7063C66.7754 85.4627 68.018 83.373 69.56 81.5126C70.972 79.8058 72.6543 78.3426 74.5405 77.1813C76.1751 76.1522 77.9573 75.3781 79.8251 74.8857L81.904 78.7839C79.2927 79.5917 76.8851 80.9505 74.844 82.7686C73.7895 83.7092 72.8841 84.8045 72.1587 86.0171C71.356 87.3603 70.7712 88.8222 70.4261 90.3484C71.0933 89.4499 71.951 88.7103 72.938 88.1827C74.1594 87.6242 75.494 87.3573 76.8362 87.4031C77.9937 87.4006 79.1408 87.6212 80.2148 88.0528C81.2544 88.5008 82.1962 89.1483 82.9868 89.9586C83.7987 90.8305 84.4442 91.8433 84.8923 92.9471C85.3397 94.1973 85.5598 95.5175 85.5421 96.8453C85.569 98.3303 85.2891 99.8048 84.7194 101.177C84.1906 102.396 83.4079 103.488 82.4237 104.382C81.504 105.249 80.412 105.913 79.2187 106.331C78.0617 106.793 76.826 107.029 75.58 107.024C74.0484 107.056 72.5278 106.763 71.1171 106.166C69.7063 105.569 68.4377 104.68 67.3944 103.559C66.4203 102.482 65.6826 101.213 65.2287 99.8339C64.7059 98.45 64.4415 96.9819 64.4489 95.5026ZM69.7763 95.5026C69.7864 96.3576 69.9325 97.2056 70.2093 98.0147C70.4569 98.7345 70.8229 99.4078 71.2921 100.007C71.7854 100.561 72.3908 101.004 73.0681 101.306C73.8562 101.665 74.7143 101.843 75.58 101.826C76.2366 101.842 76.8886 101.709 77.486 101.436C78.0416 101.173 78.5414 100.805 78.9585 100.354C79.3505 99.899 79.6716 99.3879 79.9113 98.8376C80.2202 97.9278 80.2951 96.9548 80.1286 96.0086C79.962 95.0623 79.5595 94.1732 78.9585 93.4236C78.4912 92.9101 77.9128 92.5104 77.2672 92.2551C76.6215 91.9998 75.9258 91.8958 75.2337 91.9509C74.5851 91.9322 73.939 92.035 73.3282 92.2541C72.7693 92.437 72.2531 92.7317 71.8118 93.1204C71.3861 93.425 71.0067 93.7897 70.6857 94.2032C70.3955 94.5872 70.1352 94.9926 69.9063 95.4159L69.7763 95.5026Z" fill="#9419FF"/>
<path d="M64.4489 95.5026C64.4416 92.838 64.926 90.195 65.878 87.7063C66.7754 85.4627 68.018 83.373 69.56 81.5126C70.972 79.8058 72.6543 78.3426 74.5405 77.1813C76.1751 76.1522 77.9573 75.3781 79.8251 74.8857L81.904 78.7839C79.2927 79.5917 76.8851 80.9505 74.844 82.7686C73.7895 83.7092 72.8841 84.8045 72.1587 86.0171C71.356 87.3603 70.7712 88.8222 70.4261 90.3484C71.0933 89.4499 71.951 88.7103 72.938 88.1827C74.1594 87.6242 75.494 87.3573 76.8362 87.4031C77.9937 87.4006 79.1408 87.6212 80.2148 88.0528C81.2544 88.5008 82.1962 89.1483 82.9868 89.9586C83.7987 90.8305 84.4442 91.8433 84.8923 92.9471C85.3397 94.1973 85.5598 95.5175 85.5421 96.8453C85.569 98.3303 85.2891 99.8048 84.7194 101.177C84.1906 102.396 83.4079 103.488 82.4237 104.382C81.504 105.249 80.412 105.913 79.2187 106.331C78.0617 106.793 76.826 107.029 75.58 107.024C74.0484 107.056 72.5278 106.763 71.1171 106.166C69.7063 105.569 68.4377 104.68 67.3944 103.559C66.4203 102.482 65.6826 101.213 65.2287 99.8339C64.7059 98.45 64.4415 96.9819 64.4489 95.5026ZM69.7763 95.5026C69.7864 96.3576 69.9325 97.2056 70.2093 98.0147C70.4569 98.7345 70.8229 99.4078 71.2921 100.007C71.7854 100.561 72.3908 101.004 73.0681 101.306C73.8562 101.665 74.7143 101.843 75.58 101.826C76.2366 101.842 76.8886 101.709 77.486 101.436C78.0416 101.173 78.5414 100.805 78.9585 100.354C79.3505 99.899 79.6716 99.3879 79.9113 98.8376C80.2202 97.9278 80.2951 96.9548 80.1286 96.0086C79.962 95.0623 79.5595 94.1732 78.9585 93.4236C78.4912 92.9101 77.9128 92.5104 77.2672 92.2551C76.6215 91.9998 75.9258 91.8958 75.2337 91.9509C74.5851 91.9322 73.939 92.035 73.3282 92.2541C72.7693 92.437 72.2531 92.7317 71.8118 93.1204C71.3861 93.425 71.0067 93.7897 70.6857 94.2032C70.3955 94.5872 70.1352 94.9926 69.9063 95.4159L69.7763 95.5026Z" fill="black" fill-opacity="0.2"/>
<path d="M96.2859 106.851C94.1494 106.887 92.0373 106.396 90.1359 105.421C88.5454 104.532 87.239 103.21 86.3677 101.61L89.2693 97.8415C90.001 98.9957 90.9956 99.9604 92.1714 100.657C93.301 101.364 94.6068 101.739 95.9396 101.74C96.6225 101.784 97.3076 101.692 97.9546 101.469C98.6015 101.246 99.1974 100.896 99.7078 100.44C100.109 100.036 100.426 99.5556 100.642 99.0279C100.858 98.5002 100.967 97.9351 100.964 97.3651C101.008 96.7332 100.893 96.1003 100.628 95.525C100.363 94.9496 99.9566 94.4503 99.4477 94.0733C98.1669 93.2287 96.6482 92.8187 95.1164 92.9039H92.8646V87.793H94.8568C95.4728 87.7979 96.0856 87.7103 96.6756 87.5331C97.2428 87.3816 97.7738 87.1163 98.2353 86.7534C98.689 86.3893 99.0584 85.9313 99.3181 85.4108C99.5783 84.8398 99.7112 84.2191 99.7078 83.5916C99.7583 82.5795 99.4172 81.5868 98.755 80.8196C98.3579 80.4437 97.8871 80.1536 97.373 79.9673C96.8588 79.781 96.312 79.7026 95.7662 79.7368C94.6168 79.7267 93.4838 80.0099 92.4744 80.5597C91.4503 81.1834 90.5777 82.0266 89.9191 83.0286L87.1037 79.4336C87.8925 77.8859 89.1512 76.6275 90.6989 75.8387C92.4205 74.9887 94.3233 74.5724 96.2426 74.6259C97.4787 74.602 98.7101 74.7925 99.8812 75.189C100.936 75.4955 101.911 76.0275 102.739 76.7482C103.558 77.4018 104.198 78.2508 104.602 79.2171C105.08 80.2476 105.317 81.3732 105.295 82.5088C105.386 84.0776 104.972 85.6344 104.115 86.9514C103.258 88.2685 102.002 89.2767 100.53 89.8287C101.429 89.9802 102.294 90.2881 103.086 90.7382C103.824 91.1555 104.472 91.7149 104.992 92.3841C105.475 93.076 105.854 93.8348 106.118 94.6364C106.378 95.5078 106.509 96.4124 106.508 97.3218C106.531 98.648 106.265 99.9634 105.728 101.177C105.235 102.308 104.495 103.314 103.563 104.122C102.606 104.94 101.504 105.572 100.314 105.984C99.0251 106.459 97.6596 106.694 96.2859 106.677V106.851Z" fill="#9419FF"/>
<path d="M96.2859 106.851C94.1494 106.887 92.0373 106.396 90.1359 105.421C88.5454 104.532 87.239 103.21 86.3677 101.61L89.2693 97.8415C90.001 98.9957 90.9956 99.9604 92.1714 100.657C93.301 101.364 94.6068 101.739 95.9396 101.74C96.6225 101.784 97.3076 101.692 97.9546 101.469C98.6015 101.246 99.1974 100.896 99.7078 100.44C100.109 100.036 100.426 99.5556 100.642 99.0279C100.858 98.5002 100.967 97.9351 100.964 97.3651C101.008 96.7332 100.893 96.1003 100.628 95.525C100.363 94.9496 99.9566 94.4503 99.4477 94.0733C98.1669 93.2287 96.6482 92.8187 95.1164 92.9039H92.8646V87.793H94.8568C95.4728 87.7979 96.0856 87.7103 96.6756 87.5331C97.2428 87.3816 97.7738 87.1163 98.2353 86.7534C98.689 86.3893 99.0584 85.9313 99.3181 85.4108C99.5783 84.8398 99.7112 84.2191 99.7078 83.5916C99.7583 82.5795 99.4172 81.5868 98.755 80.8196C98.3579 80.4437 97.8871 80.1536 97.373 79.9673C96.8588 79.781 96.312 79.7026 95.7662 79.7368C94.6168 79.7267 93.4838 80.0099 92.4744 80.5597C91.4503 81.1834 90.5777 82.0266 89.9191 83.0286L87.1037 79.4336C87.8925 77.8859 89.1512 76.6275 90.6989 75.8387C92.4205 74.9887 94.3233 74.5724 96.2426 74.6259C97.4787 74.602 98.7101 74.7925 99.8812 75.189C100.936 75.4955 101.911 76.0275 102.739 76.7482C103.558 77.4018 104.198 78.2508 104.602 79.2171C105.08 80.2476 105.317 81.3732 105.295 82.5088C105.386 84.0776 104.972 85.6344 104.115 86.9514C103.258 88.2685 102.002 89.2767 100.53 89.8287C101.429 89.9802 102.294 90.2881 103.086 90.7382C103.824 91.1555 104.472 91.7149 104.992 92.3841C105.475 93.076 105.854 93.8348 106.118 94.6364C106.378 95.5078 106.509 96.4124 106.508 97.3218C106.531 98.648 106.265 99.9634 105.728 101.177C105.235 102.308 104.495 103.314 103.563 104.122C102.606 104.94 101.504 105.572 100.314 105.984C99.0251 106.459 97.6596 106.694 96.2859 106.677V106.851Z" fill="black" fill-opacity="0.2"/>
<path d="M111.528 90.7828C111.518 88.6026 111.721 86.4266 112.134 84.2859C112.482 82.5156 113.126 80.8168 114.04 79.2616C114.84 77.9255 115.975 76.8208 117.332 76.0565C118.756 75.2907 120.349 74.8899 121.967 74.8899C123.584 74.8899 125.176 75.2907 126.601 76.0565C127.922 76.8373 129.025 77.9399 129.806 79.2616C130.723 80.8109 131.355 82.5128 131.669 84.2859C132.535 88.5738 132.535 92.9918 131.669 97.2797C131.355 99.0527 130.723 100.755 129.806 102.304C129.021 103.665 127.882 104.787 126.508 105.55C125.135 106.313 123.58 106.688 122.01 106.635C120.39 106.655 118.792 106.252 117.375 105.466C116.018 104.701 114.884 103.597 114.083 102.261C113.176 100.698 112.518 99.0026 112.134 97.2364C111.685 95.1005 111.467 92.9222 111.485 90.7395L111.528 90.7828ZM116.942 90.7828C116.781 93.7287 117.223 96.6765 118.242 99.4453C118.548 100.218 119.071 100.886 119.746 101.37C120.422 101.854 121.223 102.133 122.053 102.174C122.893 102.197 123.718 101.948 124.404 101.464C125.091 100.98 125.604 100.287 125.865 99.4887C126.751 96.6914 127.118 93.7555 126.948 90.8261C127.115 87.8937 126.733 84.9557 125.821 82.1636C125.541 81.369 125.017 80.6825 124.326 80.2007C123.634 79.719 122.809 79.4663 121.967 79.4782C121.123 79.4651 120.297 79.7232 119.611 80.2144C118.925 80.7056 118.415 81.404 118.155 82.2069C117.261 84.9142 116.865 87.761 116.985 90.6096L116.942 90.7828Z" fill="#9419FF"/>
<path d="M111.528 90.7828C111.518 88.6026 111.721 86.4266 112.134 84.2859C112.482 82.5156 113.126 80.8168 114.04 79.2616C114.84 77.9255 115.975 76.8208 117.332 76.0565C118.756 75.2907 120.349 74.8899 121.967 74.8899C123.584 74.8899 125.176 75.2907 126.601 76.0565C127.922 76.8373 129.025 77.9399 129.806 79.2616C130.723 80.8109 131.355 82.5128 131.669 84.2859C132.535 88.5738 132.535 92.9918 131.669 97.2797C131.355 99.0527 130.723 100.755 129.806 102.304C129.021 103.665 127.882 104.787 126.508 105.55C125.135 106.313 123.58 106.688 122.01 106.635C120.39 106.655 118.792 106.252 117.375 105.466C116.018 104.701 114.884 103.597 114.083 102.261C113.176 100.698 112.518 99.0026 112.134 97.2364C111.685 95.1005 111.467 92.9222 111.485 90.7395L111.528 90.7828ZM116.942 90.7828C116.781 93.7287 117.223 96.6765 118.242 99.4453C118.548 100.218 119.071 100.886 119.746 101.37C120.422 101.854 121.223 102.133 122.053 102.174C122.893 102.197 123.718 101.948 124.404 101.464C125.091 100.98 125.604 100.287 125.865 99.4887C126.751 96.6914 127.118 93.7555 126.948 90.8261C127.115 87.8937 126.733 84.9557 125.821 82.1636C125.541 81.369 125.017 80.6825 124.326 80.2007C123.634 79.719 122.809 79.4663 121.967 79.4782C121.123 79.4651 120.297 79.7232 119.611 80.2144C118.925 80.7056 118.415 81.404 118.155 82.2069C117.261 84.9142 116.865 87.761 116.985 90.6096L116.942 90.7828Z" fill="black" fill-opacity="0.2"/>
<path d="M82.8581 120.884V128.464H79.7397V110.705H82.8581V117.982H91.0009V110.705H94.0759V128.464H91.0009V120.884H82.8581Z" fill="#9419FF"/>
<path d="M82.8581 120.884V128.464H79.7397V110.705H82.8581V117.982H91.0009V110.705H94.0759V128.464H91.0009V120.884H82.8581Z" fill="black" fill-opacity="0.2"/>
<path d="M102.174 110.705L108.238 119.021L114.042 110.705H116.987V128.464H113.912V115.47L108.282 123.353H107.848L102.174 115.556V128.464H99.0992V110.705H102.174Z" fill="#9419FF"/>
<path d="M102.174 110.705L108.238 119.021L114.042 110.705H116.987V128.464H113.912V115.47L108.282 123.353H107.848L102.174 115.556V128.464H99.0992V110.705H102.174Z" fill="black" fill-opacity="0.2"/>
<path d="M148.65 104.425C151.305 104.425 153.458 102.273 153.458 99.6178C153.458 96.9625 151.305 94.8101 148.65 94.8101C145.995 94.8101 143.842 96.9625 143.842 99.6178C143.842 102.273 145.995 104.425 148.65 104.425Z" fill="#9419FF"/>
<path d="M148.65 104.425C151.305 104.425 153.458 102.273 153.458 99.6178C153.458 96.9625 151.305 94.8101 148.65 94.8101C145.995 94.8101 143.842 96.9625 143.842 99.6178C143.842 102.273 145.995 104.425 148.65 104.425Z" fill="black" fill-opacity="0.2"/>
<path d="M158.523 103.95C160.915 103.95 162.854 102.011 162.854 99.6191C162.854 97.227 160.915 95.2878 158.523 95.2878C156.131 95.2878 154.191 97.227 154.191 99.6191C154.191 102.011 156.131 103.95 158.523 103.95Z" fill="#9419FF"/>
<path d="M158.523 103.95C160.915 103.95 162.854 102.011 162.854 99.6191C162.854 97.227 160.915 95.2878 158.523 95.2878C156.131 95.2878 154.191 97.227 154.191 99.6191C154.191 102.011 156.131 103.95 158.523 103.95Z" fill="black" fill-opacity="0.2"/>
<path d="M168.354 103.473C170.483 103.473 172.209 101.747 172.209 99.6185C172.209 97.4895 170.483 95.7637 168.354 95.7637C166.225 95.7637 164.499 97.4895 164.499 99.6185C164.499 101.747 166.225 103.473 168.354 103.473Z" fill="#9419FF"/>
<path d="M168.354 103.473C170.483 103.473 172.209 101.747 172.209 99.6185C172.209 97.4895 170.483 95.7637 168.354 95.7637C166.225 95.7637 164.499 97.4895 164.499 99.6185C164.499 101.747 166.225 103.473 168.354 103.473Z" fill="black" fill-opacity="0.2"/>
<path d="M178.234 103.041C180.124 103.041 181.656 101.509 181.656 99.619C181.656 97.7292 180.124 96.1973 178.234 96.1973C176.344 96.1973 174.812 97.7292 174.812 99.619C174.812 101.509 176.344 103.041 178.234 103.041Z" fill="#9419FF"/>
<path d="M178.234 103.041C180.124 103.041 181.656 101.509 181.656 99.619C181.656 97.7292 180.124 96.1973 178.234 96.1973C176.344 96.1973 174.812 97.7292 174.812 99.619C174.812 101.509 176.344 103.041 178.234 103.041Z" fill="black" fill-opacity="0.2"/>
<path d="M188.065 102.564C189.692 102.564 191.01 101.245 191.01 99.6184C191.01 97.9917 189.692 96.6731 188.065 96.6731C186.439 96.6731 185.12 97.9917 185.12 99.6184C185.12 101.245 186.439 102.564 188.065 102.564Z" fill="#9419FF"/>
<path d="M188.065 102.564C189.692 102.564 191.01 101.245 191.01 99.6184C191.01 97.9917 189.692 96.6731 188.065 96.6731C186.439 96.6731 185.12 97.9917 185.12 99.6184C185.12 101.245 186.439 102.564 188.065 102.564Z" fill="black" fill-opacity="0.2"/>
<path d="M146.958 91.6493C149.614 91.6493 151.766 89.4969 151.766 86.8416C151.766 84.1864 149.614 82.0339 146.958 82.0339C144.303 82.0339 142.15 84.1864 142.15 86.8416C142.15 89.4969 144.303 91.6493 146.958 91.6493Z" fill="#9419FF"/>
<path d="M146.958 91.6493C149.614 91.6493 151.766 89.4969 151.766 86.8416C151.766 84.1864 149.614 82.0339 146.958 82.0339C144.303 82.0339 142.15 84.1864 142.15 86.8416C142.15 89.4969 144.303 91.6493 146.958 91.6493Z" fill="black" fill-opacity="0.2"/>
<path d="M156.488 88.6176C158.881 88.6176 160.82 86.6784 160.82 84.2863C160.82 81.8943 158.881 79.9551 156.488 79.9551C154.096 79.9551 152.157 81.8943 152.157 84.2863C152.157 86.6784 154.096 88.6176 156.488 88.6176Z" fill="#9419FF"/>
<path d="M156.488 88.6176C158.881 88.6176 160.82 86.6784 160.82 84.2863C160.82 81.8943 158.881 79.9551 156.488 79.9551C154.096 79.9551 152.157 81.8943 152.157 84.2863C152.157 86.6784 154.096 88.6176 156.488 88.6176Z" fill="black" fill-opacity="0.2"/>
<path d="M166.019 85.5859C168.148 85.5859 169.874 83.86 169.874 81.731C169.874 79.6021 168.148 77.8762 166.019 77.8762C163.89 77.8762 162.165 79.6021 162.165 81.731C162.165 83.86 163.89 85.5859 166.019 85.5859Z" fill="#9419FF"/>
<path d="M166.019 85.5859C168.148 85.5859 169.874 83.86 169.874 81.731C169.874 79.6021 168.148 77.8762 166.019 77.8762C163.89 77.8762 162.165 79.6021 162.165 81.731C162.165 83.86 163.89 85.5859 166.019 85.5859Z" fill="black" fill-opacity="0.2"/>
<path d="M175.547 82.5961C177.437 82.5961 178.969 81.0641 178.969 79.1744C178.969 77.2846 177.437 75.7527 175.547 75.7527C173.658 75.7527 172.126 77.2846 172.126 79.1744C172.126 81.0641 173.658 82.5961 175.547 82.5961Z" fill="#9419FF"/>
<path d="M175.547 82.5961C177.437 82.5961 178.969 81.0641 178.969 79.1744C178.969 77.2846 177.437 75.7527 175.547 75.7527C173.658 75.7527 172.126 77.2846 172.126 79.1744C172.126 81.0641 173.658 82.5961 175.547 82.5961Z" fill="black" fill-opacity="0.2"/>
<path d="M185.032 79.5644C186.659 79.5644 187.978 78.2457 187.978 76.6191C187.978 74.9925 186.659 73.6738 185.032 73.6738C183.405 73.6738 182.087 74.9925 182.087 76.6191C182.087 78.2457 183.405 79.5644 185.032 79.5644Z" fill="#9419FF"/>
<path d="M185.032 79.5644C186.659 79.5644 187.978 78.2457 187.978 76.6191C187.978 74.9925 186.659 73.6738 185.032 73.6738C183.405 73.6738 182.087 74.9925 182.087 76.6191C182.087 78.2457 183.405 79.5644 185.032 79.5644Z" fill="black" fill-opacity="0.2"/>
<path d="M142.021 79.7385C144.676 79.7385 146.829 77.586 146.829 74.9308C146.829 72.2755 144.676 70.123 142.021 70.123C139.366 70.123 137.213 72.2755 137.213 74.9308C137.213 77.586 139.366 79.7385 142.021 79.7385Z" fill="#9419FF"/>
<path d="M142.021 79.7385C144.676 79.7385 146.829 77.586 146.829 74.9308C146.829 72.2755 144.676 70.123 142.021 70.123C139.366 70.123 137.213 72.2755 137.213 74.9308C137.213 77.586 139.366 79.7385 142.021 79.7385Z" fill="black" fill-opacity="0.2"/>
<path d="M150.555 74.3232C152.947 74.3232 154.886 72.384 154.886 69.9919C154.886 67.5998 152.947 65.6606 150.555 65.6606C148.163 65.6606 146.224 67.5998 146.224 69.9919C146.224 72.384 148.163 74.3232 150.555 74.3232Z" fill="#9419FF"/>
<path d="M150.555 74.3232C152.947 74.3232 154.886 72.384 154.886 69.9919C154.886 67.5998 152.947 65.6606 150.555 65.6606C148.163 65.6606 146.224 67.5998 146.224 69.9919C146.224 72.384 148.163 74.3232 150.555 74.3232Z" fill="black" fill-opacity="0.2"/>
<path d="M159.087 68.9101C161.216 68.9101 162.942 67.1842 162.942 65.0553C162.942 62.9263 161.216 61.2004 159.087 61.2004C156.958 61.2004 155.232 62.9263 155.232 65.0553C155.232 67.1842 156.958 68.9101 159.087 68.9101Z" fill="#9419FF"/>
<path d="M159.087 68.9101C161.216 68.9101 162.942 67.1842 162.942 65.0553C162.942 62.9263 161.216 61.2004 159.087 61.2004C156.958 61.2004 155.232 62.9263 155.232 65.0553C155.232 67.1842 156.958 68.9101 159.087 68.9101Z" fill="black" fill-opacity="0.2"/>
<path d="M167.664 63.5392C169.553 63.5392 171.086 62.0073 171.086 60.1175C171.086 58.2277 169.553 56.6958 167.664 56.6958C165.774 56.6958 164.242 58.2277 164.242 60.1175C164.242 62.0073 165.774 63.5392 167.664 63.5392Z" fill="#9419FF"/>
<path d="M167.664 63.5392C169.553 63.5392 171.086 62.0073 171.086 60.1175C171.086 58.2277 169.553 56.6958 167.664 56.6958C165.774 56.6958 164.242 58.2277 164.242 60.1175C164.242 62.0073 165.774 63.5392 167.664 63.5392Z" fill="black" fill-opacity="0.2"/>
<path d="M176.196 58.1681C177.823 58.1681 179.141 56.8495 179.141 55.2229C179.141 53.5962 177.823 52.2776 176.196 52.2776C174.57 52.2776 173.251 53.5962 173.251 55.2229C173.251 56.8495 174.57 58.1681 176.196 58.1681Z" fill="#9419FF"/>
<path d="M176.196 58.1681C177.823 58.1681 179.141 56.8495 179.141 55.2229C179.141 53.5962 177.823 52.2776 176.196 52.2776C174.57 52.2776 173.251 53.5962 173.251 55.2229C173.251 56.8495 174.57 58.1681 176.196 58.1681Z" fill="black" fill-opacity="0.2"/>
<path d="M134.184 69.4728C136.839 69.4728 138.992 67.3204 138.992 64.6651C138.992 62.0099 136.839 59.8574 134.184 59.8574C131.529 59.8574 129.376 62.0099 129.376 64.6651C129.376 67.3204 131.529 69.4728 134.184 69.4728Z" fill="#9419FF"/>
<path d="M134.184 69.4728C136.839 69.4728 138.992 67.3204 138.992 64.6651C138.992 62.0099 136.839 59.8574 134.184 59.8574C131.529 59.8574 129.376 62.0099 129.376 64.6651C129.376 67.3204 131.529 69.4728 134.184 69.4728Z" fill="black" fill-opacity="0.2"/>
<path d="M141.155 62.0229C143.547 62.0229 145.486 60.0837 145.486 57.6916C145.486 55.2995 143.547 53.3604 141.155 53.3604C138.763 53.3604 136.824 55.2995 136.824 57.6916C136.824 60.0837 138.763 62.0229 141.155 62.0229Z" fill="#9419FF"/>
<path d="M141.155 62.0229C143.547 62.0229 145.486 60.0837 145.486 57.6916C145.486 55.2995 143.547 53.3604 141.155 53.3604C138.763 53.3604 136.824 55.2995 136.824 57.6916C136.824 60.0837 138.763 62.0229 141.155 62.0229Z" fill="black" fill-opacity="0.2"/>
<path d="M148.127 54.6154C150.256 54.6154 151.982 52.8895 151.982 50.7606C151.982 48.6316 150.256 46.9058 148.127 46.9058C145.998 46.9058 144.273 48.6316 144.273 50.7606C144.273 52.8895 145.998 54.6154 148.127 54.6154Z" fill="#9419FF"/>
<path d="M148.127 54.6154C150.256 54.6154 151.982 52.8895 151.982 50.7606C151.982 48.6316 150.256 46.9058 148.127 46.9058C145.998 46.9058 144.273 48.6316 144.273 50.7606C144.273 52.8895 145.998 54.6154 148.127 54.6154Z" fill="black" fill-opacity="0.2"/>
<path d="M155.101 47.2101C156.991 47.2101 158.522 45.6781 158.522 43.7884C158.522 41.8986 156.991 40.3667 155.101 40.3667C153.211 40.3667 151.679 41.8986 151.679 43.7884C151.679 45.6781 153.211 47.2101 155.101 47.2101Z" fill="#9419FF"/>
<path d="M155.101 47.2101C156.991 47.2101 158.522 45.6781 158.522 43.7884C158.522 41.8986 156.991 40.3667 155.101 40.3667C153.211 40.3667 151.679 41.8986 151.679 43.7884C151.679 45.6781 153.211 47.2101 155.101 47.2101Z" fill="black" fill-opacity="0.2"/>
<path d="M162.078 39.7604C163.704 39.7604 165.023 38.4418 165.023 36.8151C165.023 35.1885 163.704 33.8699 162.078 33.8699C160.451 33.8699 159.132 35.1885 159.132 36.8151C159.132 38.4418 160.451 39.7604 162.078 39.7604Z" fill="#9419FF"/>
<path d="M162.078 39.7604C163.704 39.7604 165.023 38.4418 165.023 36.8151C165.023 35.1885 163.704 33.8699 162.078 33.8699C160.451 33.8699 159.132 35.1885 159.132 36.8151C159.132 38.4418 160.451 39.7604 162.078 39.7604Z" fill="black" fill-opacity="0.2"/>
<path d="M123.961 61.633C126.616 61.633 128.768 59.4805 128.768 56.8253C128.768 54.1701 126.616 52.0176 123.961 52.0176C121.305 52.0176 119.153 54.1701 119.153 56.8253C119.153 59.4805 121.305 61.633 123.961 61.633Z" fill="#9419FF"/>
<path d="M123.961 61.633C126.616 61.633 128.768 59.4805 128.768 56.8253C128.768 54.1701 126.616 52.0176 123.961 52.0176C121.305 52.0176 119.153 54.1701 119.153 56.8253C119.153 59.4805 121.305 61.633 123.961 61.633Z" fill="black" fill-opacity="0.2"/>
<path d="M128.898 52.6245C131.291 52.6245 133.23 50.6853 133.23 48.2932C133.23 45.9011 131.291 43.9619 128.898 43.9619C126.506 43.9619 124.567 45.9011 124.567 48.2932C124.567 50.6853 126.506 52.6245 128.898 52.6245Z" fill="#9419FF"/>
<path d="M128.898 52.6245C131.291 52.6245 133.23 50.6853 133.23 48.2932C133.23 45.9011 131.291 43.9619 128.898 43.9619C126.506 43.9619 124.567 45.9011 124.567 48.2932C124.567 50.6853 126.506 52.6245 128.898 52.6245Z" fill="black" fill-opacity="0.2"/>
<path d="M133.793 43.614C135.922 43.614 137.648 41.8881 137.648 39.7591C137.648 37.6302 135.922 35.9043 133.793 35.9043C131.664 35.9043 129.938 37.6302 129.938 39.7591C129.938 41.8881 131.664 43.614 133.793 43.614Z" fill="#9419FF"/>
<path d="M133.793 43.614C135.922 43.614 137.648 41.8881 137.648 39.7591C137.648 37.6302 135.922 35.9043 133.793 35.9043C131.664 35.9043 129.938 37.6302 129.938 39.7591C129.938 41.8881 131.664 43.614 133.793 43.614Z" fill="black" fill-opacity="0.2"/>
<path d="M138.733 34.6498C140.622 34.6498 142.154 33.1178 142.154 31.2281C142.154 29.3383 140.622 27.8064 138.733 27.8064C136.843 27.8064 135.311 29.3383 135.311 31.2281C135.311 33.1178 136.843 34.6498 138.733 34.6498Z" fill="#9419FF"/>
<path d="M138.733 34.6498C140.622 34.6498 142.154 33.1178 142.154 31.2281C142.154 29.3383 140.622 27.8064 138.733 27.8064C136.843 27.8064 135.311 29.3383 135.311 31.2281C135.311 33.1178 136.843 34.6498 138.733 34.6498Z" fill="black" fill-opacity="0.2"/>
<path d="M143.67 25.6393C145.297 25.6393 146.615 24.3207 146.615 22.694C146.615 21.0674 145.297 19.7488 143.67 19.7488C142.044 19.7488 140.725 21.0674 140.725 22.694C140.725 24.3207 142.044 25.6393 143.67 25.6393Z" fill="#9419FF"/>
<path d="M143.67 25.6393C145.297 25.6393 146.615 24.3207 146.615 22.694C146.615 21.0674 145.297 19.7488 143.67 19.7488C142.044 19.7488 140.725 21.0674 140.725 22.694C140.725 24.3207 142.044 25.6393 143.67 25.6393Z" fill="black" fill-opacity="0.2"/>
<path d="M112.049 56.6945C114.704 56.6945 116.856 54.542 116.856 51.8868C116.856 49.2316 114.704 47.0791 112.049 47.0791C109.394 47.0791 107.241 49.2316 107.241 51.8868C107.241 54.542 109.394 56.6945 112.049 56.6945Z" fill="#9419FF"/>
<path d="M112.049 56.6945C114.704 56.6945 116.856 54.542 116.856 51.8868C116.856 49.2316 114.704 47.0791 112.049 47.0791C109.394 47.0791 107.241 49.2316 107.241 51.8868C107.241 54.542 109.394 56.6945 112.049 56.6945Z" fill="black" fill-opacity="0.2"/>
<path d="M114.605 46.6901C116.997 46.6901 118.936 44.7509 118.936 42.3589C118.936 39.9668 116.997 38.0276 114.605 38.0276C112.213 38.0276 110.274 39.9668 110.274 42.3589C110.274 44.7509 112.213 46.6901 114.605 46.6901Z" fill="#9419FF"/>
<path d="M114.605 46.6901C116.997 46.6901 118.936 44.7509 118.936 42.3589C118.936 39.9668 116.997 38.0276 114.605 38.0276C112.213 38.0276 110.274 39.9668 110.274 42.3589C110.274 44.7509 112.213 46.6901 114.605 46.6901Z" fill="black" fill-opacity="0.2"/>
<path d="M117.162 36.728C119.291 36.728 121.017 35.0021 121.017 32.8731C121.017 30.7442 119.291 29.0183 117.162 29.0183C115.033 29.0183 113.307 30.7442 113.307 32.8731C113.307 35.0021 115.033 36.728 117.162 36.728Z" fill="#9419FF"/>
<path d="M117.162 36.728C119.291 36.728 121.017 35.0021 121.017 32.8731C121.017 30.7442 119.291 29.0183 117.162 29.0183C115.033 29.0183 113.307 30.7442 113.307 32.8731C113.307 35.0021 115.033 36.728 117.162 36.728Z" fill="black" fill-opacity="0.2"/>
<path d="M119.673 26.7655C121.563 26.7655 123.095 25.2336 123.095 23.3438C123.095 21.4541 121.563 19.9221 119.673 19.9221C117.783 19.9221 116.251 21.4541 116.251 23.3438C116.251 25.2336 117.783 26.7655 119.673 26.7655Z" fill="#9419FF"/>
<path d="M119.673 26.7655C121.563 26.7655 123.095 25.2336 123.095 23.3438C123.095 21.4541 121.563 19.9221 119.673 19.9221C117.783 19.9221 116.251 21.4541 116.251 23.3438C116.251 25.2336 117.783 26.7655 119.673 26.7655Z" fill="black" fill-opacity="0.2"/>
<path d="M122.229 16.7609C123.856 16.7609 125.174 15.4422 125.174 13.8156C125.174 12.189 123.856 10.8704 122.229 10.8704C120.602 10.8704 119.284 12.189 119.284 13.8156C119.284 15.4422 120.602 16.7609 122.229 16.7609Z" fill="#9419FF"/>
<path d="M122.229 16.7609C123.856 16.7609 125.174 15.4422 125.174 13.8156C125.174 12.189 123.856 10.8704 122.229 10.8704C120.602 10.8704 119.284 12.189 119.284 13.8156C119.284 15.4422 120.602 16.7609 122.229 16.7609Z" fill="black" fill-opacity="0.2"/>
<path d="M99.2286 55.007C101.884 55.007 104.036 52.8545 104.036 50.1993C104.036 47.5441 101.884 45.3916 99.2286 45.3916C96.5734 45.3916 94.421 47.5441 94.421 50.1993C94.421 52.8545 96.5734 55.007 99.2286 55.007Z" fill="#9419FF"/>
<path d="M99.2286 55.007C101.884 55.007 104.036 52.8545 104.036 50.1993C104.036 47.5441 101.884 45.3916 99.2286 45.3916C96.5734 45.3916 94.421 47.5441 94.421 50.1993C94.421 52.8545 96.5734 55.007 99.2286 55.007Z" fill="black" fill-opacity="0.2"/>
<path d="M99.2303 44.6979C101.622 44.6979 103.562 42.7588 103.562 40.3667C103.562 37.9746 101.622 36.0354 99.2303 36.0354C96.8382 36.0354 94.899 37.9746 94.899 40.3667C94.899 42.7588 96.8382 44.6979 99.2303 44.6979Z" fill="#9419FF"/>
<path d="M99.2303 44.6979C101.622 44.6979 103.562 42.7588 103.562 40.3667C103.562 37.9746 101.622 36.0354 99.2303 36.0354C96.8382 36.0354 94.899 37.9746 94.899 40.3667C94.899 42.7588 96.8382 44.6979 99.2303 44.6979Z" fill="black" fill-opacity="0.2"/>
<path d="M99.2279 34.3466C101.357 34.3466 103.083 32.6208 103.083 30.4918C103.083 28.3628 101.357 26.637 99.2279 26.637C97.099 26.637 95.373 28.3628 95.373 30.4918C95.373 32.6208 97.099 34.3466 99.2279 34.3466Z" fill="#9419FF"/>
<path d="M99.2279 34.3466C101.357 34.3466 103.083 32.6208 103.083 30.4918C103.083 28.3628 101.357 26.637 99.2279 26.637C97.099 26.637 95.373 28.3628 95.373 30.4918C95.373 32.6208 97.099 34.3466 99.2279 34.3466Z" fill="black" fill-opacity="0.2"/>
<path d="M99.2299 24.0819C101.12 24.0819 102.651 22.55 102.651 20.6602C102.651 18.7705 101.12 17.2385 99.2299 17.2385C97.3401 17.2385 95.808 18.7705 95.808 20.6602C95.808 22.55 97.3401 24.0819 99.2299 24.0819Z" fill="#9419FF"/>
<path d="M99.2299 24.0819C101.12 24.0819 102.651 22.55 102.651 20.6602C102.651 18.7705 101.12 17.2385 99.2299 17.2385C97.3401 17.2385 95.808 18.7705 95.808 20.6602C95.808 22.55 97.3401 24.0819 99.2299 24.0819Z" fill="black" fill-opacity="0.2"/>
<path d="M99.2275 13.7284C100.854 13.7284 102.173 12.4098 102.173 10.7832C102.173 9.15653 100.854 7.83789 99.2275 7.83789C97.6009 7.83789 96.282 9.15653 96.282 10.7832C96.282 12.4098 97.6009 13.7284 99.2275 13.7284Z" fill="#9419FF"/>
<path d="M99.2275 13.7284C100.854 13.7284 102.173 12.4098 102.173 10.7832C102.173 9.15653 100.854 7.83789 99.2275 7.83789C97.6009 7.83789 96.282 9.15653 96.282 10.7832C96.282 12.4098 97.6009 13.7284 99.2275 13.7284Z" fill="black" fill-opacity="0.2"/>
<path d="M86.4507 56.6945C89.1059 56.6945 91.2584 54.542 91.2584 51.8868C91.2584 49.2316 89.1059 47.0791 86.4507 47.0791C83.7955 47.0791 81.6431 49.2316 81.6431 51.8868C81.6431 54.542 83.7955 56.6945 86.4507 56.6945Z" fill="#9419FF"/>
<path d="M86.4507 56.6945C89.1059 56.6945 91.2584 54.542 91.2584 51.8868C91.2584 49.2316 89.1059 47.0791 86.4507 47.0791C83.7955 47.0791 81.6431 49.2316 81.6431 51.8868C81.6431 54.542 83.7955 56.6945 86.4507 56.6945Z" fill="black" fill-opacity="0.2"/>
<path d="M83.897 46.6901C86.2891 46.6901 88.2283 44.7509 88.2283 42.3589C88.2283 39.9668 86.2891 38.0276 83.897 38.0276C81.5049 38.0276 79.5657 39.9668 79.5657 42.3589C79.5657 44.7509 81.5049 46.6901 83.897 46.6901Z" fill="#9419FF"/>
<path d="M83.897 46.6901C86.2891 46.6901 88.2283 44.7509 88.2283 42.3589C88.2283 39.9668 86.2891 38.0276 83.897 38.0276C81.5049 38.0276 79.5657 39.9668 79.5657 42.3589C79.5657 44.7509 81.5049 46.6901 83.897 46.6901Z" fill="black" fill-opacity="0.2"/>
<path d="M81.3401 36.728C83.469 36.728 85.195 35.0021 85.195 32.8731C85.195 30.7442 83.469 29.0183 81.3401 29.0183C79.2111 29.0183 77.4852 30.7442 77.4852 32.8731C77.4852 35.0021 79.2111 36.728 81.3401 36.728Z" fill="#9419FF"/>
<path d="M81.3401 36.728C83.469 36.728 85.195 35.0021 85.195 32.8731C85.195 30.7442 83.469 29.0183 81.3401 29.0183C79.2111 29.0183 77.4852 30.7442 77.4852 32.8731C77.4852 35.0021 79.2111 36.728 81.3401 36.728Z" fill="black" fill-opacity="0.2"/>
<path d="M78.8299 26.7655C80.7197 26.7655 82.2518 25.2336 82.2518 23.3438C82.2518 21.4541 80.7197 19.9221 78.8299 19.9221C76.9402 19.9221 75.4086 21.4541 75.4086 23.3438C75.4086 25.2336 76.9402 26.7655 78.8299 26.7655Z" fill="#9419FF"/>
<path d="M78.8299 26.7655C80.7197 26.7655 82.2518 25.2336 82.2518 23.3438C82.2518 21.4541 80.7197 19.9221 78.8299 19.9221C76.9402 19.9221 75.4086 21.4541 75.4086 23.3438C75.4086 25.2336 76.9402 26.7655 78.8299 26.7655Z" fill="black" fill-opacity="0.2"/>
<path d="M76.2722 16.7609C77.8988 16.7609 79.2177 15.4422 79.2177 13.8156C79.2177 12.189 77.8988 10.8704 76.2722 10.8704C74.6456 10.8704 73.3272 12.189 73.3272 13.8156C73.3272 15.4422 74.6456 16.7609 76.2722 16.7609Z" fill="#9419FF"/>
<path d="M76.2722 16.7609C77.8988 16.7609 79.2177 15.4422 79.2177 13.8156C79.2177 12.189 77.8988 10.8704 76.2722 10.8704C74.6456 10.8704 73.3272 12.189 73.3272 13.8156C73.3272 15.4422 74.6456 16.7609 76.2722 16.7609Z" fill="black" fill-opacity="0.2"/>
<path d="M74.5396 61.633C77.1948 61.633 79.3472 59.4805 79.3472 56.8253C79.3472 54.1701 77.1948 52.0176 74.5396 52.0176C71.8844 52.0176 69.7319 54.1701 69.7319 56.8253C69.7319 59.4805 71.8844 61.633 74.5396 61.633Z" fill="#9419FF"/>
<path d="M74.5396 61.633C77.1948 61.633 79.3472 59.4805 79.3472 56.8253C79.3472 54.1701 77.1948 52.0176 74.5396 52.0176C71.8844 52.0176 69.7319 54.1701 69.7319 56.8253C69.7319 59.4805 71.8844 61.633 74.5396 61.633Z" fill="black" fill-opacity="0.2"/>
<path d="M69.6004 52.6245C71.9925 52.6245 73.9317 50.6853 73.9317 48.2932C73.9317 45.9011 71.9925 43.9619 69.6004 43.9619C67.2083 43.9619 65.2692 45.9011 65.2692 48.2932C65.2692 50.6853 67.2083 52.6245 69.6004 52.6245Z" fill="#9419FF"/>
<path d="M69.6004 52.6245C71.9925 52.6245 73.9317 50.6853 73.9317 48.2932C73.9317 45.9011 71.9925 43.9619 69.6004 43.9619C67.2083 43.9619 65.2692 45.9011 65.2692 48.2932C65.2692 50.6853 67.2083 52.6245 69.6004 52.6245Z" fill="black" fill-opacity="0.2"/>
<path d="M64.7091 43.614C66.8381 43.614 68.5635 41.8881 68.5635 39.7591C68.5635 37.6302 66.8381 35.9043 64.7091 35.9043C62.5802 35.9043 60.8542 37.6302 60.8542 39.7591C60.8542 41.8881 62.5802 43.614 64.7091 43.614Z" fill="#9419FF"/>
<path d="M64.7091 43.614C66.8381 43.614 68.5635 41.8881 68.5635 39.7591C68.5635 37.6302 66.8381 35.9043 64.7091 35.9043C62.5802 35.9043 60.8542 37.6302 60.8542 39.7591C60.8542 41.8881 62.5802 43.614 64.7091 43.614Z" fill="black" fill-opacity="0.2"/>
<path d="M59.771 34.6498C61.6607 34.6498 63.1923 33.1178 63.1923 31.2281C63.1923 29.3383 61.6607 27.8064 59.771 27.8064C57.8812 27.8064 56.3491 29.3383 56.3491 31.2281C56.3491 33.1178 57.8812 34.6498 59.771 34.6498Z" fill="#9419FF"/>
<path d="M59.771 34.6498C61.6607 34.6498 63.1923 33.1178 63.1923 31.2281C63.1923 29.3383 61.6607 27.8064 59.771 27.8064C57.8812 27.8064 56.3491 29.3383 56.3491 31.2281C56.3491 33.1178 57.8812 34.6498 59.771 34.6498Z" fill="black" fill-opacity="0.2"/>
<path d="M54.8326 25.6393C56.4593 25.6393 57.7776 24.3207 57.7776 22.694C57.7776 21.0674 56.4593 19.7488 54.8326 19.7488C53.206 19.7488 51.8871 21.0674 51.8871 22.694C51.8871 24.3207 53.206 25.6393 54.8326 25.6393Z" fill="#9419FF"/>
<path d="M54.8326 25.6393C56.4593 25.6393 57.7776 24.3207 57.7776 22.694C57.7776 21.0674 56.4593 19.7488 54.8326 19.7488C53.206 19.7488 51.8871 21.0674 51.8871 22.694C51.8871 24.3207 53.206 25.6393 54.8326 25.6393Z" fill="black" fill-opacity="0.2"/>
<path d="M64.3211 69.4728C66.9764 69.4728 69.1288 67.3204 69.1288 64.6651C69.1288 62.0099 66.9764 59.8574 64.3211 59.8574C61.6659 59.8574 59.5135 62.0099 59.5135 64.6651C59.5135 67.3204 61.6659 69.4728 64.3211 69.4728Z" fill="#9419FF"/>
<path d="M64.3211 69.4728C66.9764 69.4728 69.1288 67.3204 69.1288 64.6651C69.1288 62.0099 66.9764 59.8574 64.3211 59.8574C61.6659 59.8574 59.5135 62.0099 59.5135 64.6651C59.5135 67.3204 61.6659 69.4728 64.3211 69.4728Z" fill="black" fill-opacity="0.2"/>
<path d="M57.3469 62.0229C59.739 62.0229 61.6782 60.0837 61.6782 57.6916C61.6782 55.2995 59.739 53.3604 57.3469 53.3604C54.9548 53.3604 53.0156 55.2995 53.0156 57.6916C53.0156 60.0837 54.9548 62.0229 57.3469 62.0229Z" fill="#9419FF"/>
<path d="M57.3469 62.0229C59.739 62.0229 61.6782 60.0837 61.6782 57.6916C61.6782 55.2995 59.739 53.3604 57.3469 53.3604C54.9548 53.3604 53.0156 55.2995 53.0156 57.6916C53.0156 60.0837 54.9548 62.0229 57.3469 62.0229Z" fill="black" fill-opacity="0.2"/>
<path d="M50.3742 54.6154C52.5032 54.6154 54.2291 52.8895 54.2291 50.7606C54.2291 48.6316 52.5032 46.9058 50.3742 46.9058C48.2453 46.9058 46.5193 48.6316 46.5193 50.7606C46.5193 52.8895 48.2453 54.6154 50.3742 54.6154Z" fill="#9419FF"/>
<path d="M50.3742 54.6154C52.5032 54.6154 54.2291 52.8895 54.2291 50.7606C54.2291 48.6316 52.5032 46.9058 50.3742 46.9058C48.2453 46.9058 46.5193 48.6316 46.5193 50.7606C46.5193 52.8895 48.2453 54.6154 50.3742 54.6154Z" fill="black" fill-opacity="0.2"/>
<path d="M43.3979 47.2101C45.2876 47.2101 46.8198 45.6781 46.8198 43.7884C46.8198 41.8986 45.2876 40.3667 43.3979 40.3667C41.5081 40.3667 39.976 41.8986 39.976 43.7884C39.976 45.6781 41.5081 47.2101 43.3979 47.2101Z" fill="#9419FF"/>
<path d="M43.3979 47.2101C45.2876 47.2101 46.8198 45.6781 46.8198 43.7884C46.8198 41.8986 45.2876 40.3667 43.3979 40.3667C41.5081 40.3667 39.976 41.8986 39.976 43.7884C39.976 45.6781 41.5081 47.2101 43.3979 47.2101Z" fill="black" fill-opacity="0.2"/>
<path d="M36.4244 39.7604C38.0511 39.7604 39.3694 38.4418 39.3694 36.8151C39.3694 35.1885 38.0511 33.8699 36.4244 33.8699C34.7978 33.8699 33.4789 35.1885 33.4789 36.8151C33.4789 38.4418 34.7978 39.7604 36.4244 39.7604Z" fill="#9419FF"/>
<path d="M36.4244 39.7604C38.0511 39.7604 39.3694 38.4418 39.3694 36.8151C39.3694 35.1885 38.0511 33.8699 36.4244 33.8699C34.7978 33.8699 33.4789 35.1885 33.4789 36.8151C33.4789 38.4418 34.7978 39.7604 36.4244 39.7604Z" fill="black" fill-opacity="0.2"/>
<path d="M56.4785 79.7385C59.1338 79.7385 61.2862 77.586 61.2862 74.9308C61.2862 72.2755 59.1338 70.123 56.4785 70.123C53.8233 70.123 51.6709 72.2755 51.6709 74.9308C51.6709 77.586 53.8233 79.7385 56.4785 79.7385Z" fill="#9419FF"/>
<path d="M56.4785 79.7385C59.1338 79.7385 61.2862 77.586 61.2862 74.9308C61.2862 72.2755 59.1338 70.123 56.4785 70.123C53.8233 70.123 51.6709 72.2755 51.6709 74.9308C51.6709 77.586 53.8233 79.7385 56.4785 79.7385Z" fill="black" fill-opacity="0.2"/>
<path d="M47.9449 74.3232C50.3369 74.3232 52.2761 72.384 52.2761 69.9919C52.2761 67.5998 50.3369 65.6606 47.9449 65.6606C45.5528 65.6606 43.6136 67.5998 43.6136 69.9919C43.6136 72.384 45.5528 74.3232 47.9449 74.3232Z" fill="#9419FF"/>
<path d="M47.9449 74.3232C50.3369 74.3232 52.2761 72.384 52.2761 69.9919C52.2761 67.5998 50.3369 65.6606 47.9449 65.6606C45.5528 65.6606 43.6136 67.5998 43.6136 69.9919C43.6136 72.384 45.5528 74.3232 47.9449 74.3232Z" fill="black" fill-opacity="0.2"/>
<path d="M39.4152 68.9101C41.5442 68.9101 43.2701 67.1842 43.2701 65.0553C43.2701 62.9263 41.5442 61.2004 39.4152 61.2004C37.2862 61.2004 35.5603 62.9263 35.5603 65.0553C35.5603 67.1842 37.2862 68.9101 39.4152 68.9101Z" fill="#9419FF"/>
<path d="M39.4152 68.9101C41.5442 68.9101 43.2701 67.1842 43.2701 65.0553C43.2701 62.9263 41.5442 61.2004 39.4152 61.2004C37.2862 61.2004 35.5603 62.9263 35.5603 65.0553C35.5603 67.1842 37.2862 68.9101 39.4152 68.9101Z" fill="black" fill-opacity="0.2"/>
<path d="M30.8395 63.5392C32.7292 63.5392 34.2613 62.0073 34.2613 60.1175C34.2613 58.2277 32.7292 56.6958 30.8395 56.6958C28.9497 56.6958 27.4176 58.2277 27.4176 60.1175C27.4176 62.0073 28.9497 63.5392 30.8395 63.5392Z" fill="#9419FF"/>
<path d="M30.8395 63.5392C32.7292 63.5392 34.2613 62.0073 34.2613 60.1175C34.2613 58.2277 32.7292 56.6958 30.8395 56.6958C28.9497 56.6958 27.4176 58.2277 27.4176 60.1175C27.4176 62.0073 28.9497 63.5392 30.8395 63.5392Z" fill="black" fill-opacity="0.2"/>
<path d="M22.305 58.1681C23.9316 58.1681 25.25 56.8495 25.25 55.2229C25.25 53.5962 23.9316 52.2776 22.305 52.2776C20.6784 52.2776 19.3595 53.5962 19.3595 55.2229C19.3595 56.8495 20.6784 58.1681 22.305 58.1681Z" fill="#9419FF"/>
<path d="M22.305 58.1681C23.9316 58.1681 25.25 56.8495 25.25 55.2229C25.25 53.5962 23.9316 52.2776 22.305 52.2776C20.6784 52.2776 19.3595 53.5962 19.3595 55.2229C19.3595 56.8495 20.6784 58.1681 22.305 58.1681Z" fill="black" fill-opacity="0.2"/>
<path d="M51.5424 91.6493C54.1977 91.6493 56.3501 89.4969 56.3501 86.8416C56.3501 84.1864 54.1977 82.0339 51.5424 82.0339C48.8872 82.0339 46.7348 84.1864 46.7348 86.8416C46.7348 89.4969 48.8872 91.6493 51.5424 91.6493Z" fill="#9419FF"/>
<path d="M51.5424 91.6493C54.1977 91.6493 56.3501 89.4969 56.3501 86.8416C56.3501 84.1864 54.1977 82.0339 51.5424 82.0339C48.8872 82.0339 46.7348 84.1864 46.7348 86.8416C46.7348 89.4969 48.8872 91.6493 51.5424 91.6493Z" fill="black" fill-opacity="0.2"/>
<path d="M42.0144 88.6176C44.4065 88.6176 46.3457 86.6784 46.3457 84.2863C46.3457 81.8943 44.4065 79.9551 42.0144 79.9551C39.6223 79.9551 37.6832 81.8943 37.6832 84.2863C37.6832 86.6784 39.6223 88.6176 42.0144 88.6176Z" fill="#9419FF"/>
<path d="M42.0144 88.6176C44.4065 88.6176 46.3457 86.6784 46.3457 84.2863C46.3457 81.8943 44.4065 79.9551 42.0144 79.9551C39.6223 79.9551 37.6832 81.8943 37.6832 84.2863C37.6832 86.6784 39.6223 88.6176 42.0144 88.6176Z" fill="black" fill-opacity="0.2"/>
<path d="M32.4864 85.5859C34.6153 85.5859 36.3413 83.86 36.3413 81.731C36.3413 79.6021 34.6153 77.8762 32.4864 77.8762C30.3574 77.8762 28.6315 79.6021 28.6315 81.731C28.6315 83.86 30.3574 85.5859 32.4864 85.5859Z" fill="#9419FF"/>
<path d="M32.4864 85.5859C34.6153 85.5859 36.3413 83.86 36.3413 81.731C36.3413 79.6021 34.6153 77.8762 32.4864 77.8762C30.3574 77.8762 28.6315 79.6021 28.6315 81.731C28.6315 83.86 30.3574 85.5859 32.4864 85.5859Z" fill="black" fill-opacity="0.2"/>
<path d="M22.9554 82.5961C24.8451 82.5961 26.3767 81.0641 26.3767 79.1744C26.3767 77.2846 24.8451 75.7527 22.9554 75.7527C21.0656 75.7527 19.5335 77.2846 19.5335 79.1744C19.5335 81.0641 21.0656 82.5961 22.9554 82.5961Z" fill="#9419FF"/>
<path d="M22.9554 82.5961C24.8451 82.5961 26.3767 81.0641 26.3767 79.1744C26.3767 77.2846 24.8451 75.7527 22.9554 75.7527C21.0656 75.7527 19.5335 77.2846 19.5335 79.1744C19.5335 81.0641 21.0656 82.5961 22.9554 82.5961Z" fill="black" fill-opacity="0.2"/>
<path d="M13.4691 79.5644C15.0957 79.5644 16.4146 78.2457 16.4146 76.6191C16.4146 74.9925 15.0957 73.6738 13.4691 73.6738C11.8425 73.6738 10.5241 74.9925 10.5241 76.6191C10.5241 78.2457 11.8425 79.5644 13.4691 79.5644Z" fill="#9419FF"/>
<path d="M13.4691 79.5644C15.0957 79.5644 16.4146 78.2457 16.4146 76.6191C16.4146 74.9925 15.0957 73.6738 13.4691 73.6738C11.8425 73.6738 10.5241 74.9925 10.5241 76.6191C10.5241 78.2457 11.8425 79.5644 13.4691 79.5644Z" fill="black" fill-opacity="0.2"/>
<path d="M49.8506 104.425C52.5058 104.425 54.6582 102.273 54.6582 99.6178C54.6582 96.9625 52.5058 94.8101 49.8506 94.8101C47.1953 94.8101 45.0429 96.9625 45.0429 99.6178C45.0429 102.273 47.1953 104.425 49.8506 104.425Z" fill="#9419FF"/>
<path d="M49.8506 104.425C52.5058 104.425 54.6582 102.273 54.6582 99.6178C54.6582 96.9625 52.5058 94.8101 49.8506 94.8101C47.1953 94.8101 45.0429 96.9625 45.0429 99.6178C45.0429 102.273 47.1953 104.425 49.8506 104.425Z" fill="black" fill-opacity="0.2"/>
<path d="M39.9762 103.95C42.3683 103.95 44.3074 102.011 44.3074 99.6191C44.3074 97.227 42.3683 95.2878 39.9762 95.2878C37.5841 95.2878 35.6449 97.227 35.6449 99.6191C35.6449 102.011 37.5841 103.95 39.9762 103.95Z" fill="#9419FF"/>
<path d="M39.9762 103.95C42.3683 103.95 44.3074 102.011 44.3074 99.6191C44.3074 97.227 42.3683 95.2878 39.9762 95.2878C37.5841 95.2878 35.6449 97.227 35.6449 99.6191C35.6449 102.011 37.5841 103.95 39.9762 103.95Z" fill="black" fill-opacity="0.2"/>
<path d="M30.1432 103.473C32.2722 103.473 33.9981 101.747 33.9981 99.6185C33.9981 97.4895 32.2722 95.7637 30.1432 95.7637C28.0143 95.7637 26.2883 97.4895 26.2883 99.6185C26.2883 101.747 28.0143 103.473 30.1432 103.473Z" fill="#9419FF"/>
<path d="M30.1432 103.473C32.2722 103.473 33.9981 101.747 33.9981 99.6185C33.9981 97.4895 32.2722 95.7637 30.1432 95.7637C28.0143 95.7637 26.2883 97.4895 26.2883 99.6185C26.2883 101.747 28.0143 103.473 30.1432 103.473Z" fill="black" fill-opacity="0.2"/>
<path d="M20.269 103.041C22.1588 103.041 23.6904 101.509 23.6904 99.619C23.6904 97.7292 22.1588 96.1973 20.269 96.1973C18.3793 96.1973 16.8472 97.7292 16.8472 99.619C16.8472 101.509 18.3793 103.041 20.269 103.041Z" fill="#9419FF"/>
<path d="M20.269 103.041C22.1588 103.041 23.6904 101.509 23.6904 99.619C23.6904 97.7292 22.1588 96.1973 20.269 96.1973C18.3793 96.1973 16.8472 97.7292 16.8472 99.619C16.8472 101.509 18.3793 103.041 20.269 103.041Z" fill="black" fill-opacity="0.2"/>
<path d="M10.4369 102.564C12.0636 102.564 13.3819 101.245 13.3819 99.6184C13.3819 97.9917 12.0636 96.6731 10.4369 96.6731C8.81033 96.6731 7.49146 97.9917 7.49146 99.6184C7.49146 101.245 8.81033 102.564 10.4369 102.564Z" fill="#9419FF"/>
<path d="M10.4369 102.564C12.0636 102.564 13.3819 101.245 13.3819 99.6184C13.3819 97.9917 12.0636 96.6731 10.4369 96.6731C8.81033 96.6731 7.49146 97.9917 7.49146 99.6184C7.49146 101.245 8.81033 102.564 10.4369 102.564Z" fill="black" fill-opacity="0.2"/>
<path d="M51.5424 117.204C54.1977 117.204 56.3501 115.051 56.3501 112.396C56.3501 109.741 54.1977 107.588 51.5424 107.588C48.8872 107.588 46.7348 109.741 46.7348 112.396C46.7348 115.051 48.8872 117.204 51.5424 117.204Z" fill="#9419FF"/>
<path d="M51.5424 117.204C54.1977 117.204 56.3501 115.051 56.3501 112.396C56.3501 109.741 54.1977 107.588 51.5424 107.588C48.8872 107.588 46.7348 109.741 46.7348 112.396C46.7348 115.051 48.8872 117.204 51.5424 117.204Z" fill="black" fill-opacity="0.2"/>
<path d="M42.0144 119.281C44.4065 119.281 46.3457 117.342 46.3457 114.95C46.3457 112.558 44.4065 110.619 42.0144 110.619C39.6223 110.619 37.6832 112.558 37.6832 114.95C37.6832 117.342 39.6223 119.281 42.0144 119.281Z" fill="#9419FF"/>
<path d="M42.0144 119.281C44.4065 119.281 46.3457 117.342 46.3457 114.95C46.3457 112.558 44.4065 110.619 42.0144 110.619C39.6223 110.619 37.6832 112.558 37.6832 114.95C37.6832 117.342 39.6223 119.281 42.0144 119.281Z" fill="black" fill-opacity="0.2"/>
<path d="M32.4864 121.361C34.6153 121.361 36.3413 119.635 36.3413 117.506C36.3413 115.377 34.6153 113.651 32.4864 113.651C30.3574 113.651 28.6315 115.377 28.6315 117.506C28.6315 119.635 30.3574 121.361 32.4864 121.361Z" fill="#9419FF"/>
<path d="M32.4864 121.361C34.6153 121.361 36.3413 119.635 36.3413 117.506C36.3413 115.377 34.6153 113.651 32.4864 113.651C30.3574 113.651 28.6315 115.377 28.6315 117.506C28.6315 119.635 30.3574 121.361 32.4864 121.361Z" fill="black" fill-opacity="0.2"/>
<path d="M22.9554 123.483C24.8451 123.483 26.3767 121.951 26.3767 120.061C26.3767 118.172 24.8451 116.64 22.9554 116.64C21.0656 116.64 19.5335 118.172 19.5335 120.061C19.5335 121.951 21.0656 123.483 22.9554 123.483Z" fill="#9419FF"/>
<path d="M22.9554 123.483C24.8451 123.483 26.3767 121.951 26.3767 120.061C26.3767 118.172 24.8451 116.64 22.9554 116.64C21.0656 116.64 19.5335 118.172 19.5335 120.061C19.5335 121.951 21.0656 123.483 22.9554 123.483Z" fill="black" fill-opacity="0.2"/>
<path d="M13.4691 125.563C15.0957 125.563 16.4146 124.244 16.4146 122.618C16.4146 120.991 15.0957 119.672 13.4691 119.672C11.8425 119.672 10.5241 120.991 10.5241 122.618C10.5241 124.244 11.8425 125.563 13.4691 125.563Z" fill="#9419FF"/>
<path d="M13.4691 125.563C15.0957 125.563 16.4146 124.244 16.4146 122.618C16.4146 120.991 15.0957 119.672 13.4691 119.672C11.8425 119.672 10.5241 120.991 10.5241 122.618C10.5241 124.244 11.8425 125.563 13.4691 125.563Z" fill="black" fill-opacity="0.2"/>
<path d="M56.4785 129.114C59.1338 129.114 61.2862 126.962 61.2862 124.307C61.2862 121.652 59.1338 119.499 56.4785 119.499C53.8233 119.499 51.6709 121.652 51.6709 124.307C51.6709 126.962 53.8233 129.114 56.4785 129.114Z" fill="#9419FF"/>
<path d="M56.4785 129.114C59.1338 129.114 61.2862 126.962 61.2862 124.307C61.2862 121.652 59.1338 119.499 56.4785 119.499C53.8233 119.499 51.6709 121.652 51.6709 124.307C51.6709 126.962 53.8233 129.114 56.4785 129.114Z" fill="black" fill-opacity="0.2"/>
<path d="M47.9449 133.576C50.3369 133.576 52.2761 131.636 52.2761 129.244C52.2761 126.852 50.3369 124.913 47.9449 124.913C45.5528 124.913 43.6136 126.852 43.6136 129.244C43.6136 131.636 45.5528 133.576 47.9449 133.576Z" fill="#9419FF"/>
<path d="M47.9449 133.576C50.3369 133.576 52.2761 131.636 52.2761 129.244C52.2761 126.852 50.3369 124.913 47.9449 124.913C45.5528 124.913 43.6136 126.852 43.6136 129.244C43.6136 131.636 45.5528 133.576 47.9449 133.576Z" fill="black" fill-opacity="0.2"/>
<path d="M39.4152 138.037C41.5442 138.037 43.2701 136.311 43.2701 134.182C43.2701 132.053 41.5442 130.327 39.4152 130.327C37.2862 130.327 35.5603 132.053 35.5603 134.182C35.5603 136.311 37.2862 138.037 39.4152 138.037Z" fill="#9419FF"/>
<path d="M39.4152 138.037C41.5442 138.037 43.2701 136.311 43.2701 134.182C43.2701 132.053 41.5442 130.327 39.4152 130.327C37.2862 130.327 35.5603 132.053 35.5603 134.182C35.5603 136.311 37.2862 138.037 39.4152 138.037Z" fill="black" fill-opacity="0.2"/>
<path d="M30.8395 142.54C32.7292 142.54 34.2613 141.008 34.2613 139.118C34.2613 137.229 32.7292 135.697 30.8395 135.697C28.9497 135.697 27.4176 137.229 27.4176 139.118C27.4176 141.008 28.9497 142.54 30.8395 142.54Z" fill="#9419FF"/>
<path d="M30.8395 142.54C32.7292 142.54 34.2613 141.008 34.2613 139.118C34.2613 137.229 32.7292 135.697 30.8395 135.697C28.9497 135.697 27.4176 137.229 27.4176 139.118C27.4176 141.008 28.9497 142.54 30.8395 142.54Z" fill="black" fill-opacity="0.2"/>
<path d="M22.305 146.959C23.9316 146.959 25.25 145.64 25.25 144.014C25.25 142.387 23.9316 141.069 22.305 141.069C20.6784 141.069 19.3595 142.387 19.3595 144.014C19.3595 145.64 20.6784 146.959 22.305 146.959Z" fill="#9419FF"/>
<path d="M22.305 146.959C23.9316 146.959 25.25 145.64 25.25 144.014C25.25 142.387 23.9316 141.069 22.305 141.069C20.6784 141.069 19.3595 142.387 19.3595 144.014C19.3595 145.64 20.6784 146.959 22.305 146.959Z" fill="black" fill-opacity="0.2"/>
<path d="M64.3211 139.38C66.9764 139.38 69.1288 137.228 69.1288 134.572C69.1288 131.917 66.9764 129.765 64.3211 129.765C61.6659 129.765 59.5135 131.917 59.5135 134.572C59.5135 137.228 61.6659 139.38 64.3211 139.38Z" fill="#9419FF"/>
<path d="M64.3211 139.38C66.9764 139.38 69.1288 137.228 69.1288 134.572C69.1288 131.917 66.9764 129.765 64.3211 129.765C61.6659 129.765 59.5135 131.917 59.5135 134.572C59.5135 137.228 61.6659 139.38 64.3211 139.38Z" fill="black" fill-opacity="0.2"/>
<path d="M57.3469 145.833C59.739 145.833 61.6782 143.894 61.6782 141.502C61.6782 139.11 59.739 137.171 57.3469 137.171C54.9548 137.171 53.0156 139.11 53.0156 141.502C53.0156 143.894 54.9548 145.833 57.3469 145.833Z" fill="#9419FF"/>
<path d="M57.3469 145.833C59.739 145.833 61.6782 143.894 61.6782 141.502C61.6782 139.11 59.739 137.171 57.3469 137.171C54.9548 137.171 53.0156 139.11 53.0156 141.502C53.0156 143.894 54.9548 145.833 57.3469 145.833Z" fill="black" fill-opacity="0.2"/>
<path d="M50.3742 152.329C52.5032 152.329 54.2291 150.603 54.2291 148.474C54.2291 146.345 52.5032 144.62 50.3742 144.62C48.2453 144.62 46.5193 146.345 46.5193 148.474C46.5193 150.603 48.2453 152.329 50.3742 152.329Z" fill="#9419FF"/>
<path d="M50.3742 152.329C52.5032 152.329 54.2291 150.603 54.2291 148.474C54.2291 146.345 52.5032 144.62 50.3742 144.62C48.2453 144.62 46.5193 146.345 46.5193 148.474C46.5193 150.603 48.2453 152.329 50.3742 152.329Z" fill="black" fill-opacity="0.2"/>
<path d="M43.3979 158.869C45.2876 158.869 46.8198 157.337 46.8198 155.448C46.8198 153.558 45.2876 152.026 43.3979 152.026C41.5081 152.026 39.976 153.558 39.976 155.448C39.976 157.337 41.5081 158.869 43.3979 158.869Z" fill="#9419FF"/>
<path d="M43.3979 158.869C45.2876 158.869 46.8198 157.337 46.8198 155.448C46.8198 153.558 45.2876 152.026 43.3979 152.026C41.5081 152.026 39.976 153.558 39.976 155.448C39.976 157.337 41.5081 158.869 43.3979 158.869Z" fill="black" fill-opacity="0.2"/>
<path d="M36.4244 165.367C38.0511 165.367 39.3694 164.048 39.3694 162.422C39.3694 160.795 38.0511 159.477 36.4244 159.477C34.7978 159.477 33.4789 160.795 33.4789 162.422C33.4789 164.048 34.7978 165.367 36.4244 165.367Z" fill="#9419FF"/>
<path d="M36.4244 165.367C38.0511 165.367 39.3694 164.048 39.3694 162.422C39.3694 160.795 38.0511 159.477 36.4244 159.477C34.7978 159.477 33.4789 160.795 33.4789 162.422C33.4789 164.048 34.7978 165.367 36.4244 165.367Z" fill="black" fill-opacity="0.2"/>
<path d="M74.5396 147.218C77.1948 147.218 79.3472 145.065 79.3472 142.41C79.3472 139.755 77.1948 137.603 74.5396 137.603C71.8844 137.603 69.7319 139.755 69.7319 142.41C69.7319 145.065 71.8844 147.218 74.5396 147.218Z" fill="#9419FF"/>
<path d="M74.5396 147.218C77.1948 147.218 79.3472 145.065 79.3472 142.41C79.3472 139.755 77.1948 137.603 74.5396 137.603C71.8844 137.603 69.7319 139.755 69.7319 142.41C69.7319 145.065 71.8844 147.218 74.5396 147.218Z" fill="black" fill-opacity="0.2"/>
<path d="M69.6004 155.274C71.9925 155.274 73.9317 153.335 73.9317 150.943C73.9317 148.551 71.9925 146.612 69.6004 146.612C67.2083 146.612 65.2692 148.551 65.2692 150.943C65.2692 153.335 67.2083 155.274 69.6004 155.274Z" fill="#9419FF"/>
<path d="M69.6004 155.274C71.9925 155.274 73.9317 153.335 73.9317 150.943C73.9317 148.551 71.9925 146.612 69.6004 146.612C67.2083 146.612 65.2692 148.551 65.2692 150.943C65.2692 153.335 67.2083 155.274 69.6004 155.274Z" fill="black" fill-opacity="0.2"/>
<path d="M64.7091 163.331C66.8381 163.331 68.5635 161.605 68.5635 159.476C68.5635 157.347 66.8381 155.621 64.7091 155.621C62.5802 155.621 60.8542 157.347 60.8542 159.476C60.8542 161.605 62.5802 163.331 64.7091 163.331Z" fill="#9419FF"/>
<path d="M64.7091 163.331C66.8381 163.331 68.5635 161.605 68.5635 159.476C68.5635 157.347 66.8381 155.621 64.7091 155.621C62.5802 155.621 60.8542 157.347 60.8542 159.476C60.8542 161.605 62.5802 163.331 64.7091 163.331Z" fill="black" fill-opacity="0.2"/>
<path d="M59.771 171.432C61.6607 171.432 63.1923 169.9 63.1923 168.01C63.1923 166.12 61.6607 164.588 59.771 164.588C57.8812 164.588 56.3491 166.12 56.3491 168.01C56.3491 169.9 57.8812 171.432 59.771 171.432Z" fill="#9419FF"/>
<path d="M59.771 171.432C61.6607 171.432 63.1923 169.9 63.1923 168.01C63.1923 166.12 61.6607 164.588 59.771 164.588C57.8812 164.588 56.3491 166.12 56.3491 168.01C56.3491 169.9 57.8812 171.432 59.771 171.432Z" fill="black" fill-opacity="0.2"/>
<path d="M54.8326 179.486C56.4593 179.486 57.7776 178.167 57.7776 176.541C57.7776 174.914 56.4593 173.595 54.8326 173.595C53.206 173.595 51.8871 174.914 51.8871 176.541C51.8871 178.167 53.206 179.486 54.8326 179.486Z" fill="#9419FF"/>
<path d="M54.8326 179.486C56.4593 179.486 57.7776 178.167 57.7776 176.541C57.7776 174.914 56.4593 173.595 54.8326 173.595C53.206 173.595 51.8871 174.914 51.8871 176.541C51.8871 178.167 53.206 179.486 54.8326 179.486Z" fill="black" fill-opacity="0.2"/>
<path d="M86.4507 152.156C89.1059 152.156 91.2584 150.003 91.2584 147.348C91.2584 144.693 89.1059 142.541 86.4507 142.541C83.7955 142.541 81.6431 144.693 81.6431 147.348C81.6431 150.003 83.7955 152.156 86.4507 152.156Z" fill="#9419FF"/>
<path d="M86.4507 152.156C89.1059 152.156 91.2584 150.003 91.2584 147.348C91.2584 144.693 89.1059 142.541 86.4507 142.541C83.7955 142.541 81.6431 144.693 81.6431 147.348C81.6431 150.003 83.7955 152.156 86.4507 152.156Z" fill="black" fill-opacity="0.2"/>
<path d="M83.897 161.208C86.2891 161.208 88.2283 159.269 88.2283 156.877C88.2283 154.485 86.2891 152.546 83.897 152.546C81.5049 152.546 79.5657 154.485 79.5657 156.877C79.5657 159.269 81.5049 161.208 83.897 161.208Z" fill="#9419FF"/>
<path d="M83.897 161.208C86.2891 161.208 88.2283 159.269 88.2283 156.877C88.2283 154.485 86.2891 152.546 83.897 152.546C81.5049 152.546 79.5657 154.485 79.5657 156.877C79.5657 159.269 81.5049 161.208 83.897 161.208Z" fill="black" fill-opacity="0.2"/>
<path d="M81.3401 170.217C83.469 170.217 85.195 168.491 85.195 166.362C85.195 164.233 83.469 162.507 81.3401 162.507C79.2111 162.507 77.4852 164.233 77.4852 166.362C77.4852 168.491 79.2111 170.217 81.3401 170.217Z" fill="#9419FF"/>
<path d="M81.3401 170.217C83.469 170.217 85.195 168.491 85.195 166.362C85.195 164.233 83.469 162.507 81.3401 162.507C79.2111 162.507 77.4852 164.233 77.4852 166.362C77.4852 168.491 79.2111 170.217 81.3401 170.217Z" fill="black" fill-opacity="0.2"/>
<path d="M78.8299 179.314C80.7197 179.314 82.2518 177.782 82.2518 175.892C82.2518 174.002 80.7197 172.47 78.8299 172.47C76.9402 172.47 75.4086 174.002 75.4086 175.892C75.4086 177.782 76.9402 179.314 78.8299 179.314Z" fill="#9419FF"/>
<path d="M78.8299 179.314C80.7197 179.314 82.2518 177.782 82.2518 175.892C82.2518 174.002 80.7197 172.47 78.8299 172.47C76.9402 172.47 75.4086 174.002 75.4086 175.892C75.4086 177.782 76.9402 179.314 78.8299 179.314Z" fill="black" fill-opacity="0.2"/>
<path d="M76.2722 188.366C77.8988 188.366 79.2177 187.048 79.2177 185.421C79.2177 183.794 77.8988 182.476 76.2722 182.476C74.6456 182.476 73.3272 183.794 73.3272 185.421C73.3272 187.048 74.6456 188.366 76.2722 188.366Z" fill="#9419FF"/>
<path d="M76.2722 188.366C77.8988 188.366 79.2177 187.048 79.2177 185.421C79.2177 183.794 77.8988 182.476 76.2722 182.476C74.6456 182.476 73.3272 183.794 73.3272 185.421C73.3272 187.048 74.6456 188.366 76.2722 188.366Z" fill="black" fill-opacity="0.2"/>
<path d="M99.2286 153.846C101.884 153.846 104.036 151.693 104.036 149.038C104.036 146.383 101.884 144.23 99.2286 144.23C96.5734 144.23 94.421 146.383 94.421 149.038C94.421 151.693 96.5734 153.846 99.2286 153.846Z" fill="#9419FF"/>
<path d="M99.2286 153.846C101.884 153.846 104.036 151.693 104.036 149.038C104.036 146.383 101.884 144.23 99.2286 144.23C96.5734 144.23 94.421 146.383 94.421 149.038C94.421 151.693 96.5734 153.846 99.2286 153.846Z" fill="black" fill-opacity="0.2"/>
<path d="M99.2303 163.201C101.622 163.201 103.562 161.261 103.562 158.869C103.562 156.477 101.622 154.538 99.2303 154.538C96.8382 154.538 94.899 156.477 94.899 158.869C94.899 161.261 96.8382 163.201 99.2303 163.201Z" fill="#9419FF"/>
<path d="M99.2303 163.201C101.622 163.201 103.562 161.261 103.562 158.869C103.562 156.477 101.622 154.538 99.2303 154.538C96.8382 154.538 94.899 156.477 94.899 158.869C94.899 161.261 96.8382 163.201 99.2303 163.201Z" fill="black" fill-opacity="0.2"/>
<path d="M99.2279 172.6C101.357 172.6 103.083 170.874 103.083 168.745C103.083 166.617 101.357 164.891 99.2279 164.891C97.099 164.891 95.373 166.617 95.373 168.745C95.373 170.874 97.099 172.6 99.2279 172.6Z" fill="#9419FF"/>
<path d="M99.2279 172.6C101.357 172.6 103.083 170.874 103.083 168.745C103.083 166.617 101.357 164.891 99.2279 164.891C97.099 164.891 95.373 166.617 95.373 168.745C95.373 170.874 97.099 172.6 99.2279 172.6Z" fill="black" fill-opacity="0.2"/>
<path d="M99.2299 182C101.12 182 102.651 180.468 102.651 178.578C102.651 176.688 101.12 175.156 99.2299 175.156C97.3401 175.156 95.808 176.688 95.808 178.578C95.808 180.468 97.3401 182 99.2299 182Z" fill="#9419FF"/>
<path d="M99.2299 182C101.12 182 102.651 180.468 102.651 178.578C102.651 176.688 101.12 175.156 99.2299 175.156C97.3401 175.156 95.808 176.688 95.808 178.578C95.808 180.468 97.3401 182 99.2299 182Z" fill="black" fill-opacity="0.2"/>
<path d="M99.2275 191.397C100.854 191.397 102.173 190.078 102.173 188.452C102.173 186.825 100.854 185.506 99.2275 185.506C97.6009 185.506 96.282 186.825 96.282 188.452C96.282 190.078 97.6009 191.397 99.2275 191.397Z" fill="#9419FF"/>
<path d="M99.2275 191.397C100.854 191.397 102.173 190.078 102.173 188.452C102.173 186.825 100.854 185.506 99.2275 185.506C97.6009 185.506 96.282 186.825 96.282 188.452C96.282 190.078 97.6009 191.397 99.2275 191.397Z" fill="black" fill-opacity="0.2"/>
<path d="M112.049 152.156C114.704 152.156 116.856 150.003 116.856 147.348C116.856 144.693 114.704 142.541 112.049 142.541C109.394 142.541 107.241 144.693 107.241 147.348C107.241 150.003 109.394 152.156 112.049 152.156Z" fill="#9419FF"/>
<path d="M112.049 152.156C114.704 152.156 116.856 150.003 116.856 147.348C116.856 144.693 114.704 142.541 112.049 142.541C109.394 142.541 107.241 144.693 107.241 147.348C107.241 150.003 109.394 152.156 112.049 152.156Z" fill="black" fill-opacity="0.2"/>
<path d="M114.605 161.208C116.997 161.208 118.936 159.269 118.936 156.877C118.936 154.485 116.997 152.546 114.605 152.546C112.213 152.546 110.274 154.485 110.274 156.877C110.274 159.269 112.213 161.208 114.605 161.208Z" fill="#9419FF"/>
<path d="M114.605 161.208C116.997 161.208 118.936 159.269 118.936 156.877C118.936 154.485 116.997 152.546 114.605 152.546C112.213 152.546 110.274 154.485 110.274 156.877C110.274 159.269 112.213 161.208 114.605 161.208Z" fill="black" fill-opacity="0.2"/>
<path d="M117.162 170.217C119.291 170.217 121.017 168.491 121.017 166.362C121.017 164.233 119.291 162.507 117.162 162.507C115.033 162.507 113.307 164.233 113.307 166.362C113.307 168.491 115.033 170.217 117.162 170.217Z" fill="#9419FF"/>
<path d="M117.162 170.217C119.291 170.217 121.017 168.491 121.017 166.362C121.017 164.233 119.291 162.507 117.162 162.507C115.033 162.507 113.307 164.233 113.307 166.362C113.307 168.491 115.033 170.217 117.162 170.217Z" fill="black" fill-opacity="0.2"/>
<path d="M119.673 179.314C121.563 179.314 123.095 177.782 123.095 175.892C123.095 174.002 121.563 172.47 119.673 172.47C117.783 172.47 116.251 174.002 116.251 175.892C116.251 177.782 117.783 179.314 119.673 179.314Z" fill="#9419FF"/>
<path d="M119.673 179.314C121.563 179.314 123.095 177.782 123.095 175.892C123.095 174.002 121.563 172.47 119.673 172.47C117.783 172.47 116.251 174.002 116.251 175.892C116.251 177.782 117.783 179.314 119.673 179.314Z" fill="black" fill-opacity="0.2"/>
<path d="M122.229 188.366C123.856 188.366 125.174 187.048 125.174 185.421C125.174 183.794 123.856 182.476 122.229 182.476C120.602 182.476 119.284 183.794 119.284 185.421C119.284 187.048 120.602 188.366 122.229 188.366Z" fill="#9419FF"/>
<path d="M122.229 188.366C123.856 188.366 125.174 187.048 125.174 185.421C125.174 183.794 123.856 182.476 122.229 182.476C120.602 182.476 119.284 183.794 119.284 185.421C119.284 187.048 120.602 188.366 122.229 188.366Z" fill="black" fill-opacity="0.2"/>
<path d="M123.961 147.218C126.616 147.218 128.768 145.065 128.768 142.41C128.768 139.755 126.616 137.603 123.961 137.603C121.305 137.603 119.153 139.755 119.153 142.41C119.153 145.065 121.305 147.218 123.961 147.218Z" fill="#9419FF"/>
<path d="M123.961 147.218C126.616 147.218 128.768 145.065 128.768 142.41C128.768 139.755 126.616 137.603 123.961 137.603C121.305 137.603 119.153 139.755 119.153 142.41C119.153 145.065 121.305 147.218 123.961 147.218Z" fill="black" fill-opacity="0.2"/>
<path d="M128.898 155.274C131.291 155.274 133.23 153.335 133.23 150.943C133.23 148.551 131.291 146.612 128.898 146.612C126.506 146.612 124.567 148.551 124.567 150.943C124.567 153.335 126.506 155.274 128.898 155.274Z" fill="#9419FF"/>
<path d="M128.898 155.274C131.291 155.274 133.23 153.335 133.23 150.943C133.23 148.551 131.291 146.612 128.898 146.612C126.506 146.612 124.567 148.551 124.567 150.943C124.567 153.335 126.506 155.274 128.898 155.274Z" fill="black" fill-opacity="0.2"/>
<path d="M133.793 163.331C135.922 163.331 137.648 161.605 137.648 159.476C137.648 157.347 135.922 155.621 133.793 155.621C131.664 155.621 129.938 157.347 129.938 159.476C129.938 161.605 131.664 163.331 133.793 163.331Z" fill="#9419FF"/>
<path d="M133.793 163.331C135.922 163.331 137.648 161.605 137.648 159.476C137.648 157.347 135.922 155.621 133.793 155.621C131.664 155.621 129.938 157.347 129.938 159.476C129.938 161.605 131.664 163.331 133.793 163.331Z" fill="black" fill-opacity="0.2"/>
<path d="M138.733 171.432C140.622 171.432 142.154 169.9 142.154 168.01C142.154 166.12 140.622 164.588 138.733 164.588C136.843 164.588 135.311 166.12 135.311 168.01C135.311 169.9 136.843 171.432 138.733 171.432Z" fill="#9419FF"/>
<path d="M138.733 171.432C140.622 171.432 142.154 169.9 142.154 168.01C142.154 166.12 140.622 164.588 138.733 164.588C136.843 164.588 135.311 166.12 135.311 168.01C135.311 169.9 136.843 171.432 138.733 171.432Z" fill="black" fill-opacity="0.2"/>
<path d="M143.67 179.486C145.297 179.486 146.615 178.167 146.615 176.541C146.615 174.914 145.297 173.595 143.67 173.595C142.044 173.595 140.725 174.914 140.725 176.541C140.725 178.167 142.044 179.486 143.67 179.486Z" fill="#9419FF"/>
<path d="M143.67 179.486C145.297 179.486 146.615 178.167 146.615 176.541C146.615 174.914 145.297 173.595 143.67 173.595C142.044 173.595 140.725 174.914 140.725 176.541C140.725 178.167 142.044 179.486 143.67 179.486Z" fill="black" fill-opacity="0.2"/>
<path d="M134.184 139.38C136.839 139.38 138.992 137.228 138.992 134.572C138.992 131.917 136.839 129.765 134.184 129.765C131.529 129.765 129.376 131.917 129.376 134.572C129.376 137.228 131.529 139.38 134.184 139.38Z" fill="#9419FF"/>
<path d="M134.184 139.38C136.839 139.38 138.992 137.228 138.992 134.572C138.992 131.917 136.839 129.765 134.184 129.765C131.529 129.765 129.376 131.917 129.376 134.572C129.376 137.228 131.529 139.38 134.184 139.38Z" fill="black" fill-opacity="0.2"/>
<path d="M141.155 145.833C143.547 145.833 145.486 143.894 145.486 141.502C145.486 139.11 143.547 137.171 141.155 137.171C138.763 137.171 136.824 139.11 136.824 141.502C136.824 143.894 138.763 145.833 141.155 145.833Z" fill="#9419FF"/>
<path d="M141.155 145.833C143.547 145.833 145.486 143.894 145.486 141.502C145.486 139.11 143.547 137.171 141.155 137.171C138.763 137.171 136.824 139.11 136.824 141.502C136.824 143.894 138.763 145.833 141.155 145.833Z" fill="black" fill-opacity="0.2"/>
<path d="M148.127 152.329C150.256 152.329 151.982 150.603 151.982 148.474C151.982 146.345 150.256 144.62 148.127 144.62C145.998 144.62 144.273 146.345 144.273 148.474C144.273 150.603 145.998 152.329 148.127 152.329Z" fill="#9419FF"/>
<path d="M148.127 152.329C150.256 152.329 151.982 150.603 151.982 148.474C151.982 146.345 150.256 144.62 148.127 144.62C145.998 144.62 144.273 146.345 144.273 148.474C144.273 150.603 145.998 152.329 148.127 152.329Z" fill="black" fill-opacity="0.2"/>
<path d="M155.101 158.869C156.991 158.869 158.522 157.337 158.522 155.448C158.522 153.558 156.991 152.026 155.101 152.026C153.211 152.026 151.679 153.558 151.679 155.448C151.679 157.337 153.211 158.869 155.101 158.869Z" fill="#9419FF"/>
<path d="M155.101 158.869C156.991 158.869 158.522 157.337 158.522 155.448C158.522 153.558 156.991 152.026 155.101 152.026C153.211 152.026 151.679 153.558 151.679 155.448C151.679 157.337 153.211 158.869 155.101 158.869Z" fill="black" fill-opacity="0.2"/>
<path d="M162.078 165.367C163.704 165.367 165.023 164.048 165.023 162.422C165.023 160.795 163.704 159.477 162.078 159.477C160.451 159.477 159.132 160.795 159.132 162.422C159.132 164.048 160.451 165.367 162.078 165.367Z" fill="#9419FF"/>
<path d="M162.078 165.367C163.704 165.367 165.023 164.048 165.023 162.422C165.023 160.795 163.704 159.477 162.078 159.477C160.451 159.477 159.132 160.795 159.132 162.422C159.132 164.048 160.451 165.367 162.078 165.367Z" fill="black" fill-opacity="0.2"/>
<path d="M142.021 129.114C144.676 129.114 146.829 126.962 146.829 124.307C146.829 121.652 144.676 119.499 142.021 119.499C139.366 119.499 137.213 121.652 137.213 124.307C137.213 126.962 139.366 129.114 142.021 129.114Z" fill="#9419FF"/>
<path d="M142.021 129.114C144.676 129.114 146.829 126.962 146.829 124.307C146.829 121.652 144.676 119.499 142.021 119.499C139.366 119.499 137.213 121.652 137.213 124.307C137.213 126.962 139.366 129.114 142.021 129.114Z" fill="black" fill-opacity="0.2"/>
<path d="M150.555 133.576C152.947 133.576 154.886 131.636 154.886 129.244C154.886 126.852 152.947 124.913 150.555 124.913C148.163 124.913 146.224 126.852 146.224 129.244C146.224 131.636 148.163 133.576 150.555 133.576Z" fill="#9419FF"/>
<path d="M150.555 133.576C152.947 133.576 154.886 131.636 154.886 129.244C154.886 126.852 152.947 124.913 150.555 124.913C148.163 124.913 146.224 126.852 146.224 129.244C146.224 131.636 148.163 133.576 150.555 133.576Z" fill="black" fill-opacity="0.2"/>
<path d="M159.087 138.037C161.216 138.037 162.942 136.311 162.942 134.182C162.942 132.053 161.216 130.327 159.087 130.327C156.958 130.327 155.232 132.053 155.232 134.182C155.232 136.311 156.958 138.037 159.087 138.037Z" fill="#9419FF"/>
<path d="M159.087 138.037C161.216 138.037 162.942 136.311 162.942 134.182C162.942 132.053 161.216 130.327 159.087 130.327C156.958 130.327 155.232 132.053 155.232 134.182C155.232 136.311 156.958 138.037 159.087 138.037Z" fill="black" fill-opacity="0.2"/>
<path d="M167.664 142.54C169.553 142.54 171.086 141.008 171.086 139.118C171.086 137.229 169.553 135.697 167.664 135.697C165.774 135.697 164.242 137.229 164.242 139.118C164.242 141.008 165.774 142.54 167.664 142.54Z" fill="#9419FF"/>
<path d="M167.664 142.54C169.553 142.54 171.086 141.008 171.086 139.118C171.086 137.229 169.553 135.697 167.664 135.697C165.774 135.697 164.242 137.229 164.242 139.118C164.242 141.008 165.774 142.54 167.664 142.54Z" fill="black" fill-opacity="0.2"/>
<path d="M176.196 146.959C177.823 146.959 179.141 145.64 179.141 144.014C179.141 142.387 177.823 141.069 176.196 141.069C174.57 141.069 173.251 142.387 173.251 144.014C173.251 145.64 174.57 146.959 176.196 146.959Z" fill="#9419FF"/>
<path d="M176.196 146.959C177.823 146.959 179.141 145.64 179.141 144.014C179.141 142.387 177.823 141.069 176.196 141.069C174.57 141.069 173.251 142.387 173.251 144.014C173.251 145.64 174.57 146.959 176.196 146.959Z" fill="black" fill-opacity="0.2"/>
<path d="M146.958 117.204C149.614 117.204 151.766 115.051 151.766 112.396C151.766 109.741 149.614 107.588 146.958 107.588C144.303 107.588 142.15 109.741 142.15 112.396C142.15 115.051 144.303 117.204 146.958 117.204Z" fill="#9419FF"/>
<path d="M146.958 117.204C149.614 117.204 151.766 115.051 151.766 112.396C151.766 109.741 149.614 107.588 146.958 107.588C144.303 107.588 142.15 109.741 142.15 112.396C142.15 115.051 144.303 117.204 146.958 117.204Z" fill="black" fill-opacity="0.2"/>
<path d="M156.488 119.281C158.881 119.281 160.82 117.342 160.82 114.95C160.82 112.558 158.881 110.619 156.488 110.619C154.096 110.619 152.157 112.558 152.157 114.95C152.157 117.342 154.096 119.281 156.488 119.281Z" fill="#9419FF"/>
<path d="M156.488 119.281C158.881 119.281 160.82 117.342 160.82 114.95C160.82 112.558 158.881 110.619 156.488 110.619C154.096 110.619 152.157 112.558 152.157 114.95C152.157 117.342 154.096 119.281 156.488 119.281Z" fill="black" fill-opacity="0.2"/>
<path d="M166.019 121.361C168.148 121.361 169.874 119.635 169.874 117.506C169.874 115.377 168.148 113.651 166.019 113.651C163.89 113.651 162.165 115.377 162.165 117.506C162.165 119.635 163.89 121.361 166.019 121.361Z" fill="#9419FF"/>
<path d="M166.019 121.361C168.148 121.361 169.874 119.635 169.874 117.506C169.874 115.377 168.148 113.651 166.019 113.651C163.89 113.651 162.165 115.377 162.165 117.506C162.165 119.635 163.89 121.361 166.019 121.361Z" fill="black" fill-opacity="0.2"/>
<path d="M175.547 123.483C177.437 123.483 178.969 121.951 178.969 120.061C178.969 118.172 177.437 116.64 175.547 116.64C173.658 116.64 172.126 118.172 172.126 120.061C172.126 121.951 173.658 123.483 175.547 123.483Z" fill="#9419FF"/>
<path d="M175.547 123.483C177.437 123.483 178.969 121.951 178.969 120.061C178.969 118.172 177.437 116.64 175.547 116.64C173.658 116.64 172.126 118.172 172.126 120.061C172.126 121.951 173.658 123.483 175.547 123.483Z" fill="black" fill-opacity="0.2"/>
<path d="M185.032 125.563C186.659 125.563 187.978 124.244 187.978 122.618C187.978 120.991 186.659 119.672 185.032 119.672C183.405 119.672 182.087 120.991 182.087 122.618C182.087 124.244 183.405 125.563 185.032 125.563Z" fill="#9419FF"/>
<path d="M185.032 125.563C186.659 125.563 187.978 124.244 187.978 122.618C187.978 120.991 186.659 119.672 185.032 119.672C183.405 119.672 182.087 120.991 182.087 122.618C182.087 124.244 183.405 125.563 185.032 125.563Z" fill="black" fill-opacity="0.2"/>
</svg>
