<svg width="197" height="197" viewBox="0 0 197 197" fill="none" xmlns="http://www.w3.org/2000/svg">
<path d="M98.0166 196.033C152.15 196.033 196.033 152.15 196.033 98.0166C196.033 43.8835 152.15 0 98.0166 0C43.8835 0 0 43.8835 0 98.0166C0 152.15 43.8835 196.033 98.0166 196.033Z" fill="white"/>
<mask id="mask0_146_629" style="mask-type:luminance" maskUnits="userSpaceOnUse" x="0" y="0" width="197" height="197">
<path d="M98.0166 196.033C152.15 196.033 196.033 152.15 196.033 98.0166C196.033 43.8835 152.15 0 98.0166 0C43.8835 0 0 43.8835 0 98.0166C0 152.15 43.8835 196.033 98.0166 196.033Z" fill="white"/>
</mask>
<g mask="url(#mask0_146_629)">
<path d="M34.4331 189.535C34.8769 164.182 41.35 139.299 53.3173 116.943C54.3568 114.864 55.1798 113.218 55.5263 112.309C60.2907 99.3151 55.1797 77.6587 55.1364 77.6587C55.0061 77.1017 55.1015 76.5158 55.4018 76.0289C55.7021 75.542 56.1827 75.1937 56.7389 75.06C57.015 74.9894 57.3024 74.9752 57.5841 75.0181C57.8658 75.061 58.136 75.1602 58.3785 75.3098C58.621 75.4593 58.831 75.6562 58.9958 75.8886C59.1606 76.121 59.2769 76.3842 59.3378 76.6626C59.5977 77.5721 64.7952 99.6183 59.5977 113.825C59.1646 114.951 58.3417 116.597 57.2156 118.892C48.553 136.217 22.5653 188.712 54.1403 253.162C54.2654 253.418 54.3389 253.696 54.3565 253.98C54.3742 254.264 54.3356 254.55 54.2431 254.819C54.1506 255.088 54.0061 255.337 53.8175 255.551C53.6289 255.764 53.4001 255.939 53.1442 256.064C52.8882 256.189 52.6101 256.262 52.3257 256.28C52.0414 256.298 51.7564 256.259 51.4869 256.167C51.2174 256.074 50.9687 255.929 50.7552 255.741C50.5416 255.552 50.3672 255.323 50.242 255.067C39.9568 234.747 34.5444 212.31 34.4331 189.535Z" fill="#9419FF"/>
<path d="M34.4331 189.535C34.8769 164.182 41.35 139.299 53.3173 116.943C54.3568 114.864 55.1798 113.218 55.5263 112.309C60.2907 99.3151 55.1797 77.6587 55.1364 77.6587C55.0061 77.1017 55.1015 76.5158 55.4018 76.0289C55.7021 75.542 56.1827 75.1937 56.7389 75.06C57.015 74.9894 57.3024 74.9752 57.5841 75.0181C57.8658 75.061 58.136 75.1602 58.3785 75.3098C58.621 75.4593 58.831 75.6562 58.9958 75.8886C59.1606 76.121 59.2769 76.3842 59.3378 76.6626C59.5977 77.5721 64.7952 99.6183 59.5977 113.825C59.1646 114.951 58.3417 116.597 57.2156 118.892C48.553 136.217 22.5653 188.712 54.1403 253.162C54.2654 253.418 54.3389 253.696 54.3565 253.98C54.3742 254.264 54.3356 254.55 54.2431 254.819C54.1506 255.088 54.0061 255.337 53.8175 255.551C53.6289 255.764 53.4001 255.939 53.1442 256.064C52.8882 256.189 52.6101 256.262 52.3257 256.28C52.0414 256.298 51.7564 256.259 51.4869 256.167C51.2174 256.074 50.9687 255.929 50.7552 255.741C50.5416 255.552 50.3672 255.323 50.242 255.067C39.9568 234.747 34.5444 212.31 34.4331 189.535Z" fill="black" fill-opacity="0.2"/>
<path d="M134.742 98.1458C134.82 90.8591 135.662 83.6007 137.254 76.4895C137.386 75.9151 137.741 75.4168 138.241 75.104C138.74 74.7913 139.343 74.6898 139.918 74.8219C140.492 74.954 140.99 75.3089 141.303 75.8085C141.616 76.308 141.717 76.9113 141.585 77.4856C141.585 77.4856 136.474 99.142 141.239 112.136C141.879 113.717 142.602 115.264 143.404 116.77C152.067 134.485 179.094 188.496 146.48 254.808C146.355 255.064 146.181 255.293 145.967 255.482C145.754 255.671 145.505 255.816 145.236 255.908C144.966 256.001 144.681 256.039 144.396 256.021C144.112 256.004 143.834 255.93 143.578 255.804C143.321 255.68 143.092 255.505 142.904 255.291C142.716 255.076 142.574 254.826 142.485 254.555C142.396 254.284 142.363 253.998 142.387 253.714C142.411 253.43 142.492 253.154 142.625 252.902C174.286 188.496 148.125 135.958 139.549 118.633C138.659 116.991 137.863 115.299 137.167 113.565C135.49 108.6 134.67 103.386 134.742 98.1458Z" fill="#9419FF"/>
<path d="M134.742 98.1458C134.82 90.8591 135.662 83.6007 137.254 76.4895C137.386 75.9151 137.741 75.4168 138.241 75.104C138.74 74.7913 139.343 74.6898 139.918 74.8219C140.492 74.954 140.99 75.3089 141.303 75.8085C141.616 76.308 141.717 76.9113 141.585 77.4856C141.585 77.4856 136.474 99.142 141.239 112.136C141.879 113.717 142.602 115.264 143.404 116.77C152.067 134.485 179.094 188.496 146.48 254.808C146.355 255.064 146.181 255.293 145.967 255.482C145.754 255.671 145.505 255.816 145.236 255.908C144.966 256.001 144.681 256.039 144.396 256.021C144.112 256.004 143.834 255.93 143.578 255.804C143.321 255.68 143.092 255.505 142.904 255.291C142.716 255.076 142.574 254.826 142.485 254.555C142.396 254.284 142.363 253.998 142.387 253.714C142.411 253.43 142.492 253.154 142.625 252.902C174.286 188.496 148.125 135.958 139.549 118.633C138.659 116.991 137.863 115.299 137.167 113.565C135.49 108.6 134.67 103.386 134.742 98.1458Z" fill="black" fill-opacity="0.2"/>
<path d="M40.3209 149.169C40.332 148.598 40.5637 148.053 40.9675 147.65C41.3712 147.246 41.9156 147.014 42.4865 147.003H152.934C153.505 147.014 154.049 147.246 154.453 147.65C154.857 148.053 155.088 148.598 155.099 149.169C155.099 149.743 154.871 150.294 154.465 150.7C154.059 151.106 153.508 151.334 152.934 151.334H42.5299C42.2418 151.34 41.9556 151.288 41.6879 151.182C41.4201 151.076 41.1761 150.917 40.9704 150.716C40.7647 150.514 40.6013 150.273 40.4898 150.008C40.3783 149.742 40.3208 149.457 40.3209 149.169Z" fill="#9419FF"/>
<path d="M40.3209 149.169C40.332 148.598 40.5637 148.053 40.9675 147.65C41.3712 147.246 41.9156 147.014 42.4865 147.003H152.934C153.505 147.014 154.049 147.246 154.453 147.65C154.857 148.053 155.088 148.598 155.099 149.169C155.099 149.743 154.871 150.294 154.465 150.7C154.059 151.106 153.508 151.334 152.934 151.334H42.5299C42.2418 151.34 41.9556 151.288 41.6879 151.182C41.4201 151.076 41.1761 150.917 40.9704 150.716C40.7647 150.514 40.6013 150.273 40.4898 150.008C40.3783 149.742 40.3208 149.457 40.3209 149.169Z" fill="black" fill-opacity="0.2"/>
<path d="M36.5522 165.584C36.5522 165.584 36.5522 165.324 36.5522 165.194C36.6575 164.632 36.9807 164.135 37.4513 163.81C37.9219 163.486 38.5018 163.36 39.0644 163.462C39.5842 163.462 92.3822 173.337 99.0524 217.169C101.521 241.165 96.8001 254.245 96.5835 254.765C96.388 255.305 95.9864 255.745 95.4666 255.988C94.9468 256.232 94.3514 256.259 93.8114 256.064C93.2717 255.869 92.8316 255.467 92.588 254.947C92.3443 254.427 92.3171 253.832 92.5121 253.292C95.6709 241.7 96.4373 229.587 94.7645 217.689C88.5708 177.105 38.8045 167.793 38.458 167.706C37.9334 167.653 37.4478 167.405 37.0955 167.013C36.7432 166.621 36.5495 166.111 36.5522 165.584Z" fill="#9419FF"/>
<path d="M36.5522 165.584C36.5522 165.584 36.5522 165.324 36.5522 165.194C36.6575 164.632 36.9807 164.135 37.4513 163.81C37.9219 163.486 38.5018 163.36 39.0644 163.462C39.5842 163.462 92.3822 173.337 99.0524 217.169C101.521 241.165 96.8001 254.245 96.5835 254.765C96.388 255.305 95.9864 255.745 95.4666 255.988C94.9468 256.232 94.3514 256.259 93.8114 256.064C93.2717 255.869 92.8316 255.467 92.588 254.947C92.3443 254.427 92.3171 253.832 92.5121 253.292C95.6709 241.7 96.4373 229.587 94.7645 217.689C88.5708 177.105 38.8045 167.793 38.458 167.706C37.9334 167.653 37.4478 167.405 37.0955 167.013C36.7432 166.621 36.5495 166.111 36.5522 165.584Z" fill="black" fill-opacity="0.2"/>
<path d="M96.6287 230.466C96.6312 226.126 96.8624 221.789 97.3216 217.473C103.775 173.337 156.573 163.548 157.266 163.548C157.829 163.447 158.409 163.572 158.88 163.897C159.35 164.222 159.673 164.719 159.779 165.281C159.869 165.842 159.739 166.416 159.416 166.884C159.093 167.352 158.603 167.678 158.046 167.793C157.526 167.793 107.76 177.192 101.74 217.906C100.071 229.76 100.838 241.831 103.992 253.379C104.187 253.919 104.16 254.514 103.916 255.034C103.672 255.554 103.232 255.955 102.693 256.151C102.152 256.334 101.562 256.302 101.045 256.059C100.528 255.817 100.125 255.384 99.9206 254.852C97.5227 246.952 96.4112 238.719 96.6287 230.466Z" fill="#9419FF"/>
<path d="M96.6287 230.466C96.6312 226.126 96.8624 221.789 97.3216 217.473C103.775 173.337 156.573 163.548 157.266 163.548C157.829 163.447 158.409 163.572 158.88 163.897C159.35 164.222 159.673 164.719 159.779 165.281C159.869 165.842 159.739 166.416 159.416 166.884C159.093 167.352 158.603 167.678 158.046 167.793C157.526 167.793 107.76 177.192 101.74 217.906C100.071 229.76 100.838 241.831 103.992 253.379C104.187 253.919 104.16 254.514 103.916 255.034C103.672 255.554 103.232 255.955 102.693 256.151C102.152 256.334 101.562 256.302 101.045 256.059C100.528 255.817 100.125 255.384 99.9206 254.852C97.5227 246.952 96.4112 238.719 96.6287 230.466Z" fill="black" fill-opacity="0.2"/>
<path d="M87.0577 197.289C87.0509 196.92 87.1567 196.557 87.3609 196.249C87.4927 196 87.6728 195.78 87.8907 195.601C88.1087 195.422 88.3602 195.288 88.6304 195.208C88.9006 195.127 89.1839 195.101 89.4642 195.131C89.7445 195.161 90.0163 195.247 90.2631 195.383C92.7468 196.535 95.4514 197.132 98.1891 197.132C100.927 197.132 103.632 196.535 106.115 195.383C106.379 195.259 106.665 195.19 106.956 195.179C107.248 195.168 107.538 195.216 107.81 195.32C108.083 195.424 108.331 195.582 108.541 195.784C108.751 195.987 108.917 196.229 109.031 196.498C109.145 196.766 109.203 197.054 109.203 197.346C109.202 197.637 109.143 197.926 109.029 198.194C108.914 198.462 108.747 198.704 108.536 198.906C108.326 199.107 108.077 199.265 107.805 199.368C104.731 200.795 101.383 201.534 97.9943 201.534C94.6056 201.534 91.2576 200.795 88.1839 199.368C87.8252 199.156 87.531 198.851 87.3327 198.485C87.1343 198.118 87.0392 197.705 87.0577 197.289Z" fill="#9419FF"/>
<path d="M87.0577 197.289C87.0509 196.92 87.1567 196.557 87.3609 196.249C87.4927 196 87.6728 195.78 87.8907 195.601C88.1087 195.422 88.3602 195.288 88.6304 195.208C88.9006 195.127 89.1839 195.101 89.4642 195.131C89.7445 195.161 90.0163 195.247 90.2631 195.383C92.7468 196.535 95.4514 197.132 98.1891 197.132C100.927 197.132 103.632 196.535 106.115 195.383C106.379 195.259 106.665 195.19 106.956 195.179C107.248 195.168 107.538 195.216 107.81 195.32C108.083 195.424 108.331 195.582 108.541 195.784C108.751 195.987 108.917 196.229 109.031 196.498C109.145 196.766 109.203 197.054 109.203 197.346C109.202 197.637 109.143 197.926 109.029 198.194C108.914 198.462 108.747 198.704 108.536 198.906C108.326 199.107 108.077 199.265 107.805 199.368C104.731 200.795 101.383 201.534 97.9943 201.534C94.6056 201.534 91.2576 200.795 88.1839 199.368C87.8252 199.156 87.531 198.851 87.3327 198.485C87.1343 198.118 87.0392 197.705 87.0577 197.289Z" fill="black" fill-opacity="0.2"/>
<path d="M92.5551 116.511C92.5586 116.149 92.6476 115.793 92.815 115.472C93.0978 114.974 93.563 114.605 94.1125 114.444C94.662 114.282 95.2528 114.34 95.7602 114.606C96.8341 115.097 98.0013 115.351 99.1821 115.351C100.363 115.351 101.53 115.097 102.604 114.606C103.127 114.407 103.707 114.419 104.222 114.639C104.737 114.859 105.146 115.27 105.365 115.786C105.583 116.301 105.594 116.881 105.394 117.404C105.194 117.927 104.8 118.352 104.293 118.59C102.633 119.371 100.821 119.775 98.987 119.775C97.1528 119.775 95.3413 119.371 93.6813 118.59C93.3086 118.395 93.0023 118.092 92.8018 117.722C92.6013 117.352 92.5155 116.931 92.5551 116.511Z" fill="#9419FF"/>
<path d="M92.5551 116.511C92.5586 116.149 92.6476 115.793 92.815 115.472C93.0978 114.974 93.563 114.605 94.1125 114.444C94.662 114.282 95.2528 114.34 95.7602 114.606C96.8341 115.097 98.0013 115.351 99.1821 115.351C100.363 115.351 101.53 115.097 102.604 114.606C103.127 114.407 103.707 114.419 104.222 114.639C104.737 114.859 105.146 115.27 105.365 115.786C105.583 116.301 105.594 116.881 105.394 117.404C105.194 117.927 104.8 118.352 104.293 118.59C102.633 119.371 100.821 119.775 98.987 119.775C97.1528 119.775 95.3413 119.371 93.6813 118.59C93.3086 118.395 93.0023 118.092 92.8018 117.722C92.6013 117.352 92.5155 116.931 92.5551 116.511Z" fill="black" fill-opacity="0.2"/>
<path d="M158.61 104.469C158.61 103.894 158.838 103.344 159.244 102.938C159.651 102.531 160.201 102.303 160.776 102.303H186.98C187.554 102.303 188.105 102.531 188.511 102.938C188.918 103.344 189.146 103.894 189.146 104.469C189.146 105.043 188.918 105.594 188.511 106C188.105 106.406 187.554 106.634 186.98 106.634H160.776C160.205 106.623 159.661 106.392 159.257 105.988C158.853 105.584 158.621 105.04 158.61 104.469Z" fill="#9419FF"/>
<path d="M158.61 104.469C158.61 103.894 158.838 103.344 159.244 102.938C159.651 102.531 160.201 102.303 160.776 102.303H186.98C187.554 102.303 188.105 102.531 188.511 102.938C188.918 103.344 189.146 103.894 189.146 104.469C189.146 105.043 188.918 105.594 188.511 106C188.105 106.406 187.554 106.634 186.98 106.634H160.776C160.205 106.623 159.661 106.392 159.257 105.988C158.853 105.584 158.621 105.04 158.61 104.469Z" fill="black" fill-opacity="0.2"/>
<path d="M163.764 114.56L146.179 104.425L163.764 94.29V114.56Z" fill="#9419FF"/>
<path d="M163.764 114.56L146.179 104.425L163.764 94.29V114.56Z" fill="black" fill-opacity="0.2"/>
<path d="M6.8847 104.469C6.8847 103.894 7.11276 103.344 7.5189 102.938C7.92503 102.531 8.47597 102.303 9.05033 102.303H35.0379C35.6123 102.303 36.163 102.531 36.5691 102.938C36.9752 103.344 37.2036 103.894 37.2036 104.469C37.2036 105.043 36.9752 105.594 36.5691 106C36.163 106.406 35.6123 106.634 35.0379 106.634H9.05033C8.47597 106.634 7.92503 106.406 7.5189 106C7.11276 105.594 6.8847 105.043 6.8847 104.469Z" fill="#9419FF"/>
<path d="M6.8847 104.469C6.8847 103.894 7.11276 103.344 7.5189 102.938C7.92503 102.531 8.47597 102.303 9.05033 102.303H35.0379C35.6123 102.303 36.163 102.531 36.5691 102.938C36.9752 103.344 37.2036 103.894 37.2036 104.469C37.2036 105.043 36.9752 105.594 36.5691 106C36.163 106.406 35.6123 106.634 35.0379 106.634H9.05033C8.47597 106.634 7.92503 106.406 7.5189 106C7.11276 105.594 6.8847 105.043 6.8847 104.469Z" fill="black" fill-opacity="0.2"/>
<path d="M32.2674 94.29L49.8523 104.425L32.2674 114.56V94.29Z" fill="#9419FF"/>
<path d="M32.2674 94.29L49.8523 104.425L32.2674 114.56V94.29Z" fill="black" fill-opacity="0.2"/>
</g>
<path d="M69.297 28.0652V31.5736H62.1937L61.5872 35.9048H62.1503H62.8001C63.7138 35.8898 64.6229 36.0364 65.4855 36.3379C66.2941 36.6479 67.031 37.1195 67.6511 37.7239C68.2721 38.3225 68.7593 39.0459 69.0805 39.8463C69.443 40.7549 69.6198 41.7269 69.6003 42.7049C69.6268 43.7719 69.4352 44.8331 69.0372 45.8234C68.6669 46.6909 68.1213 47.4724 67.4346 48.119C66.7419 48.7249 65.9507 49.2082 65.0956 49.5483C64.1607 49.8642 63.1805 50.0252 62.1937 50.0248C60.9711 50.0327 59.7607 49.7818 58.642 49.2885C58.0988 49.0275 57.5774 48.7233 57.0828 48.3789C56.6006 47.9914 56.1902 47.5223 55.8702 46.9929L57.9058 44.3075C58.3705 45.0167 59.0331 45.5739 59.8115 45.91C60.5775 46.2977 61.422 46.5052 62.2804 46.5164C62.7555 46.5327 63.2287 46.4485 63.6691 46.2694C64.1094 46.0903 64.5069 45.8202 64.8357 45.4769C65.1702 45.1346 65.4313 44.7275 65.6026 44.2806C65.7739 43.8336 65.8521 43.3564 65.8321 42.8782C65.8351 42.357 65.7288 41.841 65.5199 41.3635C65.311 40.886 65.004 40.4576 64.6192 40.1062C63.6548 39.3288 62.4336 38.9423 61.1976 39.0233C60.5206 38.9573 59.8387 38.9573 59.1618 39.0233C58.6463 39.1101 58.1393 39.2405 57.6459 39.4131L59.0753 27.9353L69.297 28.0652Z" fill="#9419FF"/>
<path d="M69.297 28.0652V31.5736H62.1937L61.5872 35.9048H62.1503H62.8001C63.7138 35.8898 64.6229 36.0364 65.4855 36.3379C66.2941 36.6479 67.031 37.1195 67.6511 37.7239C68.2721 38.3225 68.7593 39.0459 69.0805 39.8463C69.443 40.7549 69.6198 41.7269 69.6003 42.7049C69.6268 43.7719 69.4352 44.8331 69.0372 45.8234C68.6669 46.6909 68.1213 47.4724 67.4346 48.119C66.7419 48.7249 65.9507 49.2082 65.0956 49.5483C64.1607 49.8642 63.1805 50.0252 62.1937 50.0248C60.9711 50.0327 59.7607 49.7818 58.642 49.2885C58.0988 49.0275 57.5774 48.7233 57.0828 48.3789C56.6006 47.9914 56.1902 47.5223 55.8702 46.9929L57.9058 44.3075C58.3705 45.0167 59.0331 45.5739 59.8115 45.91C60.5775 46.2977 61.422 46.5052 62.2804 46.5164C62.7555 46.5327 63.2287 46.4485 63.6691 46.2694C64.1094 46.0903 64.5069 45.8202 64.8357 45.4769C65.1702 45.1346 65.4313 44.7275 65.6026 44.2806C65.7739 43.8336 65.8521 43.3564 65.8321 42.8782C65.8351 42.357 65.7288 41.841 65.5199 41.3635C65.311 40.886 65.004 40.4576 64.6192 40.1062C63.6548 39.3288 62.4336 38.9423 61.1976 39.0233C60.5206 38.9573 59.8387 38.9573 59.1618 39.0233C58.6463 39.1101 58.1393 39.2405 57.6459 39.4131L59.0753 27.9353L69.297 28.0652Z" fill="black" fill-opacity="0.2"/>
<path d="M73.2397 38.763C73.2413 37.3106 73.3719 35.8611 73.6296 34.4318C73.8816 33.2167 74.3199 32.0479 74.929 30.9667C75.5018 30.0536 76.2902 29.2951 77.2247 28.7578C78.215 28.2195 79.3243 27.9375 80.4514 27.9375C81.5786 27.9375 82.6879 28.2195 83.6782 28.7578C84.5961 29.2869 85.3581 30.0489 85.8872 30.9667C86.5329 32.0304 86.9736 33.2057 87.1865 34.4318C87.479 35.8569 87.624 37.3082 87.6195 38.763C87.6281 40.218 87.483 41.6698 87.1865 43.0943C86.9809 44.3358 86.5399 45.5266 85.8872 46.6026C85.3581 47.5205 84.5961 48.2824 83.6782 48.8116C82.7161 49.362 81.6248 49.646 80.5165 49.6345C79.3801 49.651 78.2595 49.3671 77.268 48.8116C76.3245 48.2864 75.5334 47.5252 74.9723 46.6026C74.3572 45.5044 73.9049 44.3226 73.6296 43.0943C73.3331 41.6698 73.1881 40.218 73.1966 38.763H73.2397ZM76.9648 38.763C76.8717 40.7676 77.1808 42.7705 77.8742 44.6536C78.0699 45.1978 78.4288 45.6685 78.9015 46.0018C79.3742 46.335 79.9381 46.5145 80.5165 46.516C81.094 46.5374 81.6629 46.372 82.1388 46.0442C82.6148 45.7165 82.9725 45.244 83.1585 44.6968C83.7741 42.7821 84.0382 40.7718 83.9381 38.763C84.0303 36.7797 83.7512 34.7966 83.1151 32.9158C82.9249 32.368 82.5676 31.8937 82.0936 31.5596C81.6197 31.2255 81.053 31.0485 80.4731 31.0534C79.8863 31.0447 79.3124 31.2254 78.8365 31.5687C78.3605 31.912 78.0078 32.3996 77.8308 32.9591C77.202 34.8267 76.923 36.7943 77.0079 38.763H76.9648Z" fill="#9419FF"/>
<path d="M73.2397 38.763C73.2413 37.3106 73.3719 35.8611 73.6296 34.4318C73.8816 33.2167 74.3199 32.0479 74.929 30.9667C75.5018 30.0536 76.2902 29.2951 77.2247 28.7578C78.215 28.2195 79.3243 27.9375 80.4514 27.9375C81.5786 27.9375 82.6879 28.2195 83.6782 28.7578C84.5961 29.2869 85.3581 30.0489 85.8872 30.9667C86.5329 32.0304 86.9736 33.2057 87.1865 34.4318C87.479 35.8569 87.624 37.3082 87.6195 38.763C87.6281 40.218 87.483 41.6698 87.1865 43.0943C86.9809 44.3358 86.5399 45.5266 85.8872 46.6026C85.3581 47.5205 84.5961 48.2824 83.6782 48.8116C82.7161 49.362 81.6248 49.646 80.5165 49.6345C79.3801 49.651 78.2595 49.3671 77.268 48.8116C76.3245 48.2864 75.5334 47.5252 74.9723 46.6026C74.3572 45.5044 73.9049 44.3226 73.6296 43.0943C73.3331 41.6698 73.1881 40.218 73.1966 38.763H73.2397ZM76.9648 38.763C76.8717 40.7676 77.1808 42.7705 77.8742 44.6536C78.0699 45.1978 78.4288 45.6685 78.9015 46.0018C79.3742 46.335 79.9381 46.5145 80.5165 46.516C81.094 46.5374 81.6629 46.372 82.1388 46.0442C82.6148 45.7165 82.9725 45.244 83.1585 44.6968C83.7741 42.7821 84.0382 40.7718 83.9381 38.763C84.0303 36.7797 83.7512 34.7966 83.1151 32.9158C82.9249 32.368 82.5676 31.8937 82.0936 31.5596C81.6197 31.2255 81.053 31.0485 80.4731 31.0534C79.8863 31.0447 79.3124 31.2254 78.8365 31.5687C78.3605 31.912 78.0078 32.3996 77.8308 32.9591C77.202 34.8267 76.923 36.7943 77.0079 38.763H76.9648Z" fill="black" fill-opacity="0.2"/>
<path d="M105.856 37.1184V40.1936H92.6021V37.1184H105.856Z" fill="#9419FF"/>
<path d="M105.856 37.1184V40.1936H92.6021V37.1184H105.856Z" fill="black" fill-opacity="0.2"/>
<path d="M122.615 28.0667V31.575H115.511L114.905 35.9062H115.425H116.118C117.017 35.8918 117.912 36.0384 118.76 36.3394C119.567 36.6556 120.305 37.1284 120.929 37.7305C121.553 38.3326 122.053 39.0521 122.398 39.8477C122.761 40.7563 122.937 41.7283 122.918 42.7063C122.952 43.7782 122.745 44.844 122.311 45.8248C121.957 46.7009 121.409 47.4855 120.709 48.1204C120.03 48.7451 119.236 49.2307 118.37 49.5497C117.451 49.8679 116.484 50.029 115.511 50.0262C114.921 50.0902 114.326 50.0902 113.736 50.0262C113.123 49.9105 112.527 49.7215 111.96 49.4631C111.411 49.2119 110.889 48.9072 110.4 48.5535C109.905 48.1673 109.48 47.6984 109.144 47.1675L111.18 44.4822C111.668 45.1704 112.324 45.7221 113.086 46.0847C113.853 46.4682 114.697 46.6753 115.555 46.6911C116.037 46.7136 116.519 46.6324 116.967 46.4531C117.415 46.2738 117.82 46.0005 118.153 45.6516C118.804 44.8951 119.143 43.9203 119.103 42.9236C119.062 41.9269 118.646 40.9825 117.937 40.2808C116.972 39.5035 115.751 39.117 114.515 39.198C113.824 39.1337 113.128 39.1337 112.436 39.198L110.92 39.5878L112.35 28.11L122.615 28.0667Z" fill="#9419FF"/>
<path d="M122.615 28.0667V31.575H115.511L114.905 35.9062H115.425H116.118C117.017 35.8918 117.912 36.0384 118.76 36.3394C119.567 36.6556 120.305 37.1284 120.929 37.7305C121.553 38.3326 122.053 39.0521 122.398 39.8477C122.761 40.7563 122.937 41.7283 122.918 42.7063C122.952 43.7782 122.745 44.844 122.311 45.8248C121.957 46.7009 121.409 47.4855 120.709 48.1204C120.03 48.7451 119.236 49.2307 118.37 49.5497C117.451 49.8679 116.484 50.029 115.511 50.0262C114.921 50.0902 114.326 50.0902 113.736 50.0262C113.123 49.9105 112.527 49.7215 111.96 49.4631C111.411 49.2119 110.889 48.9072 110.4 48.5535C109.905 48.1673 109.48 47.6984 109.144 47.1675L111.18 44.4822C111.668 45.1704 112.324 45.7221 113.086 46.0847C113.853 46.4682 114.697 46.6753 115.555 46.6911C116.037 46.7136 116.519 46.6324 116.967 46.4531C117.415 46.2738 117.82 46.0005 118.153 45.6516C118.804 44.8951 119.143 43.9203 119.103 42.9236C119.062 41.9269 118.646 40.9825 117.937 40.2808C116.972 39.5035 115.751 39.117 114.515 39.198C113.824 39.1337 113.128 39.1337 112.436 39.198L110.92 39.5878L112.35 28.11L122.615 28.0667Z" fill="black" fill-opacity="0.2"/>
<path d="M139.075 28.0652V31.5736H131.972L131.366 35.9048H131.929H132.578C133.492 35.8898 134.401 36.0364 135.264 36.3379C136.072 36.6479 136.809 37.1195 137.429 37.7239C138.05 38.3225 138.538 39.0459 138.859 39.8463C139.221 40.7549 139.398 41.7269 139.379 42.7049C139.405 43.7719 139.213 44.8331 138.815 45.8234C138.445 46.6909 137.9 47.4724 137.213 48.119C136.52 48.7249 135.729 49.2082 134.874 49.5483C133.939 49.8642 132.959 50.0252 131.972 50.0248C130.749 50.0327 129.539 49.7818 128.421 49.2885C127.877 49.0275 127.356 48.7233 126.861 48.3789C126.379 47.9914 125.969 47.5223 125.649 46.9929L127.684 44.3075C128.149 45.0167 128.811 45.5739 129.59 45.91C130.356 46.2977 131.2 46.5052 132.059 46.5164C132.534 46.5327 133.007 46.4485 133.447 46.2694C133.888 46.0903 134.285 45.8202 134.614 45.4769C134.949 45.1346 135.21 44.7275 135.381 44.2806C135.552 43.8336 135.63 43.3564 135.61 42.8782C135.613 42.357 135.507 41.841 135.298 41.3635C135.089 40.886 134.782 40.4576 134.398 40.1062C133.446 39.3354 132.241 38.9491 131.019 39.0233C130.328 38.9553 129.632 38.9553 128.94 39.0233C128.425 39.1101 127.918 39.2405 127.424 39.4131L128.854 27.9353L139.075 28.0652Z" fill="#9419FF"/>
<path d="M139.075 28.0652V31.5736H131.972L131.366 35.9048H131.929H132.578C133.492 35.8898 134.401 36.0364 135.264 36.3379C136.072 36.6479 136.809 37.1195 137.429 37.7239C138.05 38.3225 138.538 39.0459 138.859 39.8463C139.221 40.7549 139.398 41.7269 139.379 42.7049C139.405 43.7719 139.213 44.8331 138.815 45.8234C138.445 46.6909 137.9 47.4724 137.213 48.119C136.52 48.7249 135.729 49.2082 134.874 49.5483C133.939 49.8642 132.959 50.0252 131.972 50.0248C130.749 50.0327 129.539 49.7818 128.421 49.2885C127.877 49.0275 127.356 48.7233 126.861 48.3789C126.379 47.9914 125.969 47.5223 125.649 46.9929L127.684 44.3075C128.149 45.0167 128.811 45.5739 129.59 45.91C130.356 46.2977 131.2 46.5052 132.059 46.5164C132.534 46.5327 133.007 46.4485 133.447 46.2694C133.888 46.0903 134.285 45.8202 134.614 45.4769C134.949 45.1346 135.21 44.7275 135.381 44.2806C135.552 43.8336 135.63 43.3564 135.61 42.8782C135.613 42.357 135.507 41.841 135.298 41.3635C135.089 40.886 134.782 40.4576 134.398 40.1062C133.446 39.3354 132.241 38.9491 131.019 39.0233C130.328 38.9553 129.632 38.9553 128.94 39.0233C128.425 39.1101 127.918 39.2405 127.424 39.4131L128.854 27.9353L139.075 28.0652Z" fill="black" fill-opacity="0.2"/>
<path d="M82.7235 78.9138H78.089L72.5884 71.9404L77.5692 65.0537H81.9005L76.5298 71.6372L82.7235 78.9138ZM72.4584 65.0537V78.9138H68.9067V65.0537H72.4584Z" fill="#9419FF"/>
<path d="M82.7235 78.9138H78.089L72.5884 71.9404L77.5692 65.0537H81.9005L76.5298 71.6372L82.7235 78.9138ZM72.4584 65.0537V78.9138H68.9067V65.0537H72.4584Z" fill="black" fill-opacity="0.2"/>
<path d="M90.0464 60.853V78.9144H86.2782V57.2581H103.603V78.9144H99.8351V60.853H90.0464Z" fill="#9419FF"/>
<path d="M90.0464 60.853V78.9144H86.2782V57.2581H103.603V78.9144H99.8351V60.853H90.0464Z" fill="black" fill-opacity="0.2"/>
<path d="M119.583 57.2581L128.722 78.9144H124.694L122.615 73.4137H113.39L111.137 78.9144H107.326L116.422 57.2581H119.583ZM120.969 69.8621L117.851 62.1524L114.646 69.8621H120.969Z" fill="#9419FF"/>
<path d="M119.583 57.2581L128.722 78.9144H124.694L122.615 73.4137H113.39L111.137 78.9144H107.326L116.422 57.2581H119.583ZM120.969 69.8621L117.851 62.1524L114.646 69.8621H120.969Z" fill="black" fill-opacity="0.2"/>
</svg>
