<svg width="30" height="30" viewBox="0 0 30 30" fill="none" xmlns="http://www.w3.org/2000/svg">
<path fill-rule="evenodd" clip-rule="evenodd" d="M2.43934 4.56066C1.85355 3.97487 1.85355 3.02513 2.43934 2.43934C3.02513 1.85355 3.97487 1.85355 4.56066 2.43934L15 12.8787L25.4393 2.43934C26.0251 1.85355 26.9749 1.85355 27.5607 2.43934C28.1465 3.02513 28.1465 3.97487 27.5607 4.56066L17.1213 15L27.5607 25.4393C28.1464 26.0251 28.1464 26.9749 27.5607 27.5607C26.9749 28.1464 26.0251 28.1464 25.4393 27.5607L15 17.1213L4.56066 27.5607C3.97487 28.1464 3.02513 28.1464 2.43934 27.5607C1.85356 26.9749 1.85356 26.0251 2.43934 25.4393L12.8787 15L2.43934 4.56066Z" fill="#6058A6"/>
<path d="M2.43934 2.43934L3.5 3.5L3.5 3.5L2.43934 2.43934ZM2.43934 4.56066L3.5 3.5L3.5 3.5L2.43934 4.56066ZM4.56066 2.43934L5.62132 1.37868L5.62132 1.37868L4.56066 2.43934ZM15 12.8787L13.9393 13.9393C14.5251 14.5251 15.4749 14.5251 16.0607 13.9393L15 12.8787ZM25.4393 2.43934L24.3787 1.37868L24.3787 1.37868L25.4393 2.43934ZM27.5607 2.43934L26.5 3.5V3.5L27.5607 2.43934ZM27.5607 4.56066L26.5 3.5L26.5 3.5L27.5607 4.56066ZM17.1213 15L16.0607 13.9393C15.4749 14.5251 15.4749 15.4749 16.0607 16.0607L17.1213 15ZM27.5607 25.4393L28.6213 24.3787L27.5607 25.4393ZM27.5607 27.5607L28.6213 28.6213L27.5607 27.5607ZM15 17.1213L16.0607 16.0607C15.4749 15.4749 14.5251 15.4749 13.9393 16.0607L15 17.1213ZM2.43934 27.5607L1.37868 28.6213H1.37868L2.43934 27.5607ZM2.43934 25.4393L1.37868 24.3787H1.37868L2.43934 25.4393ZM12.8787 15L13.9393 16.0607C14.2206 15.7794 14.3787 15.3978 14.3787 15C14.3787 14.6022 14.2206 14.2206 13.9393 13.9393L12.8787 15ZM1.37868 1.37868C0.207107 2.55025 0.207107 4.44975 1.37868 5.62132L3.5 3.5V3.5L1.37868 1.37868ZM5.62132 1.37868C4.44975 0.207107 2.55025 0.207107 1.37868 1.37868L3.5 3.5H3.5L5.62132 1.37868ZM16.0607 11.818L5.62132 1.37868L3.5 3.5L13.9393 13.9393L16.0607 11.818ZM16.0607 13.9393L26.5 3.5L24.3787 1.37868L13.9393 11.818L16.0607 13.9393ZM26.5 3.5H26.5L28.6213 1.37868C27.4497 0.207107 25.5503 0.207107 24.3787 1.37868L26.5 3.5ZM26.5 3.5V3.5L28.6213 5.62132C29.7929 4.44975 29.7929 2.55025 28.6213 1.37868L26.5 3.5ZM26.5 3.5L16.0607 13.9393L18.182 16.0607L28.6213 5.62132L26.5 3.5ZM28.6213 24.3787L18.182 13.9393L16.0607 16.0607L26.5 26.5L28.6213 24.3787ZM28.6213 28.6213C29.7929 27.4497 29.7929 25.5503 28.6213 24.3787L26.5 26.5V26.5L28.6213 28.6213ZM24.3787 28.6213C25.5503 29.7929 27.4497 29.7929 28.6213 28.6213L26.5 26.5L24.3787 28.6213ZM13.9393 18.182L24.3787 28.6213L26.5 26.5L16.0607 16.0607L13.9393 18.182ZM13.9393 16.0607L3.5 26.5L5.62132 28.6213L16.0607 18.182L13.9393 16.0607ZM3.5 26.5H3.5L1.37868 28.6213C2.55025 29.7929 4.44975 29.7929 5.62132 28.6213L3.5 26.5ZM3.5 26.5V26.5L1.37868 24.3787C0.207109 25.5503 0.207109 27.4497 1.37868 28.6213L3.5 26.5ZM3.5 26.5L13.9393 16.0607L11.818 13.9393L1.37868 24.3787L3.5 26.5ZM1.37868 5.62132L11.818 16.0607L13.9393 13.9393L3.5 3.5L1.37868 5.62132Z" fill="#6058A6"/>
</svg>
