<svg width="29" height="27" viewBox="0 0 29 27" fill="none" xmlns="http://www.w3.org/2000/svg">
<path d="M10.0437 16.289C9.28987 14.7336 9.01465 14.3275 8.85337 14.0393C8.15217 12.7902 7.46499 11.5231 6.63055 10.361C5.97318 9.44737 5.31229 8.52102 4.57603 7.65811C3.26828 6.12808 2.25855 7.01274 1.12961 7.78138C0.438929 8.25091 -0.0904799 9.07212 0.0129476 9.92052C0.167212 11.2203 0.86491 12.1902 1.55735 13.2181C2.50923 14.6339 10.0261 26.1109 10.105 26.4463C13.2411 18.7254 14.6891 16.3198 17.5343 11.5974C20.3776 6.87497 23.9415 2.02021 28.9972 0.116733C25.0617 -0.543137 21.1945 1.69027 18.1934 4.40408C14.8452 7.43332 11.9755 12.1467 10.0437 16.289Z" fill="#BAFF33"/>
</svg>
