<svg width="38" height="35" viewBox="0 0 38 35" fill="none" xmlns="http://www.w3.org/2000/svg">
<path d="M13.1619 21.4868C12.1741 19.435 11.8134 18.8994 11.6021 18.5192C10.6832 16.8716 9.78265 15.2001 8.68915 13.6672C7.82768 12.462 6.96161 11.2401 5.99676 10.1018C4.28299 8.08354 2.95977 9.25049 1.48033 10.2644C0.575203 10.8838 -0.118571 11.967 0.0169675 13.0861C0.219127 14.8007 1.13344 16.0801 2.04086 17.4359C3.28828 19.3035 13.139 34.4429 13.2423 34.8852C17.3522 24.7007 19.2497 21.5274 22.9782 15.2981C26.7043 9.06876 31.3747 2.66485 38 0.153983C32.8426 -0.716451 27.7749 2.22963 23.8419 5.80941C19.4542 9.80528 15.6935 16.0227 13.1619 21.4868Z" fill="white"/>
</svg>
