<svg width="24" height="22" viewBox="0 0 24 22" fill="none" xmlns="http://www.w3.org/2000/svg">
<path d="M8.25734 13.4801C7.63761 12.1929 7.41134 11.8568 7.27875 11.6183C6.70226 10.5846 6.1373 9.53598 5.45127 8.57434C4.91081 7.81823 4.36747 7.05162 3.76216 6.33751C2.687 5.07133 1.85685 5.80344 0.928706 6.43953C0.360863 6.82809 -0.0743875 7.50769 0.0106448 8.20979C0.137473 9.28545 0.711081 10.0881 1.28036 10.9387C2.06295 12.1104 8.24293 21.6082 8.30778 21.8858C10.8861 15.4964 12.0766 13.5056 14.4157 9.59749C16.7534 5.68942 19.6834 1.67183 23.8399 0.0966033C20.6043 -0.449477 17.425 1.39879 14.9576 3.64462C12.2049 6.15149 9.84557 10.0521 8.25734 13.4801Z" fill="white"/>
</svg>
