<svg width="486" height="55" viewBox="0 0 486 55" fill="none" xmlns="http://www.w3.org/2000/svg">
<g clip-path="url(#clip0_1303_423)">
<path d="M22.1404 32.0284V13.6828C16.8572 19.4236 10.1804 22.9804 2.10998 24.3532C1.27798 24.478 0.695581 24.1244 0.362782 23.2924C0.362782 22.4604 0.799582 21.9612 1.67318 21.7948C9.70198 20.4636 16.2124 16.782 21.2044 10.75C21.9532 9.75163 22.5564 8.73243 23.014 7.69243C23.5132 6.61083 23.9084 5.50843 24.1996 4.38523H1.36118C0.529182 4.30203 0.0923814 3.84443 0.0507812 3.01243C0.175581 2.30523 0.612381 1.88923 1.36118 1.76442H48.0988C48.806 1.88923 49.222 2.30523 49.3468 3.01243C49.3052 3.88603 48.8892 4.34363 48.0988 4.38523H26.8204C26.3628 6.46523 25.6764 8.37883 24.7612 10.126C24.8028 10.1676 24.8236 10.2092 24.8236 10.2508C24.8236 10.2508 24.8444 10.2716 24.886 10.3132C26.134 12.31 27.7356 14.0572 29.6908 15.5548C34.974 19.4652 40.902 21.7116 47.4748 22.294C48.4316 22.3772 48.9308 22.8556 48.9724 23.7292C48.7228 24.6028 48.1404 24.9772 47.2252 24.8524C43.6892 24.5196 40.3196 23.7708 37.1164 22.606C33.9132 21.3996 30.8972 19.7356 28.0684 17.614C26.862 16.782 25.7596 15.7628 24.7612 14.5564V32.0284H40.4236C41.3388 32.1532 41.7548 32.694 41.6716 33.6508C40.7564 39.766 39.9452 45.9228 39.238 52.1212C39.03 52.8284 38.614 53.2236 37.99 53.3068H8.91158C8.16278 53.2652 7.68438 52.8284 7.47638 51.9964C7.30998 45.8812 6.68598 39.766 5.60438 33.6508C5.52118 32.7772 5.95798 32.2364 6.91478 32.0284H22.1404ZM8.47478 34.7116C8.84918 37.374 9.16118 40.0364 9.41078 42.6988C9.70198 45.3196 9.90998 47.982 10.0348 50.686H36.6796C37.0124 47.982 37.3452 45.3196 37.678 42.6988C38.0524 40.0364 38.4476 37.374 38.8636 34.7116H8.47478ZM111.56 10.3132C111.518 10.6876 111.435 11.9148 111.31 13.9948C111.186 16.0748 110.957 19.0284 110.624 22.8556C110.624 23.1884 110.499 23.4588 110.25 23.6668C109.958 23.9164 109.667 24.0412 109.376 24.0412C109.002 24.0412 108.731 23.8956 108.565 23.6044C108.315 23.3548 108.19 23.0636 108.19 22.7308L109.064 11.1868L65.8828 10.9996L66.5068 23.0428C66.5068 23.334 66.4028 23.6252 66.1948 23.9164C65.9452 24.166 65.654 24.2908 65.3212 24.2908C64.9468 24.2908 64.6556 24.166 64.4476 23.9164C64.198 23.7084 64.0732 23.4172 64.0732 23.0428L63.3868 10.438C63.3868 9.73083 63.4492 9.23163 63.574 8.94043C63.6988 8.64923 64.0732 8.50363 64.6972 8.50363L85.726 8.56603V1.88923C85.726 1.51483 85.8508 1.20283 86.1004 0.95323C86.35 0.703628 86.6412 0.578827 86.974 0.578827C87.3068 0.578827 87.598 0.703628 87.8476 0.95323C88.0556 1.24443 88.1596 1.55643 88.1596 1.88923V8.62843L110.312 8.69083C110.603 8.69083 110.874 8.81563 111.123 9.06523C111.29 9.27323 111.414 9.54363 111.498 9.87643C111.539 9.95963 111.56 10.1052 111.56 10.3132ZM76.8028 33.6508C76.5116 35.3148 76.2412 36.646 75.9916 37.6444C75.742 38.6428 75.534 39.35 75.3676 39.766C75.118 40.4732 74.8268 41.1804 74.494 41.8876C74.1612 42.5948 73.8284 43.2812 73.4956 43.9468C75.2012 45.1116 77.0316 46.1516 78.9868 47.0668C80.942 47.9404 83.022 48.6892 85.2268 49.3132L85.2892 20.2348L71.1868 20.0476C70.8956 20.0476 70.6252 19.902 70.3756 19.6108C70.126 19.278 70.0012 18.966 70.0012 18.6748C70.0012 18.342 70.1468 18.0508 70.438 17.8012C70.7708 17.5932 71.062 17.4892 71.3116 17.4892L103.698 17.614C104.03 17.614 104.322 17.7388 104.571 17.9884C104.821 18.238 104.946 18.5292 104.946 18.862C104.946 19.1948 104.821 19.486 104.571 19.7356C104.363 19.9852 104.072 20.11 103.698 20.11L87.7852 20.2348L87.91 32.3404L102.949 32.278C103.24 32.278 103.531 32.4028 103.822 32.6524C104.072 32.9436 104.197 33.2348 104.197 33.526C104.197 33.8588 104.072 34.15 103.822 34.3996C103.531 34.6492 103.24 34.774 102.949 34.774L87.91 34.8364L87.6604 49.8748C94.3164 51.3724 101.514 51.7468 109.251 50.998C109.501 50.9564 109.792 51.0604 110.125 51.31C110.333 51.4348 110.478 51.6844 110.562 52.0588C110.603 52.3084 110.52 52.6204 110.312 52.9948C110.146 53.2444 109.854 53.4108 109.438 53.494C106.11 53.7852 102.782 53.8892 99.454 53.806C96.1676 53.7228 92.9228 53.4108 89.7196 52.87C83.1884 51.7052 77.3436 49.438 72.1852 46.0684C69.6892 49.3548 66.7772 51.622 63.4492 52.87C63.1164 52.9948 62.8044 52.974 62.5132 52.8076C62.1388 52.5996 61.9308 52.3708 61.8892 52.1212C61.7644 51.7884 61.7644 51.4972 61.8892 51.2476C62.014 50.9148 62.2428 50.686 62.5756 50.5612C63.782 50.1036 64.9052 49.5212 65.9452 48.814C67.0268 48.0652 68.0252 47.15 68.9404 46.0684C69.814 44.9868 70.6044 43.8428 71.3116 42.6364C72.0604 41.43 72.7052 40.1404 73.246 38.7676C73.3292 38.518 73.4748 37.9148 73.6828 36.958C73.8908 35.9596 74.1404 34.6284 74.4316 32.9644C74.4732 32.6732 74.6604 32.4028 74.9932 32.1532C75.2844 31.9868 75.6172 31.9452 75.9916 32.0284C76.2828 32.1532 76.5324 32.382 76.7404 32.7148C76.8652 33.006 76.886 33.318 76.8028 33.6508ZM173.461 8.00443C174.709 8.12923 175.166 9.06523 174.834 10.8124C172.962 11.2284 171.277 11.6028 169.779 11.9356C169.03 12.102 168.448 12.2268 168.032 12.31C167.616 12.3516 167.387 12.3724 167.346 12.3724C164.974 12.7468 162.707 13.5372 160.544 14.7436C156.758 16.7404 153.909 19.1948 151.995 22.1068C151.038 23.5212 150.227 25.102 149.562 26.8492C148.938 28.5548 148.48 30.406 148.189 32.4028C148.106 34.0252 148.251 35.5644 148.626 37.0204C149.042 38.4764 149.666 39.8908 150.498 41.2636C152.162 43.9676 154.907 46.2972 158.734 48.2524C159.525 49.126 159.774 49.854 159.483 50.4364C159.192 50.9772 158.506 51.1436 157.424 50.9356C153.139 48.7308 149.978 45.9644 147.939 42.6364C145.984 39.35 145.069 35.8348 145.194 32.0908C145.818 27.6396 147.19 23.7708 149.312 20.4844C151.434 17.198 155.24 14.1612 160.731 11.374L123.416 11.2492C122.293 10.7916 121.856 10.1884 122.106 9.43963C122.314 8.60763 122.854 8.23323 123.728 8.31643L173.461 8.00443ZM175.77 29.0956C176.061 30.0108 175.957 30.614 175.458 30.9052C174.917 31.1964 174.272 31.0716 173.523 30.5308C169.072 23.2924 166.95 19.4028 167.158 18.862C167.366 18.4044 167.762 18.0508 168.344 17.8012C168.885 17.5932 169.53 17.926 170.278 18.7996L175.77 29.0956ZM167.221 33.2764C167.221 34.3164 166.971 34.9404 166.472 35.1484C165.973 35.3148 165.328 35.19 164.538 34.774L159.046 23.542C158.797 22.6268 159.046 21.9404 159.795 21.4828C160.419 21.0668 161.085 21.3372 161.792 22.294L167.221 33.2764ZM212.523 27.0364C211.858 25.4556 211.213 23.8332 210.589 22.1692C210.006 20.5052 209.424 18.7788 208.842 16.99L189.061 17.4892C187.854 17.3644 187.251 16.9276 187.251 16.1788C187.251 15.4716 187.771 15.0348 188.811 14.8684L208.093 14.2444C207.677 12.622 207.219 10.8956 206.72 9.06523C206.221 7.19323 205.68 5.21723 205.098 3.13723C204.931 2.09723 205.222 1.49403 205.971 1.32763C206.803 1.11963 207.406 1.55643 207.781 2.63802C208.322 4.84283 208.842 6.92283 209.341 8.87803C209.882 10.7916 210.36 12.5596 210.776 14.182L234.301 14.1196C235.258 14.5772 235.757 15.014 235.798 15.43C235.798 15.8876 235.299 16.3452 234.301 16.8028L211.587 16.8652C212.17 18.7372 212.773 20.526 213.397 22.2316C214.021 23.9372 214.666 25.5388 215.331 27.0364L231.867 27.0988C232.907 27.4732 233.365 27.91 233.24 28.4092C233.074 28.95 232.533 29.4076 231.618 29.782L216.517 29.6572C217.89 32.486 219.221 35.0236 220.51 37.27C220.718 38.2684 220.552 38.934 220.011 39.2668C219.429 39.5996 218.888 39.3708 218.389 38.5804C216.725 35.918 215.144 32.9436 213.646 29.6572L188.811 30.4684C187.813 30.3852 187.272 29.99 187.189 29.2828C187.064 28.5756 187.522 28.0972 188.562 27.8476L212.523 27.0364ZM198.67 42.574C198.837 46.5676 200.917 49.2716 204.91 50.686C206.158 51.1852 207.843 51.5388 209.965 51.7468C212.128 51.9964 214.728 52.1004 217.765 52.0588C218.763 52.6412 219.054 53.2652 218.638 53.9308C218.139 54.638 216.475 54.9708 213.646 54.9292C212.232 54.8876 210.672 54.742 208.966 54.4924C207.302 54.2428 205.493 53.91 203.538 53.494C198.837 51.414 196.362 47.7948 196.112 42.6364C196.237 41.638 196.59 41.1388 197.173 41.1388C197.714 41.1388 198.213 41.6172 198.67 42.574ZM248.278 14.182C247.53 14.1404 247.072 13.7452 246.906 12.9964C246.739 12.3308 247.197 11.8316 248.278 11.4988L264.003 11.3116C264.71 8.44123 265.147 5.65403 265.314 2.95003C265.522 2.11803 265.917 1.68123 266.499 1.63963C267.082 1.55643 267.518 2.03483 267.81 3.07483C267.768 4.44763 267.643 5.82043 267.435 7.19323C267.227 8.56603 266.936 9.95963 266.562 11.374L278.73 11.4988C279.562 11.8732 280.019 12.31 280.102 12.8092C280.186 13.3916 279.728 13.8492 278.73 14.182L265.938 14.0572C263.733 21.4204 260.072 27.3276 254.955 31.7788C253.915 31.9036 253.27 31.8204 253.021 31.5292C252.771 31.1964 252.854 30.5724 253.27 29.6572C257.93 25.7468 261.258 20.5468 263.254 14.0572L248.278 14.182ZM299.821 26.5996C300.611 27.4732 300.861 28.1388 300.57 28.5964C300.278 29.1372 299.675 29.2412 298.76 28.9084L284.221 20.6092C283.763 19.694 283.742 18.9868 284.158 18.4876C284.616 17.9468 285.219 17.9676 285.968 18.55L299.821 26.5996ZM278.73 38.518C279.853 38.9756 281.101 39.5996 282.474 40.39C283.846 41.1388 285.323 42.054 286.904 43.1356C287.362 44.134 287.424 44.862 287.091 45.3196C286.717 45.7772 286.176 45.8188 285.469 45.4444C282.89 43.5308 280.56 42.158 278.48 41.326C277.606 48.1484 275.194 51.9132 271.242 52.6204C267.331 53.286 264.586 52.7452 263.005 50.998C261.424 49.1676 260.613 47.3372 260.571 45.5068C260.53 43.6348 260.883 42.0332 261.632 40.702C262.298 39.3708 263.358 38.31 264.814 37.5196C266.187 36.7708 267.914 36.3548 269.994 36.2716C272.032 36.2716 274.133 36.75 276.296 37.7068L275.984 26.2252C276.192 25.1436 276.65 24.6236 277.357 24.6652C278.022 24.7484 278.418 25.2684 278.542 26.2252L278.73 38.518ZM276.046 40.5148C274.174 39.5164 272.323 39.0172 270.493 39.0172C268.787 39.0172 267.373 39.246 266.25 39.7036C265.168 40.2028 264.315 41.326 263.691 43.0732C263.026 44.7788 263.275 46.526 264.44 48.3148C265.563 50.062 267.622 50.6444 270.618 50.062C273.613 49.5212 275.422 46.3388 276.046 40.5148ZM351.55 14.182C354.254 17.4684 356.438 21.358 358.102 25.8508C359.725 32.0492 360.723 37.4364 361.098 42.0124C360.931 42.8028 360.515 43.2396 359.85 43.3228C359.226 43.3644 358.726 43.0108 358.352 42.262C358.227 40.0572 357.936 37.7692 357.478 35.398C357.021 32.9852 356.418 30.51 355.669 27.9724C354.088 22.8972 352.029 18.7996 349.491 15.6796C349.2 14.6812 349.283 14.0572 349.741 13.8076C350.157 13.558 350.76 13.6828 351.55 14.182ZM315.296 15.5548C314.922 20.7548 315.046 25.8508 315.67 30.8428C316.294 35.8764 317.605 40.0988 319.602 43.51C321.682 47.046 323.658 49.1468 325.53 49.8124L330.896 43.51C331.645 43.2188 332.29 43.2188 332.83 43.51C333.33 43.8844 333.288 44.4876 332.706 45.3196C332.206 46.0268 331 47.4828 329.086 49.6876C327.173 51.8092 325.197 52.4332 323.158 51.5596C321.078 50.686 319.019 48.4188 316.981 44.758C314.984 41.0556 313.611 36.6044 312.862 31.4044C312.488 28.7836 312.259 26.142 312.176 23.4796C312.093 20.8172 312.155 18.134 312.363 15.43C312.571 14.5148 313.091 14.0988 313.923 14.182C314.714 14.2652 315.171 14.7228 315.296 15.5548ZM401.533 1.82683C402.323 1.66043 402.906 1.91003 403.28 2.57563C403.613 3.36603 403.363 3.99003 402.531 4.44763C398.954 5.98683 395.293 7.08923 391.549 7.75483L391.362 16.3036H400.597C401.47 16.3452 401.949 16.7612 402.032 17.5516C401.949 18.4252 401.47 18.9036 400.597 18.9868H391.299V19.8604C393.13 24.3116 396.125 27.9308 400.285 30.718C400.992 31.1756 401.158 31.8412 400.784 32.7148C400.243 33.214 399.557 33.3388 398.725 33.0892C395.771 31.0092 393.296 28.5132 391.299 25.6012L391.05 52.1836C390.925 53.0988 390.405 53.5772 389.49 53.6188C388.658 53.5356 388.242 53.0156 388.242 52.0588L388.366 25.7884C386.037 32.4444 382.168 38.2476 376.76 43.198C375.013 43.4892 374.368 42.782 374.826 41.0764C378.112 37.998 380.816 34.6284 382.938 30.9676C385.101 27.3068 386.702 23.3548 387.742 19.1116H375.637C374.763 18.9868 374.285 18.5084 374.202 17.6764C374.243 16.9276 374.722 16.4908 375.637 16.366L388.554 16.3036L388.678 8.37883C386.515 8.79483 384.352 9.10683 382.189 9.31483C380.026 9.48123 377.862 9.56443 375.699 9.56443C374.867 9.35643 374.389 8.87803 374.264 8.12923C374.306 7.33883 374.784 6.90203 375.699 6.81883C385.142 6.36123 393.608 4.73883 401.096 1.95163C401.179 1.91003 401.262 1.88923 401.346 1.88923C401.429 1.88923 401.491 1.86843 401.533 1.82683ZM421.064 5.82043C422.104 5.69563 422.728 6.11163 422.936 7.06843L423.061 51.0604C422.811 52.1836 422.104 52.558 420.939 52.1836L412.078 47.0044C411.413 46.5052 411.246 45.902 411.579 45.1948C412.078 44.4044 412.765 44.2588 413.638 44.758L420.315 48.502L420.128 7.06843C420.128 6.40283 420.44 5.98683 421.064 5.82043ZM409.083 13.8076C410.123 13.766 410.726 14.2028 410.893 15.118L410.83 38.0812C410.789 38.9548 410.31 39.4124 409.395 39.454C408.605 39.4124 408.106 38.9548 407.898 38.0812L407.96 15.118C408.043 14.4108 408.418 13.974 409.083 13.8076ZM478.222 21.6076C478.098 21.982 477.994 22.3564 477.91 22.7308C477.827 23.1052 477.744 23.5212 477.661 23.9788C477.453 24.894 477.328 25.6428 477.286 26.2252C477.245 26.558 477.162 26.9532 477.037 27.4108C476.954 27.8684 476.87 28.3468 476.787 28.846C476.579 29.9692 476.454 30.7388 476.413 31.1548C476.371 31.4044 476.33 31.758 476.288 32.2156C476.246 32.6316 476.184 33.1308 476.101 33.7132C476.018 34.3788 475.955 34.9196 475.914 35.3356C475.872 35.7516 475.83 36.0636 475.789 36.2716C475.706 36.6876 475.539 36.9996 475.29 37.2076C475.082 37.4988 474.707 37.6028 474.166 37.5196H474.042L450.018 37.7068C449.81 37.8732 449.581 37.9772 449.331 38.0188C448.582 38.1436 448.104 37.8316 447.896 37.0828C447.646 36.8748 447.522 36.5628 447.522 36.1468V35.71C447.397 35.0444 447.272 34.15 447.147 33.0268C447.022 31.9036 446.877 30.5308 446.71 28.9084C446.586 27.286 446.44 25.8716 446.274 24.6652C446.107 23.4588 445.941 22.4604 445.774 21.67C445.691 21.3372 445.65 21.1084 445.65 20.9836C445.65 20.4428 445.774 20.0892 446.024 19.9228C446.274 19.6732 446.606 19.5484 447.022 19.5484H447.085L459.378 19.4236C459.378 19.382 459.378 18.6748 459.378 17.302C459.419 15.9292 459.461 13.8908 459.502 11.1868C459.544 8.48283 459.544 6.36123 459.502 4.82203C459.502 3.28283 459.461 2.30523 459.378 1.88923C459.378 1.51483 459.502 1.18203 459.752 0.890827C460.002 0.558029 460.334 0.370829 460.75 0.329227C461.166 0.287627 461.541 0.391629 461.874 0.64123C462.165 0.932429 462.31 1.28603 462.31 1.70203C462.394 2.65883 462.456 3.67803 462.498 4.75963C462.539 5.84123 462.56 6.98523 462.56 8.19163L480.282 8.31643C480.656 8.31643 480.989 8.46203 481.28 8.75323C481.571 9.04443 481.717 9.35643 481.717 9.68923C481.717 10.1052 481.571 10.4588 481.28 10.75C480.947 11.0828 480.614 11.2492 480.282 11.2492L462.498 11.062L462.31 19.4236L476.974 19.6732C477.349 19.6732 477.661 19.798 477.91 20.0476C478.16 20.2972 478.285 20.6508 478.285 21.1084C478.285 21.358 478.264 21.5036 478.222 21.5452V21.6076ZM473.106 34.6492C473.522 31.8204 473.875 29.4076 474.166 27.4108C474.499 25.3724 474.811 23.7292 475.102 22.4812L448.832 22.4188C448.957 23.0844 449.082 23.9372 449.206 24.9772C449.331 26.0172 449.414 27.2236 449.456 28.5964C449.622 30.094 449.768 31.3628 449.893 32.4028C450.059 33.4012 450.184 34.1916 450.267 34.774L473.106 34.6492ZM467.115 41.7628C467.323 42.3452 467.594 43.094 467.926 44.0092C468.301 44.8828 468.758 45.9228 469.299 47.1292C469.798 48.3772 470.214 49.4588 470.547 50.374C470.88 51.2892 471.13 52.0796 471.296 52.7452C471.504 53.2028 471.504 53.598 471.296 53.9308C471.088 54.2636 470.818 54.4924 470.485 54.6172C470.152 54.742 469.778 54.7004 469.362 54.4924C469.029 54.326 468.779 54.0556 468.613 53.6812C468.446 53.0988 468.176 52.35 467.802 51.4348C467.469 50.5612 467.032 49.4796 466.491 48.19C465.95 46.942 465.514 45.8396 465.181 44.8828C464.848 43.926 464.598 43.1356 464.432 42.5116C464.266 42.1788 464.286 41.7836 464.494 41.326C464.661 40.91 464.931 40.6812 465.306 40.6396C465.638 40.5564 466.013 40.6188 466.429 40.8268C466.803 40.9516 467.032 41.2636 467.115 41.7628ZM479.221 41.4508C480.261 43.5724 482.133 46.6716 484.837 50.7484C485.045 51.1228 485.128 51.4556 485.086 51.7468C485.045 52.1212 484.816 52.4332 484.4 52.6828C484.026 52.9324 483.672 53.0156 483.339 52.9324C483.09 52.8908 482.778 52.6828 482.403 52.3084C480.989 50.2284 479.803 48.398 478.846 46.8172C477.931 45.1948 477.224 43.8636 476.725 42.8236C476.517 42.4492 476.475 42.054 476.6 41.638C476.683 41.222 476.912 40.9516 477.286 40.8268C477.536 40.6604 477.91 40.6188 478.41 40.702C478.826 40.8268 479.096 41.0764 479.221 41.4508ZM446.211 42.8236C445.712 44.0716 445.026 45.382 444.152 46.7548C443.736 47.462 443.362 48.0652 443.029 48.5644C442.696 49.0636 442.405 49.4796 442.155 49.8124C441.906 50.1868 441.573 50.6444 441.157 51.1852C440.741 51.726 440.2 52.3916 439.534 53.182C439.368 53.4732 439.077 53.6604 438.661 53.7436C438.245 53.7436 437.87 53.6396 437.538 53.4316C437.205 53.182 437.018 52.8492 436.976 52.4332C436.934 51.9756 437.038 51.622 437.288 51.3724L439.784 48.0652C440.075 47.7324 440.366 47.3372 440.658 46.8796C440.99 46.422 441.344 45.8812 441.718 45.2572C442.467 43.9676 443.05 42.8028 443.466 41.7628C443.549 41.3884 443.778 41.0972 444.152 40.8892C444.526 40.7644 444.901 40.7644 445.275 40.8892C445.691 40.9724 445.982 41.222 446.149 41.638C446.315 42.054 446.336 42.4492 446.211 42.8236ZM455.384 42.1372C455.592 42.8028 455.8 43.5932 456.008 44.5084C456.216 45.382 456.424 46.422 456.632 47.6284C456.84 48.8348 457.027 49.8748 457.194 50.7484C457.402 51.6636 457.589 52.4124 457.755 52.9948C457.88 53.3692 457.838 53.7228 457.63 54.0556C457.381 54.43 457.09 54.6796 456.757 54.8044C456.341 54.846 455.966 54.7836 455.634 54.6172C455.259 54.4092 455.03 54.0972 454.947 53.6812C454.906 53.3068 454.802 52.662 454.635 51.7468C454.469 50.8316 454.219 49.646 453.886 48.19C453.637 46.9836 453.408 45.9436 453.2 45.07C452.992 44.1964 452.805 43.4892 452.638 42.9484C452.597 42.5324 452.659 42.1372 452.826 41.7628C452.992 41.3884 453.283 41.1388 453.699 41.014C454.032 40.9308 454.386 40.9932 454.76 41.2012C455.093 41.4508 455.301 41.7628 455.384 42.1372Z" fill="white"/>
</g>
<defs>
<clipPath id="clip0_1303_423">
<rect width="486" height="55" fill="white"/>
</clipPath>
</defs>
</svg>
