<svg width="459" height="86" viewBox="0 0 459 86" fill="none" xmlns="http://www.w3.org/2000/svg">
<mask id="path-1-inside-1_635_1877" fill="white">
<path fill-rule="evenodd" clip-rule="evenodd" d="M20.6978 0C9.26673 0 0 9.26673 0 20.6978V65.3022C0 76.7333 9.26672 86 20.6978 86H428.302C439.733 86 449 76.7333 449 65.3022V61H452C455.866 61 459 57.866 459 54V31C459 27.6863 456.314 25 453 25H449V20.6978C449 9.26673 439.733 0 428.302 0H20.6978Z"/>
</mask>
<path d="M449 61V56H444V61H449ZM449 25H444V30H449V25ZM5 20.6978C5 12.0282 12.0282 5 20.6978 5V-5C6.5053 -5 -5 6.50531 -5 20.6978H5ZM5 65.3022V20.6978H-5V65.3022H5ZM20.6978 81C12.0281 81 5 73.9719 5 65.3022H-5C-5 79.4947 6.5053 91 20.6978 91V81ZM428.302 81H20.6978V91H428.302V81ZM444 65.3022C444 73.9718 436.972 81 428.302 81V91C442.495 91 454 79.4947 454 65.3022H444ZM444 61V65.3022H454V61H444ZM452 56H449V66H452V56ZM454 54C454 55.1046 453.105 56 452 56V66C458.627 66 464 60.6274 464 54H454ZM454 31V54H464V31H454ZM453 30C453.552 30 454 30.4477 454 31H464C464 24.9249 459.075 20 453 20V30ZM449 30H453V20H449V30ZM444 20.6978V25H454V20.6978H444ZM428.302 5C436.972 5 444 12.0282 444 20.6978H454C454 6.5053 442.495 -5 428.302 -5V5ZM20.6978 5H428.302V-5H20.6978V5Z" fill="white" mask="url(#path-1-inside-1_635_1877)"/>
</svg>
