<svg viewBox="0 0 441 237" fill="none" xmlns="http://www.w3.org/2000/svg" preserveAspectRatio="none">
<path d="M435.333 233.5C435.333 234.973 436.527 236.167 438 236.167C439.473 236.167 440.667 234.973 440.667 233.5C440.667 232.027 439.473 230.833 438 230.833C436.527 230.833 435.333 232.027 435.333 233.5ZM225 3.5L225.367 3.16026L225.218 3H225V3.5ZM0.333333 3.5C0.333333 4.97276 1.52724 6.16667 3 6.16667C4.47276 6.16667 5.66667 4.97276 5.66667 3.5C5.66667 2.02724 4.47276 0.833333 3 0.833333C1.52724 0.833333 0.333333 2.02724 0.333333 3.5ZM438.367 233.16L225.367 3.16026L224.633 3.83974L437.633 233.84L438.367 233.16ZM225 3H3V4H225V3Z" fill="white"/>
</svg>
