<svg viewBox="0 0 711 404" fill="none" xmlns="http://www.w3.org/2000/svg" preserveAspectRatio="none">
<path d="M704.833 3.5C704.833 4.97276 706.027 6.16667 707.5 6.16667C708.973 6.16667 710.167 4.97276 710.167 3.5C710.167 2.02724 708.973 0.833333 707.5 0.833333C706.027 0.833333 704.833 2.02724 704.833 3.5ZM392 401V401.5H392.241L392.392 401.311L392 401ZM0.833333 401C0.833333 402.473 2.02724 403.667 3.5 403.667C4.97276 403.667 6.16667 402.473 6.16667 401C6.16667 399.527 4.97276 398.333 3.5 398.333C2.02724 398.333 0.833333 399.527 0.833333 401ZM707.108 3.18916L391.608 400.689L392.392 401.311L707.892 3.81084L707.108 3.18916ZM392 400.5H3.5V401.5H392V400.5Z" fill="white"/>
</svg>
