<svg width="320" height="90" viewBox="0 0 320 90" fill="none" xmlns="http://www.w3.org/2000/svg">
<path d="M107.058 34.8581C107.659 35.0365 108.119 35.3276 108.439 35.7315C108.758 36.1353 108.918 36.6331 108.918 37.2248C108.918 38.0982 108.584 38.7791 107.917 39.2675C107.26 39.7558 106.316 40 105.086 40H100.226V30.1387H104.818C105.964 30.1387 106.856 30.3595 107.495 30.8009C108.133 31.2423 108.453 31.8715 108.453 32.6886C108.453 33.177 108.331 33.609 108.086 33.9846C107.842 34.3509 107.499 34.6421 107.058 34.8581ZM102.494 34.2241H104.621C105.119 34.2241 105.494 34.1255 105.748 33.9283C106.001 33.7217 106.128 33.4211 106.128 33.0267C106.128 32.6416 105.997 32.3458 105.734 32.1392C105.48 31.9326 105.109 31.8292 104.621 31.8292H102.494V34.2241ZM105.001 38.3095C106.072 38.3095 106.607 37.8869 106.607 37.0416C106.607 36.2245 106.072 35.816 105.001 35.816H102.494V38.3095H105.001ZM115.498 33.3789C116.7 33.3789 117.621 33.6465 118.259 34.1819C118.907 34.7172 119.231 35.5108 119.231 36.5626C119.231 37.6803 118.874 38.5349 118.161 39.1266C117.456 39.7089 116.461 40 115.174 40H110.722V30.1387H112.991V33.3789H115.498ZM115.047 38.3095C115.639 38.3095 116.099 38.1639 116.428 37.8728C116.766 37.5816 116.935 37.159 116.935 36.6049C116.935 35.5812 116.306 35.0694 115.047 35.0694H112.991V38.3095H115.047ZM120.485 30.1387H122.753V40H120.485V30.1387ZM129.872 40.169C128.867 40.169 127.956 39.953 127.139 39.521C126.331 39.0796 125.693 38.4739 125.223 37.7037C124.763 36.9242 124.533 36.0461 124.533 35.0694C124.533 34.0926 124.763 33.2192 125.223 32.4491C125.693 31.6696 126.331 31.0638 127.139 30.6318C127.956 30.1904 128.872 29.9697 129.886 29.9697C130.741 29.9697 131.511 30.12 132.196 30.4205C132.891 30.721 133.474 31.1531 133.943 31.7166L132.478 33.0689C131.811 32.2988 130.985 31.9138 129.999 31.9138C129.388 31.9138 128.843 32.05 128.365 32.3223C127.886 32.5853 127.51 32.9562 127.238 33.4352C126.975 33.9142 126.843 34.4589 126.843 35.0694C126.843 35.6798 126.975 36.2245 127.238 36.7035C127.51 37.1825 127.886 37.5582 128.365 37.8305C128.843 38.0935 129.388 38.225 129.999 38.225C130.985 38.225 131.811 37.8352 132.478 37.0557L133.943 38.4081C133.474 38.981 132.891 39.4177 132.196 39.7182C131.501 40.0188 130.727 40.169 129.872 40.169ZM139.929 40.169C138.906 40.169 137.981 39.9483 137.154 39.5069C136.337 39.0655 135.694 38.4598 135.224 37.6896C134.764 36.9101 134.534 36.0367 134.534 35.0694C134.534 34.102 134.764 33.2333 135.224 32.4632C135.694 31.6837 136.337 31.0732 137.154 30.6318C137.981 30.1904 138.906 29.9697 139.929 29.9697C140.953 29.9697 141.874 30.1904 142.691 30.6318C143.508 31.0732 144.151 31.6837 144.621 32.4632C145.09 33.2333 145.325 34.102 145.325 35.0694C145.325 36.0367 145.09 36.9101 144.621 37.6896C144.151 38.4598 143.508 39.0655 142.691 39.5069C141.874 39.9483 140.953 40.169 139.929 40.169ZM139.929 38.225C140.512 38.225 141.038 38.0935 141.507 37.8305C141.977 37.5582 142.343 37.1825 142.606 36.7035C142.878 36.2245 143.015 35.6798 143.015 35.0694C143.015 34.4589 142.878 33.9142 142.606 33.4352C142.343 32.9562 141.977 32.5853 141.507 32.3223C141.038 32.05 140.512 31.9138 139.929 31.9138C139.347 31.9138 138.821 32.05 138.352 32.3223C137.882 32.5853 137.511 32.9562 137.239 33.4352C136.976 33.9142 136.844 34.4589 136.844 35.0694C136.844 35.6798 136.976 36.2245 137.239 36.7035C137.511 37.1825 137.882 37.5582 138.352 37.8305C138.821 38.0935 139.347 38.225 139.929 38.225ZM150.901 36.0273H149.323V40H147.055V30.1387H149.323V34.1255H150.957L153.549 30.1387H155.958L152.732 34.9003L156.057 40H153.465L150.901 36.0273ZM163.611 37.8869H159.032L158.159 40H155.82L160.216 30.1387H162.47L166.879 40H164.484L163.611 37.8869ZM162.892 36.1541L161.329 32.3787L159.765 36.1541H162.892ZM175.553 30.1387V40H173.299V37.3797H171.214L169.467 40H167.058L169.115 37.0275C168.448 36.7552 167.936 36.3466 167.579 35.8019C167.222 35.2478 167.044 34.5857 167.044 33.8156C167.044 33.0549 167.218 32.4021 167.565 31.8574C167.913 31.3033 168.406 30.8807 169.044 30.5895C169.683 30.289 170.434 30.1387 171.298 30.1387H175.553ZM171.355 31.9983C170.707 31.9983 170.209 32.1486 169.861 32.4491C169.523 32.7496 169.354 33.1957 169.354 33.7874C169.354 34.3603 169.519 34.8017 169.847 35.1116C170.176 35.4216 170.66 35.5765 171.298 35.5765H173.299V31.9983H171.355ZM189.55 31.9983H186.394V40H184.14V31.9983H180.999V30.1387H189.55V31.9983ZM195.55 40.169C194.527 40.169 193.602 39.9483 192.775 39.5069C191.958 39.0655 191.315 38.4598 190.845 37.6896C190.385 36.9101 190.155 36.0367 190.155 35.0694C190.155 34.102 190.385 33.2333 190.845 32.4632C191.315 31.6837 191.958 31.0732 192.775 30.6318C193.602 30.1904 194.527 29.9697 195.55 29.9697C196.574 29.9697 197.494 30.1904 198.311 30.6318C199.129 31.0732 199.772 31.6837 200.241 32.4632C200.711 33.2333 200.946 34.102 200.946 35.0694C200.946 36.0367 200.711 36.9101 200.241 37.6896C199.772 38.4598 199.129 39.0655 198.311 39.5069C197.494 39.9483 196.574 40.169 195.55 40.169ZM195.55 38.225C196.133 38.225 196.659 38.0935 197.128 37.8305C197.598 37.5582 197.964 37.1825 198.227 36.7035C198.499 36.2245 198.635 35.6798 198.635 35.0694C198.635 34.4589 198.499 33.9142 198.227 33.4352C197.964 32.9562 197.598 32.5853 197.128 32.3223C196.659 32.05 196.133 31.9138 195.55 31.9138C194.968 31.9138 194.442 32.05 193.973 32.3223C193.503 32.5853 193.132 32.9562 192.86 33.4352C192.597 33.9142 192.465 34.4589 192.465 35.0694C192.465 35.6798 192.597 36.2245 192.86 36.7035C193.132 37.1825 193.503 37.5582 193.973 37.8305C194.442 38.0935 194.968 38.225 195.55 38.225ZM210.598 30.1387V40H208.344V36.45C207.489 36.7599 206.696 36.9148 205.963 36.9148C204.639 36.9148 203.625 36.6002 202.92 35.971C202.216 35.3323 201.864 34.4167 201.864 33.2239V30.1387H204.118V32.9703C204.118 33.6465 204.296 34.1584 204.653 34.5059C205.019 34.844 205.545 35.013 206.231 35.013C206.982 35.013 207.686 34.8675 208.344 34.5763V30.1387H210.598ZM222.094 30.1387V40H219.811V35.9569H215.332V40H213.049V30.1387H215.332V34.0269H219.811V30.1387H222.094ZM229.27 40.169C228.246 40.169 227.321 39.9483 226.494 39.5069C225.677 39.0655 225.034 38.4598 224.564 37.6896C224.104 36.9101 223.874 36.0367 223.874 35.0694C223.874 34.102 224.104 33.2333 224.564 32.4632C225.034 31.6837 225.677 31.0732 226.494 30.6318C227.321 30.1904 228.246 29.9697 229.27 29.9697C230.293 29.9697 231.214 30.1904 232.031 30.6318C232.848 31.0732 233.491 31.6837 233.961 32.4632C234.43 33.2333 234.665 34.102 234.665 35.0694C234.665 36.0367 234.43 36.9101 233.961 37.6896C233.491 38.4598 232.848 39.0655 232.031 39.5069C231.214 39.9483 230.293 40.169 229.27 40.169ZM229.27 38.225C229.852 38.225 230.378 38.0935 230.847 37.8305C231.317 37.5582 231.683 37.1825 231.946 36.7035C232.219 36.2245 232.355 35.6798 232.355 35.0694C232.355 34.4589 232.219 33.9142 231.946 33.4352C231.683 32.9562 231.317 32.5853 230.847 32.3223C230.378 32.05 229.852 31.9138 229.27 31.9138C228.687 31.9138 228.161 32.05 227.692 32.3223C227.222 32.5853 226.851 32.9562 226.579 33.4352C226.316 33.9142 226.184 34.4589 226.184 35.0694C226.184 35.6798 226.316 36.2245 226.579 36.7035C226.851 37.1825 227.222 37.5582 227.692 37.8305C228.161 38.0935 228.687 38.225 229.27 38.225ZM241.086 40.169C240.081 40.169 239.17 39.953 238.353 39.521C237.545 39.0796 236.907 38.4739 236.437 37.7037C235.977 36.9242 235.747 36.0461 235.747 35.0694C235.747 34.0926 235.977 33.2192 236.437 32.4491C236.907 31.6696 237.545 31.0638 238.353 30.6318C239.17 30.1904 240.086 29.9697 241.1 29.9697C241.955 29.9697 242.725 30.12 243.411 30.4205C244.106 30.721 244.688 31.1531 245.157 31.7166L243.692 33.0689C243.025 32.2988 242.199 31.9138 241.213 31.9138C240.602 31.9138 240.058 32.05 239.579 32.3223C239.1 32.5853 238.724 32.9562 238.452 33.4352C238.189 33.9142 238.057 34.4589 238.057 35.0694C238.057 35.6798 238.189 36.2245 238.452 36.7035C238.724 37.1825 239.1 37.5582 239.579 37.8305C240.058 38.0935 240.602 38.225 241.213 38.225C242.199 38.225 243.025 37.8352 243.692 37.0557L245.157 38.4081C244.688 38.981 244.106 39.4177 243.411 39.7182C242.716 40.0188 241.941 40.169 241.086 40.169ZM254.085 31.9983H250.93V40H248.676V31.9983H245.534V30.1387H254.085V31.9983ZM260.294 33.3789C261.496 33.3789 262.416 33.6465 263.055 34.1819C263.703 34.7172 264.027 35.5108 264.027 36.5626C264.027 37.6803 263.67 38.5349 262.956 39.1266C262.252 39.7089 261.257 40 259.97 40H255.518V30.1387H257.786V33.3789H260.294ZM259.843 38.3095C260.435 38.3095 260.895 38.1639 261.224 37.8728C261.562 37.5816 261.731 37.159 261.731 36.6049C261.731 35.5812 261.102 35.0694 259.843 35.0694H257.786V38.3095H259.843Z" fill="white"/>
<path d="M100.315 50.2944H101.239V55.7349L105.807 50.2944H106.627V57.1406H105.703V51.7001L101.148 57.1406H100.315V50.2944ZM112.468 53.5743C112.954 53.6871 113.327 53.8824 113.587 54.16C113.856 54.4377 113.991 54.7761 113.991 55.1753C113.991 55.5744 113.852 55.9302 113.574 56.2425C113.305 56.5549 112.936 56.7979 112.468 56.9714C111.999 57.1363 111.483 57.2187 110.919 57.2187C110.424 57.2187 109.938 57.1493 109.461 57.0105C108.984 56.863 108.567 56.6504 108.212 56.3727L108.524 55.6829C108.836 55.9172 109.201 56.0994 109.617 56.2295C110.034 56.3597 110.455 56.4248 110.88 56.4248C111.513 56.4248 112.03 56.3076 112.429 56.0733C112.836 55.8304 113.04 55.505 113.04 55.0972C113.04 54.7327 112.876 54.4507 112.546 54.2512C112.216 54.0429 111.765 53.9388 111.192 53.9388H110.021V53.262H111.14C111.652 53.262 112.064 53.1665 112.377 52.9756C112.689 52.7761 112.845 52.5114 112.845 52.1817C112.845 51.8172 112.667 51.5309 112.312 51.3226C111.964 51.1144 111.509 51.0103 110.945 51.0103C110.207 51.0103 109.478 51.1968 108.758 51.5699L108.498 50.8541C109.314 50.4289 110.16 50.2163 111.036 50.2163C111.557 50.2163 112.025 50.2944 112.442 50.4506C112.867 50.5981 113.197 50.8107 113.431 51.0884C113.674 51.366 113.795 51.6871 113.795 52.0515C113.795 52.3986 113.674 52.7066 113.431 52.9756C113.197 53.2446 112.876 53.4442 112.468 53.5743ZM123.742 50.2944V57.1406H122.896V51.7261L120.123 56.3076H119.707L116.934 51.7131V57.1406H116.088V50.2944H117.026L119.928 55.2273L122.883 50.2944H123.742ZM132.358 54.0039H126.632C126.684 54.7154 126.957 55.2924 127.452 55.7349C127.946 56.1688 128.571 56.3857 129.326 56.3857C129.751 56.3857 130.141 56.312 130.497 56.1645C130.853 56.0083 131.161 55.7827 131.421 55.4876L131.942 56.0864C131.638 56.4508 131.256 56.7285 130.797 56.9194C130.345 57.1103 129.846 57.2057 129.3 57.2057C128.597 57.2057 127.972 57.0582 127.426 56.7632C126.888 56.4595 126.467 56.043 126.163 55.5137C125.859 54.9844 125.707 54.3857 125.707 53.7175C125.707 53.0494 125.851 52.4507 126.137 51.9214C126.432 51.3921 126.831 50.9799 127.334 50.6849C127.846 50.3899 128.419 50.2423 129.052 50.2423C129.686 50.2423 130.254 50.3899 130.758 50.6849C131.261 50.9799 131.656 51.3921 131.942 51.9214C132.228 52.442 132.371 53.0407 132.371 53.7175L132.358 54.0039ZM129.052 51.0363C128.393 51.0363 127.838 51.2489 127.386 51.6741C126.944 52.0906 126.692 52.6372 126.632 53.314H131.486C131.426 52.6372 131.17 52.0906 130.718 51.6741C130.276 51.2489 129.721 51.0363 129.052 51.0363ZM137.944 50.2423C138.586 50.2423 139.168 50.3899 139.688 50.6849C140.209 50.9712 140.617 51.379 140.912 51.9083C141.207 52.4376 141.354 53.0407 141.354 53.7175C141.354 54.403 141.207 55.0104 140.912 55.5397C140.617 56.069 140.209 56.4812 139.688 56.7762C139.176 57.0625 138.595 57.2057 137.944 57.2057C137.389 57.2057 136.886 57.0929 136.434 56.8673C135.992 56.633 135.627 56.2946 135.341 55.8521V59.6657H134.417V50.2944H135.302V51.648C135.58 51.1968 135.944 50.8497 136.395 50.6068C136.855 50.3638 137.372 50.2423 137.944 50.2423ZM137.879 56.3857C138.356 56.3857 138.79 56.2773 139.181 56.0603C139.571 55.8347 139.875 55.518 140.092 55.1102C140.317 54.7024 140.43 54.2381 140.43 53.7175C140.43 53.1969 140.317 52.737 140.092 52.3379C139.875 51.93 139.571 51.6133 139.181 51.3877C138.79 51.1621 138.356 51.0493 137.879 51.0493C137.393 51.0493 136.955 51.1621 136.565 51.3877C136.183 51.6133 135.879 51.93 135.654 52.3379C135.437 52.737 135.328 53.1969 135.328 53.7175C135.328 54.2381 135.437 54.7024 135.654 55.1102C135.879 55.518 136.183 55.8347 136.565 56.0603C136.955 56.2773 137.393 56.3857 137.879 56.3857ZM149.327 54.0039H143.6C143.652 54.7154 143.926 55.2924 144.42 55.7349C144.915 56.1688 145.54 56.3857 146.294 56.3857C146.72 56.3857 147.11 56.312 147.466 56.1645C147.822 56.0083 148.13 55.7827 148.39 55.4876L148.911 56.0864C148.607 56.4508 148.225 56.7285 147.765 56.9194C147.314 57.1103 146.815 57.2057 146.268 57.2057C145.566 57.2057 144.941 57.0582 144.394 56.7632C143.856 56.4595 143.435 56.043 143.132 55.5137C142.828 54.9844 142.676 54.3857 142.676 53.7175C142.676 53.0494 142.819 52.4507 143.106 51.9214C143.401 51.3921 143.8 50.9799 144.303 50.6849C144.815 50.3899 145.388 50.2423 146.021 50.2423C146.655 50.2423 147.223 50.3899 147.726 50.6849C148.229 50.9799 148.624 51.3921 148.911 51.9214C149.197 52.442 149.34 53.0407 149.34 53.7175L149.327 54.0039ZM146.021 51.0363C145.362 51.0363 144.806 51.2489 144.355 51.6741C143.913 52.0906 143.661 52.6372 143.6 53.314H148.455C148.394 52.6372 148.138 52.0906 147.687 51.6741C147.245 51.2489 146.689 51.0363 146.021 51.0363ZM151.386 50.2944H152.31V53.327H156.618V50.2944H157.542V57.1406H156.618V54.121H152.31V57.1406H151.386V50.2944ZM160.169 50.2944H161.093V55.7349L165.661 50.2944H166.481V57.1406H165.557V51.7001L161.002 57.1406H160.169V50.2944ZM169.13 50.2944H170.054V55.7349L174.622 50.2944H175.442V57.1406H174.518V51.7001L169.963 57.1406H169.13V50.2944ZM172.24 49.3052C171.65 49.3052 171.182 49.1577 170.835 48.8627C170.488 48.5677 170.31 48.1512 170.301 47.6132H170.965C170.973 47.9516 171.095 48.2249 171.329 48.4332C171.564 48.6327 171.867 48.7325 172.24 48.7325C172.613 48.7325 172.917 48.6327 173.151 48.4332C173.394 48.2249 173.52 47.9516 173.529 47.6132H174.193C174.184 48.1512 174.002 48.5677 173.646 48.8627C173.299 49.1577 172.83 49.3052 172.24 49.3052Z" fill="white"/>
<path d="M52.1797 27.1016C52.0625 26.8672 51.9453 26.6328 51.9453 26.3984C51.9453 25.8125 52.2969 25.1094 52.7656 24.6406L60.1484 17.2578C61.4375 15.9688 63.5469 16.4375 64.1328 18.1953L66.3594 24.6406L72.8047 26.8672C74.5625 27.4531 75.0312 29.5625 73.7422 30.8516L66.3594 38.2344C65.6562 38.9375 64.7188 39.1719 63.8984 38.8203L58.0391 36.9453L47.375 47.4922C46.3203 48.6641 44.5625 48.6641 43.5078 47.4922C42.3359 46.4375 42.3359 44.6797 43.5078 43.625L54.0547 32.9609L52.1797 27.1016ZM45.5 33.3125C38.7031 33.3125 33.1953 38.8203 33.1953 45.5C33.1953 52.2969 38.7031 57.6875 45.3828 57.6875C52.1797 57.6875 57.5703 52.2969 57.5703 45.5C57.5703 44.6797 57.5703 43.7422 57.3359 42.9219L59.0938 41.1641L62.7266 42.4531C62.7266 42.4531 62.8438 42.4531 62.9609 42.4531C63.0781 43.5078 63.1953 44.4453 63.1953 45.5C63.1953 55.3438 55.3438 63.3125 45.3828 63.3125C35.5391 63.3125 27.5703 55.4609 27.5703 45.5C27.5703 35.6562 35.5391 27.6875 45.3828 27.6875C46.5547 27.6875 47.4922 27.9219 48.5469 28.0391C48.5469 28.1562 48.5469 28.2734 48.5469 28.2734L49.8359 31.9062L48.0781 33.6641C47.2578 33.4297 46.3203 33.3125 45.5 33.3125ZM73.1562 36.8281C73.9766 39.5234 74.5625 42.4531 74.5625 45.5C74.5625 61.5547 61.4375 74.5625 45.5 74.5625C29.4453 74.5625 16.4375 61.5547 16.4375 45.5C16.4375 29.5625 29.4453 16.4375 45.5 16.4375C47.9609 16.4375 51.8281 17.1406 54.1719 17.8438L50.0703 22.0625C49.9531 22.1797 49.8359 22.2969 49.7188 22.5312C48.3125 22.2969 46.9062 22.0625 45.5 22.0625C32.4922 22.0625 22.0625 32.6094 22.0625 45.5C22.0625 58.5078 32.4922 68.9375 45.5 68.9375C58.3906 68.9375 68.9375 58.5078 68.9375 45.5C68.9375 44.0938 68.7031 42.6875 68.4688 41.3984C68.7031 41.1641 68.8203 41.0469 68.9375 40.9297L73.1562 36.8281Z" fill="white"/>
</svg>
