<svg width="60" height="60" viewBox="0 0 60 60" fill="none" xmlns="http://www.w3.org/2000/svg">
<path d="M36.1797 12.1016C36.0625 11.8672 35.9453 11.6328 35.9453 11.3984C35.9453 10.8125 36.2969 10.1094 36.7656 9.64062L44.1484 2.25781C45.4375 0.96875 47.5469 1.4375 48.1328 3.19531L50.3594 9.64062L56.8047 11.8672C58.5625 12.4531 59.0312 14.5625 57.7422 15.8516L50.3594 23.2344C49.6562 23.9375 48.7188 24.1719 47.8984 23.8203L42.0391 21.9453L31.375 32.4922C30.3203 33.6641 28.5625 33.6641 27.5078 32.4922C26.3359 31.4375 26.3359 29.6797 27.5078 28.625L38.0547 17.9609L36.1797 12.1016ZM29.5 18.3125C22.7031 18.3125 17.1953 23.8203 17.1953 30.5C17.1953 37.2969 22.7031 42.6875 29.3828 42.6875C36.1797 42.6875 41.5703 37.2969 41.5703 30.5C41.5703 29.6797 41.5703 28.7422 41.3359 27.9219L43.0938 26.1641L46.7266 27.4531C46.7266 27.4531 46.8438 27.4531 46.9609 27.4531C47.0781 28.5078 47.1953 29.4453 47.1953 30.5C47.1953 40.3438 39.3438 48.3125 29.3828 48.3125C19.5391 48.3125 11.5703 40.4609 11.5703 30.5C11.5703 20.6562 19.5391 12.6875 29.3828 12.6875C30.5547 12.6875 31.4922 12.9219 32.5469 13.0391C32.5469 13.1562 32.5469 13.2734 32.5469 13.2734L33.8359 16.9062L32.0781 18.6641C31.2578 18.4297 30.3203 18.3125 29.5 18.3125ZM57.1562 21.8281C57.9766 24.5234 58.5625 27.4531 58.5625 30.5C58.5625 46.5547 45.4375 59.5625 29.5 59.5625C13.4453 59.5625 0.4375 46.5547 0.4375 30.5C0.4375 14.5625 13.4453 1.4375 29.5 1.4375C31.9609 1.4375 35.8281 2.14062 38.1719 2.84375L34.0703 7.0625C33.9531 7.17969 33.8359 7.29688 33.7188 7.53125C32.3125 7.29688 30.9062 7.0625 29.5 7.0625C16.4922 7.0625 6.0625 17.6094 6.0625 30.5C6.0625 43.5078 16.4922 53.9375 29.5 53.9375C42.3906 53.9375 52.9375 43.5078 52.9375 30.5C52.9375 29.0938 52.7031 27.6875 52.4688 26.3984C52.7031 26.1641 52.8203 26.0469 52.9375 25.9297L57.1562 21.8281Z" fill="white"/>
</svg>
