<svg width="294" height="90" viewBox="0 0 294 90" fill="none" xmlns="http://www.w3.org/2000/svg">
<path d="M118.619 32.4246C119.649 32.4246 120.57 32.6573 121.382 33.1227C122.204 33.5782 122.848 34.2169 123.313 35.0387C123.778 35.8507 124.011 36.7716 124.011 37.8014C124.011 38.8312 123.778 39.7571 123.313 40.5789C122.848 41.3909 122.204 42.0296 121.382 42.495C120.57 42.9505 119.649 43.1782 118.619 43.1782C117.698 43.1782 116.867 43.0198 116.124 42.7029C115.391 42.3861 114.777 41.9256 114.282 41.3216L115.812 39.8957C116.545 40.7176 117.441 41.1285 118.5 41.1285C119.263 41.1285 119.907 40.9057 120.431 40.4601C120.966 40.0145 121.313 39.4154 121.471 38.6629H117.253V36.8211H121.441C121.273 36.1081 120.927 35.5388 120.402 35.113C119.877 34.6872 119.243 34.4743 118.5 34.4743C117.441 34.4743 116.545 34.8852 115.812 35.7071L114.282 34.2812C114.777 33.6772 115.391 33.2167 116.124 32.8999C116.867 32.583 117.698 32.4246 118.619 32.4246ZM129.921 38.8114H128.257V43H125.866V32.6028H128.257V36.8062H129.98L132.713 32.6028H135.253L131.851 37.6232L135.357 43H132.624L129.921 38.8114ZM141.401 43.1782C140.322 43.1782 139.347 42.9455 138.475 42.4801C137.614 42.0147 136.936 41.3761 136.441 40.5641C135.955 39.7422 135.713 38.8213 135.713 37.8014C135.713 36.7815 135.955 35.8655 136.441 35.0536C136.936 34.2317 137.614 33.5881 138.475 33.1227C139.347 32.6573 140.322 32.4246 141.401 32.4246C142.481 32.4246 143.451 32.6573 144.313 33.1227C145.174 33.5881 145.852 34.2317 146.348 35.0536C146.843 35.8655 147.09 36.7815 147.09 37.8014C147.09 38.8213 146.843 39.7422 146.348 40.5641C145.852 41.3761 145.174 42.0147 144.313 42.4801C143.451 42.9455 142.481 43.1782 141.401 43.1782ZM141.401 41.1285C142.015 41.1285 142.57 40.9899 143.065 40.7126C143.56 40.4255 143.946 40.0294 144.224 39.5244C144.511 39.0194 144.654 38.445 144.654 37.8014C144.654 37.1578 144.511 36.5834 144.224 36.0784C143.946 35.5734 143.56 35.1823 143.065 34.905C142.57 34.6179 142.015 34.4743 141.401 34.4743C140.788 34.4743 140.233 34.6179 139.738 34.905C139.243 35.1823 138.852 35.5734 138.565 36.0784C138.287 36.5834 138.149 37.1578 138.149 37.8014C138.149 38.445 138.287 39.0194 138.565 39.5244C138.852 40.0294 139.243 40.4255 139.738 40.7126C140.233 40.9899 140.788 41.1285 141.401 41.1285ZM158.48 32.6028V43H156.073V38.7372H151.35V43H148.944V32.6028H151.35V36.7023H156.073V32.6028H158.48ZM166.045 43.1782C164.966 43.1782 163.991 42.9455 163.119 42.4801C162.258 42.0147 161.58 41.3761 161.085 40.5641C160.599 39.7422 160.357 38.8213 160.357 37.8014C160.357 36.7815 160.599 35.8655 161.085 35.0536C161.58 34.2317 162.258 33.5881 163.119 33.1227C163.991 32.6573 164.966 32.4246 166.045 32.4246C167.125 32.4246 168.095 32.6573 168.957 33.1227C169.818 33.5881 170.496 34.2317 170.992 35.0536C171.487 35.8655 171.734 36.7815 171.734 37.8014C171.734 38.8213 171.487 39.7422 170.992 40.5641C170.496 41.3761 169.818 42.0147 168.957 42.4801C168.095 42.9455 167.125 43.1782 166.045 43.1782ZM166.045 41.1285C166.659 41.1285 167.214 40.9899 167.709 40.7126C168.204 40.4255 168.59 40.0294 168.868 39.5244C169.155 39.0194 169.298 38.445 169.298 37.8014C169.298 37.1578 169.155 36.5834 168.868 36.0784C168.59 35.5734 168.204 35.1823 167.709 34.905C167.214 34.6179 166.659 34.4743 166.045 34.4743C165.432 34.4743 164.877 34.6179 164.382 34.905C163.887 35.1823 163.496 35.5734 163.209 36.0784C162.931 36.5834 162.793 37.1578 162.793 37.8014C162.793 38.445 162.931 39.0194 163.209 39.5244C163.496 40.0294 163.887 40.4255 164.382 40.7126C164.877 40.9899 165.432 41.1285 166.045 41.1285ZM183.049 43L183.034 36.7765L179.975 41.9009H178.905L175.846 36.8954V43H173.588V32.6028H175.578L179.47 39.0639L183.302 32.6028H185.292L185.307 43H183.049ZM187.89 32.6028H190.281V39.3758L195.242 32.6028H197.5V43H195.123V36.2418L190.162 43H187.89V32.6028ZM208.339 32.6028V43H205.962V39.257C205.061 39.5838 204.225 39.7472 203.452 39.7472C202.056 39.7472 200.987 39.4154 200.244 38.752C199.501 38.0787 199.13 37.1132 199.13 35.8556V32.6028H201.506V35.5883C201.506 36.3012 201.695 36.8409 202.071 37.2073C202.457 37.5638 203.012 37.742 203.734 37.742C204.527 37.742 205.269 37.5885 205.962 37.2815V32.6028H208.339ZM220.459 32.6028V43H218.053V38.7372H213.33V43H210.924V32.6028H213.33V36.7023H218.053V32.6028H220.459ZM228.1 36.019C229.367 36.019 230.337 36.3012 231.011 36.8657C231.694 37.4301 232.036 38.2668 232.036 39.3758C232.036 40.5542 231.659 41.4553 230.907 42.0791C230.164 42.693 229.115 43 227.758 43H223.064V32.6028H225.456V36.019H228.1ZM227.624 41.2176C228.248 41.2176 228.733 41.0641 229.08 40.7572C229.436 40.4502 229.615 40.0046 229.615 39.4204C229.615 38.3411 228.951 37.8014 227.624 37.8014H225.456V41.2176H227.624ZM233.358 32.6028H235.749V43H233.358V32.6028ZM238.338 32.6028H240.73V39.3758L245.69 32.6028H247.948V43H245.572V36.2418L240.611 43H238.338V32.6028ZM243.136 31.9344C241.235 31.9344 240.274 31.1769 240.254 29.6619H241.903C241.923 30.3847 242.334 30.7462 243.136 30.7462C243.532 30.7462 243.834 30.6571 244.042 30.4788C244.25 30.2907 244.359 30.0184 244.369 29.6619H246.017C246.007 30.4045 245.765 30.969 245.289 31.3551C244.814 31.7413 244.096 31.9344 243.136 31.9344Z" fill="white"/>
<path d="M118.557 53.4137C119.161 53.4137 119.709 53.5526 120.199 53.8302C120.689 54.0997 121.072 54.4836 121.35 54.9817C121.628 55.4799 121.767 56.0475 121.767 56.6845C121.767 57.3297 121.628 57.9013 121.35 58.3995C121.072 58.8977 120.689 59.2856 120.199 59.5632C119.717 59.8327 119.17 59.9675 118.557 59.9675C118.034 59.9675 117.561 59.8613 117.136 59.649C116.72 59.4285 116.377 59.11 116.107 58.6935V62.2828H115.237V53.4627H116.07V54.7367C116.332 54.3121 116.675 53.9854 117.099 53.7567C117.532 53.5281 118.018 53.4137 118.557 53.4137ZM118.496 59.1957C118.945 59.1957 119.353 59.0937 119.721 58.8895C120.088 58.6772 120.374 58.3791 120.578 57.9952C120.791 57.6114 120.897 57.1745 120.897 56.6845C120.897 56.1945 120.791 55.7617 120.578 55.386C120.374 55.0022 120.088 54.7041 119.721 54.4917C119.353 54.2794 118.945 54.1732 118.496 54.1732C118.038 54.1732 117.626 54.2794 117.259 54.4917C116.899 54.7041 116.613 55.0022 116.401 55.386C116.197 55.7617 116.095 56.1945 116.095 56.6845C116.095 57.1745 116.197 57.6114 116.401 57.9952C116.613 58.3791 116.899 58.6772 117.259 58.8895C117.626 59.0937 118.038 59.1957 118.496 59.1957ZM125.817 53.4137C126.658 53.4137 127.303 53.6261 127.752 54.0507C128.201 54.4672 128.426 55.0879 128.426 55.9127V59.9062H127.593V58.9017C127.397 59.2366 127.107 59.4979 126.723 59.6857C126.347 59.8736 125.898 59.9675 125.376 59.9675C124.657 59.9675 124.085 59.796 123.661 59.453C123.236 59.11 123.024 58.6567 123.024 58.0932C123.024 57.5461 123.22 57.1051 123.612 56.7702C124.012 56.4354 124.645 56.268 125.51 56.268H127.556V55.876C127.556 55.3207 127.401 54.9001 127.091 54.6142C126.78 54.3202 126.327 54.1732 125.731 54.1732C125.322 54.1732 124.93 54.2427 124.555 54.3815C124.179 54.5122 123.857 54.6959 123.587 54.9327L123.195 54.2835C123.522 54.0058 123.914 53.7935 124.371 53.6465C124.828 53.4913 125.31 53.4137 125.817 53.4137ZM125.51 59.2815C126 59.2815 126.421 59.1712 126.772 58.9507C127.123 58.7221 127.385 58.3954 127.556 57.9707V56.9172H125.535C124.432 56.9172 123.881 57.3011 123.881 58.0687C123.881 58.4444 124.024 58.7425 124.31 58.963C124.596 59.1753 124.996 59.2815 125.51 59.2815ZM133.436 59.9675C132.799 59.9675 132.227 59.8287 131.721 59.551C131.223 59.2733 130.831 58.8854 130.545 58.3872C130.259 57.8809 130.116 57.3133 130.116 56.6845C130.116 56.0557 130.259 55.4922 130.545 54.994C130.831 54.4958 131.223 54.1079 131.721 53.8302C132.227 53.5526 132.799 53.4137 133.436 53.4137C133.991 53.4137 134.486 53.524 134.918 53.7445C135.359 53.9568 135.706 54.2712 135.96 54.6877L135.31 55.1287C135.098 54.8102 134.829 54.5734 134.502 54.4182C134.175 54.2549 133.82 54.1732 133.436 54.1732C132.971 54.1732 132.55 54.2794 132.174 54.4917C131.807 54.6959 131.517 54.9899 131.305 55.3737C131.1 55.7576 130.998 56.1945 130.998 56.6845C130.998 57.1827 131.1 57.6237 131.305 58.0075C131.517 58.3832 131.807 58.6772 132.174 58.8895C132.55 59.0937 132.971 59.1957 133.436 59.1957C133.82 59.1957 134.175 59.1182 134.502 58.963C134.829 58.8078 135.098 58.571 135.31 58.2525L135.96 58.6935C135.706 59.11 135.359 59.4285 134.918 59.649C134.477 59.8613 133.983 59.9675 133.436 59.9675ZM141.459 59.9062L139.413 57.2112L137.355 59.9062H136.375L138.923 56.5987L136.497 53.4627H137.477L139.413 55.9862L141.348 53.4627H142.304L139.878 56.5987L142.451 59.9062H141.459ZM146.307 59.9675C145.687 59.9675 145.127 59.8287 144.629 59.551C144.131 59.2652 143.739 58.8732 143.453 58.375C143.167 57.8768 143.024 57.3133 143.024 56.6845C143.024 56.0557 143.167 55.4922 143.453 54.994C143.739 54.4958 144.131 54.1079 144.629 53.8302C145.127 53.5526 145.687 53.4137 146.307 53.4137C146.928 53.4137 147.487 53.5526 147.986 53.8302C148.484 54.1079 148.872 54.4958 149.149 54.994C149.435 55.4922 149.578 56.0557 149.578 56.6845C149.578 57.3133 149.435 57.8768 149.149 58.375C148.872 58.8732 148.484 59.2652 147.986 59.551C147.487 59.8287 146.928 59.9675 146.307 59.9675ZM146.307 59.1957C146.765 59.1957 147.173 59.0937 147.532 58.8895C147.9 58.6772 148.186 58.3791 148.39 57.9952C148.594 57.6114 148.696 57.1745 148.696 56.6845C148.696 56.1945 148.594 55.7576 148.39 55.3737C148.186 54.9899 147.9 54.6959 147.532 54.4917C147.173 54.2794 146.765 54.1732 146.307 54.1732C145.85 54.1732 145.438 54.2794 145.07 54.4917C144.711 54.6959 144.425 54.9899 144.213 55.3737C144.008 55.7576 143.906 56.1945 143.906 56.6845C143.906 57.1745 144.008 57.6114 144.213 57.9952C144.425 58.3791 144.711 58.6772 145.07 58.8895C145.438 59.0937 145.85 59.1957 146.307 59.1957ZM157.685 59.1467V61.462H156.865V59.9062H151.095V61.462H150.274V59.1467H150.642C151.074 59.1222 151.368 58.8037 151.524 58.1912C151.679 57.5787 151.785 56.7212 151.842 55.6187L151.928 53.4627H156.681V59.1467H157.685ZM152.638 55.6677C152.597 56.5824 152.52 57.3378 152.406 57.934C152.291 58.522 152.087 58.9262 151.793 59.1467H155.811V54.2345H152.712L152.638 55.6677ZM165.71 53.622C166.306 53.622 166.837 53.7567 167.303 54.0262C167.776 54.2876 168.144 54.6592 168.405 55.141C168.666 55.6147 168.797 56.1577 168.797 56.7702C168.797 57.3991 168.658 57.9585 168.381 58.4485C168.111 58.9303 167.731 59.306 167.241 59.5755C166.751 59.845 166.188 59.9798 165.551 59.9798C164.481 59.9798 163.652 59.6041 163.064 58.8527C162.476 58.1014 162.182 57.0642 162.182 55.7412C162.182 54.3611 162.443 53.3035 162.966 52.5685C163.497 51.8335 164.322 51.3353 165.441 51.074L168.332 50.4125L168.479 51.2087L165.759 51.8335C164.836 52.0377 164.158 52.4011 163.726 52.9237C163.293 53.4382 163.056 54.2018 163.015 55.2145C163.276 54.7163 163.64 54.3284 164.105 54.0507C164.571 53.7649 165.106 53.622 165.71 53.622ZM165.575 59.257C166.025 59.257 166.425 59.1549 166.776 58.9507C167.135 58.7384 167.413 58.4444 167.609 58.0687C167.813 57.6931 167.915 57.2684 167.915 56.7947C167.915 56.3211 167.817 55.9046 167.621 55.5452C167.425 55.1859 167.147 54.9082 166.788 54.7122C166.437 54.5081 166.033 54.406 165.575 54.406C165.118 54.406 164.71 54.5081 164.35 54.7122C163.999 54.9082 163.722 55.1859 163.517 55.5452C163.321 55.9046 163.223 56.3211 163.223 56.7947C163.223 57.2684 163.321 57.6931 163.517 58.0687C163.722 58.4444 164.003 58.7384 164.363 58.9507C164.722 59.1549 165.126 59.257 165.575 59.257ZM172.843 53.4137C173.684 53.4137 174.329 53.6261 174.778 54.0507C175.227 54.4672 175.452 55.0879 175.452 55.9127V59.9062H174.619V58.9017C174.423 59.2366 174.133 59.4979 173.749 59.6857C173.374 59.8736 172.924 59.9675 172.402 59.9675C171.683 59.9675 171.111 59.796 170.687 59.453C170.262 59.11 170.05 58.6567 170.05 58.0932C170.05 57.5461 170.246 57.1051 170.638 56.7702C171.038 56.4354 171.671 56.268 172.536 56.268H174.582V55.876C174.582 55.3207 174.427 54.9001 174.117 54.6142C173.806 54.3202 173.353 54.1732 172.757 54.1732C172.349 54.1732 171.957 54.2427 171.581 54.3815C171.205 54.5122 170.883 54.6959 170.613 54.9327L170.221 54.2835C170.548 54.0058 170.94 53.7935 171.397 53.6465C171.855 53.4913 172.336 53.4137 172.843 53.4137ZM172.536 59.2815C173.026 59.2815 173.447 59.1712 173.798 58.9507C174.149 58.7221 174.411 58.3954 174.582 57.9707V56.9172H172.561C171.458 56.9172 170.907 57.3011 170.907 58.0687C170.907 58.4444 171.05 58.7425 171.336 58.963C171.622 59.1753 172.022 59.2815 172.536 59.2815ZM182.3 54.2345H179.862V59.9062H178.992V54.2345H176.555V53.4627H182.3V54.2345ZM185.775 53.4137C186.616 53.4137 187.261 53.6261 187.71 54.0507C188.159 54.4672 188.384 55.0879 188.384 55.9127V59.9062H187.551V58.9017C187.355 59.2366 187.065 59.4979 186.681 59.6857C186.305 59.8736 185.856 59.9675 185.334 59.9675C184.615 59.9675 184.043 59.796 183.619 59.453C183.194 59.11 182.982 58.6567 182.982 58.0932C182.982 57.5461 183.178 57.1051 183.57 56.7702C183.97 56.4354 184.603 56.268 185.468 56.268H187.514V55.876C187.514 55.3207 187.359 54.9001 187.049 54.6142C186.738 54.3202 186.285 54.1732 185.689 54.1732C185.28 54.1732 184.888 54.2427 184.513 54.3815C184.137 54.5122 183.815 54.6959 183.545 54.9327L183.153 54.2835C183.48 54.0058 183.872 53.7935 184.329 53.6465C184.786 53.4913 185.268 53.4137 185.775 53.4137ZM185.468 59.2815C185.958 59.2815 186.379 59.1712 186.73 58.9507C187.081 58.7221 187.343 58.3954 187.514 57.9707V56.9172H185.493C184.39 56.9172 183.839 57.3011 183.839 58.0687C183.839 58.4444 183.982 58.7425 184.268 58.963C184.554 59.1753 184.954 59.2815 185.468 59.2815ZM194.019 53.4137C194.623 53.4137 195.17 53.5526 195.66 53.8302C196.15 54.0997 196.534 54.4836 196.812 54.9817C197.09 55.4799 197.228 56.0475 197.228 56.6845C197.228 57.3297 197.09 57.9013 196.812 58.3995C196.534 58.8977 196.15 59.2856 195.66 59.5632C195.179 59.8327 194.631 59.9675 194.019 59.9675C193.496 59.9675 193.023 59.8613 192.598 59.649C192.181 59.4285 191.838 59.11 191.569 58.6935V62.2828H190.699V53.4627H191.532V54.7367C191.793 54.3121 192.136 53.9854 192.561 53.7567C192.994 53.5281 193.48 53.4137 194.019 53.4137ZM193.958 59.1957C194.407 59.1957 194.815 59.0937 195.183 58.8895C195.55 58.6772 195.836 58.3791 196.04 57.9952C196.252 57.6114 196.359 57.1745 196.359 56.6845C196.359 56.1945 196.252 55.7617 196.04 55.386C195.836 55.0022 195.55 54.7041 195.183 54.4917C194.815 54.2794 194.407 54.1732 193.958 54.1732C193.5 54.1732 193.088 54.2794 192.72 54.4917C192.361 54.7041 192.075 55.0022 191.863 55.386C191.659 55.7617 191.557 56.1945 191.557 56.6845C191.557 57.1745 191.659 57.6114 191.863 57.9952C192.075 58.3791 192.361 58.6772 192.72 58.8895C193.088 59.0937 193.5 59.1957 193.958 59.1957ZM204.732 56.954H199.342C199.391 57.6237 199.648 58.1667 200.114 58.5832C200.579 58.9916 201.167 59.1957 201.878 59.1957C202.278 59.1957 202.646 59.1263 202.98 58.9875C203.315 58.8405 203.605 58.6282 203.85 58.3505L204.34 58.914C204.054 59.257 203.695 59.5183 203.262 59.698C202.837 59.8777 202.368 59.9675 201.853 59.9675C201.192 59.9675 200.604 59.8287 200.089 59.551C199.583 59.2652 199.187 58.8732 198.901 58.375C198.615 57.8768 198.472 57.3133 198.472 56.6845C198.472 56.0557 198.607 55.4922 198.877 54.994C199.154 54.4958 199.53 54.1079 200.004 53.8302C200.485 53.5526 201.024 53.4137 201.621 53.4137C202.217 53.4137 202.752 53.5526 203.225 53.8302C203.699 54.1079 204.071 54.4958 204.34 54.994C204.61 55.484 204.744 56.0475 204.744 56.6845L204.732 56.954ZM201.621 54.161C201 54.161 200.477 54.3611 200.053 54.7612C199.636 55.1532 199.399 55.6677 199.342 56.3048H203.911C203.854 55.6677 203.613 55.1532 203.189 54.7612C202.772 54.3611 202.249 54.161 201.621 54.161ZM206.67 53.4627H207.539V58.5832L211.839 53.4627H212.611V59.9062H211.741V54.7857L207.454 59.9062H206.67V53.4627Z" fill="white"/>
<path d="M48.75 53H22.5V38H48.75V53ZM76.875 32.375H16.875V58.625H76.875V51.125H80.625V39.875H76.875V32.375ZM76.875 26.75C79.9219 26.75 82.5 29.3281 82.5 32.375V34.25H83.4375C84.9609 34.25 86.25 35.5391 86.25 37.0625V53.9375C86.25 55.5781 84.9609 56.75 83.4375 56.75H82.5V58.625C82.5 61.7891 79.9219 64.25 76.875 64.25H16.875C13.7109 64.25 11.25 61.7891 11.25 58.625V32.375C11.25 29.3281 13.7109 26.75 16.875 26.75H76.875Z" fill="white"/>
</svg>
