<svg width="76" height="39" viewBox="0 0 76 39" fill="none" xmlns="http://www.w3.org/2000/svg">
<path d="M37.75 27H11.5V12H37.75V27ZM65.875 6.375H5.875V32.625H65.875V25.125H69.625V13.875H65.875V6.375ZM65.875 0.75C68.9219 0.75 71.5 3.32812 71.5 6.375V8.25H72.4375C73.9609 8.25 75.25 9.53906 75.25 11.0625V27.9375C75.25 29.5781 73.9609 30.75 72.4375 30.75H71.5V32.625C71.5 35.7891 68.9219 38.25 65.875 38.25H5.875C2.71094 38.25 0.25 35.7891 0.25 32.625V6.375C0.25 3.32812 2.71094 0.75 5.875 0.75H65.875Z" fill="white"/>
</svg>
