<svg width="144" height="201" viewBox="0 0 144 201" fill="none" xmlns="http://www.w3.org/2000/svg">
<path d="M9.41071 163.602C10.239 163.773 10.8687 164.107 11.2999 164.607C11.7311 165.095 11.9467 165.736 11.9467 166.53C11.9467 167.562 11.5779 168.357 10.8404 168.913C10.1142 169.469 9.04195 169.747 7.62364 169.747H2.34751V157.833H7.30026C8.57107 157.833 9.56389 158.094 10.2787 158.616C10.9935 159.138 11.351 159.892 11.351 160.879C11.351 161.549 11.1808 162.116 10.8404 162.581C10.5 163.035 10.0234 163.376 9.41071 163.602ZM3.58995 163.228H7.23218C8.15125 163.228 8.85473 163.041 9.34263 162.666C9.84188 162.292 10.0915 161.747 10.0915 161.032C10.0915 160.318 9.84188 159.773 9.34263 159.399C8.85473 159.024 8.15125 158.837 7.23218 158.837H3.58995V163.228ZM7.62364 168.742C9.67735 168.742 10.7042 167.977 10.7042 166.445C10.7042 164.947 9.67735 164.198 7.62364 164.198H3.58995V168.742H7.62364ZM18.4997 169.832C17.6373 169.832 16.8601 169.639 16.168 169.253C15.4758 168.856 14.9312 168.311 14.5341 167.619C14.1369 166.927 13.9384 166.144 13.9384 165.27C13.9384 164.397 14.1369 163.614 14.5341 162.922C14.9312 162.23 15.4758 161.691 16.168 161.305C16.8601 160.919 17.6373 160.726 18.4997 160.726C19.362 160.726 20.1392 160.919 20.8314 161.305C21.5235 161.691 22.0625 162.23 22.4482 162.922C22.8454 163.614 23.0439 164.397 23.0439 165.27C23.0439 166.144 22.8454 166.927 22.4482 167.619C22.0625 168.311 21.5235 168.856 20.8314 169.253C20.1392 169.639 19.362 169.832 18.4997 169.832ZM18.4997 168.759C19.1351 168.759 19.7024 168.618 20.2016 168.334C20.7122 168.039 21.1094 167.625 21.393 167.091C21.6767 166.558 21.8185 165.951 21.8185 165.27C21.8185 164.59 21.6767 163.983 21.393 163.449C21.1094 162.916 20.7122 162.508 20.2016 162.224C19.7024 161.929 19.1351 161.781 18.4997 161.781C17.8643 161.781 17.2913 161.929 16.7807 162.224C16.2814 162.508 15.8843 162.916 15.5893 163.449C15.3056 163.983 15.1638 164.59 15.1638 165.27C15.1638 165.951 15.3056 166.558 15.5893 167.091C15.8843 167.625 16.2814 168.039 16.7807 168.334C17.2913 168.618 17.8643 168.759 18.4997 168.759ZM34.3078 168.691V171.908H33.1675V169.747H25.1512V171.908H24.0109V168.691H24.5215C25.1228 168.657 25.5313 168.215 25.7469 167.364C25.9625 166.513 26.11 165.321 26.1894 163.79L26.3085 160.794H32.9122V168.691H34.3078ZM27.2957 163.858C27.2389 165.129 27.1312 166.178 26.9723 167.006C26.8135 167.823 26.5298 168.385 26.1213 168.691H31.7038V161.866H27.3978L27.2957 163.858ZM40.3561 169.832C39.4938 169.832 38.7165 169.639 38.0244 169.253C37.3322 168.856 36.7876 168.311 36.3905 167.619C35.9934 166.927 35.7948 166.144 35.7948 165.27C35.7948 164.397 35.9934 163.614 36.3905 162.922C36.7876 162.23 37.3322 161.691 38.0244 161.305C38.7165 160.919 39.4938 160.726 40.3561 160.726C41.2184 160.726 41.9957 160.919 42.6878 161.305C43.3799 161.691 43.9189 162.23 44.3047 162.922C44.7018 163.614 44.9004 164.397 44.9004 165.27C44.9004 166.144 44.7018 166.927 44.3047 167.619C43.9189 168.311 43.3799 168.856 42.6878 169.253C41.9957 169.639 41.2184 169.832 40.3561 169.832ZM40.3561 168.759C40.9915 168.759 41.5588 168.618 42.0581 168.334C42.5687 168.039 42.9658 167.625 43.2494 167.091C43.5331 166.558 43.6749 165.951 43.6749 165.27C43.6749 164.59 43.5331 163.983 43.2494 163.449C42.9658 162.916 42.5687 162.508 42.0581 162.224C41.5588 161.929 40.9915 161.781 40.3561 161.781C39.7207 161.781 39.1477 161.929 38.6371 162.224C38.1378 162.508 37.7407 162.916 37.4457 163.449C37.162 163.983 37.0202 164.59 37.0202 165.27C37.0202 165.951 37.162 166.558 37.4457 167.091C37.7407 167.625 38.1378 168.039 38.6371 168.334C39.1477 168.618 39.7207 168.759 40.3561 168.759ZM55.5163 160.794V169.747H54.3079V161.866H48.6914V169.747H47.483V160.794H55.5163ZM63.5637 160.726C64.4034 160.726 65.1636 160.919 65.8444 161.305C66.5252 161.679 67.0584 162.213 67.4442 162.905C67.83 163.597 68.0229 164.385 68.0229 165.27C68.0229 166.167 67.83 166.961 67.4442 167.653C67.0584 168.345 66.5252 168.884 65.8444 169.27C65.1749 169.644 64.4147 169.832 63.5637 169.832C62.8375 169.832 62.1794 169.684 61.5894 169.389C61.0108 169.083 60.5342 168.64 60.1598 168.062V173.048H58.9514V160.794H60.1087V162.564C60.4718 161.974 60.9483 161.52 61.5384 161.203C62.1397 160.885 62.8148 160.726 63.5637 160.726ZM63.4786 168.759C64.1027 168.759 64.67 168.618 65.1806 168.334C65.6912 168.039 66.0883 167.625 66.372 167.091C66.667 166.558 66.8145 165.951 66.8145 165.27C66.8145 164.59 66.667 163.988 66.372 163.466C66.0883 162.933 65.6912 162.519 65.1806 162.224C64.67 161.929 64.1027 161.781 63.4786 161.781C62.8432 161.781 62.2702 161.929 61.7596 162.224C61.2604 162.519 60.8633 162.933 60.5682 163.466C60.2846 163.988 60.1427 164.59 60.1427 165.27C60.1427 165.951 60.2846 166.558 60.5682 167.091C60.8633 167.625 61.2604 168.039 61.7596 168.334C62.2702 168.618 62.8432 168.759 63.4786 168.759ZM74.3125 169.832C73.4502 169.832 72.6729 169.639 71.9808 169.253C71.2886 168.856 70.744 168.311 70.3469 167.619C69.9498 166.927 69.7512 166.144 69.7512 165.27C69.7512 164.397 69.9498 163.614 70.3469 162.922C70.744 162.23 71.2886 161.691 71.9808 161.305C72.6729 160.919 73.4502 160.726 74.3125 160.726C75.1748 160.726 75.9521 160.919 76.6442 161.305C77.3363 161.691 77.8753 162.23 78.2611 162.922C78.6582 163.614 78.8568 164.397 78.8568 165.27C78.8568 166.144 78.6582 166.927 78.2611 167.619C77.8753 168.311 77.3363 168.856 76.6442 169.253C75.9521 169.639 75.1748 169.832 74.3125 169.832ZM74.3125 168.759C74.9479 168.759 75.5152 168.618 76.0145 168.334C76.5251 168.039 76.9222 167.625 77.2058 167.091C77.4895 166.558 77.6313 165.951 77.6313 165.27C77.6313 164.59 77.4895 163.983 77.2058 163.449C76.9222 162.916 76.5251 162.508 76.0145 162.224C75.5152 161.929 74.9479 161.781 74.3125 161.781C73.6771 161.781 73.1041 161.929 72.5935 162.224C72.0942 162.508 71.6971 162.916 71.4021 163.449C71.1184 163.983 70.9766 164.59 70.9766 165.27C70.9766 165.951 71.1184 166.558 71.4021 167.091C71.6971 167.625 72.0942 168.039 72.5935 168.334C73.1041 168.618 73.6771 168.759 74.3125 168.759ZM87.141 165.117C88.3551 165.401 88.9621 166.133 88.9621 167.313C88.9621 168.096 88.6728 168.697 88.0941 169.117C87.5154 169.537 86.6531 169.747 85.5071 169.747H81.4394V160.794H85.388C86.4092 160.794 87.2091 160.993 87.7878 161.39C88.3664 161.787 88.6558 162.354 88.6558 163.092C88.6558 163.58 88.5196 164 88.2473 164.351C87.9863 164.692 87.6176 164.947 87.141 165.117ZM82.6137 164.777H85.3029C85.995 164.777 86.5226 164.646 86.8857 164.385C87.2601 164.124 87.4474 163.744 87.4474 163.245C87.4474 162.746 87.2601 162.371 86.8857 162.122C86.5226 161.872 85.995 161.747 85.3029 161.747H82.6137V164.777ZM85.456 168.793C86.2276 168.793 86.8063 168.669 87.1921 168.419C87.5778 168.169 87.7707 167.778 87.7707 167.245C87.7707 166.711 87.5949 166.32 87.2431 166.07C86.8914 165.809 86.3354 165.679 85.5752 165.679H82.6137V168.793H85.456ZM95.4875 169.832C94.6251 169.832 93.8479 169.639 93.1558 169.253C92.4636 168.856 91.919 168.311 91.5219 167.619C91.1247 166.927 90.9262 166.144 90.9262 165.27C90.9262 164.397 91.1247 163.614 91.5219 162.922C91.919 162.23 92.4636 161.691 93.1558 161.305C93.8479 160.919 94.6251 160.726 95.4875 160.726C96.3498 160.726 97.127 160.919 97.8192 161.305C98.5113 161.691 99.0503 162.23 99.436 162.922C99.8332 163.614 100.032 164.397 100.032 165.27C100.032 166.144 99.8332 166.927 99.436 167.619C99.0503 168.311 98.5113 168.856 97.8192 169.253C97.127 169.639 96.3498 169.832 95.4875 169.832ZM95.4875 168.759C96.1229 168.759 96.6902 168.618 97.1894 168.334C97.7 168.039 98.0972 167.625 98.3808 167.091C98.6645 166.558 98.8063 165.951 98.8063 165.27C98.8063 164.59 98.6645 163.983 98.3808 163.449C98.0972 162.916 97.7 162.508 97.1894 162.224C96.6902 161.929 96.1229 161.781 95.4875 161.781C94.8521 161.781 94.2791 161.929 93.7685 162.224C93.2692 162.508 92.8721 162.916 92.5771 163.449C92.2934 163.983 92.1516 164.59 92.1516 165.27C92.1516 165.951 92.2934 166.558 92.5771 167.091C92.8721 167.625 93.2692 168.039 93.7685 168.334C94.2791 168.618 94.8521 168.759 95.4875 168.759ZM111.296 168.691V171.908H110.155V169.747H102.139V171.908H100.999V168.691H101.509C102.111 168.657 102.519 168.215 102.735 167.364C102.95 166.513 103.098 165.321 103.177 163.79L103.296 160.794H109.9V168.691H111.296ZM104.283 163.858C104.227 165.129 104.119 166.178 103.96 167.006C103.801 167.823 103.518 168.385 103.109 168.691H108.692V161.866H104.386L104.283 163.858ZM113.651 160.794H114.859V164.76H120.493V160.794H121.701V169.747H120.493V165.798H114.859V169.747H113.651V160.794ZM128.216 160.726C129.385 160.726 130.281 161.021 130.905 161.611C131.529 162.19 131.841 163.052 131.841 164.198V169.747H130.684V168.351C130.412 168.816 130.009 169.179 129.476 169.44C128.954 169.701 128.33 169.832 127.603 169.832C126.605 169.832 125.811 169.593 125.221 169.117C124.631 168.64 124.336 168.011 124.336 167.228C124.336 166.467 124.608 165.855 125.153 165.39C125.709 164.924 126.588 164.692 127.791 164.692H130.633V164.147C130.633 163.376 130.417 162.791 129.986 162.394C129.555 161.986 128.925 161.781 128.097 161.781C127.53 161.781 126.985 161.878 126.463 162.071C125.941 162.252 125.493 162.508 125.119 162.837L124.574 161.935C125.028 161.549 125.572 161.254 126.208 161.049C126.843 160.834 127.513 160.726 128.216 160.726ZM127.791 168.879C128.471 168.879 129.056 168.725 129.544 168.419C130.032 168.101 130.395 167.647 130.633 167.057V165.594H127.825C126.293 165.594 125.527 166.127 125.527 167.194C125.527 167.716 125.726 168.13 126.123 168.436C126.52 168.731 127.076 168.879 127.791 168.879ZM141.934 160.794V169.747H140.828V166.785H138.02H137.679L135.603 169.747H134.292L136.522 166.615C135.83 166.422 135.297 166.093 134.922 165.628C134.548 165.163 134.36 164.573 134.36 163.858C134.36 162.859 134.701 162.099 135.382 161.577C136.062 161.055 136.993 160.794 138.173 160.794H141.934ZM135.586 163.892C135.586 165.219 136.431 165.883 138.122 165.883H140.828V161.866H138.207C136.46 161.866 135.586 162.542 135.586 163.892ZM58.3537 189.117C59.5678 189.401 60.1748 190.133 60.1748 191.313C60.1748 192.096 59.8855 192.697 59.3068 193.117C58.7281 193.537 57.8658 193.747 56.7198 193.747H52.6521V184.794H56.6006C57.6218 184.794 58.4218 184.993 59.0004 185.39C59.5791 185.787 59.8684 186.354 59.8684 187.092C59.8684 187.58 59.7323 188 59.46 188.351C59.199 188.692 58.8302 188.947 58.3537 189.117ZM53.8264 188.777H56.5155C57.2077 188.777 57.7353 188.646 58.0984 188.385C58.4728 188.124 58.66 187.744 58.66 187.245C58.66 186.746 58.4728 186.371 58.0984 186.122C57.7353 185.872 57.2077 185.747 56.5155 185.747H53.8264V188.777ZM56.6687 192.793C57.4403 192.793 58.019 192.669 58.4047 192.419C58.7905 192.169 58.9834 191.778 58.9834 191.245C58.9834 190.711 58.8075 190.32 58.4558 190.07C58.1041 189.809 57.5481 189.679 56.7879 189.679H53.8264V192.793H56.6687ZM66.7001 193.832C65.8378 193.832 65.0606 193.639 64.3684 193.253C63.6763 192.856 63.1317 192.311 62.7345 191.619C62.3374 190.927 62.1388 190.144 62.1388 189.27C62.1388 188.397 62.3374 187.614 62.7345 186.922C63.1317 186.23 63.6763 185.691 64.3684 185.305C65.0606 184.919 65.8378 184.726 66.7001 184.726C67.5625 184.726 68.3397 184.919 69.0319 185.305C69.724 185.691 70.2629 186.23 70.6487 186.922C71.0459 187.614 71.2444 188.397 71.2444 189.27C71.2444 190.144 71.0459 190.927 70.6487 191.619C70.2629 192.311 69.724 192.856 69.0319 193.253C68.3397 193.639 67.5625 193.832 66.7001 193.832ZM66.7001 192.759C67.3355 192.759 67.9029 192.618 68.4021 192.334C68.9127 192.039 69.3098 191.625 69.5935 191.091C69.8772 190.558 70.019 189.951 70.019 189.27C70.019 188.59 69.8772 187.983 69.5935 187.449C69.3098 186.916 68.9127 186.508 68.4021 186.224C67.9029 185.929 67.3355 185.781 66.7001 185.781C66.0647 185.781 65.4917 185.929 64.9811 186.224C64.4819 186.508 64.0848 186.916 63.7898 187.449C63.5061 187.983 63.3643 188.59 63.3643 189.27C63.3643 189.951 63.5061 190.558 63.7898 191.091C64.0848 191.625 64.4819 192.039 64.9811 192.334C65.4917 192.618 66.0647 192.759 66.7001 192.759ZM82.5083 192.691V195.908H81.368V193.747H73.3517V195.908H72.2114V192.691H72.7219C73.3233 192.657 73.7318 192.215 73.9474 191.364C74.163 190.513 74.3105 189.321 74.3899 187.79L74.509 184.794H81.1127V192.691H82.5083ZM75.4962 187.858C75.4394 189.129 75.3316 190.178 75.1728 191.006C75.0139 191.823 74.7303 192.385 74.3218 192.691H79.9043V185.866H75.5983L75.4962 187.858ZM87.9439 184.726C89.1125 184.726 90.0089 185.021 90.633 185.611C91.257 186.19 91.5691 187.052 91.5691 188.198V193.747H90.4117V192.351C90.1394 192.816 89.7366 193.179 89.2033 193.44C88.6814 193.701 88.0573 193.832 87.3311 193.832C86.3327 193.832 85.5384 193.593 84.9484 193.117C84.3584 192.64 84.0634 192.011 84.0634 191.228C84.0634 190.467 84.3357 189.855 84.8803 189.39C85.4363 188.924 86.3156 188.692 87.5184 188.692H90.3607V188.147C90.3607 187.376 90.1451 186.791 89.7139 186.394C89.2827 185.986 88.653 185.781 87.8247 185.781C87.2574 185.781 86.7128 185.878 86.1908 186.071C85.6689 186.252 85.2207 186.508 84.8463 186.837L84.3016 185.935C84.7555 185.549 85.3001 185.254 85.9355 185.049C86.5709 184.834 87.2404 184.726 87.9439 184.726ZM87.5184 192.879C88.1992 192.879 88.7835 192.725 89.2714 192.419C89.7593 192.101 90.1224 191.647 90.3607 191.057V189.594H87.5524C86.0206 189.594 85.2547 190.127 85.2547 191.194C85.2547 191.716 85.4533 192.13 85.8504 192.436C86.2476 192.731 86.8035 192.879 87.5184 192.879Z" fill="#016DA4"/>
<path d="M103.224 117.337C95.7032 117.337 89.5938 111.217 89.5938 103.706C89.5938 96.833 100.411 81.1533 101.639 79.394C101.996 78.8719 102.596 78.5723 103.224 78.5723C103.852 78.5723 104.452 78.8816 104.809 79.394C106.047 81.163 116.854 96.8427 116.854 103.706C116.854 111.227 110.735 117.337 103.224 117.337ZM103.224 83.9374C98.9223 90.4239 93.4605 99.9264 93.4605 103.706C93.4605 109.091 97.8396 113.47 103.224 113.47C108.609 113.47 112.988 109.091 112.988 103.706C112.988 99.9264 107.526 90.4239 103.224 83.9374Z" fill="#016DA4"/>
<path d="M97.6856 108.598C96.6803 106.974 96.1389 105.108 96.1389 103.184C96.1389 101.937 96.5546 100.352 97.4053 98.3315L100.963 99.8396C100.122 101.812 99.996 102.778 99.996 103.184C99.996 104.383 100.325 105.543 100.953 106.558L97.6663 108.598H97.6856Z" fill="#016DA4"/>
<path d="M65.0402 14.2485H61.1734V26.0131H65.0402V14.2485Z" fill="#016DA4"/>
<path d="M63.1075 16.1824C58.651 16.1824 55.0163 12.5573 55.0163 8.09119C55.0163 3.62509 58.6414 0 63.1075 0C67.5736 0 71.1987 3.62509 71.1987 8.09119C71.1987 12.5573 67.5736 16.1824 63.1075 16.1824ZM63.1075 3.86676C60.7778 3.86676 58.8831 5.76147 58.8831 8.09119C58.8831 10.4209 60.7778 12.3156 63.1075 12.3156C65.4372 12.3156 67.3319 10.4209 67.3319 8.09119C67.3319 5.76147 65.4372 3.86676 63.1075 3.86676Z" fill="#016DA4"/>
<path d="M89.5168 13.5137H68.182V9.64698H87.5835V6.53424H68.182V2.66748H89.5168C90.5802 2.66748 91.4502 3.5375 91.4502 4.60086V11.5804C91.4502 12.6437 90.5802 13.5137 89.5168 13.5137Z" fill="#016DA4"/>
<path d="M58.0027 13.5137H36.6679C35.6045 13.5137 34.7345 12.6437 34.7345 11.5804V4.60086C34.7345 3.5375 35.6045 2.66748 36.6679 2.66748H58.0027V6.53424H38.6013V9.64698H58.0027V13.5137Z" fill="#016DA4"/>
<path d="M113.133 76.437H94.6982C93.6348 76.437 92.7648 75.5669 92.7648 74.5036V66.4027C92.7648 63.2126 90.1644 60.6123 86.9743 60.6123H82.7402C78.7285 67.6884 71.3236 72.0289 63.1164 72.0289C54.9092 72.0289 47.5044 67.6884 43.5023 60.6123H16.8313C15.768 60.6123 14.8979 59.7422 14.8979 58.6789V40.2441C14.8979 39.1807 15.768 38.3107 16.8313 38.3107H43.4926C44.6527 36.2807 46.1027 34.4536 47.8331 32.8586V26.0144C47.8331 24.9511 48.7031 24.0811 49.7664 24.0811H76.4567C77.5201 24.0811 78.3901 24.9511 78.3901 26.0144V32.8586C80.1205 34.444 81.5802 36.271 82.7402 38.3107H96.8249C106.878 38.3107 115.066 46.4889 115.066 56.5522V74.5036C115.066 75.5669 114.196 76.437 113.133 76.437ZM96.6316 72.5702H111.2V56.5522C111.2 48.6253 104.752 42.1775 96.8249 42.1775H81.5802C80.8455 42.1775 80.1785 41.7618 79.8498 41.1045C78.7091 38.8231 77.1528 36.8414 75.2097 35.198C74.7747 34.8306 74.5234 34.2893 74.5234 33.719V27.9381H51.6998V33.719C51.6998 34.2893 51.4485 34.821 51.0231 35.1883C49.0801 36.8414 47.5237 38.8327 46.383 41.1045C46.0544 41.7618 45.3873 42.1678 44.6527 42.1678H18.7647V56.7358H44.6527C45.3873 56.7358 46.0544 57.1515 46.383 57.8089C49.5731 64.189 55.9823 68.1524 63.1164 68.1524C70.2506 68.1524 76.6694 64.189 79.8498 57.8089C80.1785 57.1515 80.8455 56.7358 81.5802 56.7358H86.9743C92.3008 56.7358 96.6316 61.0666 96.6316 66.3931V72.5605V72.5702Z" fill="#016DA4"/>
<path d="M76.4567 31.7944H57.5966V35.6612H76.4567V31.7944Z" fill="#016DA4"/>
</svg>
