<svg width="113" height="177" viewBox="0 0 113 177" fill="none" xmlns="http://www.w3.org/2000/svg">
<path d="M9.22501 145.392H3.04893L1.71869 148.353H0.499314L5.56687 137.268H6.7229L11.7905 148.353H10.5552L9.22501 145.392ZM8.79743 144.442L6.13697 138.487L3.4765 144.442H8.79743ZM16.6702 144.647H14.7699V148.353H13.6455V140.023H14.7699V143.681H16.686L19.6157 140.023H20.8351L17.557 144.061L21.0726 148.353H19.7424L16.6702 144.647ZM28.1522 144.046C29.2819 144.31 29.8467 144.99 29.8467 146.088C29.8467 146.817 29.5775 147.376 29.0391 147.767C28.5006 148.158 27.6983 148.353 26.632 148.353H22.8471V140.023H26.5211C27.4713 140.023 28.2156 140.208 28.754 140.578C29.2924 140.947 29.5617 141.475 29.5617 142.161C29.5617 142.615 29.435 143.006 29.1816 143.333C28.9388 143.65 28.5956 143.887 28.1522 144.046ZM23.9398 143.729H26.4419C27.0859 143.729 27.5769 143.607 27.9147 143.365C28.2631 143.122 28.4373 142.768 28.4373 142.304C28.4373 141.839 28.2631 141.491 27.9147 141.258C27.5769 141.026 27.0859 140.91 26.4419 140.91H23.9398V143.729ZM26.5845 147.466C27.3024 147.466 27.8408 147.35 28.1997 147.118C28.5587 146.886 28.7382 146.521 28.7382 146.025C28.7382 145.529 28.5745 145.165 28.2473 144.932C27.92 144.69 27.4027 144.568 26.6953 144.568H23.9398V147.466H26.5845ZM35.3481 139.96C36.4355 139.96 37.2696 140.234 37.8502 140.783C38.4309 141.322 38.7212 142.124 38.7212 143.19V148.353H37.6444V147.054C37.391 147.487 37.0162 147.825 36.52 148.068C36.0344 148.311 35.4537 148.432 34.778 148.432C33.849 148.432 33.11 148.211 32.561 147.767C32.012 147.324 31.7375 146.738 31.7375 146.009C31.7375 145.302 31.9909 144.732 32.4976 144.299C33.0149 143.866 33.8331 143.65 34.9522 143.65H37.5969V143.143C37.5969 142.425 37.3963 141.881 36.9951 141.512C36.5939 141.132 36.008 140.942 35.2373 140.942C34.7094 140.942 34.2027 141.031 33.717 141.211C33.2314 141.38 32.8144 141.617 32.466 141.924L31.9592 141.084C32.3815 140.725 32.8883 140.451 33.4795 140.261C34.0707 140.06 34.6936 139.96 35.3481 139.96ZM34.9522 147.545C35.5857 147.545 36.1294 147.403 36.5834 147.118C37.0373 146.822 37.3752 146.4 37.5969 145.851V144.489H34.9839C33.5587 144.489 32.846 144.985 32.846 145.978C32.846 146.463 33.0308 146.849 33.4003 147.134C33.7698 147.408 34.2871 147.545 34.9522 147.545ZM46.006 139.96C46.7872 139.96 47.4945 140.139 48.128 140.498C48.7614 140.847 49.2576 141.343 49.6166 141.987C49.9755 142.631 50.155 143.365 50.155 144.188C50.155 145.022 49.9755 145.761 49.6166 146.405C49.2576 147.049 48.7614 147.551 48.128 147.91C47.5051 148.258 46.7978 148.432 46.006 148.432C45.3303 148.432 44.718 148.295 44.169 148.02C43.6305 147.735 43.1871 147.324 42.8387 146.785V151.425H41.7144V140.023H42.7912V141.67C43.1291 141.121 43.5725 140.699 44.1215 140.403C44.681 140.108 45.3092 139.96 46.006 139.96ZM45.9268 147.435C46.5074 147.435 47.0353 147.303 47.5104 147.039C47.9855 146.764 48.355 146.379 48.6189 145.883C48.8934 145.386 49.0306 144.822 49.0306 144.188C49.0306 143.555 48.8934 142.995 48.6189 142.51C48.355 142.013 47.9855 141.628 47.5104 141.353C47.0353 141.079 46.5074 140.942 45.9268 140.942C45.3356 140.942 44.8024 141.079 44.3273 141.353C43.8628 141.628 43.4933 142.013 43.2188 142.51C42.9549 142.995 42.8229 143.555 42.8229 144.188C42.8229 144.822 42.9549 145.386 43.2188 145.883C43.4933 146.379 43.8628 146.764 44.3273 147.039C44.8024 147.303 45.3356 147.435 45.9268 147.435ZM52.5708 140.023H53.6951V146.643L59.2536 140.023H60.2513V148.353H59.1269V141.734L53.5843 148.353H52.5708V140.023ZM70.5523 140.023L66.3874 149.351C66.0496 150.132 65.6589 150.686 65.2155 151.013C64.7721 151.341 64.239 151.504 63.6161 151.504C63.2149 151.504 62.8401 151.441 62.4917 151.314C62.1433 151.188 61.8424 150.998 61.589 150.744L62.1116 149.905C62.5339 150.327 63.0407 150.538 63.6319 150.538C64.012 150.538 64.334 150.433 64.5979 150.222C64.8724 150.011 65.1258 149.652 65.358 149.145L65.7223 148.337L62.0008 140.023H63.1727L66.3082 147.102L69.4438 140.023H70.5523ZM81.6157 140.023V148.353H80.5863V141.765L77.2132 147.34H76.7065L73.3334 141.749V148.353H72.304V140.023H73.4442L76.9757 146.025L80.5705 140.023H81.6157ZM84.8152 140.023H85.9395V143.713H91.1813V140.023H92.3056V148.353H91.1813V144.679H85.9395V148.353H84.8152V140.023ZM98.3678 139.96C99.4552 139.96 100.289 140.234 100.87 140.783C101.451 141.322 101.741 142.124 101.741 143.19V148.353H100.664V147.054C100.411 147.487 100.036 147.825 99.5396 148.068C99.054 148.311 98.4733 148.432 97.7977 148.432C96.8686 148.432 96.1296 148.211 95.5806 147.767C95.0316 147.324 94.7571 146.738 94.7571 146.009C94.7571 145.302 95.0105 144.732 95.5173 144.299C96.0346 143.866 96.8528 143.65 97.9719 143.65H100.616V143.143C100.616 142.425 100.416 141.881 100.015 141.512C99.6135 141.132 99.0276 140.942 98.2569 140.942C97.7291 140.942 97.2223 141.031 96.7367 141.211C96.251 141.38 95.834 141.617 95.4856 141.924L94.9788 141.084C95.4011 140.725 95.9079 140.451 96.4991 140.261C97.0903 140.06 97.7132 139.96 98.3678 139.96ZM97.9719 147.545C98.6053 147.545 99.149 147.403 99.603 147.118C100.057 146.822 100.395 146.4 100.616 145.851V144.489H98.0035C96.5783 144.489 95.8657 144.985 95.8657 145.978C95.8657 146.463 96.0504 146.849 96.4199 147.134C96.7894 147.408 97.3068 147.545 97.9719 147.545ZM111.132 140.023V148.353H110.102V145.598H107.489H107.173L105.241 148.353H104.021L106.096 145.439C105.452 145.26 104.956 144.954 104.607 144.521C104.259 144.088 104.085 143.539 104.085 142.874C104.085 141.945 104.401 141.237 105.035 140.752C105.668 140.266 106.534 140.023 107.632 140.023H111.132ZM105.225 142.905C105.225 144.141 106.011 144.758 107.585 144.758H110.102V141.021H107.664C106.038 141.021 105.225 141.649 105.225 142.905ZM43.8028 166.046C44.9324 166.31 45.4972 166.99 45.4972 168.088C45.4972 168.817 45.228 169.376 44.6896 169.767C44.1512 170.158 43.3488 170.353 42.2825 170.353H38.4977V162.023H42.1716C43.1218 162.023 43.8661 162.208 44.4045 162.578C44.943 162.947 45.2122 163.475 45.2122 164.161C45.2122 164.615 45.0855 165.006 44.8321 165.333C44.5893 165.65 44.2462 165.887 43.8028 166.046ZM39.5904 165.729H42.0925C42.7365 165.729 43.2274 165.607 43.5652 165.365C43.9136 165.122 44.0878 164.768 44.0878 164.304C44.0878 163.839 43.9136 163.491 43.5652 163.258C43.2274 163.026 42.7365 162.91 42.0925 162.91H39.5904V165.729ZM42.235 169.466C42.9529 169.466 43.4913 169.35 43.8503 169.118C44.2092 168.886 44.3887 168.521 44.3887 168.025C44.3887 167.529 44.2251 167.165 43.8978 166.932C43.5705 166.69 43.0532 166.568 42.3458 166.568H39.5904V169.466H42.235ZM51.5688 170.432C50.7664 170.432 50.0432 170.253 49.3992 169.894C48.7552 169.524 48.2485 169.018 47.8789 168.374C47.5094 167.73 47.3247 167.001 47.3247 166.188C47.3247 165.375 47.5094 164.647 47.8789 164.003C48.2485 163.359 48.7552 162.857 49.3992 162.498C50.0432 162.139 50.7664 161.96 51.5688 161.96C52.3711 161.96 53.0943 162.139 53.7383 162.498C54.3823 162.857 54.8838 163.359 55.2427 164.003C55.6122 164.647 55.797 165.375 55.797 166.188C55.797 167.001 55.6122 167.73 55.2427 168.374C54.8838 169.018 54.3823 169.524 53.7383 169.894C53.0943 170.253 52.3711 170.432 51.5688 170.432ZM51.5688 169.435C52.16 169.435 52.6878 169.303 53.1524 169.039C53.6274 168.764 53.997 168.379 54.2609 167.883C54.5248 167.386 54.6568 166.822 54.6568 166.188C54.6568 165.555 54.5248 164.99 54.2609 164.494C53.997 163.997 53.6274 163.617 53.1524 163.353C52.6878 163.079 52.16 162.942 51.5688 162.942C50.9775 162.942 50.4444 163.079 49.9693 163.353C49.5048 163.617 49.1353 163.997 48.8608 164.494C48.5968 164.99 48.4649 165.555 48.4649 166.188C48.4649 166.822 48.5968 167.386 48.8608 167.883C49.1353 168.379 49.5048 168.764 49.9693 169.039C50.4444 169.303 50.9775 169.435 51.5688 169.435ZM66.2775 169.371V172.364H65.2165V170.353H57.7577V172.364H56.6967V169.371H57.1718C57.7313 169.34 58.1114 168.928 58.312 168.136C58.5126 167.344 58.6498 166.236 58.7237 164.81L58.8346 162.023H64.979V169.371H66.2775ZM59.753 164.874C59.7003 166.056 59.6 167.033 59.4522 167.803C59.3044 168.564 59.0404 169.086 58.6604 169.371H63.8546V163.021H59.8481L59.753 164.874ZM71.3351 161.96C72.4225 161.96 73.2565 162.234 73.8372 162.783C74.4178 163.322 74.7081 164.124 74.7081 165.19V170.353H73.6313V169.054C73.3779 169.487 73.0031 169.825 72.5069 170.068C72.0213 170.311 71.4406 170.432 70.765 170.432C69.8359 170.432 69.0969 170.211 68.5479 169.767C67.9989 169.324 67.7244 168.738 67.7244 168.009C67.7244 167.302 67.9778 166.732 68.4846 166.299C69.0019 165.866 69.8201 165.65 70.9391 165.65H73.5838V165.143C73.5838 164.425 73.3832 163.881 72.982 163.512C72.5808 163.132 71.9949 162.942 71.2242 162.942C70.6963 162.942 70.1896 163.031 69.7039 163.211C69.2183 163.38 68.8013 163.617 68.4529 163.924L67.9461 163.084C68.3684 162.725 68.8752 162.451 69.4664 162.261C70.0576 162.06 70.6805 161.96 71.3351 161.96ZM70.9391 169.545C71.5726 169.545 72.1163 169.403 72.5703 169.118C73.0242 168.822 73.3621 168.4 73.5838 167.851V166.489H70.9708C69.5456 166.489 68.8329 166.985 68.8329 167.978C68.8329 168.463 69.0177 168.849 69.3872 169.134C69.7567 169.408 70.274 169.545 70.9391 169.545Z" fill="#016DA4"/>
<path d="M58.1216 112.064C27.9354 112.064 3.36597 87.5047 3.36597 57.3081C3.36597 47.6749 5.89716 38.2299 10.6772 29.9878L14.3589 31.9751C14.5367 31.6195 14.5577 31.2743 14.5577 31.1488C14.5577 34.1925 29.9331 40.1126 58.1216 40.1126C86.31 40.1126 101.706 34.1925 101.706 31.1593C101.706 31.2848 101.727 31.6195 101.895 31.9647L105.587 29.9983C110.367 38.2404 112.898 47.6958 112.898 57.3185C112.898 87.5047 88.3286 112.074 58.1216 112.074V112.064ZM12.518 35.4477C9.26514 42.215 7.54977 49.704 7.54977 57.3081C7.54977 85.1931 30.2365 107.88 58.1216 107.88C86.0066 107.88 108.714 85.1931 108.714 57.3081C108.714 49.6935 107.009 42.215 103.746 35.4477C97.2506 41.4933 77.0951 44.286 58.1216 44.286C39.148 44.286 19.0029 41.4933 12.518 35.4477Z" fill="#016DA4"/>
<path d="M58.1206 44.2853C35.1201 44.2853 10.3729 40.1747 10.3729 31.1481C10.3729 31.0749 10.3729 30.9285 10.4042 30.7298C10.5193 29.1608 11.4083 27.6965 13.04 26.3681C14.6299 25.0816 16.9623 23.9101 19.9851 22.8642L21.3554 26.8179C18.8242 27.6965 16.8682 28.6588 15.6758 29.6211C14.9959 30.1754 14.5776 30.7298 14.5776 31.0854V31.326C15.1424 34.4115 30.4656 40.1119 58.1206 40.1119C85.7755 40.1119 101.13 34.4115 101.684 31.326V31.0854C101.674 30.7193 101.256 30.1754 100.576 29.6106C96.507 26.3263 83.2757 22.7701 62.9006 22.2575L63.0051 18.0737C81.7904 18.5549 97.5739 21.8078 103.212 26.3681C104.854 27.707 105.732 29.1713 105.858 30.7402C105.889 30.9389 105.889 31.0854 105.889 31.1586C105.889 40.1852 81.1315 44.2958 58.1206 44.2958V44.2853Z" fill="#016DA4"/>
<path d="M51.6767 93.3621C41.6879 93.3621 35.1507 84.5448 34.8787 84.1682C34.3453 83.4361 34.3453 82.4424 34.8787 81.6998C35.1507 81.3232 41.6983 72.5059 51.6767 72.5059C61.6551 72.5059 67.7216 81.3965 67.9726 81.773C68.4328 82.4738 68.4328 83.3838 67.9726 84.0846C67.7216 84.4611 61.7283 93.3621 51.6767 93.3621ZM39.3031 82.934C41.2695 85.0573 45.8298 89.1783 51.6767 89.1783C57.5236 89.1783 61.8015 85.0154 63.5796 82.934C61.812 80.8526 57.534 76.6897 51.6767 76.6897C45.8194 76.6897 41.2695 80.8107 39.3031 82.934Z" fill="#016DA4"/>
<path d="M67.4712 84.608L64.9818 81.2505L78.4432 71.2721C79.0812 70.8014 79.9285 70.7282 80.6292 71.0838C81.33 71.4394 81.7798 72.1612 81.7798 72.9561V82.9344H77.596V77.1085L67.4712 84.6184V84.608Z" fill="#016DA4"/>
<path d="M79.6879 95.004C79.2486 95.004 78.8093 94.8681 78.4432 94.5961L64.9818 84.6178L67.4712 81.2603L77.596 88.7702V87.0025H81.7798V92.933C81.7798 93.728 81.33 94.4497 80.6292 94.8053C80.3364 94.9517 80.0121 95.025 79.6879 95.025V95.004Z" fill="#016DA4"/>
<path d="M48.9887 85.1413L45.2546 83.2482C47.4302 78.9598 46.2274 75.8742 46.2169 75.8428L50.066 74.2007C50.1497 74.3994 52.0743 79.0644 48.9887 85.1413Z" fill="#016DA4"/>
<path d="M89.814 65.7593C85.1386 65.7593 82.7329 63.9184 80.6201 62.2868C78.7164 60.8329 77.2207 59.6823 73.9678 59.6823C70.7149 59.6823 69.2192 60.8329 67.3155 62.2868C65.1923 63.9184 62.7971 65.7593 58.1217 65.7593C53.4463 65.7593 51.051 63.9184 48.9277 62.2868C47.0346 60.8329 45.5284 59.6823 42.2859 59.6823C39.0435 59.6823 37.5373 60.8329 35.6441 62.2868C33.5208 63.9184 31.1152 65.7593 26.4502 65.7593C21.7853 65.7593 19.3796 63.9184 17.2563 62.2868C15.3631 60.8329 13.857 59.6823 10.6041 59.6823V55.4985C15.2795 55.4985 17.6747 57.3394 19.798 58.9711C21.6911 60.425 23.1973 61.5755 26.4398 61.5755C29.6822 61.5755 31.1884 60.425 33.0816 58.9711C35.2048 57.3394 37.6105 55.4985 42.2755 55.4985C46.9404 55.4985 49.3461 57.3394 51.4694 58.9711C53.3626 60.425 54.8687 61.5755 58.1112 61.5755C61.3536 61.5755 62.8598 60.425 64.753 58.9711C66.8763 57.3394 69.282 55.4985 73.9469 55.4985C78.6119 55.4985 81.028 57.3394 83.1408 58.9711C85.0444 60.425 86.5402 61.586 89.7931 61.586C93.046 61.586 94.5417 60.4354 96.4349 58.9815C98.5582 57.3499 100.964 55.509 105.629 55.509V59.6928C102.376 59.6928 100.88 60.8433 98.9765 62.2972C96.8533 63.9289 94.458 65.7698 89.7826 65.7698L89.814 65.7593Z" fill="#016DA4"/>
<path d="M48.6541 36.3051C43.006 36.3051 38.4038 31.7134 38.4038 26.0653C38.4038 20.4171 42.9955 15.8149 48.6541 15.8149C54.3127 15.8149 58.9045 20.4067 58.9045 26.0653C58.9045 31.7239 54.3127 36.3051 48.6541 36.3051ZM48.6541 19.9987C45.3071 19.9987 42.5876 22.7182 42.5876 26.0653C42.5876 29.4123 45.3071 32.1213 48.6541 32.1213C52.0012 32.1213 54.7207 29.4018 54.7207 26.0653C54.7207 22.7287 52.0012 19.9987 48.6541 19.9987Z" fill="#016DA4"/>
<path d="M27.3173 22.9064C20.9997 22.9064 15.8641 17.7707 15.8641 11.4532C15.8641 5.13564 20.9997 0 27.3173 0C33.6348 0 38.7704 5.13564 38.7704 11.4532C38.7704 17.7707 33.6348 22.9064 27.3173 22.9064ZM27.3173 4.19428C23.3113 4.19428 20.0479 7.45764 20.0479 11.4636C20.0479 15.4696 23.3113 18.733 27.3173 18.733C31.3233 18.733 34.5866 15.4696 34.5866 11.4636C34.5866 7.45764 31.3233 4.19428 27.3173 4.19428Z" fill="#016DA4"/>
<path d="M26.9403 79.1046C26.6684 79.1046 26.3964 79.0522 26.1454 78.9476C25.8839 78.843 25.6643 78.6862 25.4655 78.4979C25.3609 78.3933 25.2773 78.2887 25.204 78.1736C25.1204 78.0586 25.0576 77.9435 25.0053 77.818C24.953 77.6925 24.9112 77.5565 24.8902 77.4206C24.8589 77.295 24.8484 77.1486 24.8484 77.0127C24.8484 76.4583 25.0681 75.9249 25.4655 75.5379C25.5597 75.4437 25.6642 75.3496 25.7793 75.2764C25.8944 75.2032 26.0199 75.1404 26.1454 75.0881C26.2709 75.0253 26.3964 74.9939 26.5324 74.9626C26.8043 74.9103 27.0763 74.9103 27.3482 74.9626C27.4842 74.9939 27.6202 75.0253 27.7457 75.0881C27.8712 75.1404 27.9863 75.2032 28.1013 75.2764C28.2164 75.3496 28.321 75.4437 28.4151 75.5379C28.8126 75.9249 29.0322 76.4583 29.0322 77.0127C29.0322 77.1486 29.0322 77.295 28.9904 77.4206C28.9695 77.5565 28.9276 77.6925 28.8753 77.818C28.823 77.9435 28.7603 78.0586 28.687 78.1736C28.6034 78.2887 28.5197 78.3933 28.4151 78.4979C28.321 78.592 28.2164 78.6757 28.1013 78.7594C27.9863 78.8326 27.8712 78.8953 27.7457 78.9476C27.6202 78.9999 27.4842 79.0418 27.3482 79.0627C27.2227 79.0941 27.0763 79.1046 26.9403 79.1046Z" fill="#016DA4"/>
<path d="M34.8804 70.0469C34.3261 70.0469 33.8031 69.8272 33.4056 69.4297C33.0082 69.0323 32.7885 68.5093 32.7885 67.9445C32.7885 67.3797 33.0082 66.8567 33.4056 66.4697C34.1796 65.6957 35.5812 65.6852 36.3657 66.4697C36.4598 66.5638 36.5435 66.6684 36.6167 66.7835C36.7004 66.8985 36.7631 67.024 36.8154 67.1495C36.8677 67.2751 36.9096 67.411 36.9305 67.5365C36.9619 67.6725 36.9723 67.8085 36.9723 67.9445C36.9723 68.5093 36.7527 69.0323 36.3657 69.4297C35.9682 69.8272 35.4348 70.0469 34.8804 70.0469Z" fill="#016DA4"/>
</svg>
