<svg width="151" height="198" viewBox="0 0 151 198" fill="none" xmlns="http://www.w3.org/2000/svg">
<path d="M2.99899 155.073H11.7131V156.146H4.24144V160.043H8.13896C9.54593 160.043 10.6125 160.333 11.3387 160.911C12.0762 161.49 12.445 162.33 12.445 163.43C12.445 164.576 12.0478 165.456 11.2536 166.068C10.4707 166.681 9.34169 166.987 7.86664 166.987H2.99899V155.073ZM7.84962 165.983C8.95023 165.983 9.77853 165.773 10.3345 165.353C10.9018 164.934 11.1855 164.31 11.1855 163.481C11.1855 162.664 10.9075 162.057 10.3515 161.66C9.8069 161.252 8.97293 161.047 7.84962 161.047H4.24144V165.983H7.84962ZM22.4341 158.035L17.9579 168.06C17.5948 168.899 17.175 169.495 16.6984 169.847C16.2219 170.198 15.6489 170.374 14.9794 170.374C14.5483 170.374 14.1455 170.306 13.771 170.17C13.3966 170.034 13.0732 169.83 12.8009 169.557L13.3626 168.655C13.8164 169.109 14.3611 169.336 14.9965 169.336C15.4049 169.336 15.751 169.223 16.0347 168.996C16.3297 168.769 16.602 168.383 16.8516 167.838L17.2431 166.97L13.2434 158.035H14.5029L17.8728 165.643L21.2427 158.035H22.4341ZM30.6473 159.107H27.2604V166.987H26.052V159.107H22.6651V158.035H30.6473V159.107ZM32.3945 158.035H33.6029V165.149L39.5768 158.035H40.6491V166.987H39.4407V159.873L33.4838 166.987H32.3945V158.035ZM51.4307 158.035V166.987H50.2223V159.107H45.9333L45.8142 161.32C45.7234 163.181 45.5078 164.61 45.1674 165.609C44.827 166.607 44.22 167.106 43.3463 167.106C43.108 167.106 42.8187 167.061 42.4783 166.97L42.5634 165.932C42.7676 165.977 42.9095 166 42.9889 166C43.4541 166 43.8059 165.785 44.0441 165.353C44.2824 164.922 44.4413 164.389 44.5207 163.754C44.6001 163.118 44.6682 162.279 44.7249 161.235L44.8781 158.035H51.4307ZM54.8659 158.035H56.0743V165.149L62.0482 158.035H63.1205V166.987H61.9121V159.873L55.9552 166.987H54.8659V158.035ZM71.196 157.967C72.0356 157.967 72.7958 158.16 73.4766 158.546C74.1574 158.92 74.6907 159.453 75.0765 160.145C75.4622 160.837 75.6551 161.626 75.6551 162.511C75.6551 163.407 75.4622 164.202 75.0765 164.894C74.6907 165.586 74.1574 166.125 73.4766 166.511C72.8072 166.885 72.0469 167.072 71.196 167.072C70.4698 167.072 69.8117 166.925 69.2217 166.63C68.643 166.324 68.1664 165.881 67.792 165.302V170.289H66.5836V158.035H67.7409V159.805C68.104 159.215 68.5806 158.761 69.1706 158.443C69.772 158.126 70.4471 157.967 71.196 157.967ZM71.1109 166C71.7349 166 72.3022 165.858 72.8128 165.575C73.3234 165.28 73.7206 164.866 74.0042 164.332C74.2992 163.799 74.4467 163.192 74.4467 162.511C74.4467 161.83 74.2992 161.229 74.0042 160.707C73.7206 160.174 73.3234 159.76 72.8128 159.465C72.3022 159.17 71.7349 159.022 71.1109 159.022C70.4755 159.022 69.9025 159.17 69.3919 159.465C68.8926 159.76 68.4955 160.174 68.2005 160.707C67.9168 161.229 67.775 161.83 67.775 162.511C67.775 163.192 67.9168 163.799 68.2005 164.332C68.4955 164.866 68.8926 165.28 69.3919 165.575C69.9025 165.858 70.4755 166 71.1109 166ZM81.9447 167.072C81.0824 167.072 80.3052 166.88 79.613 166.494C78.9209 166.097 78.3763 165.552 77.9791 164.86C77.582 164.168 77.3834 163.385 77.3834 162.511C77.3834 161.637 77.582 160.855 77.9791 160.162C78.3763 159.47 78.9209 158.931 79.613 158.546C80.3052 158.16 81.0824 157.967 81.9447 157.967C82.8071 157.967 83.5843 158.16 84.2764 158.546C84.9686 158.931 85.5075 159.47 85.8933 160.162C86.2904 160.855 86.489 161.637 86.489 162.511C86.489 163.385 86.2904 164.168 85.8933 164.86C85.5075 165.552 84.9686 166.097 84.2764 166.494C83.5843 166.88 82.8071 167.072 81.9447 167.072ZM81.9447 166C82.5801 166 83.1475 165.858 83.6467 165.575C84.1573 165.28 84.5544 164.866 84.8381 164.332C85.1218 163.799 85.2636 163.192 85.2636 162.511C85.2636 161.83 85.1218 161.223 84.8381 160.69C84.5544 160.157 84.1573 159.748 83.6467 159.465C83.1475 159.17 82.5801 159.022 81.9447 159.022C81.3093 159.022 80.7363 159.17 80.2257 159.465C79.7265 159.748 79.3294 160.157 79.0344 160.69C78.7507 161.223 78.6089 161.83 78.6089 162.511C78.6089 163.192 78.7507 163.799 79.0344 164.332C79.3294 164.866 79.7265 165.28 80.2257 165.575C80.7363 165.858 81.3093 166 81.9447 166ZM94.7732 162.358C95.9873 162.642 96.5944 163.373 96.5944 164.553C96.5944 165.336 96.305 165.938 95.7264 166.358C95.1477 166.777 94.2853 166.987 93.1393 166.987H89.0716V158.035H93.0202C94.0414 158.035 94.8413 158.233 95.42 158.631C95.9987 159.028 96.288 159.595 96.288 160.333C96.288 160.82 96.1518 161.24 95.8795 161.592C95.6186 161.932 95.2498 162.188 94.7732 162.358ZM90.246 162.018H92.9351C93.6272 162.018 94.1549 161.887 94.5179 161.626C94.8924 161.365 95.0796 160.985 95.0796 160.486C95.0796 159.987 94.8924 159.612 94.5179 159.362C94.1549 159.113 93.6272 158.988 92.9351 158.988H90.246V162.018ZM93.0883 166.034C93.8599 166.034 94.4385 165.909 94.8243 165.66C95.2101 165.41 95.403 165.019 95.403 164.485C95.403 163.952 95.2271 163.561 94.8754 163.311C94.5236 163.05 93.9676 162.92 93.2074 162.92H90.246V166.034H93.0883ZM102.507 157.967C103.676 157.967 104.572 158.262 105.196 158.852C105.82 159.431 106.132 160.293 106.132 161.439V166.987H104.975V165.592C104.703 166.057 104.3 166.42 103.766 166.681C103.245 166.942 102.62 167.072 101.894 167.072C100.896 167.072 100.102 166.834 99.5115 166.358C98.9215 165.881 98.6265 165.251 98.6265 164.468C98.6265 163.708 98.8988 163.095 99.4434 162.63C99.9994 162.165 100.879 161.932 102.081 161.932H104.924V161.388C104.924 160.616 104.708 160.032 104.277 159.635C103.846 159.226 103.216 159.022 102.388 159.022C101.821 159.022 101.276 159.119 100.754 159.311C100.232 159.493 99.7838 159.748 99.4094 160.077L98.8648 159.175C99.3186 158.789 99.8633 158.494 100.499 158.29C101.134 158.075 101.804 157.967 102.507 157.967ZM102.081 166.119C102.762 166.119 103.347 165.966 103.835 165.66C104.322 165.342 104.686 164.888 104.924 164.298V162.834H102.116C100.584 162.834 99.8179 163.368 99.8179 164.434C99.8179 164.956 100.016 165.37 100.414 165.677C100.811 165.972 101.367 166.119 102.081 166.119ZM109.349 158.035H110.557V162.001H116.191V158.035H117.399V166.987H116.191V163.039H110.557V166.987H109.349V158.035ZM120.834 158.035H122.042V162.001H127.676V158.035H128.884V166.987H127.676V163.039H122.042V166.987H120.834V158.035ZM135.4 157.967C136.568 157.967 137.465 158.262 138.089 158.852C138.713 159.431 139.025 160.293 139.025 161.439V166.987H137.868V165.592C137.595 166.057 137.192 166.42 136.659 166.681C136.137 166.942 135.513 167.072 134.787 167.072C133.788 167.072 132.994 166.834 132.404 166.358C131.814 165.881 131.519 165.251 131.519 164.468C131.519 163.708 131.791 163.095 132.336 162.63C132.892 162.165 133.771 161.932 134.974 161.932H137.816V161.388C137.816 160.616 137.601 160.032 137.17 159.635C136.739 159.226 136.109 159.022 135.281 159.022C134.713 159.022 134.169 159.119 133.647 159.311C133.125 159.493 132.677 159.748 132.302 160.077L131.757 159.175C132.211 158.789 132.756 158.494 133.391 158.29C134.027 158.075 134.696 157.967 135.4 157.967ZM134.974 166.119C135.655 166.119 136.239 165.966 136.727 165.66C137.215 165.342 137.578 164.888 137.816 164.298V162.834H135.008C133.476 162.834 132.711 163.368 132.711 164.434C132.711 164.956 132.909 165.37 133.306 165.677C133.703 165.972 134.259 166.119 134.974 166.119ZM149.118 158.035V166.987H148.011V164.026H145.203H144.863L142.786 166.987H141.476L143.705 163.856C143.013 163.663 142.48 163.334 142.106 162.869C141.731 162.403 141.544 161.813 141.544 161.098C141.544 160.1 141.884 159.34 142.565 158.818C143.246 158.296 144.176 158.035 145.356 158.035H149.118ZM142.769 161.133C142.769 162.46 143.615 163.124 145.305 163.124H148.011V159.107H145.39C143.643 159.107 142.769 159.782 142.769 161.133ZM62.2712 186.358C63.4852 186.642 64.0923 187.373 64.0923 188.553C64.0923 189.336 63.8029 189.938 63.2243 190.358C62.6456 190.777 61.7833 190.987 60.6373 190.987H56.5695V182.035H60.5181C61.5393 182.035 62.3392 182.233 62.9179 182.631C63.4966 183.028 63.7859 183.595 63.7859 184.333C63.7859 184.82 63.6498 185.24 63.3774 185.592C63.1165 185.932 62.7477 186.188 62.2712 186.358ZM57.7439 186.018H60.433C61.1252 186.018 61.6528 185.887 62.0159 185.626C62.3903 185.365 62.5775 184.985 62.5775 184.486C62.5775 183.987 62.3903 183.612 62.0159 183.362C61.6528 183.113 61.1252 182.988 60.433 182.988H57.7439V186.018ZM60.5862 190.034C61.3578 190.034 61.9364 189.909 62.3222 189.66C62.708 189.41 62.9009 189.019 62.9009 188.485C62.9009 187.952 62.725 187.561 62.3733 187.311C62.0215 187.05 61.4656 186.92 60.7053 186.92H57.7439V190.034H60.5862ZM70.6176 191.072C69.7553 191.072 68.9781 190.88 68.2859 190.494C67.5938 190.097 67.0491 189.552 66.652 188.86C66.2549 188.168 66.0563 187.385 66.0563 186.511C66.0563 185.637 66.2549 184.855 66.652 184.162C67.0491 183.47 67.5938 182.931 68.2859 182.546C68.9781 182.16 69.7553 181.967 70.6176 181.967C71.48 181.967 72.2572 182.16 72.9493 182.546C73.6415 182.931 74.1804 183.47 74.5662 184.162C74.9633 184.855 75.1619 185.637 75.1619 186.511C75.1619 187.385 74.9633 188.168 74.5662 188.86C74.1804 189.552 73.6415 190.097 72.9493 190.494C72.2572 190.88 71.48 191.072 70.6176 191.072ZM70.6176 190C71.253 190 71.8203 189.858 72.3196 189.575C72.8302 189.28 73.2273 188.866 73.511 188.332C73.7946 187.799 73.9365 187.192 73.9365 186.511C73.9365 185.83 73.7946 185.223 73.511 184.69C73.2273 184.157 72.8302 183.748 72.3196 183.465C71.8203 183.17 71.253 183.022 70.6176 183.022C69.9822 183.022 69.4092 183.17 68.8986 183.465C68.3994 183.748 68.0023 184.157 67.7072 184.69C67.4236 185.223 67.2817 185.83 67.2817 186.511C67.2817 187.192 67.4236 187.799 67.7072 188.332C68.0023 188.866 68.3994 189.28 68.8986 189.575C69.4092 189.858 69.9822 190 70.6176 190ZM86.4258 189.932V193.149H85.2855V190.987H77.2692V193.149H76.1288V189.932H76.6394C77.2408 189.898 77.6493 189.456 77.8648 188.605C78.0804 187.754 78.2279 186.562 78.3074 185.03L78.4265 182.035H85.0302V189.932H86.4258ZM79.4136 185.098C79.3569 186.369 79.2491 187.419 79.0903 188.247C78.9314 189.064 78.6478 189.626 78.2393 189.932H83.8218V183.107H79.5158L79.4136 185.098ZM91.8613 181.967C93.03 181.967 93.9264 182.262 94.5505 182.852C95.1745 183.431 95.4865 184.293 95.4865 185.439V190.987H94.3292V189.592C94.0569 190.057 93.6541 190.42 93.1208 190.681C92.5989 190.942 91.9748 191.072 91.2486 191.072C90.2501 191.072 89.4559 190.834 88.8659 190.358C88.2758 189.881 87.9808 189.251 87.9808 188.468C87.9808 187.708 88.2532 187.095 88.7978 186.63C89.3538 186.165 90.2331 185.932 91.4358 185.932H94.2781V185.388C94.2781 184.616 94.0626 184.032 93.6314 183.635C93.2002 183.226 92.5705 183.022 91.7422 183.022C91.1749 183.022 90.6302 183.119 90.1083 183.311C89.5864 183.493 89.1382 183.748 88.7637 184.077L88.2191 183.175C88.673 182.789 89.2176 182.494 89.853 182.29C90.4884 182.075 91.1579 181.967 91.8613 181.967ZM91.4358 190.119C92.1166 190.119 92.701 189.966 93.1889 189.66C93.6768 189.342 94.0399 188.888 94.2781 188.298V186.834H91.4699C89.9381 186.834 89.1722 187.368 89.1722 188.434C89.1722 188.956 89.3708 189.37 89.7679 189.677C90.165 189.972 90.721 190.119 91.4358 190.119Z" fill="#016DA4"/>
<path d="M107.836 116.896C94.5857 116.896 83.8099 106.12 83.8099 92.8694C83.8099 79.6189 105.215 49.453 106.124 48.1478C106.51 47.5839 107.157 47.2603 107.836 47.2603C108.515 47.2603 109.162 47.5944 109.549 48.1478C110.457 49.453 131.862 80.235 131.862 92.8694C131.862 106.12 121.087 116.896 107.836 116.896ZM107.836 53.0345C101.028 63.1315 87.9866 84.2654 87.9866 92.8694C87.9866 103.812 96.8933 112.719 107.836 112.719C118.779 112.719 127.686 103.812 127.686 92.8694C127.686 84.2654 114.644 63.142 107.836 53.0345Z" fill="#016DA4"/>
<path d="M92.7903 101.233C91.0466 98.4349 90.1277 95.2084 90.1277 91.8984C90.1277 89.7683 90.8691 86.9909 92.3936 83.3989L96.2361 85.0278C94.6385 88.7868 94.3044 90.8334 94.3044 91.8984C94.3044 94.4253 95.004 96.8895 96.3301 99.0301L92.7799 101.233H92.7903Z" fill="#016DA4"/>
<path d="M87.8719 43.3861H26.5377C25.9739 43.3861 25.4309 43.1564 25.0446 42.7596C24.6478 42.3524 24.4389 41.8094 24.4494 41.2456C24.5956 35.3461 27.6758 29.9582 32.667 26.8361L46.8571 17.9503C47.327 17.6579 47.6089 17.1567 47.6089 16.6033V11.017C47.6089 9.86846 48.5487 8.92871 49.6973 8.92871H64.7123C65.8609 8.92871 66.8007 9.86846 66.8007 11.017V16.6033C66.8007 17.1567 67.0826 17.6579 67.542 17.9503L81.7427 26.8361C86.7338 29.9582 89.8141 35.3461 89.9602 41.2456C89.9707 41.8094 89.7618 42.3524 89.3651 42.7596C88.9683 43.1669 88.4358 43.3861 87.8719 43.3861ZM28.8453 39.2095H85.5539C84.8752 35.5758 82.7137 32.3702 79.5186 30.3758L65.318 21.49C63.6264 20.4458 62.6031 18.6081 62.6031 16.5929V13.0949H51.7647V16.5929C51.7647 18.6081 50.7519 20.4354 49.0394 21.49L34.8597 30.3654C31.675 32.3598 29.5136 35.5653 28.8244 39.199L28.8453 39.2095Z" fill="#016DA4"/>
<path d="M87.8834 69.7824H26.5283C25.3797 69.7824 24.4399 68.8427 24.4399 67.6941V50.2148C24.4399 49.0662 25.3797 48.1265 26.5283 48.1265H87.8834C89.0319 48.1265 89.9717 49.0662 89.9717 50.2148V67.6941C89.9717 68.8427 89.0319 69.7824 87.8834 69.7824ZM28.6166 65.6058H85.795V52.3031H28.6166V65.6058Z" fill="#016DA4"/>
<path d="M28.6166 76.6328H24.4399V94.1121H28.6166V76.6328Z" fill="#016DA4"/>
<path d="M77.3686 117.543H37.043C30.0889 117.543 24.4399 111.884 24.4399 104.94V103.029H28.6166V104.94C28.6166 109.587 32.3965 113.367 37.043 113.367H77.3686C80.073 113.367 82.6312 112.061 84.2079 109.869L87.591 112.312C85.2312 115.591 81.3991 117.543 77.3686 117.543Z" fill="#016DA4"/>
<path d="M64.7013 13.0952H49.6967C48.5481 13.0952 47.6084 12.1554 47.6084 11.0069V2.20454C47.6084 1.05596 48.5481 0.116211 49.6967 0.116211H64.7013C65.8499 0.116211 66.7897 1.05596 66.7897 2.20454V11.0069C66.7897 12.1554 65.8499 13.0952 64.7013 13.0952ZM51.785 8.91852H62.613V4.29287H51.785V8.91852Z" fill="#016DA4"/>
<path d="M89.0424 52.315H25.3588C22.4978 52.315 20.1693 49.9865 20.1693 47.1255V44.4107C20.1693 41.5497 22.4978 39.2212 25.3588 39.2212H89.0424C91.9034 39.2212 94.2423 41.5497 94.2423 44.4107V47.1255C94.2423 49.9865 91.9138 52.315 89.0424 52.315ZM25.3588 43.3874C24.795 43.3874 24.346 43.8468 24.346 44.4002V47.1151C24.346 47.6789 24.8054 48.1279 25.3588 48.1279H89.0424C89.6062 48.1279 90.0657 47.6685 90.0657 47.1151V44.4002C90.0657 43.8364 89.6062 43.3874 89.0424 43.3874H25.3588Z" fill="#016DA4"/>
<path d="M83.289 78.7217H25.3588C22.4978 78.7217 20.1693 76.3933 20.1693 73.5322V70.8174C20.1693 67.9564 22.4978 65.6279 25.3588 65.6279H87.8729V69.8046H25.3588C24.795 69.8046 24.346 70.264 24.346 70.8174V73.5322C24.346 74.0961 24.8054 74.5451 25.3588 74.5451H83.289V78.7217Z" fill="#016DA4"/>
<path d="M79.4152 105.128H25.3588C22.4978 105.128 20.1693 102.799 20.1693 99.9277V97.2129C20.1693 94.3519 22.4978 92.0234 25.3588 92.0234H78.8304V96.2001H25.3588C24.795 96.2001 24.346 96.6595 24.346 97.2129V99.9277C24.346 100.492 24.8054 100.951 25.3588 100.951H79.4152V105.128Z" fill="#016DA4"/>
</svg>
