<svg width="161" height="212" viewBox="0 0 161 212" fill="none" xmlns="http://www.w3.org/2000/svg">
<path d="M7.52939 181.09C6.34936 181.09 5.27711 180.829 4.31266 180.307C3.35955 179.774 2.61068 179.048 2.06605 178.129C1.53277 177.21 1.26612 176.177 1.26612 175.031C1.26612 173.885 1.53277 172.853 2.06605 171.934C2.61068 171.015 3.35955 170.294 4.31266 169.772C5.27711 169.239 6.34936 168.972 7.52939 168.972C8.70943 168.972 9.77033 169.233 10.7121 169.755C11.6652 170.277 12.4141 171.003 12.9587 171.934C13.5033 172.853 13.7756 173.885 13.7756 175.031C13.7756 176.177 13.5033 177.216 12.9587 178.146C12.4141 179.065 11.6652 179.786 10.7121 180.307C9.77033 180.829 8.70943 181.09 7.52939 181.09ZM7.52939 179.967C8.47115 179.967 9.32214 179.757 10.0824 179.337C10.8426 178.906 11.4383 178.316 11.8694 177.567C12.3006 176.807 12.5162 175.962 12.5162 175.031C12.5162 174.101 12.3006 173.261 11.8694 172.512C11.4383 171.752 10.8426 171.162 10.0824 170.742C9.32214 170.311 8.47115 170.096 7.52939 170.096C6.58763 170.096 5.73097 170.311 4.95941 170.742C4.1992 171.162 3.59783 171.752 3.15532 172.512C2.72415 173.261 2.50857 174.101 2.50857 175.031C2.50857 175.962 2.72415 176.807 3.15532 177.567C3.59783 178.316 4.1992 178.906 4.95941 179.337C5.73097 179.757 6.58763 179.967 7.52939 179.967ZM22.5398 173.108H19.1528V180.988H17.9444V173.108H14.5575V172.036H22.5398V173.108ZM34.679 176.495C34.679 177.891 34.2194 178.986 33.3004 179.78C32.3813 180.574 31.0821 181.005 29.4028 181.073V184.29H28.2285V181.09C26.5605 181.022 25.267 180.591 24.348 179.797C23.4403 178.991 22.9864 177.891 22.9864 176.495C22.9864 175.111 23.4403 174.027 24.348 173.244C25.267 172.461 26.5605 172.036 28.2285 171.968V168.36H29.4028V171.968C31.0821 172.047 32.3813 172.478 33.3004 173.261C34.2194 174.044 34.679 175.122 34.679 176.495ZM24.1778 176.495C24.1778 177.562 24.5182 178.396 25.199 178.997C25.8911 179.598 26.9009 179.939 28.2285 180.018V173.04C26.9123 173.108 25.9081 173.443 25.216 174.044C24.5238 174.634 24.1778 175.451 24.1778 176.495ZM29.4028 180.018C30.7304 179.95 31.7402 179.615 32.4324 179.014C33.1358 178.413 33.4876 177.573 33.4876 176.495C33.4876 175.44 33.1358 174.617 32.4324 174.027C31.7402 173.437 30.7304 173.108 29.4028 173.04V180.018ZM37.2346 172.036H38.443V179.15L44.4169 172.036H45.4892V180.988H44.2808V173.874L38.3239 180.988H37.2346V172.036ZM56.2708 172.036V180.988H55.0624V173.108H50.7734L50.6543 175.321C50.5635 177.182 50.3479 178.611 50.0075 179.61C49.6671 180.608 49.0601 181.107 48.1864 181.107C47.9481 181.107 47.6588 181.062 47.3184 180.971L47.4035 179.933C47.6077 179.978 47.7496 180.001 47.829 180.001C48.2942 180.001 48.6459 179.786 48.8842 179.354C49.1225 178.923 49.2813 178.39 49.3608 177.755C49.4402 177.119 49.5083 176.279 49.565 175.236L49.7182 172.036H56.2708ZM63.5524 175.202C64.6758 175.213 65.5267 175.463 66.1054 175.95C66.6954 176.438 66.9904 177.142 66.9904 178.061C66.9904 179.014 66.6727 179.746 66.0373 180.256C65.4133 180.767 64.5056 181.017 63.3142 181.005L59.706 180.988V172.036H60.9144V175.168L63.5524 175.202ZM63.2461 180.086C64.0744 180.098 64.6984 179.933 65.1183 179.593C65.5494 179.241 65.765 178.73 65.765 178.061C65.765 177.403 65.5551 176.915 65.1353 176.597C64.7155 176.279 64.0857 176.115 63.2461 176.104L60.9144 176.07V180.052L63.2461 180.086ZM74.696 173.108H71.3091V180.988H70.1007V173.108H66.7137V172.036H74.696V173.108ZM81.0555 171.968C81.8952 171.968 82.6554 172.161 83.3362 172.546C84.017 172.921 84.5503 173.454 84.936 174.146C85.3218 174.838 85.5147 175.627 85.5147 176.512C85.5147 177.408 85.3218 178.203 84.936 178.895C84.5503 179.587 84.017 180.126 83.3362 180.512C82.6667 180.886 81.9065 181.073 81.0555 181.073C80.3294 181.073 79.6713 180.926 79.0812 180.631C78.5026 180.325 78.026 179.882 77.6516 179.303V184.29H76.4432V172.036H77.6005V173.806C77.9636 173.216 78.4402 172.762 79.0302 172.444C79.6316 172.127 80.3067 171.968 81.0555 171.968ZM80.9704 180.001C81.5945 180.001 82.1618 179.859 82.6724 179.576C83.183 179.281 83.5801 178.866 83.8638 178.333C84.1588 177.8 84.3063 177.193 84.3063 176.512C84.3063 175.831 84.1588 175.23 83.8638 174.708C83.5801 174.175 83.183 173.761 82.6724 173.466C82.1618 173.171 81.5945 173.023 80.9704 173.023C80.335 173.023 79.762 173.171 79.2514 173.466C78.7522 173.761 78.3551 174.175 78.0601 174.708C77.7764 175.23 77.6346 175.831 77.6346 176.512C77.6346 177.193 77.7764 177.8 78.0601 178.333C78.3551 178.866 78.7522 179.281 79.2514 179.576C79.762 179.859 80.335 180.001 80.9704 180.001ZM91.8043 181.073C90.942 181.073 90.1647 180.88 89.4726 180.495C88.7805 180.098 88.2358 179.553 87.8387 178.861C87.4416 178.169 87.243 177.386 87.243 176.512C87.243 175.638 87.4416 174.855 87.8387 174.163C88.2358 173.471 88.7805 172.932 89.4726 172.546C90.1647 172.161 90.942 171.968 91.8043 171.968C92.6666 171.968 93.4439 172.161 94.136 172.546C94.8282 172.932 95.3671 173.471 95.7529 174.163C96.15 174.855 96.3486 175.638 96.3486 176.512C96.3486 177.386 96.15 178.169 95.7529 178.861C95.3671 179.553 94.8282 180.098 94.136 180.495C93.4439 180.88 92.6666 181.073 91.8043 181.073ZM91.8043 180.001C92.4397 180.001 93.007 179.859 93.5063 179.576C94.0169 179.281 94.414 178.866 94.6977 178.333C94.9813 177.8 95.1232 177.193 95.1232 176.512C95.1232 175.831 94.9813 175.224 94.6977 174.691C94.414 174.158 94.0169 173.749 93.5063 173.466C93.007 173.171 92.4397 173.023 91.8043 173.023C91.1689 173.023 90.5959 173.171 90.0853 173.466C89.5861 173.749 89.1889 174.158 88.8939 174.691C88.6103 175.224 88.4684 175.831 88.4684 176.512C88.4684 177.193 88.6103 177.8 88.8939 178.333C89.1889 178.866 89.5861 179.281 90.0853 179.576C90.5959 179.859 91.1689 180.001 91.8043 180.001ZM104.633 176.359C105.847 176.643 106.454 177.374 106.454 178.554C106.454 179.337 106.165 179.939 105.586 180.359C105.007 180.778 104.145 180.988 102.999 180.988H98.9312V172.036H102.88C103.901 172.036 104.701 172.234 105.28 172.632C105.858 173.029 106.148 173.596 106.148 174.334C106.148 174.821 106.011 175.241 105.739 175.593C105.478 175.933 105.109 176.189 104.633 176.359ZM100.106 176.019H102.795C103.487 176.019 104.014 175.888 104.378 175.627C104.752 175.366 104.939 174.986 104.939 174.487C104.939 173.987 104.752 173.613 104.378 173.363C104.014 173.114 103.487 172.989 102.795 172.989H100.106V176.019ZM102.948 180.035C103.719 180.035 104.298 179.91 104.684 179.661C105.07 179.411 105.263 179.02 105.263 178.486C105.263 177.953 105.087 177.562 104.735 177.312C104.383 177.051 103.827 176.921 103.067 176.921H100.106V180.035H102.948ZM112.367 171.968C113.535 171.968 114.432 172.263 115.056 172.853C115.68 173.432 115.992 174.294 115.992 175.44V180.988H114.834V179.593C114.562 180.058 114.159 180.421 113.626 180.682C113.104 180.943 112.48 181.073 111.754 181.073C110.755 181.073 109.961 180.835 109.371 180.359C108.781 179.882 108.486 179.252 108.486 178.469C108.486 177.709 108.758 177.096 109.303 176.631C109.859 176.166 110.738 175.933 111.941 175.933H114.783V175.389C114.783 174.617 114.568 174.033 114.137 173.636C113.705 173.227 113.076 173.023 112.247 173.023C111.68 173.023 111.135 173.119 110.614 173.312C110.092 173.494 109.643 173.749 109.269 174.078L108.724 173.176C109.178 172.79 109.723 172.495 110.358 172.291C110.994 172.076 111.663 171.968 112.367 171.968ZM111.941 180.12C112.622 180.12 113.206 179.967 113.694 179.661C114.182 179.343 114.545 178.889 114.783 178.299V176.835H111.975C110.443 176.835 109.677 177.369 109.677 178.435C109.677 178.957 109.876 179.371 110.273 179.678C110.67 179.973 111.226 180.12 111.941 180.12ZM119.209 172.036H120.417V176.001H126.051V172.036H127.259V180.988H126.051V177.04H120.417V180.988H119.209V172.036ZM130.694 172.036H131.902V176.001H137.536V172.036H138.744V180.988H137.536V177.04H131.902V180.988H130.694V172.036ZM145.259 171.968C146.428 171.968 147.324 172.263 147.948 172.853C148.572 173.432 148.884 174.294 148.884 175.44V180.988H147.727V179.593C147.455 180.058 147.052 180.421 146.519 180.682C145.997 180.943 145.373 181.073 144.647 181.073C143.648 181.073 142.854 180.835 142.264 180.359C141.674 179.882 141.379 179.252 141.379 178.469C141.379 177.709 141.651 177.096 142.196 176.631C142.752 176.166 143.631 175.933 144.834 175.933H147.676V175.389C147.676 174.617 147.46 174.033 147.029 173.636C146.598 173.227 145.968 173.023 145.14 173.023C144.573 173.023 144.028 173.119 143.506 173.312C142.984 173.494 142.536 173.749 142.162 174.078L141.617 173.176C142.071 172.79 142.616 172.495 143.251 172.291C143.886 172.076 144.556 171.968 145.259 171.968ZM144.834 180.12C145.515 180.12 146.099 179.967 146.587 179.661C147.075 179.343 147.438 178.889 147.676 178.299V176.835H144.868C143.336 176.835 142.57 177.369 142.57 178.435C142.57 178.957 142.769 179.371 143.166 179.678C143.563 179.973 144.119 180.12 144.834 180.12ZM158.977 172.036V180.988H157.871V178.027H155.063H154.722L152.646 180.988H151.335L153.565 177.857C152.873 177.664 152.34 177.335 151.965 176.869C151.591 176.404 151.404 175.814 151.404 175.099C151.404 174.101 151.744 173.341 152.425 172.819C153.105 172.297 154.036 172.036 155.216 172.036H158.977ZM152.629 175.133C152.629 176.461 153.474 177.125 155.165 177.125H157.871V173.108H155.25C153.503 173.108 152.629 173.783 152.629 175.133ZM66.8536 200.359C68.0677 200.643 68.6747 201.374 68.6747 202.554C68.6747 203.337 68.3854 203.939 67.8067 204.359C67.2281 204.778 66.3657 204.988 65.2197 204.988H61.152V196.036H65.1006C66.1218 196.036 66.9217 196.234 67.5004 196.632C68.079 197.029 68.3684 197.596 68.3684 198.334C68.3684 198.821 68.2322 199.241 67.9599 199.593C67.6989 199.933 67.3302 200.189 66.8536 200.359ZM62.3264 200.019H65.0155C65.7076 200.019 66.2352 199.888 66.5983 199.627C66.9728 199.366 67.16 198.986 67.16 198.487C67.16 197.987 66.9728 197.613 66.5983 197.363C66.2352 197.114 65.7076 196.989 65.0155 196.989H62.3264V200.019ZM65.1687 204.035C65.9402 204.035 66.5189 203.91 66.9047 203.661C67.2905 203.411 67.4834 203.02 67.4834 202.486C67.4834 201.953 67.3075 201.562 66.9557 201.312C66.604 201.051 66.048 200.921 65.2878 200.921H62.3264V204.035H65.1687ZM75.2001 205.073C74.3377 205.073 73.5605 204.88 72.8684 204.495C72.1762 204.098 71.6316 203.553 71.2345 202.861C70.8373 202.169 70.6388 201.386 70.6388 200.512C70.6388 199.638 70.8373 198.855 71.2345 198.163C71.6316 197.471 72.1762 196.932 72.8684 196.546C73.5605 196.161 74.3377 195.968 75.2001 195.968C76.0624 195.968 76.8396 196.161 77.5318 196.546C78.2239 196.932 78.7629 197.471 79.1487 198.163C79.5458 198.855 79.7444 199.638 79.7444 200.512C79.7444 201.386 79.5458 202.169 79.1487 202.861C78.7629 203.553 78.2239 204.098 77.5318 204.495C76.8396 204.88 76.0624 205.073 75.2001 205.073ZM75.2001 204.001C75.8355 204.001 76.4028 203.859 76.9021 203.576C77.4126 203.281 77.8098 202.866 78.0934 202.333C78.3771 201.8 78.5189 201.193 78.5189 200.512C78.5189 199.831 78.3771 199.224 78.0934 198.691C77.8098 198.158 77.4126 197.749 76.9021 197.466C76.4028 197.171 75.8355 197.023 75.2001 197.023C74.5647 197.023 73.9917 197.171 73.4811 197.466C72.9818 197.749 72.5847 198.158 72.2897 198.691C72.006 199.224 71.8642 199.831 71.8642 200.512C71.8642 201.193 72.006 201.8 72.2897 202.333C72.5847 202.866 72.9818 203.281 73.4811 203.576C73.9917 203.859 74.5647 204.001 75.2001 204.001ZM91.0082 203.933V207.15H89.8679V204.988H81.8516V207.15H80.7113V203.933H81.2219C81.8232 203.899 82.2317 203.457 82.4473 202.606C82.6629 201.755 82.8104 200.563 82.8898 199.031L83.009 196.036H89.6126V203.933H91.0082ZM83.9961 199.099C83.9394 200.37 83.8316 201.42 83.6727 202.248C83.5139 203.065 83.2302 203.627 82.8217 203.933H88.4042V197.108H84.0982L83.9961 199.099ZM96.4438 195.968C97.6125 195.968 98.5089 196.263 99.1329 196.853C99.757 197.432 100.069 198.294 100.069 199.44V204.988H98.9117V203.593C98.6393 204.058 98.2365 204.421 97.7033 204.682C97.1813 204.943 96.5573 205.073 95.8311 205.073C94.8326 205.073 94.0383 204.835 93.4483 204.359C92.8583 203.882 92.5633 203.252 92.5633 202.469C92.5633 201.709 92.8356 201.096 93.3802 200.631C93.9362 200.166 94.8156 199.933 96.0183 199.933H98.8606V199.389C98.8606 198.617 98.645 198.033 98.2139 197.636C97.7827 197.227 97.153 197.023 96.3247 197.023C95.7573 197.023 95.2127 197.119 94.6908 197.312C94.1688 197.494 93.7206 197.749 93.3462 198.078L92.8016 197.176C93.2554 196.79 93.8001 196.495 94.4355 196.291C95.0709 196.076 95.7403 195.968 96.4438 195.968ZM96.0183 204.12C96.6991 204.12 97.2834 203.967 97.7713 203.661C98.2592 203.343 98.6223 202.889 98.8606 202.299V200.835H96.0523C94.5206 200.835 93.7547 201.369 93.7547 202.435C93.7547 202.957 93.9532 203.371 94.3504 203.678C94.7475 203.973 95.3035 204.12 96.0183 204.12Z" fill="#016DA4"/>
<path d="M113.221 114.971C107.835 114.971 103.453 110.588 103.453 105.202C103.453 100.508 110.26 90.5256 111.624 88.5778C111.984 88.0519 112.588 87.75 113.221 87.75C113.854 87.75 114.458 88.0616 114.818 88.5778C116.181 90.5354 122.989 100.508 122.989 105.202C122.989 110.588 118.606 114.971 113.221 114.971ZM113.221 93.1844C110.406 97.5377 107.348 103.07 107.348 105.202C107.348 108.436 109.978 111.075 113.221 111.075C116.464 111.075 119.093 108.445 119.093 105.202C119.093 103.07 116.035 97.5377 113.221 93.1844Z" fill="#016DA4"/>
<path d="M109.587 109.155C108.847 107.967 108.457 106.594 108.457 105.191C108.457 104.266 108.749 103.126 109.363 101.695L112.947 103.214C112.401 104.509 112.353 105.055 112.353 105.191C112.353 105.863 112.538 106.525 112.898 107.1L109.587 109.155Z" fill="#016DA4"/>
<path d="M73.231 123.89C66.3455 123.89 60.7358 118.29 60.7358 111.395C60.7358 105.142 70.5138 90.9524 71.6338 89.3552C71.9942 88.8293 72.598 88.5273 73.231 88.5273C73.8641 88.5273 74.4679 88.839 74.8282 89.3552C75.9482 90.9524 85.7262 105.132 85.7262 111.395C85.7262 118.28 80.1263 123.89 73.231 123.89ZM73.231 93.9423C69.3938 99.7565 64.6315 108.083 64.6315 111.395C64.6315 116.138 68.4881 119.994 73.231 119.994C77.9739 119.994 81.8306 116.138 81.8306 111.395C81.8306 108.083 77.0682 99.7565 73.231 93.9423Z" fill="#016DA4"/>
<path d="M67.7865 115.924C66.8515 114.424 66.3646 112.7 66.3646 110.938C66.3646 109.779 66.7444 108.327 67.5235 106.487L71.1075 108.006C70.3673 109.759 70.2602 110.597 70.2602 110.938C70.2602 111.98 70.5523 112.993 71.0977 113.869L67.7865 115.924Z" fill="#016DA4"/>
<path d="M38.9899 99.6408C33.7308 99.6408 29.4456 95.3556 29.4456 90.0965C29.4456 88.402 30.2832 85.9867 31.9972 82.7144L35.4449 84.5258C33.5458 88.1487 33.3315 89.6291 33.3315 90.0965C33.3315 93.213 35.8637 95.7452 38.9802 95.7452C42.0967 95.7452 44.6288 93.213 44.6288 90.0965C44.6288 89.6486 44.434 88.2169 42.6323 84.7401L46.0896 82.9481C47.7258 86.1035 48.5244 88.4409 48.5244 90.0965C48.5244 95.3556 44.2392 99.6408 38.9802 99.6408H38.9899Z" fill="#016DA4"/>
<path d="M35.4248 93.6412C34.7041 92.4823 34.3146 91.1383 34.3146 89.7651C34.3146 88.8594 34.6067 87.7394 35.1911 86.3467L38.775 87.866C38.2491 89.1126 38.2004 89.6385 38.2004 89.7651C38.2004 90.4079 38.3757 91.0409 38.7166 91.5863L35.4053 93.6412H35.4248Z" fill="#016DA4"/>
<path d="M60.5505 42.9969C53.8014 42.9969 48.3183 37.5041 48.3183 30.7647C48.3183 24.6486 57.8626 10.7996 58.9533 9.24139C59.3137 8.71549 59.9175 8.41357 60.5505 8.41357C61.1836 8.41357 61.7874 8.72522 62.1477 9.24139C63.2385 10.7996 72.7828 24.6486 72.7828 30.7647C72.7828 37.5139 67.2997 42.9969 60.5505 42.9969ZM60.5505 13.8285C56.8205 19.4966 52.2139 27.5508 52.2139 30.755C52.2139 35.3518 55.9537 39.0916 60.5505 39.0916C65.1474 39.0916 68.8872 35.3518 68.8872 30.755C68.8872 27.5508 64.2806 19.4869 60.5505 13.8285Z" fill="#016DA4"/>
<path d="M136.243 80.3376H23.9221C22.8508 80.3376 21.9742 79.461 21.9742 78.3897V64.2681C21.9742 63.1968 22.8508 62.3203 23.9221 62.3203H136.243C137.314 62.3203 138.19 63.1968 138.19 64.2681V78.3897C138.19 79.461 137.314 80.3376 136.243 80.3376ZM25.8699 76.4419H134.295V66.2159H25.8699V76.4419Z" fill="#016DA4"/>
<path d="M134.471 65.0671L120.943 35.0514H115.382V31.1558H122.2C122.969 31.1558 123.66 31.6038 123.972 32.305L138.016 63.4699L134.461 65.0671H134.471Z" fill="#016DA4"/>
<path d="M104.434 31.1558H74.73V35.0514H104.434V31.1558Z" fill="#016DA4"/>
<path d="M25.6951 65.0671L22.1404 63.4699L36.1841 32.305C36.4957 31.6038 37.1969 31.1558 37.9566 31.1558H45.9913V35.0514H39.2129L25.6854 65.0671H25.6951Z" fill="#016DA4"/>
<path d="M60.9311 27.6584C60.8045 27.6584 60.6779 27.6389 60.5513 27.6194C60.4247 27.5902 60.3079 27.5513 60.1813 27.5026C60.0644 27.4636 59.9573 27.3954 59.8501 27.3273C59.743 27.2591 59.6456 27.1812 59.5579 27.0838C59.4605 26.9961 59.3826 26.8987 59.3145 26.7916C59.2365 26.6845 59.1781 26.5676 59.1294 26.4507C59.0807 26.3339 59.0418 26.217 59.0223 26.0904C58.9931 25.9638 58.9833 25.8372 58.9833 25.7106C58.9833 25.584 58.9931 25.4574 59.0223 25.3307C59.0418 25.2041 59.0807 25.0775 59.1294 24.9607C59.1781 24.8438 59.2365 24.7367 59.3145 24.6295C59.3826 24.5224 59.4605 24.425 59.5579 24.3276C60.2786 23.6069 61.5837 23.6069 62.3044 24.3276C62.4017 24.425 62.4797 24.5224 62.5478 24.6295C62.616 24.7367 62.6842 24.8438 62.7329 24.9607C62.7816 25.0775 62.8205 25.2041 62.84 25.3307C62.8692 25.4574 62.879 25.584 62.879 25.7106C62.879 25.8372 62.879 25.9638 62.84 26.0904C62.8205 26.217 62.7816 26.3339 62.7329 26.4507C62.6842 26.5676 62.616 26.6845 62.5478 26.7916C62.4797 26.8987 62.4017 26.9961 62.3044 27.0838C62.2167 27.1812 62.1193 27.2591 62.0122 27.3273C61.9051 27.3954 61.7979 27.4636 61.6811 27.5026C61.5545 27.5513 61.4376 27.5902 61.311 27.6194C61.1844 27.6389 61.0578 27.6584 60.9311 27.6584Z" fill="#016DA4"/>
<path d="M65.0706 32.6171C64.5544 32.6171 64.0577 32.4029 63.6973 32.0425C63.3273 31.6822 63.1227 31.1757 63.1227 30.6596C63.1227 30.533 63.1325 30.4064 63.1617 30.2797C63.1909 30.1629 63.2201 30.0363 63.2688 29.9194C63.3175 29.8025 63.3857 29.6857 63.4539 29.5883C63.522 29.4811 63.6 29.374 63.6973 29.2864C64.418 28.5657 65.7133 28.5559 66.4438 29.2864C66.5412 29.374 66.6191 29.4811 66.6872 29.5883C66.7651 29.6857 66.8236 29.8025 66.8723 29.9194C66.921 30.0363 66.9599 30.1629 66.9794 30.2797C67.0086 30.4064 67.0184 30.533 67.0184 30.6596C67.0184 31.1757 66.8138 31.6822 66.4438 32.0425C66.0834 32.4029 65.5867 32.6171 65.0706 32.6171Z" fill="#016DA4"/>
<path d="M56.4706 32.6061C55.9545 32.6061 55.448 32.4016 55.0877 32.0412C55 31.9536 54.9221 31.8464 54.8442 31.749C54.776 31.6419 54.7176 31.525 54.6689 31.4082C54.6202 31.2913 54.5813 31.1647 54.5618 31.0478C54.5326 30.9212 54.5228 30.7946 54.5228 30.6583C54.5228 30.1518 54.7273 29.6454 55.0877 29.2851C55.1753 29.1974 55.2825 29.1195 55.3896 29.0416C55.487 28.9734 55.6038 28.915 55.7207 28.8663C55.8376 28.8176 55.9642 28.7786 56.0908 28.7494C56.3343 28.7007 56.5972 28.7007 56.8504 28.7494C56.9673 28.7786 57.0939 28.8176 57.2108 28.8663C57.3277 28.915 57.4445 28.9734 57.5517 29.0416C57.6588 29.1195 57.7562 29.1974 57.8438 29.2851C58.2042 29.6454 58.4184 30.1518 58.4184 30.6583C58.4184 30.7946 58.399 30.9212 58.3795 31.0478C58.3503 31.1647 58.3113 31.2913 58.2626 31.4082C58.2139 31.525 58.1555 31.6419 58.0873 31.749C58.0191 31.8464 57.9315 31.9536 57.8438 32.0412C57.7562 32.1289 57.6588 32.2165 57.5517 32.2847C57.4445 32.3529 57.3277 32.4113 57.2108 32.46C57.0939 32.5087 56.9673 32.5476 56.8504 32.5769C56.7238 32.5963 56.5972 32.6061 56.4706 32.6061Z" fill="#016DA4"/>
<path d="M60.035 37.3199C59.9084 37.3199 59.7817 37.3199 59.6551 37.281C59.5285 37.2518 59.4117 37.2226 59.2948 37.1739C59.1779 37.1252 59.061 37.057 58.9539 36.9888C58.8468 36.9206 58.7494 36.833 58.6618 36.7453C58.5741 36.6577 58.4865 36.5603 58.4183 36.4532C58.3501 36.346 58.2917 36.2292 58.243 36.1123C58.1943 35.9954 58.1553 35.8786 58.1261 35.752C58.1066 35.6254 58.0872 35.4987 58.0872 35.3721C58.0872 35.2455 58.1066 35.1189 58.1261 34.9923C58.1553 34.8657 58.1943 34.7391 58.243 34.6222C58.2917 34.5054 58.3501 34.3982 58.4183 34.2911C58.4865 34.184 58.5741 34.0866 58.6618 33.9892C58.7494 33.9015 58.8468 33.8236 58.9539 33.7555C59.061 33.6775 59.1779 33.6191 59.2948 33.5704C59.4117 33.5217 59.5285 33.4828 59.6551 33.4633C59.9083 33.4146 60.1713 33.4146 60.4148 33.4633C60.5414 33.4828 60.668 33.5217 60.7849 33.5704C60.9017 33.6191 61.0089 33.6775 61.116 33.7555C61.2231 33.8236 61.3205 33.9015 61.4179 33.9892C61.5055 34.0866 61.5835 34.184 61.6614 34.2911C61.7295 34.3982 61.788 34.5054 61.8367 34.6222C61.8854 34.7391 61.9243 34.8657 61.9438 34.9923C61.973 35.1189 61.9828 35.2455 61.9828 35.3721C61.9828 35.4987 61.9828 35.6254 61.9438 35.752C61.9243 35.8786 61.8854 35.9954 61.8367 36.1123C61.788 36.2292 61.7295 36.346 61.6614 36.4532C61.5835 36.5603 61.5055 36.6577 61.4179 36.7453C61.0478 37.1154 60.5511 37.3199 60.035 37.3199Z" fill="#016DA4"/>
<path d="M109.452 60.6646C103.648 60.6646 98.9146 55.9412 98.9146 50.1367C98.9146 45.0432 106.355 34.1257 107.855 31.9929C108.215 31.467 108.819 31.165 109.452 31.165C110.085 31.165 110.689 31.4767 111.049 31.9929C112.54 34.1257 119.98 45.0432 119.98 50.1367C119.98 55.9412 115.257 60.6646 109.452 60.6646ZM109.452 36.5897C106.414 41.245 102.81 47.5948 102.81 50.1367C102.81 53.7986 105.79 56.769 109.452 56.769C113.114 56.769 116.085 53.7889 116.085 50.1367C116.085 47.6046 112.481 41.2547 109.452 36.5897Z" fill="#016DA4"/>
<path d="M109.763 47.8575C109.636 47.8575 109.51 47.8478 109.383 47.8186C109.257 47.7991 109.14 47.7602 109.023 47.7115C108.906 47.6628 108.789 47.6043 108.682 47.5362C108.575 47.4582 108.478 47.3803 108.39 47.2927C108.03 46.9226 107.815 46.4259 107.815 45.9097C107.815 45.3936 108.03 44.8969 108.39 44.5365C108.478 44.4489 108.575 44.3612 108.682 44.2931C108.789 44.2249 108.906 44.1664 109.023 44.1177C109.14 44.0691 109.257 44.0301 109.383 44.0009C109.636 43.9522 109.899 43.9522 110.153 44.0009C110.27 44.0301 110.396 44.0691 110.513 44.1177C110.63 44.1664 110.747 44.2249 110.844 44.2931C110.951 44.3612 111.058 44.4489 111.146 44.5365C111.506 44.8969 111.711 45.4033 111.711 45.9097C111.711 46.4162 111.506 46.9226 111.146 47.2927C111.058 47.3803 110.951 47.4582 110.844 47.5362C110.747 47.6043 110.63 47.6628 110.513 47.7115C110.396 47.7602 110.27 47.7991 110.153 47.8186C110.026 47.8478 109.89 47.8575 109.763 47.8575Z" fill="#016DA4"/>
<path d="M113.219 51.9967C113.093 51.9967 112.966 51.987 112.839 51.9577C112.713 51.9285 112.596 51.8993 112.469 51.8506C112.352 51.8019 112.245 51.7337 112.138 51.6656C112.031 51.5974 111.934 51.5195 111.846 51.4221C111.749 51.3344 111.671 51.2371 111.603 51.1299C111.534 51.0228 111.466 50.9059 111.418 50.7891C111.369 50.6722 111.34 50.5553 111.31 50.4287C111.281 50.3021 111.271 50.1755 111.271 50.0489C111.271 49.9223 111.271 49.7957 111.31 49.6691C111.34 49.5425 111.369 49.4159 111.418 49.299C111.466 49.1821 111.534 49.075 111.603 48.9679C111.671 48.8607 111.749 48.7633 111.846 48.6659C111.934 48.5783 112.031 48.5004 112.138 48.4322C112.245 48.3543 112.352 48.2959 112.469 48.2472C112.596 48.1985 112.713 48.1595 112.839 48.14C113.093 48.0913 113.346 48.0913 113.599 48.14C113.726 48.1595 113.843 48.1985 113.969 48.2472C114.086 48.2959 114.193 48.3543 114.3 48.4322C114.407 48.5004 114.505 48.5783 114.592 48.6659C114.69 48.7633 114.768 48.8607 114.836 48.9679C114.914 49.075 114.972 49.1821 115.021 49.299C115.07 49.4159 115.099 49.5425 115.128 49.6691C115.157 49.7957 115.167 49.9223 115.167 50.0489C115.167 50.1755 115.167 50.3021 115.128 50.4287C115.099 50.5553 115.07 50.6722 115.021 50.7891C114.972 50.9157 114.914 51.0228 114.836 51.1299C114.768 51.2371 114.69 51.3344 114.592 51.4221C114.505 51.5195 114.407 51.5974 114.3 51.6656C114.193 51.7337 114.086 51.8019 113.969 51.8506C113.843 51.8993 113.726 51.9285 113.599 51.9577C113.472 51.987 113.346 51.9967 113.219 51.9967Z" fill="#016DA4"/>
<path d="M106.042 51.9967C105.915 51.9967 105.789 51.987 105.662 51.9577C105.535 51.9285 105.409 51.8993 105.292 51.8506C105.175 51.8019 105.068 51.7337 104.961 51.6656C104.854 51.5974 104.756 51.5098 104.659 51.4221C104.298 51.0618 104.094 50.5651 104.094 50.0489C104.094 49.5327 104.298 49.036 104.659 48.6757C104.756 48.5783 104.854 48.5004 104.961 48.4322C105.068 48.3543 105.175 48.2959 105.292 48.2472C105.409 48.1985 105.535 48.1595 105.662 48.14C105.915 48.0913 106.168 48.0913 106.422 48.14C106.548 48.1595 106.665 48.1985 106.782 48.2472C106.899 48.2959 107.016 48.3543 107.123 48.4322C107.23 48.5004 107.327 48.5783 107.415 48.6757C107.785 49.036 107.99 49.5327 107.99 50.0489C107.99 50.1755 107.99 50.3021 107.951 50.4287C107.921 50.5553 107.892 50.6722 107.843 50.7891C107.795 50.9157 107.727 51.0228 107.658 51.1299C107.59 51.2371 107.512 51.3344 107.415 51.4221C107.327 51.5098 107.23 51.5974 107.123 51.6656C107.016 51.7337 106.899 51.8019 106.782 51.8506C106.665 51.8993 106.548 51.9285 106.422 51.9577C106.295 51.987 106.168 51.9967 106.042 51.9967Z" fill="#016DA4"/>
<path d="M109.023 55.921C108.896 55.921 108.769 55.921 108.643 55.8821C108.516 55.8626 108.39 55.8236 108.273 55.7749C108.156 55.7262 108.049 55.6678 107.942 55.5996C107.834 55.5217 107.737 55.4438 107.64 55.3561C107.552 55.2588 107.474 55.1614 107.406 55.0542C107.328 54.9569 107.27 54.84 107.221 54.7231C107.172 54.6062 107.133 54.4796 107.114 54.353C107.085 54.2362 107.075 54.0998 107.075 53.9732C107.075 53.4668 107.279 52.9603 107.64 52.6C107.737 52.5123 107.834 52.4247 107.942 52.3565C108.049 52.2884 108.156 52.2299 108.273 52.1812C108.39 52.1325 108.516 52.0936 108.643 52.0644C108.896 52.0157 109.149 52.0157 109.402 52.0644C109.529 52.0936 109.646 52.1325 109.763 52.1812C109.88 52.2299 109.996 52.2884 110.104 52.3565C110.211 52.4247 110.308 52.5123 110.396 52.6C110.756 52.9603 110.97 53.457 110.97 53.9732C110.97 54.4894 110.756 54.9958 110.396 55.3561C110.308 55.4438 110.211 55.5217 110.104 55.5996C109.996 55.6678 109.88 55.7262 109.763 55.7749C109.646 55.8236 109.529 55.8626 109.402 55.8821C109.276 55.9113 109.149 55.921 109.023 55.921Z" fill="#016DA4"/>
<path d="M95.426 29.4996C89.6215 29.4996 84.8981 24.7761 84.8981 18.9717C84.8981 13.8781 92.3387 2.96067 93.8288 0.827819C94.1891 0.301911 94.7929 0 95.426 0C96.059 0 96.6628 0.31165 97.0232 0.827819C98.5132 2.96067 105.964 13.8781 105.964 18.9717C105.964 24.7761 101.24 29.4996 95.426 29.4996ZM95.426 5.42465C92.3874 10.0799 88.7937 16.4298 88.7937 18.9717C88.7937 22.6336 91.7738 25.604 95.426 25.604C99.0781 25.604 102.068 22.6238 102.068 18.9717C102.068 16.4298 98.4646 10.0799 95.426 5.42465Z" fill="#016DA4"/>
<path d="M99.2055 20.8326C98.6894 20.8326 98.1927 20.6281 97.8323 20.258C97.4622 19.8976 97.2577 19.4009 97.2577 18.8848C97.2577 18.7582 97.2577 18.6315 97.2967 18.5049C97.3161 18.3783 97.3551 18.2517 97.4038 18.1349C97.4525 18.018 97.5109 17.9109 97.5888 17.8037C97.657 17.6966 97.7349 17.5992 97.8323 17.5018C97.92 17.4142 98.0174 17.3363 98.1245 17.2681C98.2316 17.1902 98.3387 17.1317 98.4556 17.083C98.5725 17.0343 98.6991 16.9954 98.8257 16.9759C99.4587 16.8493 100.131 17.0538 100.579 17.5018C100.666 17.5992 100.754 17.6966 100.822 17.8037C100.89 17.9109 100.959 18.018 101.007 18.1349C101.056 18.2517 101.095 18.3783 101.114 18.5049C101.144 18.6315 101.153 18.7582 101.153 18.8848C101.153 19.4009 100.949 19.8976 100.579 20.258C100.218 20.6281 99.7217 20.8326 99.2055 20.8326Z" fill="#016DA4"/>
<path d="M92.0273 20.8326C91.5111 20.8326 91.0144 20.6281 90.6444 20.258C90.5567 20.1703 90.4788 20.0729 90.4009 19.9658C90.3327 19.8587 90.2743 19.7418 90.2256 19.6249C90.1769 19.5081 90.1379 19.3912 90.1087 19.2646C90.0892 19.138 90.0698 19.0114 90.0698 18.8848C90.0698 18.3686 90.284 17.8719 90.6444 17.5018C91.1021 17.0538 91.7741 16.8493 92.4071 16.9759C92.524 16.9954 92.6506 17.0343 92.7675 17.083C92.8843 17.1317 93.0012 17.1902 93.1083 17.2681C93.2155 17.3363 93.3129 17.4142 93.4005 17.5018C93.7608 17.8719 93.9751 18.3686 93.9751 18.8848C93.9751 19.0114 93.9556 19.138 93.9362 19.2646C93.907 19.3912 93.868 19.5081 93.8193 19.6249C93.7706 19.7418 93.7122 19.8587 93.644 19.9658C93.5758 20.0729 93.4882 20.1703 93.4005 20.258C93.3129 20.3456 93.2155 20.4333 93.1083 20.5014C93.0012 20.5696 92.8843 20.6378 92.7675 20.6865C92.6506 20.7352 92.524 20.7741 92.4071 20.7936C92.2805 20.8228 92.1539 20.8326 92.0273 20.8326Z" fill="#016DA4"/>
<path d="M95.0082 24.7558C94.492 24.7558 93.9953 24.5513 93.6252 24.191C93.5376 24.0936 93.4597 23.9962 93.3817 23.889C93.3136 23.7917 93.2551 23.6748 93.2064 23.5579C93.1577 23.441 93.1188 23.3144 93.0993 23.1878C93.0701 23.0612 93.0604 22.9346 93.0604 22.808C93.0604 22.6814 93.0603 22.5548 93.0993 22.4282C93.1188 22.3016 93.1577 22.1847 93.2064 22.0678C93.2551 21.951 93.3136 21.8341 93.3817 21.727C93.4597 21.6198 93.5376 21.5225 93.6252 21.4348C94.3556 20.7141 95.6509 20.7044 96.3814 21.4348C96.7417 21.7951 96.956 22.3016 96.956 22.808C96.956 22.9346 96.9365 23.0612 96.917 23.1878C96.8878 23.3144 96.8489 23.441 96.8002 23.5579C96.7515 23.6748 96.693 23.7917 96.6248 23.889C96.5567 23.9962 96.469 24.0936 96.3814 24.191C96.021 24.5513 95.5146 24.7558 95.0082 24.7558Z" fill="#016DA4"/>
</svg>
