<svg width="118" height="202" viewBox="0 0 118 202" fill="none" xmlns="http://www.w3.org/2000/svg">
<path d="M20.9484 164.834H18.2253V170.297H16.9998V158.383H18.2253V163.727H20.9484L24.9821 158.383H26.3437L21.9185 164.17L26.599 170.297H25.1523L20.9484 164.834ZM28.4947 161.344H29.7031V168.459L35.677 161.344H36.7493V170.297H35.5409V163.183L29.5839 170.297H28.4947V161.344ZM48.2457 161.344V170.297H47.0373V162.417H41.4208V170.297H40.2124V161.344H48.2457ZM58.5568 161.344V170.297H57.4505V167.335H54.6422H54.3018L52.2254 170.297H50.9149L53.1445 167.165C52.4523 166.972 51.919 166.643 51.5446 166.178C51.1702 165.713 50.983 165.123 50.983 164.408C50.983 163.41 51.3234 162.649 52.0041 162.127C52.6849 161.605 53.6154 161.344 54.7954 161.344H58.5568ZM52.2084 164.442C52.2084 165.77 53.0537 166.433 54.7443 166.433H57.4505V162.417H54.8294C53.0821 162.417 52.2084 163.092 52.2084 164.442ZM68.7592 161.344V170.297H67.5508V166.57C66.5182 167.023 65.5027 167.25 64.5042 167.25C63.4263 167.25 62.5867 167.006 61.9853 166.518C61.3839 166.019 61.0833 165.276 61.0833 164.289V161.344H62.2917V164.221C62.2917 164.89 62.5072 165.401 62.9384 165.753C63.3696 166.093 63.9653 166.263 64.7255 166.263C65.5651 166.263 66.5069 166.042 67.5508 165.599V161.344H68.7592ZM80.02 166.195H72.5313C72.5994 167.126 72.9568 167.88 73.6035 168.459C74.2503 169.026 75.0672 169.31 76.0544 169.31C76.6104 169.31 77.121 169.213 77.5862 169.02C78.0514 168.816 78.4542 168.521 78.7946 168.135L79.4754 168.918C79.0782 169.395 78.579 169.758 77.9776 170.008C77.3876 170.257 76.7352 170.382 76.0204 170.382C75.1013 170.382 74.2843 170.189 73.5695 169.803C72.866 169.406 72.3157 168.862 71.9186 168.169C71.5215 167.477 71.3229 166.694 71.3229 165.821C71.3229 164.947 71.5101 164.164 71.8846 163.472C72.2703 162.78 72.7923 162.241 73.4504 161.855C74.1198 161.469 74.8687 161.276 75.697 161.276C76.5253 161.276 77.2685 161.469 77.9266 161.855C78.5847 162.241 79.1009 162.78 79.4754 163.472C79.8498 164.153 80.037 164.936 80.037 165.821L80.02 166.195ZM75.697 162.315C74.8346 162.315 74.1085 162.593 73.5184 163.149C72.9398 163.693 72.6107 164.408 72.5313 165.293H78.8797C78.8002 164.408 78.4655 163.693 77.8755 163.149C77.2968 162.593 76.5707 162.315 75.697 162.315ZM82.7119 161.344H83.9203V165.31H89.5539V161.344H90.7623V170.297H89.5539V166.348H83.9203V170.297H82.7119V161.344ZM97.2775 161.276C98.4462 161.276 99.3426 161.571 99.9666 162.161C100.591 162.74 100.903 163.602 100.903 164.748V170.297H99.7454V168.901C99.473 169.366 99.0702 169.73 98.537 169.991C98.015 170.251 97.391 170.382 96.6648 170.382C95.6663 170.382 94.872 170.144 94.282 169.667C93.692 169.191 93.397 168.561 93.397 167.778C93.397 167.018 93.6693 166.405 94.2139 165.94C94.7699 165.475 95.6493 165.242 96.852 165.242H99.6943V164.697C99.6943 163.926 99.4787 163.341 99.0475 162.944C98.6164 162.536 97.9866 162.332 97.1584 162.332C96.591 162.332 96.0464 162.428 95.5245 162.621C95.0025 162.803 94.5543 163.058 94.1799 163.387L93.6353 162.485C94.0891 162.099 94.6338 161.804 95.2692 161.6C95.9046 161.384 96.574 161.276 97.2775 161.276ZM96.852 169.429C97.5328 169.429 98.1171 169.276 98.605 168.969C99.0929 168.652 99.456 168.198 99.6943 167.608V166.144H96.886C95.3543 166.144 94.5884 166.677 94.5884 167.744C94.5884 168.266 94.7869 168.68 95.1841 168.986C95.5812 169.281 96.1372 169.429 96.852 169.429ZM110.996 161.344V170.297H109.889V167.335H107.081H106.741L104.664 170.297H103.354L105.583 167.165C104.891 166.972 104.358 166.643 103.983 166.178C103.609 165.713 103.422 165.123 103.422 164.408C103.422 163.41 103.762 162.649 104.443 162.127C105.124 161.605 106.054 161.344 107.234 161.344H110.996ZM104.647 164.442C104.647 165.77 105.492 166.433 107.183 166.433H109.889V162.417H107.268C105.521 162.417 104.647 163.092 104.647 164.442ZM50.2105 189.668C51.4246 189.951 52.0316 190.683 52.0316 191.863C52.0316 192.646 51.7423 193.247 51.1636 193.667C50.5849 194.087 49.7226 194.297 48.5766 194.297H44.5089V185.344H48.4575C49.4786 185.344 50.2786 185.543 50.8572 185.94C51.4359 186.337 51.7252 186.905 51.7252 187.642C51.7252 188.13 51.5891 188.55 51.3168 188.902C51.0558 189.242 50.687 189.497 50.2105 189.668ZM45.6832 189.327H48.3724C49.0645 189.327 49.5921 189.197 49.9552 188.936C50.3296 188.675 50.5168 188.295 50.5168 187.795C50.5168 187.296 50.3296 186.922 49.9552 186.672C49.5921 186.422 49.0645 186.298 48.3724 186.298H45.6832V189.327ZM48.5255 193.344C49.2971 193.344 49.8758 193.219 50.2616 192.969C50.6473 192.72 50.8402 192.328 50.8402 191.795C50.8402 191.262 50.6644 190.87 50.3126 190.621C49.9609 190.36 49.4049 190.229 48.6447 190.229H45.6832V193.344H48.5255ZM58.557 194.382C57.6946 194.382 56.9174 194.189 56.2252 193.803C55.5331 193.406 54.9885 192.862 54.5913 192.169C54.1942 191.477 53.9957 190.694 53.9957 189.821C53.9957 188.947 54.1942 188.164 54.5913 187.472C54.9885 186.78 55.5331 186.241 56.2252 185.855C56.9174 185.469 57.6946 185.276 58.557 185.276C59.4193 185.276 60.1965 185.469 60.8887 185.855C61.5808 186.241 62.1198 186.78 62.5055 187.472C62.9027 188.164 63.1012 188.947 63.1012 189.821C63.1012 190.694 62.9027 191.477 62.5055 192.169C62.1198 192.862 61.5808 193.406 60.8887 193.803C60.1965 194.189 59.4193 194.382 58.557 194.382ZM58.557 193.31C59.1924 193.31 59.7597 193.168 60.2589 192.884C60.7695 192.589 61.1666 192.175 61.4503 191.642C61.734 191.109 61.8758 190.501 61.8758 189.821C61.8758 189.14 61.734 188.533 61.4503 188C61.1666 187.466 60.7695 187.058 60.2589 186.774C59.7597 186.479 59.1924 186.332 58.557 186.332C57.9215 186.332 57.3485 186.479 56.838 186.774C56.3387 187.058 55.9416 187.466 55.6466 188C55.3629 188.533 55.2211 189.14 55.2211 189.821C55.2211 190.501 55.3629 191.109 55.6466 191.642C55.9416 192.175 56.3387 192.589 56.838 192.884C57.3485 193.168 57.9215 193.31 58.557 193.31ZM74.3651 193.242V196.458H73.2248V194.297H65.2085V196.458H64.0682V193.242H64.5788C65.1801 193.208 65.5886 192.765 65.8042 191.914C66.0198 191.063 66.1673 189.872 66.2467 188.34L66.3658 185.344H72.9695V193.242H74.3651ZM67.353 188.408C67.2962 189.679 67.1885 190.728 67.0296 191.557C66.8708 192.374 66.5871 192.935 66.1786 193.242H71.7611V186.417H67.4551L67.353 188.408ZM79.8007 185.276C80.9694 185.276 81.8657 185.571 82.4898 186.161C83.1138 186.74 83.4259 187.602 83.4259 188.748V194.297H82.2685V192.901C81.9962 193.366 81.5934 193.73 81.0601 193.991C80.5382 194.251 79.9141 194.382 79.188 194.382C78.1895 194.382 77.3952 194.144 76.8052 193.667C76.2152 193.191 75.9202 192.561 75.9202 191.778C75.9202 191.018 76.1925 190.405 76.7371 189.94C77.2931 189.475 78.1724 189.242 79.3752 189.242H82.2175V188.697C82.2175 187.926 82.0019 187.341 81.5707 186.944C81.1396 186.536 80.5098 186.332 79.6815 186.332C79.1142 186.332 78.5696 186.428 78.0476 186.621C77.5257 186.803 77.0775 187.058 76.7031 187.387L76.1584 186.485C76.6123 186.099 77.1569 185.804 77.7923 185.6C78.4277 185.384 79.0972 185.276 79.8007 185.276ZM79.3752 193.429C80.056 193.429 80.6403 193.276 81.1282 192.969C81.6161 192.652 81.9792 192.198 82.2175 191.608V190.144H79.4092C77.8774 190.144 77.1115 190.677 77.1115 191.744C77.1115 192.266 77.3101 192.68 77.7072 192.986C78.1044 193.281 78.6603 193.429 79.3752 193.429Z" fill="#016DA4"/>
<path d="M100.456 91.068C100.166 88.7712 93.0965 68.5302 89.5116 62.5288C88.8925 61.4903 89.2321 60.1522 90.2706 59.5231C91.3091 58.904 92.6472 59.2435 93.2763 60.282C97.0109 66.5331 104.42 87.3932 104.81 90.5287C104.96 91.727 104.111 92.8254 102.912 92.9652C101.714 93.115 100.616 92.2662 100.466 91.058L100.456 91.068Z" fill="#016DA4"/>
<path d="M26.0429 112.376C26.1028 108.472 26.7818 98.8655 26.7619 98.466C26.5422 93.7528 28.9787 83.8969 31.1156 79.1137C31.6149 78.0153 31.1156 76.7172 30.0172 76.2179C28.9188 75.7186 27.6206 76.2179 27.1213 77.3163C25.7533 80.362 23.9958 86.1537 23.0472 91.4261L5.40245 49.9755L11.4937 45.9912L32.6035 71.4547C34.5807 66.1823 38.575 54.6188 46.8831 45.0625C46.8831 45.0625 91.9286 45.0825 92.0584 45.0625C104.211 59.0525 112.439 83.9069 112.849 112.366H26.0329L26.0429 112.376ZM66.1754 24.1325C66.1754 22.1154 67.8131 20.4877 69.8202 20.4877C71.8273 20.4877 73.475 22.1253 73.475 24.1325C73.475 26.1396 71.8373 27.7773 69.8202 27.7773C67.8031 27.7773 66.1754 26.1396 66.1754 24.1325ZM69.4607 33.0597C76.0014 33.0597 82.2025 35.7958 87.7745 40.6788H51.2468C56.8887 35.7259 63.0899 33.0597 69.4607 33.0597ZM32.0243 22.345C31.4651 19.8386 32.0543 17.2723 33.642 15.3051C35.0999 13.4977 37.2269 12.4592 39.4737 12.4592H99.5177C101.764 12.4592 103.881 13.4977 105.339 15.2951C106.917 17.2523 107.516 19.8087 106.977 22.3151L101.185 49.0768C94.2352 38.5119 85.5477 31.472 75.9314 29.355C77.1397 27.947 77.8687 26.1196 77.8687 24.1325C77.8687 19.7088 74.2738 16.104 69.8402 16.104C65.4065 16.104 61.8217 19.7088 61.8217 24.1325C61.8217 26.1296 62.5506 27.957 63.7689 29.365C54.2325 31.5019 45.2554 38.6417 38.0956 49.7458L32.0443 22.345H32.0243ZM104.461 54.5889L111.241 23.2437C112.07 19.4392 111.151 15.5448 108.734 12.5491C106.438 9.71312 103.083 8.08545 99.5077 8.08545H39.4637C35.8788 8.08545 32.5037 9.72311 30.2169 12.569C27.8004 15.5747 26.9017 19.4891 27.7405 23.2937L34.8203 55.2979C33.5521 57.6944 32.3439 60.2408 31.2255 62.9169L12.4024 40.1995L0.000183105 48.3278L22.3582 100.763C21.9488 105.276 21.8189 116.77 21.8189 116.77H117.901C117.901 116.77 117.622 104.457 115.894 90.6173C114.307 77.9254 108.695 61.3392 104.451 54.5889H104.461Z" fill="#016DA4"/>
<path d="M5.55182 40.3604H5.54182C4.33355 40.3604 3.35496 39.0722 3.36494 37.854C3.38492 33.2705 3.5347 28.727 5.09247 25.3419C5.40202 24.6828 6.31073 23.0352 6.44054 22.8055C9.14667 17.9624 9.93554 9.57445 8.26793 3.31341C7.95837 2.14508 8.64737 0.936815 9.8157 0.627258C10.974 0.307716 12.1823 1.00671 12.4919 2.17504C14.479 9.65433 13.5603 18.991 10.2551 24.9025C10.1053 25.1621 9.28646 26.5402 9.06677 27.0295C7.86849 29.6257 7.75864 33.7998 7.73867 37.8839C7.73867 39.0922 6.7501 40.3703 5.55182 40.3703V40.3604Z" fill="#016DA4"/>
</svg>
