<svg width="164" height="189" viewBox="0 0 164 189" fill="none" xmlns="http://www.w3.org/2000/svg">
<path d="M8.44552 154.577C9.21621 154.735 9.80215 155.047 10.2033 155.511C10.6045 155.965 10.8051 156.562 10.8051 157.301C10.8051 158.262 10.462 159.001 9.77576 159.518C9.10008 160.035 8.10241 160.294 6.78273 160.294H1.87354V149.209H6.48185C7.66428 149.209 8.58805 149.451 9.25317 149.937C9.91828 150.423 10.2508 151.125 10.2508 152.043C10.2508 152.666 10.0925 153.194 9.77576 153.627C9.45903 154.049 9.01562 154.366 8.44552 154.577ZM3.02958 154.229H6.4185C7.27365 154.229 7.92821 154.055 8.38218 153.706C8.84671 153.358 9.07897 152.851 9.07897 152.186C9.07897 151.521 8.84671 151.014 8.38218 150.666C7.92821 150.317 7.27365 150.143 6.4185 150.143H3.02958V154.229ZM6.78273 159.36C8.69362 159.36 9.64907 158.647 9.64907 157.222C9.64907 155.828 8.69362 155.131 6.78273 155.131H3.02958V159.36H6.78273ZM16.9024 160.373C16.1 160.373 15.3768 160.194 14.7328 159.835C14.0888 159.465 13.5821 158.958 13.2126 158.314C12.8431 157.67 12.6583 156.942 12.6583 156.129C12.6583 155.316 12.8431 154.588 13.2126 153.944C13.5821 153.3 14.0888 152.798 14.7328 152.439C15.3768 152.08 16.1 151.901 16.9024 151.901C17.7047 151.901 18.4279 152.08 19.0719 152.439C19.7159 152.798 20.2174 153.3 20.5763 153.944C20.9459 154.588 21.1306 155.316 21.1306 156.129C21.1306 156.942 20.9459 157.67 20.5763 158.314C20.2174 158.958 19.7159 159.465 19.0719 159.835C18.4279 160.194 17.7047 160.373 16.9024 160.373ZM16.9024 159.375C17.4936 159.375 18.0215 159.243 18.486 158.98C18.9611 158.705 19.3306 158.32 19.5945 157.824C19.8584 157.327 19.9904 156.762 19.9904 156.129C19.9904 155.496 19.8584 154.931 19.5945 154.435C19.3306 153.938 18.9611 153.558 18.486 153.294C18.0215 153.02 17.4936 152.883 16.9024 152.883C16.3112 152.883 15.778 153.02 15.3029 153.294C14.8384 153.558 14.4689 153.938 14.1944 154.435C13.9305 154.931 13.7985 155.496 13.7985 156.129C13.7985 156.762 13.9305 157.327 14.1944 157.824C14.4689 158.32 14.8384 158.705 15.3029 158.98C15.778 159.243 16.3112 159.375 16.9024 159.375ZM31.6111 159.312V162.305H30.5501V160.294H23.0913V162.305H22.0303V159.312H22.5054C23.0649 159.28 23.445 158.869 23.6456 158.077C23.8462 157.285 23.9834 156.177 24.0573 154.751L24.1682 151.964H30.3126V159.312H31.6111ZM25.0867 154.815C25.0339 155.997 24.9336 156.974 24.7858 157.744C24.638 158.504 24.374 159.027 23.994 159.312H29.1882V152.962H25.1817L25.0867 154.815ZM36.6687 151.901C37.7561 151.901 38.5901 152.175 39.1708 152.724C39.7514 153.263 40.0418 154.065 40.0418 155.131V160.294H38.9649V158.995C38.7115 159.428 38.3367 159.766 37.8405 160.009C37.3549 160.252 36.7742 160.373 36.0986 160.373C35.1695 160.373 34.4305 160.151 33.8815 159.708C33.3325 159.265 33.058 158.679 33.058 157.95C33.058 157.243 33.3114 156.673 33.8182 156.24C34.3355 155.807 35.1537 155.591 36.2728 155.591H38.9174V155.084C38.9174 154.366 38.7168 153.822 38.3156 153.453C37.9144 153.073 37.3285 152.883 36.5578 152.883C36.0299 152.883 35.5232 152.972 35.0376 153.152C34.5519 153.321 34.1349 153.558 33.7865 153.864L33.2797 153.025C33.702 152.666 34.2088 152.392 34.8 152.202C35.3912 152.001 36.0141 151.901 36.6687 151.901ZM36.2728 159.486C36.9062 159.486 37.4499 159.344 37.9039 159.059C38.3579 158.763 38.6957 158.341 38.9174 157.792V156.43H36.3044C34.8792 156.43 34.1666 156.926 34.1666 157.919C34.1666 158.404 34.3513 158.79 34.7208 159.075C35.0903 159.349 35.6076 159.486 36.2728 159.486ZM47.1795 151.964H48.3039V158.584L53.8623 151.964H54.86V160.294H53.7357V153.674L48.193 160.294H47.1795V151.964ZM61.9662 155.955C62.5574 156.092 63.0114 156.33 63.3281 156.667C63.6554 157.005 63.819 157.417 63.819 157.903C63.819 158.388 63.6501 158.821 63.3123 159.201C62.985 159.581 62.5363 159.877 61.9662 160.088C61.3961 160.289 60.768 160.389 60.0817 160.389C59.48 160.389 58.8887 160.305 58.3081 160.136C57.7274 159.956 57.2207 159.697 56.7878 159.36L57.1679 158.52C57.5479 158.805 57.9914 159.027 58.4981 159.185C59.0049 159.344 59.5169 159.423 60.0342 159.423C60.8049 159.423 61.4331 159.28 61.9187 158.995C62.4149 158.7 62.663 158.304 62.663 157.808C62.663 157.364 62.4624 157.021 62.0612 156.778C61.6601 156.525 61.1111 156.398 60.4143 156.398H58.989V155.575H60.3509C60.9738 155.575 61.4753 155.459 61.8554 155.226C62.2354 154.984 62.4255 154.662 62.4255 154.26C62.4255 153.817 62.209 153.469 61.7762 153.215C61.3539 152.962 60.7996 152.835 60.1134 152.835C59.216 152.835 58.3292 153.062 57.4529 153.516L57.1362 152.645C58.1286 152.128 59.158 151.869 60.2242 151.869C60.8577 151.869 61.4278 151.964 61.9345 152.154C62.4519 152.334 62.853 152.592 63.1381 152.93C63.4337 153.268 63.5815 153.659 63.5815 154.102C63.5815 154.524 63.4337 154.899 63.1381 155.226C62.853 155.554 62.4624 155.796 61.9662 155.955ZM77.9907 151.964V160.294H76.8664V152.962H71.6405V160.294H70.5161V151.964H77.9907ZM85.4785 151.901C86.2597 151.901 86.9671 152.08 87.6005 152.439C88.234 152.788 88.7302 153.284 89.0891 153.928C89.4481 154.572 89.6276 155.306 89.6276 156.129C89.6276 156.963 89.4481 157.702 89.0891 158.346C88.7302 158.99 88.234 159.492 87.6005 159.851C86.9777 160.199 86.2703 160.373 85.4785 160.373C84.8028 160.373 84.1905 160.236 83.6415 159.961C83.1031 159.676 82.6597 159.265 82.3113 158.726V163.366H81.1869V151.964H82.2638V153.611C82.6016 153.062 83.045 152.64 83.594 152.344C84.1535 152.049 84.7817 151.901 85.4785 151.901ZM85.3993 159.375C85.98 159.375 86.5078 159.243 86.9829 158.98C87.458 158.705 87.8275 158.32 88.0915 157.824C88.3659 157.327 88.5032 156.762 88.5032 156.129C88.5032 155.496 88.3659 154.936 88.0915 154.45C87.8275 153.954 87.458 153.569 86.9829 153.294C86.5078 153.02 85.98 152.883 85.3993 152.883C84.8081 152.883 84.275 153.02 83.7999 153.294C83.3353 153.569 82.9658 153.954 82.6913 154.45C82.4274 154.936 82.2954 155.496 82.2954 156.129C82.2954 156.762 82.4274 157.327 82.6913 157.824C82.9658 158.32 83.3353 158.705 83.7999 158.98C84.275 159.243 84.8081 159.375 85.3993 159.375ZM92.0433 151.964H93.1677V158.584L98.7261 151.964H99.7238V160.294H98.5995V153.674L93.0568 160.294H92.0433V151.964ZM107.238 151.901C108.019 151.901 108.726 152.08 109.36 152.439C109.993 152.788 110.489 153.284 110.848 153.928C111.207 154.572 111.387 155.306 111.387 156.129C111.387 156.963 111.207 157.702 110.848 158.346C110.489 158.99 109.993 159.492 109.36 159.851C108.737 160.199 108.029 160.373 107.238 160.373C106.562 160.373 105.95 160.236 105.401 159.961C104.862 159.676 104.419 159.265 104.07 158.726V163.366H102.946V151.964H104.023V153.611C104.361 153.062 104.804 152.64 105.353 152.344C105.913 152.049 106.541 151.901 107.238 151.901ZM107.158 159.375C107.739 159.375 108.267 159.243 108.742 158.98C109.217 158.705 109.587 158.32 109.851 157.824C110.125 157.327 110.262 156.762 110.262 156.129C110.262 155.496 110.125 154.936 109.851 154.45C109.587 153.954 109.217 153.569 108.742 153.294C108.267 153.02 107.739 152.883 107.158 152.883C106.567 152.883 106.034 153.02 105.559 153.294C105.095 153.569 104.725 153.954 104.451 154.45C104.187 154.936 104.055 155.496 104.055 156.129C104.055 156.762 104.187 157.327 104.451 157.824C104.725 158.32 105.095 158.705 105.559 158.98C106.034 159.243 106.567 159.375 107.158 159.375ZM117.239 160.373C116.437 160.373 115.713 160.194 115.069 159.835C114.425 159.465 113.919 158.958 113.549 158.314C113.18 157.67 112.995 156.942 112.995 156.129C112.995 155.316 113.18 154.588 113.549 153.944C113.919 153.3 114.425 152.798 115.069 152.439C115.713 152.08 116.437 151.901 117.239 151.901C118.041 151.901 118.764 152.08 119.408 152.439C120.052 152.798 120.554 153.3 120.913 153.944C121.282 154.588 121.467 155.316 121.467 156.129C121.467 156.942 121.282 157.67 120.913 158.314C120.554 158.958 120.052 159.465 119.408 159.835C118.764 160.194 118.041 160.373 117.239 160.373ZM117.239 159.375C117.83 159.375 118.358 159.243 118.823 158.98C119.298 158.705 119.667 158.32 119.931 157.824C120.195 157.327 120.327 156.762 120.327 156.129C120.327 155.496 120.195 154.931 119.931 154.435C119.667 153.938 119.298 153.558 118.823 153.294C118.358 153.02 117.83 152.883 117.239 152.883C116.648 152.883 116.115 153.02 115.639 153.294C115.175 153.558 114.805 153.938 114.531 154.435C114.267 154.931 114.135 155.496 114.135 156.129C114.135 156.762 114.267 157.327 114.531 157.824C114.805 158.32 115.175 158.705 115.639 158.98C116.115 159.243 116.648 159.375 117.239 159.375ZM131.948 159.312V162.305H130.887V160.294H123.428V162.305H122.367V159.312H122.842C123.401 159.28 123.782 158.869 123.982 158.077C124.183 157.285 124.32 156.177 124.394 154.751L124.505 151.964H130.649V159.312H131.948ZM125.423 154.815C125.37 155.997 125.27 156.974 125.122 157.744C124.975 158.504 124.711 159.027 124.331 159.312H129.525V152.962H125.518L125.423 154.815ZM134.139 151.964H135.263V155.654H140.505V151.964H141.629V160.294H140.505V156.62H135.263V160.294H134.139V151.964ZM148.325 154.91C149.37 154.92 150.167 155.152 150.716 155.606C151.265 156.06 151.54 156.715 151.54 157.57C151.54 158.457 151.244 159.138 150.653 159.613C150.062 160.088 149.217 160.32 148.119 160.31L144.825 160.294V151.964H145.95V154.878L148.325 154.91ZM152.933 151.964H154.058V160.294H152.933V151.964ZM148.056 159.455C148.826 159.465 149.407 159.312 149.798 158.995C150.199 158.668 150.399 158.193 150.399 157.57C150.399 156.958 150.204 156.504 149.814 156.208C149.423 155.913 148.837 155.76 148.056 155.749L145.95 155.717V159.423L148.056 159.455ZM162.469 160.294L159.824 156.81L157.164 160.294H155.897L159.191 156.018L156.055 151.964H157.322L159.824 155.226L162.327 151.964H163.562L160.426 156.018L163.752 160.294H162.469ZM35.3411 173.964H36.4655V180.584L42.0239 173.964H43.0216V182.294H41.8972V175.674L36.3546 182.294H35.3411V173.964ZM49.7278 182.373C48.9043 182.373 48.1653 182.194 47.5108 181.835C46.8668 181.476 46.36 180.974 45.9905 180.33C45.621 179.676 45.4362 178.942 45.4362 178.129C45.4362 177.316 45.621 176.588 45.9905 175.944C46.36 175.3 46.8668 174.798 47.5108 174.439C48.1653 174.08 48.9043 173.901 49.7278 173.901C50.4457 173.901 51.0845 174.043 51.644 174.328C52.2141 174.603 52.6628 175.009 52.9901 175.548L52.1507 176.118C51.8763 175.706 51.5279 175.4 51.1056 175.199C50.6833 174.988 50.224 174.883 49.7278 174.883C49.1261 174.883 48.5823 175.02 48.0967 175.294C47.6216 175.558 47.2468 175.938 46.9723 176.435C46.7084 176.931 46.5764 177.496 46.5764 178.129C46.5764 178.773 46.7084 179.343 46.9723 179.839C47.2468 180.325 47.6216 180.705 48.0967 180.98C48.5823 181.243 49.1261 181.375 49.7278 181.375C50.224 181.375 50.6833 181.275 51.1056 181.075C51.5279 180.874 51.8763 180.568 52.1507 180.156L52.9901 180.726C52.6628 181.265 52.2141 181.676 51.644 181.961C51.0739 182.236 50.4352 182.373 49.7278 182.373ZM60.8719 174.962H57.7205V182.294H56.5961V174.962H53.4447V173.964H60.8719V174.962ZM65.5473 182.373C64.745 182.373 64.0218 182.194 63.3778 181.835C62.7338 181.465 62.227 180.958 61.8575 180.314C61.488 179.67 61.3033 178.942 61.3033 178.129C61.3033 177.316 61.488 176.588 61.8575 175.944C62.227 175.3 62.7338 174.798 63.3778 174.439C64.0218 174.08 64.745 173.901 65.5473 173.901C66.3497 173.901 67.0729 174.08 67.7169 174.439C68.3609 174.798 68.8624 175.3 69.2213 175.944C69.5908 176.588 69.7756 177.316 69.7756 178.129C69.7756 178.942 69.5908 179.67 69.2213 180.314C68.8624 180.958 68.3609 181.465 67.7169 181.835C67.0729 182.194 66.3497 182.373 65.5473 182.373ZM65.5473 181.375C66.1386 181.375 66.6664 181.243 67.131 180.98C67.606 180.705 67.9755 180.32 68.2395 179.824C68.5034 179.327 68.6354 178.762 68.6354 178.129C68.6354 177.496 68.5034 176.931 68.2395 176.435C67.9755 175.938 67.606 175.558 67.131 175.294C66.6664 175.02 66.1386 174.883 65.5473 174.883C64.9561 174.883 64.423 175.02 63.9479 175.294C63.4834 175.558 63.1139 175.938 62.8394 176.435C62.5754 176.931 62.4435 177.496 62.4435 178.129C62.4435 178.762 62.5754 179.327 62.8394 179.824C63.1139 180.32 63.4834 180.705 63.9479 180.98C64.423 181.243 64.9561 181.375 65.5473 181.375ZM78.4655 173.964V182.294H77.3412V178.826C76.3804 179.248 75.4356 179.459 74.5065 179.459C73.5035 179.459 72.7223 179.232 72.1628 178.778C71.6032 178.314 71.3234 177.622 71.3234 176.704V173.964H72.4478V176.64C72.4478 177.263 72.6484 177.738 73.0496 178.066C73.4508 178.382 74.005 178.541 74.7124 178.541C75.4936 178.541 76.3699 178.335 77.3412 177.923V173.964H78.4655ZM81.6586 173.964H82.783V177.654H88.0247V173.964H89.1491V182.294H88.0247V178.62H82.783V182.294H81.6586V173.964ZM92.3449 173.964H93.4692V180.584L99.0277 173.964H100.025V182.294H98.901V175.674L93.3584 182.294H92.3449V173.964ZM106.272 178.588H104.372V182.294H103.248V173.964H104.372V177.622H106.288L109.218 173.964H110.437L107.159 178.002L110.675 182.294H109.345L106.272 178.588ZM115.592 182.373C114.79 182.373 114.066 182.194 113.422 181.835C112.778 181.465 112.272 180.958 111.902 180.314C111.533 179.67 111.348 178.942 111.348 178.129C111.348 177.316 111.533 176.588 111.902 175.944C112.272 175.3 112.778 174.798 113.422 174.439C114.066 174.08 114.79 173.901 115.592 173.901C116.394 173.901 117.117 174.08 117.761 174.439C118.405 174.798 118.907 175.3 119.266 175.944C119.635 176.588 119.82 177.316 119.82 178.129C119.82 178.942 119.635 179.67 119.266 180.314C118.907 180.958 118.405 181.465 117.761 181.835C117.117 182.194 116.394 182.373 115.592 182.373ZM115.592 181.375C116.183 181.375 116.711 181.243 117.176 180.98C117.651 180.705 118.02 180.32 118.284 179.824C118.548 179.327 118.68 178.762 118.68 178.129C118.68 177.496 118.548 176.931 118.284 176.435C118.02 175.938 117.651 175.558 117.176 175.294C116.711 175.02 116.183 174.883 115.592 174.883C115.001 174.883 114.468 175.02 113.992 175.294C113.528 175.558 113.158 175.938 112.884 176.435C112.62 176.931 112.488 177.496 112.488 178.129C112.488 178.762 112.62 179.327 112.884 179.824C113.158 180.32 113.528 180.705 113.992 180.98C114.468 181.243 115.001 181.375 115.592 181.375ZM127.528 177.987C128.658 178.25 129.223 178.931 129.223 180.029C129.223 180.758 128.953 181.317 128.415 181.708C127.877 182.099 127.074 182.294 126.008 182.294H122.223V173.964H125.897C126.847 173.964 127.592 174.149 128.13 174.518C128.668 174.888 128.938 175.416 128.938 176.102C128.938 176.556 128.811 176.947 128.558 177.274C128.315 177.591 127.972 177.828 127.528 177.987ZM123.316 177.67H125.818C126.462 177.67 126.953 177.548 127.291 177.306C127.639 177.063 127.813 176.709 127.813 176.245C127.813 175.78 127.639 175.432 127.291 175.199C126.953 174.967 126.462 174.851 125.818 174.851H123.316V177.67ZM125.96 181.407C126.678 181.407 127.217 181.291 127.576 181.059C127.935 180.826 128.114 180.462 128.114 179.966C128.114 179.47 127.951 179.106 127.623 178.873C127.296 178.631 126.779 178.509 126.071 178.509H123.316V181.407H125.96Z" fill="#016DA4"/>
<path d="M83.0346 87.9123C66.4039 87.9123 52.8798 74.3881 52.8798 57.7574C52.8798 41.1268 80.1582 2.55213 81.3192 0.889065C81.7062 0.324251 82.3547 0 83.0346 0C83.7144 0 84.3629 0.334711 84.7499 0.889065C85.9109 2.55213 113.189 41.7858 113.189 57.7574C113.189 73.7291 99.6652 87.9123 83.0346 87.9123ZM83.0346 5.80504C76.989 14.7688 57.0636 45.2583 57.0636 57.7574C57.0636 72.0765 68.7155 83.7284 83.0346 83.7284C97.3536 83.7284 109.006 72.0765 109.006 57.7574C109.006 45.2479 89.0802 14.7584 83.0346 5.80504Z" fill="#016DA4"/>
<path d="M64.2803 68.153C62.1152 64.67 60.9647 60.6431 60.9647 56.5116C60.9647 53.8653 61.8956 50.3823 63.8097 45.8638L67.6588 47.4955C65.5773 52.3905 65.1485 55.0995 65.1485 56.5011C65.1485 59.8481 66.0794 63.1011 67.8366 65.9251L64.2803 68.1321V68.153Z" fill="#016DA4"/>
<path d="M48.6227 86.9599C45.8404 83.9894 44.3657 80.6005 44.3657 77.1698C44.3657 73.739 45.7882 70.4547 48.4867 67.5156L51.5723 70.3501C49.564 72.5362 48.5495 74.8268 48.5495 77.1698C48.5495 79.5127 49.5954 81.887 51.6769 84.1044L48.6227 86.9599Z" fill="#016DA4"/>
<path d="M83.0367 98.343C72.7759 98.343 63.1427 96.2197 55.9047 92.3497L57.8711 88.6575C64.5129 92.2033 73.4453 94.1592 83.0367 94.1592C97.0524 94.1592 109.98 89.7348 115.2 83.1558L118.474 85.7602C112.407 93.4061 98.4958 98.343 83.0367 98.343Z" fill="#016DA4"/>
<path d="M121.694 77.1593H117.51C117.51 74.8373 116.506 72.5571 114.529 70.3815L117.625 67.5679C120.282 70.4861 121.694 73.8122 121.694 77.1593Z" fill="#016DA4"/>
<path d="M39.3247 61.3236L36.9294 57.8929C39.9941 55.7591 43.5712 53.8451 47.5563 52.2134L49.1462 56.0834C45.4435 57.6105 42.1383 59.3677 39.3247 61.3341V61.3236Z" fill="#016DA4"/>
<path d="M42.8601 99.9504C31.25 94.0199 24.8593 85.9242 24.8593 77.1591C24.8593 72.149 27.0348 67.2017 31.1454 62.8296L34.1892 65.6955C30.7689 69.325 29.0326 73.1845 29.0326 77.1591C29.0326 84.2716 34.618 91.0494 44.7533 96.2268L42.8496 99.9504H42.8601Z" fill="#016DA4"/>
<path d="M83.0363 108.541V104.357C106.706 104.357 128.002 96.2927 134.832 84.7559L138.43 86.8896C130.763 99.8385 108.505 108.541 83.0258 108.541H83.0363Z" fill="#016DA4"/>
<path d="M141.221 77.1596H137.038C137.038 69.0953 129.82 61.4599 117.227 56.2092L118.838 52.3496C133.063 58.2802 141.221 67.3277 141.221 77.1701V77.1596Z" fill="#016DA4"/>
</svg>
