<svg width="102" height="78" viewBox="0 0 102 78" fill="none" xmlns="http://www.w3.org/2000/svg">
<path d="M41.7583 34.875C42.5177 33.4734 43.2587 32.1709 43.9237 30.8291C44.0433 30.5898 43.9513 30.0996 43.7695 29.8787C41.1278 26.6889 38.4632 23.5176 35.7824 20.3601C33.9392 18.1899 32.0938 16.0197 30.1701 13.9254C29.8364 13.5618 29.1 13.4099 28.557 13.426C25.6852 13.5088 23.536 12.4456 22.1669 9.83351C20.5492 6.74964 21.893 2.51277 25.2043 1.32755C28.9482 -0.0118608 31.6842 0.94552 33.4997 4.13986C34.197 5.3688 34.6319 6.76345 34.0014 8.27777C33.6401 9.14999 33.8472 9.93247 34.602 10.738C36.5004 12.7632 38.2308 14.9495 40.0279 17.0691C42.6074 20.1115 45.1893 23.154 47.7619 26.201C48.2405 26.7695 48.6754 26.6751 49.3611 26.4588C51.439 25.7983 53.5376 24.8961 55.7766 25.3518C57.9695 25.7983 60.243 26.1067 62.0447 27.69C62.2495 27.8695 62.8892 27.8603 63.1055 27.6762C65.2939 25.8282 67.4546 23.9457 69.5739 22.0171C69.8477 21.7685 69.9881 21.1955 69.9398 20.802C69.5509 17.5869 71.5505 14.8897 74.5765 13.9369C77.4712 13.0255 80.9712 14.9035 81.9652 17.9874C82.7683 20.4821 82.2276 22.6454 80.4511 24.4082C78.9715 25.8788 77.1238 26.6291 74.9538 25.9525C74.0955 25.6855 73.3799 25.865 72.6712 26.4933C70.9568 28.0122 69.162 29.4368 67.4224 30.9258C67.0174 31.2733 66.7067 31.7336 66.1683 32.355C68.5453 31.6622 70.6048 31.0386 72.6758 30.4632C74.8871 29.8487 77.1169 29.2987 79.3282 28.6911C81.6845 28.0421 84.0362 27.3701 86.3787 26.6728C86.602 26.6061 86.8574 26.3138 86.9195 26.0814C87.5983 23.4693 88.9145 21.4556 91.5447 20.3693C93.6571 19.4971 97.1754 19.9182 98.9726 21.4003C101.881 23.7984 102.387 27.1883 101.152 30.2354C100.266 32.4171 97.5758 34.5137 94.879 34.6218C92.5503 34.7162 90.6933 33.9199 89.0066 32.4217C88.6706 32.1248 88.0355 31.9016 87.6236 32.0005C85.9139 32.4056 84.2387 32.9556 82.5474 33.4389C81.2013 33.8233 79.8529 34.1984 78.5044 34.5666C76.3644 35.1512 74.2221 35.7288 72.0821 36.3065C71.065 36.5803 70.0364 36.822 69.0285 37.1327C68.6673 37.2431 68.1426 37.448 68.0598 37.7195C67.7767 38.6562 67.6249 39.6389 67.4983 40.6147C67.4753 40.7942 67.7721 41.1049 67.9884 41.2084C70.0617 42.1773 72.1534 43.1071 74.2336 44.0645C76.201 44.9712 78.1523 45.9125 80.1244 46.8054C80.9459 47.1783 81.7927 47.4958 82.651 47.7697C82.8719 47.8388 83.2861 47.7283 83.4287 47.5534C84.7058 45.9723 86.4109 44.9436 88.2702 44.4028C90.3964 43.786 92.6193 43.7193 94.7938 44.5731C96.3217 45.1714 97.7806 45.8665 98.8782 47.0862C100.33 48.6972 101.262 50.5429 101.775 52.7269C102.236 54.6877 101.847 56.423 101.26 58.1559C100.356 60.8186 98.5676 62.7725 96.0157 64.0291C93.5351 65.2488 90.9671 65.5411 88.36 64.6781C84.9199 63.5389 82.3518 61.3963 81.3992 57.7555C81.0402 56.3815 80.9873 54.9317 80.725 53.5278C80.6628 53.201 80.3821 52.7822 80.0922 52.6487C77.3539 51.4128 74.5857 50.246 71.8405 49.0263C70.133 48.2668 68.4464 47.4544 66.7551 46.6581C65.9635 46.2853 65.3146 46.0782 64.6151 46.9849C63.0572 49.0033 60.8758 50.2069 58.5218 51.04C57.4679 51.4128 56.3058 51.4796 55.0816 51.7051C54.9022 53.0951 54.7825 54.5312 54.5202 55.9397C54.0715 58.3584 53.5123 60.7588 53.0429 63.173C52.8266 64.2868 52.6586 65.4168 52.5804 66.5491C52.5597 66.8414 52.9255 67.1981 53.1786 67.4627C54.6974 69.0507 55.1944 70.7606 54.6905 73.0344C54.0093 76.1022 50.0699 78.5693 46.7471 77.0135C44.6416 76.0262 43.2932 74.2887 43.1022 71.9113C42.9204 69.6353 43.9835 67.7734 45.8451 66.632C47.1498 65.8334 47.4489 64.8254 47.6307 63.502C47.87 61.7507 48.3118 60.0292 48.6064 58.2848C48.993 55.9972 49.3565 53.705 49.6557 51.4059C49.8283 50.078 48.4752 50.0527 47.7803 49.6016C45.3595 48.0298 43.5394 46.0137 42.5016 43.3211C42.2623 42.6974 42.1679 42.0185 42.0092 41.3649C41.8228 40.5963 41.3764 40.2557 40.548 40.2096C37.5681 40.0439 34.5927 39.8092 31.6151 39.5998C29.1438 39.4272 26.6701 39.2638 24.1987 39.075C22.9907 38.983 21.7849 38.7782 20.5768 38.7597C20.1902 38.7551 19.5712 39.1004 19.4447 39.4341C18.4046 42.1451 16.3313 43.8642 13.7702 44.7871C9.98491 46.1495 5.36433 45.13 2.58692 41.5122C1.39725 39.9611 0.762154 38.4283 0.559658 36.5136C0.0787304 31.9913 1.75623 28.5922 5.73941 26.5439C7.70224 25.5336 9.79392 24.9399 12.2492 25.5797C14.5089 26.1711 16.4303 27.0548 17.9099 28.7487C18.7244 29.683 19.3964 30.8591 19.753 32.0397C20.066 33.0799 20.5354 33.3446 21.5019 33.3929C25.133 33.5793 28.7618 33.8233 32.3883 34.058C34.5559 34.1984 36.7213 34.3434 38.8866 34.516C39.8645 34.5942 40.8356 34.7461 41.7583 34.8566V34.875Z" fill="white"/>
</svg>
