<svg width="105" height="87" viewBox="0 0 105 87" fill="none" xmlns="http://www.w3.org/2000/svg">
<path d="M57.0103 31.8725C58.1476 29.7316 60.1368 28.6577 62.4921 28.3708C64.2787 28.1528 65.865 29.0225 67.2349 30.0918C67.7713 30.5118 67.9302 30.5783 68.4689 30.1079C70.3637 28.4557 72.3414 26.9 74.2823 25.2983C74.7957 24.8738 75.2861 24.4194 75.7811 23.9834C74.2339 21.3469 74.8003 18.6024 76.6491 16.5372C77.1878 15.9383 77.2707 15.5528 76.7365 14.8942C76.0366 14.0337 75.438 13.0814 74.8809 12.1177C74.1073 10.7822 73.6491 10.438 72.2516 10.9015C70.5065 11.4798 69.109 10.7455 67.8795 9.80466C65.5726 8.04006 65.2871 5.28875 66.6455 2.92065C68.0062 0.550254 71.3054 -0.0853692 73.8863 1.16982C76.3175 2.35157 76.8632 4.29057 76.6491 6.65178C76.5869 7.34018 76.1426 7.98499 75.9745 8.67339C75.8893 9.01988 75.91 9.49488 76.0896 9.78171C77.022 11.2664 77.9936 12.7304 79.0273 14.1439C79.2161 14.4009 79.8216 14.5868 80.1279 14.4858C81.599 13.997 82.8907 14.573 84.2053 15.0296C85.9643 15.6423 86.8621 17.1453 87.6449 18.646C88.0271 19.378 88.4646 19.2908 89.024 19.2335C90.4238 19.0866 91.8167 18.8984 93.2188 18.786C94.324 18.6965 95.0837 18.4189 95.3945 17.1338C95.7215 15.7823 97.0177 15.0319 98.2333 14.8185C101.394 14.2609 103.616 15.6354 103.991 18.9719C104.159 20.4726 103.441 21.9687 102.145 22.7879C100.78 23.653 99.1796 24.2886 97.5817 23.1367C96.8703 22.625 96.053 22.1339 95.5902 21.4318C95.0929 20.6791 94.5657 20.7089 93.875 20.8191C92.6732 21.0118 91.4691 21.3354 90.2673 21.3331C88.6626 21.3285 87.6795 22.0834 87.1776 23.4579C86.6204 24.9862 85.4923 25.7641 84.1546 26.5833C82.5936 27.5379 81.0603 27.056 79.5177 27.0789C78.9974 27.0858 78.3804 26.6866 77.9637 26.3033C77.1694 25.5736 76.6537 26.2529 76.1955 26.6177C74.1004 28.2882 72.079 30.0505 69.9885 31.7302C69.2932 32.2901 68.8902 32.8799 69.2563 33.7427C69.8941 35.2548 69.0928 36.5169 68.6669 37.9901C72.445 40.0805 76.3336 42.2306 80.2338 44.3876C81.6244 42.9971 83.1738 42.1044 85.041 42.2513C87.3503 42.4303 89.1944 43.456 90.166 45.714C91.8282 49.5759 90.1959 52.1643 87.3986 53.7315C85.9159 54.5622 83.9796 54.6655 82.1654 53.5044C80.8554 52.6668 79.6214 51.9073 79.1862 50.3928C78.9099 49.4313 78.8317 48.3895 78.8155 47.3822C78.8017 46.5125 78.5116 46.0673 77.7012 45.6566C75.1295 44.3509 72.62 42.919 70.0967 41.5193C69.2494 41.0489 68.4482 40.4867 67.5802 40.0668C67.3108 39.936 66.8481 40.053 66.5327 40.193C65.6854 40.5647 64.8704 41.0099 63.8666 41.5124C63.6617 42.9925 63.3532 44.7089 63.2035 46.4414C62.9618 49.2432 62.8305 52.0541 62.6394 54.8605C62.5911 55.5833 62.6717 55.9826 63.5327 56.3612C66.284 57.5774 68.0176 59.7665 68.3216 62.7909C68.6116 65.6776 66.6639 69.4041 63.5212 70.3059C62.4184 70.6226 61.2557 70.9025 60.1207 70.9048C57.5997 70.9094 55.7256 69.6152 54.3051 67.6005C54.1163 67.3343 53.8699 67.1072 53.7663 66.9901C52.576 67.3619 51.5377 67.6671 50.5131 68.0113C49.0281 68.5115 47.5546 69.0416 46.0788 69.5602C45.4388 69.785 44.8057 70.0352 44.1587 70.2371C42.0475 70.8911 39.9317 71.5267 37.8181 72.1692C36.8742 72.456 36.6232 73.2707 36.9617 73.9682C37.6777 75.4529 37.0238 76.8779 36.7038 78.1583C36.1697 80.3038 35.1935 82.3713 33.2918 83.817C31.4914 85.1869 29.6702 86.2516 27.3311 86.7105C24.1999 87.3255 21.421 86.6578 18.8608 85.1754C16.8417 84.0074 15.2968 82.2497 14.4012 79.9206C13.7198 78.1468 13.28 76.4189 13.3652 74.5304C13.4941 71.7424 14.6016 69.3697 16.4204 67.3137C17.0512 66.6 17.8455 66.031 18.5224 65.4321C16.6852 61.9442 14.9883 58.6926 13.2547 55.4594C12.8909 54.7825 12.5248 53.9518 11.9193 53.603C11.3161 53.2542 10.3837 53.268 9.64464 53.3988C8.30009 53.6329 6.97856 53.4631 5.78595 53.0317C3.38003 52.162 1.67172 50.4203 0.755392 48.0132C0.520556 47.3959 0.474519 46.6869 0.449194 46.0168C0.37552 44.0411 0.350199 42.1067 1.5474 40.3192C2.5374 38.8414 3.7323 37.6184 5.34162 36.9919C6.54343 36.5238 7.92021 36.315 9.21642 36.3242C10.3814 36.3333 11.65 36.5926 12.6768 37.1181C13.6369 37.6115 14.0329 37.1273 14.4542 36.6087C16.1464 34.5274 17.7879 32.4072 19.4548 30.2938C17.0075 27.6503 17.194 23.1505 19.0404 20.9269C20.8017 18.8067 22.8899 17.4482 25.7563 17.6754C28.526 17.8957 31.2795 19.6098 32.1199 22.5263C32.3662 23.3776 32.3778 24.3414 32.7968 25.0849C33.1076 25.6356 33.8535 26.0831 34.4982 26.285C36.6946 26.9711 38.9279 27.5402 41.1519 28.1299C41.8771 28.3227 42.6208 28.442 43.3529 28.6095C45.1533 29.0248 46.9607 29.4103 48.7473 29.8784C50.6674 30.381 52.5576 30.9936 54.4777 31.4916C55.2766 31.6981 56.1216 31.7348 57.0195 31.8587L57.0103 31.8725ZM52.6497 64.8263C53.0204 63.2659 53.1815 61.7835 53.7318 60.4618C54.7033 58.1304 56.4232 56.5563 59.0639 56.157C59.4277 56.1019 59.9665 55.7027 60.0263 55.3883C60.3417 53.7315 60.595 52.0564 60.7446 50.3767C60.9841 47.6552 61.1452 44.9246 61.2788 42.1962C61.2949 41.8474 61.0462 41.2967 60.7607 41.1499C58.2881 39.8878 56.4968 38.1897 56.612 35.1699C56.635 34.5687 56.437 34.337 55.8085 34.197C53.9597 33.784 52.134 33.2654 50.3036 32.7743C48.4572 32.2787 46.613 31.7669 44.7711 31.2552C44.0482 31.0556 43.3345 30.8124 42.6093 30.6311C40.5326 30.1079 38.4536 29.5985 36.3723 29.096C35.0277 28.7701 33.6809 28.4672 32.38 28.1643C30.3149 32.4508 25.5928 34.2429 21.3151 31.9207C19.5861 33.9974 17.9123 36.097 16.128 38.1025C15.5662 38.7336 15.5593 39.1145 15.9622 39.8098C16.57 40.863 17.2953 41.9759 17.4564 43.1347C17.8847 46.228 17.4564 49.1422 14.7581 51.29C14.2677 51.6801 13.8694 52.2354 14.422 53.0638C15.3199 54.4153 16.0175 55.8977 16.8164 57.3158C18.1103 59.6174 19.4157 61.912 20.652 64.1012C21.5822 63.9612 22.4064 64.0185 23.0465 63.7042C25.0518 62.7243 27.0364 63.4655 28.8483 63.952C31.8275 64.7551 34.0838 66.7974 35.6724 69.4844C36.1374 70.2738 36.8604 70.4574 37.7491 69.987C38.0161 69.847 38.2786 69.6887 38.5641 69.5969C41.0897 68.78 43.6292 68.0067 46.1433 67.1576C48.3766 66.4027 50.5845 65.5674 52.6497 64.824V64.8263Z" fill="white"/>
</svg>
