<svg width="271" height="90" viewBox="0 0 271 90" fill="none" xmlns="http://www.w3.org/2000/svg">
<path d="M40.7969 38C30.8359 38 22.75 29.2109 22.75 18.3125V15.5H29.8984C36.3438 15.5 41.9688 19.25 45.25 24.7578C48.4141 19.25 54.0391 15.5 60.4844 15.5H67.75V18.3125C67.75 29.2109 59.5469 38 49.5859 38H48.0625V43.625C48.0625 44.6797 47.125 45.5 46.1875 45.5H44.3125C43.2578 45.5 42.4375 44.6797 42.4375 43.625V38H40.7969ZM60.4844 21.125C54.5078 21.125 49.4688 26.0469 48.2969 32.375H49.5859C55.5625 32.375 60.7188 27.5703 61.7734 21.125H60.4844ZM29.8984 21.125H28.6094C29.7812 27.5703 34.8203 32.375 40.7969 32.375H42.0859C40.9141 26.0469 35.875 21.125 29.8984 21.125ZM76.0703 52.0625C77.9453 53.7031 79 56.0469 78.8828 58.3906C78.8828 60.8516 77.7109 63.0781 75.7188 64.4844L64 73.3906C62.125 74.7969 59.7812 75.5 57.4375 75.5H13.375C12.3203 75.5 11.5 74.6797 11.5 73.625V71.75C11.5 70.8125 12.3203 69.875 13.375 69.875H57.4375C58.6094 69.875 59.6641 69.5234 60.6016 68.8203L72.4375 60.0312C73.6094 59.0938 73.7266 57.4531 72.4375 56.3984C71.6172 55.6953 70.0938 55.6953 69.1562 56.3984L62.0078 61.7891C61.0703 62.4922 60.0156 62.8438 58.8438 62.8438H43.0234C42.2031 62.8438 41.5 62.1406 41.5 61.3203V61.2031C41.5 60.3828 42.2031 59.6797 43.0234 59.6797H50.0547C53.5703 59.6797 53.4531 54.875 50.1719 54.875H33.2969C31.1875 54.875 29.1953 55.5781 27.5547 56.8672L22.75 60.5H13.375C12.3203 60.5 11.5 59.6797 11.5 58.625V56.75C11.5 55.8125 12.3203 54.875 13.375 54.875H20.7578L24.1562 52.4141C26.7344 50.4219 30.0156 49.25 33.2969 49.25H50.1719C54.7422 49.25 58.2578 52.7656 58.2578 57.2188H58.7266L65.7578 51.9453C67.9844 50.1875 72.4375 49.0156 76.0703 52.0625Z" fill="white"/>
<path d="M116.397 31.1405V35.0427H114.284V33H107.324V35.0427H105.211L105.225 31.1405H105.62C106.212 31.1217 106.629 30.6896 106.874 29.8444C107.118 28.9991 107.268 27.7923 107.324 26.2239L107.437 23.1387H115.016V31.1405H116.397ZM109.339 26.4352C109.292 27.6092 109.193 28.5953 109.043 29.3936C108.893 30.1825 108.663 30.7648 108.353 31.1405H112.762V24.9983H109.381L109.339 26.4352ZM124.766 27.8581C125.367 28.0365 125.827 28.3276 126.146 28.7315C126.465 29.1353 126.625 29.6331 126.625 30.2248C126.625 31.0982 126.292 31.7791 125.625 32.2675C124.967 32.7558 124.024 33 122.793 33H117.933V23.1387H122.526C123.671 23.1387 124.564 23.3595 125.202 23.8009C125.841 24.2423 126.16 24.8715 126.16 25.6886C126.16 26.177 126.038 26.609 125.794 26.9846C125.55 27.3509 125.207 27.6421 124.766 27.8581ZM120.201 27.2241H122.328C122.826 27.2241 123.202 27.1255 123.455 26.9283C123.709 26.7217 123.836 26.4211 123.836 26.0267C123.836 25.6416 123.704 25.3458 123.441 25.1392C123.188 24.9326 122.817 24.8292 122.328 24.8292H120.201V27.2241ZM122.709 31.3095C123.779 31.3095 124.315 30.8869 124.315 30.0416C124.315 29.2245 123.779 28.816 122.709 28.816H120.201V31.3095H122.709ZM135.107 30.8869H130.529L129.656 33H127.317L131.712 23.1387H133.966L138.376 33H135.981L135.107 30.8869ZM134.389 29.1541L132.825 25.3787L131.262 29.1541H134.389ZM147.942 23.1387C148.815 23.1387 149.571 23.2843 150.21 23.5755C150.858 23.8666 151.355 24.2798 151.703 24.8152C152.05 25.3505 152.224 25.9844 152.224 26.717C152.224 27.4401 152.05 28.0741 151.703 28.6188C151.355 29.1541 150.858 29.5673 150.21 29.8585C149.571 30.1402 148.815 30.2811 147.942 30.2811H145.955V33H143.673V23.1387H147.942ZM147.815 28.4216C148.5 28.4216 149.022 28.276 149.378 27.9849C149.735 27.6843 149.914 27.2617 149.914 26.717C149.914 26.1629 149.735 25.7402 149.378 25.4491C149.022 25.1486 148.5 24.9983 147.815 24.9983H145.955V28.4216H147.815ZM161.365 31.1686V33H153.73V23.1387H161.182V24.9701H155.998V27.1114H160.576V28.8864H155.998V31.1686H161.365ZM172.058 29.0273H170.621V33H168.381V29.0273H166.916L164.704 33H162.07L165.028 27.844L162.253 23.1387H164.662L166.874 27.1255H168.381V23.1387H170.621V27.1255H172.086L174.312 23.1387H176.721L173.96 27.844L176.904 33H174.269L172.058 29.0273ZM177.998 23.1387H180.266V29.5626L184.971 23.1387H187.112V33H184.858V26.5902L180.153 33H177.998V23.1387ZM198.541 33L198.527 27.0973L195.625 31.9575H194.611L191.709 27.21V33H189.567V23.1387H191.455L195.146 29.2668L198.781 23.1387H200.668L200.683 33H198.541ZM209.81 30.8869H205.231L204.358 33H202.019L206.415 23.1387H208.669L213.078 33H210.683L209.81 30.8869ZM209.091 29.1541L207.527 25.3787L205.964 29.1541H209.091Z" fill="white"/>
<path d="M106.237 44.4627H107.107V49.5832L111.407 44.4627H112.179V50.9062H111.309V45.7857L107.021 50.9062H106.237V44.4627ZM117.675 47.5497C118.133 47.6559 118.484 47.8397 118.729 48.101C118.982 48.3623 119.109 48.6808 119.109 49.0565C119.109 49.4322 118.978 49.767 118.717 50.061C118.464 50.355 118.116 50.5837 117.675 50.747C117.234 50.9022 116.749 50.9798 116.218 50.9798C115.752 50.9798 115.295 50.9144 114.846 50.7837C114.397 50.6449 114.005 50.4448 113.67 50.1835L113.964 49.5342C114.258 49.7547 114.601 49.9262 114.993 50.0487C115.385 50.1712 115.781 50.2325 116.181 50.2325C116.777 50.2325 117.263 50.1222 117.639 49.9017C118.023 49.6731 118.214 49.3668 118.214 48.983C118.214 48.64 118.059 48.3746 117.749 48.1867C117.439 47.9907 117.014 47.8927 116.475 47.8927H115.372V47.2557H116.426C116.908 47.2557 117.296 47.1659 117.59 46.9862C117.884 46.7984 118.031 46.5493 118.031 46.239C118.031 45.896 117.863 45.6265 117.528 45.4305C117.202 45.2345 116.773 45.1365 116.242 45.1365C115.548 45.1365 114.862 45.3121 114.184 45.6632L113.939 44.9895C114.707 44.5893 115.503 44.3892 116.328 44.3892C116.818 44.3892 117.259 44.4627 117.651 44.6098C118.051 44.7486 118.361 44.9487 118.582 45.21C118.811 45.4713 118.925 45.7735 118.925 46.1165C118.925 46.4432 118.811 46.7331 118.582 46.9862C118.361 47.2394 118.059 47.4272 117.675 47.5497ZM128.286 44.4627V50.9062H127.49V45.8102L124.881 50.1222H124.489L121.879 45.798V50.9062H121.083V44.4627H121.965L124.697 49.1055L127.478 44.4627H128.286ZM136.396 47.954H131.006C131.055 48.6237 131.312 49.1667 131.778 49.5832C132.243 49.9916 132.831 50.1957 133.542 50.1957C133.942 50.1957 134.31 50.1263 134.644 49.9875C134.979 49.8405 135.269 49.6282 135.514 49.3505L136.004 49.914C135.718 50.257 135.359 50.5183 134.926 50.698C134.502 50.8777 134.032 50.9675 133.517 50.9675C132.856 50.9675 132.268 50.8287 131.753 50.551C131.247 50.2652 130.851 49.8732 130.565 49.375C130.279 48.8768 130.136 48.3133 130.136 47.6845C130.136 47.0557 130.271 46.4922 130.541 45.994C130.818 45.4958 131.194 45.1079 131.668 44.8302C132.15 44.5526 132.689 44.4137 133.285 44.4137C133.881 44.4137 134.416 44.5526 134.889 44.8302C135.363 45.1079 135.735 45.4958 136.004 45.994C136.274 46.484 136.408 47.0475 136.408 47.6845L136.396 47.954ZM133.285 45.161C132.664 45.161 132.141 45.3611 131.717 45.7612C131.3 46.1532 131.063 46.6677 131.006 47.3048H135.575C135.518 46.6677 135.277 46.1532 134.853 45.7612C134.436 45.3611 133.914 45.161 133.285 45.161ZM141.653 44.4137C142.258 44.4137 142.805 44.5526 143.295 44.8302C143.785 45.0997 144.169 45.4836 144.446 45.9817C144.724 46.4799 144.863 47.0475 144.863 47.6845C144.863 48.3297 144.724 48.9013 144.446 49.3995C144.169 49.8977 143.785 50.2856 143.295 50.5632C142.813 50.8327 142.266 50.9675 141.653 50.9675C141.131 50.9675 140.657 50.8613 140.232 50.649C139.816 50.4285 139.473 50.11 139.203 49.6935V53.2828H138.334V44.4627H139.167V45.7367C139.428 45.3121 139.771 44.9854 140.196 44.7567C140.629 44.5281 141.114 44.4137 141.653 44.4137ZM141.592 50.1957C142.041 50.1957 142.45 50.0937 142.817 49.8895C143.185 49.6772 143.471 49.3791 143.675 48.9952C143.887 48.6114 143.993 48.1745 143.993 47.6845C143.993 47.1945 143.887 46.7617 143.675 46.386C143.471 46.0022 143.185 45.7041 142.817 45.4917C142.45 45.2794 142.041 45.1732 141.592 45.1732C141.135 45.1732 140.722 45.2794 140.355 45.4917C139.996 45.7041 139.71 46.0022 139.497 46.386C139.293 46.7617 139.191 47.1945 139.191 47.6845C139.191 48.1745 139.293 48.6114 139.497 48.9952C139.71 49.3791 139.996 49.6772 140.355 49.8895C140.722 50.0937 141.135 50.1957 141.592 50.1957ZM152.367 47.954H146.977C147.026 48.6237 147.283 49.1667 147.748 49.5832C148.214 49.9916 148.802 50.1957 149.512 50.1957C149.913 50.1957 150.28 50.1263 150.615 49.9875C150.95 49.8405 151.24 49.6282 151.485 49.3505L151.975 49.914C151.689 50.257 151.329 50.5183 150.897 50.698C150.472 50.8777 150.002 50.9675 149.488 50.9675C148.826 50.9675 148.238 50.8287 147.724 50.551C147.218 50.2652 146.821 49.8732 146.536 49.375C146.25 48.8768 146.107 48.3133 146.107 47.6845C146.107 47.0557 146.242 46.4922 146.511 45.994C146.789 45.4958 147.164 45.1079 147.638 44.8302C148.12 44.5526 148.659 44.4137 149.255 44.4137C149.851 44.4137 150.386 44.5526 150.86 44.8302C151.334 45.1079 151.705 45.4958 151.975 45.994C152.244 46.484 152.379 47.0475 152.379 47.6845L152.367 47.954ZM149.255 45.161C148.634 45.161 148.112 45.3611 147.687 45.7612C147.271 46.1532 147.034 46.6677 146.977 47.3048H151.546C151.489 46.6677 151.248 46.1532 150.823 45.7612C150.407 45.3611 149.884 45.161 149.255 45.161ZM154.304 44.4627H155.174V47.317H159.229V44.4627H160.098V50.9062H159.229V48.0642H155.174V50.9062H154.304V44.4627ZM162.571 44.4627H163.44V49.5832L167.74 44.4627H168.512V50.9062H167.642V45.7857L163.355 50.9062H162.571V44.4627ZM175.953 44.4627V50.9062H175.157V48.7747H173.136H172.891L171.396 50.9062H170.453L172.058 48.6522C171.56 48.5134 171.176 48.2766 170.906 47.9417C170.637 47.6069 170.502 47.1822 170.502 46.6677C170.502 45.9491 170.747 45.4019 171.237 45.0262C171.727 44.6506 172.397 44.4627 173.246 44.4627H175.953ZM171.384 46.6922C171.384 47.6477 171.993 48.1255 173.209 48.1255H175.157V45.2345H173.271C172.013 45.2345 171.384 45.7204 171.384 46.6922ZM187.421 44.4627V50.9062H186.552V45.2345H182.509V50.9062H181.639V44.4627H187.421ZM193.213 44.4137C193.818 44.4137 194.365 44.5526 194.855 44.8302C195.345 45.0997 195.729 45.4836 196.006 45.9817C196.284 46.4799 196.423 47.0475 196.423 47.6845C196.423 48.3297 196.284 48.9013 196.006 49.3995C195.729 49.8977 195.345 50.2856 194.855 50.5632C194.373 50.8327 193.826 50.9675 193.213 50.9675C192.691 50.9675 192.217 50.8613 191.792 50.649C191.376 50.4285 191.033 50.11 190.763 49.6935V53.2828H189.894V44.4627H190.727V45.7367C190.988 45.3121 191.331 44.9854 191.756 44.7567C192.189 44.5281 192.674 44.4137 193.213 44.4137ZM193.152 50.1957C193.601 50.1957 194.01 50.0937 194.377 49.8895C194.745 49.6772 195.031 49.3791 195.235 48.9952C195.447 48.6114 195.553 48.1745 195.553 47.6845C195.553 47.1945 195.447 46.7617 195.235 46.386C195.031 46.0022 194.745 45.7041 194.377 45.4917C194.01 45.2794 193.601 45.1732 193.152 45.1732C192.695 45.1732 192.282 45.2794 191.915 45.4917C191.556 45.7041 191.27 46.0022 191.057 46.386C190.853 46.7617 190.751 47.1945 190.751 47.6845C190.751 48.1745 190.853 48.6114 191.057 48.9952C191.27 49.3791 191.556 49.6772 191.915 49.8895C192.282 50.0937 192.695 50.1957 193.152 50.1957ZM198.292 44.4627H199.161V49.5832L203.461 44.4627H204.233V50.9062H203.363V45.7857L199.076 50.9062H198.292V44.4627ZM213.929 44.4627V50.9062H213.132V45.8102L210.523 50.1222H210.131L207.522 45.798V50.9062H206.726V44.4627H207.608L210.339 49.1055L213.12 44.4627H213.929ZM222.039 47.954H216.649C216.698 48.6237 216.955 49.1667 217.42 49.5832C217.886 49.9916 218.474 50.1957 219.184 50.1957C219.584 50.1957 219.952 50.1263 220.287 49.9875C220.622 49.8405 220.912 49.6282 221.157 49.3505L221.647 49.914C221.361 50.257 221.001 50.5183 220.569 50.698C220.144 50.8777 219.674 50.9675 219.16 50.9675C218.498 50.9675 217.91 50.8287 217.396 50.551C216.889 50.2652 216.493 49.8732 216.208 49.375C215.922 48.8768 215.779 48.3133 215.779 47.6845C215.779 47.0557 215.914 46.4922 216.183 45.994C216.461 45.4958 216.836 45.1079 217.31 44.8302C217.792 44.5526 218.331 44.4137 218.927 44.4137C219.523 44.4137 220.058 44.5526 220.532 44.8302C221.005 45.1079 221.377 45.4958 221.647 45.994C221.916 46.484 222.051 47.0475 222.051 47.6845L222.039 47.954ZM218.927 45.161C218.306 45.161 217.784 45.3611 217.359 45.7612C216.943 46.1532 216.706 46.6677 216.649 47.3048H221.218C221.161 46.6677 220.92 46.1532 220.495 45.7612C220.079 45.3611 219.556 45.161 218.927 45.161ZM226.671 50.9675C226.034 50.9675 225.462 50.8287 224.956 50.551C224.458 50.2733 224.066 49.8854 223.78 49.3872C223.494 48.8809 223.351 48.3133 223.351 47.6845C223.351 47.0557 223.494 46.4922 223.78 45.994C224.066 45.4958 224.458 45.1079 224.956 44.8302C225.462 44.5526 226.034 44.4137 226.671 44.4137C227.226 44.4137 227.72 44.524 228.153 44.7445C228.594 44.9568 228.941 45.2712 229.195 45.6877L228.545 46.1287C228.333 45.8102 228.063 45.5734 227.737 45.4182C227.41 45.2549 227.055 45.1732 226.671 45.1732C226.206 45.1732 225.785 45.2794 225.409 45.4917C225.042 45.6959 224.752 45.9899 224.54 46.3737C224.335 46.7576 224.233 47.1945 224.233 47.6845C224.233 48.1827 224.335 48.6237 224.54 49.0075C224.752 49.3832 225.042 49.6772 225.409 49.8895C225.785 50.0937 226.206 50.1957 226.671 50.1957C227.055 50.1957 227.41 50.1182 227.737 49.963C228.063 49.8078 228.333 49.571 228.545 49.2525L229.195 49.6935C228.941 50.11 228.594 50.4285 228.153 50.649C227.712 50.8613 227.218 50.9675 226.671 50.9675ZM236.406 47.954H231.016C231.065 48.6237 231.322 49.1667 231.788 49.5832C232.253 49.9916 232.841 50.1957 233.552 50.1957C233.952 50.1957 234.319 50.1263 234.654 49.9875C234.989 49.8405 235.279 49.6282 235.524 49.3505L236.014 49.914C235.728 50.257 235.369 50.5183 234.936 50.698C234.511 50.8777 234.042 50.9675 233.527 50.9675C232.866 50.9675 232.278 50.8287 231.763 50.551C231.257 50.2652 230.861 49.8732 230.575 49.375C230.289 48.8768 230.146 48.3133 230.146 47.6845C230.146 47.0557 230.281 46.4922 230.55 45.994C230.828 45.4958 231.204 45.1079 231.677 44.8302C232.159 44.5526 232.698 44.4137 233.294 44.4137C233.891 44.4137 234.426 44.5526 234.899 44.8302C235.373 45.1079 235.744 45.4958 236.014 45.994C236.283 46.484 236.418 47.0475 236.418 47.6845L236.406 47.954ZM233.294 45.161C232.674 45.161 232.151 45.3611 231.726 45.7612C231.31 46.1532 231.073 46.6677 231.016 47.3048H235.585C235.528 46.6677 235.287 46.1532 234.862 45.7612C234.446 45.3611 233.923 45.161 233.294 45.161ZM238.343 44.4627H239.213V49.5832L243.513 44.4627H244.285V50.9062H243.415V45.7857L239.127 50.9062H238.343V44.4627ZM241.271 43.5317C240.716 43.5317 240.275 43.3929 239.948 43.1152C239.622 42.8376 239.454 42.4456 239.446 41.9392H240.071C240.079 42.2577 240.193 42.515 240.414 42.711C240.634 42.8988 240.92 42.9927 241.271 42.9927C241.622 42.9927 241.908 42.8988 242.129 42.711C242.357 42.515 242.476 42.2577 242.484 41.9392H243.109C243.101 42.4456 242.929 42.8376 242.594 43.1152C242.268 43.3929 241.827 43.5317 241.271 43.5317Z" fill="white"/>
<path d="M106.237 62.8377H107.107V67.9582L111.407 62.8377H112.179V69.2812H111.309V64.1607L107.021 69.2812H106.237V62.8377ZM122.41 63.6095H119.972V69.2812H119.102V63.6095H116.664V62.8377H122.41V63.6095ZM129.003 66.329H123.613C123.662 66.9987 123.919 67.5417 124.385 67.9582C124.85 68.3666 125.438 68.5707 126.149 68.5707C126.549 68.5707 126.917 68.5013 127.251 68.3625C127.586 68.2155 127.876 68.0032 128.121 67.7255L128.611 68.289C128.325 68.632 127.966 68.8933 127.533 69.073C127.108 69.2527 126.639 69.3425 126.124 69.3425C125.463 69.3425 124.875 69.2037 124.36 68.926C123.854 68.6402 123.458 68.2482 123.172 67.75C122.886 67.2518 122.743 66.6883 122.743 66.0595C122.743 65.4307 122.878 64.8672 123.148 64.369C123.425 63.8708 123.801 63.4829 124.275 63.2052C124.756 62.9276 125.295 62.7887 125.892 62.7887C126.488 62.7887 127.023 62.9276 127.496 63.2052C127.97 63.4829 128.342 63.8708 128.611 64.369C128.881 64.859 129.015 65.4225 129.015 66.0595L129.003 66.329ZM125.892 63.536C125.271 63.536 124.748 63.7361 124.324 64.1362C123.907 64.5282 123.67 65.0427 123.613 65.6798H128.182C128.125 65.0427 127.884 64.5282 127.46 64.1362C127.043 63.7361 126.52 63.536 125.892 63.536ZM138.144 62.8377V69.2812H137.347V64.1852L134.738 68.4972H134.346L131.737 64.173V69.2812H130.941V62.8377H131.823L134.554 67.4805L137.335 62.8377H138.144ZM146.401 62.8377V69.2812H145.531V63.6095H141.488V69.2812H140.619V62.8377H146.401ZM154.508 66.329H149.118C149.167 66.9987 149.424 67.5417 149.89 67.9582C150.355 68.3666 150.943 68.5707 151.654 68.5707C152.054 68.5707 152.421 68.5013 152.756 68.3625C153.091 68.2155 153.381 68.0032 153.626 67.7255L154.116 68.289C153.83 68.632 153.471 68.8933 153.038 69.073C152.613 69.2527 152.144 69.3425 151.629 69.3425C150.968 69.3425 150.38 69.2037 149.865 68.926C149.359 68.6402 148.963 68.2482 148.677 67.75C148.391 67.2518 148.248 66.6883 148.248 66.0595C148.248 65.4307 148.383 64.8672 148.652 64.369C148.93 63.8708 149.306 63.4829 149.779 63.2052C150.261 62.9276 150.8 62.7887 151.396 62.7887C151.993 62.7887 152.528 62.9276 153.001 63.2052C153.475 63.4829 153.846 63.8708 154.116 64.369C154.385 64.859 154.52 65.4225 154.52 66.0595L154.508 66.329ZM151.396 63.536C150.776 63.536 150.253 63.7361 149.828 64.1362C149.412 64.5282 149.175 65.0427 149.118 65.6798H153.687C153.63 65.0427 153.389 64.5282 152.964 64.1362C152.548 63.7361 152.025 63.536 151.396 63.536ZM159.765 62.7887C160.37 62.7887 160.917 62.9276 161.407 63.2052C161.897 63.4747 162.281 63.8586 162.558 64.3567C162.836 64.8549 162.975 65.4225 162.975 66.0595C162.975 66.7047 162.836 67.2763 162.558 67.7745C162.281 68.2727 161.897 68.6606 161.407 68.9382C160.925 69.2077 160.378 69.3425 159.765 69.3425C159.243 69.3425 158.769 69.2363 158.344 69.024C157.928 68.8035 157.585 68.485 157.315 68.0685V71.6578H156.446V62.8377H157.279V64.1117C157.54 63.6871 157.883 63.3604 158.308 63.1317C158.74 62.9031 159.226 62.7887 159.765 62.7887ZM159.704 68.5707C160.153 68.5707 160.562 68.4687 160.929 68.2645C161.297 68.0522 161.582 67.7541 161.787 67.3702C161.999 66.9864 162.105 66.5495 162.105 66.0595C162.105 65.5695 161.999 65.1367 161.787 64.761C161.582 64.3772 161.297 64.0791 160.929 63.8667C160.562 63.6544 160.153 63.5482 159.704 63.5482C159.247 63.5482 158.834 63.6544 158.467 63.8667C158.107 64.0791 157.822 64.3772 157.609 64.761C157.405 65.1367 157.303 65.5695 157.303 66.0595C157.303 66.5495 157.405 66.9864 157.609 67.3702C157.822 67.7541 158.107 68.0522 158.467 68.2645C158.834 68.4687 159.247 68.5707 159.704 68.5707ZM167.025 62.7887C167.866 62.7887 168.511 63.0011 168.96 63.4257C169.409 63.8422 169.634 64.4629 169.634 65.2877V69.2812H168.801V68.2767C168.605 68.6116 168.315 68.8729 167.931 69.0607C167.556 69.2486 167.106 69.3425 166.584 69.3425C165.865 69.3425 165.293 69.171 164.869 68.828C164.444 68.485 164.232 68.0317 164.232 67.4682C164.232 66.9211 164.428 66.4801 164.82 66.1452C165.22 65.8104 165.853 65.643 166.719 65.643H168.764V65.251C168.764 64.6957 168.609 64.2751 168.299 63.9892C167.988 63.6952 167.535 63.5482 166.939 63.5482C166.531 63.5482 166.139 63.6177 165.763 63.7565C165.387 63.8872 165.065 64.0709 164.795 64.3077L164.403 63.6585C164.73 63.3808 165.122 63.1685 165.579 63.0215C166.037 62.8663 166.518 62.7887 167.025 62.7887ZM166.719 68.6565C167.209 68.6565 167.629 68.5462 167.98 68.3257C168.331 68.0971 168.593 67.7704 168.764 67.3457V66.2922H166.743C165.641 66.2922 165.089 66.6761 165.089 67.4437C165.089 67.8194 165.232 68.1175 165.518 68.338C165.804 68.5503 166.204 68.6565 166.719 68.6565ZM176.482 63.6095H174.044V69.2812H173.174V63.6095H170.737V62.8377H176.482V63.6095ZM183.239 62.8377L180.017 70.053C179.756 70.6573 179.454 71.0861 179.111 71.3393C178.768 71.5924 178.355 71.719 177.874 71.719C177.563 71.719 177.273 71.67 177.004 71.572C176.734 71.474 176.502 71.327 176.306 71.131L176.71 70.4818C177.037 70.8084 177.429 70.9718 177.886 70.9718C178.18 70.9718 178.429 70.8901 178.633 70.7268C178.845 70.5634 179.041 70.2858 179.221 69.8938L179.503 69.269L176.624 62.8377H177.531L179.956 68.3135L182.382 62.8377H183.239ZM187.914 62.7887C188.518 62.7887 189.065 62.9276 189.555 63.2052C190.045 63.4747 190.429 63.8586 190.707 64.3567C190.985 64.8549 191.123 65.4225 191.123 66.0595C191.123 66.7047 190.985 67.2763 190.707 67.7745C190.429 68.2727 190.045 68.6606 189.555 68.9382C189.074 69.2077 188.526 69.3425 187.914 69.3425C187.391 69.3425 186.918 69.2363 186.493 69.024C186.076 68.8035 185.733 68.485 185.464 68.0685V71.6578H184.594V62.8377H185.427V64.1117C185.689 63.6871 186.032 63.3604 186.456 63.1317C186.889 62.9031 187.375 62.7887 187.914 62.7887ZM187.853 68.5707C188.302 68.5707 188.71 68.4687 189.078 68.2645C189.445 68.0522 189.731 67.7541 189.935 67.3702C190.148 66.9864 190.254 66.5495 190.254 66.0595C190.254 65.5695 190.148 65.1367 189.935 64.761C189.731 64.3772 189.445 64.0791 189.078 63.8667C188.71 63.6544 188.302 63.5482 187.853 63.5482C187.395 63.5482 186.983 63.6544 186.615 63.8667C186.256 64.0791 185.97 64.3772 185.758 64.761C185.554 65.1367 185.452 65.5695 185.452 66.0595C185.452 66.5495 185.554 66.9864 185.758 67.3702C185.97 67.7541 186.256 68.0522 186.615 68.2645C186.983 68.4687 187.395 68.5707 187.853 68.5707ZM195.699 65.1162C196.508 65.1244 197.124 65.3041 197.549 65.6552C197.974 66.0064 198.186 66.5127 198.186 67.1742C198.186 67.8602 197.957 68.387 197.5 68.7545C197.043 69.122 196.389 69.3017 195.54 69.2935L192.992 69.2812V62.8377H193.862V65.0917L195.699 65.1162ZM199.264 62.8377H200.134V69.2812H199.264V62.8377ZM195.491 68.632C196.087 68.6402 196.536 68.5217 196.839 68.2767C197.149 68.0236 197.304 67.6561 197.304 67.1742C197.304 66.7006 197.153 66.3494 196.851 66.1207C196.549 65.8921 196.095 65.7737 195.491 65.7655L193.862 65.741V68.6075L195.491 68.632Z" fill="white"/>
</svg>
