<svg width="68" height="61" viewBox="0 0 68 61" fill="none" xmlns="http://www.w3.org/2000/svg">
<path d="M29.7969 23C19.8359 23 11.75 14.2109 11.75 3.3125V0.5H18.8984C25.3438 0.5 30.9688 4.25 34.25 9.75781C37.4141 4.25 43.0391 0.5 49.4844 0.5H56.75V3.3125C56.75 14.2109 48.5469 23 38.5859 23H37.0625V28.625C37.0625 29.6797 36.125 30.5 35.1875 30.5H33.3125C32.2578 30.5 31.4375 29.6797 31.4375 28.625V23H29.7969ZM49.4844 6.125C43.5078 6.125 38.4688 11.0469 37.2969 17.375H38.5859C44.5625 17.375 49.7188 12.5703 50.7734 6.125H49.4844ZM18.8984 6.125H17.6094C18.7812 12.5703 23.8203 17.375 29.7969 17.375H31.0859C29.9141 11.0469 24.875 6.125 18.8984 6.125ZM65.0703 37.0625C66.9453 38.7031 68 41.0469 67.8828 43.3906C67.8828 45.8516 66.7109 48.0781 64.7188 49.4844L53 58.3906C51.125 59.7969 48.7812 60.5 46.4375 60.5H2.375C1.32031 60.5 0.5 59.6797 0.5 58.625V56.75C0.5 55.8125 1.32031 54.875 2.375 54.875H46.4375C47.6094 54.875 48.6641 54.5234 49.6016 53.8203L61.4375 45.0312C62.6094 44.0938 62.7266 42.4531 61.4375 41.3984C60.6172 40.6953 59.0938 40.6953 58.1562 41.3984L51.0078 46.7891C50.0703 47.4922 49.0156 47.8438 47.8438 47.8438H32.0234C31.2031 47.8438 30.5 47.1406 30.5 46.3203V46.2031C30.5 45.3828 31.2031 44.6797 32.0234 44.6797H39.0547C42.5703 44.6797 42.4531 39.875 39.1719 39.875H22.2969C20.1875 39.875 18.1953 40.5781 16.5547 41.8672L11.75 45.5H2.375C1.32031 45.5 0.5 44.6797 0.5 43.625V41.75C0.5 40.8125 1.32031 39.875 2.375 39.875H9.75781L13.1562 37.4141C15.7344 35.4219 19.0156 34.25 22.2969 34.25H39.1719C43.7422 34.25 47.2578 37.7656 47.2578 42.2188H47.7266L54.7578 36.9453C56.9844 35.1875 61.4375 34.0156 65.0703 37.0625Z" fill="white"/>
</svg>
