<svg width="92" height="91" viewBox="0 0 92 91" fill="none" xmlns="http://www.w3.org/2000/svg">
<path d="M17.191 39.8937C21.0691 39.8937 24.9495 39.8615 28.8275 39.9167C29.7653 39.9305 30.5327 39.5395 30.7516 38.8242C30.906 38.3205 30.505 37.4327 30.0695 36.9935C26.3758 33.2514 22.6037 29.5899 18.887 25.8708C17.0804 24.063 15.2716 22.2507 13.5941 20.3256C11.3129 17.7128 12.7116 13.0945 15.8799 12.0756C18.2786 11.3051 20.2557 11.6685 22.0945 13.5476C26.7698 18.3223 31.5627 22.9775 36.3048 27.6855C36.7841 28.1616 37.2542 28.6538 37.692 29.1667C38.2796 29.8544 39.0377 30.0913 39.8395 29.7877C40.6576 29.4795 40.6299 28.6561 40.6322 27.927C40.6391 24.6311 40.6368 21.333 40.6368 18.0371C40.6368 14.0513 40.6207 10.0631 40.6437 6.07731C40.6552 4.23043 41.1898 2.58136 42.6208 1.28418C44.1439 -0.0958022 45.9988 -0.171701 47.7777 0.228493C49.5358 0.624087 50.6534 1.85917 51.3262 3.68534C51.9277 5.31832 51.7986 6.90529 51.8078 8.51757C51.8424 14.9943 51.8217 21.4733 51.824 27.9523C51.824 28.6722 51.7041 29.4887 52.5567 29.8337C53.3724 30.1672 54.0061 29.7578 54.5845 29.1713C57.1145 26.616 59.6561 24.0722 62.2092 21.5377C65.1333 18.6305 68.0298 15.6935 71.0253 12.8622C72.3664 11.5949 74.1453 11.3787 75.8781 11.8387C77.8205 12.3562 79.0925 13.5729 79.6294 15.6544C80.3667 18.5086 79.0395 20.3325 77.0947 22.138C74.6545 24.4011 72.4009 26.8621 70.0621 29.2334C67.3638 31.968 64.6471 34.6843 61.9788 37.4488C61.6631 37.7754 61.3267 38.5298 61.4834 38.7667C61.806 39.2543 62.4327 39.5694 62.9835 39.8638C63.2231 39.9926 63.5872 39.8914 63.8936 39.8914C71.2673 39.8914 78.6409 39.8914 86.0145 39.8914C88.745 39.8914 90.4294 41.1288 91.3096 43.7577C92.1807 46.3589 90.9917 49.1143 88.4478 50.124C87.5284 50.4897 86.4984 50.7565 85.5145 50.7634C78.2192 50.8162 70.9216 50.7794 63.6264 50.8162C63.0272 50.8186 62.3705 51.0692 61.8452 51.382C61.0871 51.8328 61.1746 52.5573 61.723 53.1116C65.2739 56.6973 68.8593 60.2461 72.4171 63.8226C74.5416 65.9569 76.6915 68.0706 78.7284 70.2878C79.7008 71.3457 79.7999 72.7556 79.7077 74.1839C79.5441 76.707 77.915 78.0088 75.8251 78.8252C74.0347 79.5244 72.3065 78.9517 70.9723 77.7235C68.5137 75.4558 66.1933 73.0385 63.8222 70.6765C60.6101 67.4795 57.4233 64.255 54.1674 61.104C53.8171 60.7659 53.0521 60.7015 52.5129 60.7705C52.2341 60.805 51.9161 61.3846 51.8171 61.7687C51.665 62.3529 51.6442 62.9808 51.6419 63.5903C51.6304 70.5293 51.6696 77.466 51.6005 84.4027C51.5889 85.5388 51.2894 86.744 50.8308 87.7882C49.6511 90.4746 46.6578 91.0358 44.3421 90.3366C41.9226 89.6075 40.5631 87.1212 40.5631 84.8489C40.5585 77.374 40.5631 69.8991 40.5585 62.4242C40.5585 60.9706 39.987 60.4462 38.7197 60.7061C38.5146 60.7475 38.2888 60.8487 38.1436 60.9936C34.7863 64.3033 31.4336 67.6175 28.0948 70.9455C25.9057 73.1282 23.772 75.3707 21.5553 77.5258C18.3547 80.6376 13.3107 78.3652 12.5733 74.7129C12.0986 72.3669 13.0111 70.7317 14.4328 69.2459C16.7394 66.8332 19.1888 64.5585 21.553 62.2011C23.8365 59.9264 26.0901 57.6195 28.3551 55.3265C29.0395 54.6342 29.7746 53.9879 30.3875 53.2381C30.6663 52.8977 30.9428 52.233 30.7907 51.9409C30.5419 51.4648 29.9727 51.1083 29.4704 50.8254C29.2054 50.6782 28.793 50.791 28.4473 50.791C21.1497 50.791 13.8545 50.7679 6.55691 50.8001C2.85628 50.8162 1.33317 48.491 0.632674 45.685C0.25708 44.1762 1.95301 41.2162 3.52682 40.5262C4.3333 40.1743 5.25501 39.9328 6.12832 39.9167C9.81282 39.85 13.5019 39.8891 17.1887 39.8891L17.191 39.8937ZM47.674 17.3862C47.674 13.5154 47.6832 9.64456 47.6602 5.77371C47.6579 5.39652 47.5588 4.83073 47.3099 4.68353C46.8306 4.40293 46.1832 4.18443 45.6555 4.26493C44.9435 4.37533 44.7153 5.01242 44.7176 5.75531C44.7361 11.2729 44.7292 16.7929 44.7269 22.3128C44.7269 24.4977 44.819 26.6873 44.6854 28.8654C44.5195 31.554 43.1231 33.0444 40.7198 33.877C38.7289 34.5647 36.7749 33.8862 35.2495 32.3981C33.2955 30.4937 31.4267 28.4997 29.4911 26.5723C26.2076 23.3018 22.8941 20.0634 19.6105 16.7952C18.5943 15.7809 17.5597 15.4957 16.8731 16.1374C16.1311 16.8296 16.3592 17.6622 17.5344 18.7984C19.4722 20.6729 21.3917 22.5658 23.3042 24.4655C26.1868 27.3267 29.0994 30.1603 31.9106 33.0881C33.0858 34.3117 34.4268 35.3904 34.7448 37.3407C35.2287 40.3215 33.7747 42.3386 31.6779 43.2793C30.5442 43.7876 29.1916 44.0037 27.9335 44.0176C21.023 44.0865 14.1103 44.0497 7.1998 44.052C6.77812 44.052 6.35183 44.0406 5.93476 44.0888C5.13749 44.1808 4.8172 44.6891 4.88633 45.4481C4.99002 46.5774 5.77807 46.6947 6.70208 46.6924C13.9973 46.6809 21.2926 46.6579 28.5879 46.7085C30.3299 46.72 31.9705 47.1225 33.3392 48.4381C35.4223 50.4391 35.4223 54.0339 33.4614 55.9889C31.8023 57.6448 30.1133 59.2709 28.4519 60.9246C25.6638 63.7007 22.8802 66.4859 20.1059 69.2758C19.0137 70.3729 17.8892 71.4492 16.9053 72.6383C16.6196 72.9833 16.5366 73.9171 16.7832 74.1747C17.1426 74.5496 17.8984 74.7106 18.4653 74.6715C18.8824 74.6439 19.3133 74.1954 19.6589 73.855C20.6543 72.8706 21.5922 71.8264 22.5876 70.8421C26.8413 66.6239 31.0649 62.3736 35.3992 58.2405C36.2426 57.4379 37.4754 56.8146 38.6229 56.6007C41.6023 56.0441 44.9642 59.0501 44.7545 62.2563C44.6232 64.2411 44.7315 66.2398 44.7315 68.2339C44.7315 73.7538 44.7407 79.2714 44.7246 84.7914C44.7223 85.6561 44.9342 86.2909 45.8928 86.4312C47.0288 86.5968 47.6809 86.0264 47.6809 84.8512C47.6855 77.3004 47.6417 69.7496 47.727 62.2011C47.7408 61.0511 48.0381 59.6504 48.7432 58.8155C50.6142 56.5938 53.1443 55.4783 56.0269 57.5206C57.5569 58.6039 58.8381 60.0506 60.1838 61.38C64.0964 65.2485 67.9837 69.1424 71.8871 73.0201C72.371 73.5008 72.8341 74.0229 73.3872 74.4116C74.2029 74.9843 75.0854 74.9291 75.7744 74.1908C76.4795 73.4364 75.8089 72.866 75.3273 72.3761C73.5692 70.5914 71.7765 68.8411 69.9999 67.0747C67.6058 64.6942 65.184 62.3391 62.836 59.9149C61.2069 58.2313 59.5133 56.5708 58.1491 54.6825C56.4233 52.2928 57.868 48.6244 60.375 47.5227C61.5802 46.9937 62.995 46.7591 64.3222 46.7269C68.4284 46.628 72.5392 46.6924 76.6477 46.6901C79.7953 46.6901 82.9452 46.6832 86.0928 46.6878C87.0306 46.6878 87.4984 46.1933 87.5376 45.3055C87.5791 44.3487 86.9477 44.0774 86.1228 44.0612C85.7771 44.0544 85.4315 44.0544 85.0859 44.0544C78.2123 44.0544 71.3387 44.0774 64.4674 44.0313C63.3383 44.0244 62.1401 43.9072 61.0986 43.5162C57.1698 42.0442 56.1744 37.1981 59.1814 34.3876C60.7898 32.8857 62.2968 31.2734 63.8591 29.721C65.873 27.7177 67.9123 25.7397 69.9077 23.7203C71.8502 21.7539 73.7489 19.7414 75.673 17.7542C76.2191 17.1907 76.1431 16.7239 75.5509 16.2317C74.7213 15.5417 73.8388 15.6728 72.8894 16.6296C70.864 18.6742 68.8201 20.7028 66.7809 22.736C63.5941 25.9145 60.4718 29.1598 57.1767 32.2233C56.2366 33.095 54.8448 33.7505 53.5752 33.946C50.5612 34.406 47.5012 31.7817 47.6533 28.3111C47.8123 24.6771 47.6878 21.0317 47.6878 17.3908L47.674 17.3862Z" fill="white"/>
</svg>
