<svg width="51" height="52" viewBox="0 0 51 52" fill="none" xmlns="http://www.w3.org/2000/svg">
<circle cx="25.5" cy="25.5" r="25.5" fill="white"/>
<path d="M24.4301 32.2102H32.3928L31.4165 37H14.7895L15.5522 33.217L24.8878 25.956C25.9657 25.1221 26.7081 24.4204 27.1149 23.851C27.5216 23.2611 27.725 22.6611 27.725 22.051C27.725 21.4408 27.5013 20.9628 27.0538 20.6171C26.6064 20.251 25.9657 20.0679 25.1318 20.0679C24.3793 20.0679 23.6573 20.251 22.9657 20.6171C22.2946 20.9832 21.6946 21.512 21.1657 22.2035L17.1387 19.5493C17.9929 18.2273 19.2031 17.1798 20.7691 16.407C22.3556 15.6137 24.1149 15.2171 26.0471 15.2171C27.5725 15.2171 28.925 15.4714 30.1047 15.9798C31.3046 16.4883 32.2402 17.2002 32.9114 18.1154C33.5826 19.0103 33.9182 20.0171 33.9182 21.1357C33.9182 22.4781 33.5419 23.7289 32.7894 24.8882C32.0572 26.0475 30.7657 27.3289 28.9148 28.7323L24.4301 32.2102Z" fill="#32C5FB"/>
</svg>
