<svg width="51" height="52" viewBox="0 0 51 52" fill="none" xmlns="http://www.w3.org/2000/svg">
<circle cx="25.5" cy="25.5" r="25.5" fill="white"/>
<path d="M33.7962 19.4273L28.3352 24.3391C29.7182 24.7255 30.786 25.3865 31.5385 26.3221C32.3114 27.2374 32.6979 28.356 32.6979 29.678C32.6979 31.1628 32.2504 32.495 31.3555 33.6746C30.4606 34.8339 29.2301 35.7492 27.664 36.4203C26.0979 37.0915 24.3284 37.4271 22.3556 37.4271C20.7895 37.4271 19.3149 37.2339 17.9319 36.8475C16.5488 36.4407 15.3488 35.8509 14.3319 35.078L17.1387 30.7763C17.8912 31.3458 18.7556 31.7831 19.7319 32.0882C20.7285 32.3933 21.7352 32.5458 22.7522 32.5458C23.9928 32.5458 24.9386 32.3322 25.5894 31.9051C26.2606 31.4577 26.5962 30.8373 26.5962 30.0441C26.5962 28.8441 25.6505 28.2441 23.7589 28.2441H21.1657L21.9285 24.4306L26.5047 20.312H18.1454L19.0912 15.6442H34.5283L33.7962 19.4273Z" fill="#32C5FB"/>
</svg>
