<svg width="320" height="88" viewBox="0 0 320 88" fill="none" xmlns="http://www.w3.org/2000/svg">
<path d="M28.1827 53.9789V54.1434C28.6102 54.6696 28.7747 55.426 28.7747 56.1824V67.1996H30.8137C35.385 67.1996 37.8187 64.8975 37.8187 60.5893C37.8187 56.281 35.385 53.9789 30.8137 53.9789H28.1827ZM22.7892 77V76.704H24.0389C25.7819 76.704 25.9793 76.5396 25.9793 74.961V55.3931C25.9793 53.8145 25.7819 53.6501 24.0389 53.6501H22.7892V53.3541H31.899C37.3582 53.3541 40.9758 56.2482 40.9758 60.5893C40.9758 64.8975 37.3582 67.7916 31.899 67.7916H28.7747V74.961C28.7747 76.5396 29.0049 76.704 30.7479 76.704H31.6359V77H22.7892ZM38.9032 77V76.704H39.4622C40.3831 76.704 40.9093 75.7832 41.4684 74.665L51.6305 53.3541H54.4259V53.7487C54.4259 54.4065 54.5575 55.2615 54.7548 55.6562L63.2726 74.665C63.9961 76.2436 64.1277 76.704 65.4103 76.704H65.7063V77H58.7999V76.704H61.5625V76.6382C61.0692 76.4738 60.7074 75.6516 60.4443 75.0925L58.4382 70.587H44.0993L42.159 74.665C42.0603 74.9281 41.9617 75.1912 41.9617 75.4214C41.9617 76.1778 42.6194 76.704 43.7047 76.704H45.4806V77H38.9032ZM44.3953 69.995H58.1751L52.0252 56.281C51.7621 55.7549 51.7292 55.3273 51.7292 54.9656H51.4003C51.4003 55.1629 51.3016 55.5904 50.9728 56.281L44.3953 69.995ZM67.0274 65.0948L66.9945 65.0619C66.9945 57.8596 72.0591 53.0581 79.6232 53.0581C82.0569 53.0581 84.3918 53.7487 86.2664 55.1629C86.4309 55.3273 86.5624 55.5904 86.6611 55.8206L86.8913 55.7549C86.8255 55.4918 86.7926 55.13 86.7926 54.8011L86.7268 52.4004H87.0557L87.3846 61.9048L86.7268 61.9377L86.6282 58.8791C86.4309 55.9193 82.9119 53.6172 79.3601 53.6172C73.4075 53.6172 70.2175 57.4321 70.2175 64.5357C70.2175 72.3958 73.572 76.6382 79.7547 76.6382C83.175 76.6382 86.5295 74.9281 87.8121 72.1656L88.437 72.3958C87.0228 75.6845 83.5039 77.2631 79.7219 77.2631C72.1249 77.2631 67.0274 72.3958 67.0274 65.0948ZM90.6008 65.0948L90.568 65.0619C90.568 57.8596 95.6326 53.0581 103.197 53.0581C105.63 53.0581 107.965 53.7487 109.84 55.1629C110.004 55.3273 110.136 55.5904 110.235 55.8206L110.465 55.7549C110.399 55.4918 110.366 55.13 110.366 54.8011L110.3 52.4004H110.629L110.958 61.9048L110.3 61.9377L110.202 58.8791C110.004 55.9193 106.485 53.6172 102.934 53.6172C96.981 53.6172 93.7909 57.4321 93.7909 64.5357C93.7909 72.3958 97.1454 76.6382 103.328 76.6382C106.748 76.6382 110.103 74.9281 111.386 72.1656L112.01 72.3958C110.596 75.6845 107.077 77.2631 103.295 77.2631C95.6984 77.2631 90.6008 72.3958 90.6008 65.0948ZM116.476 53.3541H135.518V53.6501H134.236C132.492 53.6501 132.328 54.1105 132.328 55.6891V74.665C132.328 76.2436 132.492 76.704 134.236 76.704H135.518V77H126.606V76.704H127.592C129.302 76.704 129.5 76.2436 129.5 74.665V53.9461H121.015V61.9705C121.015 70.7514 118.285 76.3423 115.852 78.1839L113.747 75.9805C116.411 73.8757 120.061 69.3044 120.094 62.7598V56.0837C120.094 53.7816 119.798 53.6501 117.266 53.6501H116.476V53.3541ZM136.441 77V76.704H137C137.921 76.704 138.447 75.7832 139.006 74.665L149.168 53.3541H151.964V53.7487C151.964 54.4065 152.095 55.2615 152.292 55.6562L160.81 74.665C161.534 76.2436 161.665 76.704 162.948 76.704H163.244V77H156.338V76.704H159.1V76.6382C158.607 76.4738 158.245 75.6516 157.982 75.0925L155.976 70.587H141.637L139.697 74.665C139.598 74.9281 139.499 75.1912 139.499 75.4214C139.499 76.1778 140.157 76.704 141.242 76.704H143.018V77H136.441ZM141.933 69.995H155.713L149.563 56.281C149.3 55.7549 149.267 55.3273 149.267 54.9656H148.938C148.938 55.1629 148.839 55.5904 148.51 56.281L141.933 69.995ZM164.23 77V76.6711H165.48C167.223 76.6711 167.42 76.5067 167.42 74.9281V55.3931C167.42 53.8145 167.223 53.6501 165.48 53.6501H164.23V53.3541H179.259C179.851 53.3541 179.983 53.4199 180.246 53.6501H180.279L180.147 51.4137L180.476 51.3809L181.167 61.0168H180.509L180.345 58.7147C180.147 55.1629 177.286 53.9461 173.8 53.9461H169.426V53.9789C169.854 54.3736 170.215 54.9656 170.215 55.6891V64.174H172.748C179.325 64.174 183.633 66.7392 183.633 70.587C183.633 74.4348 179.687 77 173.701 77H164.23ZM170.215 64.7331V74.665C170.215 75.4214 170.051 75.9476 169.623 76.3423V76.408H173.011C177.911 76.408 180.509 74.369 180.509 70.587C180.509 66.7721 177.779 64.7331 172.781 64.7331H170.215ZM187.807 53.3541H206.849V53.6501H205.566C203.823 53.6501 203.659 54.1105 203.659 55.6891V74.665C203.659 76.2436 203.823 76.704 205.566 76.704H206.849V77H197.936V76.704H198.923C200.633 76.704 200.83 76.2436 200.83 74.665V53.9461H192.345V61.9705C192.345 70.7514 189.616 76.3423 187.182 78.1839L185.077 75.9805C187.741 73.8757 191.392 69.3044 191.425 62.7598V56.0837C191.425 53.7816 191.129 53.6501 188.596 53.6501H187.807V53.3541ZM219.808 70.2252H219.479V68.4164C219.479 65.2593 217.605 64.8975 215.566 64.8975H214.119V74.665C214.119 75.3885 213.757 75.9805 213.329 76.3751V76.408H220.532C224.018 76.408 225.662 75.1254 225.925 71.9683L226.155 69.3373H226.714L226.09 78.2497L225.794 78.2168L225.892 76.704H225.859C225.596 76.9342 225.103 77 224.511 77H208.133V76.704H209.383C211.126 76.704 211.323 76.5396 211.323 74.961V55.3931C211.323 53.8145 211.126 53.6501 209.383 53.6501H208.133V53.3541H222.571C223.13 53.3541 223.656 53.4199 223.886 53.6501H223.952L223.82 52.1373L224.149 52.1044L224.807 61.0168H224.149L224.018 58.7147C223.787 55.1629 221.913 53.9461 218.427 53.9461H213.329V53.9789C213.757 54.3736 214.119 54.9656 214.119 55.6891V64.3055H215.566C217.605 64.3055 219.479 63.9767 219.479 60.8195V59.6684H219.808V70.2252ZM228.11 77V76.704H229.359C231.102 76.704 231.3 76.2436 231.3 74.665V55.6891C231.3 54.1105 231.102 53.6501 229.359 53.6501H228.11V53.3541H236.989V53.6501H236.068C234.325 53.6501 234.095 54.1105 234.095 55.6891V64.2726H244.027V55.6891C244.027 54.1105 243.797 53.6501 242.054 53.6501H241.133V53.3541H250.045V53.6501H248.763C247.02 53.6501 246.855 54.1105 246.855 55.6891V74.665C246.855 76.2436 247.02 76.704 248.763 76.704H250.045V77H241.133V76.704H242.119C243.83 76.704 244.027 76.2436 244.027 74.665V64.8646H234.095V74.665C234.095 76.2436 234.325 76.704 236.068 76.704H236.989V77H228.11ZM251.33 77V76.704H252.579C254.322 76.704 254.52 76.2436 254.52 74.665V55.6891C254.52 54.1105 254.322 53.6501 252.579 53.6501H251.33V53.3541H260.209V53.6501H259.288C257.545 53.6501 257.315 54.1105 257.315 55.6891V74.7637L267.609 53.3541H273.265V53.6501H271.983C270.24 53.6501 270.075 54.1105 270.075 55.6891V74.665C270.075 76.2436 270.24 76.704 271.983 76.704H273.265V77H264.353V76.704H265.34C267.05 76.704 267.247 76.2436 267.247 74.665V55.5904L256.953 77H251.33ZM286.225 70.2252H285.896V68.4164C285.896 65.2593 284.021 64.8975 281.982 64.8975H280.535V74.665C280.535 75.3885 280.174 75.9805 279.746 76.3751V76.408H286.948C290.434 76.408 292.079 75.1254 292.342 71.9683L292.572 69.3373H293.131L292.506 78.2497L292.21 78.2168L292.309 76.704H292.276C292.013 76.9342 291.52 77 290.928 77H274.55V76.704H275.8C277.543 76.704 277.74 76.5396 277.74 74.961V55.3931C277.74 53.8145 277.543 53.6501 275.8 53.6501H274.55V53.3541H288.987C289.546 53.3541 290.073 53.4199 290.303 53.6501H290.369L290.237 52.1373L290.566 52.1044L291.224 61.0168H290.566L290.434 58.7147C290.204 55.1629 288.33 53.9461 284.844 53.9461H279.746V53.9789C280.174 54.3736 280.535 54.9656 280.535 55.6891V64.3055H281.982C284.021 64.3055 285.896 63.9767 285.896 60.8195V59.6684H286.225V70.2252Z" fill="#62353E"/>
<path d="M11.3289 33V32.6711H11.9208C13.7625 32.6711 14.0256 32.1778 14.1572 30.3361L15.1109 11.3602V10.6696C15.1109 9.91317 14.8807 9.61718 13.3021 9.61718H11.8551V9.3212H17.1828L26.5557 28.1656C26.8845 28.8233 27.1147 29.3824 27.1147 29.5797H27.2792C27.2792 29.3824 27.5423 28.6589 27.7725 28.1656L37.1453 9.3212H42.5717V9.61718H41.3549C39.579 9.61718 39.3159 10.1105 39.3159 11.0642C39.3159 11.3273 39.3488 11.6233 39.3488 11.9522L40.2039 30.3361C40.2696 32.2107 40.5327 32.6711 42.506 32.6711H43.2953V32.9671H33.8566V32.6711H35.1721C37.1453 32.6711 37.4084 32.1778 37.4084 31.3885V30.8294L36.6849 13.4979C36.652 12.9059 36.652 12.4126 36.652 12.0508H36.4218C36.4218 12.1495 36.1916 12.7086 35.8627 13.3992L26.1281 33.0987L26.0295 33.3289H25.9308L25.8321 33.0987L16.2291 13.761C15.9331 13.1032 15.8344 12.4784 15.8344 12.3797H15.7029C15.7029 12.6757 15.7029 12.9059 15.67 13.4979L14.7491 30.7637C14.7491 31.0597 14.7163 31.3228 14.7163 31.553C14.7163 32.3423 15.0122 32.704 17.0184 32.704H18.301V33H11.3289ZM57.9095 33.2631C49.8521 33.2631 44.4915 28.4287 44.4915 21.1606C44.4915 13.9254 49.8521 9.09099 57.9095 9.09099C65.9011 9.09099 71.2617 13.9254 71.2617 21.1606C71.2617 28.4287 65.9011 33.2631 57.9095 33.2631ZM58.0411 32.6711C64.5856 32.6711 68.1046 28.8562 68.1046 21.7855C68.1046 13.9254 64.487 9.68296 57.778 9.68296C51.2005 9.68296 47.6487 13.4979 47.6487 20.5686C47.6487 28.4287 51.2663 32.6711 58.0411 32.6711Z" fill="#62353E"/>
<path d="M72.8596 33V32.6711H73.4516C75.2933 32.6711 75.5564 32.1778 75.6879 30.3361L76.6417 11.3602V10.6696C76.6417 9.91317 76.4115 9.61718 74.8329 9.61718H73.3858V9.3212H78.7136L88.0864 28.1656C88.4153 28.8233 88.6455 29.3824 88.6455 29.5797H88.8099C88.8099 29.3824 89.073 28.6589 89.3032 28.1656L98.6761 9.3212H104.102V9.61718H102.886C101.11 9.61718 100.847 10.1105 100.847 11.0642C100.847 11.3273 100.88 11.6233 100.88 11.9522L101.735 30.3361C101.8 32.2107 102.063 32.6711 104.037 32.6711H104.826V32.9671H95.3874V32.6711H96.7029C98.6761 32.6711 98.9392 32.1778 98.9392 31.3885V30.8294L98.2157 13.4979C98.1828 12.9059 98.1828 12.4126 98.1828 12.0508H97.9526C97.9526 12.1495 97.7224 12.7086 97.3935 13.3992L87.6589 33.0987L87.5602 33.3289H87.4616L87.3629 33.0987L77.7598 13.761C77.4638 13.1032 77.3652 12.4784 77.3652 12.3797H77.2336C77.2336 12.6757 77.2336 12.9059 77.2007 13.4979L76.2799 30.7637C76.2799 31.0597 76.247 31.3228 76.247 31.553C76.247 32.3423 76.543 32.704 78.5491 32.704H79.8317V33H72.8596ZM117.494 26.2252H117.165V24.4164C117.165 21.2593 115.29 20.8975 113.251 20.8975H111.804V30.665C111.804 31.3885 111.443 31.9805 111.015 32.3751V32.408H118.217C121.703 32.408 123.348 31.1254 123.611 27.9683L123.841 25.3373H124.4L123.775 34.2497L123.479 34.2168L123.578 32.704H123.545C123.282 32.9342 122.789 33 122.197 33H105.819V32.704H107.069C108.812 32.704 109.009 32.5396 109.009 30.961V11.3931C109.009 9.81451 108.812 9.65007 107.069 9.65007H105.819V9.35409H120.256C120.815 9.35409 121.342 9.41986 121.572 9.65007H121.638L121.506 8.13726L121.835 8.10437L122.493 17.0168H121.835L121.703 14.7147C121.473 11.1629 119.599 9.94606 116.112 9.94606H111.015V9.97894C111.443 10.3736 111.804 10.9656 111.804 11.6891V20.3055H113.251C115.29 20.3055 117.165 19.9767 117.165 16.8195V15.6684H117.494V26.2252ZM125.795 33V32.704H127.045C128.788 32.704 128.985 32.2436 128.985 30.665V11.6891C128.985 10.1105 128.788 9.65007 127.045 9.65007H125.795V9.35409H134.675V9.65007H133.754C132.011 9.65007 131.781 10.1105 131.781 11.6891V20.2726H141.713V11.6891C141.713 10.1105 141.482 9.65007 139.739 9.65007H138.819V9.35409H147.731V9.65007H146.448C144.705 9.65007 144.541 10.1105 144.541 11.6891V30.665C144.541 32.2436 144.705 32.704 146.448 32.704H147.731V33H138.819V32.704H139.805C141.515 32.704 141.713 32.2436 141.713 30.665V20.8646H131.781V30.665C131.781 32.2436 132.011 32.704 133.754 32.704H134.675V33H125.795ZM152.041 33V32.704H154.804C156.547 32.704 156.711 32.5396 156.711 30.961V9.94606H154.54C151.054 9.94606 149.838 10.5709 149.673 13.7281L149.542 15.0765L148.884 15.0436L149.443 7.41374L149.838 7.44663L149.673 9.35409H166.511L166.347 7.47951L166.742 7.44663L167.268 15.0436L166.61 15.0765L166.511 13.7281C166.248 10.5709 165.097 9.94606 161.644 9.94606H159.539V30.961C159.539 32.5396 159.704 32.704 161.447 32.704H164.144V33H152.041ZM165.547 33V32.704H166.106C167.027 32.704 167.553 31.7832 168.112 30.665L178.274 9.35409H181.07V9.74873C181.07 10.4065 181.201 11.2615 181.399 11.6562L189.916 30.665C190.64 32.2436 190.771 32.704 192.054 32.704H192.35V33H185.444V32.704H188.206V32.6382C187.713 32.4738 187.351 31.6516 187.088 31.0925L185.082 26.587H170.743L168.803 30.665C168.704 30.9281 168.605 31.1912 168.605 31.4214C168.605 32.1778 169.263 32.704 170.348 32.704H172.124V33H165.547ZM171.039 25.995H184.819L178.669 12.281C178.406 11.7549 178.373 11.3273 178.373 10.9656H178.044C178.044 11.1629 177.945 11.5904 177.616 12.281L171.039 25.995ZM195.652 9.35409H214.694V9.65007H213.411C211.668 9.65007 211.504 10.1105 211.504 11.6891V30.665C211.504 32.2436 211.668 32.704 213.411 32.704H214.694V33H205.781V32.704H206.768C208.478 32.704 208.675 32.2436 208.675 30.665V9.94606H200.19V17.9705C200.19 26.7514 197.461 32.3423 195.027 34.1839L192.922 31.9805C195.586 29.8757 199.237 25.3044 199.27 18.7598V12.0837C199.27 9.78162 198.974 9.65007 196.441 9.65007H195.652V9.35409ZM215.978 33V32.6711H217.228C218.971 32.6711 219.168 32.5067 219.168 30.9281V11.3602C219.168 9.78162 218.971 9.65007 217.228 9.65007H215.978V9.35409H225.187V9.65007H223.937C222.194 9.65007 221.964 9.84739 221.964 11.426V20.8317H224.726C230.251 20.8317 233.935 23.2654 233.935 26.9159C233.935 30.5663 230.251 33 224.726 33H215.978ZM221.964 21.3908V30.665C221.964 31.4214 221.799 31.9476 221.372 32.3423V32.408H224.036C228.442 32.408 230.81 30.5006 230.81 26.9159C230.81 23.3312 228.442 21.3908 224.036 21.3908H221.964ZM235.216 33V32.704H236.466C238.209 32.704 238.406 32.2436 238.406 30.665V11.6891C238.406 10.1105 238.209 9.65007 236.466 9.65007H235.216V9.35409H244.095V9.65007H243.175C241.432 9.65007 241.201 10.1105 241.201 11.6891V20.2726H251.133V11.6891C251.133 10.1105 250.903 9.65007 249.16 9.65007H248.239V9.35409H257.152V9.65007H255.869C254.126 9.65007 253.962 10.1105 253.962 11.6891V30.665C253.962 32.2436 254.126 32.704 255.869 32.704H257.152V33H248.239V32.704H249.226C250.936 32.704 251.133 32.2436 251.133 30.665V20.8646H241.201V30.665C241.201 32.2436 241.432 32.704 243.175 32.704H244.095V33H235.216ZM272.314 33.2631C264.257 33.2631 258.896 28.4287 258.896 21.1606C258.896 13.9254 264.257 9.09099 272.314 9.09099C280.306 9.09099 285.667 13.9254 285.667 21.1606C285.667 28.4287 280.306 33.2631 272.314 33.2631ZM272.446 32.6711C278.991 32.6711 282.51 28.8562 282.51 21.7855C282.51 13.9254 278.892 9.68296 272.183 9.68296C265.605 9.68296 262.054 13.4979 262.054 20.5686C262.054 28.4287 265.671 32.6711 272.446 32.6711ZM299.112 26.2252H298.783V24.4164C298.783 21.2593 296.909 20.8975 294.87 20.8975H293.423V30.665C293.423 31.3885 293.061 31.9805 292.633 32.3751V32.408H299.836C303.322 32.408 304.966 31.1254 305.229 27.9683L305.459 25.3373H306.018L305.394 34.2497L305.098 34.2168L305.196 32.704H305.163C304.9 32.9342 304.407 33 303.815 33H287.437V32.704H288.687C290.43 32.704 290.627 32.5396 290.627 30.961V11.3931C290.627 9.81451 290.43 9.65007 288.687 9.65007H287.437V9.35409H301.875C302.434 9.35409 302.96 9.41986 303.19 9.65007H303.256L303.124 8.13726L303.453 8.10437L304.111 17.0168H303.453L303.322 14.7147C303.092 11.1629 301.217 9.94606 297.731 9.94606H292.633V9.97894C293.061 10.3736 293.423 10.9656 293.423 11.6891V20.3055H294.87C296.909 20.3055 298.783 19.9767 298.783 16.8195V15.6684H299.112V26.2252Z" fill="#62353E"/>
<path d="M72.5308 37.6042H306.742V38.1633H72.5308V37.6042Z" fill="#62353E"/>
<path d="M72.8596 33H72.5589V33.3008H72.8596V33ZM72.8596 32.6711V32.3703H72.5589V32.6711H72.8596ZM75.6879 30.3361L75.988 30.3576L75.9883 30.3512L75.6879 30.3361ZM76.6417 11.3602L76.9421 11.3753L76.9424 11.3678V11.3602H76.6417ZM73.3858 9.61718H73.0851V9.91796H73.3858V9.61718ZM73.3858 9.3212V9.02042H73.0851V9.3212H73.3858ZM78.7136 9.3212L78.9829 9.18725L78.8999 9.02042H78.7136V9.3212ZM88.0864 28.1656L87.8171 28.2995L87.8174 28.3001L88.0864 28.1656ZM88.6455 29.5797H88.3447V29.8805H88.6455V29.5797ZM88.8099 29.5797V29.8805H89.1107V29.5797H88.8099ZM89.3032 28.1656L89.0339 28.0316L89.0307 28.0384L89.3032 28.1656ZM98.6761 9.3212V9.02042H98.4898L98.4068 9.18725L98.6761 9.3212ZM104.102 9.3212H104.403V9.02042H104.102V9.3212ZM104.102 9.61718V9.91796H104.403V9.61718H104.102ZM100.88 11.9522H100.578L100.579 11.9662L100.88 11.9522ZM101.735 30.3361L102.035 30.3256L102.035 30.3222L101.735 30.3361ZM104.826 32.6711H105.127V32.3703H104.826V32.6711ZM104.826 32.9671V33.2679H105.127V32.9671H104.826ZM95.3874 32.9671H95.0866V33.2679H95.3874V32.9671ZM95.3874 32.6711V32.3703H95.0866V32.6711H95.3874ZM98.9392 30.8294H99.2402L99.2397 30.8169L98.9392 30.8294ZM98.2157 13.4979L98.5162 13.4853L98.516 13.4812L98.2157 13.4979ZM98.1828 12.0508H98.4836V11.7501H98.1828V12.0508ZM97.9526 12.0508V11.7501H97.6518V12.0508H97.9526ZM97.3935 13.3992L97.6632 13.5325L97.6651 13.5285L97.3935 13.3992ZM87.6589 33.0987L87.3892 32.9654L87.3856 32.9727L87.3824 32.9802L87.6589 33.0987ZM87.5602 33.3289V33.6297H87.7586L87.8367 33.4474L87.5602 33.3289ZM87.4616 33.3289L87.1851 33.4474L87.2632 33.6297H87.4616V33.3289ZM87.3629 33.0987L87.6394 32.9802L87.636 32.9724L87.6323 32.9649L87.3629 33.0987ZM77.7598 13.761L77.4853 13.8845L77.4904 13.8948L77.7598 13.761ZM77.3652 12.3797H77.666V12.0789H77.3652V12.3797ZM77.2336 12.3797V12.0789H76.9329V12.3797H77.2336ZM77.2007 13.4979L76.9004 13.4812L76.9004 13.4819L77.2007 13.4979ZM76.2799 30.7637L75.9796 30.7477L75.9791 30.7557V30.7637H76.2799ZM79.8317 32.704H80.1325V32.4032H79.8317V32.704ZM79.8317 33V33.3008H80.1325V33H79.8317ZM73.1604 33V32.6711H72.5589V33H73.1604ZM72.8596 32.9719H73.4516V32.3703H72.8596V32.9719ZM73.4516 32.9719C74.3721 32.9719 75.0275 32.8561 75.4365 32.3934C75.6378 32.1657 75.7566 31.8785 75.8348 31.5469C75.9126 31.2168 75.9549 30.8204 75.9879 30.3576L75.3879 30.3147C75.3552 30.7727 75.3153 31.1286 75.2492 31.4089C75.1835 31.6878 75.0968 31.8693 74.9857 31.9951C74.7697 32.2395 74.3728 32.3703 73.4516 32.3703V32.9719ZM75.9883 30.3512L76.9421 11.3753L76.3413 11.3451L75.3875 30.321L75.9883 30.3512ZM76.9424 11.3602V10.6696H76.3409V11.3602H76.9424ZM76.9424 10.6696C76.9424 10.2745 76.886 9.86734 76.4951 9.60884C76.318 9.49171 76.0945 9.42138 75.8297 9.37836C75.5633 9.33509 75.2347 9.31641 74.8329 9.31641V9.91796C75.2203 9.91796 75.5125 9.93628 75.7332 9.97214C75.9556 10.0083 76.0856 10.0592 76.1633 10.1106C76.2822 10.1892 76.3409 10.3083 76.3409 10.6696H76.9424ZM74.8329 9.31641H73.3858V9.91796H74.8329V9.31641ZM73.6866 9.61718V9.3212H73.0851V9.61718H73.6866ZM73.3858 9.62198H78.7136V9.02042H73.3858V9.62198ZM78.4443 9.45515L87.8171 28.2995L88.3557 28.0316L78.9829 9.18725L78.4443 9.45515ZM87.8174 28.3001C87.9796 28.6245 88.1155 28.9207 88.21 29.157C88.2574 29.2754 88.2928 29.3749 88.3159 29.4532C88.3275 29.4923 88.3352 29.5234 88.3398 29.547C88.3447 29.5721 88.3447 29.5816 88.3447 29.5797H88.9463C88.9463 29.4849 88.9211 29.3783 88.8928 29.2828C88.8625 29.1802 88.8199 29.0619 88.7686 28.9336C88.6658 28.6766 88.5221 28.3644 88.3554 28.0311L87.8174 28.3001ZM88.6455 29.8805H88.8099V29.2789H88.6455V29.8805ZM89.1107 29.5797C89.1107 29.5833 89.1107 29.5721 89.117 29.5395C89.1228 29.5098 89.1319 29.4713 89.1448 29.4243C89.1704 29.3304 89.208 29.2134 89.2538 29.084C89.3454 28.8251 89.4652 28.5299 89.5758 28.2928L89.0307 28.0384C88.9111 28.2946 88.7842 28.6078 88.6867 28.8833C88.638 29.0211 88.5954 29.1528 88.5645 29.2655C88.5366 29.3677 88.5092 29.4854 88.5092 29.5797H89.1107ZM89.5726 28.2995L98.9454 9.45515L98.4068 9.18725L89.0339 28.0316L89.5726 28.2995ZM98.6761 9.62198H104.102V9.02042H98.6761V9.62198ZM103.802 9.3212V9.61718H104.403V9.3212H103.802ZM104.102 9.31641H102.886V9.91796H104.102V9.31641ZM102.886 9.31641C101.993 9.31641 101.383 9.43534 101.006 9.75307C100.608 10.0889 100.546 10.5769 100.546 11.0642H101.147C101.147 10.5979 101.217 10.3623 101.394 10.213C101.593 10.0457 102.003 9.91796 102.886 9.91796V9.31641ZM100.546 11.0642C100.546 11.206 100.555 11.3551 100.563 11.5002C100.571 11.6483 100.579 11.797 100.579 11.9522H101.18C101.18 11.7785 101.172 11.6147 101.163 11.4668C101.155 11.3159 101.147 11.1856 101.147 11.0642H100.546ZM100.579 11.9662L101.434 30.3501L102.035 30.3222L101.18 11.9382L100.579 11.9662ZM101.434 30.3467C101.451 30.8177 101.48 31.22 101.55 31.5539C101.621 31.8901 101.739 32.181 101.949 32.41C102.368 32.8673 103.06 32.9719 104.037 32.9719V32.3703C103.04 32.3703 102.614 32.2447 102.392 32.0032C102.281 31.8828 102.197 31.7071 102.139 31.4297C102.08 31.15 102.052 30.7918 102.035 30.3256L101.434 30.3467ZM104.037 32.9719H104.826V32.3703H104.037V32.9719ZM104.525 32.6711V32.9671H105.127V32.6711H104.525ZM104.826 32.6663H95.3874V33.2679H104.826V32.6663ZM95.6882 32.9671V32.6711H95.0866V32.9671H95.6882ZM95.3874 32.9719H96.7029V32.3703H95.3874V32.9719ZM96.7029 32.9719C97.6935 32.9719 98.3391 32.8524 98.7352 32.571C99.1707 32.2616 99.24 31.8106 99.24 31.3885H98.6384C98.6384 31.7557 98.5762 31.946 98.3868 32.0806C98.158 32.2432 97.6854 32.3703 96.7029 32.3703V32.9719ZM99.24 31.3885V30.8294H98.6384V31.3885H99.24ZM99.2397 30.8169L98.5162 13.4853L97.9152 13.5104L98.6387 30.842L99.2397 30.8169ZM98.516 13.4812C98.4836 12.8983 98.4836 12.4122 98.4836 12.0508H97.882C97.882 12.413 97.882 12.9136 97.9154 13.5146L98.516 13.4812ZM98.1828 11.7501H97.9526V12.3516H98.1828V11.7501ZM97.6518 12.0508C97.6518 12.0206 97.6579 12.0071 97.6514 12.0315C97.6471 12.0477 97.6394 12.0726 97.6273 12.1075C97.6033 12.1768 97.5667 12.2715 97.5184 12.388C97.4223 12.6204 97.2848 12.9279 97.1219 13.2699L97.6651 13.5285C97.8311 13.1799 97.9731 12.8625 98.0743 12.618C98.1247 12.4962 98.1662 12.3894 98.1957 12.3045C98.2103 12.2623 98.2232 12.2221 98.2327 12.1861C98.2401 12.1583 98.2534 12.1057 98.2534 12.0508H97.6518ZM97.1239 13.266L87.3892 32.9654L87.9285 33.2319L97.6632 13.5325L97.1239 13.266ZM87.3824 32.9802L87.2838 33.2104L87.8367 33.4474L87.9353 33.2171L87.3824 32.9802ZM87.5602 33.0281H87.4616V33.6297H87.5602V33.0281ZM87.738 33.2104L87.6394 32.9802L87.0864 33.2171L87.1851 33.4474L87.738 33.2104ZM87.6323 32.9649L78.0292 13.6272L77.4904 13.8948L87.0935 33.2324L87.6323 32.9649ZM78.0341 13.6375C77.8952 13.3288 77.8019 13.0262 77.7436 12.7889C77.7145 12.6705 77.6944 12.5699 77.6819 12.4949C77.668 12.4123 77.666 12.3768 77.666 12.3797H77.0644C77.0644 12.4682 77.0972 12.6795 77.1594 12.9325C77.2244 13.1968 77.3285 13.5354 77.4855 13.8844L78.0341 13.6375ZM77.3652 12.0789H77.2336V12.6805H77.3652V12.0789ZM76.9329 12.3797C76.9329 12.6716 76.9329 12.896 76.9004 13.4812L77.5011 13.5146C77.5343 12.9158 77.5344 12.6798 77.5344 12.3797H76.9329ZM76.9004 13.4819L75.9796 30.7477L76.5803 30.7797L77.5011 13.5139L76.9004 13.4819ZM75.9791 30.7637C75.9791 30.9013 75.9715 31.0327 75.9633 31.1642C75.9553 31.2923 75.9462 31.4263 75.9462 31.553H76.5478C76.5478 31.4494 76.5552 31.3368 76.5637 31.2017C76.5719 31.0702 76.5807 30.922 76.5807 30.7637H75.9791ZM75.9462 31.553C75.9462 31.7642 75.9651 31.9808 76.0461 32.1794C76.1313 32.3884 76.2771 32.5579 76.4944 32.6844C76.7031 32.8059 76.9701 32.8836 77.2987 32.9326C77.6292 32.982 78.0404 33.0048 78.5491 33.0048V32.4032C78.0548 32.4032 77.6767 32.3808 77.3875 32.3377C77.0963 32.2942 76.9132 32.2322 76.7971 32.1645C76.6897 32.102 76.6361 32.0331 76.6031 31.9522C76.5659 31.861 76.5478 31.7364 76.5478 31.553H75.9462ZM78.5491 33.0048H79.8317V32.4032H78.5491V33.0048ZM79.5309 32.704V33H80.1325V32.704H79.5309ZM79.8317 32.6992H72.8596V33.3008H79.8317V32.6992ZM117.494 26.2252V26.526H117.795V26.2252H117.494ZM117.165 26.2252H116.864V26.526H117.165V26.2252ZM111.804 20.8975V20.5967H111.503V20.8975H111.804ZM111.015 32.3751L110.811 32.1541L110.714 32.2435V32.3751H111.015ZM111.015 32.408H110.714V32.7088H111.015V32.408ZM123.611 27.9683L123.311 27.942L123.311 27.9433L123.611 27.9683ZM123.841 25.3373V25.0365H123.565L123.541 25.3111L123.841 25.3373ZM124.4 25.3373L124.7 25.3583L124.723 25.0365H124.4V25.3373ZM123.775 34.2497L123.742 34.5487L124.053 34.5832L124.075 34.2708L123.775 34.2497ZM123.479 34.2168L123.179 34.1973L123.16 34.484L123.446 34.5158L123.479 34.2168ZM123.578 32.704L123.878 32.7236L123.899 32.4032H123.578V32.704ZM123.545 32.704V32.4032H123.432L123.347 32.4777L123.545 32.704ZM105.819 33H105.518V33.3008H105.819V33ZM105.819 32.704V32.4032H105.518V32.704H105.819ZM105.819 9.65007H105.518V9.95085H105.819V9.65007ZM105.819 9.35409V9.05331H105.518V9.35409H105.819ZM121.572 9.65007L121.359 9.86275L121.447 9.95085H121.572V9.65007ZM121.638 9.65007V9.95085H121.966L121.937 9.62401L121.638 9.65007ZM121.506 8.13726L121.476 7.83797L121.181 7.86752L121.206 8.16331L121.506 8.13726ZM121.835 8.10437L122.135 8.08223L122.112 7.77437L121.805 7.80509L121.835 8.10437ZM122.493 17.0168V17.3176H122.816L122.793 16.9947L122.493 17.0168ZM121.835 17.0168L121.535 17.034L121.551 17.3176H121.835V17.0168ZM121.703 14.7147L122.004 14.6975L122.003 14.6952L121.703 14.7147ZM111.015 9.94606V9.64528H110.714V9.94606H111.015ZM111.015 9.97894H110.714V10.1106L110.811 10.2L111.015 9.97894ZM111.804 20.3055H111.503V20.6063H111.804V20.3055ZM117.165 15.6684V15.3677H116.864V15.6684H117.165ZM117.494 15.6684H117.795V15.3677H117.494V15.6684ZM117.494 25.9245H117.165V26.526H117.494V25.9245ZM117.466 26.2252V24.4164H116.864V26.2252H117.466ZM117.466 24.4164C117.466 22.7768 116.975 21.7829 116.14 21.2232C115.334 20.6829 114.272 20.5967 113.251 20.5967V21.1983C114.27 21.1983 115.164 21.293 115.805 21.7229C116.417 22.1333 116.864 22.8989 116.864 24.4164H117.466ZM113.251 20.5967H111.804V21.1983H113.251V20.5967ZM111.503 20.8975V30.665H112.105V20.8975H111.503ZM111.503 30.665C111.503 31.2836 111.194 31.8004 110.811 32.1541L111.219 32.5962C111.691 32.1606 112.105 31.4935 112.105 30.665H111.503ZM110.714 32.3751V32.408H111.316V32.3751H110.714ZM111.015 32.7088H118.217V32.1073H111.015V32.7088ZM118.217 32.7088C119.989 32.7088 121.354 32.3845 122.312 31.6055C123.279 30.8197 123.775 29.6179 123.911 27.9932L123.311 27.9433C123.183 29.4758 122.726 30.4938 121.933 31.1387C121.132 31.7902 119.932 32.1073 118.217 32.1073V32.7088ZM123.91 27.9945L124.141 25.3635L123.541 25.3111L123.311 27.942L123.91 27.9945ZM123.841 25.6381H124.4V25.0365H123.841V25.6381ZM124.1 25.3162L123.475 34.2287L124.075 34.2708L124.7 25.3583L124.1 25.3162ZM123.808 33.9508L123.512 33.9179L123.446 34.5158L123.742 34.5487L123.808 33.9508ZM123.779 34.2364L123.878 32.7236L123.278 32.6844L123.179 34.1973L123.779 34.2364ZM123.578 32.4032H123.545V33.0048H123.578V32.4032ZM123.347 32.4777C123.272 32.543 123.142 32.6027 122.936 32.6432C122.733 32.683 122.484 32.6992 122.197 32.6992V33.3008C122.501 33.3008 122.794 33.2841 123.052 33.2335C123.306 33.1835 123.555 33.0952 123.743 32.9304L123.347 32.4777ZM122.197 32.6992H105.819V33.3008H122.197V32.6992ZM106.12 33V32.704H105.518V33H106.12ZM105.819 33.0048H107.069V32.4032H105.819V33.0048ZM107.069 33.0048C107.504 33.0048 107.864 32.9949 108.152 32.951C108.441 32.9071 108.696 32.8243 108.893 32.6489C109.094 32.4696 109.193 32.2296 109.246 31.9562C109.298 31.6879 109.31 31.356 109.31 30.961H108.708C108.708 31.3553 108.695 31.6359 108.655 31.8424C108.617 32.0438 108.558 32.1409 108.492 32.2001C108.421 32.2631 108.3 32.32 108.062 32.3563C107.823 32.3926 107.504 32.4032 107.069 32.4032V33.0048ZM109.31 30.961V11.3931H108.708V30.961H109.31ZM109.31 11.3931C109.31 10.9981 109.298 10.6662 109.246 10.3979C109.193 10.1245 109.094 9.88448 108.893 9.70519C108.696 9.5298 108.441 9.44694 108.152 9.40307C107.864 9.35921 107.504 9.34929 107.069 9.34929V9.95085C107.504 9.95085 107.823 9.96149 108.062 9.99779C108.3 10.0341 108.421 10.091 108.492 10.154C108.558 10.2132 108.617 10.3102 108.655 10.5117C108.695 10.7181 108.708 10.9988 108.708 11.3931H109.31ZM107.069 9.34929H105.819V9.95085H107.069V9.34929ZM106.12 9.65007V9.35409H105.518V9.65007H106.12ZM105.819 9.65486H120.256V9.05331H105.819V9.65486ZM120.256 9.65486C120.527 9.65486 120.776 9.67099 120.979 9.71089C121.192 9.7526 121.308 9.81193 121.359 9.86275L121.784 9.43739C121.605 9.258 121.343 9.16934 121.095 9.12061C120.838 9.07007 120.545 9.05331 120.256 9.05331V9.65486ZM121.572 9.95085H121.638V9.34929H121.572V9.95085ZM121.937 9.62401L121.806 8.1112L121.206 8.16331L121.338 9.67613L121.937 9.62401ZM121.536 8.43654L121.865 8.40366L121.805 7.80509L121.476 7.83797L121.536 8.43654ZM121.535 8.12651L122.193 17.0389L122.793 16.9947L122.135 8.08223L121.535 8.12651ZM122.493 16.716H121.835V17.3176H122.493V16.716ZM122.135 16.9996L122.004 14.6975L121.403 14.7319L121.535 17.034L122.135 16.9996ZM122.003 14.6952C121.885 12.8709 121.34 11.5837 120.317 10.7638C119.304 9.952 117.881 9.64528 116.112 9.64528V10.2468C117.83 10.2468 119.087 10.5485 119.941 11.2331C120.784 11.9096 121.291 13.0067 121.403 14.7342L122.003 14.6952ZM116.112 9.64528H111.015V10.2468H116.112V9.64528ZM110.714 9.94606V9.97894H111.316V9.94606H110.714ZM110.811 10.2C111.194 10.5537 111.503 11.0705 111.503 11.6891H112.105C112.105 10.8606 111.691 10.1935 111.219 9.75793L110.811 10.2ZM111.503 11.6891V20.3055H112.105V11.6891H111.503ZM111.804 20.6063H113.251V20.0048H111.804V20.6063ZM113.251 20.6063C114.27 20.6063 115.332 20.5289 116.138 19.9976C116.975 19.4461 117.466 18.4591 117.466 16.8195H116.864C116.864 18.337 116.418 19.093 115.807 19.4953C115.166 19.9178 114.272 20.0048 113.251 20.0048V20.6063ZM117.466 16.8195V15.6684H116.864V16.8195H117.466ZM117.165 15.9692H117.494V15.3677H117.165V15.9692ZM117.193 15.6684V26.2252H117.795V15.6684H117.193ZM125.795 33H125.494V33.3008H125.795V33ZM125.795 32.704V32.4032H125.494V32.704H125.795ZM125.795 9.65007H125.494V9.95085H125.795V9.65007ZM125.795 9.35409V9.05331H125.494V9.35409H125.795ZM134.675 9.35409H134.976V9.05331H134.675V9.35409ZM134.675 9.65007V9.95085H134.976V9.65007H134.675ZM131.781 20.2726H131.48V20.5734H131.781V20.2726ZM141.713 20.2726V20.5734H142.013V20.2726H141.713ZM138.819 9.65007H138.518V9.95085H138.819V9.65007ZM138.819 9.35409V9.05331H138.518V9.35409H138.819ZM147.731 9.35409H148.032V9.05331H147.731V9.35409ZM147.731 9.65007V9.95085H148.032V9.65007H147.731ZM147.731 32.704H148.032V32.4032H147.731V32.704ZM147.731 33V33.3008H148.032V33H147.731ZM138.819 33H138.518V33.3008H138.819V33ZM138.819 32.704V32.4032H138.518V32.704H138.819ZM141.713 20.8646H142.013V20.5638H141.713V20.8646ZM131.781 20.8646V20.5638H131.48V20.8646H131.781ZM134.675 32.704H134.976V32.4032H134.675V32.704ZM134.675 33V33.3008H134.976V33H134.675ZM126.096 33V32.704H125.494V33H126.096ZM125.795 33.0048H127.045V32.4032H125.795V33.0048ZM127.045 33.0048C127.91 33.0048 128.532 32.8995 128.897 32.472C129.079 32.2593 129.173 31.995 129.224 31.7007C129.274 31.4084 129.286 31.0617 129.286 30.665H128.684C128.684 31.0576 128.672 31.3604 128.631 31.5984C128.59 31.8345 128.525 31.9813 128.44 32.081C128.271 32.2783 127.923 32.4032 127.045 32.4032V33.0048ZM129.286 30.665V11.6891H128.684V30.665H129.286ZM129.286 11.6891C129.286 11.2924 129.274 10.9457 129.224 10.6534C129.173 10.3591 129.079 10.0948 128.897 9.88211C128.532 9.45461 127.91 9.34929 127.045 9.34929V9.95085C127.923 9.95085 128.271 10.0757 128.44 10.2731C128.525 10.3728 128.59 10.5196 128.631 10.7556C128.672 10.9937 128.684 11.2965 128.684 11.6891H129.286ZM127.045 9.34929H125.795V9.95085H127.045V9.34929ZM126.096 9.65007V9.35409H125.494V9.65007H126.096ZM125.795 9.65486H134.675V9.05331H125.795V9.65486ZM134.374 9.35409V9.65007H134.976V9.35409H134.374ZM134.675 9.34929H133.754V9.95085H134.675V9.34929ZM133.754 9.34929C132.888 9.34929 132.261 9.45519 131.888 9.8787C131.701 10.0903 131.603 10.3542 131.548 10.6501C131.494 10.9436 131.48 11.2912 131.48 11.6891H132.081C132.081 11.2976 132.096 10.9958 132.14 10.759C132.183 10.5246 132.25 10.3773 132.339 10.2765C132.517 10.0752 132.877 9.95085 133.754 9.95085V9.34929ZM131.48 11.6891V20.2726H132.081V11.6891H131.48ZM131.781 20.5734H141.713V19.9719H131.781V20.5734ZM142.013 20.2726V11.6891H141.412V20.2726H142.013ZM142.013 11.6891C142.013 11.2912 141.999 10.9436 141.945 10.6501C141.891 10.3542 141.792 10.0903 141.605 9.8787C141.232 9.45519 140.606 9.34929 139.739 9.34929V9.95085C140.616 9.95085 140.977 10.0752 141.154 10.2765C141.243 10.3773 141.31 10.5246 141.354 10.759C141.397 10.9958 141.412 11.2976 141.412 11.6891H142.013ZM139.739 9.34929H138.819V9.95085H139.739V9.34929ZM139.119 9.65007V9.35409H138.518V9.65007H139.119ZM138.819 9.65486H147.731V9.05331H138.819V9.65486ZM147.43 9.35409V9.65007H148.032V9.35409H147.43ZM147.731 9.34929H146.448V9.95085H147.731V9.34929ZM146.448 9.34929C145.585 9.34929 144.967 9.454 144.609 9.88565C144.432 10.0994 144.344 10.3642 144.297 10.6568C144.25 10.9477 144.24 11.2936 144.24 11.6891H144.842C144.842 11.2953 144.852 10.9916 144.891 10.7523C144.929 10.5146 144.991 10.3682 145.073 10.2696C145.233 10.0764 145.569 9.95085 146.448 9.95085V9.34929ZM144.24 11.6891V30.665H144.842V11.6891H144.24ZM144.24 30.665C144.24 31.0605 144.25 31.4063 144.297 31.6973C144.344 31.9899 144.432 32.2547 144.609 32.4684C144.967 32.9001 145.585 33.0048 146.448 33.0048V32.4032C145.569 32.4032 145.233 32.2777 145.073 32.0845C144.991 31.9859 144.929 31.8395 144.891 31.6018C144.852 31.3625 144.842 31.0588 144.842 30.665H144.24ZM146.448 33.0048H147.731V32.4032H146.448V33.0048ZM147.43 32.704V33H148.032V32.704H147.43ZM147.731 32.6992H138.819V33.3008H147.731V32.6992ZM139.119 33V32.704H138.518V33H139.119ZM138.819 33.0048H139.805V32.4032H138.819V33.0048ZM139.805 33.0048C140.655 33.0048 141.269 32.8992 141.63 32.4702C141.809 32.2576 141.901 31.9938 141.952 31.7001C142.001 31.4082 142.013 31.0618 142.013 30.665H141.412C141.412 31.0575 141.399 31.3606 141.359 31.599C141.318 31.8356 141.254 31.9829 141.17 32.0827C141.005 32.2786 140.666 32.4032 139.805 32.4032V33.0048ZM142.013 30.665V20.8646H141.412V30.665H142.013ZM141.713 20.5638H131.781V21.1654H141.713V20.5638ZM131.48 20.8646V30.665H132.081V20.8646H131.48ZM131.48 30.665C131.48 31.0629 131.494 31.4105 131.548 31.704C131.603 31.9999 131.701 32.2638 131.888 32.4754C132.261 32.8989 132.888 33.0048 133.754 33.0048V32.4032C132.877 32.4032 132.517 32.2789 132.339 32.0776C132.25 31.9768 132.183 31.8295 132.14 31.5951C132.096 31.3583 132.081 31.0564 132.081 30.665H131.48ZM133.754 33.0048H134.675V32.4032H133.754V33.0048ZM134.374 32.704V33H134.976V32.704H134.374ZM134.675 32.6992H125.795V33.3008H134.675V32.6992ZM152.041 33H151.74V33.3008H152.041V33ZM152.041 32.704V32.4032H151.74V32.704H152.041ZM156.711 9.94606H157.012V9.64528H156.711V9.94606ZM149.673 13.7281L149.973 13.7573L149.974 13.7437L149.673 13.7281ZM149.542 15.0765L149.527 15.3769L149.813 15.3912L149.841 15.1057L149.542 15.0765ZM148.884 15.0436L148.584 15.0216L148.561 15.3286L148.869 15.344L148.884 15.0436ZM149.443 7.41374L149.468 7.114L149.165 7.08877L149.143 7.39176L149.443 7.41374ZM149.838 7.44663L150.137 7.47246L150.163 7.17194L149.863 7.14689L149.838 7.44663ZM149.673 9.35409L149.373 9.32825L149.345 9.65486H149.673V9.35409ZM166.511 9.35409V9.65486H166.84L166.811 9.3278L166.511 9.35409ZM166.347 7.47951L166.322 7.17978L166.021 7.20486L166.047 7.5058L166.347 7.47951ZM166.742 7.44663L167.042 7.42584L167.021 7.12156L166.717 7.14689L166.742 7.44663ZM167.268 15.0436L167.283 15.344L167.589 15.3287L167.568 15.0228L167.268 15.0436ZM166.61 15.0765L166.31 15.0984L166.332 15.3915L166.625 15.3769L166.61 15.0765ZM166.511 13.7281L166.811 13.7061L166.811 13.7031L166.511 13.7281ZM159.539 9.94606V9.64528H159.239V9.94606H159.539ZM164.144 32.704H164.444V32.4032H164.144V32.704ZM164.144 33V33.3008H164.444V33H164.144ZM152.342 33V32.704H151.74V33H152.342ZM152.041 33.0048H154.804V32.4032H152.041V33.0048ZM154.804 33.0048C155.239 33.0048 155.597 32.9949 155.883 32.9509C156.169 32.9069 156.421 32.8236 156.615 32.6458C156.811 32.4647 156.905 32.2236 156.954 31.9525C157.002 31.6857 157.012 31.3548 157.012 30.961H156.41C156.41 31.3564 156.399 31.6381 156.362 31.8461C156.325 32.0498 156.27 32.1458 156.207 32.2032C156.141 32.2638 156.026 32.3202 155.791 32.3564C155.556 32.3926 155.24 32.4032 154.804 32.4032V33.0048ZM157.012 30.961V9.94606H156.41V30.961H157.012ZM156.711 9.64528H154.54V10.2468H156.711V9.64528ZM154.54 9.64528C152.804 9.64528 151.533 9.79482 150.685 10.4095C149.809 11.0436 149.456 12.1105 149.373 13.7124L149.974 13.7437C150.055 12.1885 150.392 11.3644 151.038 10.8967C151.71 10.4097 152.791 10.2468 154.54 10.2468V9.64528ZM149.374 13.6989L149.242 15.0473L149.841 15.1057L149.972 13.7573L149.374 13.6989ZM149.557 14.7761L148.899 14.7432L148.869 15.344L149.527 15.3769L149.557 14.7761ZM149.184 15.0656L149.743 7.43572L149.143 7.39176L148.584 15.0216L149.184 15.0656ZM149.418 7.71348L149.813 7.74637L149.863 7.14689L149.468 7.114L149.418 7.71348ZM149.538 7.42079L149.373 9.32825L149.973 9.37992L150.137 7.47246L149.538 7.42079ZM149.673 9.65486H166.511V9.05331H149.673V9.65486ZM166.811 9.3278L166.647 7.45323L166.047 7.5058L166.212 9.38037L166.811 9.3278ZM166.372 7.77925L166.767 7.74637L166.717 7.14689L166.322 7.17978L166.372 7.77925ZM166.442 7.46741L166.968 15.0644L167.568 15.0228L167.042 7.42584L166.442 7.46741ZM167.253 14.7432L166.595 14.7761L166.625 15.3769L167.283 15.344L167.253 14.7432ZM166.91 15.0545L166.811 13.7061L166.211 13.75L166.31 15.0984L166.91 15.0545ZM166.811 13.7031C166.678 12.1051 166.315 11.0425 165.452 10.4105C164.611 9.79489 163.365 9.64528 161.644 9.64528V10.2468C163.377 10.2468 164.432 10.4097 165.096 10.8958C165.738 11.3655 166.082 12.1939 166.212 13.7531L166.811 13.7031ZM161.644 9.64528H159.539V10.2468H161.644V9.64528ZM159.239 9.94606V30.961H159.84V9.94606H159.239ZM159.239 30.961C159.239 31.3548 159.248 31.6857 159.296 31.9525C159.345 32.2236 159.439 32.4647 159.636 32.6458C159.829 32.8236 160.082 32.9069 160.368 32.9509C160.653 32.9949 161.011 33.0048 161.447 33.0048V32.4032C161.011 32.4032 160.694 32.3926 160.459 32.3564C160.224 32.3202 160.109 32.2638 160.043 32.2032C159.981 32.1458 159.925 32.0498 159.888 31.8461C159.851 31.6381 159.84 31.3564 159.84 30.961H159.239ZM161.447 33.0048H164.144V32.4032H161.447V33.0048ZM163.843 32.704V33H164.444V32.704H163.843ZM164.144 32.6992H152.041V33.3008H164.144V32.6992ZM165.547 33H165.246V33.3008H165.547V33ZM165.547 32.704V32.4032H165.246V32.704H165.547ZM168.112 30.665L168.381 30.7995L168.384 30.7945L168.112 30.665ZM178.274 9.35409V9.05331H178.084L178.003 9.22462L178.274 9.35409ZM181.07 9.35409H181.37V9.05331H181.07V9.35409ZM181.399 11.6562L181.673 11.5331L181.668 11.5217L181.399 11.6562ZM189.916 30.665L189.642 30.788L189.643 30.7903L189.916 30.665ZM192.35 32.704H192.651V32.4032H192.35V32.704ZM192.35 33V33.3008H192.651V33H192.35ZM185.444 33H185.143V33.3008H185.444V33ZM185.444 32.704V32.4032H185.143V32.704H185.444ZM188.206 32.704V33.0048H188.507V32.704H188.206ZM188.206 32.6382H188.507V32.4215L188.301 32.3529L188.206 32.6382ZM187.088 31.0925L186.813 31.2149L186.816 31.2206L187.088 31.0925ZM185.082 26.587L185.357 26.4646L185.277 26.2862H185.082V26.587ZM170.743 26.587V26.2862H170.553L170.471 26.4578L170.743 26.587ZM168.803 30.665L168.531 30.5358L168.526 30.5474L168.521 30.5594L168.803 30.665ZM172.124 32.704H172.425V32.4032H172.124V32.704ZM172.124 33V33.3008H172.425V33H172.124ZM171.039 25.995L170.768 25.865L170.561 26.2958H171.039V25.995ZM184.819 25.995V26.2958H185.283L185.093 25.8719L184.819 25.995ZM178.669 12.281L178.944 12.1579L178.938 12.1465L178.669 12.281ZM178.373 10.9656H178.674V10.6648H178.373V10.9656ZM178.044 10.9656V10.6648H177.743V10.9656H178.044ZM177.616 12.281L177.888 12.4111L177.888 12.4104L177.616 12.281ZM165.848 33V32.704H165.246V33H165.848ZM165.547 33.0048H166.106V32.4032H165.547V33.0048ZM166.106 33.0048C166.684 33.0048 167.122 32.7094 167.473 32.2994C167.817 31.8974 168.103 31.3552 168.381 30.7995L167.843 30.5305C167.562 31.0929 167.305 31.5703 167.016 31.9083C166.734 32.2382 166.448 32.4032 166.106 32.4032V33.0048ZM168.384 30.7945L178.546 9.48355L178.003 9.22462L167.841 30.5355L168.384 30.7945ZM178.274 9.65486H181.07V9.05331H178.274V9.65486ZM180.769 9.35409V9.74873H181.37V9.35409H180.769ZM180.769 9.74873C180.769 10.0955 180.803 10.4903 180.863 10.8506C180.922 11.2041 181.01 11.5523 181.129 11.7907L181.668 11.5217C181.589 11.3654 181.513 11.0888 181.457 10.7517C181.402 10.4213 181.37 10.0597 181.37 9.74873H180.769ZM181.124 11.7792L189.642 30.788L190.191 30.542L181.673 11.5332L181.124 11.7792ZM189.643 30.7903C189.821 31.1791 189.969 31.5133 190.107 31.7853C190.245 32.0578 190.383 32.2922 190.553 32.4787C190.919 32.8816 191.374 33.0048 192.054 33.0048V32.4032C191.451 32.4032 191.2 32.2962 190.998 32.0743C190.884 31.9484 190.774 31.7716 190.644 31.5138C190.513 31.2555 190.373 30.9402 190.19 30.5397L189.643 30.7903ZM192.054 33.0048H192.35V32.4032H192.054V33.0048ZM192.049 32.704V33H192.651V32.704H192.049ZM192.35 32.6992H185.444V33.3008H192.35V32.6992ZM185.744 33V32.704H185.143V33H185.744ZM185.444 33.0048H188.206V32.4032H185.444V33.0048ZM188.507 32.704V32.6382H187.905V32.704H188.507ZM188.301 32.3529C188.163 32.3067 187.997 32.1438 187.816 31.854C187.643 31.5769 187.495 31.2516 187.36 30.9645L186.816 31.2206C186.944 31.4926 187.109 31.8579 187.306 32.1728C187.495 32.4749 187.756 32.8053 188.111 32.9236L188.301 32.3529ZM187.363 30.9702L185.357 26.4646L184.807 26.7093L186.813 31.2149L187.363 30.9702ZM185.082 26.2862H170.743V26.8878H185.082V26.2862ZM170.471 26.4578L168.531 30.5358L169.074 30.7942L171.015 26.7162L170.471 26.4578ZM168.521 30.5594C168.429 30.8058 168.305 31.1251 168.305 31.4214H168.906C168.906 31.2573 168.979 31.0504 169.084 30.7706L168.521 30.5594ZM168.305 31.4214C168.305 31.8963 168.515 32.305 168.889 32.5866C169.255 32.8626 169.761 33.0048 170.348 33.0048V32.4032C169.851 32.4032 169.485 32.2823 169.251 32.1061C169.024 31.9355 168.906 31.7029 168.906 31.4214H168.305ZM170.348 33.0048H172.124V32.4032H170.348V33.0048ZM171.824 32.704V33H172.425V32.704H171.824ZM172.124 32.6992H165.547V33.3008H172.124V32.6992ZM171.039 26.2958H184.819V25.6942H171.039V26.2958ZM185.093 25.8719L178.943 12.158L178.394 12.4041L184.544 26.1181L185.093 25.8719ZM178.938 12.1465C178.703 11.6772 178.674 11.3011 178.674 10.9656H178.072C178.072 11.3535 178.108 11.8325 178.4 12.4156L178.938 12.1465ZM178.373 10.6648H178.044V11.2663H178.373V10.6648ZM177.743 10.9656C177.743 11.0936 177.669 11.471 177.345 12.1517L177.888 12.4104C178.222 11.7098 178.345 11.2322 178.345 10.9656H177.743ZM177.345 12.151L170.768 25.865L171.31 26.1251L177.888 12.4111L177.345 12.151ZM195.652 9.35409V9.05331H195.351V9.35409H195.652ZM214.694 9.35409H214.995V9.05331H214.694V9.35409ZM214.694 9.65007V9.95085H214.995V9.65007H214.694ZM214.694 32.704H214.995V32.4032H214.694V32.704ZM214.694 33V33.3008H214.995V33H214.694ZM205.781 33H205.481V33.3008H205.781V33ZM205.781 32.704V32.4032H205.481V32.704H205.781ZM208.675 9.94606H208.976V9.64528H208.675V9.94606ZM200.19 9.94606V9.64528H199.89V9.94606H200.19ZM195.027 34.1839L194.81 34.3917L194.995 34.5856L195.209 34.4238L195.027 34.1839ZM192.922 31.9805L192.736 31.7445L192.477 31.9493L192.705 32.1883L192.922 31.9805ZM199.27 18.7598L199.57 18.7613V18.7598H199.27ZM195.652 9.65007H195.351V9.95085H195.652V9.65007ZM195.652 9.65486H214.694V9.05331H195.652V9.65486ZM214.393 9.35409V9.65007H214.995V9.35409H214.393ZM214.694 9.34929H213.411V9.95085H214.694V9.34929ZM213.411 9.34929C212.547 9.34929 211.93 9.454 211.572 9.88565C211.395 10.0994 211.307 10.3642 211.26 10.6568C211.213 10.9477 211.203 11.2936 211.203 11.6891H211.804C211.804 11.2953 211.815 10.9916 211.854 10.7523C211.892 10.5146 211.954 10.3682 212.035 10.2696C212.195 10.0764 212.532 9.95085 213.411 9.95085V9.34929ZM211.203 11.6891V30.665H211.804V11.6891H211.203ZM211.203 30.665C211.203 31.0605 211.213 31.4063 211.26 31.6973C211.307 31.9899 211.395 32.2547 211.572 32.4684C211.93 32.9001 212.547 33.0048 213.411 33.0048V32.4032C212.532 32.4032 212.195 32.2777 212.035 32.0845C211.954 31.9859 211.892 31.8395 211.854 31.6018C211.815 31.3625 211.804 31.0588 211.804 30.665H211.203ZM213.411 33.0048H214.694V32.4032H213.411V33.0048ZM214.393 32.704V33H214.995V32.704H214.393ZM214.694 32.6992H205.781V33.3008H214.694V32.6992ZM206.082 33V32.704H205.481V33H206.082ZM205.781 33.0048H206.768V32.4032H205.781V33.0048ZM206.768 33.0048C207.618 33.0048 208.232 32.8992 208.593 32.4702C208.772 32.2576 208.864 31.9938 208.914 31.7001C208.964 31.4082 208.976 31.0618 208.976 30.665H208.375C208.375 31.0575 208.362 31.3606 208.321 31.599C208.281 31.8356 208.217 31.9829 208.133 32.0827C207.968 32.2786 207.628 32.4032 206.768 32.4032V33.0048ZM208.976 30.665V9.94606H208.375V30.665H208.976ZM208.675 9.64528H200.19V10.2468H208.675V9.64528ZM199.89 9.94606V17.9705H200.491V9.94606H199.89ZM199.89 17.9705C199.89 22.3306 199.212 25.8883 198.239 28.5771C197.263 31.2734 195.999 33.0717 194.846 33.9441L195.209 34.4238C196.49 33.4545 197.807 31.5366 198.804 28.7818C199.804 26.0195 200.491 22.3914 200.491 17.9705H199.89ZM195.245 33.9762L193.14 31.7727L192.705 32.1883L194.81 34.3917L195.245 33.9762ZM193.109 32.2165C195.823 30.0721 199.537 25.4218 199.57 18.7613L198.969 18.7583C198.937 25.187 195.35 29.6793 192.736 31.7445L193.109 32.2165ZM199.57 18.7598V12.0837H198.969V18.7598H199.57ZM199.57 12.0837C199.57 11.5081 199.553 11.0415 199.479 10.6732C199.404 10.2986 199.264 9.99147 198.996 9.77115C198.735 9.55714 198.393 9.45901 197.989 9.40817C197.584 9.35715 197.072 9.34929 196.441 9.34929V9.95085C197.077 9.95085 197.552 9.95944 197.914 10.005C198.278 10.0508 198.484 10.1294 198.614 10.2361C198.736 10.3364 198.829 10.4938 198.889 10.7913C198.95 11.0952 198.969 11.5083 198.969 12.0837H199.57ZM196.441 9.34929H195.652V9.95085H196.441V9.34929ZM195.953 9.65007V9.35409H195.351V9.65007H195.953ZM215.978 33H215.677V33.3008H215.978V33ZM215.978 32.6711V32.3703H215.677V32.6711H215.978ZM215.978 9.65007H215.677V9.95085H215.978V9.65007ZM215.978 9.35409V9.05331H215.677V9.35409H215.978ZM225.187 9.35409H225.487V9.05331H225.187V9.35409ZM225.187 9.65007V9.95085H225.487V9.65007H225.187ZM221.964 20.8317H221.663V21.1325H221.964V20.8317ZM221.964 21.3908V21.09H221.663V21.3908H221.964ZM221.372 32.3423L221.168 32.1212L221.071 32.2106V32.3423H221.372ZM221.372 32.408H221.071V32.7088H221.372V32.408ZM216.279 33V32.6711H215.677V33H216.279ZM215.978 32.9719H217.228V32.3703H215.978V32.9719ZM217.228 32.9719C217.663 32.9719 218.023 32.962 218.312 32.9181C218.6 32.8743 218.855 32.7914 219.052 32.616C219.253 32.4367 219.353 32.1967 219.405 31.9233C219.457 31.655 219.469 31.3231 219.469 30.9281H218.867C218.867 31.3224 218.855 31.6031 218.815 31.8095C218.776 32.011 218.718 32.108 218.651 32.1672C218.581 32.2302 218.46 32.2871 218.221 32.3234C217.982 32.3597 217.664 32.3703 217.228 32.3703V32.9719ZM219.469 30.9281V11.3602H218.867V30.9281H219.469ZM219.469 11.3602C219.469 10.9654 219.457 10.6352 219.405 10.3694C219.352 10.0981 219.251 9.86061 219.048 9.6853C218.85 9.51494 218.595 9.43763 218.308 9.39743C218.021 9.35714 217.662 9.34929 217.228 9.34929V9.95085C217.665 9.95085 217.984 9.95944 218.225 9.99315C218.465 10.0269 218.586 10.0812 218.655 10.141C218.719 10.1959 218.776 10.2873 218.815 10.4846C218.855 10.6876 218.867 10.9657 218.867 11.3602H219.469ZM217.228 9.34929H215.978V9.95085H217.228V9.34929ZM216.279 9.65007V9.35409H215.677V9.65007H216.279ZM215.978 9.65486H225.187V9.05331H215.978V9.65486ZM224.886 9.35409V9.65007H225.487V9.35409H224.886ZM225.187 9.34929H223.937V9.95085H225.187V9.34929ZM223.937 9.34929C223.5 9.34929 223.138 9.3613 222.845 9.40865C222.552 9.45611 222.295 9.54397 222.096 9.72199C221.893 9.90352 221.788 10.1451 221.732 10.4227C221.677 10.6951 221.663 11.0296 221.663 11.426H222.264C222.264 11.0331 222.279 10.7509 222.322 10.5424C222.363 10.339 222.425 10.2352 222.497 10.1701C222.574 10.1015 222.701 10.0414 222.941 10.0025C223.182 9.96351 223.502 9.95085 223.937 9.95085V9.34929ZM221.663 11.426V20.8317H222.264V11.426H221.663ZM221.964 21.1325H224.726V20.5309H221.964V21.1325ZM224.726 21.1325C227.449 21.1325 229.688 21.7328 231.236 22.7558C232.777 23.7736 233.634 25.2065 233.634 26.9159H234.235C234.235 24.9748 233.251 23.3656 231.568 22.2539C229.893 21.1475 227.528 20.5309 224.726 20.5309V21.1325ZM233.634 26.9159C233.634 28.6252 232.777 30.0581 231.236 31.0759C229.688 32.0989 227.449 32.6992 224.726 32.6992V33.3008C227.528 33.3008 229.893 32.6843 231.568 31.5778C233.251 30.4661 234.235 28.857 234.235 26.9159H233.634ZM224.726 32.6992H215.978V33.3008H224.726V32.6992ZM221.663 21.3908V30.665H222.264V21.3908H221.663ZM221.663 30.665C221.663 31.3767 221.51 31.8056 221.168 32.1212L221.576 32.5633C222.089 32.0896 222.264 31.4661 222.264 30.665H221.663ZM221.071 32.3423V32.408H221.672V32.3423H221.071ZM221.372 32.7088H224.036V32.1073H221.372V32.7088ZM224.036 32.7088C226.276 32.7088 228.048 32.2248 229.265 31.24C230.492 30.2466 231.111 28.7792 231.111 26.9159H230.51C230.51 28.6372 229.944 29.9159 228.886 30.7724C227.817 31.6376 226.202 32.1073 224.036 32.1073V32.7088ZM231.111 26.9159C231.111 25.0527 230.492 23.5777 229.266 22.5761C228.049 21.5828 226.277 21.09 224.036 21.09V21.6916C226.201 21.6916 227.816 22.169 228.885 23.042C229.944 23.9068 230.51 25.1944 230.51 26.9159H231.111ZM224.036 21.09H221.964V21.6916H224.036V21.09ZM235.216 33H234.915V33.3008H235.216V33ZM235.216 32.704V32.4032H234.915V32.704H235.216ZM235.216 9.65007H234.915V9.95085H235.216V9.65007ZM235.216 9.35409V9.05331H234.915V9.35409H235.216ZM244.095 9.35409H244.396V9.05331H244.095V9.35409ZM244.095 9.65007V9.95085H244.396V9.65007H244.095ZM241.201 20.2726H240.901V20.5734H241.201V20.2726ZM251.133 20.2726V20.5734H251.434V20.2726H251.133ZM248.239 9.65007H247.938V9.95085H248.239V9.65007ZM248.239 9.35409V9.05331H247.938V9.35409H248.239ZM257.152 9.35409H257.452V9.05331H257.152V9.35409ZM257.152 9.65007V9.95085H257.452V9.65007H257.152ZM257.152 32.704H257.452V32.4032H257.152V32.704ZM257.152 33V33.3008H257.452V33H257.152ZM248.239 33H247.938V33.3008H248.239V33ZM248.239 32.704V32.4032H247.938V32.704H248.239ZM251.133 20.8646H251.434V20.5638H251.133V20.8646ZM241.201 20.8646V20.5638H240.901V20.8646H241.201ZM244.095 32.704H244.396V32.4032H244.095V32.704ZM244.095 33V33.3008H244.396V33H244.095ZM235.517 33V32.704H234.915V33H235.517ZM235.216 33.0048H236.466V32.4032H235.216V33.0048ZM236.466 33.0048C237.331 33.0048 237.952 32.8995 238.318 32.472C238.5 32.2593 238.594 31.995 238.644 31.7007C238.695 31.4084 238.707 31.0617 238.707 30.665H238.105C238.105 31.0576 238.093 31.3604 238.051 31.5984C238.011 31.8345 237.946 31.9813 237.861 32.081C237.692 32.2783 237.344 32.4032 236.466 32.4032V33.0048ZM238.707 30.665V11.6891H238.105V30.665H238.707ZM238.707 11.6891C238.707 11.2924 238.695 10.9457 238.644 10.6534C238.594 10.3591 238.5 10.0948 238.318 9.88211C237.952 9.45461 237.331 9.34929 236.466 9.34929V9.95085C237.344 9.95085 237.692 10.0757 237.861 10.2731C237.946 10.3728 238.011 10.5196 238.051 10.7556C238.093 10.9937 238.105 11.2965 238.105 11.6891H238.707ZM236.466 9.34929H235.216V9.95085H236.466V9.34929ZM235.517 9.65007V9.35409H234.915V9.65007H235.517ZM235.216 9.65486H244.095V9.05331H235.216V9.65486ZM243.795 9.35409V9.65007H244.396V9.35409H243.795ZM244.095 9.34929H243.175V9.95085H244.095V9.34929ZM243.175 9.34929C242.308 9.34929 241.682 9.45519 241.309 9.8787C241.122 10.0903 241.023 10.3542 240.969 10.6501C240.915 10.9436 240.901 11.2912 240.901 11.6891H241.502C241.502 11.2976 241.517 10.9958 241.56 10.759C241.604 10.5246 241.671 10.3773 241.76 10.2765C241.937 10.0752 242.298 9.95085 243.175 9.95085V9.34929ZM240.901 11.6891V20.2726H241.502V11.6891H240.901ZM241.201 20.5734H251.133V19.9719H241.201V20.5734ZM251.434 20.2726V11.6891H250.833V20.2726H251.434ZM251.434 11.6891C251.434 11.2912 251.42 10.9436 251.366 10.6501C251.311 10.3542 251.212 10.0903 251.026 9.8787C250.653 9.45519 250.026 9.34929 249.16 9.34929V9.95085C250.037 9.95085 250.397 10.0752 250.575 10.2765C250.664 10.3773 250.731 10.5246 250.774 10.759C250.818 10.9958 250.833 11.2976 250.833 11.6891H251.434ZM249.16 9.34929H248.239V9.95085H249.16V9.34929ZM248.54 9.65007V9.35409H247.938V9.65007H248.54ZM248.239 9.65486H257.152V9.05331H248.239V9.65486ZM256.851 9.35409V9.65007H257.452V9.35409H256.851ZM257.152 9.34929H255.869V9.95085H257.152V9.34929ZM255.869 9.34929C255.005 9.34929 254.388 9.454 254.03 9.88565C253.853 10.0994 253.765 10.3642 253.718 10.6568C253.671 10.9477 253.661 11.2936 253.661 11.6891H254.262C254.262 11.2953 254.273 10.9916 254.311 10.7523C254.35 10.5146 254.411 10.3682 254.493 10.2696C254.653 10.0764 254.99 9.95085 255.869 9.95085V9.34929ZM253.661 11.6891V30.665H254.262V11.6891H253.661ZM253.661 30.665C253.661 31.0605 253.671 31.4063 253.718 31.6973C253.765 31.9899 253.853 32.2547 254.03 32.4684C254.388 32.9001 255.005 33.0048 255.869 33.0048V32.4032C254.99 32.4032 254.653 32.2777 254.493 32.0845C254.411 31.9859 254.35 31.8395 254.311 31.6018C254.273 31.3625 254.262 31.0588 254.262 30.665H253.661ZM255.869 33.0048H257.152V32.4032H255.869V33.0048ZM256.851 32.704V33H257.452V32.704H256.851ZM257.152 32.6992H248.239V33.3008H257.152V32.6992ZM248.54 33V32.704H247.938V33H248.54ZM248.239 33.0048H249.226V32.4032H248.239V33.0048ZM249.226 33.0048C250.076 33.0048 250.69 32.8992 251.051 32.4702C251.23 32.2576 251.322 31.9938 251.372 31.7001C251.422 31.4082 251.434 31.0618 251.434 30.665H250.833C250.833 31.0575 250.82 31.3606 250.779 31.599C250.739 31.8356 250.675 31.9829 250.591 32.0827C250.426 32.2786 250.086 32.4032 249.226 32.4032V33.0048ZM251.434 30.665V20.8646H250.833V30.665H251.434ZM251.133 20.5638H241.201V21.1654H251.133V20.5638ZM240.901 20.8646V30.665H241.502V20.8646H240.901ZM240.901 30.665C240.901 31.0629 240.915 31.4105 240.969 31.704C241.023 31.9999 241.122 32.2638 241.309 32.4754C241.682 32.8989 242.308 33.0048 243.175 33.0048V32.4032C242.298 32.4032 241.937 32.2789 241.76 32.0776C241.671 31.9768 241.604 31.8295 241.56 31.5951C241.517 31.3583 241.502 31.0564 241.502 30.665H240.901ZM243.175 33.0048H244.095V32.4032H243.175V33.0048ZM243.795 32.704V33H244.396V32.704H243.795ZM244.095 32.6992H235.216V33.3008H244.095V32.6992ZM272.314 32.9623C268.345 32.9623 265.067 31.7721 262.785 29.714C260.506 27.6585 259.197 24.7165 259.197 21.1606H258.596C258.596 24.8728 259.967 27.982 262.383 30.1607C264.795 32.3369 268.226 33.5639 272.314 33.5639V32.9623ZM259.197 21.1606C259.197 17.6215 260.506 14.6877 262.785 12.6361C265.067 10.582 268.345 9.39177 272.314 9.39177V8.79021C268.226 8.79021 264.795 10.0172 262.383 12.189C259.967 14.3635 258.596 17.4645 258.596 21.1606H259.197ZM272.314 9.39177C276.25 9.39177 279.512 10.5816 281.786 12.6358C284.057 14.6875 285.366 17.6215 285.366 21.1606H285.967C285.967 17.4645 284.596 14.3637 282.189 12.1894C279.785 10.0176 276.37 8.79021 272.314 8.79021V9.39177ZM285.366 21.1606C285.366 24.7166 284.057 27.6588 281.786 29.7144C279.512 31.7725 276.25 32.9623 272.314 32.9623V33.5639C276.37 33.5639 279.785 32.3365 282.189 30.1604C284.596 27.9818 285.967 24.8727 285.967 21.1606H285.366ZM272.446 32.9719C275.777 32.9719 278.383 31.9995 280.153 30.0839C281.919 28.1723 282.81 25.3669 282.81 21.7855H282.209C282.209 25.2747 281.34 27.9122 279.711 29.6757C278.085 31.4353 275.66 32.3703 272.446 32.3703V32.9719ZM282.81 21.7855C282.81 17.8146 281.897 14.7085 280.091 12.5915C278.278 10.4665 275.604 9.38218 272.183 9.38218V9.98374C275.471 9.98374 277.96 11.0207 279.633 12.9819C281.313 14.9511 282.209 17.8963 282.209 21.7855H282.81ZM272.183 9.38218C268.836 9.38218 266.214 10.3543 264.432 12.2694C262.653 14.1808 261.753 16.9865 261.753 20.5686H262.354C262.354 17.08 263.231 14.4428 264.872 12.6792C266.51 10.9191 268.952 9.98374 272.183 9.98374V9.38218ZM261.753 20.5686C261.753 24.5395 262.666 27.6459 264.481 29.7631C266.302 31.8882 268.993 32.9719 272.446 32.9719V32.3703C269.124 32.3703 266.619 31.3328 264.938 29.3717C263.25 27.4027 262.354 24.4578 262.354 20.5686H261.753ZM299.112 26.2252V26.526H299.413V26.2252H299.112ZM298.783 26.2252H298.483V26.526H298.783V26.2252ZM293.423 20.8975V20.5967H293.122V20.8975H293.423ZM292.633 32.3751L292.429 32.1541L292.333 32.2435V32.3751H292.633ZM292.633 32.408H292.333V32.7088H292.633V32.408ZM305.229 27.9683L304.93 27.942L304.929 27.9433L305.229 27.9683ZM305.459 25.3373V25.0365H305.184L305.16 25.3111L305.459 25.3373ZM306.018 25.3373L306.319 25.3583L306.341 25.0365H306.018V25.3373ZM305.394 34.2497L305.36 34.5487L305.672 34.5832L305.694 34.2708L305.394 34.2497ZM305.098 34.2168L304.798 34.1973L304.779 34.484L305.064 34.5158L305.098 34.2168ZM305.196 32.704L305.496 32.7236L305.517 32.4032H305.196V32.704ZM305.163 32.704V32.4032H305.05L304.965 32.4777L305.163 32.704ZM287.437 33H287.136V33.3008H287.437V33ZM287.437 32.704V32.4032H287.136V32.704H287.437ZM287.437 9.65007H287.136V9.95085H287.437V9.65007ZM287.437 9.35409V9.05331H287.136V9.35409H287.437ZM303.19 9.65007L302.977 9.86275L303.066 9.95085H303.19V9.65007ZM303.256 9.65007V9.95085H303.584L303.556 9.62401L303.256 9.65007ZM303.124 8.13726L303.094 7.83797L302.799 7.86752L302.825 8.16331L303.124 8.13726ZM303.453 8.10437L303.753 8.08223L303.731 7.77437L303.423 7.80509L303.453 8.10437ZM304.111 17.0168V17.3176H304.435L304.411 16.9947L304.111 17.0168ZM303.453 17.0168L303.153 17.034L303.169 17.3176H303.453V17.0168ZM303.322 14.7147L303.622 14.6975L303.622 14.6952L303.322 14.7147ZM292.633 9.94606V9.64528H292.333V9.94606H292.633ZM292.633 9.97894H292.333V10.1106L292.429 10.2L292.633 9.97894ZM293.423 20.3055H293.122V20.6063H293.423V20.3055ZM298.783 15.6684V15.3677H298.483V15.6684H298.783ZM299.112 15.6684H299.413V15.3677H299.112V15.6684ZM299.112 25.9245H298.783V26.526H299.112V25.9245ZM299.084 26.2252V24.4164H298.483V26.2252H299.084ZM299.084 24.4164C299.084 22.7768 298.593 21.7829 297.759 21.2232C296.953 20.6829 295.89 20.5967 294.87 20.5967V21.1983C295.888 21.1983 296.783 21.293 297.424 21.7229C298.036 22.1333 298.483 22.8989 298.483 24.4164H299.084ZM294.87 20.5967H293.423V21.1983H294.87V20.5967ZM293.122 20.8975V30.665H293.723V20.8975H293.122ZM293.122 30.665C293.122 31.2836 292.813 31.8004 292.429 32.1541L292.837 32.5962C293.309 32.1606 293.723 31.4935 293.723 30.665H293.122ZM292.333 32.3751V32.408H292.934V32.3751H292.333ZM292.633 32.7088H299.836V32.1073H292.633V32.7088ZM299.836 32.7088C301.607 32.7088 302.973 32.3845 303.931 31.6055C304.897 30.8197 305.394 29.6179 305.529 27.9932L304.929 27.9433C304.802 29.4758 304.344 30.4938 303.551 31.1387C302.75 31.7902 301.55 32.1073 299.836 32.1073V32.7088ZM305.529 27.9945L305.759 25.3635L305.16 25.3111L304.93 27.942L305.529 27.9945ZM305.459 25.6381H306.018V25.0365H305.459V25.6381ZM305.718 25.3162L305.094 34.2287L305.694 34.2708L306.319 25.3583L305.718 25.3162ZM305.427 33.9508L305.131 33.9179L305.064 34.5158L305.36 34.5487L305.427 33.9508ZM305.398 34.2364L305.496 32.7236L304.896 32.6844L304.798 34.1973L305.398 34.2364ZM305.196 32.4032H305.163V33.0048H305.196V32.4032ZM304.965 32.4777C304.891 32.543 304.761 32.6027 304.555 32.6432C304.352 32.683 304.102 32.6992 303.815 32.6992V33.3008C304.12 33.3008 304.413 33.2841 304.671 33.2335C304.925 33.1835 305.173 33.0952 305.361 32.9304L304.965 32.4777ZM303.815 32.6992H287.437V33.3008H303.815V32.6992ZM287.738 33V32.704H287.136V33H287.738ZM287.437 33.0048H288.687V32.4032H287.437V33.0048ZM288.687 33.0048C289.123 33.0048 289.482 32.9949 289.771 32.951C290.059 32.9071 290.314 32.8243 290.511 32.6489C290.712 32.4696 290.812 32.2296 290.865 31.9562C290.916 31.6879 290.928 31.356 290.928 30.961H290.326C290.326 31.3553 290.314 31.6359 290.274 31.8424C290.235 32.0438 290.177 32.1409 290.11 32.2001C290.04 32.2631 289.919 32.32 289.68 32.3563C289.441 32.3926 289.123 32.4032 288.687 32.4032V33.0048ZM290.928 30.961V11.3931H290.326V30.961H290.928ZM290.928 11.3931C290.928 10.9981 290.916 10.6662 290.865 10.3979C290.812 10.1245 290.712 9.88448 290.511 9.70519C290.314 9.5298 290.059 9.44694 289.771 9.40307C289.482 9.35921 289.123 9.34929 288.687 9.34929V9.95085C289.123 9.95085 289.441 9.96149 289.68 9.99779C289.919 10.0341 290.04 10.091 290.11 10.154C290.177 10.2132 290.235 10.3102 290.274 10.5117C290.314 10.7181 290.326 10.9988 290.326 11.3931H290.928ZM288.687 9.34929H287.437V9.95085H288.687V9.34929ZM287.738 9.65007V9.35409H287.136V9.65007H287.738ZM287.437 9.65486H301.875V9.05331H287.437V9.65486ZM301.875 9.65486C302.145 9.65486 302.395 9.67099 302.598 9.71089C302.81 9.7526 302.927 9.81193 302.977 9.86275L303.403 9.43739C303.223 9.258 302.962 9.16934 302.714 9.12061C302.456 9.07007 302.163 9.05331 301.875 9.05331V9.65486ZM303.19 9.95085H303.256V9.34929H303.19V9.95085ZM303.556 9.62401L303.424 8.1112L302.825 8.16331L302.956 9.67613L303.556 9.62401ZM303.154 8.43654L303.483 8.40366L303.423 7.80509L303.094 7.83797L303.154 8.43654ZM303.153 8.12651L303.811 17.0389L304.411 16.9947L303.753 8.08223L303.153 8.12651ZM304.111 16.716H303.453V17.3176H304.111V16.716ZM303.754 16.9996L303.622 14.6975L303.021 14.7319L303.153 17.034L303.754 16.9996ZM303.622 14.6952C303.504 12.8709 302.958 11.5837 301.935 10.7638C300.923 9.952 299.499 9.64528 297.731 9.64528V10.2468C299.449 10.2468 300.705 10.5485 301.559 11.2331C302.403 11.9096 302.91 13.0067 303.022 14.7342L303.622 14.6952ZM297.731 9.64528H292.633V10.2468H297.731V9.64528ZM292.333 9.94606V9.97894H292.934V9.94606H292.333ZM292.429 10.2C292.813 10.5537 293.122 11.0705 293.122 11.6891H293.723C293.723 10.8606 293.309 10.1935 292.837 9.75793L292.429 10.2ZM293.122 11.6891V20.3055H293.723V11.6891H293.122ZM293.423 20.6063H294.87V20.0048H293.423V20.6063ZM294.87 20.6063C295.888 20.6063 296.951 20.5289 297.757 19.9976C298.593 19.4461 299.084 18.4591 299.084 16.8195H298.483C298.483 18.337 298.036 19.093 297.426 19.4953C296.785 19.9178 295.89 20.0048 294.87 20.0048V20.6063ZM299.084 16.8195V15.6684H298.483V16.8195H299.084ZM298.783 15.9692H299.112V15.3677H298.783V15.9692ZM298.811 15.6684V26.2252H299.413V15.6684H298.811Z" fill="#62353E"/>
<path d="M72.5308 37.6042V37.3034H72.23V37.6042H72.5308ZM306.742 37.6042H307.043V37.3034H306.742V37.6042ZM306.742 38.1633V38.4641H307.043V38.1633H306.742ZM72.5308 38.1633H72.23V38.4641H72.5308V38.1633ZM72.5308 37.905H306.742V37.3034H72.5308V37.905ZM306.441 37.6042V38.1633H307.043V37.6042H306.441ZM306.742 37.8625H72.5308V38.4641H306.742V37.8625ZM72.8315 38.1633V37.6042H72.23V38.1633H72.8315Z" fill="#62353E"/>
</svg>
