<svg width="128" height="139" viewBox="0 0 128 139" fill="none" xmlns="http://www.w3.org/2000/svg">
<g clip-path="url(#clip0_75_609)">
<path d="M66.6809 139C29.8998 139 0 107.836 0 69.5C0 31.1639 29.8998 0 66.6809 0C88.0554 0 108.273 10.79 120.817 28.879L115.885 32.5603C104.497 16.1215 86.1067 6.34703 66.6809 6.34703C33.2491 6.34703 6.08958 34.6548 6.08958 69.5C6.08958 104.345 33.31 132.653 66.6809 132.653C86.2285 132.653 104.741 122.752 116.067 106.059L121 109.74C108.516 128.083 88.238 139 66.6809 139Z" fill="#484870"/>
<path d="M128 34.4337L102.966 30.636L103.975 24.3697L120.937 26.9648L119.298 11.0776L125.541 10.3813L128 34.4337Z" fill="#484870"/>
<path d="M72.2562 21.458H65.9503V35.2565H72.2562V21.458Z" fill="#484870"/>
<path d="M72.2562 106.082H65.9503V119.881H72.2562V106.082Z" fill="#484870"/>
<path d="M33.8535 67.4741H20.1068V73.8037H33.8535V67.4741Z" fill="#484870"/>
<path d="M118.163 67.4741H104.416V73.8037H118.163V67.4741Z" fill="#484870"/>
<path d="M57.6266 93.8673H51.3207V60.0041L46.6544 62.7891L43.4384 57.3457L57.6266 48.8008V93.8673Z" fill="#484870"/>
<path d="M79.3817 63.675C78.4989 63.675 77.6792 63.7383 76.8594 63.8649L78.0575 56.5859H92.0565V50.2563H72.6975L69.0401 71.9035L71.6886 73.8657C72.4453 72.8529 73.3912 71.9668 74.4632 71.3338C75.9135 70.4477 77.6161 70.0046 79.3817 70.0046C84.6156 70.0046 88.9036 74.3087 88.9036 79.5623C88.9036 84.8158 84.6156 89.1199 79.3817 89.1199C76.2919 89.1199 73.3912 87.6008 71.6255 85.069L71.5625 85.1323L68.3465 90.8922C71.2472 93.7405 75.2199 95.4495 79.3817 95.4495C88.0838 95.4495 95.2094 88.2971 95.2094 79.5623C95.2094 70.8275 88.0838 63.675 79.3817 63.675Z" fill="#484870"/>
</g>
<defs>
<clipPath id="clip0_75_609">
<rect width="127" height="138.618" fill="white" transform="translate(1)"/>
</clipPath>
</defs>
</svg>
