<svg width="156" height="156" viewBox="0 0 156 156" fill="none" xmlns="http://www.w3.org/2000/svg">
<g clip-path="url(#clip0_75_690)">
<path d="M124.192 0.000137525C114.944 1.76506 106.028 4.33892 100.659 8.73285C92.276 15.5903 78.5427 31.732 67.4568 45.2448C56.3708 58.7575 54.6243 60.7247 54.4037 66.2768C50.7083 74.0351 47.9507 78.9255 45.9283 83.062C45.4871 83.9445 44.9723 84.7902 44.4208 85.5991C40.5049 91.1329 37.4346 94.056 35.9455 96.1151C34.3276 98.3213 32.4892 99.0199 30.4852 100.509C28.5181 101.961 24.5654 103.451 24.2528 105.859C24.1425 106.741 24.7308 107.55 25.5582 107.863C27.1944 108.47 30.6139 109.352 34.3828 107.918C39.604 105.933 43.3177 102.403 44.8988 101.41C46.4799 100.417 48.9067 97.0343 51.7747 94.5156C54.6427 91.997 61.1692 84.1835 61.1692 84.1835" stroke="#484870" stroke-width="3.70383" stroke-miterlimit="10" stroke-linecap="round" stroke-linejoin="round"/>
<path d="M100.42 79.1459C101.174 79.2378 101.818 79.5871 102.314 80.0651C103.766 81.4807 103.435 83.9259 101.781 85.1025C100.273 86.1688 97.3685 88.2095 95.2727 89.6435C94.3902 90.2502 93.471 90.8385 92.5334 91.3717C91.1729 92.1622 89.5551 93.0079 87.7901 93.8904C84.389 95.5818 81.9806 96.9974 78.2117 98.2843C72.4941 100.215 69.6077 97.7879 67.4751 94.9199C65.9675 92.8976 59.1468 80.874 56.7752 74.274" stroke="#484870" stroke-width="3.70383" stroke-miterlimit="10" stroke-linecap="round" stroke-linejoin="round"/>
<path d="M76.7041 98.6886C80.4178 104.039 86.0068 98.707 87.7901 93.8718" stroke="#484870" stroke-width="3.70383" stroke-miterlimit="10" stroke-linecap="round" stroke-linejoin="round"/>
<path d="M105.2 64.7139C105.237 64.7139 105.274 64.7139 105.329 64.7139C108.032 64.5853 109.502 67.8577 107.682 69.8616C107.112 70.4867 106.414 71.1853 105.568 72.6377C105.348 73.0238 105.09 73.465 104.814 73.9063C103.932 75.377 102.351 77.1971 100.42 79.1459C97.0928 82.4919 92.7172 86.1688 88.9668 88.8162C83.0285 93.0079 79.7561 93.394 76.6307 90.4892C73.5053 87.5661 68.1921 79.2562 63.3202 69.3653" stroke="#484870" stroke-width="3.70383" stroke-miterlimit="10" stroke-linecap="round" stroke-linejoin="round"/>
<path d="M93.802 70.3579C94.1145 69.4019 94.7764 67.8392 96.2104 65.4859C99.299 60.3934 104.686 59.2719 105.219 62.8753C105.292 63.4268 105.292 64.0519 105.2 64.7138C104.759 68.3723 102.093 73.3362 100.586 75.0276C98.8026 77.0315 95.1992 81.1313 91.2833 83.5948C87.349 86.04 86.4298 84.2934 83.7456 81.9953C81.0614 79.6973 74.8842 72.086 68.9276 62.7834" stroke="#484870" stroke-width="3.70383" stroke-miterlimit="10" stroke-linecap="round" stroke-linejoin="round"/>
<path d="M90.1986 70.5056C91.412 70.2482 92.6438 70.2298 93.7836 70.3585C94.6661 70.4688 95.5118 70.671 96.2839 70.9468" stroke="#484870" stroke-width="3.70383" stroke-miterlimit="10" stroke-linecap="round" stroke-linejoin="round"/>
<path d="M88.7462 57.213C92.5334 61.1473 90.8053 64.1808 90.1802 66.5524C89.5551 68.924 89.5367 69.4939 87.7167 69.2733C88.8014 69.5675 89.6103 70.0087 90.1986 70.5235C91.173 71.3876 91.5774 72.4906 91.7061 73.7224" stroke="#484870" stroke-width="3.70383" stroke-miterlimit="10" stroke-linecap="round" stroke-linejoin="round"/>
<path d="M91.0994 61.8091C97.5892 59.3455 106.616 50.8702 111.984 47.1197C117.353 43.3693 119.412 37.7803 119.485 34.3976C119.559 31.0148 115.808 23.8632 115.808 23.8632" stroke="#484870" stroke-width="3.70383" stroke-miterlimit="10" stroke-linecap="round" stroke-linejoin="round"/>
<path d="M119.118 37.2107C121.489 36.0525 127.372 35.0045 132.667 34.3795" stroke="#484870" stroke-width="3.70383" stroke-miterlimit="10" stroke-linecap="round" stroke-linejoin="round"/>
<path d="M28.2054 130.329C32.3971 125.586 41.0562 125.457 43.2256 117.294C43.2256 117.294 44.1816 122.037 47.5092 123.343C50.8369 124.648 50.7082 126.137 48.5939 128.306C46.4613 130.476 37.269 133.178 28.2054 130.329Z" stroke="#484870" stroke-width="3.70383" stroke-miterlimit="10" stroke-linecap="round" stroke-linejoin="round"/>
<path d="M28.2053 130.329C24.0136 125.586 15.3544 125.457 13.185 117.294C13.185 117.294 12.229 122.037 8.9014 123.343C5.5554 124.648 5.70248 126.137 7.81672 128.307C9.93095 130.476 19.1233 133.178 28.2053 130.329Z" stroke="#484870" stroke-width="3.70383" stroke-miterlimit="10" stroke-linecap="round" stroke-linejoin="round"/>
<path d="M20.9618 125.659C20.9618 125.659 21.642 124.243 23.1311 122.883C25.1718 121.026 27.5251 120.585 28.2053 114.426C28.8855 120.585 31.2388 121.026 33.2795 122.883C34.7686 124.225 35.4489 125.659 35.4489 125.659" stroke="#484870" stroke-width="3.70383" stroke-miterlimit="10" stroke-linecap="round" stroke-linejoin="round"/>
<path d="M32.5441 122.276C32.5441 122.276 37.3057 120.18 38.8316 114.628C38.8316 114.628 40.3208 118.783 39.6957 122.938" stroke="#484870" stroke-width="3.70383" stroke-miterlimit="10" stroke-linecap="round" stroke-linejoin="round"/>
<path d="M23.8481 122.276C23.8481 122.276 19.0865 120.18 17.5606 114.628C17.5606 114.628 16.0714 118.783 16.6965 122.938" stroke="#484870" stroke-width="3.70383" stroke-miterlimit="10" stroke-linecap="round" stroke-linejoin="round"/>
<path d="M78.4506 130.329C82.6423 125.586 91.3015 125.457 93.4709 117.294C93.4709 117.294 94.4269 122.037 97.7545 123.343C101.082 124.648 100.953 126.137 98.8392 128.306C96.725 130.476 87.5143 133.178 78.4506 130.329Z" stroke="#484870" stroke-width="3.70383" stroke-miterlimit="10" stroke-linecap="round" stroke-linejoin="round"/>
<path d="M78.4506 130.329C74.2589 125.586 65.5998 125.457 63.4304 117.294C63.4304 117.294 62.4744 122.037 59.1468 123.343C55.8191 124.648 55.9478 126.137 58.0621 128.307C60.1763 130.476 69.387 133.178 78.4506 130.329Z" stroke="#484870" stroke-width="3.70383" stroke-miterlimit="10" stroke-linecap="round" stroke-linejoin="round"/>
<path d="M71.2071 125.659C71.2071 125.659 71.8873 124.243 73.3765 122.883C75.4172 121.026 77.7704 120.585 78.4506 114.426C79.1309 120.585 81.4841 121.026 83.5248 122.883C85.014 124.225 85.6942 125.659 85.6942 125.659" stroke="#484870" stroke-width="3.70383" stroke-miterlimit="10" stroke-linecap="round" stroke-linejoin="round"/>
<path d="M82.7894 122.276C82.7894 122.276 87.551 120.18 89.077 114.628C89.077 114.628 90.5661 118.783 89.941 122.938" stroke="#484870" stroke-width="3.70383" stroke-miterlimit="10" stroke-linecap="round" stroke-linejoin="round"/>
<path d="M74.1119 122.276C74.1119 122.276 69.3502 120.18 67.8243 114.628C67.8243 114.628 66.3352 118.783 66.9602 122.938" stroke="#484870" stroke-width="3.70383" stroke-miterlimit="10" stroke-linecap="round" stroke-linejoin="round"/>
<path d="M128.696 130.329C132.888 125.586 141.547 125.457 143.716 117.294C143.716 117.294 144.672 122.037 148 123.343C151.327 124.648 151.199 126.137 149.084 128.306C146.97 130.476 137.76 133.178 128.696 130.329Z" stroke="#484870" stroke-width="3.70383" stroke-miterlimit="10" stroke-linecap="round" stroke-linejoin="round"/>
<path d="M128.696 130.329C124.504 125.586 115.845 125.457 113.676 117.294C113.676 117.294 112.72 122.037 109.392 123.343C106.064 124.648 106.193 126.137 108.307 128.307C110.422 130.476 119.632 133.178 128.696 130.329Z" stroke="#484870" stroke-width="3.70383" stroke-miterlimit="10" stroke-linecap="round" stroke-linejoin="round"/>
<path d="M121.452 125.659C121.452 125.659 122.133 124.243 123.622 122.883C125.662 121.026 128.016 120.585 128.696 114.426C129.376 120.585 131.729 121.026 133.77 122.883C135.259 124.225 135.939 125.659 135.939 125.659" stroke="#484870" stroke-width="3.70383" stroke-miterlimit="10" stroke-linecap="round" stroke-linejoin="round"/>
<path d="M133.035 122.276C133.035 122.276 137.796 120.18 139.322 114.628C139.322 114.628 140.811 118.783 140.186 122.938" stroke="#484870" stroke-width="3.70383" stroke-miterlimit="10" stroke-linecap="round" stroke-linejoin="round"/>
<path d="M124.357 122.276C124.357 122.276 119.596 120.18 118.07 114.628C118.07 114.628 116.58 118.783 117.206 122.938" stroke="#484870" stroke-width="3.70383" stroke-miterlimit="10" stroke-linecap="round" stroke-linejoin="round"/>
<path d="M106.3 127.782V133.338C108.563 134.984 116.424 138.276 129.757 138.276C143.091 138.276 149.305 134.778 151.363 133.338V129.017" stroke="#484870" stroke-width="3.70383" stroke-linecap="round"/>
<path d="M55.6808 127.782V133.338C57.9442 134.984 65.8046 138.276 79.1384 138.276C92.4722 138.276 98.6864 134.778 100.744 133.338V129.017" stroke="#484870" stroke-width="3.70383" stroke-linecap="round"/>
<path d="M5.06174 127.782V133.338C7.32519 134.984 15.1855 138.276 28.5193 138.276C41.8531 138.276 48.0673 134.778 50.125 133.338V129.017" stroke="#484870" stroke-width="3.70383" stroke-linecap="round"/>
</g>
<defs>
<clipPath id="clip0_75_690">
<rect width="156" height="156" fill="white"/>
</clipPath>
</defs>
</svg>
