<svg width="156" height="156" viewBox="0 0 156 156" fill="none" xmlns="http://www.w3.org/2000/svg">
<circle cx="43.2882" cy="123.453" r="20.7295" stroke="#484870" stroke-width="3.65815"/>
<circle cx="79.8699" cy="23.4638" r="12.1938" stroke="#484870" stroke-width="3.65815"/>
<path d="M111.574 74.8795C106.306 74.8795 102.018 79.1683 102.018 84.4367C102.018 89.7051 106.306 93.9939 111.574 93.9939C116.842 93.9939 121.13 89.7051 121.13 84.4367C121.13 79.1601 116.842 74.8795 111.574 74.8795Z" fill="#484870"/>
<path d="M111.574 102.119C101.82 102.119 93.8936 94.1832 93.8936 84.4285C93.8936 74.6738 101.828 66.7465 111.574 66.7465C121.328 66.7465 129.262 74.682 129.262 84.4285C129.262 94.175 121.319 102.119 111.574 102.119ZM111.574 71.6856C104.545 71.6856 98.8322 77.4067 98.8322 84.4285C98.8322 91.4502 104.553 97.1796 111.574 97.1796C118.603 97.1796 124.324 91.4585 124.324 84.4285C124.324 77.3985 118.595 71.6856 111.574 71.6856Z" fill="#484870"/>
<path d="M111.574 110.243C97.3424 110.243 85.7613 98.6613 85.7613 84.4285C85.7613 70.1956 97.3424 58.6134 111.574 58.6134C125.805 58.6134 137.386 70.1956 137.386 84.4285C137.386 98.6613 125.805 110.243 111.574 110.243ZM111.574 62.7376C99.6141 62.7376 89.8768 72.4676 89.8768 84.4367C89.8768 96.4058 99.6059 106.136 111.574 106.136C123.542 106.136 133.271 96.4058 133.271 84.4367C133.271 72.4676 123.533 62.7376 111.574 62.7376Z" fill="#484870"/>
<path d="M111.574 118.377C92.8565 118.377 77.6373 103.148 77.6373 84.4367C77.6373 65.7175 92.8647 50.4969 111.574 50.4969C130.291 50.4969 145.51 65.7257 145.51 84.4367C145.51 103.148 130.283 118.377 111.574 118.377ZM111.574 53.7814C94.6755 53.7814 80.9297 67.5285 80.9297 84.4285C80.9297 101.328 94.6755 115.076 111.574 115.076C128.472 115.076 142.218 101.328 142.218 84.4285C142.218 67.5285 128.472 53.7814 111.574 53.7814Z" fill="#484870"/>
<path d="M111.574 126.501C88.3788 126.501 69.505 107.634 69.505 84.4367C69.505 61.2394 88.3788 42.3638 111.574 42.3638C134.769 42.3638 153.643 61.2394 153.643 84.4367C153.643 107.634 134.769 126.501 111.574 126.501ZM111.574 44.8334C89.7369 44.8334 71.9743 62.5977 71.9743 84.4367C71.9743 106.276 89.7369 124.04 111.574 124.04C133.411 124.04 151.173 106.276 151.173 84.4367C151.165 62.5977 133.402 44.8334 111.574 44.8334Z" fill="#484870"/>
<path d="M29.2653 54.2859C25.7534 54.2859 22.8945 57.1451 22.8945 60.6573C22.8945 64.1696 25.7534 67.0288 29.2653 67.0288C32.7772 67.0288 35.6362 64.1696 35.6362 60.6573C35.6362 57.1396 32.7772 54.2859 29.2653 54.2859Z" fill="#484870"/>
<path d="M29.2653 72.4453C22.7628 72.4453 17.4785 67.155 17.4785 60.6518C17.4785 54.1487 22.7683 48.8639 29.2653 48.8639C35.7678 48.8639 41.0577 54.1542 41.0577 60.6518C41.0577 67.1495 35.7624 72.4453 29.2653 72.4453ZM29.2653 52.1566C24.5791 52.1566 20.7709 55.9707 20.7709 60.6518C20.7709 65.333 24.5846 69.1526 29.2653 69.1526C33.9515 69.1526 37.7652 65.3385 37.7652 60.6518C37.7652 55.9652 33.946 52.1566 29.2653 52.1566Z" fill="#484870"/>
<path d="M29.2653 77.8619C19.7777 77.8619 12.057 70.1404 12.057 60.6518C12.057 51.1633 19.7777 43.4418 29.2653 43.4418C38.753 43.4418 46.4737 51.1633 46.4737 60.6518C46.4737 70.1404 38.753 77.8619 29.2653 77.8619ZM29.2653 46.1912C21.2922 46.1912 14.8007 52.6779 14.8007 60.6573C14.8007 68.6367 21.2867 75.1234 29.2653 75.1234C37.2439 75.1234 43.73 68.6367 43.73 60.6573C43.73 52.6779 37.2385 46.1912 29.2653 46.1912Z" fill="#484870"/>
<path d="M29.2653 83.2839C16.7871 83.2839 6.64099 73.1313 6.64099 60.6573C6.64099 48.1779 16.7926 38.0308 29.2653 38.0308C41.7436 38.0308 51.8897 48.1834 51.8897 60.6573C51.8897 73.1313 41.7381 83.2839 29.2653 83.2839ZM29.2653 40.2204C17.9998 40.2204 8.83593 49.3852 8.83593 60.6518C8.83593 71.9185 17.9998 81.0832 29.2653 81.0832C40.5309 81.0832 49.6947 71.9185 49.6947 60.6518C49.6947 49.3852 40.5309 40.2204 29.2653 40.2204Z" fill="#484870"/>
<path d="M29.2653 88.7004C13.802 88.7004 1.21948 76.1222 1.21948 60.6573C1.21948 45.1925 13.802 32.6087 29.2653 32.6087C44.7287 32.6087 57.3112 45.1925 57.3112 60.6573C57.3112 76.1222 44.7287 88.7004 29.2653 88.7004ZM29.2653 34.2551C14.7074 34.2551 2.86569 46.098 2.86569 60.6573C2.86569 75.2167 14.7074 87.0596 29.2653 87.0596C43.8233 87.0596 55.665 75.2167 55.665 60.6573C55.6595 46.098 43.8178 34.2551 29.2653 34.2551Z" fill="#484870"/>
</svg>
