<svg width="150" height="142" viewBox="0 0 150 142" fill="none" xmlns="http://www.w3.org/2000/svg">
<g clip-path="url(#clip0_75_690)">
<path d="M121.192 2.00014C111.944 3.76506 103.028 6.33892 97.6595 10.7329C89.276 17.5903 75.5427 33.732 64.4568 47.2448C53.3708 60.7575 51.6243 62.7247 51.4037 68.2768C47.7083 76.0351 44.9507 80.9255 42.9283 85.062C42.4871 85.9445 41.9723 86.7902 41.4208 87.5991C37.5049 93.1329 34.4346 96.056 32.9455 98.1151C31.3276 100.321 29.4892 101.02 27.4852 102.509C25.5181 103.961 21.5654 105.451 21.2528 107.859C21.1425 108.741 21.7308 109.55 22.5582 109.863C24.1944 110.47 27.6139 111.352 31.3828 109.918C36.604 107.933 40.3177 104.403 41.8988 103.41C43.4799 102.417 45.9067 99.0343 48.7747 96.5156C51.6427 93.997 58.1692 86.1835 58.1692 86.1835" stroke="#484870" stroke-width="3.70383" stroke-miterlimit="10" stroke-linecap="round" stroke-linejoin="round"/>
<path d="M97.4204 81.1459C98.1742 81.2378 98.8176 81.5871 99.314 82.0651C100.766 83.4807 100.435 85.9259 98.7809 87.1025C97.2733 88.1688 94.3685 90.2095 92.2727 91.6435C91.3902 92.2502 90.471 92.8385 89.5334 93.3717C88.1729 94.1622 86.5551 95.0079 84.7901 95.8904C81.389 97.5818 78.9806 98.9974 75.2117 100.284C69.4941 102.215 66.6077 99.7879 64.4751 96.9199C62.9675 94.8976 56.1468 82.874 53.7752 76.274" stroke="#484870" stroke-width="3.70383" stroke-miterlimit="10" stroke-linecap="round" stroke-linejoin="round"/>
<path d="M73.7041 100.689C77.4178 106.039 83.0068 100.707 84.7901 95.8718" stroke="#484870" stroke-width="3.70383" stroke-miterlimit="10" stroke-linecap="round" stroke-linejoin="round"/>
<path d="M102.2 66.7139C102.237 66.7139 102.274 66.7139 102.329 66.7139C105.032 66.5853 106.502 69.8577 104.682 71.8616C104.112 72.4867 103.414 73.1853 102.568 74.6377C102.348 75.0238 102.09 75.465 101.814 75.9063C100.932 77.377 99.3508 79.1971 97.4204 81.1459C94.0928 84.4919 89.7172 88.1688 85.9668 90.8162C80.0285 95.0079 76.7561 95.394 73.6307 92.4892C70.5053 89.5661 65.1921 81.2562 60.3202 71.3653" stroke="#484870" stroke-width="3.70383" stroke-miterlimit="10" stroke-linecap="round" stroke-linejoin="round"/>
<path d="M90.802 72.3579C91.1145 71.4019 91.7764 69.8392 93.2104 67.4859C96.299 62.3934 101.686 61.2719 102.219 64.8753C102.292 65.4268 102.292 66.0519 102.2 66.7138C101.759 70.3723 99.0935 75.3362 97.5859 77.0276C95.8026 79.0315 92.1992 83.1313 88.2833 85.5948C84.349 88.04 83.4298 86.2934 80.7456 83.9953C78.0614 81.6973 71.8842 74.086 65.9276 64.7834" stroke="#484870" stroke-width="3.70383" stroke-miterlimit="10" stroke-linecap="round" stroke-linejoin="round"/>
<path d="M87.1986 72.5056C88.412 72.2482 89.6438 72.2298 90.7836 72.3585C91.6661 72.4688 92.5118 72.671 93.2839 72.9468" stroke="#484870" stroke-width="3.70383" stroke-miterlimit="10" stroke-linecap="round" stroke-linejoin="round"/>
<path d="M85.7462 59.213C89.5334 63.1473 87.8053 66.1808 87.1802 68.5524C86.5551 70.924 86.5367 71.4939 84.7167 71.2733C85.8014 71.5675 86.6103 72.0087 87.1986 72.5235C88.173 73.3876 88.5774 74.4906 88.7061 75.7224" stroke="#484870" stroke-width="3.70383" stroke-miterlimit="10" stroke-linecap="round" stroke-linejoin="round"/>
<path d="M88.0994 63.8091C94.5892 61.3455 103.616 52.8702 108.984 49.1197C114.353 45.3693 116.412 39.7803 116.485 36.3976C116.559 33.0148 112.808 25.8632 112.808 25.8632" stroke="#484870" stroke-width="3.70383" stroke-miterlimit="10" stroke-linecap="round" stroke-linejoin="round"/>
<path d="M116.118 39.2107C118.489 38.0525 124.372 37.0045 129.667 36.3795" stroke="#484870" stroke-width="3.70383" stroke-miterlimit="10" stroke-linecap="round" stroke-linejoin="round"/>
<path d="M25.2054 132.329C29.3971 127.586 38.0562 127.457 40.2256 119.294C40.2256 119.294 41.1816 124.037 44.5092 125.343C47.8369 126.648 47.7082 128.137 45.5939 130.306C43.4613 132.476 34.269 135.178 25.2054 132.329Z" stroke="#484870" stroke-width="3.70383" stroke-miterlimit="10" stroke-linecap="round" stroke-linejoin="round"/>
<path d="M25.2053 132.329C21.0136 127.586 12.3544 127.457 10.185 119.294C10.185 119.294 9.22903 124.037 5.9014 125.343C2.5554 126.648 2.70248 128.137 4.81672 130.307C6.93095 132.476 16.1233 135.178 25.2053 132.329Z" stroke="#484870" stroke-width="3.70383" stroke-miterlimit="10" stroke-linecap="round" stroke-linejoin="round"/>
<path d="M17.9618 127.659C17.9618 127.659 18.642 126.243 20.1311 124.883C22.1718 123.026 24.5251 122.585 25.2053 116.426C25.8855 122.585 28.2388 123.026 30.2795 124.883C31.7686 126.225 32.4489 127.659 32.4489 127.659" stroke="#484870" stroke-width="3.70383" stroke-miterlimit="10" stroke-linecap="round" stroke-linejoin="round"/>
<path d="M29.5441 124.276C29.5441 124.276 34.3057 122.18 35.8316 116.628C35.8316 116.628 37.3208 120.783 36.6957 124.938" stroke="#484870" stroke-width="3.70383" stroke-miterlimit="10" stroke-linecap="round" stroke-linejoin="round"/>
<path d="M20.8481 124.276C20.8481 124.276 16.0865 122.18 14.5606 116.628C14.5606 116.628 13.0714 120.783 13.6965 124.938" stroke="#484870" stroke-width="3.70383" stroke-miterlimit="10" stroke-linecap="round" stroke-linejoin="round"/>
<path d="M75.4506 132.329C79.6423 127.586 88.3015 127.457 90.4709 119.294C90.4709 119.294 91.4269 124.037 94.7545 125.343C98.0821 126.648 97.9534 128.137 95.8392 130.306C93.725 132.476 84.5143 135.178 75.4506 132.329Z" stroke="#484870" stroke-width="3.70383" stroke-miterlimit="10" stroke-linecap="round" stroke-linejoin="round"/>
<path d="M75.4506 132.329C71.2589 127.586 62.5998 127.457 60.4304 119.294C60.4304 119.294 59.4744 124.037 56.1468 125.343C52.8191 126.648 52.9478 128.137 55.0621 130.307C57.1763 132.476 66.387 135.178 75.4506 132.329Z" stroke="#484870" stroke-width="3.70383" stroke-miterlimit="10" stroke-linecap="round" stroke-linejoin="round"/>
<path d="M68.2071 127.659C68.2071 127.659 68.8873 126.243 70.3765 124.883C72.4172 123.026 74.7704 122.585 75.4506 116.426C76.1309 122.585 78.4841 123.026 80.5248 124.883C82.014 126.225 82.6942 127.659 82.6942 127.659" stroke="#484870" stroke-width="3.70383" stroke-miterlimit="10" stroke-linecap="round" stroke-linejoin="round"/>
<path d="M79.7894 124.276C79.7894 124.276 84.551 122.18 86.077 116.628C86.077 116.628 87.5661 120.783 86.941 124.938" stroke="#484870" stroke-width="3.70383" stroke-miterlimit="10" stroke-linecap="round" stroke-linejoin="round"/>
<path d="M71.1119 124.276C71.1119 124.276 66.3502 122.18 64.8243 116.628C64.8243 116.628 63.3352 120.783 63.9602 124.938" stroke="#484870" stroke-width="3.70383" stroke-miterlimit="10" stroke-linecap="round" stroke-linejoin="round"/>
<path d="M125.696 132.329C129.888 127.586 138.547 127.457 140.716 119.294C140.716 119.294 141.672 124.037 145 125.343C148.327 126.648 148.199 128.137 146.084 130.306C143.97 132.476 134.76 135.178 125.696 132.329Z" stroke="#484870" stroke-width="3.70383" stroke-miterlimit="10" stroke-linecap="round" stroke-linejoin="round"/>
<path d="M125.696 132.329C121.504 127.586 112.845 127.457 110.676 119.294C110.676 119.294 109.72 124.037 106.392 125.343C103.064 126.648 103.193 128.137 105.307 130.307C107.422 132.476 116.632 135.178 125.696 132.329Z" stroke="#484870" stroke-width="3.70383" stroke-miterlimit="10" stroke-linecap="round" stroke-linejoin="round"/>
<path d="M118.452 127.659C118.452 127.659 119.133 126.243 120.622 124.883C122.662 123.026 125.016 122.585 125.696 116.426C126.376 122.585 128.729 123.026 130.77 124.883C132.259 126.225 132.939 127.659 132.939 127.659" stroke="#484870" stroke-width="3.70383" stroke-miterlimit="10" stroke-linecap="round" stroke-linejoin="round"/>
<path d="M130.035 124.276C130.035 124.276 134.796 122.18 136.322 116.628C136.322 116.628 137.811 120.783 137.186 124.938" stroke="#484870" stroke-width="3.70383" stroke-miterlimit="10" stroke-linecap="round" stroke-linejoin="round"/>
<path d="M121.357 124.276C121.357 124.276 116.596 122.18 115.07 116.628C115.07 116.628 113.58 120.783 114.206 124.938" stroke="#484870" stroke-width="3.70383" stroke-miterlimit="10" stroke-linecap="round" stroke-linejoin="round"/>
<path d="M103.3 129.782V135.338C105.563 136.984 113.424 140.276 126.757 140.276C140.091 140.276 146.305 136.778 148.363 135.338V131.017" stroke="#484870" stroke-width="3.70383" stroke-linecap="round"/>
<path d="M52.6808 129.782V135.338C54.9442 136.984 62.8046 140.276 76.1384 140.276C89.4722 140.276 95.6864 136.778 97.7441 135.338V131.017" stroke="#484870" stroke-width="3.70383" stroke-linecap="round"/>
<path d="M2.06174 129.782V135.338C4.32519 136.984 12.1855 140.276 25.5193 140.276C38.8531 140.276 45.0673 136.778 47.125 135.338V131.017" stroke="#484870" stroke-width="3.70383" stroke-linecap="round"/>
</g>
<defs>
<clipPath id="clip0_75_690">
<rect width="150" height="142" fill="white"/>
</clipPath>
</defs>
</svg>
