<svg width="150" height="136" viewBox="0 0 150 136" fill="none" xmlns="http://www.w3.org/2000/svg">
<g clip-path="url(#clip0_75_598)">
<g filter="url(#filter0_d_75_598)">
<path d="M88.7445 102.671C97.9176 98.4924 98.5739 89.3673 98.5739 89.3673M98.5739 89.3673C92.2824 88.855 85.7828 87.9105 80.676 83.9883C80.1637 83.5881 79.6514 83.1559 79.1551 82.6916C78.5628 82.1473 77.6663 82.1473 77.09 82.6916C76.5937 83.1559 76.0974 83.5881 75.5691 83.9883M98.5739 89.3673C109.972 84.4046 111.701 77.5044 112.005 72.8938C112.278 68.9877 108.499 70.5725 103.905 66.8905C101.44 64.9214 100.319 63.2725 99.6145 62.408C99.2783 61.9918 98.638 62.0718 98.4138 62.5681C97.2772 65.1295 94.2355 71.453 90.3453 75.4072C85.3986 80.4341 81.7966 82.4192 80.6599 83.988M75.5691 83.9883C70.4623 87.9105 63.9626 88.855 57.6551 89.3673M75.5691 83.9883C74.4325 82.4195 70.8304 80.4341 65.8836 75.4073C61.9934 71.4531 58.9517 65.1295 57.8151 62.5681C57.591 62.0718 56.9506 61.9918 56.6144 62.408C55.91 63.2725 54.7894 64.9214 52.324 66.8905C47.7295 70.5726 43.9514 68.9877 44.2235 72.8939C44.5277 77.5044 46.2568 84.4046 57.6551 89.3673M57.6551 89.3673C57.6551 89.3673 58.2955 98.4924 67.4846 102.671M88.8885 34.6811C89.721 34.2008 91.0017 33.7205 92.7147 33.2242C97.2452 31.9595 98.4619 30.4067 100.543 27.9573C100.767 27.6852 100.975 27.461 101.183 27.2529C102.16 26.2123 102.736 26.1323 103.633 27.5731M103.633 27.5731C104.145 28.4056 104.769 29.7503 105.65 31.7194C107.107 34.9852 108.451 38.6033 109.268 42.1572C109.732 44.0943 110.02 46.0154 110.1 47.8564V47.8724C110.148 48.897 110.132 49.8895 110.02 50.8501C109.38 56.5973 105.81 59.0627 103.793 54.8523C103.777 54.8363 103.777 54.8363 103.777 54.8363M103.633 27.5731C106.578 25.1557 114.022 26.164 117.672 24.0828C119.546 23.0102 120.25 19.0881 121.387 20.737C122.523 22.4019 122.251 22.8021 125.773 35.097C129.295 47.3919 124.7 51.1059 122.059 52.7709M109.268 42.1727C109.94 41.9646 111.061 41.8845 112.422 41.3562C114.119 40.6839 115.623 38.7948 116.424 37.6422C116.712 37.2099 117.368 37.2259 117.624 37.6742C123.692 47.9519 122.683 58.7099 119.642 64.5692C116.504 70.6046 112.422 67.2587 112.534 62.7282C112.614 59.3503 111.429 52.9307 110.084 47.8559M81.3642 25.1236C83.2533 24.2591 85.1744 23.4427 87.4636 21.6497C91.674 18.3518 93.467 13.309 95.0519 16.0465C96.6528 18.768 98.6859 23.0584 101.199 27.2528M85.0143 13.2925C89.6569 12.1879 94.1234 11.3394 98.9101 7.72139C106.082 2.29436 104.449 0.357285 108.403 8.40978C112.342 16.4463 114.247 16.7985 118.153 23.7303M126.013 36.0097C130.784 37.2424 137.988 41.0526 140.661 39.996C143.335 38.9394 145.096 35.4815 146.409 39.6118C147.721 43.7421 150.059 56.3731 145.736 67.3872C141.414 78.4014 136.275 80.6426 131.584 82.5477M119.225 65.322C118.281 67.3071 113.894 74.6071 110.116 79.8741C110.116 79.8901 110.1 79.8901 110.1 79.9061M121.499 59.1742C125.821 57.2691 129.151 56.1164 130.4 61.2873C131.648 66.4582 130.336 77.2322 126.013 82.6753C124.925 84.036 122.924 85.0606 120.554 85.765M114.599 86.9341C108.98 87.4944 103.953 86.7099 105.986 84.9009C106.018 84.8689 106.05 84.8529 106.082 84.8209M83.7176 65.9619C90.1051 60.2467 94.1714 55.6361 94.7637 48.224C95.3561 40.8278 96.7809 42.3487 101.183 49.0404C105.746 55.9723 104.545 63.4965 103.633 66.6502M67.3565 34.6811C66.5241 34.2008 65.2433 33.7205 63.5304 33.2243C58.9999 31.9595 57.7832 30.4067 55.702 27.9573C55.4779 27.6852 55.2698 27.461 55.0617 27.2529C54.0851 26.2123 53.5088 26.1323 52.6123 27.5731M52.6123 27.5731C52.1 28.4056 51.4757 29.7503 50.5952 31.7194C49.1384 34.9852 47.7936 38.6033 46.9772 42.1572C46.5129 44.0943 46.2247 46.0154 46.1447 47.8564V47.8724M52.6123 27.5731C49.6667 25.1558 42.2225 26.164 38.5724 24.0828C36.6994 23.0102 35.995 19.0721 34.8584 20.737C33.7217 22.4019 33.9939 22.8021 30.4719 35.097C26.9499 47.3919 31.5445 51.1059 34.186 52.7709M46.1447 47.8724C46.0967 48.897 46.1127 49.8896 46.2247 50.8501C46.8651 56.5973 50.4351 59.0627 52.4522 54.8523C52.4682 54.8363 52.4682 54.8363 52.4682 54.8363M46.1447 47.8724L46.1446 47.8883C44.7998 52.9631 43.6152 59.3667 43.6952 62.7445C43.8073 67.067 40.0932 70.3008 37.0195 65.338V65.322M46.961 42.1731C46.2886 41.965 45.168 41.8849 43.8073 41.3566C42.1103 40.6842 40.6055 38.7952 39.805 37.6425C39.5169 37.2103 38.8605 37.2263 38.6044 37.6746C34.0898 45.3108 33.4975 53.2192 34.7302 59.1746C35.1624 61.2397 35.8028 63.0647 36.5872 64.5696C36.7313 64.8417 36.8754 65.0818 37.0195 65.322M37.0195 65.322C37.964 67.3071 42.3505 74.5911 46.1286 79.8741C46.1286 79.8901 46.1446 79.8901 46.1446 79.9061M55.0455 27.2528C57.5589 23.0745 59.592 18.7841 61.1929 16.0465C62.7778 13.309 64.5708 18.3518 68.7812 21.6497C71.0705 23.4266 72.9915 24.2431 74.8806 25.1236M38.0922 23.7303C41.9984 16.7985 43.9034 16.4463 47.8416 8.40978C51.7958 0.357286 50.1469 2.29437 57.3349 7.72139C62.1216 11.3394 66.5881 12.1719 71.2307 13.2925M65.8036 18.704C68.5891 14.4136 75.2168 11.3559 77.6022 5.97686C77.7943 5.52861 78.4346 5.52861 78.6267 5.97686C81.0121 11.3719 87.6398 14.4136 90.4253 18.704M67.8208 49.8573C70.1581 45.5669 75.6972 42.5092 77.6983 37.1302C77.8584 36.6819 78.3867 36.6819 78.5628 37.1302C80.5639 42.5252 86.103 45.5669 88.4403 49.8573M30.2158 36.0097C25.4451 37.2424 18.2411 41.0526 15.5676 39.996C12.8941 38.9394 11.1331 35.4815 9.8204 39.6118C8.50767 43.7421 6.17037 56.3731 10.4928 67.3873C14.8152 78.4014 19.9541 80.6426 24.6447 82.5477M35.6748 85.7811C33.3215 85.0607 31.3043 84.0361 30.2157 82.6914C25.8933 77.2483 24.5806 66.4743 25.8293 61.3034C27.078 56.1326 30.3918 57.2852 34.7302 59.1903M50.1628 84.8206C50.1948 84.8527 50.2268 84.8847 50.2589 84.9007C52.276 86.6937 47.2652 87.4941 41.646 86.9338M93.7071 47.4076C94.1553 47.2315 94.2674 46.5431 93.9953 45.0703C93.7711 43.8856 93.3069 42.5729 92.6505 41.1801C92.1863 40.1555 91.6259 39.0669 90.9696 37.9783C90.5053 37.2099 90.025 36.4254 89.4967 35.625C89.2886 35.3208 89.0805 35.0167 88.8724 34.6965C86.7272 31.5747 84.2298 28.437 81.8445 25.6995H81.8285C81.6684 25.5073 81.4923 25.3313 81.3482 25.1391C80.4037 24.0986 79.5232 23.122 78.6587 22.2415C78.3545 21.9213 77.8423 21.9374 77.5541 22.2575C76.8497 22.994 75.649 24.2747 74.8646 25.1391C74.7045 25.3313 74.5444 25.5073 74.3843 25.6995H74.3683C71.983 28.421 69.4696 31.5747 67.3404 34.6965C67.1323 35.0167 66.9242 35.3208 66.716 35.625C66.2038 36.4254 65.7075 37.2099 65.2432 37.9783C64.6029 39.0829 64.0265 40.1555 63.5623 41.1801C62.9219 42.5729 62.4417 43.8856 62.2175 45.0703C61.9294 46.5431 62.0414 47.2315 62.4897 47.4076M62.986 71.8856C68.365 69.6604 74.5285 64.4735 77.0099 62.2802C77.6342 61.7199 78.5627 61.7359 79.1871 62.2962C83.0452 65.8662 88.6003 69.4202 93.2589 71.8856M52.6122 66.6668C51.9398 64.3616 51.1394 59.799 52.4521 54.8362C52.9644 52.9312 53.7809 50.9621 55.0456 49.041C58.2474 44.1903 59.8643 42.0451 60.7448 44.0782C61.0809 44.8307 61.3051 46.2074 61.4652 48.2246C61.4812 48.3686 61.4972 48.5127 61.5132 48.6408C62.2176 55.7968 66.2518 60.3433 72.5113 65.9464M61.5132 48.6571C64.2667 44.8149 69.2935 42.0294 75.2008 41.341M81.0441 41.3406C86.9674 42.045 91.9782 44.8306 94.7318 48.6727M78.1145 112.116C85.9268 112.116 101.071 124.763 120.474 111.508C133.297 102.719 133.457 89.6715 131.392 81.8591C131.216 81.2187 130.464 80.9306 129.903 81.2988C129.135 81.8271 127.998 82.7076 126.59 84.0843C123.868 86.7578 121.755 86.5817 118.185 84.7407C114.839 82.9957 106.899 103.695 78.1145 103.695C49.3304 103.695 41.39 82.9957 38.0441 84.7407C34.4741 86.5817 32.3609 86.7578 29.6394 84.0843C28.2306 82.7076 27.094 81.8271 26.3256 81.2988C25.7653 80.9306 25.0128 81.2188 24.8367 81.8591C22.7716 89.6715 22.9317 102.735 35.7548 111.508C55.1577 124.763 70.3021 112.116 78.1145 112.116Z" stroke="#484870" stroke-width="4" stroke-miterlimit="10" stroke-linecap="round" stroke-linejoin="round" shape-rendering="crispEdges"/>
</g>
<g filter="url(#filter1_d_75_598)">
<path d="M148.5 65.5C148.5 100.662 115.79 129.5 75 129.5C34.2098 129.5 1.5 100.662 1.5 65.5C1.5 30.3381 34.2098 1.5 75 1.5C115.79 1.5 148.5 30.3381 148.5 65.5Z" stroke="#484870" stroke-width="3" shape-rendering="crispEdges"/>
</g>
</g>
<defs>
<filter id="filter0_d_75_598" x="1.99988" y="0.999756" width="152.229" height="126.561" filterUnits="userSpaceOnUse" color-interpolation-filters="sRGB">
<feFlood flood-opacity="0" result="BackgroundImageFix"/>
<feColorMatrix in="SourceAlpha" type="matrix" values="0 0 0 0 0 0 0 0 0 0 0 0 0 0 0 0 0 0 127 0" result="hardAlpha"/>
<feOffset dy="4"/>
<feGaussianBlur stdDeviation="2"/>
<feComposite in2="hardAlpha" operator="out"/>
<feColorMatrix type="matrix" values="0 0 0 0 0 0 0 0 0 0 0 0 0 0 0 0 0 0 0.25 0"/>
<feBlend mode="normal" in2="BackgroundImageFix" result="effect1_dropShadow_75_598"/>
<feBlend mode="normal" in="SourceGraphic" in2="effect1_dropShadow_75_598" result="shape"/>
</filter>
<filter id="filter1_d_75_598" x="-4" y="0" width="158" height="139" filterUnits="userSpaceOnUse" color-interpolation-filters="sRGB">
<feFlood flood-opacity="0" result="BackgroundImageFix"/>
<feColorMatrix in="SourceAlpha" type="matrix" values="0 0 0 0 0 0 0 0 0 0 0 0 0 0 0 0 0 0 127 0" result="hardAlpha"/>
<feOffset dy="4"/>
<feGaussianBlur stdDeviation="2"/>
<feComposite in2="hardAlpha" operator="out"/>
<feColorMatrix type="matrix" values="0 0 0 0 0 0 0 0 0 0 0 0 0 0 0 0 0 0 0.25 0"/>
<feBlend mode="normal" in2="BackgroundImageFix" result="effect1_dropShadow_75_598"/>
<feBlend mode="normal" in="SourceGraphic" in2="effect1_dropShadow_75_598" result="shape"/>
</filter>
<clipPath id="clip0_75_598">
<rect width="150" height="136" fill="white"/>
</clipPath>
</defs>
</svg>
