<svg width="156" height="156" viewBox="0 0 156 156" fill="none" xmlns="http://www.w3.org/2000/svg">
<g clip-path="url(#clip0_75_609)">
<path d="M84.0492 147.618C45.9618 147.618 15 116.539 15 78.3088C15 40.0782 45.9618 9 84.0492 9C106.183 9 127.118 19.7603 140.108 37.7995L135.001 41.4707C123.209 25.0771 104.165 15.3296 84.0492 15.3296C49.43 15.3296 21.3059 43.5595 21.3059 78.3088C21.3059 113.058 49.493 141.288 84.0492 141.288C104.291 141.288 123.461 131.414 135.19 114.767L140.297 118.438C127.37 136.731 106.372 147.618 84.0492 147.618Z" fill="#484870"/>
<path d="M142 43.4337L116.966 39.636L117.975 33.3697L134.937 35.9648L133.298 20.0776L139.541 19.3813L142 43.4337Z" fill="#484870"/>
<path d="M86.2562 30.458H79.9503V44.2565H86.2562V30.458Z" fill="#484870"/>
<path d="M86.2562 115.082H79.9503V128.881H86.2562V115.082Z" fill="#484870"/>
<path d="M47.8535 76.4741H34.1068V82.8037H47.8535V76.4741Z" fill="#484870"/>
<path d="M132.163 76.4741H118.416V82.8037H132.163V76.4741Z" fill="#484870"/>
<path d="M71.6266 102.867H65.3207V69.0041L60.6544 71.7891L57.4384 66.3457L71.6266 57.8008V102.867Z" fill="#484870"/>
<path d="M93.3817 72.675C92.4989 72.675 91.6792 72.7383 90.8594 72.8649L92.0575 65.5859H106.057V59.2563H86.6975L83.0401 80.9035L85.6886 82.8657C86.4453 81.8529 87.3912 80.9668 88.4632 80.3338C89.9135 79.4477 91.6161 79.0046 93.3817 79.0046C98.6156 79.0046 102.904 83.3087 102.904 88.5623C102.904 93.8158 98.6156 98.1199 93.3817 98.1199C90.2919 98.1199 87.3912 96.6008 85.6255 94.069L85.5625 94.1323L82.3465 99.8922C85.2472 102.741 89.2199 104.449 93.3817 104.449C102.084 104.449 109.209 97.2971 109.209 88.5623C109.209 79.8275 102.084 72.675 93.3817 72.675Z" fill="#484870"/>
</g>
<defs>
<clipPath id="clip0_75_609">
<rect width="127" height="138.618" fill="white" transform="translate(15 9)"/>
</clipPath>
</defs>
</svg>
