<svg width="156" height="156" viewBox="0 0 156 156" fill="none" xmlns="http://www.w3.org/2000/svg">
<path d="M124.402 44.3133L121.123 41.0487M131.323 51.2065L128.044 47.9419M128.044 44.3133L131.323 41.0487M121.123 51.2065L124.402 47.9419M111.944 15.078L108.666 11.8134M118.938 21.9712L115.66 18.7066M115.66 15.078L118.938 11.8134M108.666 21.9712L111.944 18.7066M104.95 66.1516L101.672 62.887M111.944 73.1159L108.666 69.8513M108.666 66.1516L111.944 62.887M101.672 73.1159L104.95 69.8513M62.6237 105.254C49.5832 112.944 37.8541 112.871 37.8541 112.871C29.5491 129.049 25.9794 143.704 25.9794 143.704C25.9794 143.704 24.668 124.696 40.1854 94.8068C55.7756 64.9898 75.7369 53.3097 83.4592 32.5611C82.9492 33.1415 66.2662 51.4237 51.9873 66.5135C39.3112 79.8622 32.3174 92.6306 27.2178 107.793C23.9395 103.368 20.0055 94.7345 22.1182 80.5152C28.3106 39.4533 83.3135 24.9439 87.6846 5.64624C113.62 27.7732 94.6054 72.535 77.5582 92.558M71.3658 98.0701H84.4791C85.7904 98.0701 86.8832 99.1583 86.8832 100.464C86.8832 101.77 85.7904 102.858 84.4791 102.858H73.5514V109.097H82.5121C83.8235 109.097 84.9162 110.186 84.9162 111.491C84.9162 112.797 83.8235 113.885 82.5121 113.885H73.5514V120.27H84.4791C85.7904 120.27 86.8832 121.358 86.8832 122.664C86.8832 123.97 85.7904 125.058 84.4791 125.058H71.3658C69.6174 125.058 68.1604 123.607 68.1604 121.866V101.117C68.1604 99.5211 69.6174 98.0701 71.3658 98.0701ZM108.229 102.568C107.573 103.656 106.189 104.019 105.023 103.511C104.732 103.366 104.44 103.293 104.149 103.221C103.202 102.931 102.255 102.786 101.308 102.786C100.725 102.786 100.069 102.858 99.4865 103.076C98.9037 103.221 98.3209 103.511 97.8838 103.946C97.4467 104.309 97.0096 104.817 96.7182 105.47C96.4268 106.123 96.2811 106.848 96.2811 107.719V115.626C96.2811 116.497 96.4268 117.295 96.7182 117.875C97.0096 118.456 97.4467 118.964 97.8838 119.399C98.3938 119.762 98.9037 120.052 99.4865 120.269C100.069 120.487 100.652 120.56 101.308 120.56C102.255 120.56 103.129 120.415 104.076 120.197C104.368 120.124 104.732 119.979 105.023 119.834C106.189 119.326 107.5 119.689 108.156 120.777C108.957 122.083 108.447 123.679 107.063 124.332C106.626 124.55 106.189 124.695 105.752 124.84C104.295 125.275 102.765 125.565 101.162 125.565C99.8508 125.565 98.6123 125.348 97.3738 124.985C96.1354 124.622 95.0426 124.042 94.0227 123.389C93.0756 122.664 92.2742 121.793 91.6914 120.705C91.1086 119.617 90.8172 118.311 90.8172 116.86V106.703C90.8172 105.252 91.1086 104.019 91.6914 102.931C92.2742 101.842 93.0756 100.899 94.0227 100.174C94.9697 99.4484 96.0625 98.868 97.301 98.5053C98.5395 98.1425 99.7779 97.9249 101.089 97.9249C102.692 97.9249 104.222 98.1425 105.679 98.5778C106.116 98.7229 106.626 98.868 106.99 99.0857C108.447 99.5935 109.03 101.262 108.229 102.568ZM133.727 116.498C133.727 117.949 133.435 119.255 132.925 120.343C132.343 121.432 131.614 122.375 130.667 123.1C129.72 123.826 128.627 124.406 127.316 124.841C126.077 125.204 124.693 125.422 123.309 125.422C121.925 125.422 120.541 125.204 119.302 124.841C118.064 124.479 116.898 123.898 115.951 123.1C115.004 122.375 114.275 121.432 113.693 120.343C113.11 119.255 112.891 117.949 112.891 116.498V106.559C112.891 105.108 113.183 103.875 113.765 102.714C114.348 101.626 115.15 100.683 116.097 99.9575C117.044 99.2321 118.209 98.6517 119.448 98.2889C120.686 97.9262 121.998 97.7086 123.382 97.7086C124.766 97.7086 126.004 97.9262 127.316 98.2889C128.554 98.6517 129.72 99.2321 130.667 100.03C131.614 100.756 132.415 101.699 132.998 102.787C133.581 103.875 133.872 105.181 133.872 106.632L133.727 116.498ZM128.336 107.648C128.336 106.777 128.19 105.979 127.899 105.399C127.607 104.818 127.243 104.31 126.733 103.875C126.296 103.512 125.713 103.222 125.13 103.005C124.547 102.787 123.892 102.714 123.309 102.714C122.726 102.714 122.071 102.787 121.488 103.005C120.905 103.222 120.322 103.44 119.885 103.875C119.448 104.238 119.011 104.746 118.719 105.399C118.428 105.979 118.282 106.777 118.282 107.648V115.555C118.282 116.426 118.428 117.224 118.719 117.804C119.011 118.457 119.375 118.965 119.885 119.328C120.322 119.69 120.905 119.981 121.488 120.198C122.071 120.343 122.726 120.488 123.309 120.488C123.965 120.488 124.547 120.416 125.13 120.198C125.713 120.053 126.223 119.763 126.733 119.328C127.17 118.965 127.607 118.457 127.899 117.804C128.19 117.151 128.336 116.426 128.336 115.555V107.648Z" stroke="#484870" stroke-width="3.528" stroke-miterlimit="10" stroke-linecap="round" stroke-linejoin="round"/>
</svg>
