<svg width="156" height="138" viewBox="0 0 156 138" fill="none" xmlns="http://www.w3.org/2000/svg">
<circle cx="43.2882" cy="114.453" r="20.7295" stroke="#484870" stroke-width="3.65815"/>
<circle cx="79.8699" cy="14.4638" r="12.1938" stroke="#484870" stroke-width="3.65815"/>
<path d="M111.574 65.8795C106.306 65.8795 102.018 70.1683 102.018 75.4367C102.018 80.7051 106.306 84.9939 111.574 84.9939C116.842 84.9939 121.13 80.7051 121.13 75.4367C121.13 70.1601 116.842 65.8795 111.574 65.8795Z" fill="#484870"/>
<path d="M111.574 93.1187C101.82 93.1187 93.8936 85.1832 93.8936 75.4285C93.8936 65.6738 101.828 57.7465 111.574 57.7465C121.328 57.7465 129.262 65.682 129.262 75.4285C129.262 85.175 121.319 93.1187 111.574 93.1187ZM111.574 62.6856C104.545 62.6856 98.8322 68.4067 98.8322 75.4285C98.8322 82.4502 104.553 88.1796 111.574 88.1796C118.603 88.1796 124.324 82.4585 124.324 75.4285C124.324 68.3985 118.595 62.6856 111.574 62.6856Z" fill="#484870"/>
<path d="M111.574 101.243C97.3424 101.243 85.7613 89.6613 85.7613 75.4285C85.7613 61.1956 97.3424 49.6134 111.574 49.6134C125.805 49.6134 137.386 61.1956 137.386 75.4285C137.386 89.6613 125.805 101.243 111.574 101.243ZM111.574 53.7376C99.6141 53.7376 89.8768 63.4676 89.8768 75.4367C89.8768 87.4058 99.6059 97.1358 111.574 97.1358C123.542 97.1358 133.271 87.4058 133.271 75.4367C133.271 63.4676 123.533 53.7376 111.574 53.7376Z" fill="#484870"/>
<path d="M111.574 109.377C92.8565 109.377 77.6373 94.1477 77.6373 75.4367C77.6373 56.7175 92.8647 41.4969 111.574 41.4969C130.291 41.4969 145.51 56.7257 145.51 75.4367C145.51 94.1477 130.283 109.377 111.574 109.377ZM111.574 44.7814C94.6755 44.7814 80.9297 58.5285 80.9297 75.4285C80.9297 92.3284 94.6755 106.076 111.574 106.076C128.472 106.076 142.218 92.3284 142.218 75.4285C142.218 58.5285 128.472 44.7814 111.574 44.7814Z" fill="#484870"/>
<path d="M111.574 117.501C88.3788 117.501 69.505 98.634 69.505 75.4367C69.505 52.2394 88.3788 33.3638 111.574 33.3638C134.769 33.3638 153.643 52.2394 153.643 75.4367C153.643 98.634 134.769 117.501 111.574 117.501ZM111.574 35.8334C89.7369 35.8334 71.9743 53.5977 71.9743 75.4367C71.9743 97.2758 89.7369 115.04 111.574 115.04C133.411 115.04 151.173 97.2758 151.173 75.4367C151.165 53.5977 133.402 35.8334 111.574 35.8334Z" fill="#484870"/>
<path d="M29.2653 45.2859C25.7534 45.2859 22.8945 48.1451 22.8945 51.6573C22.8945 55.1696 25.7534 58.0288 29.2653 58.0288C32.7772 58.0288 35.6362 55.1696 35.6362 51.6573C35.6362 48.1396 32.7772 45.2859 29.2653 45.2859Z" fill="#484870"/>
<path d="M29.2653 63.4453C22.7628 63.4453 17.4785 58.155 17.4785 51.6518C17.4785 45.1487 22.7683 39.8639 29.2653 39.8639C35.7678 39.8639 41.0577 45.1542 41.0577 51.6518C41.0577 58.1495 35.7624 63.4453 29.2653 63.4453ZM29.2653 43.1566C24.5791 43.1566 20.7709 46.9707 20.7709 51.6518C20.7709 56.333 24.5846 60.1526 29.2653 60.1526C33.9515 60.1526 37.7652 56.3385 37.7652 51.6518C37.7652 46.9652 33.946 43.1566 29.2653 43.1566Z" fill="#484870"/>
<path d="M29.2653 68.8619C19.7777 68.8619 12.057 61.1404 12.057 51.6518C12.057 42.1633 19.7777 34.4418 29.2653 34.4418C38.753 34.4418 46.4737 42.1633 46.4737 51.6518C46.4737 61.1404 38.753 68.8619 29.2653 68.8619ZM29.2653 37.1912C21.2922 37.1912 14.8007 43.6779 14.8007 51.6573C14.8007 59.6367 21.2867 66.1234 29.2653 66.1234C37.2439 66.1234 43.73 59.6367 43.73 51.6573C43.73 43.6779 37.2385 37.1912 29.2653 37.1912Z" fill="#484870"/>
<path d="M29.2653 74.2839C16.7871 74.2839 6.64099 64.1313 6.64099 51.6573C6.64099 39.1779 16.7926 29.0308 29.2653 29.0308C41.7436 29.0308 51.8897 39.1834 51.8897 51.6573C51.8897 64.1313 41.7381 74.2839 29.2653 74.2839ZM29.2653 31.2204C17.9998 31.2204 8.83593 40.3852 8.83593 51.6518C8.83593 62.9185 17.9998 72.0832 29.2653 72.0832C40.5309 72.0832 49.6947 62.9185 49.6947 51.6518C49.6947 40.3852 40.5309 31.2204 29.2653 31.2204Z" fill="#484870"/>
<path d="M29.2653 79.7004C13.802 79.7004 1.21948 67.1222 1.21948 51.6573C1.21948 36.1925 13.802 23.6087 29.2653 23.6087C44.7287 23.6087 57.3112 36.1925 57.3112 51.6573C57.3112 67.1222 44.7287 79.7004 29.2653 79.7004ZM29.2653 25.2551C14.7074 25.2551 2.86569 37.098 2.86569 51.6573C2.86569 66.2167 14.7074 78.0596 29.2653 78.0596C43.8233 78.0596 55.665 66.2167 55.665 51.6573C55.6595 37.098 43.8178 25.2551 29.2653 25.2551Z" fill="#484870"/>
</svg>
