<svg width="117" height="142" viewBox="0 0 117 142" fill="none" xmlns="http://www.w3.org/2000/svg">
<g clip-path="url(#clip0_75_691)">
<path d="M105.402 40.3133L102.123 37.0487M112.323 47.2065L109.044 43.9419M109.044 40.3133L112.323 37.0487M102.123 47.2065L105.402 43.9419M92.9441 11.078L89.6658 7.81336M99.9379 17.9712L96.6596 14.7066M96.6596 11.078L99.9379 7.81336M89.6658 17.9712L92.9441 14.7066M85.9503 62.1516L82.672 58.887M92.9441 69.1159L89.6658 65.8513M89.6658 62.1516L92.9441 58.887M82.672 69.1159L85.9503 65.8513M43.6237 101.254C30.5832 108.944 18.8541 108.871 18.8541 108.871C10.5491 125.049 6.97935 139.704 6.97935 139.704C6.97935 139.704 5.66802 120.696 21.1854 90.8068C36.7756 60.9898 56.7369 49.3097 64.4592 28.5611C63.9492 29.1415 47.2662 47.4237 32.9873 62.5135C20.3112 75.8622 13.3174 88.6306 8.21781 103.793C4.93949 99.3676 1.00551 90.7345 3.1182 76.5152C9.31058 35.4533 64.3135 20.9439 68.6846 1.64624C94.6197 23.7732 75.6054 68.535 58.5582 88.558M52.3658 94.0701H65.4791C66.7904 94.0701 67.8832 95.1583 67.8832 96.4642C67.8832 97.77 66.7904 98.8582 65.4791 98.8582H54.5514V105.097H63.5121C64.8235 105.097 65.9162 106.186 65.9162 107.491C65.9162 108.797 64.8235 109.885 63.5121 109.885H54.5514V116.27H65.4791C66.7904 116.27 67.8832 117.358 67.8832 118.664C67.8832 119.97 66.7904 121.058 65.4791 121.058H52.3658C50.6174 121.058 49.1604 119.607 49.1604 117.866V97.1171C49.1604 95.5211 50.6174 94.0701 52.3658 94.0701ZM89.2287 98.5679C88.573 99.6561 87.1889 100.019 86.0232 99.511C85.7318 99.3659 85.4404 99.2934 85.149 99.2209C84.202 98.9307 83.2549 98.7856 82.3078 98.7856C81.725 98.7856 81.0693 98.8581 80.4865 99.0758C79.9037 99.2209 79.3209 99.511 78.8838 99.9463C78.4467 100.309 78.0096 100.817 77.7182 101.47C77.4268 102.123 77.2811 102.848 77.2811 103.719V111.626C77.2811 112.497 77.4268 113.295 77.7182 113.875C78.0096 114.456 78.4467 114.964 78.8838 115.399C79.3938 115.762 79.9037 116.052 80.4865 116.269C81.0693 116.487 81.6521 116.56 82.3078 116.56C83.2549 116.56 84.1291 116.415 85.0762 116.197C85.3676 116.124 85.7318 115.979 86.0232 115.834C87.1889 115.326 88.5002 115.689 89.1559 116.777C89.9572 118.083 89.4473 119.679 88.0631 120.332C87.626 120.55 87.1889 120.695 86.7518 120.84C85.2947 121.275 83.7648 121.565 82.1621 121.565C80.8508 121.565 79.6123 121.348 78.3738 120.985C77.1354 120.622 76.0426 120.042 75.0227 119.389C74.0756 118.664 73.2742 117.793 72.6914 116.705C72.1086 115.617 71.8172 114.311 71.8172 112.86V102.703C71.8172 101.252 72.1086 100.019 72.6914 98.9307C73.2742 97.8425 74.0756 96.8993 75.0227 96.1739C75.9697 95.4484 77.0625 94.868 78.301 94.5053C79.5395 94.1425 80.7779 93.9249 82.0893 93.9249C83.692 93.9249 85.2219 94.1425 86.6789 94.5778C87.116 94.7229 87.626 94.868 87.9902 95.0857C89.4473 95.5935 90.0301 97.2621 89.2287 98.5679ZM114.727 112.498C114.727 113.949 114.435 115.255 113.925 116.343C113.343 117.432 112.614 118.375 111.667 119.1C110.72 119.826 109.627 120.406 108.316 120.841C107.077 121.204 105.693 121.422 104.309 121.422C102.925 121.422 101.541 121.204 100.302 120.841C99.0637 120.479 97.898 119.898 96.951 119.1C96.0039 118.375 95.2754 117.432 94.6926 116.343C94.1098 115.255 93.8912 113.949 93.8912 112.498V102.559C93.8912 101.108 94.1826 99.8751 94.7654 98.7143C95.3482 97.6261 96.1496 96.683 97.0967 95.9575C98.0437 95.2321 99.2094 94.6517 100.448 94.2889C101.686 93.9262 102.998 93.7086 104.382 93.7086C105.766 93.7086 107.004 93.9262 108.316 94.2889C109.554 94.6517 110.72 95.2321 111.667 96.0301C112.614 96.7556 113.415 97.6987 113.998 98.7869C114.581 99.8751 114.872 101.181 114.872 102.632L114.727 112.498ZM109.336 103.648C109.336 102.777 109.19 101.979 108.899 101.399C108.607 100.818 108.243 100.31 107.733 99.8751C107.296 99.5124 106.713 99.2222 106.13 99.0045C105.547 98.7869 104.892 98.7143 104.309 98.7143C103.726 98.7143 103.071 98.7869 102.488 99.0045C101.905 99.2222 101.322 99.4398 100.885 99.8751C100.448 100.238 100.011 100.746 99.7193 101.399C99.4279 101.979 99.2822 102.777 99.2822 103.648V111.555C99.2822 112.426 99.4279 113.224 99.7193 113.804C100.011 114.457 100.375 114.965 100.885 115.328C101.322 115.69 101.905 115.981 102.488 116.198C103.071 116.343 103.726 116.488 104.309 116.488C104.965 116.488 105.547 116.416 106.13 116.198C106.713 116.053 107.223 115.763 107.733 115.328C108.17 114.965 108.607 114.457 108.899 113.804C109.19 113.151 109.336 112.426 109.336 111.555V103.648Z" stroke="#484870" stroke-width="3.528" stroke-miterlimit="10" stroke-linecap="round" stroke-linejoin="round"/>
</g>
<defs>
<clipPath id="clip0_75_691">
<rect width="117" height="142" fill="white"/>
</clipPath>
</defs>
</svg>
