<svg width="138" height="141" viewBox="0 0 138 141" fill="none" xmlns="http://www.w3.org/2000/svg">
<g id="Frame 749 2" clip-path="url(#clip0_78_740)">
<path id="Union" fill-rule="evenodd" clip-rule="evenodd" d="M121.995 47.8711C127.338 60.1747 132.851 70.6337 135.576 75.3329C137.613 78.8451 138.044 82.7454 137.761 86.625C137.48 90.4901 136.479 94.4925 135.529 98.2939L135.518 98.3365L135.517 98.34C134.804 101.189 134.133 103.865 133.782 106.337C133.431 108.807 133.419 110.922 133.93 112.656L133.931 112.656C135.407 117.661 134.529 122.551 131.291 125.937C128.259 129.105 123.698 130.248 119.168 129.145C118.109 128.89 116.997 128.669 115.943 128.637C114.89 128.604 114.038 128.769 113.415 129.154C110.045 131.243 103.344 134.071 94.7338 136.375C86.0985 138.687 75.4565 140.497 64.1794 140.497C53.0286 140.5 41.2337 138.712 30.1321 133.885C25.5623 136.35 19.0557 137.657 12.7053 137.657C9.01173 137.657 5.31811 137.22 2.04548 136.289C1.32838 136.084 0.721859 135.603 0.359234 134.951C-0.00339148 134.3 -0.0924418 133.531 0.111657 132.814C0.31939 132.1 0.799718 131.497 1.44868 131.135C2.09763 130.773 2.86302 130.682 3.57916 130.88L3.22661 132.158L3.57916 130.881H3.58957C10.0233 132.714 17.8136 132.216 23.4366 130.547C21.1321 129.243 18.9077 127.802 16.7753 126.233C16.4774 126.014 16.2257 125.738 16.0345 125.421C15.8433 125.105 15.7165 124.754 15.6612 124.388C15.6059 124.023 15.6233 123.65 15.7124 123.291C15.8015 122.932 15.9605 122.594 16.1803 122.297L16.1819 122.298C16.6269 121.7 17.2901 121.302 18.0273 121.19C18.7645 121.079 19.5159 121.263 20.1178 121.703C35.2106 132.833 54.4031 135.613 71.6201 134.521C88.8669 133.424 103.87 128.454 110.445 124.378C113.764 122.319 117.771 123.016 120.503 123.683L120.504 123.679C123.25 124.348 125.651 123.679 127.219 122.042C128.898 120.288 129.491 117.514 128.53 114.244L128.509 114.25C127.732 111.612 127.759 108.778 128.143 105.895C128.524 103.031 129.275 100.026 130.025 97.0292L130.04 96.9695L130.041 96.9697C130.934 93.3981 131.81 89.8919 132.089 86.6295C132.369 83.3657 132.043 80.5067 130.682 78.1593C124.695 67.8312 108.159 35.4991 103.906 10.4753C103.698 9.25404 102.561 8.36151 101.191 8.48795L101.074 7.16848L101.191 8.48944C91.8628 9.31354 81.3324 7.72037 75.6484 5.67944C75.488 5.6173 75.3098 5.61889 75.1505 5.68389C74.9912 5.74889 74.8628 5.87237 74.7916 6.02901C73.3971 9.06634 71.1081 13.4855 68.2023 17.0724L68.2046 17.0743V17.0758L68.2016 17.0733C68.2001 17.0751 68.1987 17.0768 68.1973 17.0786L67.1664 16.2441L68.1958 17.0786C68.0471 17.2672 67.9663 17.5004 67.9663 17.7406C67.9663 17.9807 68.0471 18.2139 68.1958 18.4025L67.1426 19.1999L68.2002 18.3996C69.1969 19.716 70.5357 21.9489 71.5621 24.0761C72.5969 23.423 73.6991 22.8833 74.8496 22.4665C73.7928 21.618 72.9971 20.4882 72.5543 19.2073C72.3023 18.5066 72.3387 17.7345 72.6556 17.0607C72.9724 16.3868 73.5438 15.8663 74.2442 15.6134H74.2546C74.9553 15.3628 75.7268 15.4003 76.3999 15.7177C77.073 16.035 77.5929 16.6062 77.8456 17.3062C78.0449 17.8581 78.2829 18.0649 78.5075 18.1675C78.9122 18.315 79.3471 18.3599 79.7734 18.2984C79.9267 18.2835 80.0709 18.2612 80.2048 18.2374C80.0981 17.7782 79.9487 17.33 79.7586 16.8986C79.4366 16.2216 79.3968 15.4444 79.6479 14.7381C79.899 14.0317 80.4204 13.454 81.0974 13.1321C81.7744 12.8102 82.5515 12.7704 83.2579 13.0214C83.9642 13.2725 84.5419 13.7939 84.8639 14.4709C85.3151 15.4448 85.6468 16.4698 85.8516 17.5234C86.1551 19.0823 86.2533 21.1902 85.2744 23.124L84.0844 22.529L85.2625 23.124C84.5188 24.5863 82.93 26.3238 79.7541 26.9411L79.5057 25.6484V25.6841L79.7467 26.9411C77.7474 27.3249 76.1259 27.9036 74.9106 28.6087C73.6953 29.3138 73.0645 30.0516 72.8384 30.6764C72.6674 31.1569 72.712 31.6954 73.3234 32.4391C73.5877 32.786 73.9365 33.0595 74.3364 33.2335C74.707 33.3678 75.105 33.4087 75.4952 33.3525C76.5395 33.238 77.8485 32.7069 79.7377 31.8649L79.8416 31.8186C81.483 31.0854 83.2855 30.2802 85.1123 30.1141C88.5991 29.7958 90.1863 29.2037 90.9956 28.5923C91.7334 28.033 91.9729 27.3636 92.3716 26.0724C92.6379 25.1275 92.991 24.2092 93.4263 23.3293C93.7706 22.6672 94.3637 22.1689 95.0754 21.9441C95.787 21.7192 96.5588 21.7862 97.221 22.1304C97.549 22.3003 97.8403 22.5332 98.0782 22.8158C98.3161 23.0984 98.496 23.4251 98.6075 23.7773C98.719 24.1295 98.76 24.5002 98.728 24.8683C98.6961 25.2363 98.5919 25.5944 98.4215 25.9221L98.4197 25.9212C98.1425 26.501 97.9185 27.1048 97.7506 27.7251C97.2909 29.2126 96.7019 30.7478 95.4791 32.0702C96.5353 39.7356 94.4973 46.9265 92.4311 54.1888C89.337 65.0539 86.2979 75.8402 92.6661 89.1672C92.9853 89.8417 93.0235 90.6153 92.7725 91.318C92.5214 92.0206 92.0016 92.5949 91.3273 92.9144C90.6541 93.235 89.8812 93.2755 89.1782 93.027C88.4756 92.7787 87.9001 92.262 87.5778 91.5902L87.5772 91.5905C86.3123 88.9582 85.3113 86.2072 84.5887 83.3776C82.8765 82.2203 80.4027 81.3278 77.4276 80.7328C74.2516 80.1065 70.613 79.8477 66.9492 79.9235C63.4138 79.9871 59.8924 80.3856 56.4321 81.1136C54.0357 81.6342 51.9412 82.3051 50.3049 83.0846C52.8139 85.4525 55.0267 88.1158 56.8948 91.0163C57.0931 91.3279 57.2281 91.6756 57.292 92.0394C57.3559 92.4032 57.3474 92.7761 57.2672 93.1366C57.1869 93.4972 57.0364 93.8384 56.8242 94.1408C56.612 94.4431 56.3423 94.7007 56.0305 94.8988L55.3194 93.7801L55.9776 94.8177L56.0274 94.896L56.0273 94.8961L56.029 94.8988C55.3993 95.2996 54.6362 95.4339 53.9076 95.2721C53.1789 95.1103 52.5444 94.6657 52.1435 94.036C44.1538 81.4944 27.0722 72.9915 8.52232 72.6152C7.77608 72.5991 7.06669 72.2877 6.54989 71.7491C6.03309 71.2106 5.75112 70.4889 5.76587 69.7427L7.09129 69.7709H7.01988L5.76587 69.7442C5.76587 69.7437 5.76587 69.7432 5.76587 69.7427C5.76842 69.3724 5.84513 69.0064 5.99144 68.6662C6.13794 68.3256 6.35128 68.0178 6.61882 67.7611C6.88636 67.5044 7.20267 67.3039 7.54904 67.1716C7.89541 67.0393 8.26481 66.9778 8.63537 66.9907C22.5411 67.2748 35.8131 71.8015 45.7143 79.214C47.7225 77.9242 50.3272 76.8934 53.216 76.1154C56.5392 75.2214 60.3236 74.6382 64.1823 74.4002C70.921 73.9837 78.0627 74.607 83.4641 76.5929C82.7339 67.6813 84.9901 59.7448 87.0037 52.6616L87.0059 52.6536C88.7866 46.4058 90.3678 40.6936 90.0763 34.9873C88.6079 35.351 87.1125 35.5953 85.6047 35.7177L85.4842 34.3968L85.6032 35.7118C85.0823 35.7825 84.5725 35.919 84.0859 36.1179C83.4551 36.3544 82.7709 36.6594 82.0167 36.9955L81.4812 35.7921L82.0197 37.003L81.9064 37.0535C80.0828 37.8666 77.5859 38.9799 75.0519 38.9799C72.9098 38.9799 70.7722 38.193 68.9767 36.0301C67.2318 33.9312 66.6427 31.3874 67.4743 28.9181C67.3658 28.5488 67.2356 28.1862 67.0846 27.8322C66.8242 27.2089 66.4791 26.4651 66.0894 25.7213C65.3069 24.2055 64.3906 22.6837 63.7093 21.7912C62.7999 20.6004 62.3173 19.1385 62.3389 17.6404C62.3605 16.1423 62.885 14.6949 63.8283 13.5308C66.3348 10.4396 68.3877 6.48718 69.6803 3.67421C70.3375 2.23257 71.5147 1.09221 72.9765 0.481283C74.4383 -0.129644 76.0769 -0.166081 77.5644 0.379261C82.5596 2.17177 92.1693 3.63404 100.708 2.87687L100.825 4.19783L100.709 2.87836C104.986 2.51391 108.766 5.34027 109.477 9.52924C111.508 21.4818 116.652 35.5675 121.995 47.8711ZM129.408 113.986L129.781 113.879H129.772L129.408 113.986ZM123.198 74.1235C123.925 74.2848 124.559 74.7264 124.962 75.3525L124.959 75.351C126.806 78.2354 127.613 81.9409 127.677 85.4664C127.741 88.992 127.067 92.516 125.776 95.091C125.442 95.757 124.857 96.2634 124.151 96.4993C123.444 96.7351 122.672 96.6813 122.005 96.3494C121.674 96.1849 121.379 95.9568 121.136 95.6781C120.894 95.3995 120.708 95.0757 120.591 94.7253C120.473 94.3749 120.426 94.0049 120.452 93.6362C120.478 93.2676 120.576 92.9076 120.741 92.577C121.589 90.8841 122.115 88.324 122.072 85.6197C122.029 82.9153 121.425 80.2734 120.22 78.3886L121.336 77.6672L120.22 78.3797C120.02 78.068 119.884 77.72 119.819 77.3556C119.755 76.9912 119.762 76.6176 119.842 76.2561C119.922 75.8947 120.072 75.5526 120.285 75.2495C120.497 74.9464 120.767 74.6882 121.08 74.4897L121.081 74.4908C121.711 74.0943 122.472 73.9623 123.198 74.1235ZM89.6006 114.959C90.3414 115.043 91.0193 115.416 91.4864 115.997C91.7179 116.286 91.8902 116.617 91.9933 116.973C92.0964 117.328 92.1284 117.7 92.0873 118.068C92.0463 118.436 91.9331 118.792 91.7541 119.116C91.5752 119.44 91.3341 119.725 91.0446 119.955C85.8947 124.057 78.4613 126.077 70.9626 126.486C60.926 127.03 50.2929 124.719 44.1463 120.107C43.8506 119.885 43.6016 119.607 43.4135 119.289C43.2255 118.971 43.1021 118.618 43.0504 118.252C42.9987 117.886 43.0198 117.514 43.1123 117.156C43.2049 116.798 43.3672 116.462 43.59 116.167C44.0397 115.572 44.7071 115.179 45.4458 115.075C46.1845 114.972 46.9342 115.165 47.5305 115.613C51.782 118.809 59.3105 120.8 67.1529 120.94C74.9953 121.08 82.7559 119.362 87.5325 115.558L88.3551 116.592L87.531 115.551C88.1159 115.088 88.8597 114.876 89.6006 114.959Z" fill="#484870"/>
</g>
<defs>
<clipPath id="clip0_78_740">
<rect width="137.846" height="140.5" fill="white"/>
</clipPath>
</defs>
</svg>
