<svg width="156" height="156" viewBox="0 0 156 156" fill="none" xmlns="http://www.w3.org/2000/svg">
<path d="M88.7445 114.671C97.9176 110.492 98.5739 101.367 98.5739 101.367M98.5739 101.367C92.2824 100.855 85.7828 99.9105 80.676 95.9883C80.1637 95.5881 79.6514 95.1559 79.1551 94.6916C78.5628 94.1473 77.6663 94.1473 77.09 94.6916C76.5937 95.1559 76.0974 95.5881 75.5691 95.9883M98.5739 101.367C109.972 96.4046 111.701 89.5044 112.005 84.8938C112.278 80.9877 108.499 82.5725 103.905 78.8905C101.44 76.9214 100.319 75.2725 99.6145 74.408C99.2783 73.9918 98.638 74.0718 98.4138 74.5681C97.2772 77.1295 94.2355 83.453 90.3453 87.4072C85.3986 92.4341 81.7966 94.4192 80.6599 95.988M75.5691 95.9883C70.4623 99.9105 63.9626 100.855 57.6551 101.367M75.5691 95.9883C74.4325 94.4195 70.8304 92.4341 65.8836 87.4073C61.9934 83.4531 58.9517 77.1295 57.8151 74.5681C57.591 74.0718 56.9506 73.9918 56.6144 74.408C55.91 75.2725 54.7894 76.9214 52.324 78.8905C47.7295 82.5726 43.9514 80.9877 44.2235 84.8939C44.5277 89.5044 46.2568 96.4046 57.6551 101.367M57.6551 101.367C57.6551 101.367 58.2955 110.492 67.4846 114.671M88.8885 46.6811C89.721 46.2008 91.0017 45.7205 92.7147 45.2242C97.2452 43.9595 98.4619 42.4067 100.543 39.9573C100.767 39.6852 100.975 39.461 101.183 39.2529C102.16 38.2123 102.736 38.1323 103.633 39.5731M103.633 39.5731C104.145 40.4056 104.769 41.7503 105.65 43.7194C107.107 46.9852 108.451 50.6033 109.268 54.1572C109.732 56.0943 110.02 58.0154 110.1 59.8564V59.8724C110.148 60.897 110.132 61.8895 110.02 62.8501C109.38 68.5973 105.81 71.0627 103.793 66.8523C103.777 66.8363 103.777 66.8363 103.777 66.8363M103.633 39.5731C106.578 37.1557 114.022 38.164 117.672 36.0828C119.546 35.0102 120.25 31.0881 121.387 32.737C122.523 34.4019 122.251 34.8021 125.773 47.097C129.295 59.3919 124.7 63.1059 122.059 64.7709M109.268 54.1727C109.94 53.9646 111.061 53.8845 112.422 53.3562C114.119 52.6839 115.623 50.7948 116.424 49.6422C116.712 49.2099 117.368 49.2259 117.624 49.6742C123.692 59.9519 122.683 70.7099 119.642 76.5692C116.504 82.6046 112.422 79.2587 112.534 74.7282C112.614 71.3503 111.429 64.9307 110.084 59.8559M81.3642 37.1236C83.2533 36.2591 85.1744 35.4427 87.4636 33.6497C91.674 30.3518 93.467 25.309 95.0519 28.0465C96.6528 30.768 98.6859 35.0584 101.199 39.2528M85.0143 25.2925C89.6569 24.1879 94.1234 23.3394 98.9101 19.7214C106.082 14.2944 104.449 12.3573 108.403 20.4098C112.342 28.4463 114.247 28.7985 118.153 35.7303M126.013 48.0097C130.784 49.2424 137.988 53.0526 140.661 51.996C143.335 50.9394 145.096 47.4815 146.409 51.6118C147.721 55.7421 150.059 68.3731 145.736 79.3872C141.414 90.4014 136.275 92.6426 131.584 94.5477M119.225 77.322C118.281 79.3071 113.894 86.6071 110.116 91.8741C110.116 91.8901 110.1 91.8901 110.1 91.9061M121.499 71.1742C125.821 69.2691 129.151 68.1164 130.4 73.2873C131.648 78.4582 130.336 89.2322 126.013 94.6753C124.925 96.036 122.924 97.0606 120.554 97.765M114.599 98.9341C108.98 99.4944 103.953 98.7099 105.986 96.9009C106.018 96.8689 106.05 96.8529 106.082 96.8209M83.7176 77.9619C90.1051 72.2467 94.1714 67.6361 94.7637 60.224C95.3561 52.8278 96.7809 54.3487 101.183 61.0404C105.746 67.9723 104.545 75.4965 103.633 78.6502M67.3565 46.6811C66.5241 46.2008 65.2433 45.7205 63.5304 45.2243C58.9999 43.9595 57.7832 42.4067 55.702 39.9573C55.4779 39.6852 55.2698 39.461 55.0617 39.2529C54.0851 38.2123 53.5088 38.1323 52.6123 39.5731M52.6123 39.5731C52.1 40.4056 51.4757 41.7503 50.5952 43.7194C49.1384 46.9852 47.7936 50.6033 46.9772 54.1572C46.5129 56.0943 46.2247 58.0154 46.1447 59.8564V59.8724M52.6123 39.5731C49.6667 37.1558 42.2225 38.164 38.5724 36.0828C36.6994 35.0102 35.995 31.0721 34.8584 32.737C33.7217 34.4019 33.9939 34.8021 30.4719 47.097C26.9499 59.3919 31.5445 63.1059 34.186 64.7709M46.1447 59.8724C46.0967 60.897 46.1127 61.8896 46.2247 62.8501C46.8651 68.5973 50.4351 71.0627 52.4522 66.8523C52.4682 66.8363 52.4682 66.8363 52.4682 66.8363M46.1447 59.8724L46.1446 59.8883C44.7998 64.9631 43.6152 71.3667 43.6952 74.7445C43.8073 79.067 40.0932 82.3008 37.0195 77.338V77.322M46.961 54.1731C46.2886 53.965 45.168 53.8849 43.8073 53.3566C42.1103 52.6842 40.6055 50.7952 39.805 49.6425C39.5169 49.2103 38.8605 49.2263 38.6044 49.6746C34.0898 57.3108 33.4975 65.2192 34.7302 71.1746C35.1624 73.2397 35.8028 75.0647 36.5872 76.5696C36.7313 76.8417 36.8754 77.0818 37.0195 77.322M37.0195 77.322C37.964 79.3071 42.3505 86.5911 46.1286 91.8741C46.1286 91.8901 46.1446 91.8901 46.1446 91.9061M55.0455 39.2528C57.5589 35.0745 59.592 30.7841 61.1929 28.0465C62.7778 25.309 64.5708 30.3518 68.7812 33.6497C71.0705 35.4266 72.9915 36.2431 74.8806 37.1236M38.0922 35.7303C41.9984 28.7985 43.9034 28.4463 47.8416 20.4098C51.7958 12.3573 50.1469 14.2944 57.3349 19.7214C62.1216 23.3394 66.5881 24.1719 71.2307 25.2925M65.8036 30.704C68.5891 26.4136 75.2168 23.3559 77.6022 17.9769C77.7943 17.5286 78.4346 17.5286 78.6267 17.9769C81.0121 23.3719 87.6398 26.4136 90.4253 30.704M67.8208 61.8573C70.1581 57.5669 75.6972 54.5092 77.6983 49.1302C77.8584 48.6819 78.3867 48.6819 78.5628 49.1302C80.5639 54.5252 86.103 57.5669 88.4403 61.8573M30.2158 48.0097C25.4451 49.2424 18.2411 53.0526 15.5676 51.996C12.8941 50.9394 11.1331 47.4815 9.8204 51.6118C8.50767 55.7421 6.17037 68.3731 10.4928 79.3873C14.8152 90.4014 19.9541 92.6426 24.6447 94.5477M35.6748 97.7811C33.3215 97.0607 31.3043 96.0361 30.2157 94.6914C25.8933 89.2483 24.5806 78.4743 25.8293 73.3034C27.078 68.1326 30.3918 69.2852 34.7302 71.1903M50.1628 96.8206C50.1948 96.8527 50.2268 96.8847 50.2589 96.9007C52.276 98.6937 47.2652 99.4941 41.646 98.9338M93.7071 59.4076C94.1553 59.2315 94.2674 58.5431 93.9953 57.0703C93.7711 55.8856 93.3069 54.5729 92.6505 53.1801C92.1863 52.1555 91.6259 51.0669 90.9696 49.9783C90.5053 49.2099 90.025 48.4254 89.4967 47.625C89.2886 47.3208 89.0805 47.0167 88.8724 46.6965C86.7272 43.5747 84.2298 40.437 81.8445 37.6995H81.8285C81.6684 37.5073 81.4923 37.3313 81.3482 37.1391C80.4037 36.0986 79.5232 35.122 78.6587 34.2415C78.3545 33.9213 77.8423 33.9374 77.5541 34.2575C76.8497 34.994 75.649 36.2747 74.8646 37.1391C74.7045 37.3313 74.5444 37.5073 74.3843 37.6995H74.3683C71.983 40.421 69.4696 43.5747 67.3404 46.6965C67.1323 47.0167 66.9242 47.3208 66.716 47.625C66.2038 48.4254 65.7075 49.2099 65.2432 49.9783C64.6029 51.0829 64.0265 52.1555 63.5623 53.1801C62.9219 54.5729 62.4417 55.8856 62.2175 57.0703C61.9294 58.5431 62.0414 59.2315 62.4897 59.4076M62.986 83.8856C68.365 81.6604 74.5285 76.4735 77.0099 74.2802C77.6342 73.7199 78.5627 73.7359 79.1871 74.2962C83.0452 77.8662 88.6003 81.4202 93.2589 83.8856M52.6122 78.6668C51.9398 76.3616 51.1394 71.799 52.4521 66.8362C52.9644 64.9312 53.7809 62.9621 55.0456 61.041C58.2474 56.1903 59.8643 54.0451 60.7448 56.0782C61.0809 56.8307 61.3051 58.2074 61.4652 60.2246C61.4812 60.3686 61.4972 60.5127 61.5132 60.6408C62.2176 67.7968 66.2518 72.3433 72.5113 77.9464M61.5132 60.6571C64.2667 56.8149 69.2935 54.0294 75.2008 53.341M81.0441 53.3406C86.9674 54.045 91.9782 56.8306 94.7318 60.6727M78.1145 124.116C85.9268 124.116 101.071 136.763 120.474 123.508C133.297 114.719 133.457 101.671 131.392 93.8591C131.216 93.2187 130.464 92.9306 129.903 93.2988C129.135 93.8271 127.998 94.7076 126.59 96.0843C123.868 98.7578 121.755 98.5817 118.185 96.7407C114.839 94.9957 106.899 115.695 78.1145 115.695C49.3304 115.695 41.39 94.9957 38.0441 96.7407C34.4741 98.5817 32.3609 98.7578 29.6394 96.0843C28.2306 94.7076 27.094 93.8271 26.3256 93.2988C25.7653 92.9306 25.0128 93.2188 24.8367 93.8591C22.7716 101.671 22.9317 114.735 35.7548 123.508C55.1577 136.763 70.3021 124.116 78.1145 124.116Z" stroke="#484870" stroke-width="4" stroke-miterlimit="10" stroke-linecap="round" stroke-linejoin="round"/>
<path d="M154.5 77.5C154.5 112.611 120.506 141.5 78 141.5C35.4941 141.5 1.5 112.611 1.5 77.5C1.5 42.3886 35.4941 13.5 78 13.5C120.506 13.5 154.5 42.3886 154.5 77.5Z" stroke="#484870" stroke-width="3"/>
</svg>
