<svg width="29" height="24" viewBox="0 0 29 24" fill="none" xmlns="http://www.w3.org/2000/svg">
<path d="M28.79 0C26.3223 0.517986 24.1171 1.74388 22.0869 3.12518C20.0567 4.52374 18.1841 6.1295 16.4339 7.80432C14.6663 9.4964 13.0036 11.2748 11.411 13.1223C10.6059 14.0374 9.83585 14.9871 9.08328 15.9367L8.94327 16.1266L4.97043 9.7554L0 13.3122L6.9306 21.3237L9.2408 24L10.6409 21.1683L11.481 19.6835L12.3736 18.1813C12.9861 17.1799 13.5987 16.1957 14.2462 15.2288C15.5413 13.2777 16.9065 11.3784 18.3766 9.56547C19.8467 7.75252 21.4218 6.0259 23.1545 4.45468C24.9046 2.93525 26.8123 1.53669 29 0.776978L28.79 0Z" fill="#2CC845"/>
</svg>
