<svg width="125" height="125" viewBox="0 0 125 125" fill="none" xmlns="http://www.w3.org/2000/svg">
<path d="M40.8384 26.3139C40.8384 27.3426 40.6418 28.3107 40.2485 29.2183C39.8854 30.0957 39.4013 30.9277 38.7962 31.7144C38.2214 32.501 37.5709 33.2271 36.8448 33.8927C36.149 34.5583 35.4531 35.1634 34.7572 35.708C34.1219 36.2223 33.3958 36.7669 32.5789 37.3417C31.7923 37.8863 31.0208 38.4914 30.2644 39.157C29.508 39.8226 28.8424 40.5487 28.2676 41.3354C27.6928 42.122 27.3448 42.9842 27.2238 43.9221H40.7931V49.0957H21.2334V44.6483C21.2334 43.3776 21.4149 42.2128 21.778 41.1538C22.1713 40.0647 22.6856 39.0663 23.321 38.1586C23.9563 37.251 24.6824 36.419 25.4993 35.6626C26.3464 34.9062 27.2087 34.2104 28.0861 33.575C28.9332 32.9699 29.7652 32.38 30.5821 31.8051C31.399 31.2303 32.1251 30.6554 32.7604 30.0806C33.3958 29.4755 33.9101 28.8704 34.3034 28.2653C34.6967 27.6602 34.8934 27.0249 34.8934 26.3593C34.8934 25.8449 34.7724 25.3911 34.5303 24.9978C34.2883 24.5742 33.9555 24.2263 33.5319 23.954C33.1386 23.6515 32.6697 23.4246 32.1251 23.2733C31.6107 23.122 31.0662 23.0464 30.4913 23.0464C29.4324 23.0464 28.3735 23.243 27.3146 23.6363C26.2859 23.9994 25.348 24.5591 24.5009 25.3155L21.5057 20.7319C22.6553 19.7032 24.0319 18.9166 25.6354 18.372C27.2389 17.7972 28.9483 17.5098 30.7636 17.5098C31.9738 17.5098 33.184 17.661 34.3942 17.9636C35.6044 18.2661 36.6784 18.7653 37.6163 19.4612C38.5845 20.1268 39.356 21.0193 39.9308 22.1387C40.5359 23.2582 40.8384 24.6499 40.8384 26.3139ZM46.2924 49.0957V26.6769H52.056V49.0957H46.2924ZM45.9294 20.5957C45.9294 19.6881 46.2471 18.9166 46.8824 18.2813C47.5178 17.6459 48.2741 17.3282 49.1515 17.3282C50.0289 17.3282 50.7853 17.6459 51.4206 18.2813C52.056 18.9166 52.3736 19.6881 52.3736 20.5957C52.3736 21.5034 52.056 22.2749 51.4206 22.9102C50.7853 23.5153 50.0289 23.8179 49.1515 23.8179C48.2741 23.8179 47.5178 23.5153 46.8824 22.9102C46.2471 22.2749 45.9294 21.5034 45.9294 20.5957ZM71.4139 49.0957V35.2542C71.4139 33.9835 71.1265 33.1061 70.5517 32.622C69.9768 32.1077 69.281 31.8505 68.4641 31.8505C67.7682 31.8505 66.9967 32.0169 66.1496 32.3497C65.3025 32.6523 64.3192 33.1515 63.1998 33.8473V49.0957H57.4362V26.6769H62.7459L63.1998 28.6284C64.8638 27.5997 66.2555 26.9644 67.3749 26.7223C68.5246 26.4803 69.4776 26.3593 70.234 26.3593C72.7149 26.3593 74.4999 27.1005 75.5891 28.583C76.7085 30.0352 77.2682 31.9867 77.2682 34.4373V49.0957H71.4139ZM89.9887 49.0957V25.3155L86.8573 27.9476L83.6352 23.8179L90.4879 17.8274H95.7522V49.0957H89.9887Z" fill="#495876"/>
<path d="M62.33 1.95616C50.4049 1.95617 38.7474 5.49139 28.831 12.115C18.9146 18.7386 11.1843 28.1534 6.61719 39.1692C2.05008 50.1851 0.851167 62.3077 3.17195 74.0048C5.49274 85.7019 11.2291 96.4484 19.6559 104.886C28.0828 113.324 38.8219 119.074 50.516 121.41C62.21 123.746 74.3342 122.563 85.356 118.01C96.3778 113.457 105.802 105.739 112.439 95.8314C119.075 85.9236 122.626 74.2707 122.641 62.3456C122.625 46.3552 116.265 31.0244 104.958 19.7174C93.6513 8.41049 78.3205 2.05098 62.33 2.03441M62.33 124.66C50.0017 124.66 37.9501 121.004 27.6997 114.154C17.4492 107.305 9.46026 97.5692 4.74311 86.179C0.0259634 74.7888 -1.20746 62.2555 1.19883 50.1643C3.60511 38.073 9.54306 26.9669 18.2616 18.2505C26.9802 9.53414 38.0878 3.59902 50.1796 1.19577C62.2715 -1.20747 74.8044 0.0290989 86.1935 4.74911C97.5825 9.46911 107.316 17.4605 114.163 27.7127C121.01 37.9649 124.663 50.0173 124.66 62.3456C124.639 78.8688 118.065 94.709 106.38 106.391C94.695 118.073 78.8532 124.643 62.33 124.66Z" fill="#495876"/>
<path d="M93.6145 91.2339C93.564 92.866 92.9325 94.4264 91.8337 95.6342C90.7349 96.842 89.241 97.6179 87.621 97.8221L86.9168 97.9004V103.737H84.5538L82.316 97.8691H44.6332L42.411 103.737H39.9855V97.9004L39.2656 97.8221C37.6313 97.646 36.1185 96.8764 35.0138 95.6592C33.9091 94.442 33.2894 92.8619 33.272 91.2183V79.9666C33.2803 79.4422 33.4955 78.9424 33.8707 78.576C34.2459 78.2096 34.7507 78.0063 35.2751 78.0105H37.7163L42.0355 85.0995H41.9572C41.1371 85.9537 40.67 87.0864 40.6497 88.2704C40.6294 89.4544 41.0573 90.6024 41.8477 91.4843L42.0824 91.7347H84.992L85.2423 91.4843C86.0258 90.6062 86.451 89.4659 86.4336 88.2892C86.4162 87.1126 85.9576 85.9853 85.1485 85.1308L89.4519 78.1357H91.5645C91.8248 78.1315 92.0833 78.179 92.3251 78.2752C92.5669 78.3715 92.7873 78.5147 92.9735 78.6965C93.1597 78.8784 93.3082 79.0953 93.4101 79.3348C93.5121 79.5742 93.5656 79.8315 93.5676 80.0918L93.6145 91.2339ZM42.9744 86.3514C43.0996 86.3514 56.7143 84.2857 63.412 86.993C69.6716 84.4266 82.0812 86.0228 84.053 86.3045C84.487 86.8256 84.74 87.4737 84.7738 88.151C84.8077 88.8284 84.6207 89.4984 84.2408 90.0602H42.8179C42.4375 89.5032 42.2472 88.8382 42.2754 88.1642C42.3036 87.4902 42.5487 86.8434 42.9744 86.3201M41.6286 68.3081H85.2423C85.5816 68.2954 85.9199 68.3517 86.2367 68.4738C86.5536 68.5959 86.8422 68.7811 87.0852 69.0183C87.3282 69.2554 87.5204 69.5394 87.6502 69.8532C87.7799 70.1669 87.8446 70.5038 87.8401 70.8432V77.6036L83.5209 84.63C80.1251 84.1919 69.7342 83.0651 63.459 85.2873C57.1994 83.0964 46.8397 84.2388 43.6629 84.6457L39.0465 77.0559V70.7963C39.0421 70.4582 39.1063 70.1227 39.2351 69.81C39.3639 69.4974 39.5547 69.2141 39.796 68.9771C40.0373 68.7402 40.3241 68.5546 40.639 68.4316C40.954 68.3085 41.2906 68.2506 41.6286 68.2612M91.6115 76.43H89.4519V70.8746C89.4521 70.3261 89.3426 69.7831 89.13 69.2776C88.9173 68.772 88.6057 68.3141 88.2135 67.9306C87.8213 67.5472 87.3564 67.246 86.8462 67.0448C86.336 66.8436 85.7907 66.7464 85.2423 66.7589H41.6286C41.0803 66.7464 40.535 66.8436 40.0247 67.0448C39.5145 67.246 39.0497 67.5472 38.6575 67.9306C38.2653 68.3141 37.9537 68.772 37.741 69.2776C37.5284 69.7831 37.4189 70.3261 37.419 70.8746V76.43H35.2594C34.3117 76.4216 33.3992 76.789 32.7217 77.4519C32.0442 78.1147 31.6569 79.0189 31.6445 79.9666V91.2183C31.6658 93.1264 32.3432 94.9691 33.5629 96.4367C34.7826 97.9043 36.4702 98.9075 38.3423 99.2775V105.318H43.5221L45.76 99.4496H81.1893L83.4271 105.318H88.5286V99.2618C90.3957 98.8907 92.0798 97.8921 93.301 96.4317C94.5223 94.9714 95.2072 93.1373 95.2421 91.2339V79.9666C95.236 79.496 95.1372 79.0312 94.9514 78.5988C94.7657 78.1663 94.4965 77.7747 94.1593 77.4463C93.8222 77.1179 93.4237 76.8591 92.9865 76.6847C92.5494 76.5103 92.0821 76.4237 91.6115 76.43Z" fill="#495876"/>
</svg>
