<svg width="125" height="125" viewBox="0 0 125 125" fill="none" xmlns="http://www.w3.org/2000/svg">
<path d="M62.3456 1.95616C50.4205 1.95617 38.7631 5.49139 28.8467 12.115C18.9302 18.7386 11.2 28.1534 6.63285 39.1692C2.06575 50.1851 0.866809 62.3077 3.1876 74.0048C5.50838 85.7019 11.2447 96.4484 19.6716 104.886C28.0984 113.324 38.8375 119.074 50.5316 121.41C62.2257 123.746 74.3498 122.563 85.3716 118.01C96.3934 113.457 105.818 105.739 112.455 95.8314C119.091 85.9236 122.641 74.2707 122.657 62.3456C122.64 46.3552 116.281 31.0244 104.974 19.7174C93.6669 8.41049 78.3361 2.05098 62.3456 2.03441M62.3456 124.66C50.0166 124.663 37.9636 121.01 27.7111 114.162C17.4586 107.314 9.46715 97.5798 4.7476 86.1899C0.028055 74.7999 -1.2076 62.2661 1.19692 50.1738C3.60144 38.0816 9.53812 26.974 18.2561 18.2561C26.974 9.53812 38.0816 3.60144 50.1738 1.19692C62.2661 -1.2076 74.7999 0.028055 86.1899 4.7476C97.5798 9.46715 107.314 17.4586 114.162 27.7111C121.01 37.9636 124.663 50.0166 124.66 62.3456C124.639 78.8661 118.067 94.7039 106.386 106.386C94.7039 118.067 78.8661 124.639 62.3456 124.66Z" fill="#495876"/>
<path d="M70.4221 70.4827V64.4892C70.4417 63.0909 70.2248 61.6994 69.7805 60.3735C69.3831 59.1799 68.7498 58.0783 67.9183 57.1341C67.0693 56.209 66.0348 55.4731 64.8824 54.9746C63.5893 54.4353 62.1988 54.1689 60.798 54.1921C59.7319 54.2175 58.6762 54.4075 57.6682 54.7555C56.4855 55.1466 55.3514 55.6716 54.288 56.3204V48.7619H69.1702V42.3145H47.199V61.5159L53.6464 64.0354C53.8968 63.8476 54.2724 63.6128 54.7575 63.3155C55.2426 63.0182 55.7747 62.7208 56.3224 62.4391C56.898 62.1588 57.4944 61.9234 58.1064 61.7349C58.6657 61.5696 59.2446 61.4801 59.8278 61.4689C60.2922 61.4426 60.7571 61.5124 61.1933 61.6739C61.6295 61.8355 62.0277 62.0853 62.3629 62.4078C63.0414 63.219 63.3731 64.2647 63.2862 65.3186V69.6377C63.312 70.4197 63.1225 71.1938 62.7385 71.8755C62.3798 72.4466 61.9118 72.9412 61.3614 73.3309C60.8231 73.7018 60.2249 73.9771 59.593 74.1446C59.0108 74.3002 58.4117 74.3843 57.8091 74.395C56.5302 74.3905 55.261 74.1737 54.0533 73.7534C52.7056 73.2432 51.4719 72.4721 50.4227 71.4843L46.62 77.1962C48.0675 78.5168 49.7724 79.5237 51.6277 80.1538C53.6958 80.8389 55.8655 81.167 58.0438 81.1241C59.6321 81.1315 61.2133 80.9102 62.7385 80.4668C64.1752 80.0533 65.5192 79.368 66.6977 78.4481C67.8337 77.545 68.7623 76.4082 69.4206 75.1148C70.1403 73.6573 70.4897 72.0449 70.4378 70.4201M40.5639 70.4201V64.4266C40.5758 63.0289 40.3591 61.6386 39.9222 60.3109C39.5144 59.1186 38.8764 58.018 38.0444 57.0716C37.1984 56.1499 36.1698 55.4144 35.0241 54.912C32.7351 53.9474 30.169 53.8693 27.8256 54.6929C26.6429 55.084 25.5088 55.609 24.4454 56.2578V48.6993H39.265V42.252H17.3564V61.4533L23.7881 63.9727C24.0542 63.785 24.4141 63.5502 24.8992 63.2529C25.3843 62.9556 25.9164 62.6582 26.4641 62.3766C27.044 62.0935 27.6458 61.858 28.2637 61.6724C28.8173 61.5053 29.3913 61.4158 29.9695 61.4063C30.4361 61.3815 30.9029 61.452 31.3415 61.6134C31.78 61.7748 32.1811 62.0238 32.5203 62.3453C33.1928 63.1596 33.5237 64.2029 33.4436 65.256V69.5751C33.4721 70.3594 33.2767 71.1356 32.8802 71.8129C32.5263 72.3877 32.0575 72.8832 31.5031 73.2683C30.9704 73.639 30.3773 73.9143 29.7504 74.082C29.1626 74.2366 28.5585 74.3207 27.9508 74.3324C26.672 74.3279 25.4028 74.1111 24.195 73.6908C22.8473 73.1806 21.6136 72.4095 20.5644 71.4217L16.7617 77.1336C18.2092 78.4542 19.9141 79.4611 21.7694 80.0912C23.8311 80.7837 25.9952 81.1223 28.1699 81.0928C29.758 81.0976 31.3388 80.8763 32.8645 80.4355C34.2952 80.0187 35.6334 79.3336 36.8081 78.4168C37.9441 77.5137 38.8727 76.3769 39.531 75.0835C40.2561 73.6274 40.6109 72.0149 40.5639 70.3888" fill="#495876"/>
<path d="M90.1093 50.2177C90.0914 50.0094 90.1154 49.7995 90.1799 49.6006C90.2444 49.4017 90.3481 49.2178 90.4849 49.0596C90.6015 48.9424 90.7406 48.85 90.894 48.7881C91.0473 48.7262 91.2116 48.6962 91.3769 48.6997C91.769 48.7189 92.1551 48.8036 92.5193 48.9501C92.9326 49.1104 93.3222 49.3263 93.6773 49.5917V53.0345C93.3011 53.2888 92.8967 53.4989 92.4723 53.6605C92.1243 53.8039 91.7532 53.8835 91.3769 53.8952C91.0434 53.9063 90.7184 53.7886 90.4693 53.5666C90.3352 53.4072 90.2344 53.2227 90.1726 53.0238C90.1108 52.825 90.0893 52.6158 90.1093 52.4085V50.2177ZM96.2281 46.4463H93.8807L93.6773 47.26C93.1904 46.9508 92.664 46.7087 92.1124 46.5402C91.7123 46.4108 91.2963 46.3371 90.8761 46.3211C90.4256 46.2922 89.9741 46.3612 89.5527 46.5233C89.1314 46.6854 88.75 46.9367 88.4349 47.26C87.802 48.0142 87.4876 48.9853 87.5586 49.9673V52.7372C87.508 53.6679 87.7848 54.5869 88.341 55.3349C88.6472 55.6719 89.0262 55.9344 89.4493 56.1026C89.8724 56.2707 90.3283 56.34 90.7822 56.3051C91.2108 56.2943 91.6365 56.2312 92.0498 56.1174C92.6057 55.9678 93.1341 55.7301 93.6147 55.4132V56.3834C93.6327 56.6354 93.5895 56.888 93.4887 57.1196C93.3878 57.3512 93.2324 57.555 93.0357 57.7135C92.8445 57.8556 92.6261 57.9568 92.3941 58.0109C92.1433 58.0737 91.8858 58.1052 91.6273 58.1048C91.4505 58.1252 91.272 58.1252 91.0952 58.1048L90.4693 57.9639C90.2447 57.8966 90.0292 57.8021 89.8277 57.6823C89.6214 57.5621 89.4364 57.4087 89.28 57.2284L87.7151 58.9029C87.9844 59.2059 88.2953 59.4693 88.6383 59.6853C88.9577 59.8895 89.2989 60.0575 89.6555 60.1861C89.9921 60.2987 90.3376 60.3824 90.6884 60.4365C91.0166 60.4588 91.346 60.4588 91.6742 60.4365C92.2024 60.4361 92.7284 60.3678 93.2391 60.233C93.7637 60.1003 94.2613 59.878 94.7101 59.5758C95.1452 59.2867 95.5134 58.9078 95.7899 58.4647C96.0777 57.9935 96.2294 57.4519 96.2281 56.8998V46.4463ZM79.9531 56.3208V51.7356H80.7512C81.1563 51.7093 81.5585 51.8195 81.8936 52.0486C82.2017 52.3283 82.4196 52.6932 82.5196 53.0971L83.5211 56.3208H86.3849L85.1486 52.5963C85.0704 52.3929 85.0078 52.1738 84.9295 51.9704C84.8527 51.7695 84.7585 51.5757 84.6478 51.3914C84.5208 51.199 84.3621 51.0297 84.1784 50.8906C83.9692 50.7224 83.7303 50.595 83.4742 50.515C83.8366 50.4012 84.1576 50.1836 84.3974 49.889C84.6398 49.5918 84.8447 49.2659 85.0078 48.9188L86.1971 46.4306H83.3177L82.3944 48.2772C82.2469 48.6123 82.0216 48.9074 81.7371 49.1379C81.4543 49.3221 81.1194 49.41 80.7825 49.3883H79.9531V42.002H77.4023V56.3208H79.9531Z" fill="#495876"/>
<path fill-rule="evenodd" clip-rule="evenodd" d="M74.1939 25.9615C62.5667 21.8615 51.6594 22.1901 42.4108 26.1337C43.5376 23.8638 45.204 21.905 47.2638 20.429C49.3237 18.953 51.7142 18.0048 54.2258 17.6676C55.0708 17.6676 52.2384 19.6237 52.2384 21.1416C53.9746 19.3653 55.9818 17.8757 58.185 16.7286C67.9343 14.882 79.8276 20.5157 85.07 28.747C78.6069 32.4246 72.363 31.6265 67.8561 32.6124C65.5234 31.744 63.4275 30.3395 61.7373 28.5123C62.0034 29.9051 62.6293 30.9223 64.648 33.207C61.2314 33.8649 57.747 34.1014 54.2727 33.9112C52.1044 32.9499 50.2538 31.3923 48.9364 29.42C48.3887 30.5623 49.3903 32.2524 49.6876 33.1131C47.0642 32.4152 44.7064 30.9558 42.9116 28.9192C41.012 29.5951 39.2159 30.5327 37.5753 31.7047C37.5753 31.7047 34.4455 32.002 34.3359 31.4543C47.7471 24.3653 61.3461 22.2371 74.1783 25.9146" fill="#495876"/>
<path d="M108.122 46.5254C107.705 47.0381 107.42 47.6453 107.292 48.2938C108.013 50.1665 108.384 52.1555 108.388 54.1622C108.388 54.7255 108.31 55.3045 108.247 55.8679C107.812 59.0321 106.597 62.0383 104.71 64.6157C102.612 67.4962 99.809 69.7901 96.5704 71.2779C93.3319 72.7656 89.7657 73.3975 86.2131 73.1131C82.4943 72.8543 78.9713 71.3491 76.2134 68.8409C78.9206 70.9761 82.1749 72.3049 85.6028 72.6749C89.2247 72.9977 92.8669 72.3438 96.1503 70.7814C100.553 68.7979 104.069 65.2596 106.025 60.8443C106.842 58.9992 107.319 57.0218 107.433 55.0072C105.743 55.6958 105.101 58.2778 102.629 58.2309C102.77 59.2481 104.898 59.0759 104.898 59.029C103.936 60.3836 102.719 61.5371 101.314 62.4248C99.4678 63.5359 98.2942 63.4107 95.6651 64.381C96.7449 64.5844 98.3411 66.3997 99.5148 66.3997C99.374 66.3997 97.6995 66.8691 95.6651 67.1665C93.6308 67.4638 91.5964 66.6813 89.4055 66.2745C90.6105 66.7909 91.1113 69.3104 92.2067 70.0615C89.9063 68.9817 86.5731 66.2901 82.8173 65.8989C83.944 66.744 84.7109 68.6688 84.1944 68.9348C83.7049 68.0876 83.0267 67.3645 82.2126 66.8217C81.3984 66.2789 80.4701 65.931 79.4997 65.805C76.3699 65.7111 74.492 66.4153 74.0069 67.01C73.6626 68.3714 74.6642 69.8112 75.5718 71.0318C76.1433 71.8022 76.9284 72.3879 77.8297 72.7162C78.7311 73.0445 79.709 73.1009 80.6421 72.8783C80.3448 73.8173 78.8894 74.2868 77.8253 74.2242C80.4387 76.0551 82.0036 77.2601 87.512 77.2131C89.1512 77.075 90.7466 76.6123 92.2054 75.852C93.6642 75.0917 94.9573 74.049 96.0094 72.7845C95.8999 74.3494 91.6433 77.1505 92.7388 77.2444C96.511 77.3319 100.173 75.9711 102.973 73.4417C103.706 72.7332 104.238 71.8423 104.513 70.8605C104.788 69.8787 104.797 68.8413 104.538 67.855C105.179 68.9468 105.474 70.2072 105.383 71.4699C105.946 70.9913 106.469 70.468 106.948 69.9051C110.563 65.539 110.829 60.2653 109.28 58.6221C109.769 58.774 110.198 59.0739 110.509 59.4803C110.82 59.8867 110.998 60.3797 111.017 60.8912C111.393 59.684 111.466 58.4025 111.229 57.1604C110.991 55.9183 110.451 54.7541 109.655 53.7709C109.726 51.276 109.262 48.7947 108.294 46.4941" fill="#495876"/>
<path d="M46.7254 92.9844V84.3586H48.4155V91.457H52.6845V92.9844H46.7254ZM55.4879 84.3586V92.9844H53.7727V84.3586H55.4879ZM63.3734 91.8451C63.1814 92.0788 62.9686 92.275 62.7349 92.4335C62.5012 92.5838 62.2592 92.709 62.0088 92.8091C61.7584 92.9009 61.5039 92.9677 61.2451 93.0094C60.9948 93.0511 60.7569 93.072 60.5315 93.072C60.1309 93.072 59.7303 93.0136 59.3297 92.8967C58.9374 92.7799 58.5827 92.6088 58.2656 92.3835C57.9568 92.1498 57.7022 91.8618 57.5019 91.5196C57.3099 91.1691 57.214 90.7601 57.214 90.2927V87.1004C57.214 86.6413 57.3058 86.2365 57.4894 85.886C57.6813 85.5271 57.9317 85.2308 58.2405 84.9971C58.5577 84.7551 58.9166 84.5756 59.3172 84.4588C59.7178 84.3336 60.1309 84.271 60.5566 84.271C61.0573 84.271 61.5456 84.342 62.0213 84.4838C62.4971 84.6174 62.9018 84.8302 63.2357 85.1223L62.3969 86.4494C62.1298 86.224 61.8335 86.0696 61.508 85.9861C61.1825 85.8943 60.8737 85.8484 60.5816 85.8484C60.3813 85.8484 60.181 85.8776 59.9807 85.9361C59.7887 85.9861 59.6135 86.0738 59.4549 86.199C59.3047 86.3242 59.1795 86.4869 59.0793 86.6872C58.9792 86.8875 58.9291 87.1296 58.9291 87.4133V89.9297C58.9291 90.2135 58.975 90.4555 59.0668 90.6558C59.1586 90.8478 59.2796 91.0063 59.4299 91.1315C59.5801 91.2567 59.7512 91.3485 59.9431 91.407C60.1351 91.4654 60.3312 91.4946 60.5315 91.4946C60.6985 91.4946 60.8779 91.4737 61.0699 91.432C61.2702 91.3819 61.4663 91.2776 61.6583 91.119V89.6793H60.4064V88.2146H63.3734V91.8451ZM69.7012 92.9844V89.3788H66.5213V92.9844H64.8062V84.3586H66.5213V87.8265H69.7012V84.3586H71.4413V92.9844H69.7012ZM76.3299 85.911V92.9844H74.6148V85.911H72.3237V84.3586H78.6084V85.911H76.3299Z" fill="#495876"/>
<path d="M45.6961 101.372L45.0827 103.826L44.2815 107.068H42.3911L40.1877 98.4426H42.0155L42.7666 101.848L43.3425 104.514H43.4302L44.0937 101.823L44.945 98.4426H46.5474L47.4488 101.998L48.0748 104.514H48.1499L48.6882 101.973L49.4769 98.4426H51.3047L49.0763 107.068H47.211L46.4097 103.813L45.7838 101.372H45.6961ZM52.1836 98.4426H58.1302V99.9825H53.8988V101.961H57.5168V103.5H53.8988V105.541H58.1302V107.068H52.1836V98.4426ZM61.3746 98.4426V107.068H59.6594V98.4426H61.3746ZM69.2601 105.929C69.0681 106.163 68.8553 106.359 68.6216 106.518C68.3879 106.668 68.1459 106.793 67.8955 106.893C67.6451 106.985 67.3906 107.052 67.1318 107.093C66.8815 107.135 66.6436 107.156 66.4182 107.156C66.0176 107.156 65.617 107.098 65.2164 106.981C64.8241 106.864 64.4694 106.693 64.1523 106.467C63.8435 106.234 63.5889 105.946 63.3886 105.604C63.1966 105.253 63.1007 104.844 63.1007 104.377V101.184C63.1007 100.725 63.1925 100.321 63.3761 99.97C63.568 99.6111 63.8184 99.3148 64.1272 99.0811C64.4444 98.8391 64.8033 98.6596 65.2039 98.5428C65.6045 98.4176 66.0176 98.355 66.4433 98.355C66.9441 98.355 67.4323 98.4259 67.908 98.5678C68.3838 98.7014 68.7886 98.9142 69.1224 99.2063L68.2836 100.533C68.0165 100.308 67.7202 100.154 67.3947 100.07C67.0692 99.9783 66.7604 99.9324 66.4683 99.9324C66.268 99.9324 66.0677 99.9616 65.8674 100.02C65.6754 100.07 65.5002 100.158 65.3416 100.283C65.1914 100.408 65.0662 100.571 64.966 100.771C64.8659 100.972 64.8158 101.214 64.8158 101.497V104.014C64.8158 104.297 64.8617 104.539 64.9535 104.74C65.0453 104.932 65.1663 105.09 65.3166 105.216C65.4668 105.341 65.6379 105.433 65.8298 105.491C66.0218 105.549 66.2179 105.579 66.4182 105.579C66.5852 105.579 66.7646 105.558 66.9566 105.516C67.1569 105.466 67.353 105.362 67.545 105.203V103.763H66.2931V102.299H69.2601V105.929ZM75.5879 107.068V103.463H72.408V107.068H70.6929V98.4426H72.408V101.91H75.5879V98.4426H77.328V107.068H75.5879ZM82.2166 99.995V107.068H80.5015V99.995H78.2105V98.4426H84.4951V99.995H82.2166Z" fill="#495876"/>
</svg>
