<svg width="294" height="27" viewBox="0 0 294 27" fill="none" xmlns="http://www.w3.org/2000/svg">
<path d="M21.116 5.96049C20.8447 6.4759 20.6548 7.26259 20.5192 7.83226C19.8953 10.4907 18.7017 14.6954 16.423 17.7336C13.9816 20.9618 10.3737 23.6745 5.5179 25.2207L2.56105 21.9655C7.95934 20.7176 10.9976 18.3576 13.1949 15.6177C15.0124 13.3391 16.0161 10.2737 16.3959 7.94077C14.7411 7.94077 5.78917 7.94077 3.75464 7.94077C2.5068 7.94077 1.23182 8.02215 0.526521 8.04928V4.22436C1.34033 4.33287 2.85945 4.44137 3.75464 4.44137C5.78917 4.44137 14.7954 4.44137 16.3145 4.44137C16.8299 4.44137 17.698 4.41425 18.4304 4.25148L21.116 5.96049ZM26.4727 16.2959C30.0264 15.5092 34.0412 13.6917 36.1842 12.3896C38.8427 10.7891 41.5554 8.3748 42.966 6.61154L45.6516 9.24287C44.0239 11.0061 40.7416 13.5561 37.7847 15.2922C35.3433 16.7299 31.1657 18.5475 28.0732 19.4698L26.4727 16.2959ZM35.8858 14.5326L39.5751 13.8273V23.4575C39.5751 24.434 39.6022 25.8718 39.765 26.4143H35.7231C35.8044 25.8718 35.8858 24.434 35.8858 23.4575V14.5326ZM64.3964 7.91364C64.9118 9.05298 66.241 12.6066 66.6208 13.8545L63.3927 14.9667C63.04 13.6646 61.8464 10.3822 61.1954 8.9716L64.3964 7.91364ZM74.4063 9.86679C74.1079 10.762 73.9451 11.3317 73.7824 11.8742C73.0771 14.614 71.9106 17.4352 70.0659 19.7953C67.5431 23.0777 64.1794 25.3292 61.0055 26.5499L58.1572 23.6473C61.114 22.8335 64.9118 20.7719 67.1362 17.9507C68.9809 15.672 70.3101 12.0641 70.6085 8.64607L74.4063 9.86679ZM58.1029 9.32425C58.7811 10.7077 60.1103 14.0172 60.6257 15.5364L57.3162 16.7571C56.8822 15.3193 55.4987 11.6843 54.8477 10.5178L58.1029 9.32425ZM86.3422 21.4229C86.3422 19.3341 86.3422 8.10353 86.3422 5.82486C86.3422 4.84828 86.2608 3.51905 86.0709 2.54248H90.3027C90.1942 3.51905 90.0586 4.68552 90.0586 5.82486C90.0586 8.80883 90.0857 19.4155 90.0857 21.4229C90.0857 22.1825 90.1942 24.0814 90.3299 25.1936H86.0709C86.2608 24.1356 86.3422 22.4809 86.3422 21.4229ZM89.2719 9.56839C92.8798 10.5721 98.7393 12.7151 101.398 14.0172L99.8786 17.7879C96.7861 16.1874 92.2288 14.4513 89.2719 13.4747V9.56839ZM120.631 1.8643C120.522 2.48822 120.441 3.51905 120.441 4.35999C120.441 5.17381 120.441 6.55729 120.441 7.3711H116.887C116.887 6.55729 116.887 5.30944 116.887 4.35999C116.887 3.49193 116.86 2.51535 116.752 1.8643H120.631ZM128.199 7.6695C127.521 8.3748 126.68 9.26999 126.11 9.92104C124.591 11.6572 122.313 13.9087 119.844 15.6449C116.914 17.7336 112.764 19.524 108.559 20.799L106.47 17.598C111.706 16.4315 115.178 14.5598 117.511 13.0407C119.6 11.7114 121.282 10.1109 122.096 8.99872C120.631 8.99872 113.415 8.99872 112.276 8.99872C111.299 8.99872 109.59 9.05298 108.722 9.13436V5.58071C109.753 5.71635 111.272 5.74347 112.194 5.74347C113.415 5.74347 122.096 5.74347 123.696 5.74347C124.537 5.74347 125.324 5.66209 125.948 5.49933L128.199 7.6695ZM120.387 13.5832C120.387 15.5364 120.387 19.9038 120.387 22.1011C120.387 23.1591 120.468 24.7053 120.549 25.5462H116.67C116.752 24.7867 116.86 23.1591 116.86 22.1011C116.86 20.0123 116.86 16.6757 116.86 15.0481L120.387 13.5832ZM128.606 21.0431C126.246 19.1985 124.456 18.0592 122.123 16.7299L124.347 14.1529C126.843 15.4821 128.254 16.2959 130.858 18.0592L128.606 21.0431ZM154.702 5.63496C154.485 5.93336 153.997 6.74718 153.753 7.31684C152.641 9.89392 150.633 13.5832 148.3 16.2959C145.262 19.7953 141.166 23.1591 136.961 25.1393L134.14 22.2096C138.535 20.582 142.712 17.2725 145.262 14.4513C147.053 12.4167 148.707 9.73115 149.331 7.80513C148.192 7.80513 141.275 7.80513 140.108 7.80513C138.996 7.80513 137.504 7.94077 136.907 7.99502V4.11585C137.64 4.22436 139.321 4.30574 140.108 4.30574C141.546 4.30574 148.49 4.30574 149.684 4.30574C150.878 4.30574 151.935 4.1701 152.505 3.98021L154.702 5.63496ZM148.653 14.0444C151.447 16.323 155.299 20.365 157.062 22.5351L153.97 25.2207C151.963 22.4266 149.006 19.1985 146.103 16.5672L148.653 14.0444ZM164.929 2.78662H181.585V5.87911H164.929V2.78662ZM164.929 9.02585H181.64V12.0641H164.929V9.02585ZM164.875 15.4278H181.748V18.4932H164.875V15.4278ZM163.058 2.78662H166.286V12.5524C166.286 16.8656 165.743 22.9692 162.407 26.6042C161.891 25.9803 160.562 24.8952 159.857 24.4883C162.813 21.2059 163.058 16.3502 163.058 12.5252V2.78662ZM180.446 2.78662H183.674V22.6165C183.674 24.3527 183.294 25.2207 182.209 25.7361C181.07 26.2515 179.442 26.3058 176.974 26.2787C176.838 25.4106 176.35 24 175.916 23.1591C177.462 23.2676 179.252 23.2404 179.741 23.2404C180.256 23.2133 180.446 23.0506 180.446 22.5894V2.78662ZM171.413 4.00734H174.722V26.1159H171.413V4.00734ZM207.492 1.72867C208.17 2.73237 209.119 4.44137 209.635 5.44508L207.465 6.3674C206.895 5.28231 206.054 3.65469 205.322 2.62386L207.492 1.72867ZM210.693 0.507946C211.398 1.51165 212.402 3.24778 212.89 4.19723L210.72 5.11955C210.15 3.98021 209.282 2.40684 208.55 1.37601L210.693 0.507946ZM197.319 11.9556C200.656 13.8816 205.701 17.3539 208.197 19.3613L205.62 22.4266C203.233 20.2022 198.106 16.4315 194.932 14.4241L197.319 11.9556ZM210.096 7.34397C209.798 7.85939 209.445 8.61894 209.201 9.29712C208.36 11.7928 206.705 15.2651 204.291 18.2762C201.741 21.4501 198.241 24.4883 193.06 26.4414L189.913 23.7287C195.583 21.9655 198.838 19.1171 201.144 16.4044C202.989 14.2343 204.671 11.1418 205.186 9.02585H195.99L197.265 5.96049H204.969C205.81 5.96049 206.732 5.82486 207.329 5.63496L210.096 7.34397ZM201.117 3.1664C200.466 4.11585 199.788 5.36369 199.462 5.93336C197.617 9.21574 194.145 13.3662 190.266 16.0518L187.336 13.8002C192.084 10.8705 194.606 7.12695 195.963 4.79403C196.37 4.11585 196.966 2.868 197.211 1.94568L201.117 3.1664ZM220.024 3.38342C221.896 4.65839 225.423 7.47961 227.023 9.13436L224.256 11.9556C222.846 10.4365 219.428 7.47961 217.447 6.12325L220.024 3.38342ZM216.606 21.4501C220.865 20.8533 224.365 19.4698 226.996 17.9235C231.635 15.1566 235.161 11.0333 236.897 7.3711L238.986 11.1689C236.952 14.8582 233.344 18.6017 228.976 21.233C226.209 22.8878 222.71 24.3798 218.912 25.0308L216.606 21.4501ZM259.82 5.20093C260.607 6.34027 261.773 8.29342 262.397 9.54126L259.956 10.5992C259.169 8.89021 258.464 7.58812 257.46 6.17751L259.82 5.20093ZM263.455 3.70894C264.269 4.79403 265.489 6.72005 266.113 7.94077L263.726 9.08011C262.858 7.3711 262.126 6.15038 261.122 4.79403L263.455 3.70894ZM241.563 16.2959C242.35 15.6177 242.947 15.0481 243.788 14.2071C245.008 12.9864 247.124 10.328 248.996 8.10353C250.624 6.17751 252.224 5.87911 254.313 7.85939C256.158 9.59552 258.219 11.7386 259.847 13.5018C261.665 15.455 264.459 18.4389 266.547 20.6634L263.536 23.8915C261.719 21.6399 259.44 18.8187 257.84 16.947C256.239 15.0752 253.852 12.4439 252.875 11.4402C251.98 10.5721 251.41 10.6263 250.651 11.6029C249.566 12.9864 247.667 15.6449 246.555 17.1368C245.931 17.9778 245.307 18.9544 244.819 19.6597L241.563 16.2959ZM281.359 23.4032C281.494 22.8878 281.576 22.1554 281.576 21.4229C281.576 19.9852 281.576 7.80513 281.576 5.60784C281.576 4.38712 281.386 3.32916 281.386 3.27491H285.401C285.401 3.32916 285.211 4.41425 285.211 5.63496C285.211 7.80513 285.211 18.1406 285.211 19.7953C287.435 18.8459 290.094 16.7028 291.938 14.0715L294 17.0826C291.748 20.0123 287.869 22.942 284.804 24.4883C284.234 24.7867 283.909 25.0851 283.637 25.275L281.359 23.4032ZM268.799 23.0234C271.213 21.3415 272.678 18.8459 273.411 16.5129C274.197 14.2071 274.224 9.05298 274.224 5.79773C274.224 4.68552 274.116 3.98021 273.953 3.30204H277.941C277.941 3.41054 277.751 4.63126 277.751 5.74347C277.751 8.9716 277.67 14.6954 276.964 17.4352C276.123 20.4735 274.441 23.1591 272.108 25.2207L268.799 23.0234Z" fill="#E03638"/>
</svg>
