<svg width="1213" height="109" viewBox="0 0 1213 109" fill="none" xmlns="http://www.w3.org/2000/svg">
<path d="M85.62 23.4811C84.4995 25.6102 83.715 28.8599 83.1548 31.2131C80.5774 42.1948 75.6468 59.5639 66.2339 72.1145C56.1486 85.4494 41.2449 96.6553 21.1864 103.043L8.972 89.5956C31.2716 84.4409 43.8222 74.6918 52.8989 63.3739C60.4069 53.961 64.553 41.2984 66.1219 31.6613C59.2863 31.6613 22.307 31.6613 13.9026 31.6613C8.74788 31.6613 3.48113 31.9975 0.56761 32.1096V16.3093C3.92937 16.7576 10.2046 17.2058 13.9026 17.2058C22.307 17.2058 59.5104 17.2058 65.7857 17.2058C67.9148 17.2058 71.5007 17.0937 74.5262 16.4214L85.62 23.4811ZM107.748 66.1754C122.428 62.9257 139.012 55.4178 147.865 50.0389C158.847 43.4275 170.053 33.4543 175.88 26.1705L186.973 37.0402C180.25 44.324 166.691 54.8575 154.477 62.0292C144.391 67.9683 127.134 75.4762 114.36 79.2862L107.748 66.1754ZM146.632 58.8916L161.872 55.978V95.7588C161.872 99.7929 161.984 105.732 162.657 107.973H145.96C146.296 105.732 146.632 99.7929 146.632 95.7588V58.8916ZM264.406 31.5493C266.535 36.2557 272.026 50.9354 273.595 56.0901L260.26 60.6845C258.803 55.3057 253.872 41.7466 251.183 35.9196L264.406 31.5493ZM305.756 39.6175C304.523 43.3154 303.851 45.6687 303.178 47.9098C300.265 59.2277 295.446 70.8818 287.826 80.6309C277.405 94.19 263.509 103.491 250.399 108.534L238.632 96.5432C250.847 93.1815 266.535 84.665 275.724 73.0109C283.344 63.598 288.835 48.6942 290.067 34.5749L305.756 39.6175ZM238.408 37.3763C241.21 43.0913 246.701 56.7625 248.83 63.0377L235.159 68.0804C233.366 62.1413 227.651 47.1254 224.961 42.3069L238.408 37.3763ZM355.061 87.3544C355.061 78.7259 355.061 32.3337 355.061 22.9208C355.061 18.8867 354.725 13.3958 353.941 9.3617H371.422C370.974 13.3958 370.413 18.2143 370.413 22.9208C370.413 35.2472 370.525 79.0621 370.525 87.3544C370.525 90.4921 370.974 98.3362 371.534 102.931H353.941C354.725 98.5603 355.061 91.7247 355.061 87.3544ZM367.164 38.3849C382.067 42.531 406.272 51.3836 417.254 56.7625L410.978 72.3386C398.204 65.7271 379.378 58.5554 367.164 54.5213V38.3849ZM496.703 6.56023C496.255 9.13758 495.919 13.3958 495.919 16.8696C495.919 20.2314 495.919 25.9464 495.919 29.3081H481.239C481.239 25.9464 481.239 20.7917 481.239 16.8696C481.239 13.2837 481.127 9.24964 480.679 6.56023H496.703ZM527.968 30.5408C525.166 33.4543 521.692 37.1522 519.339 39.8416C513.064 47.0134 503.651 56.3142 493.454 63.486C481.351 72.1145 464.206 79.5103 446.837 84.7771L438.209 71.5542C459.836 66.7357 474.179 59.0036 483.817 52.7284C492.445 47.2375 499.393 40.626 502.754 36.0316C496.703 36.0316 466.896 36.0316 462.189 36.0316C458.155 36.0316 451.095 36.2557 447.51 36.5919V21.9123C451.768 22.4725 458.043 22.5846 461.853 22.5846C466.896 22.5846 502.754 22.5846 509.366 22.5846C512.84 22.5846 516.089 22.2484 518.667 21.5761L527.968 30.5408ZM495.695 54.9695C495.695 63.0377 495.695 81.0792 495.695 90.1559C495.695 94.5262 496.031 100.914 496.367 104.387H480.343C480.679 101.25 481.127 94.5262 481.127 90.1559C481.127 81.5274 481.127 67.7442 481.127 61.0207L495.695 54.9695ZM529.648 85.7856C519.899 78.1656 512.504 73.4592 502.866 67.9683L512.055 57.3228C522.365 62.8136 528.192 66.1754 538.949 73.4592L529.648 85.7856ZM637.449 22.1364C636.552 23.369 634.535 26.7308 633.527 29.084C628.932 39.7296 620.64 54.9695 611.003 66.1754C598.452 80.6309 581.532 94.5262 564.162 102.706L552.508 90.6041C570.662 83.8806 587.919 70.2095 598.452 58.5554C605.848 50.151 612.684 39.0572 615.261 31.1011C610.555 31.1011 581.98 31.1011 577.161 31.1011C572.567 31.1011 566.404 31.6613 563.938 31.8855V15.8611C566.964 16.3093 573.912 16.6455 577.161 16.6455C583.1 16.6455 611.787 16.6455 616.718 16.6455C621.649 16.6455 626.019 16.0852 628.372 15.3008L637.449 22.1364ZM612.46 56.8745C624.002 66.2874 639.914 82.9842 647.198 91.9488L634.423 103.043C626.131 91.5006 613.916 78.1656 601.926 67.296L612.46 56.8745ZM679.695 10.3702H748.499V23.1449H679.695V10.3702ZM679.695 36.1437H748.723V48.6942H679.695V36.1437ZM679.471 62.5895H749.171V75.2521H679.471V62.5895ZM671.963 10.3702H685.298V50.7113C685.298 68.5286 683.057 93.7418 669.273 108.758C667.144 106.18 661.653 101.698 658.74 100.017C670.954 86.458 671.963 66.3995 671.963 50.5992V10.3702ZM743.792 10.3702H757.127V92.285C757.127 99.4568 755.558 103.043 751.076 105.172C746.37 107.301 739.646 107.525 729.449 107.413C728.889 103.827 726.871 98 725.079 94.5262C731.466 94.9744 738.862 94.8624 740.879 94.8624C743.008 94.7503 743.792 94.078 743.792 92.173V10.3702ZM706.477 15.4129H720.148V106.741H706.477V15.4129ZM855.515 5.99994C858.316 10.1461 862.238 17.2058 864.367 21.352L855.403 25.1619C853.049 20.6796 849.576 13.9561 846.55 9.69787L855.515 5.99994ZM868.738 0.957304C871.651 5.10347 875.797 12.2752 877.814 16.1973L868.85 20.0073C866.496 15.3008 862.911 8.8014 859.885 4.54318L868.738 0.957304ZM813.493 48.246C827.276 56.2022 848.119 70.5457 858.428 78.838L847.783 91.5006C837.921 82.3118 816.742 66.7357 803.632 58.4433L813.493 48.246ZM866.272 29.1961C865.04 31.3252 863.583 34.4628 862.574 37.2643C859.101 47.5737 852.265 61.9171 842.292 74.3556C831.758 87.4665 817.303 100.017 795.9 108.085L782.901 96.8794C806.321 89.5956 819.768 77.8295 829.293 66.6236C836.913 57.6589 843.861 44.8843 845.99 36.1437H808.002L813.269 23.4811H845.093C848.567 23.4811 852.377 22.9208 854.842 22.1364L866.272 29.1961ZM829.181 11.939C826.492 15.8611 823.69 21.0158 822.345 23.369C814.725 36.9281 800.382 54.0731 784.357 65.1668L772.255 55.866C791.865 43.7637 802.287 28.2996 807.89 18.6626C809.571 15.8611 812.036 10.7064 813.044 6.89641L829.181 11.939ZM907.286 12.8355C915.018 18.1023 929.585 29.7564 936.197 36.5919L924.767 48.246C918.94 41.9707 904.82 29.7564 896.64 24.1534L907.286 12.8355ZM893.166 87.4665C910.76 85.0012 925.215 79.2862 936.085 72.8989C955.247 61.4689 969.814 44.436 976.986 29.3081L985.615 44.9963C977.21 60.2363 962.306 75.7004 944.265 86.57C932.835 93.4056 918.38 99.5688 902.691 102.258L893.166 87.4665ZM1071.68 20.3434C1074.93 25.0499 1079.74 33.1181 1082.32 38.2728L1072.24 42.6431C1068.99 35.5834 1066.07 30.2046 1061.93 24.3775L1071.68 20.3434ZM1086.69 14.1802C1090.05 18.6626 1095.1 26.6187 1097.67 31.6613L1087.81 36.3678C1084.23 29.3081 1081.2 24.2655 1077.05 18.6626L1086.69 14.1802ZM996.26 66.1754C999.51 63.3739 1001.98 61.0207 1005.45 57.5469C1010.49 52.5042 1019.23 41.5225 1026.96 32.3337C1033.69 24.3775 1040.3 23.1449 1048.93 31.3252C1056.55 38.4969 1065.06 47.3495 1071.79 54.6333C1079.3 62.7016 1090.84 75.028 1099.47 84.2168L1087.03 97.5518C1079.52 88.2509 1070.11 76.5968 1063.5 68.8648C1056.88 61.1327 1047.02 50.2631 1042.99 46.1169C1039.29 42.531 1036.94 42.7551 1033.8 46.7892C1029.32 52.5042 1021.47 63.486 1016.88 69.6492C1014.3 73.123 1011.72 77.1571 1009.71 80.0706L996.26 66.1754ZM1160.65 95.5347C1161.21 93.4056 1161.55 90.38 1161.55 87.3544C1161.55 81.4153 1161.55 31.1011 1161.55 22.0243C1161.55 16.9817 1160.76 12.6114 1160.76 12.3873H1177.35C1177.35 12.6114 1176.56 17.0937 1176.56 22.1364C1176.56 31.1011 1176.56 73.7954 1176.56 80.6309C1185.75 76.7089 1196.73 67.8563 1204.35 56.9866L1212.87 69.4251C1203.57 81.5274 1187.54 93.6297 1174.88 100.017C1172.53 101.25 1171.18 102.482 1170.06 103.267L1160.65 95.5347ZM1108.77 93.9659C1118.74 87.0183 1124.79 76.7089 1127.82 67.0718C1131.07 57.5469 1131.18 36.2557 1131.18 22.8087C1131.18 18.2143 1130.73 15.3008 1130.06 12.4993H1146.53C1146.53 12.9476 1145.75 17.9902 1145.75 22.5846C1145.75 35.9196 1145.41 59.5639 1142.5 70.8818C1139.02 83.4324 1132.08 94.5262 1122.44 103.043L1108.77 93.9659Z" fill="#E03638"/>
</svg>
