<svg width="88" height="95" viewBox="0 0 88 95" fill="none" xmlns="http://www.w3.org/2000/svg">
<path d="M46.3936 72.0911C48.6444 73.3182 51.062 73.4298 53.2573 74.4059C54.3687 74.8566 55.446 75.3879 56.4807 75.9955C57.7321 76.6552 58.7799 77.6456 59.511 78.8597C60.242 80.0738 60.6284 81.4654 60.6284 82.8839C60.6284 84.3025 60.242 85.694 59.511 86.9081C58.7799 88.1222 57.7321 89.1127 56.4807 89.7723C52.9512 91.9443 48.9826 93.2973 44.8652 93.7325C35.368 95.4712 25.6291 95.3955 16.1599 93.5094C12.9424 92.8789 9.93319 91.4503 7.40656 89.354C6.46739 88.5688 5.71176 87.586 5.1932 86.4751C4.67464 85.3642 4.40584 84.1525 4.40584 82.9258C4.40584 81.699 4.67464 80.4873 5.1932 79.3764C5.71176 78.2655 6.46739 77.2827 7.40656 76.4975C10.4756 74.171 14.078 72.6558 17.8828 72.0911C14.3814 69.9716 10.5466 68.6051 10.0187 64.1151C9.49069 59.6251 12.4362 57.1151 16.6045 55.1909C13.8257 54.6052 11.4914 54.2148 9.2128 53.6849C6.94391 53.194 4.81561 52.1928 2.98822 50.7566C2.06514 50.1056 1.31173 49.2412 0.791623 48.2364C0.271519 47.2317 0 46.116 0 44.9837C0 43.8515 0.271519 42.7358 0.791623 41.7311C1.31173 40.7263 2.06514 39.8619 2.98822 39.2109C6.25374 36.7817 10.1798 35.4099 14.2425 35.2786C22.3804 34.3926 30.6087 34.8828 38.585 36.7288C40.6877 37.1889 42.6859 38.0402 44.4762 39.2388C45.4982 39.8215 46.3446 40.6703 46.926 41.6955C47.5074 42.7208 47.8023 43.8846 47.7795 45.0641C47.7567 46.2435 47.4172 47.395 46.7966 48.3969C46.1761 49.3988 45.2976 50.2141 44.2539 50.7566C42.7811 51.7885 41.086 52.402 39.4187 53.5455C41.9474 53.9638 44.4762 54.3542 46.9771 54.8562C49.6158 55.296 52.1281 56.3045 54.341 57.8124C55.3716 58.4622 56.2034 59.3849 56.745 60.4788C57.2867 61.5727 57.517 62.7953 57.4107 64.0121C57.3044 65.2289 56.8656 66.3927 56.1425 67.3753C55.4195 68.3579 54.4404 69.1212 53.3128 69.5812C51.1629 70.8459 48.8134 71.7325 46.3658 72.2027" fill="#62353E"/>
<path d="M43.2534 0.111534C47.5307 5.76762 51.1657 11.8852 54.0909 18.3505C54.9138 20.2498 55.2139 22.3359 54.9597 24.3913C54.7056 26.4466 53.9065 28.3959 52.6459 30.0357C51.9234 31.0397 51.3954 31.1233 50.5062 30.1751C47.9636 27.5455 45.5965 24.7506 43.4201 21.8086C42.0582 20.0582 41.0898 18.0328 40.5814 15.8713C40.073 13.7099 40.0365 11.4637 40.4746 9.2868C41.1052 6.10975 42.0357 3.00013 43.2534 0" fill="#62353E"/>
<path d="M73.1259 9.78857C71.7307 17.0281 69.4146 24.0577 66.2344 30.7048C65.3487 32.3988 64.0301 33.8261 62.4139 34.8405C60.7977 35.8549 58.9419 36.4199 57.0365 36.4777C55.9527 36.4777 55.4525 36.4776 55.5359 35.139C55.6764 30.5515 56.424 26.003 57.759 21.6132C58.5471 19.1872 60.0368 17.0514 62.0384 15.4778C65.3805 12.9652 69.1455 11.0759 73.1537 9.90015" fill="#62353E"/>
<path d="M87.8536 37.5097C82.02 40.9842 75.858 43.8708 69.4578 46.1272C67.4131 46.8882 65.1968 47.059 63.0603 46.6203C60.9238 46.1816 58.9524 45.1509 57.3699 43.6451C56.4251 42.8085 56.4251 42.2507 57.3699 41.442C60.263 39.1793 63.3084 37.1199 66.4844 35.2787C68.4748 34.0636 70.7115 33.3125 73.0297 33.0808C75.3479 32.8491 77.6884 33.1427 79.8784 33.94C82.7002 34.8179 85.4131 36.0155 87.9648 37.5097" fill="#62353E"/>
</svg>
