<svg width="90" height="95" viewBox="0 0 90 95" fill="none" xmlns="http://www.w3.org/2000/svg">
<path d="M30.8984 56.5973C24.7877 50.8579 20.7449 43.2476 19.4024 34.9569C18.06 26.6663 19.4935 18.1628 23.4789 10.7769C17.5071 13.4577 12.2884 17.5787 8.28723 22.7731C4.28607 27.9674 1.6266 34.074 0.545549 40.5493C-0.535503 47.0245 -0.00460339 53.6676 2.09099 59.8871C4.18658 66.1067 7.78186 71.7098 12.5568 76.1977C17.3317 80.6857 23.1382 83.9192 29.4594 85.6105C35.7806 87.3019 42.4204 87.3985 48.7878 85.8919C55.1552 84.3852 61.0527 81.322 65.9553 76.9749C70.8579 72.6278 74.6136 67.1317 76.888 60.9758C69.8087 65.4318 61.4597 67.4131 53.1415 66.6111C44.8233 65.8091 37.0029 62.2687 30.8984 56.5415" fill="#62353E"/>
<path d="M89.4205 17.5816C89.5527 17.4556 89.6469 17.2947 89.6924 17.1175C89.7379 16.9403 89.7329 16.7538 89.6778 16.5793C89.6227 16.4048 89.5199 16.2494 89.3811 16.1307C89.2422 16.0121 89.0729 15.935 88.8925 15.9083L82.39 14.9601C82.2353 14.9386 82.0884 14.8789 81.9623 14.7865C81.8362 14.694 81.7349 14.5716 81.6675 14.4302L78.6664 8.51793C78.5799 8.36101 78.4531 8.2302 78.2991 8.13912C78.1452 8.04804 77.9698 8 77.7911 8C77.6124 8 77.4369 8.04804 77.283 8.13912C77.1291 8.2302 77.0022 8.36101 76.9157 8.51793L74.1369 14.4302C74.067 14.5753 73.9614 14.7 73.8301 14.7927C73.6989 14.8854 73.5462 14.943 73.3866 14.9601L66.9119 15.9083C66.7292 15.9306 66.5566 16.0045 66.4141 16.1214C66.2716 16.2383 66.165 16.3934 66.1068 16.5686C66.0486 16.7438 66.0411 16.932 66.0853 17.1114C66.1294 17.2907 66.2234 17.4537 66.3562 17.5816L71.0524 22.1553C71.1693 22.263 71.2563 22.3992 71.305 22.5508C71.3537 22.7023 71.3624 22.8639 71.3303 23.0198L70.3299 29.5178C70.3014 29.6946 70.3219 29.8759 70.3892 30.0418C70.4565 30.2078 70.568 30.3519 70.7115 30.4584C70.8549 30.565 71.0249 30.6299 71.2026 30.646C71.3804 30.6621 71.5592 30.6287 71.7193 30.5497L77.4437 27.5098C77.5821 27.4262 77.7406 27.3821 77.9022 27.3821C78.0638 27.3821 78.2223 27.4262 78.3607 27.5098L84.2241 30.5497C84.3842 30.6287 84.563 30.6621 84.7407 30.646C84.9185 30.6299 85.0884 30.565 85.2319 30.4584C85.3754 30.3519 85.4869 30.2078 85.5542 30.0418C85.6215 29.8759 85.642 29.6946 85.6135 29.5178L84.5019 23.0198C84.4773 22.8639 84.4896 22.7044 84.5379 22.5542C84.5862 22.404 84.6691 22.2673 84.7798 22.1553L89.476 17.5816" fill="#62353E"/>
<path d="M55.9079 36.4899L51.9064 37.0755C51.7968 37.0947 51.6946 37.1435 51.6107 37.2166C51.5267 37.2898 51.4642 37.3845 51.4299 37.4906C51.3956 37.5968 51.3908 37.7103 51.416 37.819C51.4412 37.9276 51.4955 38.0273 51.5729 38.1074L54.3517 40.8962L54.5185 41.4261L53.8238 45.442C53.8087 45.5511 53.8232 45.6622 53.8656 45.7637C53.9081 45.8652 53.977 45.9534 54.0651 46.019C54.1531 46.0845 54.2572 46.1251 54.3663 46.1365C54.4754 46.1478 54.5856 46.1295 54.6852 46.0834L58.4088 44.2428H58.9646L62.5771 46.1392C62.6767 46.1853 62.7868 46.2036 62.896 46.1923C63.0051 46.1809 63.1091 46.1403 63.1972 46.0747C63.2853 46.0091 63.3542 45.921 63.3967 45.8194C63.4391 45.7179 63.4536 45.6068 63.4385 45.4978L62.7438 41.454L62.9105 40.9241L65.8283 38.1353C65.9058 38.0552 65.96 37.9555 65.9852 37.8468C66.0104 37.7382 66.0056 37.6247 65.9713 37.5185C65.937 37.4124 65.8745 37.3177 65.7906 37.2445C65.7066 37.1714 65.6044 37.1226 65.4948 37.1034L61.4655 36.5178L61.0209 36.1831L59.2147 32.5018C59.163 32.4025 59.0851 32.3192 58.9896 32.2612C58.8941 32.2031 58.7845 32.1724 58.6728 32.1724C58.5611 32.1724 58.4516 32.2031 58.356 32.2612C58.2605 32.3192 58.1827 32.4025 58.1309 32.5018L56.4359 36.1552L55.9635 36.4899" fill="#62353E"/>
<path d="M51.2394 15.4618V15.7686L50.8782 18.1112C50.8644 18.179 50.8701 18.2494 50.8949 18.314C50.9196 18.3786 50.9623 18.4348 51.0178 18.4758C51.0733 18.5169 51.1394 18.5411 51.2082 18.5457C51.2771 18.5503 51.3457 18.535 51.4062 18.5016L53.4903 17.3861H53.8238L55.9357 18.5016C55.9951 18.5275 56.0604 18.5368 56.1247 18.5286C56.189 18.5204 56.2499 18.495 56.301 18.4551C56.3522 18.4152 56.3917 18.3622 56.4154 18.3017C56.4391 18.2412 56.4462 18.1754 56.4359 18.1112L56.0468 15.7686V15.4618L57.7697 13.7885C57.8165 13.7415 57.8495 13.6825 57.8651 13.6179C57.8808 13.5533 57.8784 13.4857 57.8583 13.4224C57.8383 13.359 57.8012 13.3025 57.7513 13.2588C57.7014 13.2152 57.6404 13.1862 57.5752 13.175L55.2132 12.8403L54.9631 12.6451L54.0461 10.4977C54.0154 10.4393 53.9694 10.3904 53.9131 10.3563C53.8568 10.3222 53.7923 10.3042 53.7265 10.3042C53.6607 10.3042 53.5962 10.3222 53.5399 10.3563C53.4836 10.3904 53.4376 10.4393 53.4069 10.4977L52.351 12.6451L52.1009 12.8403L49.7389 13.175C49.6736 13.1862 49.6127 13.2152 49.5628 13.2588C49.5128 13.3025 49.4758 13.359 49.4557 13.4224C49.4356 13.4857 49.4333 13.5533 49.4489 13.6179C49.4645 13.6825 49.4976 13.7415 49.5444 13.7885L51.2394 15.4618Z" fill="#62353E"/>
</svg>
