<svg width="80" height="95" viewBox="0 0 80 95" fill="none" xmlns="http://www.w3.org/2000/svg">
<path d="M43.1275 18.4343C43.0245 19.2192 42.6408 19.9398 42.0478 20.4618C41.4547 20.9837 40.6928 21.2715 39.904 21.2715C39.1152 21.2715 38.3533 20.9837 37.7603 20.4618C37.1672 19.9398 36.7835 19.2192 36.6806 18.4343V16.9841C36.7835 16.1992 37.1672 15.4787 37.7603 14.9567C38.3533 14.4347 39.1152 14.1469 39.904 14.1469C40.6928 14.1469 41.4547 14.4347 42.0478 14.9567C42.6408 15.4787 43.0245 16.1992 43.1275 16.9841V18.4343ZM43.1275 29.8127C43.0245 30.5976 42.6408 31.3182 42.0478 31.8402C41.4547 32.3621 40.6928 32.65 39.904 32.65C39.1152 32.65 38.3533 32.3621 37.7603 31.8402C37.1672 31.3182 36.7835 30.5976 36.6806 29.8127V28.3625C36.7835 27.5777 37.1672 26.8571 37.7603 26.3351C38.3533 25.8131 39.1152 25.5253 39.904 25.5253C40.6928 25.5253 41.4547 25.8131 42.0478 26.3351C42.6408 26.8571 43.0245 27.5777 43.1275 28.3625V29.8127ZM43.1275 40.968C43.0245 41.7529 42.6408 42.4735 42.0478 42.9955C41.4547 43.5175 40.6928 43.8053 39.904 43.8053C39.1152 43.8053 38.3533 43.5175 37.7603 42.9955C37.1672 42.4735 36.7835 41.7529 36.6806 40.968V39.5179C36.7835 38.733 37.1672 38.0124 37.7603 37.4904C38.3533 36.9684 39.1152 36.6806 39.904 36.6806C40.6928 36.6806 41.4547 36.9684 42.0478 37.4904C42.6408 38.0124 43.0245 38.733 43.1275 39.5179V40.968ZM43.1275 52.1233C43.0245 52.9082 42.6408 53.6288 42.0478 54.1508C41.4547 54.6728 40.6928 54.9606 39.904 54.9606C39.1152 54.9606 38.3533 54.6728 37.7603 54.1508C37.1672 53.6288 36.7835 52.9082 36.6806 52.1233V50.6732C36.7835 49.8883 37.1672 49.1677 37.7603 48.6457C38.3533 48.1237 39.1152 47.8359 39.904 47.8359C40.6928 47.8359 41.4547 48.1237 42.0478 48.6457C42.6408 49.1677 43.0245 49.8883 43.1275 50.6732V52.1233ZM43.1275 62.6093C43.0245 63.3942 42.6408 64.1148 42.0478 64.6368C41.4547 65.1588 40.6928 65.4466 39.904 65.4466C39.1152 65.4466 38.3533 65.1588 37.7603 64.6368C37.1672 64.1148 36.7835 63.3942 36.6806 62.6093V61.1591C36.7835 60.3743 37.1672 59.6537 37.7603 59.1317C38.3533 58.6097 39.1152 58.3219 39.904 58.3219C40.6928 58.3219 41.4547 58.6097 42.0478 59.1317C42.6408 59.6537 43.0245 60.3743 43.1275 61.1591V62.6093ZM43.1275 73.3742C43.0245 74.1591 42.6408 74.8797 42.0478 75.4016C41.4547 75.9236 40.6928 76.2115 39.904 76.2115C39.1152 76.2115 38.3533 75.9236 37.7603 75.4016C37.1672 74.8797 36.7835 74.1591 36.6806 73.3742V71.8404C36.7835 71.0555 37.1672 70.3349 37.7603 69.8129C38.3533 69.2909 39.1152 69.0031 39.904 69.0031C40.6928 69.0031 41.4547 69.2909 42.0478 69.8129C42.6408 70.3349 43.0245 71.0555 43.1275 71.8404V73.3742ZM76.7791 68.3264C76.7791 68.3264 76.2789 61.94 75.8065 55.6373C75.3341 49.3345 74.2781 41.3306 73.9725 35.474C73.6668 29.6175 73.9725 26.243 71.8883 24.1235C69.3343 21.8511 65.9866 20.6877 62.5793 20.8885C60.4703 20.4324 58.3914 19.8456 56.3547 19.1315C53.0688 18.3807 50.2005 16.3816 48.3517 13.5539C47.8058 11.6496 47.8058 9.62949 48.3517 7.72522C45.5997 7.23651 42.8099 6.99386 40.0152 7.00012C37.3993 7.00011 34.7877 7.21465 32.2066 7.64156C32.6791 9.90051 32.9291 12.271 32.2066 13.2192C30.2072 16.1069 27.2541 18.1914 23.8702 19.1036C21.8334 19.8177 19.7546 20.4045 17.6456 20.8606C14.2348 20.6143 10.8663 21.7378 8.28092 23.9841C6.28016 26.1036 6.50247 29.5617 6.19679 35.3346C5.89112 41.1075 4.80738 49.2787 4.36277 55.4978C3.91815 61.7169 3.39017 68.187 3.39017 68.187C1.95494 70.7827 0.817611 73.5333 0 76.3861C3.61826 78.652 7.5256 80.4157 11.6155 81.6291C11.81 80.7646 12.0046 79.9837 12.1435 79.2865C13.4218 72.5933 13.1161 69.8882 13.8664 65.3424C14.6167 60.7966 16.145 49.9481 16.145 49.9481C16.7667 53.714 17.8301 57.3929 19.3129 60.9082C21.4804 65.7607 22.3696 67.9918 21.0635 73.5694C20.005 76.8842 18.6081 80.0804 16.8953 83.1072C24.173 84.919 31.6293 85.9105 39.1259 86.0634C37.6532 86.0634 40.8766 86.0634 39.376 86.0634H39.8762C47.7434 86.1461 55.5913 85.2657 63.2462 83.4419C61.4818 80.2921 60.0298 76.9761 58.9112 73.5415C57.6052 67.9639 58.4944 65.7328 60.6619 60.8803C62.1447 57.365 63.208 53.6861 63.8297 49.9202C63.8297 49.9202 65.3581 60.7687 66.1084 65.3145C66.8587 69.8603 66.553 72.5376 67.8313 79.2586C67.9702 80.0116 68.1925 80.904 68.4426 81.8801C72.57 80.4616 76.3897 78.2656 79.6969 75.4101C78.9717 72.9221 78.0037 70.512 76.8069 68.2149L76.7791 68.3264Z" fill="#62353E"/>
</svg>
