<svg width="79" height="95" viewBox="0 0 79 95" fill="none" xmlns="http://www.w3.org/2000/svg">
<path d="M39.4594 46.49C35.2327 46.4879 31.1561 48.0629 28.022 50.909C24.8878 53.7551 22.92 57.6689 22.5008 61.8899C22.0816 66.111 23.241 70.3376 25.7537 73.7486C28.2665 77.1595 31.953 79.5111 36.097 80.3463C27.4692 79.485 19.4998 75.3334 13.8324 68.748C8.16513 62.1626 5.23216 53.6455 5.63847 44.9534C6.04479 36.2614 9.75939 28.0573 16.0161 22.0333C22.2729 16.0093 30.5946 12.6247 39.2649 12.5778H40.821C45.0174 12.9674 48.9173 14.9168 51.7552 18.0436C54.5931 21.1703 56.1642 25.2486 56.1602 29.4781C56.1602 46.3784 39.4872 46.4621 39.4872 46.4621M39.4872 68.5775C38.5968 68.5775 37.7265 68.3125 36.9862 67.8161C36.2459 67.3196 35.6689 66.614 35.3282 65.7885C34.9874 64.963 34.8983 64.0546 35.072 63.1782C35.2457 62.3018 35.6744 61.4968 36.304 60.8649C36.9336 60.2331 37.7357 59.8028 38.609 59.6285C39.4822 59.4542 40.3873 59.5436 41.2099 59.8856C42.0325 60.2275 42.7356 60.8066 43.2302 61.5496C43.7249 62.2925 43.9889 63.166 43.9889 64.0596C43.9891 64.666 43.8683 65.2664 43.6338 65.8253C43.3992 66.3842 43.0556 66.8904 42.6232 67.314C42.1907 67.7376 41.6782 68.0701 41.1158 68.2919C40.5533 68.5137 39.9524 68.6203 39.3483 68.6054L39.4872 68.5775ZM39.4872 7.00016C31.6958 6.97809 24.0731 9.27628 17.5837 13.6039C11.0944 17.9315 6.03015 24.0939 3.03201 31.3112C0.0338666 38.5285 -0.763405 46.4762 0.741101 54.1485C2.24561 61.8207 5.98426 68.8726 11.4839 74.4115C16.9835 79.9504 23.9968 83.7274 31.6362 85.2644C39.2756 86.8014 47.1976 86.0294 54.3996 83.046C61.6016 80.0625 67.7597 75.0019 72.0947 68.5045C76.4297 62.0072 78.7465 54.3651 78.7521 46.5457C78.7447 36.0624 74.59 26.011 67.2011 18.6008C59.8123 11.1906 49.794 7.02805 39.3483 7.02805L39.4872 7.00016Z" fill="#62353E"/>
<path d="M39.3483 24.7096C40.2386 24.7096 41.109 24.9745 41.8493 25.471C42.5896 25.9674 43.1666 26.673 43.5073 27.4985C43.848 28.3241 43.9372 29.2325 43.7635 30.1089C43.5898 30.9852 43.161 31.7903 42.5315 32.4221C41.9019 33.0539 41.0998 33.4842 40.2265 33.6585C39.3533 33.8329 38.4481 33.7434 37.6256 33.4015C36.803 33.0595 36.0999 32.4804 35.6053 31.7375C35.1106 30.9945 34.8466 30.121 34.8466 29.2275C34.8429 28.6331 34.9568 28.044 35.1817 27.4942C35.4067 26.9444 35.7381 26.4448 36.1569 26.0246C36.5756 25.6043 37.0734 25.2717 37.6212 25.0459C38.169 24.8202 38.7561 24.7059 39.3483 24.7096Z" fill="#62353E"/>
</svg>
