<svg width="89" height="95" viewBox="0 0 89 95" fill="none" xmlns="http://www.w3.org/2000/svg">
<path d="M71.8884 32.6488C71.9194 30.9309 71.7985 29.2137 71.5272 27.5173L71.1104 24.7285L68.3315 25.2026C65.3461 25.6946 62.4515 26.6347 59.7449 27.9914C60.7812 30.5529 61.5449 33.2171 62.0236 35.9396C65.1654 34.3223 68.5264 33.176 71.9996 32.5372" fill="#62353E"/>
<path d="M8.75332 61.2905C6.14231 62.5642 3.75776 64.2602 1.69509 66.3104L0 68.0116L1.50057 69.5455C5.10328 73.202 9.67995 75.7386 14.6824 76.8515C19.6848 77.9644 24.9008 77.6064 29.7057 75.8203C21.2268 73.6379 13.8051 68.4843 8.7811 61.2905" fill="#62353E"/>
<path d="M27.2603 36.0791C27.752 33.3778 28.5155 30.7335 29.539 28.1868C26.7896 26.8151 23.8469 25.8745 20.8134 25.3979L18.0346 24.9238L17.59 27.7127C17.3197 29.3998 17.1988 31.1077 17.2288 32.8162C20.7498 33.4699 24.1572 34.6349 27.3437 36.2743" fill="#62353E"/>
<path d="M81.8088 40.2067V37.2505H78.5853C72.9176 37.2412 67.3547 38.784 62.4959 41.7126C62.4959 42.1867 62.4959 42.6887 62.4959 43.1628C62.5094 48.4382 61.4799 53.6639 59.467 58.5372C57.4541 63.4105 54.4977 67.8345 50.7692 71.5531L50.5747 71.7483C58.8621 71.6676 66.7836 68.3106 72.6205 62.4057C78.4574 56.5008 81.7389 48.5243 81.7532 40.2067" fill="#62353E"/>
<path d="M87.283 66.3098C85.2403 64.3006 82.8961 62.6256 80.336 61.3457C75.2796 68.5382 67.8292 73.6813 59.328 75.8476C62.3304 76.9747 65.5152 77.5326 68.7205 77.493C72.2109 77.4766 75.6634 76.7657 78.8783 75.4014C82.0931 74.0371 85.0065 72.0466 87.4498 69.5449L88.9781 68.011L87.283 66.3098Z" fill="#62353E"/>
<path d="M47.1568 18.4821L44.6836 16L41.9048 18.7888C38.6733 22.0289 36.1098 25.8764 34.3608 30.1113C32.6117 34.3463 31.7115 38.8856 31.7115 43.4699C31.7115 48.0542 32.6117 52.5936 34.3608 56.8286C36.1098 61.0635 38.6733 64.911 41.9048 68.1511L44.3779 70.6331L47.1568 67.8443C53.6695 61.2933 57.327 52.4172 57.327 43.1632C57.327 33.9091 53.6695 25.033 47.1568 18.4821Z" fill="#62353E"/>
<path d="M26.7046 41.7126C21.8458 38.784 16.2829 37.2412 10.6152 37.2505H7.25281V40.2067C7.25905 48.4884 10.5077 56.4359 16.2984 62.3361C22.0891 68.2364 29.958 71.6166 38.209 71.7483C34.5264 68.0128 31.6146 63.5847 29.6405 58.7177C27.6663 53.8507 26.6686 48.6406 26.7046 43.3859C26.7046 42.8282 26.7046 42.2704 26.7046 41.7126Z" fill="#62353E"/>
</svg>
