<svg width="144" height="63" viewBox="0 0 144 63" fill="none" xmlns="http://www.w3.org/2000/svg">
<path d="M7.30304 62.7129C7.69677 63.1002 8.32992 63.095 8.7172 62.7012L15.0284 56.2849C15.4157 55.8912 15.4104 55.2581 15.0167 54.8708C14.623 54.4835 13.9898 54.4887 13.6025 54.8825L7.9926 60.5858L2.28922 54.9759C1.89549 54.5886 1.26234 54.5938 0.875059 54.9876C0.487773 55.3813 0.493002 56.0144 0.886738 56.4017L7.30304 62.7129ZM72 13.0009C62.8212 13.0008 54.1465 12.949 46.3368 13.6403C38.526 14.3316 31.4903 15.7718 25.5984 18.8066C19.6779 21.8561 14.9533 26.495 11.7512 33.4911C8.56165 40.46 6.90285 49.7223 7.00431 62.0083L9.00425 61.9917C8.90415 49.8714 10.5458 40.9306 13.5698 34.3234C16.5814 27.7434 20.9836 23.4333 26.5142 20.5846C32.0733 17.7212 38.813 16.314 46.5131 15.6325C54.2143 14.9509 62.7858 15.0008 72 15.0009L72 13.0009Z" fill="#62353E"/>
<path d="M136.697 62.7129C136.303 63.1002 135.67 63.095 135.283 62.7012L128.972 56.2849C128.584 55.8912 128.59 55.2581 128.983 54.8708C129.377 54.4835 130.01 54.4887 130.397 54.8825L136.007 60.5858L141.711 54.9759C142.105 54.5886 142.738 54.5938 143.125 54.9876C143.512 55.3813 143.507 56.0144 143.113 56.4017L136.697 62.7129ZM72 13.0009C81.1788 13.0008 89.8535 12.949 97.6632 13.6403C105.474 14.3316 112.51 15.7718 118.402 18.8066C124.322 21.8561 129.047 26.495 132.249 33.4911C135.438 40.46 137.097 49.7223 136.996 62.0083L134.996 61.9917C135.096 49.8714 133.454 40.9306 130.43 34.3234C127.419 27.7434 123.016 23.4333 117.486 20.5846C111.927 17.7212 105.187 16.314 97.4869 15.6325C89.7857 14.9509 81.2142 15.0008 72 15.0009L72 13.0009Z" fill="#62353E"/>
<path d="M71 13.5V0" stroke="#62353E" stroke-width="2"/>
</svg>
