<svg width="195" height="195" viewBox="0 0 195 195" fill="none" xmlns="http://www.w3.org/2000/svg">
<path d="M30.3739 133.594V131.352L38.7937 122.135C39.7818 121.055 40.5955 120.117 41.2349 119.32C41.8743 118.515 42.3476 117.759 42.6548 117.053C42.9703 116.339 43.1281 115.592 43.1281 114.811C43.1281 113.914 42.9122 113.138 42.4804 112.482C42.057 111.826 41.4757 111.32 40.7367 110.963C39.9977 110.605 39.1673 110.427 38.2456 110.427C37.2658 110.427 36.4106 110.63 35.6799 111.037C34.9575 111.436 34.397 111.996 33.9984 112.719C33.6081 113.441 33.413 114.288 33.413 115.26H30.4736C30.4736 113.765 30.8182 112.453 31.5073 111.324C32.1965 110.194 33.1348 109.314 34.3222 108.683C35.5179 108.052 36.859 107.737 38.3453 107.737C39.8399 107.737 41.1643 108.052 42.3185 108.683C43.4727 109.314 44.3778 110.165 45.0338 111.237C45.6897 112.308 46.0177 113.499 46.0177 114.811C46.0177 115.75 45.8475 116.667 45.5071 117.564C45.1749 118.452 44.5937 119.445 43.7633 120.541C42.9413 121.628 41.7995 122.957 40.3381 124.526L34.6087 130.654V130.854H46.4661V133.594H30.3739ZM59.9303 133.594H52.0585V108.085H60.279C62.7535 108.085 64.8709 108.596 66.6312 109.617C68.3915 110.63 69.7409 112.088 70.6792 113.989C71.6175 115.882 72.0866 118.149 72.0866 120.79C72.0866 123.447 71.6133 125.734 70.6667 127.653C69.7201 129.562 68.3417 131.032 66.5316 132.062C64.7214 133.083 62.521 133.594 59.9303 133.594ZM55.1474 130.854H59.731C61.8401 130.854 63.588 130.447 64.9746 129.633C66.3613 128.819 67.3951 127.661 68.076 126.158C68.7569 124.655 69.0973 122.866 69.0973 120.79C69.0973 118.73 68.761 116.958 68.0885 115.471C67.4159 113.977 66.4112 112.831 65.0743 112.034C63.7374 111.228 62.0726 110.826 60.0797 110.826H55.1474V130.854ZM87.1326 133.594V108.085H95.7516C97.7528 108.085 99.3886 108.447 100.659 109.169C101.938 109.883 102.884 110.85 103.499 112.071C104.113 113.292 104.42 114.653 104.42 116.156C104.42 117.659 104.113 119.025 103.499 120.254C102.893 121.483 101.954 122.463 100.684 123.194C99.4135 123.916 97.786 124.277 95.8014 124.277H89.6236V121.537H95.7018C97.0719 121.537 98.1721 121.3 99.0024 120.827C99.8328 120.354 100.435 119.714 100.808 118.909C101.19 118.095 101.381 117.178 101.381 116.156C101.381 115.135 101.19 114.222 100.808 113.416C100.435 112.611 99.8286 111.98 98.99 111.523C98.1513 111.058 97.0387 110.826 95.652 110.826H90.2215V133.594H87.1326ZM126.136 108.085H129.225V124.975C129.225 126.718 128.814 128.275 127.992 129.645C127.178 131.007 126.028 132.083 124.542 132.871C123.056 133.652 121.312 134.042 119.311 134.042C117.31 134.042 115.566 133.652 114.08 132.871C112.593 132.083 111.439 131.007 110.617 129.645C109.803 128.275 109.396 126.718 109.396 124.975V108.085H112.485V124.726C112.485 125.971 112.759 127.08 113.307 128.051C113.855 129.014 114.636 129.774 115.649 130.33C116.67 130.879 117.891 131.153 119.311 131.153C120.731 131.153 121.951 130.879 122.973 130.33C123.994 129.774 124.774 129.014 125.314 128.051C125.862 127.08 126.136 125.971 126.136 124.726V108.085ZM149.344 114.462C149.194 113.2 148.588 112.221 147.525 111.523C146.462 110.826 145.159 110.477 143.614 110.477C142.485 110.477 141.497 110.659 140.65 111.025C139.811 111.39 139.155 111.893 138.682 112.532C138.217 113.171 137.984 113.898 137.984 114.712C137.984 115.392 138.146 115.978 138.47 116.468C138.802 116.949 139.226 117.352 139.741 117.676C140.255 117.991 140.795 118.253 141.36 118.461C141.924 118.66 142.443 118.822 142.917 118.946L145.507 119.644C146.172 119.818 146.911 120.059 147.724 120.366C148.546 120.673 149.331 121.093 150.078 121.624C150.834 122.147 151.457 122.82 151.947 123.642C152.437 124.464 152.682 125.473 152.682 126.669C152.682 128.047 152.32 129.293 151.598 130.405C150.884 131.518 149.838 132.402 148.459 133.058C147.089 133.714 145.424 134.042 143.465 134.042C141.638 134.042 140.056 133.747 138.719 133.158C137.391 132.568 136.344 131.746 135.58 130.692C134.825 129.637 134.397 128.412 134.298 127.017H137.486C137.569 127.981 137.893 128.778 138.458 129.409C139.031 130.032 139.753 130.497 140.625 130.804C141.505 131.103 142.452 131.252 143.465 131.252C144.644 131.252 145.702 131.061 146.641 130.679C147.579 130.289 148.322 129.749 148.87 129.06C149.418 128.363 149.692 127.549 149.692 126.619C149.692 125.772 149.456 125.083 148.982 124.551C148.509 124.02 147.886 123.588 147.114 123.256C146.342 122.924 145.507 122.633 144.611 122.384L141.472 121.487C139.479 120.914 137.901 120.096 136.739 119.034C135.576 117.971 134.995 116.58 134.995 114.861C134.995 113.433 135.381 112.187 136.153 111.124C136.934 110.053 137.98 109.223 139.292 108.633C140.612 108.036 142.086 107.737 143.714 107.737C145.358 107.737 146.819 108.031 148.098 108.621C149.377 109.202 150.39 109.999 151.137 111.012C151.893 112.025 152.291 113.175 152.333 114.462H149.344ZM157.76 133.594V108.085H160.849V119.445H174.45V108.085H177.539V133.594H174.45V122.185H160.849V133.594H157.76Z" fill="#4A5486"/>
<path d="M73.5541 165.745H70.3157L79.6821 140.237H82.8706L92.237 165.745H88.9986L81.376 144.272H81.1767L73.5541 165.745ZM74.7498 155.781H87.8029V158.521H74.7498V155.781ZM99.2991 140.237V165.745H96.2102V140.237H99.2991ZM105.493 165.745V140.237H114.112C116.104 140.237 117.74 140.577 119.019 141.258C120.298 141.931 121.244 142.856 121.859 144.036C122.473 145.215 122.78 146.556 122.78 148.059C122.78 149.562 122.473 150.894 121.859 152.057C121.244 153.219 120.302 154.133 119.031 154.797C117.761 155.453 116.138 155.781 114.161 155.781H107.186V152.991H114.062C115.424 152.991 116.52 152.792 117.35 152.393C118.189 151.995 118.795 151.43 119.168 150.699C119.55 149.96 119.741 149.08 119.741 148.059C119.741 147.037 119.55 146.145 119.168 145.381C118.786 144.617 118.176 144.027 117.337 143.612C116.499 143.189 115.39 142.977 114.012 142.977H108.581V165.745H105.493ZM117.499 154.286L123.777 165.745H120.19L114.012 154.286H117.499Z" fill="#4A5486"/>
<path d="M78.2079 34.8199V94.2119H71.0159V42.3599H70.6679L56.1679 51.9879V44.6799L71.0159 34.8199H78.2079ZM114.661 95.0239C110.292 95.0239 106.57 93.8349 103.496 91.4569C100.422 89.0596 98.0729 85.5892 96.4489 81.0459C94.8249 76.4832 94.0129 70.9732 94.0129 64.5159C94.0129 58.0972 94.8249 52.6162 96.4489 48.0729C98.0923 43.5102 100.451 40.0302 103.525 37.6329C106.618 35.2162 110.33 34.0079 114.661 34.0079C118.992 34.0079 122.694 35.2162 125.768 37.6329C128.861 40.0302 131.22 43.5102 132.844 48.0729C134.487 52.6162 135.309 58.0972 135.309 64.5159C135.309 70.9732 134.497 76.4832 132.873 81.0459C131.249 85.5892 128.9 89.0596 125.826 91.4569C122.752 93.8349 119.03 95.0239 114.661 95.0239ZM114.661 88.6439C118.992 88.6439 122.356 86.5559 124.753 82.3799C127.15 78.2039 128.349 72.2492 128.349 64.5159C128.349 59.3732 127.798 54.9942 126.696 51.3789C125.613 47.7636 124.047 45.0086 121.998 43.1139C119.968 41.2192 117.522 40.2719 114.661 40.2719C110.369 40.2719 107.015 42.3889 104.598 46.6229C102.181 50.8376 100.973 56.8019 100.973 64.5159C100.973 69.6586 101.514 74.0279 102.597 77.6239C103.68 81.2199 105.236 83.9556 107.266 85.8309C109.315 87.7062 111.78 88.6439 114.661 88.6439Z" fill="#4A5486"/>
<mask id="mask0_219_2359" style="mask-type:luminance" maskUnits="userSpaceOnUse" x="3" y="3" width="189" height="189">
<path d="M97.1738 191.348C149.185 191.348 191.348 149.185 191.348 97.1738C191.348 45.163 149.185 3 97.1738 3C45.163 3 3 45.163 3 97.1738C3 149.185 45.163 191.348 97.1738 191.348Z" fill="white"/>
</mask>
<g mask="url(#mask0_219_2359)">
<path d="M375.576 198.919C431.767 142.728 431.767 51.6247 375.576 -4.56603C319.385 -60.7568 228.282 -60.7568 172.091 -4.56604C115.901 51.6247 115.901 142.728 172.091 198.919C228.282 255.109 319.385 255.109 375.576 198.919Z" stroke="#4A5486" stroke-width="2.33827" stroke-miterlimit="10"/>
<path d="M363.858 187.2C413.576 137.481 413.576 56.8712 363.858 7.15246C314.139 -42.5663 233.529 -42.5663 183.81 7.15246C134.091 56.8712 134.091 137.481 183.81 187.2C233.529 236.919 314.139 236.919 363.858 187.2Z" stroke="#4A5486" stroke-width="2.33827" stroke-miterlimit="10"/>
<path d="M352.143 175.486C395.392 132.237 395.392 62.116 352.143 18.8668C308.894 -24.3822 238.773 -24.3823 195.524 18.8668C152.275 62.116 152.275 132.237 195.524 175.486C238.773 218.735 308.894 218.735 352.143 175.486Z" stroke="#4A5486" stroke-width="2.33827" stroke-miterlimit="10"/>
<path d="M273.836 191.348C325.847 191.348 368.01 149.185 368.01 97.1738C368.01 45.163 325.847 3 273.836 3C221.825 3 179.662 45.163 179.662 97.1738C179.662 149.185 221.825 191.348 273.836 191.348Z" stroke="#4A5486" stroke-width="2.33827" stroke-miterlimit="10"/>
<path d="M21.2614 198.916C77.4521 142.725 77.4521 51.6218 21.2614 -4.56896C-34.9294 -60.7597 -126.033 -60.7597 -182.223 -4.56898C-238.414 51.6217 -238.414 142.725 -182.223 198.916C-126.033 255.106 -34.9294 255.106 21.2614 198.916Z" stroke="#4A5486" stroke-width="2.33827" stroke-miterlimit="10"/>
<path d="M9.54286 187.197C59.2616 137.478 59.2616 56.8683 9.54284 7.14956C-40.1759 -42.5692 -120.786 -42.5692 -170.505 7.14954C-220.224 56.8683 -220.224 137.478 -170.505 187.197C-120.786 236.916 -40.1759 236.916 9.54286 187.197Z" stroke="#4A5486" stroke-width="2.33827" stroke-miterlimit="10"/>
<path d="M-2.1716 175.483C41.0775 132.234 41.0775 62.113 -2.1716 18.8639C-45.4207 -24.3852 -115.541 -24.3852 -158.79 18.8639C-202.04 62.113 -202.04 132.234 -158.79 175.483C-115.541 218.732 -45.4207 218.732 -2.1716 175.483Z" stroke="#4A5486" stroke-width="2.33827" stroke-miterlimit="10"/>
<path d="M-80.482 191.348C-28.4713 191.348 13.6918 149.185 13.6918 97.1738C13.6918 45.163 -28.4713 3 -80.482 3C-132.493 3 -174.656 45.163 -174.656 97.1738C-174.656 149.185 -132.493 191.348 -80.482 191.348Z" stroke="#4A5486" stroke-width="2.33827" stroke-miterlimit="10"/>
</g>
<path d="M97.1796 191.348C149.19 191.348 191.353 149.185 191.353 97.1738C191.353 45.163 149.19 3 97.1796 3C45.1689 3 3.00586 45.163 3.00586 97.1738C3.00586 149.185 45.1689 191.348 97.1796 191.348Z" stroke="#4A5486" stroke-width="5.84567" stroke-miterlimit="10"/>
</svg>
