<svg width="195" height="195" viewBox="0 0 195 195" fill="none" xmlns="http://www.w3.org/2000/svg">
<path d="M58.2475 115.605C58.2502 116.223 58.1289 116.835 57.891 117.405C57.6551 117.955 57.3485 118.472 56.979 118.943C56.6149 119.41 56.2121 119.846 55.7748 120.246C55.3306 120.65 54.9097 121.018 54.5063 121.345C54.1965 121.603 53.8165 121.889 53.3372 122.21C52.8578 122.532 52.4486 122.871 52.0219 123.228C51.5968 123.58 51.2054 123.972 50.8528 124.397C50.5415 124.752 50.3208 125.177 50.2097 125.636H58.0956V129.26H46.0476V126.583C46.0412 125.842 46.1517 125.104 46.375 124.397C46.5869 123.744 46.8774 123.12 47.2401 122.538C47.5987 121.97 48.0182 121.443 48.4911 120.965C48.9516 120.508 49.4375 120.076 49.9467 119.673C50.4455 119.284 50.9366 118.927 51.4198 118.604C51.8723 118.297 52.3075 117.965 52.7234 117.61C53.0704 117.321 53.3789 116.989 53.6412 116.622C53.8655 116.319 53.9865 115.952 53.986 115.576C53.9875 115.361 53.9417 115.148 53.8518 114.954C53.7619 114.759 53.6301 114.586 53.4658 114.447C52.9823 114.092 52.3856 113.926 51.7881 113.98C51.1916 113.987 50.5999 114.088 50.0344 114.278C49.385 114.493 48.7877 114.842 48.2807 115.301L46.1645 112.045C46.9486 111.373 47.8675 110.877 48.8594 110.589C49.9106 110.267 51.0043 110.106 52.1037 110.11C52.8423 110.111 53.5781 110.199 54.2959 110.373C55.0089 110.533 55.6802 110.842 56.2659 111.279C56.8608 111.731 57.3447 112.313 57.6805 112.98C58.0759 113.797 58.2703 114.697 58.2475 115.605Z" fill="#4A5486"/>
<path d="M75.2525 123.187C75.2772 124.123 75.0767 125.051 74.6679 125.893C74.2951 126.629 73.7617 127.273 73.1071 127.775C72.4457 128.277 71.6962 128.649 70.8975 128.874C70.0866 129.111 69.2461 129.231 68.4014 129.231H61.2112V110.303H68.3955C69.308 110.294 70.2172 110.414 71.0962 110.659C71.8888 110.877 72.6301 111.251 73.2766 111.758C73.901 112.257 74.3996 112.896 74.7322 113.623C75.0976 114.473 75.275 115.393 75.2525 116.318V123.187ZM70.8858 117.142C70.9009 116.665 70.8048 116.19 70.6052 115.757C70.4428 115.407 70.2053 115.098 69.9095 114.851C69.622 114.617 69.2898 114.444 68.9333 114.342C68.587 114.233 68.2265 114.176 67.8636 114.173H65.5779V125.355H67.8636C68.2263 125.354 68.5867 125.298 68.9333 125.192C69.288 125.085 69.6193 124.913 69.9095 124.683C70.2081 124.434 70.446 124.12 70.6052 123.765C70.8037 123.325 70.8996 122.845 70.8858 122.362V117.142Z" fill="#4A5486"/>
<path d="M99.8979 123.66C99.9249 124.525 99.7233 125.382 99.3134 126.144C98.9088 126.844 98.3512 127.444 97.6824 127.898C96.9469 128.398 96.127 128.76 95.2623 128.968C94.3073 129.212 93.3252 129.334 92.3395 129.33C91.6657 129.33 90.9925 129.293 90.3227 129.219C89.6839 129.148 89.0535 129.015 88.4404 128.822C87.8142 128.618 87.2109 128.349 86.6399 128.021C86.0136 127.657 85.426 127.23 84.8862 126.747L87.3297 123.531C88.0607 124.128 88.8814 124.606 89.7615 124.946C90.5483 125.242 91.3819 125.395 92.2226 125.396C92.7303 125.408 93.2374 125.353 93.7307 125.233C94.0783 125.148 94.4086 125.003 94.707 124.806C94.9304 124.66 95.1118 124.459 95.2331 124.221C95.3274 124.041 95.3775 123.84 95.3792 123.637C95.386 123.38 95.3146 123.127 95.1746 122.912C94.9927 122.662 94.7517 122.461 94.4731 122.327C94.0555 122.106 93.6193 121.922 93.1695 121.778C92.6317 121.591 91.9536 121.392 91.1528 121.193C90.3537 120.985 89.5719 120.715 88.8145 120.386C88.1868 120.114 87.6066 119.743 87.0959 119.287C86.6368 118.862 86.2758 118.341 86.0378 117.762C85.786 117.085 85.665 116.367 85.6812 115.646C85.6655 114.837 85.8397 114.036 86.1898 113.307C86.5292 112.622 87.0188 112.023 87.622 111.554C88.2777 111.048 89.0236 110.671 89.82 110.443C90.7253 110.178 91.665 110.048 92.6084 110.057C93.7009 110.056 94.791 110.158 95.8644 110.361C97.064 110.616 98.1995 111.111 99.2023 111.817L97.2498 115.324C96.5012 114.821 95.6672 114.459 94.7888 114.254C94.0515 114.108 93.3017 114.033 92.5499 114.032C91.9672 114.009 91.3875 114.127 90.8605 114.377C90.6519 114.481 90.4791 114.645 90.3645 114.849C90.25 115.052 90.1988 115.285 90.2175 115.517C90.2161 115.749 90.2877 115.976 90.4221 116.166C90.611 116.409 90.8503 116.608 91.1236 116.75C91.537 116.969 91.9694 117.149 92.4155 117.288C92.9474 117.458 93.5846 117.657 94.3679 117.873C95.3827 118.126 96.3638 118.499 97.2907 118.983C97.9325 119.323 98.5054 119.779 98.9801 120.328C99.3572 120.784 99.6251 121.32 99.7635 121.895C99.8754 122.476 99.9205 123.068 99.8979 123.66Z" fill="#4A5486"/>
<path d="M117.178 123.239C117.205 124.181 117.005 125.116 116.593 125.963C116.202 126.716 115.649 127.373 114.974 127.887C114.274 128.418 113.481 128.814 112.636 129.056C111.715 129.316 110.763 129.446 109.806 129.442C108.856 129.446 107.909 129.317 106.995 129.056C106.151 128.811 105.359 128.415 104.656 127.887C103.976 127.375 103.419 126.718 103.025 125.963C102.612 125.116 102.411 124.181 102.441 123.239V116.125C102.415 115.186 102.641 114.258 103.096 113.436C103.524 112.696 104.108 112.057 104.808 111.565C105.529 111.064 106.333 110.692 107.182 110.466C108.048 110.229 108.943 110.109 109.841 110.11C110.748 110.111 111.649 110.241 112.519 110.496C113.372 110.739 114.179 111.124 114.904 111.636C115.604 112.138 116.185 112.788 116.605 113.541C117.049 114.379 117.27 115.317 117.248 116.265L117.178 123.239ZM112.811 117.09C112.824 116.611 112.73 116.136 112.536 115.698C112.37 115.35 112.131 115.041 111.835 114.792C111.545 114.562 111.214 114.389 110.859 114.284C110.512 114.177 110.152 114.122 109.789 114.12C109.42 114.119 109.054 114.174 108.702 114.284C108.348 114.393 108.017 114.565 107.725 114.792C107.421 115.035 107.177 115.345 107.012 115.698C106.818 116.136 106.724 116.611 106.737 117.09V122.444C106.724 122.923 106.818 123.398 107.012 123.835C107.178 124.187 107.422 124.497 107.725 124.742C108.017 124.969 108.348 125.141 108.702 125.25C109.054 125.357 109.42 125.412 109.789 125.414C110.151 125.409 110.511 125.354 110.859 125.25C111.214 125.145 111.545 124.972 111.835 124.742C112.129 124.492 112.368 124.183 112.536 123.835C112.73 123.398 112.824 122.923 112.811 122.444V117.09Z" fill="#4A5486"/>
<path d="M120.363 129.232V110.303H124.677V125.356H133.662V129.232H120.363Z" fill="#4A5486"/>
<path d="M135.446 110.303H148.663V114.173H139.818V117.745H147.371V121.62H139.818V125.356H148.663V129.232H135.446V110.303Z" fill="#4A5486"/>
<path d="M47.0653 136.024C47.9991 135.998 48.9277 136.172 49.7894 136.533C50.4998 136.839 51.1314 137.303 51.6366 137.889C52.1117 138.453 52.4676 139.107 52.683 139.812C52.9011 140.534 53.0114 141.285 53.0103 142.039C53.0114 142.799 52.8768 143.553 52.6128 144.266C52.3426 144.993 51.9291 145.657 51.3968 146.221C50.8646 146.784 50.2245 147.235 49.5146 147.546C48.6974 147.897 47.8145 148.071 46.925 148.054H43.1487V154.952H38.782V136.024H47.0653ZM43.1487 144.208H46.3638C46.6842 144.239 47.0074 144.199 47.3106 144.091C47.6137 143.983 47.8893 143.809 48.1175 143.582C48.4508 143.147 48.6314 142.614 48.6314 142.065C48.6314 141.517 48.4508 140.984 48.1175 140.548C47.891 140.319 47.6159 140.143 47.3124 140.034C47.0089 139.924 46.6847 139.885 46.3638 139.917H43.1487V144.208Z" fill="#4A5486"/>
<path d="M69.0856 151.655C68.6757 152.414 68.1051 153.074 67.4137 153.59C66.7015 154.122 65.8968 154.519 65.0404 154.759C64.1533 155.016 63.2341 155.146 62.3104 155.145C61.388 155.146 60.4697 155.022 59.5805 154.776C58.7313 154.542 57.9299 154.16 57.213 153.648C56.5199 153.149 55.9467 152.502 55.5353 151.754C55.0992 150.92 54.8838 149.988 54.9098 149.048V136.023H59.2765V148.212C59.2625 148.688 59.3564 149.162 59.5513 149.597C59.7159 149.95 59.96 150.26 60.2645 150.503C60.5563 150.73 60.8871 150.903 61.2407 151.012C61.5927 151.121 61.9593 151.176 62.328 151.175C62.6907 151.174 63.0511 151.119 63.3977 151.012C63.7528 150.906 64.0842 150.734 64.374 150.503C64.6698 150.255 64.909 149.946 65.0754 149.597C65.2703 149.162 65.3642 148.688 65.3502 148.212V136.023H69.7169V148.937C69.7397 149.881 69.5225 150.817 69.0856 151.655Z" fill="#4A5486"/>
<path d="M87.4462 149.382C87.4735 150.247 87.2718 151.104 86.8617 151.866C86.4567 152.568 85.8969 153.167 85.2249 153.62C84.4905 154.122 83.6702 154.484 82.8048 154.689C81.8498 154.934 80.8677 155.056 79.8819 155.052C79.2062 155.051 78.5311 155.014 77.8593 154.941C77.2207 154.869 76.5903 154.736 75.977 154.543C75.3524 154.34 74.7508 154.072 74.1824 153.743C73.556 153.378 72.9684 152.951 72.4287 152.468L74.8722 149.253C75.6024 149.851 76.4233 150.329 77.304 150.668C78.0885 150.965 78.9203 151.117 79.7592 151.118C80.2689 151.13 80.7779 151.075 81.2732 150.954C81.6204 150.868 81.9505 150.724 82.2494 150.527C82.4713 150.382 82.6507 150.18 82.7697 149.943C82.8656 149.763 82.9177 149.562 82.9217 149.358C82.9256 149.102 82.8545 148.85 82.7171 148.633C82.5323 148.386 82.292 148.186 82.0156 148.049C81.5959 147.828 81.1578 147.644 80.7062 147.499C80.1684 147.312 79.4961 147.114 78.6894 146.915C77.8902 146.707 77.1084 146.437 76.3512 146.108C75.7235 145.836 75.1433 145.465 74.6325 145.009C74.1716 144.585 73.8102 144.064 73.5745 143.483C73.3199 142.808 73.1988 142.089 73.2179 141.367C73.2021 140.559 73.3763 139.758 73.7265 139.029C74.0636 138.344 74.5512 137.745 75.1528 137.275C75.8085 136.769 76.5544 136.392 77.3508 136.165C78.2563 135.9 79.1958 135.77 80.1392 135.779C81.2317 135.777 82.3219 135.879 83.3952 136.083C84.5951 136.336 85.7308 136.831 86.7331 137.538L84.7806 141.046C84.0345 140.542 83.2024 140.179 82.3254 139.976C81.5881 139.829 80.8383 139.755 80.0865 139.754C79.5038 139.73 78.924 139.848 78.3971 140.099C78.1874 140.202 78.0135 140.366 77.8978 140.569C77.7821 140.772 77.73 141.005 77.7483 141.239C77.7462 141.472 77.82 141.7 77.9587 141.887C78.1437 142.132 78.3815 142.332 78.6544 142.472C79.0683 142.689 79.5006 142.869 79.9462 143.01C80.4782 143.179 81.1154 143.378 81.8987 143.594C82.9141 143.846 83.8955 144.219 84.8215 144.705C85.4643 145.043 86.0375 145.499 86.5109 146.05C86.8901 146.504 87.1583 147.04 87.2943 147.616C87.412 148.197 87.463 148.789 87.4462 149.382Z" fill="#4A5486"/>
<path d="M100.489 154.952V147.288H94.4619V154.952H90.0776V136.023H94.4619V143.36H100.506V136.023H104.931V154.952H100.489Z" fill="#4A5486"/>
<path d="M125.765 151.216H119.662L118.54 154.952H113.863L120.539 136.023H125.046L131.611 154.952H126.934L125.765 151.216ZM120.767 147.627H124.672L124.286 146.335L122.772 141.115H122.667L121.153 146.335L120.767 147.627Z" fill="#4A5486"/>
<path d="M138.403 136.023V154.952H134.031V136.023H138.403Z" fill="#4A5486"/>
<path d="M150.767 136.024C151.683 136 152.593 136.177 153.433 136.544C154.125 136.864 154.737 137.333 155.227 137.918C155.695 138.486 156.041 139.145 156.245 139.853C156.453 140.563 156.559 141.299 156.56 142.039C156.56 142.545 156.487 143.049 156.344 143.535C156.197 144.036 155.989 144.517 155.724 144.968C155.451 145.426 155.123 145.85 154.748 146.23C154.365 146.621 153.931 146.957 153.456 147.23L156.835 154.952H152.158L149.306 147.972H146.611V154.952H142.244V136.024H150.767ZM146.617 144.155H149.861C150.181 144.185 150.503 144.146 150.806 144.039C151.109 143.932 151.385 143.76 151.615 143.535C151.971 143.113 152.166 142.579 152.166 142.027C152.166 141.475 151.971 140.941 151.615 140.519C151.386 140.293 151.11 140.12 150.807 140.012C150.504 139.904 150.181 139.863 149.861 139.893H146.617V144.155Z" fill="#4A5486"/>
<path d="M78.974 82.0319V76.1159L105.074 34.8199H109.366V43.9839H106.466L86.746 75.1879V75.6519H121.894V82.0319H78.974ZM106.93 94.2119V80.2339V77.4789V34.8199H113.774V94.2119H106.93Z" fill="#4A5486"/>
<mask id="mask0_219_2377" style="mask-type:luminance" maskUnits="userSpaceOnUse" x="3" y="3" width="189" height="189">
<path d="M97.1738 191.348C149.185 191.348 191.348 149.185 191.348 97.1738C191.348 45.163 149.185 3 97.1738 3C45.163 3 3 45.163 3 97.1738C3 149.185 45.163 191.348 97.1738 191.348Z" fill="white"/>
</mask>
<g mask="url(#mask0_219_2377)">
<path d="M375.575 198.923C431.766 142.732 431.766 51.6291 375.575 -4.56164C319.384 -60.7524 228.281 -60.7524 172.09 -4.56165C115.899 51.6291 115.899 142.732 172.09 198.923C228.281 255.114 319.384 255.114 375.575 198.923Z" stroke="#4A5486" stroke-width="2.33827" stroke-miterlimit="10"/>
<path d="M363.856 187.204C413.575 137.486 413.575 56.8756 363.856 7.15684C314.137 -42.5619 233.527 -42.5619 183.808 7.15685C134.09 56.8756 134.09 137.486 183.808 187.204C233.527 236.923 314.137 236.923 363.856 187.204Z" stroke="#4A5486" stroke-width="2.33827" stroke-miterlimit="10"/>
<path d="M352.142 175.49C395.391 132.241 395.391 62.1203 352.142 18.8712C308.893 -24.3779 238.772 -24.3779 195.523 18.8712C152.274 62.1203 152.274 132.241 195.523 175.49C238.772 218.739 308.893 218.739 352.142 175.49Z" stroke="#4A5486" stroke-width="2.33827" stroke-miterlimit="10"/>
<path d="M273.836 191.347C325.847 191.347 368.01 149.184 368.01 97.1733C368.01 45.1625 325.847 2.99951 273.836 2.99951C221.825 2.99951 179.662 45.1625 179.662 97.1733C179.662 149.184 221.825 191.347 273.836 191.347Z" stroke="#4A5486" stroke-width="2.33827" stroke-miterlimit="10"/>
<path d="M21.266 198.92C77.4568 142.729 77.4567 51.6262 21.266 -4.56457C-34.9247 -60.7553 -126.028 -60.7553 -182.219 -4.56459C-238.409 51.6261 -238.409 142.729 -182.219 198.92C-126.028 255.111 -34.9247 255.111 21.266 198.92Z" stroke="#4A5486" stroke-width="2.33827" stroke-miterlimit="10"/>
<path d="M9.54746 187.202C59.2662 137.483 59.2662 56.8727 9.54746 7.15394C-40.1713 -42.5648 -120.781 -42.5648 -170.5 7.15393C-220.219 56.8727 -220.219 137.483 -170.5 187.202C-120.781 236.92 -40.1713 236.92 9.54746 187.202Z" stroke="#4A5486" stroke-width="2.33827" stroke-miterlimit="10"/>
<path d="M-2.16695 175.487C41.0821 132.238 41.0821 62.1174 -2.16696 18.8683C-45.4161 -24.3808 -115.537 -24.3808 -158.786 18.8683C-202.035 62.1174 -202.035 132.238 -158.786 175.487C-115.537 218.736 -45.416 218.736 -2.16695 175.487Z" stroke="#4A5486" stroke-width="2.33827" stroke-miterlimit="10"/>
<path d="M-80.482 191.347C-28.4713 191.347 13.6918 149.184 13.6918 97.1733C13.6918 45.1625 -28.4713 2.99951 -80.482 2.99951C-132.493 2.99951 -174.656 45.1625 -174.656 97.1733C-174.656 149.184 -132.493 191.347 -80.482 191.347Z" stroke="#4A5486" stroke-width="2.33827" stroke-miterlimit="10"/>
</g>
<path d="M97.1794 191.348C149.19 191.348 191.353 149.184 191.353 97.1738C191.353 45.163 149.19 3 97.1794 3C45.1686 3 3.00562 45.163 3.00562 97.1738C3.00562 149.184 45.1686 191.348 97.1794 191.348Z" stroke="#4A5486" stroke-width="5.84567" stroke-miterlimit="10"/>
</svg>
