<svg width="153" height="153" viewBox="0 0 153 153" fill="none" xmlns="http://www.w3.org/2000/svg">
<path d="M50.3305 32.6881C50.3305 33.9478 50.0896 35.1334 49.608 36.2449C49.1634 37.3193 48.5706 38.3382 47.8296 39.3015C47.1256 40.2648 46.329 41.1541 45.4398 41.9692C44.5877 42.7843 43.7355 43.5253 42.8834 44.1922C42.1053 44.822 41.2161 45.4889 40.2157 46.1929C39.2524 46.8598 38.3077 47.6008 37.3814 48.4159C36.4551 49.231 35.64 50.1202 34.9361 51.0835C34.2321 52.0468 33.8061 53.1028 33.6579 54.2513H50.2749V60.5869H26.3219V55.1405C26.3219 53.5844 26.5442 52.158 26.9888 50.8612C27.4705 49.5274 28.1003 48.3048 28.8784 47.1932C29.6564 46.0817 30.5456 45.0629 31.546 44.1366C32.5834 43.2103 33.6393 42.3582 34.7138 41.5801C35.7512 40.8391 36.7701 40.1166 37.7704 39.4127C38.7708 38.7087 39.66 38.0048 40.4381 37.3008C41.2161 36.5598 41.846 35.8188 42.3276 35.0778C42.8093 34.3368 43.0501 33.5587 43.0501 32.7436C43.0501 32.1138 42.9019 31.558 42.6055 31.0764C42.3091 30.5577 41.9015 30.1316 41.3828 29.7981C40.9012 29.4276 40.3269 29.1498 39.66 28.9645C39.0301 28.7793 38.3632 28.6866 37.6593 28.6866C36.3625 28.6866 35.0658 28.9275 33.769 29.4091C32.5093 29.8537 31.3607 30.5391 30.3233 31.4654L26.6554 25.8523C28.0633 24.5926 29.749 23.6293 31.7127 22.9624C33.6764 22.2584 35.7697 21.9064 37.9927 21.9064C39.4747 21.9064 40.9568 22.0917 42.4388 22.4622C43.9208 22.8327 45.2361 23.444 46.3846 24.2962C47.5702 25.1113 48.515 26.2043 49.219 27.5751C49.96 28.946 50.3305 30.6503 50.3305 32.6881ZM57.0095 60.5869V33.1327H64.0676V60.5869H57.0095ZM56.5649 25.6856C56.5649 24.5741 56.9539 23.6293 57.732 22.8512C58.51 22.0732 59.4363 21.6841 60.5108 21.6841C61.5852 21.6841 62.5115 22.0732 63.2895 22.8512C64.0676 23.6293 64.4566 24.5741 64.4566 25.6856C64.4566 26.7971 64.0676 27.7419 63.2895 28.5199C62.5115 29.2609 61.5852 29.6314 60.5108 29.6314C59.4363 29.6314 58.51 29.2609 57.732 28.5199C56.9539 27.7419 56.5649 26.7971 56.5649 25.6856ZM87.7735 60.5869V43.6364C87.7735 42.0803 87.4215 41.0059 86.7176 40.413C86.0136 39.7832 85.1615 39.4683 84.1611 39.4683C83.309 39.4683 82.3642 39.672 81.3268 40.0796C80.2894 40.4501 79.0852 41.0614 77.7144 41.9136V60.5869H70.6563V33.1327H77.1586L77.7144 35.5224C79.7521 34.2627 81.4565 33.4846 82.8273 33.1882C84.2352 32.8918 85.4023 32.7436 86.3286 32.7436C89.3667 32.7436 91.5527 33.6514 92.8865 35.4668C94.2573 37.2452 94.9427 39.635 94.9427 42.6361V60.5869H87.7735ZM110.52 60.5869V31.4654L106.686 34.6888L102.74 29.6314L111.132 22.2955H117.578V60.5869H110.52Z" fill="#4F4646"/>
<path d="M76.6498 2.39553C62.0462 2.39555 47.7703 6.72481 35.6266 14.8362C23.4828 22.9475 14.0162 34.4769 8.4233 47.9671C2.83038 61.4572 1.36217 76.3027 4.20423 90.627C7.04629 104.951 14.0711 118.112 24.3907 128.445C34.7103 138.778 47.8615 145.82 62.1822 148.68C76.5029 151.541 91.3503 150.092 104.848 144.516C118.345 138.941 129.887 129.489 138.014 117.356C146.141 105.223 150.489 90.9527 150.508 76.3491C150.487 56.7671 142.699 37.9928 128.853 24.1462C115.006 10.2996 96.2319 2.51165 76.6498 2.49136M76.6498 152.66C61.5524 152.66 46.794 148.183 34.2412 139.795C21.6883 131.407 11.905 119.484 6.12829 105.536C0.351619 91.5871 -1.15884 76.2388 1.78792 61.4317C4.73468 46.6246 12.0064 33.024 22.6832 22.3498C33.3601 11.6756 46.9625 4.4074 61.7704 1.46436C76.5782 -1.47869 91.9261 0.0356348 105.873 5.81581C119.82 11.596 131.74 21.3824 140.125 33.9373C148.51 46.4922 152.984 61.2517 152.98 76.3491C152.954 96.5835 144.904 115.982 130.594 130.288C116.284 144.594 96.8842 152.64 76.6498 152.66Z" fill="#4F4646"/>
<path d="M114.96 111.726C114.898 113.724 114.124 115.635 112.779 117.114C111.433 118.593 109.604 119.544 107.62 119.794L106.758 119.889V127.038H103.864L101.123 119.851H54.9767L52.2554 127.038H49.285V119.889L48.4034 119.794C46.4021 119.578 44.5495 118.635 43.1967 117.145C41.8439 115.654 41.0849 113.719 41.0637 111.706V97.9276C41.0738 97.2854 41.3373 96.6733 41.7968 96.2246C42.2563 95.7759 42.8744 95.527 43.5167 95.5321H46.5062L51.7955 104.213H51.6996C50.6953 105.259 50.1234 106.647 50.0985 108.097C50.0736 109.546 50.5976 110.952 51.5655 112.032L51.853 112.339H104.4L104.707 112.032C105.667 110.957 106.187 109.561 106.166 108.12C106.145 106.679 105.583 105.298 104.592 104.252L109.862 95.6854H112.449C112.768 95.6804 113.085 95.7384 113.381 95.8563C113.677 95.9742 113.947 96.1495 114.175 96.3722C114.403 96.5949 114.585 96.8606 114.709 97.1538C114.834 97.4471 114.9 97.7622 114.902 98.0809L114.96 111.726ZM52.9453 105.746C53.0986 105.746 69.7713 103.217 77.9734 106.532C85.639 103.389 100.836 105.344 103.251 105.689C103.782 106.327 104.092 107.121 104.133 107.95C104.175 108.78 103.946 109.6 103.481 110.288H52.7537C52.2878 109.606 52.0547 108.792 52.0893 107.966C52.1238 107.141 52.424 106.349 52.9453 105.708M51.2972 83.6505H104.707C105.123 83.6348 105.537 83.7039 105.925 83.8534C106.313 84.0029 106.666 84.2297 106.964 84.5201C107.261 84.8105 107.497 85.1584 107.656 85.5426C107.815 85.9268 107.894 86.3393 107.888 86.755V95.0339L102.599 103.638C98.4405 103.102 85.7157 101.722 78.0309 104.443C70.3653 101.76 57.6788 103.159 53.7885 103.658L48.1352 94.3631V86.6975C48.1298 86.2835 48.2083 85.8726 48.3661 85.4897C48.5238 85.1068 48.7575 84.7599 49.053 84.4698C49.3484 84.1797 49.6997 83.9524 50.0854 83.8017C50.4711 83.651 50.8833 83.58 51.2972 83.593M112.507 93.5966H109.862V86.7934C109.862 86.1217 109.728 85.4568 109.468 84.8377C109.207 84.2186 108.826 83.6577 108.346 83.1882C107.865 82.7186 107.296 82.3498 106.671 82.1034C106.046 81.857 105.379 81.7379 104.707 81.7533H51.2972C50.6257 81.7379 49.9579 81.857 49.3331 82.1034C48.7083 82.3498 48.139 82.7186 47.6588 83.1882C47.1785 83.6577 46.7969 84.2186 46.5365 84.8377C46.276 85.4568 46.1419 86.1217 46.1421 86.7934V93.5966H43.4975C42.3368 93.5863 41.2194 94.0363 40.3898 94.848C39.5601 95.6597 39.0858 96.767 39.0706 97.9276V111.706C39.0967 114.043 39.9262 116.3 41.4198 118.097C42.9135 119.894 44.9802 121.123 47.2728 121.576V128.973H53.616L56.3565 121.787H99.7436L102.484 128.973H108.731V121.557C111.018 121.102 113.08 119.879 114.576 118.091C116.071 116.303 116.91 114.057 116.953 111.726V97.9276C116.945 97.3513 116.824 96.7821 116.597 96.2525C116.369 95.7229 116.04 95.2434 115.627 94.8412C115.214 94.439 114.726 94.1221 114.191 93.9085C113.655 93.695 113.083 93.589 112.507 93.5966Z" fill="#4F4646"/>
</svg>
