<svg width="154" height="153" viewBox="0 0 154 153" fill="none" xmlns="http://www.w3.org/2000/svg">
<path d="M94.0646 117.149C92.7583 118.371 91.3107 119.433 89.7528 120.311C83.9699 123.14 77.5778 124.496 71.1446 124.259C66.1428 124.207 61.1547 123.726 56.2351 122.822C55.1136 122.323 54.1871 121.47 53.5984 120.393C53.0098 119.316 52.7914 118.075 52.9772 116.862C53.3604 112.761 53.533 105.076 53.6096 101.972C53.6185 101.054 53.8347 100.15 54.242 99.327L53.9545 99.1736L54.242 99.3078C55.5451 96.644 58.0748 91.6422 68.5575 91.6422H71.7387C77.3609 91.6827 82.9803 91.3755 88.5646 90.7223C94.3138 89.9558 97.8591 88.8059 99.1048 87.3112C101.807 84.0916 100.14 80.4696 97.8591 76.426C96.211 73.4748 92.3207 66.5758 93.7005 62.4939C93.892 61.9122 94.212 61.3811 94.6366 60.9399C95.0612 60.4987 95.5796 60.1587 96.1535 59.9451C98.4629 59.0325 100.935 58.6021 103.417 58.6802C106.644 58.734 109.856 59.1323 112.999 59.8684C114.746 60.2904 116.344 61.1855 117.617 62.4555C120.234 65.7411 121.593 69.8521 121.45 74.0497C121.297 84.1683 113.918 95.3025 107.729 102.796C103.563 107.894 99.0077 112.661 94.103 117.054M101.5 127L96.3451 117.839C97.1309 117.13 98.2616 116.038 99.7372 114.62C101.25 114.926 102.718 115.422 104.107 116.095C108.673 118.252 112.345 121.931 114.493 126.501C114.433 126.596 114.351 126.674 114.255 126.731C114.158 126.788 114.049 126.821 113.938 126.827C113.593 126.827 111.178 126.98 101.5 127ZM36.5537 113.796C37.9108 110.298 39.8551 107.057 42.3029 104.214C43.0823 103.356 44.0458 102.686 45.1213 102.255C46.1967 101.823 47.356 101.641 48.512 101.722H50.6967C51.092 101.756 51.4895 101.756 51.8849 101.722C51.8849 105.153 51.6357 112.608 51.2524 116.651C51.1123 117.776 51.2235 118.919 51.5781 119.996C51.9327 121.073 52.5218 122.058 53.303 122.879C54.0129 123.611 54.8681 124.185 55.8135 124.566H55.9476C61.0374 125.506 66.1988 126.007 71.3746 126.061C73.5579 126.06 75.7396 125.939 77.9095 125.697C82.4513 125.29 86.8675 123.988 90.9026 121.864C92.3384 121.062 93.6815 120.104 94.9079 119.008L99.4689 127.115H93.4514C75.3224 127.115 49.9301 126.98 37.7419 126.904C36.8894 126.525 36.1059 126.007 35.4231 125.371C34.6581 121.502 35.0857 117.493 36.6495 113.872M33.8132 111.822C38.4317 99.5377 41.1722 96.4907 47.7838 96.4907H48.742H49.4319C49.4763 96.4893 49.5198 96.4783 49.5595 96.4584C49.5992 96.4386 49.6341 96.4104 49.6618 96.3757C49.6803 96.3402 49.69 96.3007 49.69 96.2607C49.69 96.2207 49.6803 96.1812 49.6618 96.1457V95.4558C49.5644 92.684 50.454 89.9675 52.1723 87.7903C53.0475 86.9154 54.097 86.2347 55.2526 85.7922C56.4082 85.3498 57.6441 85.1556 58.8797 85.2223H59.7804C61.486 85.2223 63.3066 85.2223 65.2229 85.2223H71.432C74.4131 85.2532 77.3938 85.1317 80.3624 84.8582C85.9008 84.2833 89.0437 82.9418 90.2702 80.7379C92.0525 77.5184 89.9061 73.6664 87.8555 69.9486C86.2074 66.9974 84.521 63.9503 85.1342 61.7081C85.473 59.9866 86.4267 58.4471 87.8172 57.3771C90.3834 55.8822 93.3474 55.2131 96.3068 55.4607C100.73 55.5682 105.135 56.0619 109.472 56.9363C110.233 57.0911 110.982 57.296 111.715 57.5496L109.798 57.2046C107.713 56.8691 105.605 56.6897 103.493 56.668C100.753 56.5916 98.0258 57.0809 95.4828 58.1053C94.6702 58.4214 93.9376 58.9135 93.3379 59.5464C92.7381 60.1793 92.2861 60.9372 92.0141 61.7656C90.366 66.6333 94.5438 74.0497 96.326 77.2118C98.6832 81.3703 99.5455 83.8617 97.7824 85.9697C96.0194 88.0777 85.2875 89.6492 71.777 89.6492H68.6533C64.5281 89.4124 60.4344 90.4929 56.9633 92.7346C55.0891 94.1979 53.613 96.109 52.6706 98.2921C52.4836 98.7652 52.2321 99.2102 51.9232 99.6144C51.5243 99.7573 51.1002 99.8161 50.6775 99.7869H49.7193H48.4737C47.0427 99.6916 45.6087 99.9233 44.2806 100.465C42.9524 101.006 41.765 101.842 40.8081 102.911C38.2317 105.931 36.1959 109.374 34.7906 113.087C33.6866 115.884 33.0896 118.857 33.0276 121.864C32.0029 118.51 32.2414 114.897 33.6983 111.707M118.844 60.635C118.485 60.1493 118.095 59.6883 117.675 59.2552L117.521 59.1019C115.388 57.034 112.685 55.6523 109.76 55.1349C105.343 54.2296 100.853 53.7229 96.3451 53.621C94.0122 53.5517 91.6831 53.8558 89.4461 54.5217C87.9127 54.9766 86.5327 55.8418 85.4553 57.0239C84.3779 58.2061 83.644 59.6601 83.3329 61.2291C82.528 64.2186 84.406 67.5915 86.2266 70.811C88.0472 74.0306 89.9253 77.4609 88.6413 79.7797C86.9357 82.9034 78.4652 83.3059 71.2788 83.3059C69.2474 83.3059 67.216 83.3059 65.2421 83.3059H59.7612H58.8605C57.3676 83.2384 55.8772 83.4869 54.4869 84.0351C53.0966 84.5833 51.8377 85.4189 50.7925 86.4871C48.877 88.7644 47.8133 91.637 47.7838 94.6126C46.1682 94.4945 44.5461 94.7261 43.0282 95.2916C41.5102 95.8571 40.132 96.7433 38.9875 97.8897C36.707 100.208 34.6948 104.041 32.031 111.113C30.2488 115.865 30.1147 119.947 31.6478 123.263C32.7599 125.691 34.7434 127.613 37.2053 128.648H37.3011H37.5119C40.9039 128.648 71.1638 128.839 92.7615 128.839C106.521 128.839 113.593 128.839 114.34 128.629C115.088 128.418 116.621 128.188 116.563 127.057C116.559 126.593 116.454 126.135 116.257 125.716C114.802 122.678 112.73 119.977 110.173 117.786C107.616 115.595 104.629 113.962 101.404 112.991C104.279 110.059 106.962 107.069 109.396 104.099C113.072 99.6681 116.283 94.871 118.978 89.7833C121.696 84.934 123.263 79.5246 123.558 73.9731C123.72 69.0758 122.053 64.2936 118.882 60.5583" fill="#4F4646"/>
<path d="M41.6986 29.4951C41.2489 29.1156 40.7641 28.8557 40.2441 28.7151C39.7241 28.5605 39.2182 28.4832 38.7263 28.4832C38.4031 28.4832 38.0798 28.5324 37.7566 28.6308C37.4334 28.7151 37.1453 28.8627 36.8923 29.0735C36.6394 29.2843 36.4285 29.5583 36.2599 29.8956C36.1053 30.2329 36.028 30.6405 36.028 31.1183V35.3554C36.028 35.8332 36.1053 36.2408 36.2599 36.5781C36.4285 36.9013 36.6394 37.1683 36.8923 37.3791C37.1593 37.5899 37.4474 37.7445 37.7566 37.8429C38.0798 37.9413 38.4031 37.9905 38.7263 37.9905C39.2182 37.9905 39.7101 37.9202 40.2019 37.7797C40.7079 37.6391 41.2138 37.3721 41.7197 36.9786L43.0899 39.2131C42.5559 39.6628 41.9024 40.0142 41.1295 40.2671C40.3565 40.5201 39.5414 40.6466 38.6841 40.6466C37.9955 40.6466 37.3209 40.5482 36.6604 40.3515C35.9999 40.1547 35.4097 39.8666 34.8897 39.4872C34.3697 39.0937 33.9481 38.6088 33.6249 38.0326C33.3016 37.4424 33.14 36.7538 33.14 35.9668V30.528C33.14 29.7551 33.2946 29.0805 33.6038 28.5043C33.927 27.9141 34.3416 27.4222 34.8475 27.0287C35.3675 26.6352 35.9578 26.3401 36.6183 26.1433C37.2788 25.9466 37.9534 25.8482 38.642 25.8482C39.4852 25.8482 40.2933 25.9606 41.0662 26.1855C41.8532 26.4103 42.5278 26.7687 43.0899 27.2606L41.6986 29.4951ZM56.0448 35.8614C56.0448 36.6484 55.8972 37.337 55.6021 37.9272C55.307 38.5175 54.9064 39.0164 54.4005 39.4239C53.8946 39.8315 53.2973 40.1407 52.6087 40.3515C51.9341 40.5482 51.2174 40.6466 50.4585 40.6466C49.6996 40.6466 48.9758 40.5482 48.2872 40.3515C47.6126 40.1407 47.0224 39.8315 46.5165 39.4239C46.0105 39.0164 45.61 38.5175 45.3149 37.9272C45.0198 37.337 44.8722 36.6484 44.8722 35.8614V30.528C44.8722 29.7551 45.0268 29.0735 45.336 28.4832C45.6452 27.893 46.0597 27.4011 46.5797 27.0076C47.0997 26.6141 47.697 26.319 48.3715 26.1222C49.0461 25.9255 49.7418 25.8271 50.4585 25.8271C51.1752 25.8271 51.8709 25.9325 52.5454 26.1433C53.22 26.3541 53.8173 26.6633 54.3373 27.0709C54.8573 27.4644 55.2718 27.9633 55.581 28.5676C55.8902 29.1578 56.0448 29.8394 56.0448 30.6124V35.8614ZM53.1357 31.1183C53.1357 30.6405 53.0584 30.2399 52.9038 29.9167C52.7492 29.5794 52.5454 29.3054 52.2925 29.0946C52.0395 28.8838 51.7514 28.7292 51.4282 28.6308C51.119 28.5324 50.7958 28.4832 50.4585 28.4832C50.1212 28.4832 49.7909 28.5324 49.4677 28.6308C49.1445 28.7292 48.8564 28.8838 48.6034 29.0946C48.3505 29.3054 48.1467 29.5794 47.9921 29.9167C47.8375 30.2399 47.7602 30.6405 47.7602 31.1183V35.3554C47.7602 35.8332 47.8375 36.2408 47.9921 36.5781C48.1467 36.9154 48.3505 37.1894 48.6034 37.4002C48.8564 37.611 49.1445 37.7656 49.4677 37.864C49.7909 37.9483 50.1212 37.9905 50.4585 37.9905C50.7958 37.9905 51.119 37.9483 51.4282 37.864C51.7514 37.7656 52.0395 37.611 52.2925 37.4002C52.5454 37.1894 52.7492 36.9154 52.9038 36.5781C53.0584 36.2408 53.1357 35.8332 53.1357 35.3554V31.1183ZM69.5087 32.6993L68.1595 35.3765L66.5153 38.4964H64.4283L62.8051 35.4397L61.3928 32.6993H61.3084V40.499H58.4415V25.9747H61.0976L63.6905 31.0972L65.4402 34.6809H65.5667L67.3374 31.0129L69.8249 25.9747H72.481V40.499H69.593V32.6993H69.5087ZM77.8387 32.4253H80.7899C81.4505 32.4253 81.9494 32.2426 82.2866 31.8772C82.6239 31.5118 82.7926 31.055 82.7926 30.5069C82.7926 29.9448 82.6169 29.481 82.2656 29.1156C81.9283 28.7503 81.4364 28.5676 80.7899 28.5676H77.8387V32.4253ZM81.4434 25.9747C82.1602 25.9747 82.7785 26.1152 83.2985 26.3963C83.8185 26.6633 84.2471 27.0146 84.5844 27.4503C84.9357 27.886 85.1887 28.3778 85.3433 28.9259C85.5119 29.46 85.5963 29.987 85.5963 30.5069C85.5963 31.041 85.4979 31.575 85.3011 32.1091C85.1184 32.6431 84.8444 33.1279 84.479 33.5636C84.1277 33.9993 83.685 34.3576 83.1509 34.6387C82.631 34.9057 82.0337 35.0392 81.3591 35.0392H77.8387V40.499H74.9507V25.9747H81.4434ZM94.2631 37.5056H89.2038L88.2552 40.499H85.1775L90.2789 25.9747H93.2301L98.2894 40.499H95.1484L94.2631 37.5056ZM89.9838 35.0814H93.4831L92.9139 33.2263L91.7756 29.3897H91.6913L90.574 33.1631L89.9838 35.0814ZM108.254 29.4951C107.804 29.1156 107.319 28.8557 106.799 28.7151C106.279 28.5605 105.774 28.4832 105.282 28.4832C104.958 28.4832 104.635 28.5324 104.312 28.6308C103.989 28.7151 103.701 28.8627 103.448 29.0735C103.195 29.2843 102.984 29.5583 102.815 29.8956C102.661 30.2329 102.583 30.6405 102.583 31.1183V35.3554C102.583 35.8332 102.661 36.2408 102.815 36.5781C102.984 36.9013 103.195 37.1683 103.448 37.3791C103.715 37.5899 104.003 37.7445 104.312 37.8429C104.635 37.9413 104.958 37.9905 105.282 37.9905C105.774 37.9905 106.265 37.9202 106.757 37.7797C107.263 37.6391 107.769 37.3721 108.275 36.9786L109.645 39.2131C109.111 39.6628 108.458 40.0142 107.685 40.2671C106.912 40.5201 106.097 40.6466 105.239 40.6466C104.551 40.6466 103.876 40.5482 103.216 40.3515C102.555 40.1547 101.965 39.8666 101.445 39.4872C100.925 39.0937 100.503 38.6088 100.18 38.0326C99.857 37.4424 99.6954 36.7538 99.6954 35.9668V30.528C99.6954 29.7551 99.85 29.0805 100.159 28.5043C100.482 27.9141 100.897 27.4222 101.403 27.0287C101.923 26.6352 102.513 26.3401 103.174 26.1433C103.834 25.9466 104.509 25.8482 105.197 25.8482C106.041 25.8482 106.849 25.9606 107.622 26.1855C108.409 26.4103 109.083 26.7687 109.645 27.2606L108.254 29.4951ZM117.288 28.5886V40.499H114.4V28.5886H110.542V25.9747H121.125V28.5886H117.288Z" fill="#4F4646"/>
<path d="M43.8277 59.3006C43.8277 60.0033 43.6872 60.6287 43.4061 61.1768C43.1251 61.7108 42.7316 62.1605 42.2256 62.5259C41.7338 62.8772 41.1505 63.1443 40.476 63.327C39.8014 63.5097 39.0706 63.601 38.2836 63.601C37.2296 63.601 36.2388 63.4534 35.3113 63.1583C34.3838 62.8632 33.4773 62.3432 32.5919 61.5984L34.2151 59.4903C34.8475 59.9822 35.501 60.3617 36.1756 60.6287C36.8642 60.8816 37.5458 61.0081 38.2204 61.0081C38.6841 61.0081 39.0776 60.966 39.4009 60.8816C39.7241 60.7833 39.9841 60.6568 40.1808 60.5022C40.3776 60.3336 40.5181 60.1509 40.6025 59.9541C40.7008 59.7433 40.75 59.5325 40.75 59.3217C40.75 58.9985 40.6657 58.7315 40.497 58.5206C40.3425 58.3098 40.1106 58.1342 39.8014 57.9936C39.5063 57.8391 39.1479 57.7055 38.7263 57.5931C38.3187 57.4666 37.862 57.3331 37.3561 57.1926C36.7939 57.0521 36.2529 56.8834 35.7329 56.6867C35.227 56.4759 34.7773 56.2159 34.3838 55.9067C33.9903 55.5835 33.6741 55.197 33.4351 54.7473C33.2103 54.2835 33.0979 53.7284 33.0979 53.0819C33.0979 52.4495 33.2173 51.8663 33.4562 51.3323C33.6951 50.7982 34.0254 50.3415 34.447 49.962C34.8827 49.5685 35.4026 49.2664 36.0069 49.0556C36.6253 48.8307 37.3069 48.7183 38.0517 48.7183C38.9371 48.7042 39.8225 48.7886 40.7079 48.9713C41.5932 49.154 42.4505 49.5194 43.2797 50.0674L42.0148 52.3863C41.3403 51.9787 40.7008 51.6977 40.0965 51.5431C39.4922 51.3885 38.8949 51.3112 38.3047 51.3112C38.0236 51.3112 37.7426 51.3463 37.4615 51.4166C37.1945 51.4868 36.9485 51.5922 36.7237 51.7328C36.5129 51.8593 36.3372 52.0349 36.1967 52.2598C36.0702 52.4706 36.0069 52.7236 36.0069 53.0187C36.0069 53.3138 36.0772 53.5668 36.2177 53.7776C36.3723 53.9743 36.5902 54.15 36.8712 54.3046C37.1523 54.4451 37.4896 54.5716 37.8831 54.684C38.2906 54.7965 38.7474 54.9089 39.2533 55.0213C40.7851 55.3586 41.9305 55.8716 42.6894 56.5602C43.4483 57.2488 43.8277 58.1623 43.8277 59.3006ZM49.1112 48.9713V63.4956H46.2232V48.9713H49.1112ZM51.4695 61.0081L58.0255 51.5431H51.7436V48.9713H61.5038V51.3744L54.8635 60.9238H61.5038V63.4956H51.4695V61.0081ZM63.444 48.9713H73.4571V51.5641H66.332V54.8948H72.4242V57.4877H66.332V60.9238H73.4571V63.4956H63.444V48.9713Z" fill="#4F4646"/>
<path d="M76.9899 2.39553C62.3863 2.39555 48.1104 6.72481 35.9667 14.8362C23.8229 22.9475 14.3563 34.4769 8.76339 47.9671C3.17047 61.4572 1.70226 76.3027 4.54432 90.627C7.38638 104.951 14.4112 118.112 24.7308 128.445C35.0504 138.778 48.2016 145.82 62.5223 148.68C76.843 151.541 91.6903 150.092 105.188 144.516C118.685 138.941 130.227 129.489 138.354 117.356C146.481 105.223 150.829 90.9527 150.848 76.3491C150.827 56.7671 143.039 37.9928 129.193 24.1462C115.346 10.2996 96.5719 2.51165 76.9899 2.49136M76.9899 152.66C61.8924 152.66 47.134 148.183 34.5812 139.795C22.0284 131.407 12.245 119.484 6.46838 105.536C0.691707 91.5871 -0.818751 76.2388 2.12801 61.4317C5.07477 46.6246 12.3464 33.024 23.0232 22.3498C33.7001 11.6756 47.3026 4.4074 62.1104 1.46436C76.9182 -1.47869 92.2663 0.0356348 106.213 5.81581C120.161 11.596 132.08 21.3824 140.465 33.9373C148.85 46.4922 153.324 61.2517 153.32 76.3491C153.3 96.5851 145.25 115.986 130.94 130.293C116.629 144.601 97.2258 152.645 76.9899 152.66Z" fill="#4F4646"/>
</svg>
