<svg width="153" height="153" viewBox="0 0 153 153" fill="none" xmlns="http://www.w3.org/2000/svg">
<path d="M76.3491 2.39553C61.7455 2.39555 47.4697 6.72481 35.3259 14.8362C23.1822 22.9475 13.7156 34.4769 8.12266 47.9671C2.52974 61.4572 1.0615 76.3027 3.90357 90.627C6.74563 104.951 13.7704 118.112 24.09 128.445C34.4096 138.778 47.5609 145.82 61.8816 148.68C76.2022 151.541 91.0495 150.092 104.547 144.516C118.044 138.941 129.586 129.489 137.713 117.356C145.84 105.223 150.188 90.9527 150.207 76.3491C150.187 56.7671 142.399 37.9928 128.552 24.1462C114.705 10.2996 95.9312 2.51165 76.3491 2.49136M76.3491 152.66C61.2509 152.664 46.4906 148.19 33.9353 139.804C21.38 131.418 11.5936 119.497 5.81396 105.549C0.0343564 91.6008 -1.47884 76.2518 1.46576 61.4434C4.41036 46.6351 11.6805 33.0327 22.3566 22.3566C33.0327 11.6805 46.6351 4.41036 61.4434 1.46576C76.2518 -1.47884 91.6008 0.0343564 105.549 5.81396C119.497 11.5936 131.418 21.38 139.804 33.9353C148.19 46.4906 152.664 61.2509 152.66 76.3491C152.635 96.5802 144.587 115.975 130.281 130.281C115.975 144.587 96.5802 152.635 76.3491 152.66Z" fill="#4F4646"/>
<path d="M86.2395 86.3144V78.9746C86.2634 77.2623 85.9978 75.5583 85.4538 73.9345C84.967 72.4728 84.1915 71.1237 83.1733 69.9676C82.1336 68.8346 80.8668 67.9335 79.4554 67.3229C77.872 66.6625 76.1691 66.3363 74.4537 66.3647C73.1481 66.3958 71.8553 66.6285 70.6209 67.0546C69.1725 67.5335 67.7837 68.1765 66.4815 68.971V59.7149H84.7064V51.8193H57.8002V75.3335L65.6958 78.4189C66.0024 78.1889 66.4623 77.9014 67.0564 77.5373C67.6505 77.1732 68.302 76.8091 68.9728 76.4641C69.6777 76.1208 70.4081 75.8325 71.1575 75.6018C71.8424 75.3992 72.5514 75.2897 73.2655 75.276C73.8343 75.2437 74.4035 75.3292 74.9377 75.527C75.4719 75.7249 75.9595 76.0308 76.3701 76.4258C77.2009 77.4191 77.6071 78.6997 77.5007 79.9903V85.2796C77.5323 86.2372 77.3003 87.1852 76.83 88.02C76.3908 88.7194 75.8177 89.3251 75.1436 89.8022C74.4844 90.2565 73.7519 90.5936 72.9781 90.7987C72.265 90.9893 71.5314 91.0923 70.7934 91.1054C69.2273 91.0999 67.673 90.8344 66.194 90.3196C64.5437 89.6948 63.0328 88.7506 61.748 87.5409L57.0911 94.5357C58.8637 96.153 60.9516 97.3861 63.2236 98.1577C65.7563 98.9967 68.4133 99.3984 71.0808 99.3459C73.0259 99.355 74.9622 99.0839 76.83 98.541C78.5894 98.0346 80.2353 97.1953 81.6785 96.0688C83.0697 94.9629 84.2069 93.5708 85.013 91.9869C85.8944 90.202 86.3222 88.2274 86.2586 86.2377M49.6747 86.2377V78.898C49.6894 77.1863 49.424 75.4838 48.889 73.8578C48.3895 72.3977 47.6082 71.0499 46.5893 69.8909C45.5533 68.7623 44.2937 67.8616 42.8907 67.2463C40.0875 66.0651 36.9451 65.9694 34.0753 66.978C32.6269 67.4569 31.2381 68.0999 29.9359 68.8944V59.6382H48.0841V51.7427H21.2546V75.2568L29.131 78.3422C29.4568 78.1122 29.8976 77.8248 30.4916 77.4607C31.0857 77.0965 31.7373 76.7324 32.408 76.3875C33.1181 76.0409 33.8551 75.7525 34.6119 75.5251C35.2898 75.3206 35.9927 75.2109 36.7007 75.1993C37.2722 75.1689 37.8438 75.2552 38.3809 75.4529C38.9179 75.6506 39.4091 75.9555 39.8245 76.3492C40.648 77.3464 41.0533 78.624 40.9551 79.9136V85.2029C40.9901 86.1633 40.7508 87.1139 40.2652 87.9433C39.8319 88.6473 39.2577 89.254 38.5788 89.7256C37.9265 90.1796 37.2002 90.5168 36.4324 90.7221C35.7126 90.9115 34.9728 91.0144 34.2286 91.0287C32.6626 91.0233 31.1083 90.7577 29.6292 90.243C27.9789 89.6182 26.468 88.6739 25.1832 87.4642L20.5264 94.4591C22.2989 96.0763 24.3868 97.3094 26.6588 98.081C29.1836 98.929 31.8337 99.3437 34.4969 99.3075C36.4418 99.3135 38.3776 99.0425 40.2461 98.5027C41.998 97.9922 43.6369 97.1533 45.0754 96.0305C46.4666 94.9246 47.6038 93.5325 48.4099 91.9486C49.2979 90.1654 49.7323 88.1907 49.6747 86.1994" fill="#4F4646"/>
<path d="M110.348 61.4969C110.326 61.2417 110.355 60.9848 110.434 60.7412C110.513 60.4976 110.64 60.2724 110.808 60.0787C110.95 59.9351 111.121 59.822 111.309 59.7462C111.496 59.6704 111.698 59.6336 111.9 59.6379C112.38 59.6615 112.853 59.7651 113.299 59.9446C113.805 60.1409 114.282 60.4052 114.717 60.7303V64.9464C114.256 65.2578 113.761 65.515 113.241 65.7129C112.815 65.8886 112.361 65.986 111.9 66.0004C111.492 66.014 111.094 65.8699 110.789 65.5979C110.624 65.4028 110.501 65.1768 110.425 64.9333C110.349 64.6898 110.323 64.4336 110.348 64.1798V61.4969ZM117.841 56.8783H114.966L114.717 57.8749C114.121 57.4962 113.476 57.1997 112.801 56.9933C112.311 56.8349 111.801 56.7446 111.287 56.725C110.735 56.6897 110.182 56.7742 109.666 56.9727C109.15 57.1711 108.683 57.4789 108.297 57.8749C107.522 58.7985 107.137 59.9876 107.224 61.1902V64.5822C107.162 65.722 107.501 66.8475 108.182 67.7635C108.557 68.1761 109.021 68.4977 109.539 68.7036C110.058 68.9095 110.616 68.9943 111.172 68.9516C111.697 68.9383 112.218 68.8611 112.724 68.7217C113.405 68.5385 114.052 68.2474 114.64 67.8593V69.0474C114.663 69.356 114.61 69.6654 114.486 69.949C114.363 70.2327 114.172 70.4822 113.931 70.6764C113.697 70.8503 113.43 70.9743 113.146 71.0405C112.839 71.1174 112.523 71.1561 112.207 71.1555C111.99 71.1805 111.772 71.1805 111.555 71.1555L110.789 70.983C110.513 70.9006 110.25 70.7848 110.003 70.6381C109.75 70.4909 109.524 70.3031 109.332 70.0823L107.416 72.1328C107.746 72.5039 108.126 72.8265 108.546 73.091C108.937 73.3411 109.355 73.5468 109.792 73.7043C110.204 73.8421 110.627 73.9447 111.057 74.0109C111.459 74.0382 111.862 74.0382 112.264 74.0109C112.911 74.0105 113.555 73.9268 114.181 73.7618C114.823 73.5993 115.432 73.327 115.982 72.9569C116.515 72.6028 116.966 72.1389 117.304 71.5963C117.657 71.0193 117.842 70.356 117.841 69.6799V56.8783ZM97.9104 68.9708V63.3558H98.8877C99.3838 63.3235 99.8763 63.4584 100.287 63.739C100.664 64.0815 100.931 64.5284 101.053 65.023L102.28 68.9708H105.787L104.273 64.4098C104.177 64.1606 104.1 63.8923 104.004 63.6432C103.91 63.3972 103.795 63.16 103.66 62.9341C103.504 62.6986 103.31 62.4913 103.085 62.3209C102.828 62.115 102.536 61.959 102.222 61.861C102.666 61.7216 103.059 61.4551 103.353 61.0944C103.65 60.7304 103.901 60.3313 104.1 59.9062L105.557 56.8592H102.031L100.9 59.1205C100.719 59.5309 100.443 59.8923 100.095 60.1745C99.7486 60.4002 99.3386 60.5077 98.926 60.4812H97.9104V51.4358H94.7866V68.9708H97.9104Z" fill="#4F4646"/>
<path fill-rule="evenodd" clip-rule="evenodd" d="M90.8589 31.793C76.6201 26.7721 63.2628 27.1745 51.9369 32.0038C53.3168 29.2242 55.3574 26.8254 57.88 25.0179C60.4025 23.2103 63.33 22.0491 66.4057 21.6361C67.4405 21.6361 63.9718 24.0316 63.9718 25.8905C66.0981 23.7152 68.5561 21.8911 71.2541 20.4863C83.1933 18.225 97.7579 25.124 104.178 35.2042C96.2631 39.7077 88.6167 38.7304 83.0975 39.9377C80.2409 38.8743 77.6742 37.1544 75.6044 34.9168C75.9302 36.6224 76.6967 37.868 79.1689 40.6659C74.9848 41.4716 70.7177 41.7612 66.4632 41.5283C63.8078 40.351 61.5416 38.4437 59.9283 36.0283C59.2575 37.4272 60.484 39.4969 60.8481 40.551C57.6355 39.6963 54.7481 37.9091 52.5502 35.415C50.2239 36.2428 48.0244 37.3909 46.0153 38.8262C46.0153 38.8262 42.1825 39.1903 42.0483 38.5196C58.4718 29.8383 75.1253 27.232 90.8397 31.7355" fill="#4F4646"/>
<path d="M132.408 56.9744C131.898 57.6022 131.549 58.3458 131.393 59.1399C132.275 61.4333 132.73 63.869 132.734 66.3264C132.734 67.0163 132.638 67.7253 132.562 68.4152C132.029 72.2901 130.541 75.9716 128.231 79.1279C125.661 82.6554 122.228 85.4645 118.262 87.2865C114.296 89.1084 109.929 89.8822 105.579 89.5339C101.025 89.2169 96.7103 87.3737 93.333 84.3021C96.6482 86.9169 100.633 88.5442 104.831 88.9973C109.267 89.3926 113.727 88.5919 117.748 86.6785C123.14 84.2495 127.445 79.9164 129.84 74.5094C130.841 72.2499 131.425 69.8283 131.565 67.3612C129.495 68.2044 128.71 71.3665 125.682 71.309C125.854 72.5546 128.46 72.3439 128.46 72.2864C127.282 73.9452 125.792 75.3578 124.072 76.4449C121.811 77.8056 120.373 77.6523 117.154 78.8404C118.476 79.0896 120.431 81.3126 121.868 81.3126C121.696 81.3126 119.645 81.8875 117.154 82.2516C114.662 82.6157 112.171 81.6575 109.488 81.1592C110.964 81.7916 111.577 84.877 112.919 85.7969C110.101 84.4746 106.02 81.1784 101.42 80.6993C102.8 81.7342 103.739 84.0913 103.107 84.4171C102.507 83.3796 101.677 82.494 100.68 81.8293C99.6825 81.1646 98.5457 80.7386 97.3574 80.5843C93.5246 80.4694 91.2249 81.3317 90.6309 82.0599C90.2093 83.7272 91.4357 85.4903 92.5472 86.9851C93.2471 87.9286 94.2085 88.6459 95.3123 89.0479C96.4161 89.4499 97.6137 89.5189 98.7564 89.2464C98.3923 90.3963 96.61 90.9712 95.3069 90.8945C98.5072 93.1367 100.424 94.6123 107.169 94.5548C109.177 94.3857 111.13 93.8191 112.917 92.888C114.703 91.957 116.287 90.68 117.575 89.1314C117.441 91.0478 112.229 94.4782 113.57 94.5932C118.19 94.7003 122.675 93.0338 126.103 89.9363C127.001 89.0687 127.652 87.9777 127.989 86.7753C128.326 85.573 128.336 84.3026 128.02 83.0948C128.804 84.4318 129.165 85.9754 129.055 87.5217C129.744 86.9355 130.385 86.2946 130.971 85.6053C135.398 80.2585 135.724 73.8003 133.826 71.7881C134.425 71.9741 134.951 72.3413 135.332 72.839C135.713 73.3368 135.93 73.9405 135.954 74.5669C136.415 73.0885 136.504 71.5191 136.213 69.9981C135.922 68.477 135.26 67.0513 134.286 65.8473C134.373 62.7919 133.805 59.7533 132.619 56.936" fill="#4F4646"/>
<path d="M57.2184 113.4V102.837H59.2881V111.53H64.516V113.4H57.2184ZM67.949 102.837V113.4H65.8486V102.837H67.949ZM77.6057 112.005C77.3706 112.291 77.11 112.531 76.8238 112.725C76.5376 112.909 76.2412 113.063 75.9346 113.185C75.628 113.298 75.3162 113.379 74.9994 113.431C74.6928 113.482 74.4015 113.507 74.1255 113.507C73.6349 113.507 73.1443 113.436 72.6537 113.293C72.1734 113.149 71.739 112.94 71.3506 112.664C70.9724 112.378 70.6607 112.025 70.4154 111.606C70.1803 111.177 70.0628 110.676 70.0628 110.104V106.194C70.0628 105.632 70.1752 105.136 70.4001 104.707C70.6351 104.268 70.9418 103.905 71.3199 103.619C71.7083 103.322 72.1478 103.102 72.6384 102.959C73.129 102.806 73.6349 102.729 74.1562 102.729C74.7694 102.729 75.3673 102.816 75.9499 102.99C76.5325 103.154 77.0282 103.414 77.437 103.772L76.4099 105.397C76.0828 105.121 75.72 104.932 75.3213 104.83C74.9227 104.717 74.5446 104.661 74.1868 104.661C73.9415 104.661 73.6962 104.697 73.451 104.768C73.2159 104.83 73.0012 104.937 72.807 105.09C72.6231 105.244 72.4698 105.443 72.3471 105.688C72.2245 105.934 72.1631 106.23 72.1631 106.578V109.659C72.1631 110.007 72.2193 110.303 72.3318 110.548C72.4442 110.783 72.5924 110.978 72.7764 111.131C72.9604 111.284 73.1699 111.397 73.405 111.468C73.64 111.54 73.8802 111.575 74.1255 111.575C74.3299 111.575 74.5497 111.55 74.7848 111.499C75.0301 111.438 75.2702 111.31 75.5053 111.116V109.352H73.9722V107.559H77.6057V112.005ZM85.3547 113.4V108.985H81.4606V113.4H79.3603V102.837H81.4606V107.083H85.3547V102.837H87.4858V113.4H85.3547ZM93.4723 104.738V113.4H91.372V104.738H88.5664V102.837H96.2626V104.738H93.4723Z" fill="#4F4646"/>
<path d="M55.9579 123.672L55.2067 126.677L54.2255 130.647H51.9105L49.2122 120.084H51.4506L52.3704 124.254L53.0757 127.52H53.183L53.9955 124.224L55.038 120.084H57.0004L58.1043 124.438L58.8708 127.52H58.9628L59.6221 124.408L60.5879 120.084H62.8263L60.0973 130.647H57.813L56.8318 126.661L56.0652 123.672H55.9579ZM63.9026 120.084H71.1849V121.97H66.0029V124.392H70.4336V126.278H66.0029V128.777H71.1849V130.647H63.9026V120.084ZM75.1579 120.084V130.647H73.0575V120.084H75.1579ZM84.8146 129.252C84.5795 129.539 84.3189 129.779 84.0327 129.973C83.7465 130.157 83.4501 130.31 83.1435 130.433C82.8369 130.545 82.5251 130.627 82.2083 130.678C81.9017 130.729 81.6104 130.755 81.3344 130.755C80.8438 130.755 80.3532 130.683 79.8626 130.54C79.3823 130.397 78.9479 130.188 78.5595 129.912C78.1813 129.625 77.8696 129.273 77.6243 128.854C77.3892 128.424 77.2717 127.924 77.2717 127.351V123.442C77.2717 122.88 77.3841 122.384 77.609 121.955C77.844 121.515 78.1507 121.152 78.5288 120.866C78.9172 120.57 79.3567 120.35 79.8473 120.207C80.3379 120.054 80.8438 119.977 81.3651 119.977C81.9783 119.977 82.5763 120.064 83.1588 120.238C83.7414 120.401 84.2371 120.662 84.646 121.02L83.6188 122.645C83.2917 122.369 82.9289 122.18 82.5303 122.077C82.1316 121.965 81.7535 121.909 81.3958 121.909C81.1505 121.909 80.9052 121.944 80.6599 122.016C80.4248 122.077 80.2101 122.185 80.016 122.338C79.832 122.491 79.6787 122.691 79.556 122.936C79.4334 123.181 79.372 123.478 79.372 123.825V126.907C79.372 127.254 79.4283 127.551 79.5407 127.796C79.6531 128.031 79.8013 128.225 79.9853 128.378C80.1693 128.532 80.3788 128.644 80.6139 128.716C80.8489 128.787 81.0891 128.823 81.3344 128.823C81.5388 128.823 81.7586 128.798 81.9937 128.746C82.239 128.685 82.4792 128.557 82.7142 128.363V126.6H81.1811V124.806H84.8146V129.252ZM92.5637 130.647V126.232H88.6695V130.647H86.5692V120.084H88.6695V124.331H92.5637V120.084H94.6947V130.647H92.5637ZM100.681 121.985V130.647H98.5809V121.985H95.7753V120.084H103.472V121.985H100.681Z" fill="#4F4646"/>
</svg>
