<svg width="320" height="731" viewBox="0 0 320 731" fill="none" xmlns="http://www.w3.org/2000/svg">
<g clip-path="url(#clip0_243_1368)">
<rect width="320" height="731" fill="#F7F3EA"/>
<path d="M-430.152 157.961H-116.062V547.649H-174.11V212.409H-374.354V548.099H-430.152V157.961ZM-391.903 309.156H-149.811V362.705H-391.903V309.156ZM-392.353 464.402H-149.811V518.85H-392.353V464.402ZM-22.9149 218.259H375.323V273.157H-22.9149V218.259ZM69.7822 422.553H278.576V477.451H69.7822V422.553ZM146.73 130.962H204.328V553.499H146.73V130.962ZM130.53 238.059L180.029 253.808C141.33 351.905 77.432 437.852 -1.31556 487.351C-10.3153 473.851 -28.3147 453.152 -40.4643 442.352C33.3334 401.853 98.5813 320.856 130.53 238.059ZM220.528 239.409C253.377 319.506 319.074 397.804 394.672 436.952C381.172 448.202 361.823 470.701 352.823 486.001C273.626 437.402 210.628 351.455 171.479 255.608L220.528 239.409ZM666.914 204.76C660.614 250.658 651.614 303.307 635.865 356.405C608.865 447.302 570.167 503.1 521.118 503.1C470.72 503.1 429.321 447.752 429.321 371.704C429.321 268.208 519.768 179.11 636.315 179.11C747.461 179.11 818.109 256.508 818.109 355.055C818.109 449.552 760.061 516.6 646.664 534.149L612.465 481.051C630.015 478.801 642.614 476.551 654.764 473.851C711.912 459.902 756.911 418.953 756.911 352.805C756.911 282.157 712.812 231.759 634.965 231.759C539.568 231.759 487.369 309.606 487.369 366.305C487.369 411.753 505.369 433.802 522.468 433.802C541.817 433.802 558.917 405.003 577.816 344.255C590.866 301.957 600.766 250.208 605.265 202.96L666.914 204.76ZM1279.34 229.509C1273.04 236.709 1267.64 243.008 1264.04 248.408C1228.95 306.456 1162.35 387.454 1092.6 438.752L1047.6 397.354C1107 355.955 1157.4 294.757 1180.8 253.358C1141.2 253.358 977.404 253.358 943.205 253.358C924.755 253.358 900.456 255.608 891.007 256.958V193.51C903.156 195.76 927.455 198.01 943.205 198.01C971.554 198.01 1144.35 198.01 1192.5 198.01C1210.05 198.01 1224.9 196.21 1234.8 193.06L1279.34 229.509ZM1042.2 445.502C1015.65 418.953 969.754 378.004 943.205 359.105L990.453 320.406C1014.75 338.855 1059.75 375.304 1093.95 408.153C1123.65 436.952 1159.2 474.301 1180.8 500.4L1127.7 542.699C1109.25 517.5 1071.45 475.201 1042.2 445.502ZM1527.74 246.158C1536.29 265.058 1558.34 324.006 1564.64 344.705L1511.09 363.155C1505.24 341.555 1485.44 287.107 1474.64 263.708L1527.74 246.158ZM1693.78 278.557C1688.83 293.407 1686.13 302.857 1683.43 311.856C1671.73 357.305 1652.38 404.103 1621.78 443.252C1579.94 497.7 1524.14 535.049 1471.49 555.299L1424.24 507.15C1473.29 493.651 1536.29 459.452 1573.19 412.653C1603.78 374.854 1625.83 315.006 1630.78 258.308L1693.78 278.557ZM1423.34 269.558C1434.59 292.507 1456.64 347.405 1465.19 372.604L1410.29 392.854C1403.09 369.004 1380.14 308.706 1369.34 289.357L1423.34 269.558ZM2087.52 314.556C2087.52 425.703 2060.52 493.651 1951.62 541.799L1903.47 496.351C1990.77 466.201 2028.57 427.053 2028.57 316.356V196.66C2028.57 178.66 2027.67 163.811 2025.87 155.261H2090.22C2089.32 164.261 2087.52 178.66 2087.52 196.66V314.556ZM1924.62 158.861C1923.72 167.411 1921.92 181.81 1921.92 199.81V360.455C1921.92 380.704 1923.27 399.154 1924.17 407.703H1861.18C1862.08 399.154 1863.43 380.704 1863.43 360.455V199.36C1863.43 186.76 1862.53 172.811 1860.73 158.861H1924.62ZM1776.58 239.859C1784.68 241.208 1803.13 244.358 1825.18 244.358H2120.37C2144.22 244.358 2157.72 243.008 2170.32 241.208V301.057C2160.42 299.707 2144.22 299.707 2120.82 299.707H1825.18C1802.68 299.707 1786.93 300.607 1776.58 301.057V239.859ZM2241.86 304.657C2258.51 306.006 2290.91 307.806 2314.31 307.806C2367.41 307.806 2515.91 307.806 2555.95 307.806C2577.1 307.806 2596.9 305.556 2609.05 304.657V375.754C2598.25 375.304 2575.3 373.054 2556.4 373.054C2515.46 373.054 2367.41 373.054 2314.31 373.054C2289.11 373.054 2258.96 374.404 2241.86 375.754V304.657ZM2970.15 167.861C2982.75 186.76 3001.2 216.459 3011.1 237.159L2972.4 254.258C2958.9 225.909 2949 206.56 2932.35 183.16L2970.15 167.861ZM3032.25 145.811C3046.2 163.811 3063.75 193.51 3074.55 213.309L3035.85 230.409C3021.45 202.06 3010.65 184.51 2994 162.011L3032.25 145.811ZM2774.86 158.861C2804.56 175.061 2854.06 207.01 2877.46 223.209L2843.71 273.157C2818.96 255.608 2771.71 225.009 2742.01 208.36L2774.86 158.861ZM2691.61 478.351C2741.56 469.801 2795.56 454.952 2844.61 427.953C2921.1 385.204 2983.65 323.556 3019.65 259.208L3054.3 320.406C3012.45 382.504 2949 439.652 2875.21 481.951C2829.76 508.05 2764.96 530.549 2725.36 537.749L2691.61 478.351ZM2705.56 261.458C2735.71 277.657 2785.21 308.706 2808.16 324.906L2775.31 375.304C2749.66 357.755 2703.31 327.156 2672.71 311.406L2705.56 261.458ZM3160.5 189.91C3195.15 190.81 3264.44 190.36 3313.94 183.16C3359.39 176.411 3404.84 166.511 3427.34 155.711L3464.69 205.21C3449.39 209.259 3437.24 212.409 3430.04 214.209C3402.14 221.409 3366.14 227.259 3331.49 232.209C3280.19 239.409 3214.04 241.208 3174.9 242.108L3160.5 189.91ZM3179.85 500.4C3259.49 463.952 3295.04 404.553 3295.04 320.406C3295.04 320.406 3295.04 291.157 3295.04 227.259L3353.99 220.509C3353.99 259.208 3353.99 319.056 3353.99 319.056C3353.99 409.953 3324.29 486.901 3237.44 539.099L3179.85 500.4ZM3126.75 297.907C3139.35 298.807 3154.2 300.157 3168.6 300.157C3196.95 300.157 3437.69 300.157 3467.84 300.157C3477.29 300.157 3498.44 298.807 3508.34 297.907V355.955C3496.19 355.055 3481.34 354.155 3468.74 354.155C3440.39 354.155 3195.6 354.155 3169.05 354.155C3155.1 354.155 3138.45 355.055 3126.75 355.955V297.907ZM3630.28 269.558C3640.18 270.908 3656.38 271.808 3666.28 271.808H3871.92C3883.17 271.808 3896.22 270.908 3907.02 269.558V325.806C3895.77 324.906 3882.27 324.456 3871.92 324.456H3666.28C3656.38 324.456 3640.18 324.906 3630.28 325.806V269.558ZM3736.03 499.5V300.157H3794.98V499.5H3736.03ZM3607.78 466.201C3619.03 468.001 3632.98 468.901 3644.68 468.901H3893.07C3905.67 468.901 3917.82 467.551 3927.27 466.201V525.15C3917.82 523.8 3901.17 523.35 3893.07 523.35H3644.68C3633.43 523.35 3619.48 523.8 3607.78 525.15V466.201ZM4421.36 208.809C4416.86 214.659 4408.31 225.459 4404.26 231.759C4383.11 266.858 4340.36 324.006 4295.81 355.505L4249.01 318.156C4285.46 296.107 4320.56 256.508 4332.26 234.459C4304.81 234.459 4125.72 234.459 4097.37 234.459C4078.92 234.459 4063.62 235.359 4042.47 237.609V174.611C4060.02 177.31 4078.92 179.56 4097.37 179.56C4125.72 179.56 4316.51 179.56 4339.91 179.56C4352.51 179.56 4377.26 177.76 4385.81 175.511L4421.36 208.809ZM4238.21 269.108C4238.21 380.704 4235.51 472.501 4113.12 538.649L4060.47 495.901C4075.32 490.951 4091.52 483.301 4108.17 470.701C4164.86 431.103 4175.66 383.854 4175.66 310.056C4175.66 295.657 4175.21 283.957 4172.96 269.108H4238.21Z" fill="white"/>
</g>
<defs>
<clipPath id="clip0_243_1368">
<rect width="320" height="731" fill="white"/>
</clipPath>
</defs>
</svg>
