<svg width="1920" height="900" viewBox="0 0 1920 900" fill="none" xmlns="http://www.w3.org/2000/svg">
<g clip-path="url(#clip0_2_1075)">
<rect width="1920" height="900" fill="#F6F3EA"/>
<path d="M-1722.31 121.048H-1212.79V753.208H-1306.96V209.375H-1631.8V753.938H-1722.31V121.048ZM-1660.27 366.32H-1267.54V453.188H-1660.27V366.32ZM-1661 618.162H-1267.54V706.49H-1661V618.162ZM-1061.68 218.865H-415.654V307.922H-1061.68V218.865ZM-911.309 550.275H-572.599V639.332H-911.309V550.275ZM-786.483 77.2494H-693.046V762.698H-786.483V77.2494ZM-812.762 250.984L-732.464 276.533C-795.242 435.668 -898.899 575.094 -1026.65 655.391C-1041.24 633.492 -1070.44 599.913 -1090.15 582.394C-970.437 516.696 -864.59 385.3 -812.762 250.984ZM-666.766 253.174C-613.478 383.11 -506.901 510.126 -384.265 573.634C-406.165 591.883 -437.554 628.382 -452.153 653.201C-580.629 574.364 -682.826 434.938 -746.334 279.453L-666.766 253.174ZM57.3709 196.966C47.1512 271.423 32.5517 356.831 7.00244 442.968C-36.7962 590.423 -99.5742 680.941 -179.142 680.941C-260.899 680.941 -328.057 591.153 -328.057 467.787C-328.057 299.892 -181.332 155.357 7.73241 155.357C188.037 155.357 302.643 280.913 302.643 440.778C302.643 594.073 208.476 702.84 24.5219 731.309L-30.9564 645.172C-2.48727 641.522 17.9521 637.872 37.6615 633.492C130.369 610.863 203.366 544.435 203.366 437.128C203.366 322.522 131.829 240.764 5.54251 240.764C-149.213 240.764 -233.89 367.05 -233.89 459.027C-233.89 532.755 -204.691 568.524 -176.952 568.524C-145.563 568.524 -117.824 521.805 -87.1646 423.259C-65.9953 354.641 -49.9358 270.693 -42.636 194.046L57.3709 196.966ZM1050.87 237.114C1040.65 248.794 1031.89 259.014 1026.05 267.773C969.112 361.94 861.076 493.336 747.929 576.554L674.932 509.396C771.289 442.238 853.046 342.961 891.005 275.803C826.767 275.803 561.055 275.803 505.577 275.803C475.648 275.803 436.229 279.453 420.9 281.643V178.716C440.609 182.366 480.028 186.016 505.577 186.016C551.566 186.016 831.877 186.016 909.984 186.016C938.453 186.016 962.543 183.096 978.602 177.986L1050.87 237.114ZM666.172 587.503C623.103 544.435 548.646 478.007 505.577 447.348L582.225 384.57C621.643 414.499 694.641 473.627 750.119 526.915C798.298 573.634 855.966 634.222 891.005 676.561L804.868 745.178C774.939 704.3 713.62 635.682 666.172 587.503ZM1453.82 264.123C1467.69 294.783 1503.46 390.41 1513.68 423.989L1426.81 453.918C1417.32 418.879 1385.2 330.551 1367.68 292.593L1453.82 264.123ZM1723.18 316.682C1715.15 340.771 1710.77 356.101 1706.39 370.7C1687.41 444.428 1656.02 520.346 1606.38 583.854C1538.49 672.181 1447.98 732.769 1362.57 765.618L1285.92 687.51C1365.49 665.611 1467.69 610.133 1527.54 534.215C1577.18 472.897 1612.95 375.81 1620.98 283.833L1723.18 316.682ZM1284.46 302.082C1302.71 339.311 1338.48 428.368 1352.35 469.247L1263.29 502.096C1251.61 463.407 1214.38 365.59 1196.87 334.201L1284.46 302.082ZM2361.91 375.08C2361.91 555.384 2318.11 665.611 2141.46 743.719L2063.35 669.991C2204.96 621.082 2266.28 557.574 2266.28 378V183.826C2266.28 154.627 2264.82 130.538 2261.9 116.668H2366.29C2364.83 131.268 2361.91 154.627 2361.91 183.826V375.08ZM2097.66 122.508C2096.2 136.378 2093.28 159.737 2093.28 188.936V449.538C2093.28 482.387 2095.47 512.316 2096.93 526.185H1994.73C1996.19 512.316 1998.38 482.387 1998.38 449.538V188.206C1998.38 167.767 1996.92 145.137 1994 122.508H2097.66ZM1857.49 253.904C1870.63 256.094 1900.56 261.204 1936.33 261.204H2415.2C2453.89 261.204 2475.79 259.014 2496.22 256.094V353.181C2480.16 350.991 2453.89 350.991 2415.93 350.991H1936.33C1899.83 350.991 1874.28 352.451 1857.49 353.181V253.904ZM2612.29 359.021C2639.3 361.21 2691.86 364.13 2729.82 364.13C2815.95 364.13 3056.85 364.13 3121.82 364.13C3156.12 364.13 3188.24 360.481 3207.95 359.021V474.357C3190.43 473.627 3153.2 469.977 3122.55 469.977C3056.12 469.977 2815.95 469.977 2729.82 469.977C2688.94 469.977 2640.03 472.167 2612.29 474.357V359.021ZM3793.74 137.107C3814.18 167.767 3844.1 215.945 3860.16 249.524L3797.39 277.263C3775.49 231.275 3759.43 199.886 3732.42 161.927L3793.74 137.107ZM3894.47 101.339C3917.1 130.538 3945.57 178.716 3963.09 210.835L3900.31 238.574C3876.95 192.586 3859.43 164.117 3832.43 127.618L3894.47 101.339ZM3476.93 122.508C3525.1 148.787 3605.4 200.616 3643.36 226.895L3588.61 307.922C3548.46 279.453 3471.82 229.815 3423.64 202.805L3476.93 122.508ZM3341.88 640.792C3422.91 626.922 3510.51 602.833 3590.07 559.034C3714.17 489.686 3815.64 389.68 3874.03 285.293L3930.24 384.57C3862.35 485.307 3759.43 578.014 3639.71 646.632C3565.98 688.97 3460.87 725.469 3396.63 737.149L3341.88 640.792ZM3364.51 288.943C3413.42 315.222 3493.72 365.59 3530.94 391.87L3477.66 473.627C3436.05 445.158 3360.86 395.519 3311.22 369.97L3364.51 288.943ZM4102.52 172.876C4158.72 174.336 4271.14 173.606 4351.44 161.927C4425.17 150.977 4498.89 134.918 4535.39 117.398L4595.98 197.696C4571.16 204.265 4551.45 209.375 4539.77 212.295C4494.51 223.975 4436.12 233.464 4379.91 241.494C4296.69 253.174 4189.38 256.094 4125.88 257.554L4102.52 172.876ZM4133.91 676.561C4263.11 617.432 4320.78 521.075 4320.78 384.57C4320.78 384.57 4320.78 337.121 4320.78 233.464L4416.41 222.515C4416.41 285.293 4416.41 382.38 4416.41 382.38C4416.41 529.835 4368.23 654.661 4227.34 739.339L4133.91 676.561ZM4047.77 348.071C4068.21 349.531 4092.3 351.721 4115.66 351.721C4161.64 351.721 4552.18 351.721 4601.09 351.721C4616.42 351.721 4650.73 349.531 4666.79 348.071V442.238C4647.08 440.778 4622.99 439.318 4602.55 439.318C4556.56 439.318 4159.45 439.318 4116.39 439.318C4093.76 439.318 4066.75 440.778 4047.77 442.238V348.071ZM4864.61 302.082C4880.67 304.272 4906.95 305.732 4923.01 305.732H5256.61C5274.86 305.732 5296.03 304.272 5313.55 302.082V393.329C5295.3 391.87 5273.4 391.14 5256.61 391.14H4923.01C4906.95 391.14 4880.67 391.87 4864.61 393.329V302.082ZM5036.16 675.101V351.721H5131.78V675.101H5036.16ZM4828.11 621.082C4846.36 624.002 4868.99 625.462 4887.97 625.462H5290.92C5311.36 625.462 5331.07 623.272 5346.4 621.082V716.709C5331.07 714.519 5304.06 713.789 5290.92 713.789H4887.97C4869.72 713.789 4847.09 714.519 4828.11 716.709V621.082ZM6147.91 203.535C6140.61 213.025 6126.74 230.545 6120.17 240.764C6085.86 297.702 6016.52 390.41 5944.25 441.508L5868.33 380.92C5927.46 345.151 5984.4 280.913 6003.38 245.144C5958.85 245.144 5668.32 245.144 5622.33 245.144C5592.4 245.144 5567.58 246.604 5533.27 250.254V148.057C5561.74 152.437 5592.4 156.087 5622.33 156.087C5668.32 156.087 5977.83 156.087 6015.79 156.087C6036.23 156.087 6076.37 153.167 6090.24 149.517L6147.91 203.535ZM5850.81 301.352C5850.81 482.387 5846.43 631.302 5647.88 738.609L5562.47 669.261C5586.56 661.231 5612.84 648.822 5639.85 628.382C5731.83 564.144 5749.34 487.497 5749.34 367.78C5749.34 344.421 5748.61 325.442 5744.96 301.352H5850.81Z" fill="white"/>
</g>
<defs>
<clipPath id="clip0_2_1075">
<rect width="1920" height="900" fill="white"/>
</clipPath>
</defs>
</svg>
