<svg width="1920" height="900" viewBox="0 0 1920 900" fill="none" xmlns="http://www.w3.org/2000/svg">
<g clip-path="url(#clip0_36_1025)">
<rect width="1920" height="900" fill="#E6E8F0"/>
<path d="M-2191.31 105.048H-1681.79V737.208H-1775.96V193.375H-2100.8V737.938H-2191.31V105.048ZM-2129.27 350.32H-1736.54V437.188H-2129.27V350.32ZM-2130 602.162H-1736.54V690.49H-2130V602.162ZM-1530.68 202.865H-884.654V291.922H-1530.68V202.865ZM-1380.31 534.275H-1041.6V623.332H-1380.31V534.275ZM-1255.48 61.2494H-1162.05V746.698H-1255.48V61.2494ZM-1281.76 234.984L-1201.46 260.533C-1264.24 419.668 -1367.9 559.094 -1495.65 639.391C-1510.24 617.492 -1539.44 583.913 -1559.15 566.394C-1439.44 500.696 -1333.59 369.3 -1281.76 234.984ZM-1135.77 237.174C-1082.48 367.11 -975.901 494.126 -853.265 557.634C-875.165 575.883 -906.554 612.382 -921.153 637.201C-1049.63 558.364 -1151.83 418.938 -1215.33 263.453L-1135.77 237.174ZM-411.629 180.966C-421.849 255.423 -436.448 340.831 -461.998 426.968C-505.796 574.423 -568.574 664.941 -648.142 664.941C-729.899 664.941 -797.057 575.153 -797.057 451.787C-797.057 283.892 -650.332 139.357 -461.268 139.357C-280.963 139.357 -166.357 264.913 -166.357 424.778C-166.357 578.073 -260.524 686.84 -444.478 715.309L-499.956 629.172C-471.487 625.522 -451.048 621.872 -431.339 617.492C-338.631 594.863 -265.634 528.435 -265.634 421.128C-265.634 306.522 -337.171 224.764 -463.457 224.764C-618.213 224.764 -702.89 351.05 -702.89 443.027C-702.89 516.755 -673.691 552.524 -645.952 552.524C-614.563 552.524 -586.824 505.805 -556.165 407.259C-534.995 338.641 -518.936 254.693 -511.636 178.046L-411.629 180.966ZM581.87 221.114C571.65 232.794 562.891 243.014 557.051 251.773C500.112 345.94 392.076 477.336 278.929 560.554L205.932 493.396C302.289 426.238 384.046 326.961 422.005 259.803C357.767 259.803 92.0552 259.803 36.577 259.803C6.6479 259.803 -32.7709 263.453 -48.1004 265.643V162.716C-28.391 166.366 11.0278 170.016 36.577 170.016C82.5655 170.016 362.877 170.016 440.984 170.016C469.453 170.016 493.543 167.096 509.602 161.986L581.87 221.114ZM197.172 571.503C154.103 528.435 79.6456 462.007 36.577 431.348L113.225 368.57C152.643 398.499 225.641 457.627 281.119 510.915C329.298 557.634 386.966 618.222 422.005 660.561L335.868 729.178C305.939 688.3 244.62 619.682 197.172 571.503ZM984.817 248.123C998.687 278.783 1034.46 374.41 1044.68 407.989L957.808 437.918C948.318 402.879 916.199 314.551 898.68 276.593L984.817 248.123ZM1254.18 300.682C1246.15 324.771 1241.77 340.101 1237.39 354.7C1218.41 428.428 1187.02 504.346 1137.38 567.854C1069.49 656.181 978.977 716.769 893.57 749.618L816.922 671.51C896.49 649.611 998.687 594.133 1058.54 518.215C1108.18 456.897 1143.95 359.81 1151.98 267.833L1254.18 300.682ZM815.462 286.082C833.712 323.311 869.481 412.368 883.35 453.247L794.293 486.096C782.614 447.407 745.385 349.59 727.865 318.201L815.462 286.082ZM1892.91 359.08C1892.91 539.384 1849.11 649.611 1672.46 727.719L1594.35 653.991C1735.96 605.082 1797.28 541.574 1797.28 362V167.826C1797.28 138.627 1795.82 114.538 1792.9 100.668H1897.29C1895.83 115.268 1892.91 138.627 1892.91 167.826V359.08ZM1628.66 106.508C1627.2 120.378 1624.28 143.737 1624.28 172.936V433.538C1624.28 466.387 1626.47 496.316 1627.93 510.185H1525.73C1527.19 496.316 1529.38 466.387 1529.38 433.538V172.206C1529.38 151.767 1527.92 129.137 1525 106.508H1628.66ZM1388.49 237.904C1401.63 240.094 1431.56 245.204 1467.33 245.204H1946.2C1984.89 245.204 2006.79 243.014 2027.22 240.094V337.181C2011.16 334.991 1984.89 334.991 1946.93 334.991H1467.33C1430.83 334.991 1405.28 336.451 1388.49 337.181V237.904ZM2143.29 343.021C2170.3 345.21 2222.86 348.13 2260.82 348.13C2346.95 348.13 2587.85 348.13 2652.82 348.13C2687.12 348.13 2719.24 344.481 2738.95 343.021V458.357C2721.43 457.627 2684.2 453.977 2653.55 453.977C2587.12 453.977 2346.95 453.977 2260.82 453.977C2219.94 453.977 2171.03 456.167 2143.29 458.357V343.021ZM3324.74 121.107C3345.18 151.767 3375.1 199.945 3391.16 233.524L3328.39 261.263C3306.49 215.275 3290.43 183.886 3263.42 145.927L3324.74 121.107ZM3425.47 85.3386C3448.1 114.538 3476.57 162.716 3494.09 194.835L3431.31 222.574C3407.95 176.586 3390.43 148.117 3363.43 111.618L3425.47 85.3386ZM3007.93 106.508C3056.1 132.787 3136.4 184.616 3174.36 210.895L3119.61 291.922C3079.46 263.453 3002.82 213.815 2954.64 186.805L3007.93 106.508ZM2872.88 624.792C2953.91 610.922 3041.51 586.833 3121.07 543.034C3245.17 473.686 3346.64 373.68 3405.03 269.293L3461.24 368.57C3393.35 469.307 3290.43 562.014 3170.71 630.632C3096.98 672.97 2991.87 709.469 2927.63 721.149L2872.88 624.792ZM2895.51 272.943C2944.42 299.222 3024.72 349.59 3061.94 375.87L3008.66 457.627C2967.05 429.158 2891.86 379.519 2842.22 353.97L2895.51 272.943ZM3633.52 156.876C3689.72 158.336 3802.14 157.606 3882.44 145.927C3956.17 134.977 4029.89 118.918 4066.39 101.398L4126.98 181.696C4102.16 188.265 4082.45 193.375 4070.77 196.295C4025.51 207.975 3967.12 217.464 3910.91 225.494C3827.69 237.174 3720.38 240.094 3656.88 241.554L3633.52 156.876ZM3664.91 660.561C3794.11 601.432 3851.78 505.075 3851.78 368.57C3851.78 368.57 3851.78 321.121 3851.78 217.464L3947.41 206.515C3947.41 269.293 3947.41 366.38 3947.41 366.38C3947.41 513.835 3899.23 638.661 3758.34 723.339L3664.91 660.561ZM3578.77 332.071C3599.21 333.531 3623.3 335.721 3646.66 335.721C3692.64 335.721 4083.18 335.721 4132.09 335.721C4147.42 335.721 4181.73 333.531 4197.79 332.071V426.238C4178.08 424.778 4153.99 423.318 4133.55 423.318C4087.56 423.318 3690.45 423.318 3647.39 423.318C3624.76 423.318 3597.75 424.778 3578.77 426.238V332.071ZM4395.61 286.082C4411.67 288.272 4437.95 289.732 4454.01 289.732H4787.61C4805.86 289.732 4827.03 288.272 4844.55 286.082V377.329C4826.3 375.87 4804.4 375.14 4787.61 375.14H4454.01C4437.95 375.14 4411.67 375.87 4395.61 377.329V286.082ZM4567.16 659.101V335.721H4662.78V659.101H4567.16ZM4359.11 605.082C4377.36 608.002 4399.99 609.462 4418.97 609.462H4821.92C4842.36 609.462 4862.07 607.272 4877.4 605.082V700.709C4862.07 698.519 4835.06 697.789 4821.92 697.789H4418.97C4400.72 697.789 4378.09 698.519 4359.11 700.709V605.082ZM5678.91 187.535C5671.61 197.025 5657.74 214.545 5651.17 224.764C5616.86 281.702 5547.52 374.41 5475.25 425.508L5399.33 364.92C5458.46 329.151 5515.4 264.913 5534.38 229.144C5489.85 229.144 5199.32 229.144 5153.33 229.144C5123.4 229.144 5098.58 230.604 5064.27 234.254V132.057C5092.74 136.437 5123.4 140.087 5153.33 140.087C5199.32 140.087 5508.83 140.087 5546.79 140.087C5567.23 140.087 5607.37 137.167 5621.24 133.517L5678.91 187.535ZM5381.81 285.352C5381.81 466.387 5377.43 615.302 5178.88 722.609L5093.47 653.261C5117.56 645.231 5143.84 632.822 5170.85 612.382C5262.83 548.144 5280.34 471.497 5280.34 351.78C5280.34 328.421 5279.61 309.442 5275.96 285.352H5381.81Z" fill="#F5F7FF"/>
</g>
<defs>
<clipPath id="clip0_36_1025">
<rect width="1920" height="900" fill="white"/>
</clipPath>
</defs>
</svg>
