<svg width="320" height="760" viewBox="0 0 320 760" fill="none" xmlns="http://www.w3.org/2000/svg">
<g clip-path="url(#clip0_243_1793)">
<rect width="320" height="760" fill="#F6F3EA"/>
<path d="M-1292.02 403.725H-1164.39V562.08H-1187.98V425.85H-1269.35V562.263H-1292.02V403.725ZM-1276.48 465.165H-1178.1V486.925H-1276.48V465.165ZM-1276.66 528.251H-1178.1V550.377H-1276.66V528.251ZM-1126.54 428.228H-964.706V450.536H-1126.54V428.228ZM-1088.87 511.245H-1004.02V533.554H-1088.87V511.245ZM-1057.6 392.753H-1034.19V564.457H-1057.6V392.753ZM-1064.18 436.273L-1044.07 442.673C-1059.79 482.537 -1085.76 517.463 -1117.76 537.577C-1121.42 532.091 -1128.73 523.68 -1133.67 519.291C-1103.68 502.834 -1077.16 469.919 -1064.18 436.273ZM-1027.61 436.822C-1014.26 469.371 -987.563 501.188 -956.843 517.097C-962.329 521.668 -970.192 530.811 -973.849 537.028C-1006.03 517.28 -1031.63 482.354 -1047.54 443.405L-1027.61 436.822ZM-846.213 422.742C-848.774 441.393 -852.431 462.788 -858.831 484.365C-869.802 521.303 -885.528 543.977 -905.46 543.977C-925.94 543.977 -942.763 521.486 -942.763 490.582C-942.763 448.525 -906.008 412.319 -858.648 412.319C-813.482 412.319 -784.773 443.771 -784.773 483.817C-784.773 522.217 -808.362 549.463 -854.442 556.594L-868.339 535.017C-861.208 534.103 -856.088 533.188 -851.151 532.091C-827.928 526.423 -809.642 509.783 -809.642 482.902C-809.642 454.194 -827.562 433.713 -859.196 433.713C-897.962 433.713 -919.174 465.348 -919.174 488.388C-919.174 506.857 -911.86 515.817 -904.911 515.817C-897.048 515.817 -890.1 504.114 -882.419 479.428C-877.117 462.239 -873.094 441.211 -871.265 422.01L-846.213 422.742ZM-597.343 432.799C-599.903 435.725 -602.097 438.285 -603.56 440.479C-617.823 464.068 -644.886 496.982 -673.229 517.828L-691.515 501.005C-667.378 484.182 -646.898 459.314 -637.389 442.491C-653.481 442.491 -720.041 442.491 -733.938 442.491C-741.436 442.491 -751.31 443.405 -755.15 443.953V418.17C-750.213 419.085 -740.338 419.999 -733.938 419.999C-722.418 419.999 -652.201 419.999 -632.635 419.999C-625.503 419.999 -619.469 419.268 -615.446 417.988L-597.343 432.799ZM-693.709 520.571C-704.498 509.783 -723.15 493.142 -733.938 485.462L-714.738 469.737C-704.864 477.234 -686.578 492.045 -672.681 505.394C-660.612 517.097 -646.166 532.274 -637.389 542.88L-658.966 560.069C-666.464 549.829 -681.824 532.64 -693.709 520.571ZM-496.405 439.565C-492.931 447.245 -483.971 471.199 -481.411 479.611L-503.171 487.108C-505.548 478.331 -513.594 456.205 -517.982 446.696L-496.405 439.565ZM-428.93 452.731C-430.942 458.765 -432.039 462.605 -433.136 466.262C-437.89 484.731 -445.753 503.748 -458.188 519.657C-475.193 541.783 -497.868 556.96 -519.262 565.189L-538.463 545.623C-518.531 540.137 -492.931 526.24 -477.936 507.223C-465.502 491.862 -456.542 467.542 -454.53 444.502L-428.93 452.731ZM-538.828 449.074C-534.257 458.399 -525.297 480.708 -521.822 490.948L-544.131 499.177C-547.057 489.485 -556.383 464.982 -560.771 457.119L-538.828 449.074ZM-268.929 467.359C-268.929 512.525 -279.901 540.137 -324.152 559.703L-343.718 541.234C-308.244 528.983 -292.884 513.074 -292.884 468.091V419.45C-292.884 412.136 -293.249 406.102 -293.981 402.627H-267.832C-268.198 406.285 -268.929 412.136 -268.929 419.45V467.359ZM-335.124 404.09C-335.49 407.565 -336.221 413.416 -336.221 420.73V486.011C-336.221 494.24 -335.672 501.737 -335.307 505.211H-360.907C-360.541 501.737 -359.993 494.24 -359.993 486.011V420.548C-359.993 415.428 -360.358 409.759 -361.09 404.09H-335.124ZM-395.284 437.005C-391.993 437.553 -384.496 438.833 -375.536 438.833H-255.58C-245.889 438.833 -240.403 438.285 -235.283 437.553V461.874C-239.306 461.325 -245.889 461.325 -255.398 461.325H-375.536C-384.679 461.325 -391.079 461.691 -395.284 461.874V437.005ZM-206.209 463.336C-199.443 463.885 -186.277 464.616 -176.768 464.616C-155.191 464.616 -94.8476 464.616 -78.5732 464.616C-69.9789 464.616 -61.9331 463.702 -56.9959 463.336V492.228C-61.3845 492.045 -70.7103 491.131 -78.3904 491.131C-95.0305 491.131 -155.191 491.131 -176.768 491.131C-187.008 491.131 -199.26 491.68 -206.209 492.228V463.336ZM89.7422 407.747C94.8623 415.428 102.359 427.496 106.382 435.908L90.6565 442.856C85.1708 431.336 81.1479 423.473 74.3821 413.965L89.7422 407.747ZM114.977 398.787C120.645 406.102 127.777 418.17 132.165 426.216L116.44 433.165C110.588 421.645 106.2 414.513 99.4338 405.37L114.977 398.787ZM10.3816 404.09C22.4503 410.673 42.5647 423.656 52.0734 430.239L38.359 450.536C28.3018 443.405 9.10162 430.971 -2.96704 424.205L10.3816 404.09ZM-23.4472 533.92C-3.1499 530.446 18.7931 524.411 38.7247 513.44C69.8107 496.068 95.228 471.017 109.857 444.868L123.937 469.737C106.931 494.971 81.1479 518.194 51.1591 535.383C32.6904 545.989 6.35874 555.131 -9.73281 558.057L-23.4472 533.92ZM-17.7786 445.782C-5.52707 452.365 14.5874 464.982 23.9132 471.565L10.5645 492.045C0.14155 484.914 -18.6929 472.479 -31.1273 466.079L-17.7786 445.782ZM167.091 416.708C181.172 417.073 209.332 416.89 229.446 413.965C247.915 411.222 266.384 407.199 275.527 402.81L290.704 422.925C284.487 424.57 279.55 425.85 276.624 426.582C265.287 429.508 250.658 431.885 236.578 433.896C215.732 436.822 188.852 437.553 172.943 437.919L167.091 416.708ZM174.954 542.88C207.32 528.068 221.766 503.931 221.766 469.737C221.766 469.737 221.766 457.851 221.766 431.885L245.721 429.142C245.721 444.868 245.721 469.188 245.721 469.188C245.721 506.125 233.652 537.394 198.36 558.606L174.954 542.88ZM153.377 460.594C158.497 460.959 164.531 461.508 170.383 461.508C181.903 461.508 279.732 461.508 291.984 461.508C295.824 461.508 304.418 460.959 308.441 460.594V484.182C303.504 483.817 297.47 483.451 292.35 483.451C280.83 483.451 181.354 483.451 170.566 483.451C164.897 483.451 158.131 483.817 153.377 484.182V460.594ZM357.996 449.074C362.019 449.622 368.602 449.988 372.624 449.988H456.191C460.762 449.988 466.065 449.622 470.454 449.074V471.931C465.882 471.565 460.397 471.382 456.191 471.382H372.624C368.602 471.382 362.019 471.565 357.996 471.931V449.074ZM400.968 542.514V461.508H424.922V542.514H400.968ZM348.853 528.983C353.424 529.714 359.093 530.08 363.847 530.08H464.785C469.905 530.08 474.842 529.531 478.682 528.983V552.937C474.842 552.389 468.077 552.206 464.785 552.206H363.847C359.276 552.206 353.607 552.389 348.853 552.937V528.983ZM679.461 424.388C677.633 426.765 674.158 431.153 672.512 433.713C663.918 447.976 646.547 471.199 628.444 484L609.426 468.822C624.238 459.862 638.501 443.771 643.255 434.811C632.101 434.811 559.323 434.811 547.803 434.811C540.306 434.811 534.089 435.176 525.494 436.091V410.49C532.626 411.588 540.306 412.502 547.803 412.502C559.323 412.502 636.855 412.502 646.364 412.502C651.484 412.502 661.541 411.77 665.015 410.856L679.461 424.388ZM605.038 448.891C605.038 494.24 603.941 531.543 554.203 558.423L532.809 541.051C538.843 539.04 545.426 535.931 552.192 530.811C575.232 514.72 579.62 495.52 579.62 465.531C579.62 459.679 579.437 454.925 578.523 448.891H605.038Z" fill="white"/>
</g>
<defs>
<clipPath id="clip0_243_1793">
<rect width="320" height="760" fill="white"/>
</clipPath>
</defs>
</svg>
