<svg width="1920" height="900" viewBox="0 0 1920 900" fill="none" xmlns="http://www.w3.org/2000/svg">
<g clip-path="url(#clip0_2_1065)">
<rect width="1920" height="900" fill="#EFE5C8"/>
<g clip-path="url(#clip1_2_1065)">
<rect width="1920" height="1358" transform="translate(0 -60)" fill="#FFFBEF"/>
<path opacity="0.2" d="M1863.89 854.396C1848.67 832.92 1824.49 817.969 1796.2 815.426C1758.69 812.055 1724.41 831.41 1706.89 862.101C1695.04 857.185 1682.25 853.955 1668.8 852.746C1623.52 848.677 1581.62 868.419 1555.4 901.604C1540.99 888.757 1522.47 880.245 1501.78 878.385C1476.37 876.101 1452.44 884.246 1434.19 899.281C1410.34 859.842 1368.71 831.878 1319.27 827.435C1281.04 823.999 1244.87 835.251 1216.33 856.505C1201.4 841.405 1181.27 831.289 1158.45 829.238C1107.19 824.632 1061.91 862.423 1057.31 913.652C1056.5 922.648 1057.03 931.452 1058.68 939.892C1047.28 948.028 1037.02 957.727 1028.28 968.726C1016.1 929.031 980.92 898.666 937.001 894.719C914.748 892.719 893.504 897.813 875.46 908.1C863.735 843.417 810.099 791.844 741.414 785.671C690.221 781.07 642.737 802.78 612.318 839.624C599.356 829.143 583.259 822.262 565.413 820.658C532.266 817.679 501.793 833.681 484.728 859.693C465.019 862.579 446.588 869.913 430.653 880.763C419.102 815.862 365.363 764.047 296.51 757.859C253.391 753.984 212.928 768.794 183.041 795.562C184.279 741.686 143.533 695.34 89.0417 690.443C49.1442 686.857 12.5382 706.454 -7.50284 738.098L-56 1277.71L1916.56 1455L1966.68 897.343C1946.66 873.635 1917.65 857.488 1884.28 854.489C1877.38 853.869 1870.57 853.863 1863.89 854.38L1863.89 854.396Z" fill="#C0A85E"/>
<path opacity="0.3" d="M1915.24 425.532C1884.82 432.082 1844.92 465.775 1848.95 506.401C1849.45 511.446 1850.46 516.314 1851.89 520.982C1851.68 521.003 1851.48 521.023 1851.28 521.043C1829.94 523.162 1811.63 534.158 1799.62 550.002C1786.4 523.104 1757.5 505.881 1725.91 509.018C1714.03 510.198 1703.09 514.148 1693.64 520.134C1684.21 485.059 1649.99 461.181 1612.49 466.139C1574.91 471.106 1546.84 504.399 1548.33 542.255C1548.6 548.906 1549.72 555.282 1551.59 561.314C1551.38 561.335 1551.18 561.355 1550.98 561.375C1528.29 563.628 1509.05 575.903 1497.15 593.35C1497.09 591.774 1497.01 590.184 1496.85 588.602C1492.82 547.975 1456.59 518.314 1415.95 522.351C1400.9 523.846 1387.36 529.747 1376.49 538.659C1350.61 497.623 1303.06 472.395 1251.48 477.517C1213.3 481.31 1180.55 500.986 1159.08 529.336C1155.79 529.219 1152.46 529.297 1149.11 529.63C1108.46 533.667 1078.78 569.873 1082.82 610.5C1083.87 621.107 1087.13 630.957 1092.08 639.674C1077.03 625.425 1056.13 617.533 1033.89 619.742C1014.9 621.628 998.325 630.521 986.439 643.616C971.343 639.53 955.285 638.039 938.794 639.677C905.39 642.995 876.139 658.495 854.959 681.294C843.719 650.212 812.501 629.484 778.094 632.902C774.237 633.285 770.473 633.959 766.831 634.906C766.765 633.758 766.697 632.594 766.582 631.434C762.547 590.808 726.325 561.147 685.679 565.184C650.487 568.679 623.532 596.292 619.553 630.025C615.52 630.062 611.454 630.244 607.362 630.65C560.508 635.304 521.825 663.892 502.159 703.059C505.141 693.238 506.144 682.617 504.731 671.729C499.724 633.272 465.397 604.673 426.658 606.717C408.311 607.684 391.984 615.113 379.637 626.592C363.515 621.738 346.2 619.866 328.408 621.633C299.22 624.532 273.219 636.719 252.979 654.962C239.415 622.149 205.584 600.621 168.417 604.312C128.821 608.245 98.5386 639.496 94.4013 677.532C83.0512 675.621 71.2722 675.13 59.2647 676.322C21.2043 680.103 -11.4567 699.675 -32.9229 727.882L31.4667 1376.18L2037.94 1176.9L1963.98 432.209C1947.63 418.502 1922.87 423.888 1915.24 425.516L1915.24 425.532ZM493.166 726.151C492.458 725.873 491.763 725.578 491.057 725.316C492.77 722.963 494.331 720.513 495.758 717.983C494.806 720.672 493.953 723.399 493.166 726.151ZM1629.68 615.63C1629.45 614.75 1629.2 613.873 1628.94 613.013C1629.14 612.992 1629.35 612.972 1629.55 612.952C1631.75 612.734 1633.91 612.408 1636.04 612.007C1633.86 613.11 1631.73 614.318 1629.67 615.614L1629.68 615.63ZM1661.94 604.514C1659.75 604.732 1657.58 605.058 1655.45 605.459C1657.64 604.356 1659.76 603.148 1661.82 601.852C1662.05 602.731 1662.29 603.593 1662.55 604.469C1662.35 604.489 1662.15 604.509 1661.94 604.529L1661.94 604.514Z" fill="#E2D4A9"/>
<path opacity="0.2" d="M1962.16 431.952C1948.37 429.603 1935 430.997 1922.93 435.286C1916.3 406.804 1893.84 383.959 1864.71 377.341C1861.06 335.671 1827.61 301.634 1784.54 298.523C1750.58 296.071 1719.8 313.513 1703.58 340.943C1691.59 335.861 1678.59 332.609 1664.87 331.618C1626.19 328.825 1590.47 344.416 1566.19 370.949C1553.92 348.793 1531.07 333.063 1503.9 331.101C1492.85 330.303 1482.17 331.876 1472.35 335.367C1465.72 306.885 1443.26 284.04 1414.13 277.422C1410.48 235.752 1377.03 201.715 1333.96 198.604C1290.88 195.494 1251.06 225.812 1242.65 268.091C1223.48 255.945 1201.12 248.211 1176.9 246.462C1129.61 243.047 1086.08 263.187 1057.75 296.9C1050.61 294.071 1042.9 292.272 1034.84 291.689C1011.74 290.021 990.293 298.651 974.963 313.685C965.019 285.515 939.138 264.437 907.414 262.146C870.915 259.51 838.525 282.578 827.943 315.984C825.44 315.552 822.897 315.242 820.313 315.056C784.957 312.502 753.445 334.092 741.898 365.823C719.141 345.081 689.538 331.522 656.452 329.133C636.707 327.707 617.625 330.388 600.015 336.447C600.448 333.946 600.757 331.404 600.944 328.821C604.026 286.143 571.904 249.04 529.204 245.956C514.814 244.917 501.048 247.887 489.012 253.909C470.669 227.193 441.865 208.012 408.024 202.563C407.398 162.842 376.501 129.493 336.103 126.575C307.886 124.538 282.118 137.858 266.991 159.451C239.423 134.712 203.688 118.649 163.807 115.989C105.942 112.125 52.4586 137.839 18.4244 180.186L-45 1058.45L1959.26 1203.19L2012.62 464.259C2001.09 447.616 1983.17 435.53 1962.16 431.936L1962.16 431.952Z" fill="#D2AF40"/>
</g>
</g>
<defs>
<clipPath id="clip0_2_1065">
<rect width="1920" height="900" fill="white"/>
</clipPath>
<clipPath id="clip1_2_1065">
<rect width="1920" height="1358" fill="white" transform="translate(0 -60)"/>
</clipPath>
</defs>
</svg>
