<svg width="168" height="38" viewBox="0 0 168 38" fill="none" xmlns="http://www.w3.org/2000/svg">
<g clip-path="url(#clip0_126_963)">
<path d="M61.9505 7.22607H54.7123L52.1536 26.4452H57.3282L57.5886 22.9479H59.3346L59.5886 26.4323H64.8172L61.9505 7.22607ZM59.3156 19.4409H57.5886L58.3378 11.4948C58.3378 11.4948 59.3822 19.3959 59.3156 19.4409" fill="white"/>
<path d="M115.86 22.9251C115.954 23.6037 116.222 24.2454 116.638 24.7863C117.155 25.4386 117.837 25.9364 118.612 26.2264C119.582 26.6125 120.618 26.8004 121.66 26.7793C122.585 26.7946 123.505 26.6343 124.371 26.3067C125.094 26.0282 125.729 25.5574 126.209 24.9438C126.686 24.3395 126.962 23.1984 127.057 22.6262C127.184 21.7226 127.234 20.8095 127.206 19.8971V7.20654H122.19V21.4947C122.227 22.0835 122.18 22.6745 122.051 23.2498C122.004 23.3702 121.92 23.4717 121.811 23.5386C121.702 23.6055 121.574 23.6339 121.447 23.6195C121.332 23.6323 121.216 23.6082 121.115 23.5505C121.014 23.4928 120.934 23.4045 120.885 23.298C120.77 22.7872 120.726 22.2623 120.755 21.739V7.21297H115.739V18.4635C115.739 20.569 115.777 22.2726 115.854 22.9187" fill="white"/>
<path d="M165.997 7.20361H160.988V26.4356H165.997V7.20361Z" fill="white"/>
<path d="M150.977 18.2353H152.479V26.4321H157.485V7.20654H152.479V14.0533H150.977V7.20654H145.968V26.4321H150.977V18.2353Z" fill="white"/>
<path d="M133.063 26.021C134.194 26.5691 135.439 26.8305 136.692 26.7828C137.94 26.823 139.175 26.5126 140.26 25.886C141.096 25.4266 141.753 24.6933 142.124 23.8063C142.406 23.0187 142.546 21.1158 142.546 19.2289V18.4767H137.53V21.3697C137.567 22.0113 137.509 22.6548 137.359 23.2791C137.278 23.4038 137.168 23.5061 137.038 23.5769C136.908 23.6478 136.763 23.6849 136.616 23.6849C136.469 23.6849 136.324 23.6478 136.194 23.5769C136.064 23.5061 135.954 23.4038 135.873 23.2791C135.759 23.0123 135.724 22.4337 135.724 21.5465V12.5236C135.724 11.5978 135.759 10.6753 135.873 10.3924C135.987 10.1095 136.222 9.98738 136.632 9.98738C137.041 9.98738 137.267 10.0967 137.365 10.3088C137.464 10.521 137.53 11.4371 137.53 12.3532V15.5323H142.537V13.8061C142.537 12.0993 142.381 10.5306 142.083 9.72701C141.717 8.84391 141.047 8.12539 140.197 7.70513C139.097 7.13034 137.869 6.85455 136.632 6.90473C135.617 6.88434 134.607 7.05998 133.657 7.42226C132.885 7.71758 132.205 8.21574 131.686 8.86554C131.244 9.41137 130.953 10.0656 130.841 10.7621C130.724 11.8486 130.675 12.9415 130.692 14.0344V19.351C130.692 21.1415 130.854 23.0316 131.165 23.9252C131.504 24.8496 132.188 25.6023 133.07 26.021" fill="white"/>
<path d="M71.7642 26.4225L71.761 13.7704L73.5356 26.4192H76.5579L78.4437 13.8186V26.4192H82.8501L82.8247 7.20654H76.3389L75.1039 16.162L73.869 7.20654H67.3832L67.3864 26.4192L71.7642 26.4225Z" fill="white"/>
<path d="M43.1319 26.4386H47.7605V19.444L51.4241 7.22266H46.8176L45.5351 14.7734L44.2081 7.22266H39.6112L43.1319 19.444V26.4386Z" fill="white"/>
<path d="M90.9545 22.9413H92.7006L92.9514 26.4258H98.18L95.3229 7.21631H88.0783L85.5195 26.4354H90.6942L90.9545 22.9413ZM91.7006 11.4979C91.7006 11.4979 92.745 19.4022 92.6815 19.4408H90.9545L91.7006 11.4979Z" fill="white"/>
<path d="M101.399 24.6871C101.799 25.3205 102.354 25.8386 103.009 26.1914C103.735 26.5772 104.545 26.7749 105.365 26.7668C106.073 26.7668 106.822 26.6607 107.301 26.3103C107.871 25.9471 108.328 25.4277 108.619 24.8124L109.079 26.4196H112.254V16.2427H106.46V18.7982H107.349V21.4308C107.386 22.0148 107.318 22.6008 107.149 23.1602C107.086 23.3041 106.981 23.4242 106.847 23.5034C106.712 23.5825 106.557 23.6165 106.403 23.6006C106.264 23.6158 106.123 23.5864 106.001 23.5166C105.879 23.4469 105.782 23.3402 105.723 23.2116C105.587 22.68 105.532 22.1303 105.561 21.5819V12.1925C105.561 11.2539 105.622 10.6625 105.723 10.4407C105.803 10.3242 105.911 10.2313 106.038 10.1714C106.165 10.1115 106.305 10.0868 106.444 10.0999C106.803 10.0999 107.079 10.1739 107.193 10.4407C107.298 10.8391 107.35 11.2498 107.349 11.6621C107.349 11.8743 107.349 12.2054 107.349 12.4658V14.0119H112.257V13.594C112.257 12.0897 112.098 10.701 111.8 9.89421C111.501 9.08738 110.869 8.41878 109.895 7.83375C108.775 7.19902 107.508 6.87833 106.225 6.90478C104.922 6.87224 103.642 7.24837 102.558 7.98162C101.606 8.64379 101.038 9.37668 100.841 10.1706C100.597 11.5158 100.491 12.8827 100.523 14.2498V19.8172C100.503 20.8373 100.552 21.8576 100.669 22.8709C100.77 23.5234 101.015 24.1444 101.387 24.6871" fill="white"/>
<g clip-path="url(#clip1_126_963)">
<ellipse cx="16.2428" cy="17.0299" rx="15.7428" ry="15.9401" fill="white"/>
<path d="M16.2396 0.794434C19.434 0.793804 22.5568 1.74544 25.2132 3.52898C27.8695 5.31253 29.9401 7.84787 31.1629 10.8144C32.3858 13.7809 32.7061 17.0453 32.0833 20.1948C31.4605 23.3443 29.9225 26.2374 27.664 28.5082C25.4054 30.7791 22.5277 32.3256 19.3948 32.9523C16.2618 33.579 13.0143 33.2577 10.0631 32.029C7.11177 30.8003 4.58923 28.7194 2.81446 26.0495C1.03969 23.3796 0.0924073 20.2406 0.0924072 17.0295C0.0924071 12.7242 1.79353 8.59526 4.82163 5.55069C7.84973 2.50612 11.9568 0.795279 16.2396 0.794434V0.794434ZM24.2166 12.1915C24.5735 11.8327 24.774 11.346 24.774 10.8385C24.774 10.3311 24.5735 9.84444 24.2166 9.48563C23.8596 9.12681 23.3755 8.92523 22.8707 8.92523C22.3659 8.92523 21.8818 9.12681 21.5248 9.48563L16.5091 14.5276H16.1223L11.1066 9.48563C10.7497 9.12639 10.2654 8.9244 9.76031 8.9241C9.25521 8.9238 8.77069 9.12522 8.41332 9.48403C8.05595 9.84285 7.85502 10.3297 7.85472 10.8374C7.85443 11.3452 8.05479 11.8322 8.41174 12.1915L14.3722 18.1768V26.7437C14.3924 27.242 14.6034 27.7131 14.9613 28.0584C15.3191 28.4038 15.7959 28.5967 16.292 28.5967C16.788 28.5967 17.2648 28.4038 17.6226 28.0584C17.9805 27.7131 18.1915 27.242 18.2117 26.7437V18.2246L24.2166 12.1915Z" fill="#E03638"/>
</g>
</g>
<defs>
<clipPath id="clip0_126_963">
<rect width="167.472" height="36.7185" fill="white" transform="translate(0.083374 0.842285)"/>
</clipPath>
<clipPath id="clip1_126_963">
<rect width="32.2928" height="32.4623" fill="white" transform="translate(0.083374 0.842285)"/>
</clipPath>
</defs>
</svg>
