<svg width="127" height="158" viewBox="0 0 127 158" fill="none" xmlns="http://www.w3.org/2000/svg">
<path d="M124.56 122.631C124.703 118.311 123.536 114.059 121.239 110.528C119.016 108.17 116.357 106.351 113.438 105.193C110.519 104.034 107.407 103.562 104.307 103.808C100.483 102.772 96.7187 101.494 93.0322 99.9816C86.9912 98.2626 81.8196 94.0248 78.6418 88.1896C77.0019 85.2972 78.6418 75.8636 79.6258 69.7674C82.4289 65.6584 84.3736 60.9359 85.3246 55.9284C87.1695 56.1954 88.1944 54.7715 89.0144 49.5207C89.8344 44.2699 92.7452 39.5531 90.4083 38.2627C90.2117 38.1435 89.9941 38.0707 89.7697 38.0491C89.5454 38.0275 89.3194 38.0576 89.1065 38.1374C88.8936 38.2172 88.6986 38.345 88.5344 38.5123C88.3701 38.6796 88.2404 38.8826 88.1535 39.1081C88.1535 37.1502 88.1535 34.8808 88.1535 32.0774C88.1535 18.283 81.6347 4.62208 65.6044 2.79766C64.99 2.7582 64.3739 2.7582 63.7594 2.79766C63.1586 2.75923 62.5563 2.75923 61.9555 2.79766C45.9252 4.62208 39.4474 18.283 39.4064 32.0774C39.4064 34.7918 39.4064 37.0167 39.4064 38.9302C39.3079 38.7332 39.1744 38.5595 39.0134 38.4191C38.8525 38.2788 38.6676 38.1745 38.4692 38.1124C38.2708 38.0503 38.063 38.0316 37.8579 38.0574C37.6528 38.0832 37.4546 38.153 37.2746 38.2627C34.9377 39.5531 37.9305 44.4479 38.7095 49.5207C39.4884 54.5935 40.3904 56.5069 42.2353 56.2844C43.0524 61.3875 45.104 66.1634 48.1801 70.1234C49.5741 75.9971 51.132 84.6298 49.287 87.2996C45.8868 93.3442 40.5859 97.8489 34.3637 99.9816C30.6922 101.497 26.9411 102.775 23.1302 103.808C20.0245 103.567 16.907 104.041 13.9819 105.199C11.0569 106.357 8.39026 108.173 6.15689 110.528C4.13787 113.527 3.034 117.137 3 120.851C9.8628 131.293 18.8944 139.834 29.3636 145.784C39.8329 151.734 51.4457 154.924 63.2622 155.097C75.0786 155.271 86.7666 152.422 97.3802 146.782C107.994 141.141 117.235 132.868 124.355 122.631H124.56Z" stroke="#62353E" stroke-width="4.09983" stroke-miterlimit="10" stroke-linecap="round"/>
</svg>
