<svg width="129" height="177" viewBox="0 0 129 177" fill="none" xmlns="http://www.w3.org/2000/svg">
<path d="M25.3267 70.5262C21.2269 78.4023 24.9577 89.8828 30.3285 95.4896C35.6993 101.096 42.628 104.612 48.9417 110.219C52.0054 113.062 54.671 116.375 56.8544 120.053C57.4284 120.987 58.0024 121.966 58.5354 122.945C59.9703 125.348 61.2412 127.884 62.6352 130.421C62.6352 130.421 62.6352 130.777 62.9221 130.999L64.4391 134.114C68.4599 142.569 73.0076 150.716 78.0505 158.499C79.8544 161.213 82.1504 164.373 84.0773 167.755C92.8509 170.469 118.475 177.811 126.634 165.263C118.547 139.415 108.961 114.149 97.9347 89.6159C94.5216 83.9944 91.9866 77.8001 90.432 71.2826C89.3251 66.4323 87.1521 59.3571 84.9382 51.9259V51.3919C84.1182 48.7221 83.3393 46.0077 82.6013 43.2933V42.8928C82.6205 42.7601 82.6205 42.625 82.6013 42.4923C82.4865 42.0975 82.3907 41.6965 82.3143 41.2909C82.3143 41.2909 82.3143 41.0684 82.3143 40.9349V40.7124C82.2958 40.4904 82.2958 40.267 82.3143 40.0449V39.7334C82.2983 39.4073 82.2983 39.0806 82.3143 38.7545C82.3143 38.7545 82.3143 38.7545 82.3143 38.4875C82.3143 38.4875 82.3143 38.176 82.3143 38.0425V36.8411C82.2986 36.7679 82.2986 36.6917 82.3143 36.6186C82.3344 36.5009 82.3344 36.3802 82.3143 36.2626V33.7262C82.3332 33.519 82.3332 33.3104 82.3143 33.1032C82.3907 32.0438 82.5834 30.9981 82.8883 29.9883C83.1753 28.8759 83.5443 28.0304 83.7493 27.185C83.9543 26.3395 86.2912 17.9738 87.8491 12.0111C79.291 7.3432 70.0275 4.38871 60.5033 3.28945C50.9011 2.56268 41.2525 3.20598 31.8044 5.20287C32.7064 11.2101 35.9043 17.9738 34.2233 24.1591C34.2419 24.3811 34.2419 24.6045 34.2233 24.8266V25.2715C33.959 26.2309 33.6301 27.1678 33.2394 28.0749C33.1472 28.3498 33.0377 28.6175 32.9114 28.8759C32.6146 29.5176 32.2861 30.1415 31.9274 30.7448C30.8205 32.6137 29.7135 34.3047 28.6066 35.9066C27.4996 37.5085 25.9417 39.4219 24.1378 41.7358C20.2839 46.1857 16.1841 50.6355 11.5923 56.0198C3.80258 65.2309 0.645756 77.3789 4.90958 92.9532C5.31956 94.6441 9.5014 112.176 10.2394 117.516C11.4037 132.997 11.7596 148.537 11.3053 164.061C20.5093 169.771 30.67 173.432 41.193 174.83H41.726C42.3 173.228 42.833 171.626 43.407 169.98V169.357C43.407 169.134 43.407 168.912 43.612 168.734C43.6288 168.541 43.6288 168.347 43.612 168.155C43.7731 167.75 43.9101 167.334 44.0219 166.909C44.0219 166.909 44.0219 166.509 44.0219 166.331L44.2269 165.752V165.174C44.2269 164.951 44.2269 164.773 44.2269 164.595C44.2093 164.418 44.2093 164.239 44.2269 164.061C44.2447 163.869 44.2447 163.675 44.2269 163.483C44.2269 163.483 44.2269 163.127 44.2269 162.949C44.2269 162.949 44.2269 162.593 44.2269 162.415C44.2445 162.237 44.2445 162.058 44.2269 161.881V161.347C44.21 161.184 44.21 161.02 44.2269 160.857C44.2038 160.695 44.2038 160.53 44.2269 160.368C44.2093 160.19 44.2093 160.011 44.2269 159.834V159.3V158.766V158.276V157.787V157.342V156.897C44.2079 156.749 44.2079 156.6 44.2269 156.452C44.2076 156.29 44.2076 156.125 44.2269 155.963V155.518C46.1538 146.618 51.4016 131.978 52.9185 121.21" stroke="#62353E" stroke-width="4.09983" stroke-miterlimit="10" stroke-linecap="round"/>
</svg>
