<svg width="181" height="137" viewBox="0 0 181 137" fill="none" xmlns="http://www.w3.org/2000/svg">
<path d="M20.1991 99.5176C15.0598 102.212 10.3688 105.814 6.3178 110.178L3.00024 113.731L5.96858 117C13.0125 124.758 21.9715 130.142 31.7679 132.504C41.5643 134.865 51.7808 134.105 61.1883 130.314C44.5947 125.644 30.0683 114.73 20.1991 99.5176Z" stroke="#62353E" stroke-width="4.3652" stroke-miterlimit="10"/>
<path d="M143.821 38.825C143.902 35.2102 143.683 31.5948 143.166 28.0228L142.336 22.4321L136.705 23.4271C130.823 24.427 125.122 26.4256 119.812 29.3494C121.818 34.7863 123.281 40.4408 124.177 46.2161C130.349 42.7025 136.97 40.2113 143.821 38.825Z" stroke="#62353E" stroke-width="4.3652" stroke-miterlimit="10"/>
<path d="M56.4288 46.1213C57.3516 40.4141 58.8144 34.8254 60.794 29.4441C55.4195 26.4683 49.6438 24.4373 43.6825 23.4271L38.4006 22.4321L37.5712 28.0228C36.9722 31.5879 36.6509 35.2014 36.6108 38.825C43.5114 40.1864 50.1893 42.6449 56.4288 46.1213Z" stroke="#62353E" stroke-width="4.3652" stroke-miterlimit="10"/>
<path d="M163.247 54.8853V48.6314H156.961C145.857 48.6237 134.961 51.8996 125.444 58.107C125.444 59.102 125.444 60.1443 125.444 61.1866C125.473 72.3432 123.467 83.3957 119.541 93.7065C115.615 104.017 109.847 113.383 102.57 121.262L102.221 121.641C118.443 121.479 133.951 114.377 145.377 101.878C156.803 89.3795 163.224 72.4926 163.247 54.8853Z" stroke="#62353E" stroke-width="4.3652" stroke-miterlimit="10"/>
<path d="M173.941 110.176C169.963 105.906 165.38 102.355 160.366 99.6582C150.459 114.905 135.861 125.81 119.202 130.407C125.091 132.73 131.313 133.901 137.579 133.865C144.421 133.821 151.187 132.308 157.488 129.414C163.789 126.519 169.499 122.3 174.291 116.999L177.259 113.73L173.941 110.176Z" stroke="#62353E" stroke-width="4.3652" stroke-miterlimit="10"/>
<path d="M95.3674 8.88107L90.522 3.62207L85.2837 9.30748C72.5127 23.1761 65.3386 41.9815 65.3386 61.5895C65.3386 81.1975 72.5127 100.003 85.2837 113.872L90.1291 119.367L95.3674 113.682C108.138 99.8134 115.312 81.008 115.312 61.4C115.312 41.792 108.138 22.9866 95.3674 9.11796V8.88107Z" stroke="#62353E" stroke-width="4.3652" stroke-miterlimit="10"/>
<path d="M55.2082 58.0612C45.7088 51.8487 34.8257 48.5721 23.7351 48.5855H17.4492V54.8394C17.4585 72.374 23.8149 89.2026 35.1483 101.699C46.4817 114.194 61.8849 121.357 78.0382 121.643C70.7612 113.763 64.9934 104.398 61.0676 94.0871C57.1418 83.7762 55.1355 72.7237 55.1645 61.5672C55.1645 60.4301 55.1645 59.2456 55.2082 58.0612Z" stroke="#62353E" stroke-width="4.3652" stroke-miterlimit="10"/>
</svg>
