<svg width="138" height="168" viewBox="0 0 138 168" fill="none" xmlns="http://www.w3.org/2000/svg">
<path d="M51.219 110.645C50.932 112.78 52.2849 115.851 49.3741 116.607C46.208 117.641 42.8132 117.484 39.7395 116.162C38.6735 115.628 38.7965 114.382 39.1655 113.27C40.8874 107.886 42.6094 102.501 44.4133 97.1171C44.5582 96.3442 44.9507 95.652 45.5211 95.1633C46.0915 94.6746 46.8028 94.4209 47.5291 94.4473C49.5791 94.6697 49.9071 96.4942 50.0711 98.1851C50.5221 102.323 50.85 106.506 51.219 110.645ZM92.8323 117.008C86.6415 117.008 86.1905 116.563 86.7235 109.844C87.0105 105.839 87.4205 101.834 87.9125 97.8736C87.9125 96.3607 88.4044 94.6697 90.2493 94.4473C90.9756 94.3745 91.7013 94.5921 92.2902 95.0592C92.879 95.5262 93.2904 96.2106 93.4472 96.9836C95.2511 102.323 97.1371 107.708 98.654 113.181C99.638 116.385 98.531 117.008 92.8323 117.008ZM69.0532 164.977C78.9 165.083 88.7401 164.383 98.49 162.885C107.864 161.826 117.079 159.494 125.918 155.944C128.013 155.121 129.894 153.761 131.401 151.979C132.907 150.197 133.994 148.046 134.568 145.709C136.044 140.147 133.913 136.809 128.542 136.809C124.416 136.866 120.302 137.297 116.242 138.1C109.109 139.079 101.975 141.482 94.6362 139.524C92.7861 139.226 91.0776 138.276 89.7737 136.821C88.4699 135.366 87.643 133.485 87.4205 131.47C87.0515 128.711 87.9944 127.287 90.7003 127.554C94.8002 127.954 98.9 128.444 103 128.622C112.183 129.111 114.725 125.996 113.085 116.251C111.118 104.682 108.986 93.1568 106.977 81.5873C106.59 78.1931 105.169 75.0364 102.941 72.618C100.713 70.1996 97.8044 68.658 94.6772 68.2378C91.0177 67.556 87.4024 66.6196 83.8536 65.4345C82.8134 65.1305 81.8448 64.5895 81.0123 63.8475C80.1797 63.1055 79.5024 62.1796 79.0253 61.1313C78.5482 60.083 78.2823 58.9365 78.2453 57.7679C78.2083 56.5994 78.4011 55.4358 78.8109 54.3544C79.9588 50.4386 84.7966 47.4572 86.3955 34.5972C86.7235 32.9508 86.9285 31.2599 87.1745 29.569C87.836 26.3665 87.5595 23.0198 86.3834 19.9962C85.2074 16.9726 83.1906 14.4232 80.6148 12.7042C79.0609 11.7121 77.9055 10.1247 77.3759 8.25435C76.7996 6.2962 75.589 4.6311 73.9683 3.56748C72.3476 2.50387 70.4266 2.11382 68.5613 2.46959C64.9124 2.46959 61.3046 3.76003 60.3616 8.43234C60.127 9.39182 59.7055 10.2855 59.1255 11.0532C58.5456 11.8208 57.8207 12.4445 56.9997 12.8822C54.4616 14.6489 52.4812 17.2149 51.3235 20.2368C50.1658 23.2587 49.8862 26.5923 50.522 29.7914C51.7929 46.6562 57.9837 50.6166 59.0497 55.0664C59.3801 56.1436 59.5017 57.2833 59.4067 58.414C59.3118 59.5446 59.0024 60.6417 58.498 61.6364C57.9936 62.631 57.3051 63.5016 56.4757 64.1935C55.6464 64.8854 54.6942 65.3837 53.6789 65.6569C49.5791 67.0364 45.4792 67.8374 41.3794 68.9053C39.0973 69.3052 36.9744 70.4259 35.2755 72.1273C33.5766 73.8287 32.3772 76.0356 31.8268 78.4724C29.0936 92.2668 26.6747 106.106 24.5701 119.989C23.6272 125.996 26.374 128.889 32.1138 128.889C36.6646 128.889 41.2154 128.31 45.7662 127.999C50.3171 127.687 51.957 129.734 49.8661 134.585C49.3088 135.846 48.4954 136.953 47.487 137.824C46.4787 138.695 45.3017 139.307 44.0443 139.613C40.5833 140.62 36.9666 140.832 33.4257 140.236C26.087 139.079 18.7483 138.011 11.3687 137.121C9.98654 136.675 8.51092 136.705 7.14515 137.207C5.77937 137.709 4.5907 138.658 3.74297 139.924C3.13377 141.423 2.89286 143.068 3.04375 144.698C3.19465 146.328 3.73221 147.887 4.60396 149.224C7.47384 155.543 13.1726 157.056 18.6664 158.703C35.135 163.188 52.0766 165.298 69.0532 164.977Z" stroke="#62353E" stroke-width="4.09983" stroke-miterlimit="10"/>
</svg>
