<svg width="112" height="157" viewBox="0 0 112 157" fill="none" xmlns="http://www.w3.org/2000/svg">
<path d="M39.8995 16.963H71.7551C75.0171 16.963 78.1456 18.3694 80.4522 20.8729C82.7588 23.3764 84.0546 26.7719 84.0546 30.3124V49.6691C84.0611 50.0592 83.969 50.4438 83.7883 50.7812C83.6076 51.1185 83.3452 51.3956 83.0296 51.5825C82.718 51.7778 82.3645 51.8806 82.0047 51.8806C81.6448 51.8806 81.2913 51.7778 80.9797 51.5825C73.3436 46.5925 64.5859 43.9893 55.6728 44.0599C46.7598 44.1306 38.038 46.8725 30.4699 51.983C30.1583 52.1783 29.8048 52.2811 29.4449 52.2811C29.0851 52.2811 28.7316 52.1783 28.42 51.983C28.0993 51.7873 27.8318 51.5032 27.6446 51.1594C27.4575 50.8157 27.3573 50.4244 27.354 50.0251V30.4014C27.3427 28.6182 27.6607 26.8505 28.2892 25.2029C28.9178 23.5553 29.8441 22.061 31.0135 20.8084C32.1829 19.5557 33.5718 18.5701 35.098 17.9096C36.6242 17.2491 38.2568 16.9273 39.8995 16.963ZM97.2971 60.8381C97.3189 60.4232 97.3189 60.0072 97.2971 59.5922V30.4014C97.2862 23.0685 94.5948 16.04 89.8136 10.859C85.0324 5.678 78.5523 2.76806 71.7961 2.76807H39.8995C33.1504 2.77983 26.6808 5.69497 21.9085 10.8747C17.1362 16.0544 14.4503 23.0762 14.4395 30.4014V59.5922C14.3972 60.3034 14.3972 61.0169 14.4395 61.7281C6.96694 71.8127 2.92705 84.3856 3.001 97.3266C2.99007 106.551 5.02286 115.644 8.92797 123.837C12.8331 132.03 18.496 139.084 25.4393 144.404C32.3826 149.724 40.4027 153.154 48.8233 154.405C57.2439 155.656 65.8183 154.691 73.8233 151.592C81.8283 148.492 89.0294 143.349 94.8193 136.596C100.609 129.843 104.818 121.678 107.091 112.789C109.364 103.901 109.635 94.5492 107.881 85.5232C106.126 76.4972 102.398 68.0615 97.0101 60.9271L97.2971 60.8381Z" stroke="#62353E" stroke-width="4.09983" stroke-linejoin="round"/>
<path d="M25.7138 98.172C25.0714 90.736 26.7738 83.2836 30.5425 77.0348C34.3113 70.7859 39.923 66.1109 46.4589 63.7749" stroke="#62353E" stroke-width="4.09983" stroke-linecap="round" stroke-linejoin="round"/>
<path d="M97.7464 113.034C89.8747 135.95 75.2794 133.903 75.2794 133.903" stroke="#62353E" stroke-width="4.09983" stroke-linecap="round" stroke-linejoin="round"/>
</svg>
