<svg width="125" height="152" viewBox="0 0 125 152" fill="none" xmlns="http://www.w3.org/2000/svg">
<path d="M67.0382 23.9611C67.0382 25.3419 66.5328 26.6662 65.6332 27.6425C64.7337 28.6189 63.5136 29.1674 62.2414 29.1674C60.9692 29.1674 59.7491 28.6189 58.8495 27.6425C57.95 26.6662 57.4446 25.3419 57.4446 23.9611V21.2912C57.4446 19.9105 57.95 18.5862 58.8495 17.6098C59.7491 16.6335 60.9692 16.085 62.2414 16.085C63.5136 16.085 64.7337 16.6335 65.6332 17.6098C66.5328 18.5862 67.0382 19.9105 67.0382 21.2912V23.9611ZM67.0382 45.0978C67.0382 46.4785 66.5328 47.8028 65.6332 48.7791C64.7337 49.7555 63.5136 50.304 62.2414 50.304C60.9692 50.304 59.7491 49.7555 58.8495 48.7791C57.95 47.8028 57.4446 46.4785 57.4446 45.0978V42.3834C57.4446 41.0026 57.95 39.6783 58.8495 38.702C59.7491 37.7256 60.9692 37.1771 62.2414 37.1771C63.5136 37.1771 64.7337 37.7256 65.6332 38.702C66.5328 39.6783 67.0382 41.0026 67.0382 42.3834V45.0978ZM67.0382 65.5669C67.0382 66.9477 66.5328 68.2719 65.6332 69.2483C64.7337 70.2247 63.5136 70.7732 62.2414 70.7732C60.9692 70.7732 59.7491 70.2247 58.8495 69.2483C57.95 68.2719 57.4446 66.9477 57.4446 65.5669V62.808C57.4446 61.4272 57.95 60.103 58.8495 59.1266C59.7491 58.1502 60.9692 57.6017 62.2414 57.6017C63.5136 57.6017 64.7337 58.1502 65.6332 59.1266C66.5328 60.103 67.0382 61.4272 67.0382 62.808V65.5669ZM67.0382 86.214C67.0382 87.5948 66.5328 88.9191 65.6332 89.8954C64.7337 90.8718 63.5136 91.4203 62.2414 91.4203C60.9692 91.4203 59.7491 90.8718 58.8495 89.8954C57.95 88.9191 57.4446 87.5948 57.4446 86.214V83.4996C57.4446 82.1189 57.95 80.7946 58.8495 79.8183C59.7491 78.8419 60.9692 78.2934 62.2414 78.2934C63.5136 78.2934 64.7337 78.8419 65.6332 79.8183C66.5328 80.7946 67.0382 82.1189 67.0382 83.4996V86.214ZM67.0382 105.615C67.0382 106.996 66.5328 108.32 65.6332 109.297C64.7337 110.273 63.5136 110.822 62.2414 110.822C60.9692 110.822 59.7491 110.273 58.8495 109.297C57.95 108.32 57.4446 106.996 57.4446 105.615V102.856C57.4446 101.476 57.95 100.151 58.8495 99.1749C59.7491 98.1986 60.9692 97.6501 62.2414 97.6501C63.5136 97.6501 64.7337 98.1986 65.6332 99.1749C66.5328 100.151 67.0382 101.476 67.0382 102.856V105.615ZM67.0382 125.595C67.0382 126.976 66.5328 128.3 65.6332 129.276C64.7337 130.253 63.5136 130.801 62.2414 130.801C60.9692 130.801 59.7491 130.253 58.8495 129.276C57.95 128.3 57.4446 126.976 57.4446 125.595V122.881C57.4446 121.5 57.95 120.175 58.8495 119.199C59.7491 118.223 60.9692 117.674 62.2414 117.674C63.5136 117.674 64.7337 118.223 65.6332 119.199C66.5328 120.175 67.0382 121.5 67.0382 122.881V125.595Z" fill="#62353E"/>
<path d="M61.7096 149.445C73.723 149.603 85.6988 147.956 97.2961 144.55C94.6653 138.658 92.5249 132.522 90.9003 126.217C89.1298 118.351 90.0323 110.057 93.4422 102.855C95.6652 96.2713 97.2588 89.457 98.198 82.5195C98.198 82.5195 100.453 102.588 101.56 110.998C102.667 119.408 102.216 124.348 104.143 136.807C104.348 138.231 104.676 139.878 105.045 141.658C111.333 138.901 117.039 134.783 121.813 129.554C120.649 124.959 119.098 120.491 117.18 116.205C117.18 116.205 116.442 104.413 115.745 92.7096C115.048 81.0065 113.449 66.0107 112.998 55.3311C112.547 44.6516 112.998 38.2438 109.883 34.328C108.09 32.316 105.913 30.7552 103.505 29.7557C101.096 28.7562 98.515 28.3423 95.9431 28.5432C92.8278 27.6814 89.7726 26.581 86.8005 25.2504C84.2881 24.5106 81.9378 23.2316 79.8886 21.489C77.8394 19.7464 76.1329 17.5755 74.87 15.1048C74.0508 11.5553 74.0508 7.84126 74.87 4.29175C66.9787 2.60197 58.8593 2.60197 50.968 4.29175C51.921 7.62486 51.921 11.1932 50.968 14.5263C48.2171 19.6447 43.8459 23.5035 38.6685 25.3839C35.651 26.6682 32.555 27.7239 29.4029 28.5432C26.8254 28.3479 24.2396 28.7642 21.8253 29.7632C19.411 30.7622 17.2261 32.3199 15.4225 34.328C12.4296 38.2438 12.7576 44.5181 12.3066 55.3311C11.8556 66.1442 10.2567 80.962 9.55973 92.7096C8.86276 104.457 8.04279 116.205 8.04279 116.205C5.89927 121.067 4.20991 126.15 3 131.378C8.31113 135.503 14.1368 138.784 20.3013 141.124C20.6293 139.522 20.8753 138.053 21.0802 136.674C23.0072 124.259 22.5562 119.275 23.6631 110.865C24.7701 102.455 27.066 82.386 27.066 82.386C27.9735 89.3693 29.5537 96.2299 31.7808 102.855C35.2465 110.052 36.1793 118.372 34.4047 126.261C32.8429 132.392 30.7566 138.351 28.173 144.06C39.066 147.427 50.3055 149.296 61.6276 149.623" stroke="#62353E" stroke-width="4.37" stroke-miterlimit="10"/>
</svg>
